<svg width="14" height="12" viewBox="0 0 14 12" fill="none" xmlns="http://www.w3.org/2000/svg">
<path d="M0 1C0 0.585938 0.335938 0.25 0.75 0.25H13.25C13.6656 0.25 14 0.585938 14 1C14 1.41562 13.6656 1.75 13.25 1.75H0.75C0.335938 1.75 0 1.41562 0 1ZM0 6C0 5.58437 0.335938 5.25 0.75 5.25H13.25C13.6656 5.25 14 5.58437 14 6C14 6.41563 13.6656 6.75 13.25 6.75H0.75C0.335938 6.75 0 6.41563 0 6ZM13.25 11.75H0.75C0.335938 11.75 0 11.4156 0 11C0 10.5844 0.335938 10.25 0.75 10.25H13.25C13.6656 10.25 14 10.5844 14 11C14 11.4156 13.6656 11.75 13.25 11.75Z" fill="#5F5E66"/>
</svg>
