<svg width="12" height="12" viewBox="0 0 12 12" fill="none" xmlns="http://www.w3.org/2000/svg">
<path d="M11.705 10.4683C12.0563 10.8188 12.0563 11.3874 11.705 11.7379C11.3536 12.0884 10.7835 12.0884 10.4321 11.7379L6.00061 7.28504L1.53765 11.7364C1.18628 12.0869 0.616179 12.0869 0.264768 11.7364C-0.0866433 11.3859 -0.0866058 10.8173 0.264768 10.4668L4.72923 6.01697L0.26353 1.53194C-0.0878435 1.18148 -0.0878435 0.612869 0.26353 0.262371C0.614904 -0.0881267 1.185 -0.0880893 1.53641 0.262371L6.00061 4.74889L10.4636 0.297533C10.8149 -0.0529275 11.385 -0.0529275 11.7365 0.297533C12.0879 0.647993 12.0878 1.21661 11.7365 1.5671L7.27199 6.01697L11.705 10.4683Z" fill="#5F5E66"/>
</svg>
