<svg width="38" height="27" viewBox="0 0 38 27" fill="none" xmlns="http://www.w3.org/2000/svg">
<path d="M7.47826 26.4C4.86957 26.4 2.95652 25.8133 1.73913 24.64C0.57971 23.408 0 21.8827 0 20.064V18.216C0 16.5147 0.231884 14.8133 0.695652 13.112C1.21739 11.352 1.88406 9.68 2.69565 8.096C3.56522 6.512 4.57971 5.04533 5.73913 3.696C6.89855 2.288 8.14493 1.056 9.47826 0H17.5652C15.6522 1.76 14 3.54933 12.6087 5.368C11.2754 7.18667 10.2609 9.21067 9.56522 11.44C11.4203 11.792 12.7826 12.584 13.6522 13.816C14.5217 14.9893 14.9565 16.3387 14.9565 17.864V20.064C14.9565 21.8827 14.3478 23.408 13.1304 24.64C11.971 25.8133 10.087 26.4 7.47826 26.4ZM27.913 26.4C25.3043 26.4 23.3913 25.8133 22.1739 24.64C21.0145 23.408 20.4348 21.8827 20.4348 20.064V18.216C20.4348 16.5147 20.6667 14.8133 21.1304 13.112C21.6522 11.352 22.3188 9.68 23.1304 8.096C24 6.512 25.0145 5.04533 26.1739 3.696C27.3333 2.288 28.5797 1.056 29.913 0H38C36.087 1.76 34.4348 3.54933 33.0435 5.368C31.7101 7.18667 30.6957 9.21067 30 11.44C31.8551 11.792 33.2174 12.584 34.087 13.816C34.9565 14.9893 35.3913 16.3387 35.3913 17.864V20.064C35.3913 21.8827 34.7826 23.408 33.5652 24.64C32.4058 25.8133 30.5217 26.4 27.913 26.4Z" fill="#1B1B1F"/>
</svg>
