<svg width="14" height="14" viewBox="0 0 14 14" fill="none" xmlns="http://www.w3.org/2000/svg">
<path d="M0 7C0 3.13359 3.13359 0 7 0C10.8664 0 14 3.13359 14 7C14 10.8664 10.8664 14 7 14C3.13359 14 0 10.8664 0 7ZM7 10.0625C7.36367 10.0625 7.65625 9.76992 7.65625 9.40625V7.65625H9.40625C9.76992 7.65625 10.0625 7.36367 10.0625 7C10.0625 6.63633 9.76992 6.34375 9.40625 6.34375H7.65625V4.59375C7.65625 4.23008 7.36367 3.9375 7 3.9375C6.63633 3.9375 6.34375 4.23008 6.34375 4.59375V6.34375H4.59375C4.23008 6.34375 3.9375 6.63633 3.9375 7C3.9375 7.36367 4.23008 7.65625 4.59375 7.65625H6.34375V9.40625C6.34375 9.76992 6.63633 10.0625 7 10.0625Z" fill="#ABA9B8"/>
</svg>
