<svg width="16" height="16" viewBox="0 0 16 16" fill="none" xmlns="http://www.w3.org/2000/svg">
    <path d="M14.7877 13.8824L11.1226 10.2173C11.9158 9.24636 12.3534 8.02376 12.3534 6.68903C12.3534 3.54639 9.80623 1 6.66441 1C3.52259 1 1 3.54721 1 6.68903C1 9.83085 3.54693 12.3781 6.66441 12.3781C7.99887 12.3781 9.22311 11.9156 10.1927 11.1462L13.8578 14.8112C14.0109 14.9409 14.1805 15.0038 14.3473 15.0038C14.5142 15.0038 14.6832 14.9397 14.8115 14.8115C15.0667 14.5552 15.0667 14.1395 14.7877 13.8824ZM2.31285 6.68903C2.31285 4.27611 4.27611 2.31285 6.68903 2.31285C9.10194 2.31285 11.0652 4.27611 11.0652 6.68903C11.0652 9.10194 9.10194 11.0652 6.68903 11.0652C4.27611 11.0652 2.31285 9.1014 2.31285 6.68903Z" fill="#5F5E66"/>
</svg>