<svg width="96" height="16" viewBox="0 0 96 16" fill="none" xmlns="http://www.w3.org/2000/svg">
<path d="M10.5549 5.11034L14.5004 5.68995C14.8272 5.73643 15.1017 5.96609 15.2061 6.2805C15.3104 6.59765 15.2253 6.94214 14.9892 7.17726L12.1282 9.97144L12.8036 13.9795C12.8585 14.3076 12.724 14.6412 12.4494 14.8353C12.1776 15.0294 11.8179 15.054 11.5241 14.8982L7.9987 13.0254L4.47601 14.8982C4.17947 15.054 3.81979 15.0294 3.54797 14.8353C3.27615 14.6412 3.13887 14.3076 3.19653 13.9795L3.87196 9.97144L1.01043 7.17726C0.774026 6.94214 0.690009 6.59765 0.793795 6.2805C0.897306 5.96609 1.17105 5.73643 1.50025 5.68995L5.44248 5.11034L7.21069 1.4924C7.35621 1.19122 7.66372 1 7.9987 1C8.33641 1 8.64393 1.19122 8.78945 1.4924L10.5549 5.11034Z" fill="#1B1B1F"/>
<path d="M30.5549 5.11034L34.5004 5.68995C34.8272 5.73643 35.1017 5.96609 35.2061 6.2805C35.3104 6.59765 35.2253 6.94214 34.9892 7.17726L32.1282 9.97144L32.8036 13.9795C32.8585 14.3076 32.724 14.6412 32.4494 14.8353C32.1776 15.0294 31.8179 15.054 31.5241 14.8982L27.9987 13.0254L24.476 14.8982C24.1795 15.054 23.8198 15.0294 23.548 14.8353C23.2762 14.6412 23.1389 14.3076 23.1965 13.9795L23.872 9.97144L21.0104 7.17726C20.774 6.94214 20.69 6.59765 20.7938 6.2805C20.8973 5.96609 21.171 5.73643 21.5003 5.68995L25.4425 5.11034L27.2107 1.4924C27.3562 1.19122 27.6637 1 27.9987 1C28.3364 1 28.6439 1.19122 28.7894 1.4924L30.5549 5.11034Z" fill="#1B1B1F"/>
<path d="M50.5549 5.11034L54.5004 5.68995C54.8272 5.73643 55.1017 5.96609 55.2061 6.2805C55.3104 6.59765 55.2253 6.94214 54.9892 7.17726L52.1282 9.97144L52.8036 13.9795C52.8585 14.3076 52.724 14.6412 52.4494 14.8353C52.1776 15.0294 51.8179 15.054 51.5241 14.8982L47.9987 13.0254L44.476 14.8982C44.1795 15.054 43.8198 15.0294 43.548 14.8353C43.2762 14.6412 43.1389 14.3076 43.1965 13.9795L43.872 9.97144L41.0104 7.17726C40.774 6.94214 40.69 6.59765 40.7938 6.2805C40.8973 5.96609 41.171 5.73643 41.5003 5.68995L45.4425 5.11034L47.2107 1.4924C47.3562 1.19122 47.6637 1 47.9987 1C48.3364 1 48.6439 1.19122 48.7894 1.4924L50.5549 5.11034Z" fill="#1B1B1F"/>
<path d="M70.5549 5.11034L74.5004 5.68995C74.8272 5.73643 75.1017 5.96609 75.2061 6.2805C75.3104 6.59765 75.2253 6.94214 74.9892 7.17726L72.1282 9.97144L72.8036 13.9795C72.8585 14.3076 72.724 14.6412 72.4494 14.8353C72.1776 15.0294 71.8179 15.054 71.5241 14.8982L67.9987 13.0254L64.476 14.8982C64.1795 15.054 63.8198 15.0294 63.548 14.8353C63.2762 14.6412 63.1389 14.3076 63.1965 13.9795L63.872 9.97144L61.0104 7.17726C60.774 6.94214 60.69 6.59765 60.7938 6.2805C60.8973 5.96609 61.171 5.73643 61.5003 5.68995L65.4425 5.11034L67.2107 1.4924C67.3562 1.19122 67.6637 1 67.9987 1C68.3364 1 68.6439 1.19122 68.7894 1.4924L70.5549 5.11034Z" fill="#1B1B1F"/>
<path d="M92.8036 13.9795C92.8585 14.3076 92.724 14.6412 92.4494 14.8353C92.1776 15.0294 91.8179 15.054 91.5241 14.8982L87.9987 13.0254L84.476 14.8982C84.1795 15.054 83.8198 15.0294 83.548 14.8353C83.2762 14.6412 83.1389 14.3076 83.1965 13.9795L83.872 9.97144L81.0104 7.17726C80.774 6.94214 80.69 6.59765 80.7938 6.2805C80.8973 5.96609 81.171 5.73643 81.5003 5.68995L85.4425 5.11034L87.2107 1.4924C87.3562 1.19122 87.6637 1 87.9987 1C88.3364 1 88.6439 1.19122 88.7894 1.4924L90.5549 5.11034L94.5004 5.68995C94.8272 5.73643 95.1017 5.96609 95.2061 6.2805C95.3104 6.59765 95.2253 6.94214 94.9892 7.17726L92.1282 9.97144L92.8036 13.9795ZM87.996 11.292L87.9987 11.2892L91.0629 12.9187L90.478 9.46565L92.9711 7.01049L89.528 6.50743L87.9987 3.3756L87.996 3.38353V11.292Z" fill="#1B1B1F"/>
</svg>
