<svg width="16" height="16" viewBox="0 0 16 16" fill="none" xmlns="http://www.w3.org/2000/svg">
<g clip-path="url(#clip0_4606_49479)">
<g clip-path="url(#clip1_4606_49479)">
<path d="M2.41608 0H13.5839C14.9183 0 16 1.08172 16 2.41608V13.5823C16 14.9167 14.9183 15.9984 13.5839 15.9984H2.41608C1.08172 15.9984 0 14.9167 0 13.5823V2.41608C0 1.08172 1.08172 0 2.41608 0Z" fill="#5F5E66"/>
<path d="M5.11926 13.4276V6.15689H2.70262V13.4276H5.11926ZM3.91126 5.16361C4.75398 5.16361 5.27854 4.60529 5.27854 3.90761C5.26286 3.19417 4.75398 2.65137 3.92726 2.65137C3.10062 2.65137 2.56006 3.19417 2.56006 3.90761C2.56006 4.60537 3.08446 5.16361 3.8955 5.16361H3.91118H3.91126Z" fill="white"/>
<path d="M6.45703 13.4267H8.87367V9.36639C8.87367 9.14911 8.88935 8.93199 8.95319 8.77663C9.12791 8.34247 9.52551 7.89287 10.1931 7.89287C11.0676 7.89287 11.4174 8.55959 11.4174 9.53695V13.4267H13.8339V9.25775C13.8339 7.02447 12.6417 5.98535 11.0517 5.98535C9.74799 5.98535 9.17559 6.71399 8.85759 7.21039H8.87375V6.15591H6.45711C6.48879 6.83815 6.45711 13.4266 6.45711 13.4266L6.45703 13.4267Z" fill="white"/>
</g>
</g>
<defs>
<clipPath id="clip0_4606_49479">
<rect width="16" height="16" fill="white"/>
</clipPath>
<clipPath id="clip1_4606_49479">
<rect width="16" height="16" rx="1.33333" fill="white"/>
</clipPath>
</defs>
</svg>
