<svg width="16" height="16" viewBox="0 0 16 16" fill="none" xmlns="http://www.w3.org/2000/svg">
<g clip-path="url(#clip0_4606_49493)">
<path d="M15.6636 4.12692C15.4818 3.43601 14.9364 2.89055 14.2455 2.69964C13 2.36328 8 2.36328 8 2.36328C8 2.36328 3 2.36328 1.74545 2.69964C1.05455 2.88146 0.518182 3.42692 0.327273 4.12692C4.33488e-08 5.38146 0 7.99964 0 7.99964C0 7.99964 -2.16744e-08 10.6178 0.336364 11.8724C0.518182 12.5633 1.06364 13.1087 1.75455 13.2996C3 13.636 8 13.636 8 13.636C8 13.636 13 13.636 14.2545 13.2996C14.9455 13.1178 15.4818 12.5724 15.6727 11.8724C16 10.6178 16 7.99964 16 7.99964C16 7.99964 16 5.38146 15.6636 4.12692Z" fill="#5F5E66"/>
<path d="M6.36377 10.3818L10.5456 7.99998L6.36377 5.61816V10.3818Z" fill="white"/>
</g>
<defs>
<clipPath id="clip0_4606_49493">
<rect width="16" height="16" fill="white"/>
</clipPath>
</defs>
</svg>
