<svg width="16" height="16" viewBox="0 0 16 16" fill="none" xmlns="http://www.w3.org/2000/svg">
<g clip-path="url(#clip0_4606_49490)">
<path d="M5.39251 13.6922C10.679 13.6922 13.5696 9.31157 13.5696 5.51506C13.5696 5.3899 13.5696 5.26474 13.5636 5.14554C14.1239 4.74026 14.6126 4.23367 15 3.65555C14.4874 3.88203 13.9332 4.03699 13.3491 4.10851C13.9451 3.75091 14.398 3.19067 14.6126 2.51719C14.0583 2.84499 13.4444 3.08339 12.7888 3.21451C12.2644 2.65427 11.5194 2.30859 10.6909 2.30859C9.10558 2.30859 7.81822 3.59595 7.81822 5.1813C7.81822 5.40778 7.84206 5.6283 7.8957 5.8369C5.50575 5.7177 3.38995 4.57339 1.97148 2.83307C1.72712 3.25623 1.58408 3.75091 1.58408 4.27539C1.58408 5.2707 2.09068 6.15278 2.86547 6.66534C2.39464 6.65342 1.9536 6.5223 1.5662 6.30774V6.3435C1.5662 7.73813 2.55556 8.89437 3.87271 9.16257C3.63431 9.22813 3.37803 9.26389 3.11579 9.26389C2.93103 9.26389 2.75224 9.24601 2.57344 9.21025C2.93699 10.3546 3.99787 11.183 5.25543 11.2068C4.27203 11.9757 3.03235 12.4346 1.6854 12.4346C1.45296 12.4346 1.22648 12.4227 1 12.3929C2.25756 13.2154 3.77139 13.6922 5.39251 13.6922Z" fill="#5F5E66"/>
</g>
<defs>
<clipPath id="clip0_4606_49490">
<rect width="16" height="16" fill="white"/>
</clipPath>
</defs>
</svg>
