<svg width="16" height="16" viewBox="0 0 16 16" fill="none" xmlns="http://www.w3.org/2000/svg">
<g clip-path="url(#clip0_4606_49499)">
<g clip-path="url(#clip1_4606_49499)">
<path d="M4.75293 0.175781C5.59355 0.138281 5.8623 0.128906 7.9998 0.128906C10.1373 0.128906 10.4061 0.138281 11.2498 0.172656C12.0904 0.210156 12.6623 0.344531 13.1623 0.538281C13.6779 0.741406 14.1186 1.01016 14.5561 1.44766C14.9936 1.88516 15.2654 2.32266 15.4654 2.84141C15.6592 3.34453 15.7936 3.91641 15.8311 4.75391C15.8686 5.59453 15.8779 5.86016 15.8779 8.00078C15.8779 10.1414 15.8686 10.407 15.8311 11.2477C15.7936 12.0883 15.6592 12.6602 15.4654 13.1602C15.2623 13.6758 14.9936 14.1164 14.5561 14.5539C14.1186 14.9914 13.6811 15.2633 13.1623 15.4633C12.6592 15.657 12.0873 15.7914 11.2498 15.8289C10.4092 15.8664 10.1436 15.8758 8.00293 15.8758C5.8623 15.8758 5.59668 15.8664 4.75605 15.8289C3.91543 15.7914 3.34355 15.657 2.84355 15.4633C2.32793 15.2602 1.8873 14.9914 1.4498 14.5539C1.0123 14.1164 0.74043 13.6789 0.54043 13.1602C0.34668 12.657 0.212305 12.0852 0.174805 11.2477C0.137305 10.407 0.12793 10.1383 0.12793 8.00078C0.12793 5.86328 0.137305 5.59453 0.174805 4.75703C0.212305 3.91641 0.34668 3.34453 0.54043 2.84453C0.743555 2.32891 1.0123 1.88828 1.4498 1.45078C1.8873 1.01328 2.3248 0.741406 2.84355 0.541406C3.34355 0.347656 3.91543 0.213281 4.75293 0.175781Z" fill="#5F5E66"/>
<path d="M7.9998 3.95703C5.76855 3.95703 3.95605 5.76641 3.95605 8.00078C3.95605 10.2352 5.76855 12.0445 7.9998 12.0445C10.2311 12.0445 12.0436 10.232 12.0436 8.00078C12.0436 5.76953 10.2311 3.95703 7.9998 3.95703ZM7.9998 10.6258C6.5498 10.6258 5.3748 9.45078 5.3748 8.00078C5.3748 6.55078 6.5498 5.37578 7.9998 5.37578C9.4498 5.37578 10.6248 6.55078 10.6248 8.00078C10.6248 9.45078 9.4498 10.6258 7.9998 10.6258Z" fill="white"/>
<path d="M12.203 4.74199C12.7242 4.74199 13.1468 4.31946 13.1468 3.79824C13.1468 3.27702 12.7242 2.85449 12.203 2.85449C11.6818 2.85449 11.2593 3.27702 11.2593 3.79824C11.2593 4.31946 11.6818 4.74199 12.203 4.74199Z" fill="white"/>
</g>
</g>
<defs>
<clipPath id="clip0_4606_49499">
<rect width="16" height="16" fill="white"/>
</clipPath>
<clipPath id="clip1_4606_49499">
<rect width="16" height="16" fill="white"/>
</clipPath>
</defs>
</svg>
