<svg width="20" height="18" viewBox="0 0 20 18" fill="none" xmlns="http://www.w3.org/2000/svg">
<path d="M20 5.21297C20 10.2091 17.2637 14.4044 13.1523 15.7638C12.3695 16.0739 11.5183 16.2505 10.6254 16.2505C8.0902 16.2505 5.73472 14.8243 4.54331 12.5603C2.42885 14.5107 1.85932 16.74 1.84955 16.7829C1.74682 17.213 1.36205 17.5021 0.938222 17.5021C0.866191 17.5021 0.792636 17.4935 0.719394 17.4764C0.215876 17.3554 -0.0946714 16.8483 0.0260321 16.3452C0.400955 14.8022 3.56003 7.50141 13.1237 7.50141C13.4687 7.50204 13.75 7.22079 13.75 6.87703C13.75 6.53328 13.4687 6.25203 13.125 6.25203C8.92965 6.25203 5.89839 7.6036 3.76128 9.20517C3.76882 8.78251 3.80979 8.35204 3.89936 7.91415C4.42554 5.34344 6.47906 3.2657 9.03219 2.67194C10.1388 2.41561 11.2072 2.43706 12.1935 2.67175C14.381 3.19206 16.8107 2.38222 18.0256 0.279553C18.2468 -0.104354 18.8076 -0.0921667 18.9889 0.311897C19.6367 1.75046 20 3.51374 20 5.21297Z" fill="#1DA364"/>
</svg>
