<svg width="176" height="64" viewBox="0 0 176 64" fill="none" xmlns="http://www.w3.org/2000/svg">
<g clip-path="url(#clip0_5602_25144)">
<path d="M48.8586 26.7858L50.2478 22.8905C49.0252 22.3988 47.7192 22.1475 46.4014 22.1506C43.646 22.1532 41.004 23.2479 39.0543 25.195C37.1046 27.1421 36.0063 29.7826 36 32.538V42.2204H40.1326V32.538C40.135 30.8787 40.7958 29.2881 41.9697 28.1154C43.1437 26.9427 44.7351 26.2838 46.3944 26.2832C47.2417 26.2786 48.0808 26.4497 48.8586 26.7858ZM117.166 22.9185V32.6706C117.166 35.4265 116.071 38.0695 114.122 40.0181C112.174 41.9668 109.531 43.0616 106.775 43.0616C104.019 43.0616 101.376 41.9668 99.4274 40.0181C97.4787 38.0695 96.3839 35.4265 96.3839 32.6706V22.9185H100.517V32.6706C100.517 34.3314 101.176 35.9241 102.351 37.0984C103.525 38.2727 105.118 38.9324 106.778 38.9324C108.439 38.9324 110.032 38.2727 111.206 37.0984C112.38 35.9241 113.04 34.3314 113.04 32.6706V22.9185H117.166ZM136.866 22.9185V32.6706C136.866 34.3314 136.206 35.9241 135.032 37.0984C133.857 38.2727 132.265 38.9324 130.604 38.9324C128.943 38.9324 127.35 38.2727 126.176 37.0984C125.002 35.9241 124.342 34.3314 124.342 32.6706V22.9185H120.209V32.6706C120.213 35.4244 121.309 38.0644 123.256 40.0116C125.203 41.9588 127.843 43.0544 130.597 43.0581C132.859 43.0581 135.106 42.2064 136.859 40.7474V41.6131C136.855 43.2721 136.194 44.862 135.02 46.0345C133.847 47.2069 132.256 47.8662 130.597 47.8679V52.0005C133.351 51.9968 135.991 50.9012 137.938 48.954C139.885 47.0068 140.981 44.3668 140.984 41.6131V22.9185H136.866ZM73.3822 23.2535C74.4895 22.0464 75.807 21.0506 77.2705 20.3146V12.0005H73.1379V23.5118L73.3822 23.2535Z" fill="#ABA9B8"/>
<path d="M83.5381 22.0947C82.0599 22.093 80.5983 22.4059 79.2502 23.0125C77.9022 23.6191 76.6987 24.5056 75.7196 25.6131L65.1298 36.9569C64.3069 37.808 63.2597 38.4085 62.1096 38.6888C60.9594 38.9691 59.7534 38.9177 58.6312 38.5407C57.509 38.1636 56.5167 37.4762 55.7692 36.5582C55.0217 35.6403 54.5496 34.5293 54.4077 33.354C54.2658 32.1787 54.4598 30.9872 54.9673 29.9177C55.4748 28.8482 56.275 27.9444 57.2752 27.311C58.2753 26.6777 59.4345 26.3407 60.6183 26.3392C61.8022 26.3377 62.9622 26.6716 63.964 27.3024L59.224 32.4473L62.2676 35.3024L69.8348 27.2186L68.5364 25.7736C67.1489 24.1666 65.3051 23.0201 63.2502 22.4863C61.1952 21.9526 59.0265 22.057 57.0324 22.7857C55.0382 23.5143 53.3131 24.8327 52.0863 26.5655C50.8596 28.2984 50.1894 30.3636 50.1648 32.4865C50.1402 34.6095 50.7623 36.6897 51.9486 38.4505C53.1348 40.2113 54.8289 41.5693 56.8056 42.344C58.7824 43.1187 60.9481 43.2733 63.0148 42.7874C65.0816 42.3014 66.9514 41.1979 68.3758 39.6235C68.3758 39.6235 78.7563 28.5101 78.7633 28.5101C79.587 27.5368 80.6881 26.8381 81.9195 26.5074C83.1509 26.1766 84.4539 26.2295 85.6545 26.659C86.855 27.0885 87.8959 27.8741 88.638 28.9109C89.3802 29.9477 89.7882 31.1863 89.8077 32.4612C89.8271 33.7362 89.457 34.9866 88.7469 36.0456C88.0367 37.1046 87.0203 37.9216 85.8334 38.3875C84.6465 38.8534 83.3457 38.946 82.1048 38.653C80.8639 38.3599 79.742 37.6951 78.8889 36.7474L77.1716 34.9254L74.2955 37.99L76.0198 39.812C77.2196 41.0546 78.7085 41.9806 80.3535 42.5072C81.9985 43.0338 83.7483 43.1447 85.4466 42.8299C87.145 42.5152 88.7388 41.7845 90.0858 40.7033C91.4328 39.6221 92.4909 38.224 93.1657 36.634C93.8404 35.044 94.1107 33.3116 93.9524 31.5916C93.794 29.8716 93.2121 28.2177 92.2585 26.7775C91.3048 25.3374 90.0093 24.156 88.4876 23.3388C86.9658 22.5216 85.2654 22.0942 83.5381 22.0947Z" fill="#ABA9B8"/>
</g>
<defs>
<clipPath id="clip0_5602_25144">
<rect width="104.984" height="40" fill="white" transform="translate(36 12.0005)"/>
</clipPath>
</defs>
</svg>
