<svg width="176" height="64" viewBox="0 0 176 64" fill="none" xmlns="http://www.w3.org/2000/svg">
<g clip-path="url(#clip0_5602_36466)">
<path d="M48.8586 26.7853L50.2478 22.8901C49.0252 22.3983 47.7192 22.147 46.4014 22.1501C43.646 22.1527 41.004 23.2474 39.0543 25.1945C37.1046 27.1416 36.0063 29.7821 36 32.5375V42.2199H40.1326V32.5375C40.135 30.8782 40.7958 29.2876 41.9697 28.1149C43.1437 26.9422 44.7351 26.2833 46.3944 26.2827C47.2417 26.2781 48.0808 26.4492 48.8586 26.7853ZM117.166 22.918V32.6702C117.166 35.426 116.071 38.069 114.122 40.0177C112.174 41.9663 109.531 43.0611 106.775 43.0611C104.019 43.0611 101.376 41.9663 99.4274 40.0177C97.4787 38.069 96.3839 35.426 96.3839 32.6702V22.918H100.517V32.6702C100.517 34.3309 101.176 35.9236 102.351 37.0979C103.525 38.2722 105.118 38.9319 106.778 38.9319C108.439 38.9319 110.032 38.2722 111.206 37.0979C112.38 35.9236 113.04 34.3309 113.04 32.6702V22.918H117.166ZM136.866 22.918V32.6702C136.866 34.3309 136.206 35.9236 135.032 37.0979C133.857 38.2722 132.265 38.9319 130.604 38.9319C128.943 38.9319 127.35 38.2722 126.176 37.0979C125.002 35.9236 124.342 34.3309 124.342 32.6702V22.918H120.209V32.6702C120.213 35.4239 121.309 38.0639 123.256 40.0111C125.203 41.9583 127.843 43.0539 130.597 43.0576C132.859 43.0576 135.106 42.2059 136.859 40.7469V41.6126C136.855 43.2716 136.194 44.8615 135.02 46.034C133.847 47.2064 132.256 47.8657 130.597 47.8674V52C133.351 51.9963 135.991 50.9007 137.938 48.9535C139.885 47.0063 140.981 44.3664 140.984 41.6126V22.918H136.866ZM73.3822 23.2531C74.4895 22.0459 75.807 21.0501 77.2705 20.3141V12H73.1379V23.5113L73.3822 23.2531Z" fill="#4A4A4A"/>
<path d="M83.5381 22.0943C82.0599 22.0926 80.5983 22.4054 79.2502 23.012C77.9022 23.6186 76.6987 24.5051 75.7196 25.6126L65.1298 36.9564C64.3069 37.8075 63.2597 38.408 62.1096 38.6884C60.9594 38.9687 59.7534 38.9173 58.6312 38.5402C57.509 38.1632 56.5167 37.4758 55.7692 36.5578C55.0217 35.6398 54.5496 34.5288 54.4077 33.3535C54.2658 32.1782 54.4598 30.9868 54.9673 29.9173C55.4748 28.8477 56.275 27.9439 57.2752 27.3106C58.2753 26.6772 59.4345 26.3403 60.6183 26.3387C61.8022 26.3372 62.9622 26.6712 63.964 27.302L59.224 32.4468L62.2676 35.302L69.8348 27.2182L68.5364 25.7732C67.1489 24.1662 65.3051 23.0196 63.2502 22.4859C61.1952 21.9522 59.0265 22.0566 57.0324 22.7852C55.0382 23.5139 53.3131 24.8323 52.0863 26.5651C50.8596 28.2979 50.1894 30.3631 50.1648 32.4861C50.1402 34.6091 50.7623 36.6892 51.9486 38.45C53.1348 40.2109 54.8289 41.5689 56.8056 42.3436C58.7824 43.1183 60.9481 43.2729 63.0148 42.787C65.0816 42.301 66.9514 41.1975 68.3758 39.6231C68.3758 39.6231 78.7563 28.5097 78.7633 28.5097C79.587 27.5364 80.6881 26.8377 81.9195 26.5069C83.1509 26.1762 84.4539 26.2291 85.6545 26.6585C86.855 27.088 87.8959 27.8737 88.638 28.9105C89.3802 29.9473 89.7882 31.1859 89.8077 32.4608C89.8271 33.7357 89.457 34.9862 88.7469 36.0452C88.0367 37.1041 87.0203 37.9212 85.8334 38.3871C84.6465 38.853 83.3457 38.9456 82.1048 38.6525C80.8639 38.3595 79.742 37.6947 78.8889 36.747L77.1716 34.925L74.2955 37.9896L76.0198 39.8116C77.2196 41.0542 78.7085 41.9801 80.3535 42.5068C81.9985 43.0334 83.7483 43.1443 85.4466 42.8295C87.145 42.5147 88.7388 41.7841 90.0858 40.7029C91.4328 39.6217 92.4909 38.2236 93.1657 36.6336C93.8404 35.0436 94.1107 33.3112 93.9524 31.5912C93.794 29.8712 93.2121 28.2173 92.2585 26.7771C91.3048 25.337 90.0093 24.1555 88.4876 23.3384C86.9658 22.5212 85.2654 22.0938 83.5381 22.0943Z" fill="#4A4A4A"/>
</g>
<defs>
<clipPath id="clip0_5602_36466">
<rect width="104.984" height="40" fill="white" transform="translate(36 12)"/>
</clipPath>
</defs>
</svg>
