<svg width="176" height="64" viewBox="0 0 176 64" fill="none" xmlns="http://www.w3.org/2000/svg">
<g clip-path="url(#clip0_5602_25172)">
<path d="M27.3793 16.9062L17.7957 26.4898L18.6383 27.3324L27.3793 18.5926L32.6966 23.9065L33.5392 23.0639L27.3793 16.9062ZM37.5438 20.9419L31.9604 26.5253L32.803 27.3679L37.5438 22.6249L46.7726 31.857L47.6163 31.0133L37.5438 20.9419ZM20.2049 27.0065V36.0656H21.3968V27.0065H20.2049ZM23.7816 31.2971V45.6026H38.0859V39.6422H36.8941V44.4096H24.9734V32.4889H36.8941V37.2574H38.0859V31.2971H24.9734H23.7816ZM44.0474 31.5355V38.4504H45.2392V31.5355H44.0474ZM15.4364 37.2586V38.4504H22.5897V37.2586H15.4364ZM13.0527 39.6422V40.8341H22.5897V39.6422H13.0527ZM39.2789 39.6422V40.8341H50.0088V39.6422H39.2789ZM39.2789 42.027V43.2189H47.624V42.027H39.2789Z" fill="#ABA9B8"/>
<path fill-rule="evenodd" clip-rule="evenodd" d="M140.693 25.8145V29.8357H140.666C140.426 29.5152 140.111 29.2583 139.749 29.0873C139.386 28.9163 138.988 28.8364 138.588 28.8545C136.455 28.8545 135.673 30.5714 135.673 32.5076C135.673 34.4291 136.455 36.2018 138.588 36.2018C138.993 36.2227 139.398 36.147 139.769 35.9811C140.14 35.8152 140.466 35.5637 140.721 35.2472H140.747L140.746 36.0377H142.501V25.8145H140.693ZM109.276 26.3588C106.077 26.3588 104.106 28.1855 104.106 31.4444C104.106 34.6602 106.225 36.2007 109.276 36.2007C110.31 36.1719 111.336 36.0072 112.327 35.7107V30.5863H108.521V32.0841H110.518V34.5654C110.111 34.662 109.694 34.7078 109.276 34.7017C107.265 34.7017 106.076 33.2432 106.076 31.308C106.076 29.3581 107.291 27.8589 109.491 27.8589C110.327 27.8591 111.154 28.0308 111.921 28.3633L112.043 26.7557C111.146 26.4834 110.213 26.3495 109.276 26.3588ZM96.435 26.36C95.1118 26.36 93.5746 27.0828 93.5746 28.5275C93.5746 29.6185 94.1546 30.1226 94.8829 30.818C93.3848 31.4583 92.8961 32.2901 92.8961 33.4345C92.8961 35.2209 94.3952 36.2018 96.2576 36.2018C96.7305 36.211 97.2005 36.1266 97.6406 35.9534C98.0807 35.7803 98.4822 35.5218 98.8221 35.1929L99.4562 36.0378H101.778L100.093 34.1286C100.84 33.2041 101.262 32.0595 101.294 30.8712H99.648C99.6821 31.6084 99.4733 32.3363 99.0538 32.9434L97.3264 31.0353C98.3522 30.4353 99.148 29.8226 99.148 28.5141C99.148 26.9735 97.7582 26.36 96.435 26.36ZM59.582 26.5229L59.5843 36.0378H61.4713V31.8668H65.2508V36.0378H67.1401V26.5229H65.2508V30.3679H61.4713V26.5229L59.582 26.5229ZM96.3863 27.6926C96.4114 27.6928 96.4366 27.6939 96.4616 27.696C96.5962 27.6841 96.7318 27.7009 96.8594 27.7453C96.9871 27.7897 97.1038 27.8607 97.202 27.9535C97.3002 28.0463 97.3776 28.1589 97.429 28.2839C97.4805 28.4088 97.5048 28.5433 97.5005 28.6783C97.5016 29.2363 96.746 29.8084 96.2732 30.0542C95.9087 29.6858 95.3829 29.2362 95.3829 28.7049C95.3804 28.5721 95.4046 28.4401 95.4541 28.3167C95.5035 28.1934 95.5772 28.0812 95.6708 27.9869C95.7643 27.8925 95.8758 27.8178 95.9987 27.7673C96.1216 27.7168 96.2534 27.6913 96.3863 27.6926ZM117.613 28.8523C117.147 28.8967 116.709 29.0929 116.365 29.4108C116.021 29.7287 115.791 30.1506 115.711 30.6118H115.684V29.0175H114.078V36.0378H115.886V33.4611C115.886 32.453 115.885 30.5996 117.356 30.5996C117.634 30.5868 117.911 30.638 118.167 30.7493V28.9088C117.986 28.8637 117.799 28.8446 117.613 28.8523ZM131.478 28.8534C131.077 28.8704 130.685 28.9804 130.334 29.1748C129.983 29.3691 129.682 29.6425 129.454 29.9732H129.428V29.0175H127.714V36.0378H129.522V32.603C129.522 31.7039 129.806 30.2726 131.115 30.2726C132.275 30.2726 132.289 31.431 132.289 32.2904V36.0367H134.097V31.6085C134.097 30.0276 133.381 28.8557 131.736 28.8557C131.65 28.8506 131.564 28.8499 131.478 28.8534ZM71.781 28.8546C70.9481 28.8665 70.1263 29.0472 69.3651 29.3856L69.4195 30.9533C70.0337 30.4745 70.7862 30.207 71.5648 30.1906C72.6309 30.1906 73.1303 30.572 73.1303 31.7039H72.1313C71.3329 31.6671 70.5361 31.8064 69.7975 32.1119C69.4207 32.2876 69.1056 32.5729 68.8935 32.9305C68.6815 33.2882 68.5823 33.7015 68.609 34.1164C68.609 35.4521 69.8098 36.2019 71.0382 36.2019C71.4707 36.2046 71.8964 36.0941 72.2729 35.8813C72.6495 35.6685 72.9638 35.3609 73.1846 34.989H73.2112C73.2169 35.3399 73.244 35.6902 73.2922 36.0378H74.8854C74.8445 35.4929 74.818 35.002 74.8044 34.4701C74.7908 33.9524 74.7778 33.4213 74.7778 32.7106V31.8126C74.7778 29.7406 73.9006 28.8546 71.781 28.8546ZM87.4025 28.8546C85.9834 28.8546 84.6773 29.5226 84.6773 31.0354C84.6773 33.5711 87.8227 32.6307 87.8227 34.0067C87.8227 34.6879 87.0928 34.8659 86.6342 34.8659C86.0124 34.8541 85.4023 34.6953 84.8536 34.4025L84.7461 35.9025C85.414 36.0905 86.1034 36.1911 86.7972 36.2019C88.2685 36.2019 89.713 35.5473 89.713 33.9113C89.713 31.3768 86.5677 32.0855 86.5677 30.9677C86.5677 30.3677 87.1472 30.1906 87.6331 30.1906C88.1871 30.1872 88.7367 30.2888 89.2529 30.4899L89.3727 29.114C88.7288 28.9484 88.0673 28.8613 87.4025 28.8546ZM81.1572 29.0187V32.4534C81.1572 33.3531 80.8736 34.7839 79.5651 34.7839C78.4043 34.7839 78.3899 33.626 78.3899 32.7672V29.0209H76.5816V33.4512C76.5816 35.0321 77.297 36.2041 78.9432 36.2041C79.3833 36.204 79.8176 36.1032 80.2129 35.9095C80.6082 35.7158 80.9539 35.4343 81.2237 35.0865H81.2514V36.04H82.9655V29.0187H81.1572ZM124.019 29.0187V32.4534C124.019 33.3531 123.736 34.7839 122.427 34.7839C121.266 34.7839 121.253 33.626 121.253 32.7672V29.0209H119.445V33.4512C119.445 35.0321 120.159 36.2041 121.805 36.2041C122.246 36.204 122.68 36.1033 123.076 35.9096C123.471 35.7159 123.817 35.4344 124.087 35.0865H124.114V36.04H125.828L125.829 29.0187H124.019ZM139.06 30.2726C140.221 30.2726 140.68 31.5263 140.68 32.5077C140.68 33.5022 140.289 34.7839 139.088 34.7839C137.9 34.7839 137.562 33.4761 137.562 32.5077C137.562 31.5671 137.886 30.2726 139.06 30.2726ZM95.8552 31.8536L97.9473 34.2118C97.4949 34.6112 96.9035 34.8167 96.3009 34.7839C96.1034 34.8002 95.9046 34.7764 95.7165 34.714C95.5284 34.6517 95.3548 34.552 95.2061 34.4209C95.0575 34.2898 94.9368 34.1301 94.8513 33.9513C94.7659 33.7725 94.7174 33.5783 94.7088 33.3803C94.7327 33.0425 94.8536 32.7187 95.057 32.4479C95.2603 32.1771 95.5375 31.9708 95.8552 31.8536ZM72.3475 32.7938H73.1336C73.1683 33.3036 73.0356 33.8109 72.7555 34.2384C72.6099 34.4368 72.4186 34.5972 72.1978 34.7061C71.977 34.8149 71.7333 34.869 71.4872 34.8637C70.8367 34.8665 70.3364 34.6073 70.3364 34.0067C70.3364 32.9281 71.5375 32.7938 72.3475 32.7938Z" fill="#ABA9B8"/>
<path fill-rule="evenodd" clip-rule="evenodd" d="M145.607 29.0082C145.911 29.0081 146.208 28.9179 146.46 28.749C146.713 28.5802 146.91 28.3402 147.026 28.0595C147.142 27.7788 147.172 27.47 147.113 27.1721C147.054 26.8742 146.907 26.6005 146.692 26.3857C146.477 26.171 146.204 26.0247 145.906 25.9655C145.608 25.9063 145.299 25.9367 145.018 26.053C144.738 26.1693 144.498 26.3662 144.329 26.6188C144.16 26.8714 144.07 27.1683 144.07 27.4721C144.071 27.8794 144.233 28.2698 144.521 28.5578C144.809 28.8458 145.2 29.0077 145.607 29.0082ZM145.607 28.7101C145.359 28.726 145.111 28.6668 144.897 28.5402C144.683 28.4137 144.512 28.2257 144.405 28.0006C144.299 27.7755 144.264 27.5237 144.302 27.2779C144.341 27.0322 144.453 26.8038 144.623 26.6224C144.794 26.441 145.015 26.315 145.258 26.2607C145.5 26.2065 145.754 26.2265 145.985 26.3182C146.217 26.4099 146.415 26.569 146.555 26.7748C146.694 26.9807 146.769 27.2238 146.769 27.4727C146.777 27.6309 146.753 27.789 146.698 27.9377C146.643 28.0864 146.559 28.2225 146.451 28.3379C146.342 28.4534 146.212 28.5458 146.067 28.6096C145.922 28.6735 145.765 28.7075 145.607 28.7096V28.7101ZM145.015 28.3361H145.339V27.5868H145.534L145.988 28.3361H146.32L145.851 27.5743C145.913 27.5774 145.975 27.5674 146.032 27.5448C146.09 27.5222 146.142 27.4877 146.185 27.4434C146.229 27.3991 146.262 27.3461 146.283 27.2879C146.305 27.2297 146.313 27.1677 146.309 27.106C146.309 26.7398 146.082 26.5951 145.665 26.5951H145.018L145.015 28.3361ZM145.339 26.842H145.629C145.794 26.842 145.982 26.8766 145.982 27.081C145.982 27.3143 145.815 27.3404 145.624 27.3404H145.34L145.339 26.842Z" fill="#ABA9B8"/>
<path d="M158.151 40.3926C157.205 40.3926 156.987 40.9438 156.987 41.7884V42.1111H156.17V42.6277H156.987V45.5802H157.627V42.6255H158.546V42.1077H157.627V41.733C157.627 41.2635 157.694 40.9092 158.245 40.9092C158.349 40.9071 158.453 40.921 158.552 40.9503L158.58 40.4336C158.438 40.408 158.295 40.3943 158.151 40.3926ZM100.203 40.4768L100.199 45.5857H100.84V43.9792C100.84 43.1345 101.167 42.549 101.896 42.549C102.457 42.583 102.633 42.9785 102.633 43.7885V45.5835H103.274V43.5213C103.274 42.5887 102.872 42.0301 101.973 42.0301C101.753 42.0217 101.534 42.0707 101.339 42.1721C101.143 42.2736 100.977 42.424 100.857 42.6089H100.842V40.4768H100.203ZM148.625 40.4768L148.623 45.5857H149.262V43.9792C149.262 43.1345 149.589 42.549 150.318 42.549C150.878 42.583 151.056 42.9785 151.056 43.7885V45.5835H151.696V43.5213C151.696 42.5887 151.294 42.0301 150.396 42.0301C150.175 42.0217 149.957 42.0707 149.761 42.1721C149.565 42.2736 149.399 42.424 149.279 42.6089H149.265V40.4768H148.625ZM63.1702 40.6132V41.335H63.8931V40.6132H63.1702ZM136.942 40.6132V41.335H137.663V40.6132H136.942ZM120.543 40.7451C120.226 40.7457 119.912 40.8098 119.621 40.9337C119.329 41.0576 119.065 41.2388 118.845 41.4666C118.624 41.6944 118.452 41.964 118.337 42.2596C118.223 42.5553 118.169 42.8708 118.179 43.1876C118.159 43.5207 118.21 43.8543 118.329 44.1661C118.448 44.4778 118.632 44.7605 118.87 44.9952C119.107 45.2298 119.392 45.411 119.705 45.5267C120.018 45.6423 120.352 45.6896 120.685 45.6655C121.177 45.6783 121.667 45.607 122.135 45.4549V42.9825H120.453V43.5413H121.454V44.9848C121.205 45.0472 120.948 45.0745 120.691 45.0657C120.211 45.0428 119.759 44.8347 119.428 44.4852C119.098 44.1356 118.916 43.6718 118.921 43.191C118.925 42.7102 119.116 42.2498 119.452 41.9065C119.789 41.5631 120.245 41.3634 120.726 41.3494C121.184 41.3184 121.641 41.4325 122.031 41.6753L122.087 40.9879C121.643 40.8164 121.168 40.7353 120.692 40.7496C120.642 40.7465 120.592 40.7451 120.543 40.7451ZM95.074 40.7529C94.2163 40.7529 93.5495 41.201 93.5495 42.0457C93.5495 43.5227 95.5929 43.2309 95.5929 44.293C95.5834 44.4055 95.5517 44.515 95.4996 44.6151C95.4474 44.7152 95.3759 44.804 95.2891 44.8762C95.2023 44.9484 95.1021 45.0026 94.9942 45.0358C94.8862 45.0689 94.7728 45.0802 94.6605 45.0691C94.3205 45.0506 93.9864 44.9722 93.6737 44.8374L93.605 45.4704C93.9174 45.5872 94.2463 45.6541 94.5795 45.6689C95.532 45.6689 96.3157 45.2641 96.3157 44.2497C96.3157 42.6842 94.2713 42.8947 94.2713 41.9825C94.2713 41.4858 94.7214 41.3494 95.1028 41.3494C95.4109 41.3488 95.7152 41.4162 95.9942 41.5467L96.0885 40.9225C95.7618 40.8111 95.4191 40.7538 95.074 40.7529ZM59.4395 40.8305V45.5846H62.1014V44.9848H60.1202V43.4182H61.9251V42.8195H60.1202V41.4303H62.1014V40.8305H59.4395ZM78.0544 41.1044L77.4136 41.3084V42.1111H76.6309V42.6288H77.4136V44.6589C77.4136 45.3537 77.8228 45.6667 78.4835 45.6667C78.6685 45.6602 78.8517 45.6282 79.0279 45.5713V45.0269C78.8976 45.1093 78.7463 45.1521 78.5921 45.15C78.5146 45.1487 78.4383 45.1311 78.3681 45.0983C78.2978 45.0656 78.2353 45.0183 78.1845 44.9597C78.1338 44.9011 78.096 44.8325 78.0736 44.7583C78.0511 44.6841 78.0446 44.606 78.0544 44.5291V42.6288H78.9735V42.1111H78.0544V41.1044ZM109.448 41.1044L108.809 41.3084V42.1111H108.026V42.6288H108.809V44.6589C108.809 45.3537 109.217 45.6667 109.877 45.6667C110.062 45.6602 110.245 45.6282 110.422 45.5713V45.0269C110.292 45.1091 110.141 45.1519 109.987 45.15C109.909 45.1489 109.833 45.1314 109.763 45.0987C109.692 45.066 109.63 45.0188 109.579 44.9601C109.528 44.9015 109.49 44.8328 109.467 44.7586C109.445 44.6843 109.438 44.6061 109.448 44.5291V42.6288H110.368V42.1111H109.448V41.1044ZM160.148 41.1044L159.507 41.3084V42.1111H158.724V42.6288H159.502V44.6589C159.502 45.3537 159.911 45.6667 160.571 45.6667C160.757 45.6603 160.94 45.6282 161.117 45.5713V45.0269C160.986 45.1093 160.835 45.1521 160.681 45.15C160.604 45.1487 160.527 45.1311 160.457 45.0983C160.387 45.0656 160.324 45.0183 160.273 44.9597C160.223 44.9011 160.185 44.8325 160.162 44.7583C160.14 44.6841 160.133 44.606 160.143 44.5291V42.6288H161.065L161.066 42.1111H160.148L160.148 41.1044ZM66.4586 42.0202C66.4208 42.0209 66.3831 42.0235 66.3455 42.0279C65.2965 42.0279 64.7922 42.9736 64.7922 43.8728C64.7922 44.772 65.2822 45.5824 66.2768 45.5824C66.4991 45.5882 66.7197 45.5427 66.9216 45.4495C67.1235 45.3562 67.3012 45.2177 67.4409 45.0447H67.4553V45.3851C67.4761 45.5368 67.4634 45.6913 67.4182 45.8376C67.3729 45.9839 67.2962 46.1186 67.1934 46.2322C67.0907 46.3457 66.9643 46.4354 66.8232 46.495C66.6821 46.5545 66.5296 46.5825 66.3766 46.5769C65.9395 46.5777 65.5091 46.4703 65.1237 46.2643L65.055 46.8563C65.4525 47.0107 65.8748 47.0914 66.3012 47.0947C67.5472 47.0947 68.0917 46.4891 68.0917 45.4338V42.11H67.503V42.6266H67.4886C67.3898 42.4402 67.2412 42.2847 67.0594 42.1777C66.8776 42.0706 66.6696 42.0161 66.4586 42.0202ZM85.5038 42.0247C85.3075 42.0345 85.1168 42.0934 84.9492 42.1961C84.7817 42.2988 84.6426 42.4419 84.5447 42.6123H84.5303V42.1112H83.9305V45.5847H84.5702V43.8352C84.5702 43.1886 84.8293 42.5491 85.4827 42.5491C86.0004 42.5491 86.1024 43.0851 86.1024 43.5137V45.5847H86.7444V43.8352C86.7444 43.1886 87.0035 42.5491 87.6568 42.5491C88.1745 42.5491 88.2766 43.0851 88.2766 43.5137V45.5803H88.9185V43.354C88.9185 42.5985 88.5983 42.0269 87.7134 42.0269C87.4895 42.0311 87.271 42.0958 87.081 42.2143C86.891 42.3329 86.7368 42.5007 86.6346 42.6999C86.5609 42.4988 86.4262 42.3258 86.2492 42.2051C86.0723 42.0844 85.862 42.0221 85.6479 42.0269C85.5999 42.0232 85.5518 42.0225 85.5038 42.0247ZM128.628 42.0247C128.431 42.0345 128.241 42.0934 128.073 42.1961C127.905 42.2988 127.766 42.4419 127.669 42.6123H127.655V42.1112H127.055V45.5847H127.695V43.8352C127.695 43.1886 127.954 42.5491 128.608 42.5491C129.125 42.5491 129.227 43.0851 129.227 43.5137V45.5847H129.867V43.8352C129.867 43.1886 130.126 42.5491 130.78 42.5491C131.297 42.5491 131.399 43.0851 131.399 43.5137V45.5803H132.039V43.354C132.039 42.5985 131.719 42.0269 130.834 42.0269C130.611 42.0317 130.393 42.0967 130.203 42.2152C130.014 42.3337 129.86 42.5011 129.758 42.6999C129.685 42.4988 129.55 42.3258 129.373 42.2051C129.196 42.0844 128.986 42.0221 128.772 42.0269C128.724 42.0232 128.676 42.0225 128.628 42.0247ZM143.864 42.0281C143.177 42.0281 142.638 42.3765 142.638 43.098C142.638 44.0721 144.144 44.0167 144.144 44.6502C144.144 45.0248 143.782 45.148 143.49 45.148C143.209 45.1325 142.936 45.048 142.696 44.9018L142.656 45.4739C142.953 45.6151 143.281 45.6806 143.609 45.6646C143.762 45.6814 143.916 45.6659 144.062 45.6192C144.208 45.5725 144.343 45.4955 144.457 45.3933C144.571 45.2911 144.663 45.166 144.725 45.0262C144.788 44.8863 144.821 44.7347 144.821 44.5814C144.821 43.4717 143.317 43.6767 143.317 42.9683C143.317 42.6828 143.602 42.547 143.929 42.547C144.162 42.5629 144.391 42.6227 144.603 42.7233L144.659 42.1645C144.403 42.0791 144.135 42.0332 143.864 42.0281ZM74.7361 42.0292C74.507 42.0204 74.2799 42.0748 74.0796 42.1864C73.8793 42.2981 73.7137 42.4627 73.6008 42.6623H73.5886V42.1113H72.9688L72.9632 45.5837H73.604V43.9772C73.604 43.1326 73.9301 42.547 74.6584 42.547C75.2198 42.5811 75.3968 42.9765 75.3968 43.7865V45.5826H76.0365V43.5204C76.0365 42.5878 75.6347 42.0292 74.7361 42.0292ZM140.563 42.0292C140.334 42.0204 140.106 42.0748 139.906 42.1864C139.706 42.2981 139.54 42.4627 139.427 42.6623H139.414V42.1113H138.794V45.5837H139.43V43.9772C139.43 43.1326 139.756 42.547 140.485 42.547C141.046 42.5811 141.222 42.9765 141.222 43.7865V45.5826H141.862V43.5204C141.862 42.5878 141.461 42.0292 140.563 42.0292ZM154.093 42.0292C153.689 42.0313 153.293 42.1445 152.949 42.3563L152.983 42.9007C153.27 42.6732 153.625 42.5487 153.991 42.547C154.631 42.547 154.849 42.8528 154.849 43.4517C154.597 43.4381 154.42 43.4384 154.167 43.4384C153.507 43.4384 152.554 43.7112 152.554 44.5826C152.554 45.3387 153.078 45.6647 153.827 45.6647C154.036 45.6703 154.243 45.6249 154.431 45.5324C154.619 45.4398 154.781 45.303 154.904 45.1336H154.917V45.5837H155.516C155.493 45.3572 155.484 45.1295 155.489 44.9019V43.4661C155.489 42.5193 155.088 42.0292 154.093 42.0292ZM70.5796 42.0315C70.354 42.0286 70.1302 42.0731 69.9229 42.1621C69.7155 42.251 69.5291 42.3825 69.3757 42.548C69.2223 42.7136 69.1054 42.9094 69.0324 43.1229C68.9594 43.3365 68.932 43.5629 68.952 43.7877C68.952 44.9184 69.5169 45.668 70.7492 45.668C71.1264 45.6709 71.4998 45.5934 71.8446 45.4408L71.8458 44.8021C71.5288 45.0154 71.1587 45.1359 70.777 45.1503C70.6254 45.1513 70.4751 45.122 70.3349 45.064C70.1948 45.0061 70.0678 44.9206 69.9612 44.8127C69.8547 44.7048 69.7708 44.5767 69.7146 44.4359C69.6584 44.2951 69.631 44.1444 69.6339 43.9928H72.1119C72.1119 42.8762 71.7371 42.0315 70.5796 42.0315ZM124.673 42.0315C124.447 42.0287 124.224 42.0732 124.016 42.1622C123.809 42.2513 123.623 42.3828 123.469 42.5483C123.316 42.7138 123.199 42.9096 123.126 43.1231C123.054 43.3366 123.026 43.563 123.046 43.7877C123.046 44.9184 123.611 45.668 124.844 45.668C125.221 45.6709 125.594 45.5934 125.939 45.4408L125.94 44.8021C125.623 45.0154 125.253 45.1359 124.871 45.1503C124.72 45.1513 124.569 45.122 124.429 45.064C124.289 45.0061 124.162 44.9206 124.056 44.8127C123.949 44.7048 123.865 44.5767 123.809 44.4359C123.753 44.2951 123.725 44.1444 123.728 43.9928H126.205C126.205 42.8762 125.83 42.0315 124.673 42.0315ZM134.512 42.0315C134.287 42.0286 134.063 42.0731 133.856 42.1621C133.648 42.251 133.462 42.3825 133.309 42.548C133.155 42.7136 133.038 42.9094 132.965 43.1229C132.892 43.3365 132.865 43.5629 132.885 43.7877C132.885 44.9184 133.45 45.668 134.682 45.668C135.059 45.6709 135.433 45.5934 135.778 45.4408L135.78 44.8021C135.462 45.0155 135.092 45.136 134.71 45.1503C134.558 45.1513 134.408 45.122 134.268 45.064C134.128 45.0061 134.001 44.9206 133.894 44.8127C133.788 44.7048 133.704 44.5767 133.647 44.4359C133.591 44.2951 133.564 44.1444 133.567 43.9928H136.045C136.045 42.8762 135.669 42.0315 134.512 42.0315ZM98.552 42.0326C98.3227 42.0397 98.0971 42.0927 97.8886 42.1885C97.6801 42.2843 97.493 42.421 97.3384 42.5904C97.1837 42.7599 97.0646 42.9587 96.9882 43.175C96.9117 43.3913 96.8795 43.6208 96.8934 43.8498C96.8853 44.0866 96.9252 44.3226 97.0108 44.5436C97.0963 44.7646 97.2257 44.966 97.3911 45.1357C97.5565 45.3053 97.7546 45.4398 97.9733 45.5309C98.1921 45.622 98.427 45.6679 98.664 45.6658C98.9386 45.6752 99.2121 45.6264 99.4666 45.5228L99.419 44.9507C99.212 45.0778 98.9744 45.146 98.7316 45.1481C98.5676 45.1466 98.4058 45.1107 98.2565 45.0429C98.1072 44.9751 97.9737 44.8768 97.8647 44.7543C97.7557 44.6318 97.6735 44.4879 97.6234 44.3317C97.5734 44.1755 97.5566 44.0106 97.5741 43.8476C97.5588 43.6883 97.5758 43.5275 97.6242 43.3749C97.6725 43.2223 97.7512 43.081 97.8554 42.9596C97.9597 42.8382 98.0874 42.739 98.2309 42.6681C98.3744 42.5972 98.5307 42.5561 98.6906 42.5471C98.9298 42.5516 99.1658 42.6025 99.3857 42.6968L99.44 42.169C99.1907 42.081 98.9284 42.0349 98.6639 42.0326C98.6266 42.0314 98.5893 42.0314 98.552 42.0326ZM146.976 42.0326C146.747 42.0397 146.522 42.0927 146.313 42.1885C146.105 42.2843 145.917 42.421 145.763 42.5904C145.608 42.7599 145.489 42.9587 145.413 43.175C145.336 43.3913 145.304 43.6208 145.318 43.8498C145.31 44.0865 145.35 44.3224 145.435 44.5434C145.521 44.7643 145.65 44.9656 145.815 45.1353C145.98 45.3049 146.178 45.4394 146.397 45.5306C146.616 45.6217 146.85 45.6678 147.087 45.6658C147.362 45.6754 147.636 45.6266 147.891 45.5228L147.843 44.9507C147.636 45.0779 147.398 45.1461 147.155 45.1481C146.991 45.1466 146.829 45.1107 146.68 45.0429C146.53 44.9751 146.397 44.8768 146.288 44.7543C146.179 44.6318 146.097 44.4879 146.047 44.3317C145.997 44.1755 145.98 44.0106 145.997 43.8476C145.982 43.6882 145.999 43.5273 146.048 43.3746C146.096 43.222 146.175 43.0807 146.279 42.9592C146.384 42.8378 146.511 42.7386 146.655 42.6678C146.799 42.597 146.955 42.5559 147.115 42.5471C147.354 42.5517 147.59 42.6025 147.809 42.6968L147.863 42.169C147.614 42.081 147.352 42.0349 147.087 42.0326C147.05 42.0315 147.013 42.0315 146.976 42.0326ZM63.2112 42.1113V45.5837H63.8509V42.1113H63.2112ZM79.7796 42.1113V44.1746C79.7796 45.1072 80.1815 45.6658 81.0801 45.6658C81.3092 45.6746 81.5363 45.6203 81.7366 45.5086C81.9368 45.3969 82.1025 45.2323 82.2154 45.0327H82.2286V45.5837H82.8484V42.1113H82.212V43.7178C82.212 44.5619 81.8859 45.148 81.1576 45.148C80.5962 45.1139 80.4193 44.7185 80.4193 43.9085V42.1113H79.7796ZM104.364 42.1113V44.1746C104.364 45.1072 104.766 45.6658 105.664 45.6658C105.893 45.6746 106.12 45.6203 106.321 45.5086C106.521 45.3969 106.687 45.2323 106.8 45.0327H106.814V45.5837H107.434L107.437 42.1113H106.797V43.7178C106.797 44.5619 106.47 45.148 105.742 45.148C105.181 45.1139 105.004 44.7185 105.004 43.9085V42.1113H104.364ZM111.015 42.1113V42.6291H112.921L110.919 45.0261L110.918 45.5837H113.738V45.066H111.661L113.662 42.6701V42.1113H111.015ZM136.983 42.1113V45.5837H137.622V42.1113H136.983ZM66.4386 42.547C67.1193 42.547 67.452 43.1659 67.452 43.8874H67.4531C67.4662 44.0319 67.4502 44.1775 67.4059 44.3156C67.3617 44.4538 67.2901 44.5816 67.1955 44.6915C67.1008 44.8015 66.9851 44.8913 66.8551 44.9556C66.7251 45.0199 66.5835 45.0574 66.4387 45.066C65.8415 45.066 65.473 44.4937 65.473 43.8398C65.473 43.2477 65.7921 42.547 66.4386 42.547ZM70.5652 42.5493C70.6871 42.5503 70.8075 42.5767 70.9186 42.6269C71.0297 42.6771 71.1292 42.7499 71.2106 42.8406C71.2919 42.9314 71.3535 43.0382 71.3913 43.1541C71.4291 43.27 71.4422 43.3925 71.43 43.5138H69.6328C69.6318 43.2632 69.7287 43.0221 69.9028 42.8419C70.077 42.6618 70.3147 42.5567 70.5652 42.5493ZM124.66 42.5493C124.781 42.5503 124.902 42.5767 125.013 42.6269C125.124 42.6771 125.223 42.7499 125.305 42.8406C125.386 42.9314 125.448 43.0382 125.486 43.1541C125.523 43.27 125.537 43.3925 125.524 43.5138H123.727C123.726 43.2632 123.823 43.0221 123.997 42.8419C124.171 42.6618 124.409 42.5567 124.66 42.5493ZM134.498 42.5493C134.62 42.5502 134.74 42.5766 134.852 42.6267C134.963 42.6769 135.062 42.7497 135.144 42.8405C135.225 42.9312 135.287 43.038 135.324 43.154C135.362 43.27 135.375 43.3925 135.363 43.5138H133.565C133.564 43.263 133.661 43.0218 133.835 42.8416C134.009 42.6614 134.247 42.5565 134.498 42.5493ZM154.44 43.9152C154.576 43.9152 154.713 43.9296 154.849 43.9296L154.847 44.2378C154.853 44.3637 154.831 44.4893 154.784 44.6061C154.737 44.723 154.665 44.8283 154.574 44.9149C154.482 45.0014 154.373 45.0673 154.254 45.1079C154.134 45.1485 154.008 45.163 153.882 45.1503C153.721 45.16 153.563 45.1059 153.442 44.9996C153.321 44.8933 153.246 44.7435 153.235 44.5826C153.235 43.9724 154.093 43.9152 154.44 43.9152ZM90.0106 44.821V45.5838H90.7723V44.821H90.0106ZM114.596 44.821V45.5838H115.359V44.821H114.596ZM161.888 44.821V45.5838H162.651V44.821H161.888Z" fill="#ABA9B8"/>
</g>
<defs>
<clipPath id="clip0_5602_25172">
<rect width="151.704" height="32" fill="white" transform="translate(12 16.0005)"/>
</clipPath>
</defs>
</svg>
