<svg width="176" height="64" viewBox="0 0 176 64" fill="none" xmlns="http://www.w3.org/2000/svg">
<path d="M63.7692 22.0005H33.3846C33.1722 22.0005 33 22.1727 33 22.3851V25.8466C33 26.059 33.1722 26.2313 33.3846 26.2313H46.0769C46.2893 26.2313 46.4615 26.4035 46.4615 26.6159V41.6159C46.4615 41.8283 46.6338 42.0005 46.8462 42.0005H50.6923C50.9047 42.0005 51.0769 41.8283 51.0769 41.6159V26.6159C51.0769 26.4035 51.2491 26.2313 51.4615 26.2313H63.7692C63.9816 26.2313 64.1538 26.059 64.1538 25.8466V22.3851C64.1538 22.1727 63.9816 22.0005 63.7692 22.0005Z" fill="#ABA9B8"/>
<path d="M69.1538 41.6159V22.3851C69.1538 22.1727 69.3261 22.0005 69.5385 22.0005H73.7692C73.9816 22.0005 74.1538 22.1727 74.1538 22.3851V41.6159C74.1538 41.8283 73.9816 42.0005 73.7692 42.0005H69.5385C69.3261 42.0005 69.1538 41.8283 69.1538 41.6159Z" fill="#ABA9B8"/>
<path d="M79.1538 41.6159C79.1538 41.8283 79.3261 42.0005 79.5385 42.0005H106.462C106.674 42.0005 106.846 41.8283 106.846 41.6159V38.1543C106.846 37.9419 106.674 37.7697 106.462 37.7697H84.1538C83.9414 37.7697 83.7692 37.5975 83.7692 37.3851V34.3082C83.7692 34.0958 83.9414 33.9236 84.1538 33.9236H103.769C103.982 33.9236 104.154 33.7514 104.154 33.5389V30.462C104.154 30.2496 103.982 30.0774 103.769 30.0774H84.1173C83.9198 30.0774 83.7541 29.9283 83.7364 29.7315C83.6145 28.3849 83.4872 26.2313 83.7692 26.2313H106.462C106.674 26.2313 106.846 26.059 106.846 25.8466V22.3851C106.846 22.1727 106.674 22.0005 106.462 22.0005H79.5385C79.3261 22.0005 79.1538 22.1727 79.1538 22.3851V41.6159Z" fill="#ABA9B8"/>
<path fill-rule="evenodd" clip-rule="evenodd" d="M116.462 42.0005C116.674 42.0005 116.846 41.8283 116.846 41.6159V35.8466C116.846 35.6342 117.018 35.462 117.231 35.462H127.116C127.191 35.462 127.264 35.4838 127.327 35.5248L137.135 41.9378C137.197 41.9787 137.271 42.0005 137.345 42.0005H141.846C142.059 42.0005 142.231 41.8283 142.231 41.6159V41.0525C142.231 40.9239 142.167 40.8038 142.059 40.7325L134.155 35.4626L134.154 35.4611L134.156 35.4592C137.783 35.3566 140.692 32.3837 140.692 28.7313C140.692 25.0787 137.783 22.1058 134.155 22.0032L134.154 22.0029L134.154 22.0019L134.152 22.0005H112.231C112.018 22.0005 111.846 22.1727 111.846 22.3851V41.6159C111.846 41.8283 112.018 42.0005 112.231 42.0005H116.462ZM116.462 25.8466H133.385C134.872 25.8466 136.077 27.052 136.077 28.5389C136.077 30.0259 134.872 31.2313 133.385 31.2313H116.462C116.249 31.2313 116.077 31.059 116.077 30.8466V26.2313C116.077 26.0189 116.249 25.8466 116.462 25.8466Z" fill="#ABA9B8"/>
</svg>
