<svg width="176" height="64" viewBox="0 0 176 64" fill="none" xmlns="http://www.w3.org/2000/svg">
<g clip-path="url(#clip0_5603_71929)">
<path d="M96.3249 38.3128C95.8613 38.553 95.3306 38.6806 94.7325 38.6806C94.1344 38.6806 93.6111 38.568 93.1625 38.3504C92.7962 38.1627 92.4822 37.8925 92.2056 37.5773V42.8332H90.0749V28.8708H92.0411L92.1308 29.8916C92.4223 29.5313 92.7588 29.2386 93.1625 29.0284C93.6036 28.8033 94.1195 28.6906 94.7101 28.6906C95.3007 28.6906 95.8464 28.8108 96.3099 29.0434C96.7734 29.2761 97.1697 29.6063 97.4837 30.0416C97.8052 30.4695 98.0443 30.9798 98.2013 31.5878C98.3583 32.1883 98.4406 32.8487 98.4406 33.5843V33.7719C98.4406 34.4699 98.3583 35.1229 98.1939 35.7159C98.0369 36.3088 97.7976 36.8267 97.4762 37.2696C97.1622 37.7049 96.7809 38.0502 96.3174 38.2903L96.3249 38.3128ZM96.3174 33.6068C96.3174 33.164 96.2725 32.7512 96.1903 32.3684C96.108 31.9856 95.981 31.6479 95.8016 31.3551C95.6222 31.0624 95.3979 30.8373 95.1213 30.6796C94.8521 30.5145 94.5231 30.432 94.1419 30.432C93.7606 30.432 93.4391 30.4995 93.17 30.6271C92.9008 30.7547 92.6691 30.9273 92.4896 31.1525C92.385 31.2876 92.2953 31.4302 92.2131 31.5878V35.806C92.385 36.1587 92.6243 36.4439 92.9383 36.6616C93.2597 36.8717 93.6634 36.9694 94.1568 36.9694C94.5381 36.9694 94.8671 36.8868 95.1362 36.7217C95.4053 36.5565 95.6296 36.3313 95.8016 36.0386C95.981 35.7459 96.108 35.4007 96.1903 35.0179C96.2725 34.635 96.3174 34.2223 96.3174 33.7944V33.6068ZM66.1965 30.7472C66.346 30.7472 66.488 30.7472 66.6375 30.7622C66.7945 30.7772 66.9291 30.7922 67.0636 30.8147L67.0786 28.8257C67.0038 28.7957 66.8842 28.7732 66.7347 28.7432C66.5852 28.7207 66.4506 28.7057 66.316 28.7057C65.8376 28.7057 65.419 28.8182 65.0526 29.0359C64.6938 29.2535 64.3947 29.5613 64.148 29.9516C64.133 29.9741 64.1256 30.0041 64.1106 30.0267L64.0508 28.8858H62.0173V38.5004H64.148V31.9481C64.2452 31.7154 64.3648 31.5128 64.5293 31.3477C64.7162 31.1525 64.9479 31.0024 65.232 30.9048C65.5087 30.7997 65.8302 30.7472 66.1965 30.7472ZM75.3172 37.7574C74.9883 38.0276 74.5846 38.2528 74.1061 38.4255C73.6351 38.598 73.0894 38.6806 72.4614 38.6806C71.7511 38.6806 71.1156 38.568 70.5401 38.3353C69.9719 38.0951 69.4934 37.7724 69.0896 37.3521C68.6935 36.9318 68.3944 36.4364 68.1776 35.866C67.9683 35.2956 67.8562 34.6876 67.8562 34.0271V33.6744C67.8562 32.9238 67.9683 32.2408 68.1851 31.6328C68.4019 31.0249 68.7084 30.4995 69.0971 30.0717C69.4859 29.6363 69.9495 29.2986 70.4802 29.0659C71.011 28.8333 71.5867 28.7207 72.2072 28.7207C72.8875 28.7207 73.4931 28.8333 74.0014 29.0659C74.5173 29.2986 74.9359 29.6214 75.2723 30.0416C75.6162 30.4545 75.8704 30.9498 76.0349 31.5277C76.2068 32.1057 76.2891 32.7362 76.2891 33.4267V34.3424H70.0167C70.0392 34.6426 70.0765 34.9353 70.1662 35.2055C70.2859 35.5583 70.4578 35.8735 70.682 36.1362C70.9064 36.4064 71.1755 36.6166 71.497 36.7667C71.8184 36.9168 72.1773 36.9919 72.5885 36.9919C73.1043 36.9919 73.5604 36.8868 73.964 36.6841C74.3677 36.4739 74.7116 36.1813 75.0107 35.806L76.1321 36.9018C75.9228 37.202 75.6611 37.4947 75.3247 37.7724L75.3172 37.7574ZM70.0616 32.7962H74.1883V32.6311C74.1734 32.2483 74.0986 31.8881 73.9565 31.5503C73.822 31.2126 73.6127 30.9424 73.3286 30.7322C73.0445 30.522 72.6707 30.4245 72.1922 30.4245C71.8408 30.4245 71.5194 30.4995 71.2428 30.6571C70.9737 30.8073 70.7419 31.0249 70.5625 31.3026C70.383 31.5803 70.241 31.933 70.1363 32.3309C70.0989 32.481 70.0765 32.6386 70.0541 32.8038L70.0616 32.7962ZM84.1315 25.5608L88.9984 38.5004H86.6659L85.6266 35.4682H80.6401L79.601 38.5004H77.2759L82.1279 25.5608H84.1464H84.1315ZM85.0136 33.6969L83.1222 28.2103L81.2382 33.6969H85.0136ZM59.8493 38.493V32.3159C59.8493 31.6554 59.7745 31.1 59.625 30.6421C59.483 30.1767 59.2736 29.809 58.997 29.5237C58.7204 29.231 58.3915 29.0209 58.0027 28.8933C57.6215 28.7657 57.2028 28.6982 56.7318 28.6982C56.171 28.6982 55.6627 28.8108 55.1992 29.0434C54.7507 29.2611 54.3619 29.5763 54.0404 29.9816V24.8403H51.9172V38.4855H54.0404V31.6328C54.1077 31.5053 54.175 31.3851 54.2498 31.2726C54.4441 31.0024 54.6834 30.7922 54.9749 30.6421C55.2665 30.4845 55.6104 30.4094 55.9916 30.4094C56.373 30.4094 56.6645 30.4695 56.9187 30.5971C57.1728 30.7171 57.3673 30.9123 57.4943 31.1825C57.6289 31.4527 57.6962 31.8205 57.6962 32.2858V38.478H59.8343L59.8493 38.493ZM49.3904 25.5533H47.1699V38.4855H49.3904V25.5533ZM153.442 31.5053C153.613 32.0832 153.696 32.7136 153.696 33.4042V34.3199H147.424C147.446 34.6201 147.483 34.9128 147.573 35.183C147.693 35.5358 147.865 35.851 148.089 36.1137C148.313 36.3839 148.583 36.5941 148.904 36.7441C149.226 36.8943 149.584 36.9694 149.995 36.9694C150.511 36.9694 150.967 36.8643 151.371 36.6616C151.775 36.4515 152.118 36.1587 152.418 35.7835L153.539 36.8792C153.33 37.1795 153.061 37.4722 152.731 37.7499C152.403 38.0202 151.999 38.2453 151.521 38.4179C151.05 38.5906 150.504 38.6731 149.876 38.6731C149.165 38.6731 148.53 38.5606 147.954 38.3278C147.386 38.0877 146.908 37.7649 146.504 37.3446C146.108 36.9243 145.809 36.429 145.592 35.8585C145.383 35.2881 145.27 34.6801 145.27 34.0197V33.6669C145.27 32.9163 145.383 32.2333 145.6 31.6253C145.816 31.0174 146.122 30.492 146.512 30.0642C146.9 29.6288 147.364 29.2911 147.895 29.0584C148.425 28.8257 149.001 28.7131 149.621 28.7131C150.302 28.7131 150.907 28.8257 151.416 29.0584C151.932 29.2911 152.358 29.6139 152.687 30.0341C153.031 30.4469 153.285 30.9424 153.449 31.5203L153.442 31.5053ZM151.595 32.6161C151.58 32.2333 151.506 31.873 151.363 31.5353C151.229 31.1975 151.02 30.9273 150.735 30.7171C150.451 30.507 150.078 30.4094 149.599 30.4094C149.248 30.4094 148.926 30.4845 148.649 30.6421C148.38 30.7922 148.149 31.0099 147.969 31.2876C147.79 31.5653 147.648 31.9181 147.543 32.3159C147.505 32.466 147.483 32.6236 147.461 32.7887H151.587V32.6236L151.595 32.6161ZM162.443 29.5088C162.181 29.2235 161.852 29.0209 161.479 28.8933C161.105 28.7657 160.693 28.6982 160.23 28.6982C159.654 28.6982 159.138 28.8108 158.675 29.0359C158.211 29.2535 157.808 29.5688 157.471 29.9741C157.457 29.9967 157.442 30.0192 157.427 30.0416L157.359 28.8708H155.348V38.4855H157.479V31.6628C157.546 31.5277 157.621 31.4002 157.71 31.2801C157.913 31.0099 158.159 30.7997 158.443 30.6496C158.735 30.492 159.064 30.4169 159.423 30.4169C159.781 30.4169 160.103 30.477 160.35 30.5971C160.604 30.7096 160.798 30.9048 160.925 31.175C161.06 31.4452 161.127 31.8055 161.127 32.2708V38.493H163.265V32.2858C163.265 31.6253 163.198 31.0775 163.056 30.6271C162.914 30.1692 162.705 29.8015 162.436 29.5163L162.443 29.5088ZM107.584 37.277C107.203 37.7124 106.732 38.0576 106.186 38.3053C105.64 38.5455 105.012 38.6731 104.317 38.6731C103.621 38.6731 102.986 38.553 102.433 38.3053C101.887 38.0576 101.416 37.7124 101.035 37.277C100.653 36.8343 100.362 36.3164 100.16 35.7234C99.9584 35.1305 99.8609 34.485 99.8609 33.7944V33.5918C99.8609 32.9013 99.9584 32.2558 100.16 31.6628C100.362 31.0624 100.653 30.5445 101.028 30.1092C101.409 29.6664 101.88 29.3211 102.426 29.081C102.978 28.8333 103.606 28.7057 104.301 28.7057C104.997 28.7057 105.632 28.8333 106.178 29.081C106.732 29.3211 107.203 29.6664 107.584 30.1092C107.965 30.5445 108.257 31.0624 108.458 31.6628C108.66 32.2558 108.758 32.9013 108.758 33.5918V33.7944C108.758 34.485 108.66 35.1305 108.458 35.7234C108.257 36.3164 107.965 36.8343 107.584 37.277ZM106.627 33.5918C106.627 33.164 106.582 32.7662 106.485 32.3834C106.395 32.0006 106.253 31.6554 106.059 31.3626C105.871 31.0699 105.625 30.8373 105.334 30.6722C105.042 30.4995 104.698 30.4169 104.294 30.4169C103.891 30.4169 103.547 30.4995 103.248 30.6722C102.956 30.8373 102.717 31.0699 102.53 31.3626C102.343 31.6554 102.201 32.0006 102.111 32.3834C102.021 32.7662 101.977 33.164 101.977 33.5918V33.7944C101.977 34.2297 102.021 34.635 102.111 35.0179C102.201 35.4007 102.336 35.7384 102.53 36.0311C102.717 36.3239 102.963 36.549 103.255 36.7141C103.547 36.8792 103.898 36.9618 104.309 36.9618C104.72 36.9618 105.049 36.8792 105.334 36.7141C105.625 36.549 105.871 36.3239 106.059 36.0311C106.246 35.7384 106.387 35.4007 106.478 35.0179C106.574 34.635 106.619 34.2223 106.619 33.7944V33.5918H106.627ZM115 36.8343C114.918 36.8492 114.806 36.8717 114.671 36.8868C114.536 36.9018 114.395 36.9168 114.245 36.9168C114.036 36.9168 113.856 36.8868 113.707 36.8343C113.55 36.7817 113.43 36.6766 113.348 36.5265C113.266 36.3689 113.221 36.1362 113.221 35.8435V30.4469H114.926V28.8858H113.221V26.529H111.09V28.8858H109.535V30.4469H111.09V35.9711C111.09 36.6315 111.195 37.157 111.411 37.5547C111.621 37.9525 111.92 38.2378 112.294 38.4179C112.675 38.5906 113.101 38.6731 113.594 38.6731C113.893 38.6731 114.163 38.6506 114.395 38.6131C114.634 38.568 114.836 38.523 115.015 38.4704V36.8343H115ZM144.456 28.8858H141.884L139.178 31.9181L138.512 32.7436V24.8403H136.374V38.4855H138.512V35.3406L139.484 34.3424L142.34 38.493H144.807L140.86 32.8787L144.456 28.8783V28.8858ZM121.564 30.6196C121.818 30.7397 122.012 30.9348 122.14 31.205C122.274 31.4752 122.341 31.843 122.341 32.3083V38.5004H124.48V32.3234C124.48 31.6628 124.405 31.1075 124.256 30.6496C124.113 30.1843 123.904 29.8165 123.627 29.5313C123.351 29.2386 123.022 29.0284 122.633 28.9008C122.251 28.7732 121.833 28.7057 121.354 28.7057C120.794 28.7057 120.286 28.8182 119.822 29.0509C119.373 29.2686 118.985 29.5838 118.663 29.9891V24.8478H116.54V38.4855H118.663V31.6328C118.731 31.5053 118.798 31.3851 118.872 31.2801C119.067 31.0099 119.306 30.7997 119.598 30.6496C119.89 30.492 120.233 30.4169 120.615 30.4169C120.996 30.4169 121.288 30.477 121.542 30.6046L121.564 30.6196ZM127.492 37.3446C127.096 36.9243 126.797 36.429 126.58 35.8585C126.371 35.2881 126.259 34.6801 126.259 34.0197V33.6669C126.259 32.9163 126.371 32.2333 126.588 31.6253C126.804 31.0174 127.111 30.492 127.5 30.0642C127.889 29.6288 128.353 29.2911 128.883 29.0584C129.414 28.8257 129.989 28.7131 130.61 28.7131C131.291 28.7131 131.896 28.8257 132.404 29.0584C132.92 29.2911 133.347 29.6139 133.675 30.0341C134.019 30.4469 134.273 30.9424 134.438 31.5203C134.61 32.0982 134.692 32.7287 134.692 33.4191V34.3348H128.419C128.442 34.635 128.479 34.9278 128.569 35.198C128.689 35.5507 128.86 35.866 129.085 36.1287C129.309 36.3989 129.578 36.609 129.9 36.7592C130.221 36.9093 130.58 36.9843 130.991 36.9843C131.507 36.9843 131.963 36.8792 132.359 36.6766C132.763 36.4664 133.107 36.1737 133.406 35.7984L134.527 36.8943C134.318 37.1945 134.049 37.4872 133.72 37.7649C133.391 38.0351 132.987 38.2603 132.509 38.4329C132.038 38.6055 131.492 38.6881 130.864 38.6881C130.154 38.6881 129.518 38.5755 128.943 38.3429C128.374 38.1027 127.897 37.78 127.492 37.3596V37.3446ZM128.464 32.7962H132.591V32.6311C132.576 32.2483 132.501 31.8881 132.359 31.5503C132.225 31.2126 132.015 30.9424 131.732 30.7322C131.447 30.522 131.074 30.4245 130.603 30.4245C130.251 30.4245 129.93 30.4995 129.653 30.6571C129.384 30.8073 129.152 31.0249 128.973 31.3026C128.794 31.5879 128.651 31.933 128.547 32.3309C128.509 32.481 128.487 32.6386 128.464 32.8038V32.7962Z" fill="black"/>
<path d="M17.2433 18H34.8723C37.768 18 40.1156 20.3379 40.1156 23.2218V40.7783C40.1156 43.6621 37.768 46 34.8723 46H17.2433C14.3475 46 12 43.6621 12 40.7783V23.2218C12 20.3379 14.3475 18 17.2433 18Z" fill="#F5F5F5"/>
<path d="M27.3632 30.0288L26.0269 26.2339L24.6869 30.0288H27.3632ZM26.0616 41.7502C25.8727 41.7502 25.6942 41.667 25.5715 41.5221C25.3592 41.2688 25.0188 40.8302 24.5314 40.1791C23.9764 39.4388 23.1383 38.2835 22.2998 36.9868C21.3512 35.5222 20.5937 34.1779 20.0482 32.9917C19.3449 31.4602 18.9883 30.1688 18.9883 29.1541C18.9883 25.3467 22.1595 22.25 26.0575 22.25C29.9547 22.25 33.06 25.2775 33.1268 29.1429C33.1561 30.7988 32.8942 32.082 32.3486 32.9576C32.0484 33.4402 31.6669 33.7842 31.2161 33.9817C30.9352 34.1042 30.6314 34.1666 30.3145 34.1666C30.1097 34.1666 29.8974 34.1406 29.6841 34.089C28.9231 33.9062 28.5043 33.2839 28.3221 32.9293L27.7171 31.1935H24.3461L23.4643 33.7271H22.1208L25.2798 24.8874H26.8145L29.4944 32.3707C29.6291 32.6329 29.809 32.8099 29.9939 32.8543C30.1061 32.8817 30.2134 32.8952 30.3135 32.8952C30.4501 32.8952 30.5723 32.8704 30.6881 32.8202C30.8937 32.7303 31.08 32.5535 31.2414 32.2948C31.6449 31.6469 31.8536 30.5356 31.8297 29.1644C31.7747 26 29.2391 23.5215 26.0575 23.5215C22.875 23.5215 20.2854 26.0485 20.2854 29.1541C20.2854 29.9879 20.6037 31.1032 21.2313 32.4695C21.7515 33.6009 22.4796 34.8913 23.3949 36.3057C24.2194 37.579 25.0368 38.7055 25.5774 39.4262C25.7573 39.6668 25.9196 39.8787 26.0575 40.0584C26.3028 39.74 26.6238 39.3171 26.989 38.8165C27.9759 37.4636 28.8406 36.1647 29.5588 34.9569L29.6102 34.8702L29.7062 34.8999C29.9222 34.9659 30.1521 34.9991 30.3888 34.9991C30.5295 34.9991 30.6701 34.9869 30.8076 34.9631L31.0754 34.9169L30.9406 35.1518C30.1544 36.518 29.1796 37.9997 28.0444 39.5568C27.6166 40.1423 27.2477 40.6259 26.9858 40.9635C26.8547 41.1319 26.6567 41.3815 26.5454 41.5198C26.4272 41.6662 26.251 41.7502 26.0616 41.7502Z" fill="#FF0000"/>
</g>
<defs>
<clipPath id="clip0_5603_71929">
<rect width="152" height="28" fill="white" transform="translate(12 18)"/>
</clipPath>
</defs>
</svg>
