<svg width="176" height="64" viewBox="0 0 176 64" fill="none" xmlns="http://www.w3.org/2000/svg">
<path d="M37.1441 49.1773C36.9911 48.6419 36.8381 48.1065 36.7616 47.4946H36.6087C36.4557 48.1065 36.3792 48.6419 36.2262 49.1773L35.2319 52.2367H38.1384L37.1441 49.1773ZM32.0195 56.7494V55.755L32.7844 55.6786L35.4614 47.4946L34.62 47.4181V46.4238H37.5265L40.5859 55.6786L41.2743 55.755V56.7494H38.4443V55.755L39.1327 55.6786L38.4443 53.384H34.773L34.0082 55.6786L34.6965 55.755V56.7494H32.0195Z" fill="#ABA9B8"/>
<path d="M52.3656 47.4946V56.7494H50.5299L46.8586 49.3303C46.6292 48.7949 46.3232 48.183 46.0173 47.5711C46.0938 48.2595 46.0938 49.0243 46.0938 49.7127V55.6786L46.8586 55.755V56.7494H44.1816V55.755L44.9465 55.6786V47.4946L44.1816 47.4181V46.4238H46.7821L50.377 53.6899C50.6064 54.1489 50.9124 54.8372 51.2183 55.3726C51.1418 54.5313 51.1418 53.7664 51.1418 53.0781V47.4181L50.377 47.3417V46.4238H53.1304V47.4181L52.3656 47.4946Z" fill="#ABA9B8"/>
<path d="M56.6484 47.4181V46.4238H59.4019V47.4181L58.6371 47.4946V51.2424L63.0732 46.4238H64.6029V47.4181L63.7616 47.4946L60.0903 51.4719L63.8381 55.6786L64.6029 55.755V56.7494H62.9967L58.6371 51.7778V55.6786L59.4019 55.755V56.7494H56.6484V55.755L57.3368 55.6786V47.4946L56.6484 47.4181Z" fill="#ABA9B8"/>
<path d="M73.627 47.5711H69.8792V50.7835H74.4684V51.9308H69.8792V55.6021H73.627L73.78 54.6078H74.7743V56.7494H67.8906V55.755L68.6555 55.6786V47.4946L67.8906 47.4181V46.4238H74.7743V48.4889H73.78L73.627 47.5711Z" fill="#ABA9B8"/>
<path d="M84.5648 49.4832C84.5648 47.8771 83.5705 47.5711 81.5054 47.5711C81.1229 47.5711 80.7405 47.5711 80.3581 47.5711V51.6248C80.7405 51.6248 81.1229 51.6248 81.5818 51.6248C83.5705 51.6248 84.5648 51.2424 84.5648 49.5597V49.4832ZM84.9472 56.7494L82.4997 52.6956C82.1937 52.6956 81.8113 52.6956 81.5054 52.6956C81.1229 52.6956 80.7405 52.6956 80.2816 52.6956V55.6021L81.0464 55.6786V56.6729H78.293V55.6786L79.0578 55.6021V47.4946L78.293 47.4181V46.4238C79.3638 46.4238 80.4346 46.4238 81.5054 46.4238C83.8764 46.4238 85.865 46.9592 85.865 49.4832V49.5597C85.865 51.2424 85.1002 52.0073 83.9529 52.4662L85.865 55.6786L86.6299 55.755V56.7494H84.9472Z" fill="#ABA9B8"/>
<path d="M89.7656 47.4181V46.4238H92.5191V47.4181L91.7542 47.4946V51.2424L96.2669 46.4238H97.7201V47.4181L96.8788 47.4946L93.2075 51.4719L96.9553 55.6786L97.7201 55.755V56.7494H96.1139L91.7542 51.7778V55.6786L92.5191 55.755V56.7494H89.7656V55.755L90.5305 55.6786V47.4946L89.7656 47.4181Z" fill="#ABA9B8"/>
<path d="M107.205 49.4832C107.205 47.8771 106.211 47.5711 104.146 47.5711C103.763 47.5711 103.381 47.5711 102.998 47.5711V51.6248C103.381 51.6248 103.763 51.6248 104.222 51.6248C106.211 51.6248 107.205 51.2424 107.205 49.5597V49.4832ZM107.664 56.7494L105.216 52.6956C104.911 52.6956 104.528 52.6956 104.222 52.6956C103.84 52.6956 103.457 52.6956 102.998 52.6956V55.6021L103.763 55.6786V56.6729H101.01V55.6786L101.775 55.6021V47.4946L101.01 47.4181V46.4238C102.081 46.4238 103.151 46.4238 104.222 46.4238C106.593 46.4238 108.582 46.9592 108.582 49.4832V49.5597C108.582 51.2424 107.817 52.0073 106.67 52.4662L108.582 55.6786L109.347 55.755V56.7494H107.664Z" fill="#ABA9B8"/>
<path d="M117.148 49.1773C116.995 48.6419 116.842 48.1065 116.766 47.4946H116.613C116.46 48.1065 116.383 48.6419 116.23 49.1773L115.236 52.2367H118.142L117.148 49.1773ZM112.023 56.7494V55.755L112.788 55.6786L115.465 47.4946L114.624 47.4181V46.4238H117.53L120.59 55.6786L121.278 55.755V56.7494H118.525V55.755L119.213 55.6786L118.525 53.384H114.853L114.089 55.6786L114.777 55.755V56.7494H112.023Z" fill="#ABA9B8"/>
<path d="M131.833 47.4946V52.4662C131.833 55.4491 130.532 56.9788 128.085 56.9788C125.561 56.9788 124.337 55.4491 124.337 52.4662V47.4946L123.572 47.4181V46.4238H126.326V47.4181L125.561 47.4946V52.3132C125.561 54.8372 126.173 55.8315 128.008 55.8315C129.921 55.8315 130.456 54.8372 130.456 52.3132V47.4946L129.691 47.4181V46.4238H132.445V47.4181L131.833 47.4946Z" fill="#ABA9B8"/>
<path d="M138.564 47.5711H136.499L136.346 48.4889H135.352V46.4238H143.077V48.4889H142.082L141.929 47.5711H139.864V55.6786L140.629 55.755V56.7494H137.799V55.755L138.564 55.6786V47.5711Z" fill="#ABA9B8"/>
<path d="M102.921 20.6485C102.921 12.1586 96.0373 5.2749 87.5474 5.2749C79.0575 5.2749 72.1738 12.1586 72.1738 20.6485C72.1738 29.1384 79.0575 36.022 87.5474 36.022C96.0373 36.022 102.921 29.1384 102.921 20.6485Z" fill="#ABA9B8"/>
<path d="M87.5464 5.42766C79.133 5.42766 72.3258 12.2349 72.3258 20.6483C72.3258 29.0617 79.133 35.8689 87.5464 35.8689C95.9598 35.8689 102.767 29.0617 102.767 20.6483C102.767 12.2349 95.9598 5.42766 87.5464 5.42766ZM87.5464 36.1748C78.98 36.1748 71.9434 29.2146 71.9434 20.5718C71.9434 12.0054 78.9035 4.96875 87.5464 4.96875C96.1892 4.96875 103.149 12.0054 103.149 20.6483C103.149 29.2146 96.1128 36.1748 87.5464 36.1748Z" fill="#ABA9B8"/>
<path fill-rule="evenodd" clip-rule="evenodd" d="M88.3889 4.28027L88.0829 3.43893C88.0064 3.36244 87.8535 3.20947 87.5475 3.20947C87.5475 3.20947 87.5475 3.20947 87.471 3.20947C86.7827 3.20947 86.1708 3.28596 85.5589 3.28596C85.4824 3.28596 85.4824 3.36244 85.4824 3.36244L85.9413 4.1273C85.9413 4.1273 86.1708 4.35675 86.5532 4.35675H86.6297C86.9356 4.35675 87.2416 4.35675 87.5475 4.35675C87.777 4.35675 88.0829 4.35675 88.3124 4.35675C88.4654 4.35675 88.3889 4.28027 88.3889 4.28027Z" fill="#ABA9B8"/>
<path fill-rule="evenodd" clip-rule="evenodd" d="M85.5572 4.35695L85.0982 3.51561C85.0218 3.43913 84.8688 3.28616 84.5628 3.36264C83.951 3.43913 83.2626 3.5921 82.6507 3.82155C82.5742 3.82155 82.5742 3.89804 82.5742 3.97453L83.1096 4.66289C83.1096 4.66289 83.3391 4.89235 83.7215 4.81587H83.798C84.1039 4.73938 84.4099 4.66289 84.6393 4.66289C84.8688 4.58641 85.1747 4.58641 85.4042 4.58641C85.5572 4.43344 85.5572 4.35695 85.5572 4.35695Z" fill="#ABA9B8"/>
<path fill-rule="evenodd" clip-rule="evenodd" d="M82.7275 4.9689L82.1156 4.28053C82.0391 4.20404 81.8097 4.12756 81.5802 4.20404C80.9683 4.4335 80.3564 4.66296 79.821 4.9689C79.7446 5.04538 79.7446 5.04538 79.821 5.12187L80.5094 5.73375C80.5094 5.73375 80.8153 5.88672 81.1213 5.73375H81.1978C81.5037 5.58078 81.7332 5.5043 82.0391 5.42781C82.2686 5.35133 82.5745 5.27484 82.804 5.19835C82.804 5.04538 82.804 4.9689 82.7275 4.9689Z" fill="#ABA9B8"/>
<path fill-rule="evenodd" clip-rule="evenodd" d="M80.1276 6.03985L79.4393 5.42797C79.3628 5.35148 79.1333 5.35148 78.9039 5.42797C78.3685 5.73391 77.8331 6.11634 77.2977 6.49876C77.2212 6.57525 77.2977 6.57525 77.2977 6.65174L78.0625 7.11065C78.0625 7.11065 78.3685 7.18713 78.6744 7.03416H78.7509C78.9803 6.88119 79.2098 6.72822 79.5157 6.57525C79.7452 6.42228 79.9747 6.34579 80.2041 6.19282C80.2041 6.11634 80.1276 6.03985 80.1276 6.03985Z" fill="#ABA9B8"/>
<path fill-rule="evenodd" clip-rule="evenodd" d="M77.68 7.49263L76.8387 7.03372C76.7622 7.03372 76.5328 6.95724 76.3033 7.18669C75.7679 7.64561 75.309 8.02803 74.9266 8.48694C74.8501 8.56343 74.9266 8.56343 74.9266 8.63992L75.7679 8.94586C75.7679 8.94586 76.0739 9.02234 76.3798 8.7164C76.3798 8.7164 76.3798 8.7164 76.4563 8.63992C76.6857 8.41046 76.9152 8.25749 77.1446 8.02803C77.3741 7.87506 77.5271 7.72209 77.7565 7.56912C77.7565 7.56912 77.68 7.56912 77.68 7.49263Z" fill="#ABA9B8"/>
<path fill-rule="evenodd" clip-rule="evenodd" d="M75.5381 9.40506L74.6968 9.09912C74.6203 9.09912 74.3908 9.09912 74.1614 9.32858C73.779 9.86397 73.3965 10.3229 73.0141 10.8583C72.9376 10.9348 73.0141 10.9348 73.0906 11.0113L74.0084 11.1642C74.0084 11.1642 74.3144 11.1642 74.5438 10.8583C74.5438 10.8583 74.5438 10.8583 74.6203 10.7818C74.7733 10.5523 75.0027 10.3229 75.1557 10.0934C75.3087 9.86397 75.5381 9.711 75.6911 9.48155C75.6146 9.48155 75.6146 9.48155 75.5381 9.40506Z" fill="#ABA9B8"/>
<path fill-rule="evenodd" clip-rule="evenodd" d="M73.7791 11.6994L72.8612 11.5464C72.7847 11.5464 72.5553 11.6229 72.4023 11.8523C72.0964 12.3877 71.7904 12.9996 71.561 13.6115C71.4845 13.688 71.561 13.688 71.6375 13.688H72.5553C72.5553 13.688 72.8612 13.6115 73.0142 13.3056C73.0142 13.3056 73.0142 13.3056 73.0142 13.2291C73.1672 12.9996 73.3201 12.6937 73.3966 12.4642C73.5496 12.2348 73.7026 12.0053 73.7791 11.7758C73.932 11.6994 73.8555 11.6994 73.7791 11.6994Z" fill="#ABA9B8"/>
<path fill-rule="evenodd" clip-rule="evenodd" d="M72.4802 14.2236H71.5624C71.4859 14.2236 71.2564 14.3766 71.1799 14.6061C70.9505 15.2179 70.7975 15.8298 70.6445 16.4417C70.6445 16.5182 70.721 16.5182 70.721 16.5182L71.6388 16.3652C71.6388 16.3652 71.9448 16.2887 72.0213 15.9063V15.8298C72.0978 15.5239 72.1742 15.2944 72.3272 14.9885C72.4037 14.759 72.4802 14.5296 72.6331 14.2236C72.5567 14.2236 72.4802 14.2236 72.4802 14.2236Z" fill="#ABA9B8"/>
<path fill-rule="evenodd" clip-rule="evenodd" d="M71.5606 16.9004L70.6428 17.0534C70.5663 17.0534 70.4134 17.2063 70.3369 17.5123C70.3369 17.5123 70.3369 17.5123 70.3369 17.5888C70.2604 18.2006 70.1839 18.889 70.1074 19.5009C70.1074 19.5774 70.1839 19.5774 70.1839 19.5774L71.0252 19.2714C71.0252 19.2714 71.3312 19.1185 71.3312 18.736V18.6596C71.3312 18.3536 71.4077 18.0477 71.4842 17.8182C71.5606 17.5888 71.5606 17.2828 71.6371 17.0534C71.6371 16.9004 71.6371 16.9004 71.5606 16.9004Z" fill="#ABA9B8"/>
<path fill-rule="evenodd" clip-rule="evenodd" d="M71.1782 19.7305L70.3369 20.0364C70.2604 20.1129 70.1074 20.2659 70.1074 20.5718C70.1074 20.5718 70.1074 20.5718 70.1074 20.6483C70.1074 21.3367 70.1839 21.9485 70.1839 22.5604C70.1839 22.6369 70.2604 22.6369 70.2604 22.6369L71.0252 22.178C71.0252 22.178 71.2547 21.9485 71.2547 21.5661V21.4896C71.2547 21.1837 71.2547 20.8777 71.2547 20.5718C71.2547 20.3424 71.2547 20.0364 71.2547 19.807C71.2547 19.7305 71.1782 19.7305 71.1782 19.7305Z" fill="#ABA9B8"/>
<path fill-rule="evenodd" clip-rule="evenodd" d="M71.256 22.6367L70.4147 23.0957C70.3382 23.1721 70.2617 23.3251 70.2617 23.6311C70.3382 24.2429 70.4912 24.9313 70.7206 25.5432C70.7206 25.6197 70.7971 25.6197 70.8736 25.6197L71.562 25.0843C71.562 25.0843 71.7914 24.8548 71.7149 24.4724V24.3959C71.6385 24.09 71.562 23.8605 71.562 23.5546C71.4855 23.3251 71.4855 23.0192 71.409 22.7897C71.3325 22.5603 71.3325 22.6367 71.256 22.6367Z" fill="#ABA9B8"/>
<path fill-rule="evenodd" clip-rule="evenodd" d="M71.8668 25.3904L71.1785 26.0023C71.102 26.0788 71.0255 26.3083 71.102 26.5377C71.3315 27.1496 71.5609 27.7615 71.8668 28.2969C71.9433 28.3734 71.9433 28.3734 72.0198 28.2969L72.6317 27.6085C72.6317 27.6085 72.7847 27.3026 72.6317 26.9966V26.9202C72.4787 26.6142 72.4022 26.3848 72.3258 26.0788C72.2493 25.8494 72.1728 25.5434 72.0963 25.314C71.9433 25.3904 71.8668 25.3904 71.8668 25.3904Z" fill="#ABA9B8"/>
<path fill-rule="evenodd" clip-rule="evenodd" d="M72.9388 28.0672L72.3269 28.7556C72.2504 28.8321 72.2504 29.0615 72.3269 29.291C72.6328 29.8264 73.0153 30.3618 73.3977 30.8972C73.4742 30.9737 73.4742 30.8972 73.5507 30.8972L74.0096 30.1323C74.0096 30.1323 74.0861 29.8264 73.9331 29.5204V29.4439C73.7801 29.2145 73.6271 28.985 73.4742 28.6791C73.3212 28.4496 73.2447 28.2202 73.0918 27.9907C73.0153 27.9907 72.9388 28.0672 72.9388 28.0672Z" fill="#ABA9B8"/>
<path fill-rule="evenodd" clip-rule="evenodd" d="M74.4692 30.515L74.0103 31.3563C74.0103 31.4328 73.9338 31.6622 74.1633 31.8917C74.5457 32.4271 75.0046 32.886 75.4635 33.2684C75.54 33.3449 75.54 33.2684 75.6165 33.2684L75.9224 32.4271C75.9224 32.4271 75.9989 32.1212 75.693 31.8152C75.693 31.8152 75.693 31.8152 75.6165 31.7387C75.387 31.5093 75.2341 31.2798 75.0046 31.0504C74.8516 30.8209 74.6987 30.6679 74.5457 30.4385C74.5457 30.4385 74.4692 30.4385 74.4692 30.515Z" fill="#ABA9B8"/>
<path fill-rule="evenodd" clip-rule="evenodd" d="M76.3802 32.5802L76.0742 33.4216C76.0742 33.498 76.0742 33.7275 76.3037 33.957C76.8391 34.3394 77.298 34.7218 77.8334 35.1042C77.9099 35.1807 77.9099 35.1042 77.9864 35.0278L78.1393 34.1099C78.1393 34.1099 78.1393 33.804 77.8334 33.5745C77.8334 33.5745 77.8334 33.5745 77.7569 33.498C77.5274 33.3451 77.298 33.1156 77.0685 32.9626C76.8391 32.8097 76.6861 32.5802 76.4566 32.4272C76.3802 32.5037 76.3802 32.5802 76.3802 32.5802Z" fill="#ABA9B8"/>
<path fill-rule="evenodd" clip-rule="evenodd" d="M78.5983 34.3392L78.4453 35.257C78.4453 35.3335 78.5218 35.5629 78.7513 35.7159C79.2867 36.0218 79.8985 36.3278 80.5104 36.5572C80.5869 36.6337 80.5869 36.5572 80.5869 36.4808V35.5629C80.5869 35.5629 80.5104 35.257 80.2045 35.104C80.2045 35.104 80.2045 35.104 80.128 35.104C79.8985 34.9511 79.5926 34.7981 79.3631 34.7216C79.1337 34.5686 78.9042 34.4157 78.6748 34.3392C78.6748 34.2627 78.5983 34.3392 78.5983 34.3392Z" fill="#ABA9B8"/>
<path fill-rule="evenodd" clip-rule="evenodd" d="M81.1211 35.7161V36.6339C81.1211 36.7104 81.2741 36.9399 81.5035 37.0164C82.1154 37.2458 82.7273 37.3988 83.3392 37.5518C83.4157 37.5518 83.4157 37.4753 83.4157 37.4753L83.3392 36.7104C83.3392 36.7104 83.2627 36.4045 82.8803 36.328H82.8038C82.4978 36.2515 82.2684 36.175 81.9624 36.0221C81.733 35.9456 81.5035 35.8691 81.1976 35.7161C81.1211 35.6396 81.1211 35.7161 81.1211 35.7161Z" fill="#ABA9B8"/>
<path fill-rule="evenodd" clip-rule="evenodd" d="M83.875 36.5574L84.028 37.4753C84.028 37.5518 84.1809 37.7047 84.4869 37.7812C84.4869 37.7812 84.4869 37.7812 84.5634 37.7812C85.1753 37.8577 85.8636 37.9342 86.4755 38.0107C86.552 38.0107 86.552 37.9342 86.552 37.9342L86.246 37.0928C86.246 37.0928 86.0931 36.7869 85.7107 36.7869H85.6342C85.3282 36.7869 85.0223 36.7104 84.7928 36.6339C84.5634 36.5574 84.2574 36.5574 84.028 36.481C83.875 36.481 83.875 36.5574 83.875 36.5574Z" fill="#ABA9B8"/>
<path fill-rule="evenodd" clip-rule="evenodd" d="M86.7051 37.0161L87.011 37.9339C87.0875 38.0104 87.2405 38.1633 87.5464 38.1633C87.5464 38.1633 87.5464 38.1633 87.6229 38.1633C88.3113 38.1633 88.9232 38.0869 89.535 38.0869C89.6115 38.0869 89.6115 38.0104 89.6115 38.0104L89.1526 37.2455C89.1526 37.2455 88.9232 37.0161 88.5407 37.0161H88.4642C88.1583 37.0161 87.8524 37.0161 87.5464 37.0161C87.317 37.0161 87.011 37.0161 86.7816 37.0161C86.7051 36.8631 86.7051 36.9396 86.7051 37.0161Z" fill="#ABA9B8"/>
<path fill-rule="evenodd" clip-rule="evenodd" d="M89.5352 36.8632L89.9941 37.7045C90.0706 37.781 90.2235 37.8575 90.5295 37.8575C91.1414 37.781 91.8297 37.628 92.4416 37.3986C92.5181 37.3986 92.5181 37.3221 92.5181 37.2456L91.9062 36.5572C91.9062 36.5572 91.6768 36.3278 91.2943 36.4043H91.2178C90.9119 36.4808 90.6824 36.5572 90.3765 36.5572C90.147 36.6337 89.8411 36.6337 89.6116 36.7102C89.5352 36.7867 89.5352 36.8632 89.5352 36.8632Z" fill="#ABA9B8"/>
<path fill-rule="evenodd" clip-rule="evenodd" d="M92.3655 36.328L92.9774 37.0163C93.0539 37.0928 93.2834 37.1693 93.5128 37.0928C94.1247 36.8634 94.7366 36.6339 95.272 36.328C95.3485 36.2515 95.3485 36.2515 95.272 36.175L94.5836 35.5631C94.5836 35.5631 94.2777 35.4101 93.9717 35.5631H93.8953C93.5893 35.7161 93.3599 35.7926 93.0539 35.869C92.8245 35.9455 92.5185 36.022 92.2891 36.0985C92.2891 36.2515 92.2891 36.2515 92.3655 36.328Z" fill="#ABA9B8"/>
<path fill-rule="evenodd" clip-rule="evenodd" d="M94.9652 35.2569L95.6535 35.8688C95.73 35.9453 95.9595 35.9453 96.1889 35.8688C96.7243 35.5629 97.2597 35.1804 97.7951 34.798C97.8716 34.7215 97.7951 34.7215 97.7951 34.645L97.0303 34.1861C97.0303 34.1861 96.7243 34.1096 96.4184 34.2626C96.4184 34.2626 96.4184 34.2626 96.3419 34.2626C96.1124 34.4156 95.883 34.5685 95.577 34.7215C95.3476 34.8745 95.1181 34.951 94.8887 35.1039C94.8887 35.1804 94.9652 35.1804 94.9652 35.2569Z" fill="#ABA9B8"/>
<path fill-rule="evenodd" clip-rule="evenodd" d="M97.4144 33.7273L98.2557 34.1863C98.3322 34.1863 98.5617 34.2627 98.7911 34.0333C99.3265 33.6509 99.7854 33.1919 100.168 32.733C100.244 32.6565 100.168 32.6566 100.168 32.5801L99.3265 32.2741C99.3265 32.2741 99.0206 32.1976 98.7146 32.5036C98.7146 32.5036 98.7146 32.5036 98.6381 32.5801C98.4087 32.8095 98.1792 32.9625 97.9498 33.1919C97.7203 33.3449 97.5673 33.4979 97.3379 33.6509L97.4144 33.7273Z" fill="#ABA9B8"/>
<path fill-rule="evenodd" clip-rule="evenodd" d="M99.5553 31.8153L100.397 32.1213C100.473 32.1213 100.703 32.1213 100.932 31.8918C101.314 31.3564 101.697 30.8975 102.079 30.3621C102.156 30.2856 102.079 30.2856 102.003 30.2091L101.085 30.0562C101.085 30.0562 100.779 30.0562 100.55 30.3621C100.55 30.3621 100.55 30.3621 100.473 30.4386C100.32 30.668 100.091 30.8975 99.9377 31.1269C99.7848 31.3564 99.5553 31.5094 99.4023 31.7388C99.4788 31.7388 99.4788 31.8153 99.5553 31.8153Z" fill="#ABA9B8"/>
<path fill-rule="evenodd" clip-rule="evenodd" d="M101.315 29.5204L102.233 29.6733C102.309 29.6733 102.539 29.5968 102.692 29.3674C102.998 28.832 103.304 28.2201 103.533 27.6082C103.61 27.5317 103.533 27.5317 103.457 27.5317H102.539C102.539 27.5317 102.233 27.6082 102.08 27.9142C102.08 27.9142 102.08 27.9142 102.08 27.9907C101.927 28.2201 101.851 28.526 101.698 28.7555C101.545 28.985 101.392 29.2144 101.315 29.4439C101.239 29.5204 101.239 29.5204 101.315 29.5204Z" fill="#ABA9B8"/>
<path fill-rule="evenodd" clip-rule="evenodd" d="M102.614 26.9967H103.532C103.608 26.9967 103.838 26.8437 103.914 26.6143C104.144 26.0024 104.297 25.3905 104.45 24.7786C104.45 24.7021 104.373 24.7021 104.373 24.7021L103.455 24.8551C103.455 24.8551 103.149 24.9316 103.073 25.314V25.3905C102.996 25.6965 102.92 25.9259 102.767 26.2319C102.69 26.4613 102.614 26.6908 102.461 26.9967C102.537 26.9967 102.614 26.9967 102.614 26.9967Z" fill="#ABA9B8"/>
<path fill-rule="evenodd" clip-rule="evenodd" d="M103.532 24.3196L104.449 24.1666C104.526 24.1666 104.679 24.0136 104.755 23.7077C104.755 23.7077 104.755 23.7077 104.755 23.6312C104.908 23.0193 104.908 22.3309 104.985 21.7191C104.985 21.6426 104.908 21.6426 104.908 21.6426L104.067 21.9485C104.067 21.9485 103.761 22.1015 103.761 22.4839V22.5604C103.761 22.8663 103.685 23.1723 103.608 23.4017C103.532 23.6312 103.532 23.9371 103.455 24.1666C103.455 24.3196 103.455 24.3196 103.532 24.3196Z" fill="#ABA9B8"/>
<path fill-rule="evenodd" clip-rule="evenodd" d="M103.915 21.4896L104.833 21.1837C104.909 21.1072 105.062 20.9542 105.062 20.7248C105.062 20.7248 105.062 20.7248 105.062 20.6483C105.062 19.9599 104.986 19.348 104.986 18.7362C104.986 18.6597 104.909 18.6597 104.909 18.6597L104.144 19.1186C104.144 19.1186 103.915 19.348 103.915 19.7305V19.8069C103.915 20.1129 103.915 20.4188 103.915 20.7248C103.915 20.9542 103.915 21.2602 103.915 21.4896Z" fill="#ABA9B8"/>
<path fill-rule="evenodd" clip-rule="evenodd" d="M103.838 18.6595L104.679 18.2006C104.756 18.1241 104.832 17.9711 104.832 17.6652C104.832 17.6652 104.832 17.6652 104.832 17.5887C104.756 16.9768 104.603 16.2885 104.373 15.6766C104.373 15.6001 104.297 15.6001 104.22 15.6001L103.532 16.1355C103.532 16.1355 103.302 16.365 103.379 16.7474V16.8239C103.455 17.1298 103.532 17.3593 103.532 17.6652C103.608 17.8947 103.608 18.2006 103.608 18.4301C103.761 18.6595 103.761 18.6595 103.838 18.6595Z" fill="#ABA9B8"/>
<path fill-rule="evenodd" clip-rule="evenodd" d="M103.227 15.8295L103.915 15.2176C103.992 15.1412 104.068 14.9117 103.992 14.6823C103.762 14.0704 103.533 13.4585 103.227 12.9231C103.151 12.8466 103.151 12.8466 103.074 12.9231L102.539 13.535C102.539 13.535 102.386 13.8409 102.539 14.1469V14.2233C102.692 14.5293 102.768 14.7587 102.845 15.0647C102.921 15.2941 102.998 15.6001 103.074 15.8295C103.151 15.906 103.227 15.8295 103.227 15.8295Z" fill="#ABA9B8"/>
<path fill-rule="evenodd" clip-rule="evenodd" d="M102.156 13.153L102.768 12.4646C102.845 12.3882 102.845 12.1587 102.768 11.9293C102.462 11.3939 102.08 10.8585 101.697 10.3231C101.621 10.2466 101.621 10.3231 101.544 10.3231L101.086 11.0879C101.086 11.0879 101.009 11.3939 101.162 11.6998V11.7763C101.315 12.0057 101.468 12.2352 101.621 12.5411C101.774 12.7706 101.85 13 102.003 13.2295C102.08 13.2295 102.156 13.2295 102.156 13.153Z" fill="#ABA9B8"/>
<path fill-rule="evenodd" clip-rule="evenodd" d="M100.626 10.7816L101.085 9.94027C101.085 9.86378 101.161 9.63433 100.932 9.40487C100.549 8.86947 100.09 8.41056 99.6315 8.02813C99.555 7.95165 99.555 8.02813 99.4785 8.02813L99.1726 8.86947V8.94596C99.1726 8.94596 99.0961 9.2519 99.402 9.55784C99.402 9.55784 99.402 9.55784 99.4785 9.63433C99.708 9.86378 99.8609 10.0932 100.09 10.3227C100.243 10.5522 100.396 10.7051 100.549 10.9346C100.549 10.8581 100.626 10.7816 100.626 10.7816Z" fill="#ABA9B8"/>
<path fill-rule="evenodd" clip-rule="evenodd" d="M98.7142 8.64017L99.0202 7.79883C99.0202 7.72235 99.0202 7.49289 98.7907 7.26344C98.2553 6.88101 97.7964 6.49858 97.261 6.11615C97.1845 6.03967 97.1845 6.11615 97.1081 6.19264L96.9551 7.11046C96.9551 7.11046 96.9551 7.41641 97.261 7.64586C97.261 7.64586 97.261 7.64586 97.3375 7.72235C97.567 7.87532 97.7964 8.10478 98.0259 8.25775C98.2553 8.41072 98.4083 8.64017 98.6378 8.79314C98.7142 8.71666 98.7142 8.64017 98.7142 8.64017Z" fill="#ABA9B8"/>
<path fill-rule="evenodd" clip-rule="evenodd" d="M96.4964 6.88111L96.6494 5.96328C96.6494 5.8868 96.5729 5.65734 96.3435 5.50437C95.8081 5.19843 95.1962 4.89249 94.5843 4.66303C94.5078 4.58654 94.5078 4.66303 94.5078 4.73951V5.65734V5.73382C94.5078 5.73382 94.5843 6.03977 94.8902 6.19274C94.8902 6.19274 94.8902 6.19274 94.9667 6.19274C95.1962 6.34571 95.5021 6.49868 95.7316 6.57516C95.961 6.72813 96.1905 6.88111 96.42 6.95759L96.4964 6.88111Z" fill="#ABA9B8"/>
<path fill-rule="evenodd" clip-rule="evenodd" d="M93.9723 5.50411V4.58628C93.9723 4.5098 93.8193 4.28034 93.5899 4.20385C92.978 3.9744 92.3661 3.82143 91.7542 3.66846C91.6777 3.66846 91.6777 3.74494 91.6777 3.74494L91.8307 4.66277C91.8307 4.66277 91.9072 4.96871 92.2896 5.04519H92.3661C92.672 5.12168 92.9015 5.19817 93.2074 5.35114C93.4369 5.42762 93.6664 5.50411 93.9723 5.65708C93.9723 5.65708 93.9723 5.58059 93.9723 5.50411Z" fill="#ABA9B8"/>
<path fill-rule="evenodd" clip-rule="evenodd" d="M91.2177 4.6627L91.0647 3.74487C91.0647 3.66839 90.9117 3.51541 90.6058 3.43893C89.9939 3.28596 89.3056 3.28596 88.6937 3.20947C88.6172 3.20947 88.6172 3.28596 88.6172 3.28596L88.9231 4.1273C88.9231 4.1273 89.0761 4.43324 89.4585 4.43324H89.535C89.8409 4.43324 90.1469 4.50973 90.3764 4.58621C90.6058 4.6627 90.9118 4.6627 91.1412 4.73918C91.2177 4.73918 91.2177 4.6627 91.2177 4.6627Z" fill="#ABA9B8"/>
<path d="M94.7358 19.4245V18.5067H93.6651C92.8237 19.501 92.0589 20.5718 91.0645 21.9485V19.4245L91.5235 19.348V18.4302H89.6113V19.4245C89.6113 19.4245 89.9938 19.4245 90.0702 19.501V25.7728L89.6113 25.8493V26.8436H89.7643C90.4527 26.7671 91.5999 26.5376 91.5999 26.5376V25.6198C91.5999 25.6198 91.2175 25.6198 91.0645 25.6963V22.9428C91.9059 24.0136 92.9002 25.2374 93.7415 26.0022L93.818 26.0787C93.818 26.0787 94.2769 25.9257 94.4299 25.8493C94.6594 25.7728 94.8888 25.6963 94.8888 25.6963V24.702C94.8888 24.702 94.4299 24.855 94.2005 24.855C93.5886 24.3196 92.9002 23.4782 92.2118 22.7134L91.9824 22.4074C92.5943 21.5661 94.0475 19.5775 94.0475 19.5775L94.7358 19.4245Z" fill="#1B1B1F"/>
<path d="M86.3987 9.94042C86.3987 9.32854 86.9341 8.79314 87.546 8.79314C88.1579 8.79314 88.6933 9.32854 88.6933 9.94042C88.6933 10.5523 88.1579 11.0877 87.546 11.0877C86.9341 11.0877 86.3987 10.6288 86.3987 9.94042ZM97.1832 24.5491C96.7243 27.685 93.053 30.668 89.5346 30.668C88.6168 30.668 88.0814 29.9796 88.0814 28.6029V27.838V26.9202V16.1357H94.6592V14.9885H88.0814V12.0055C89.0757 11.7761 89.7641 10.9347 89.7641 9.94042C89.7641 8.79314 88.7698 7.79883 87.546 7.79883C86.3223 7.79883 85.3279 8.79314 85.3279 9.94042C85.3279 10.9347 86.0163 11.7761 87.0106 12.0055V14.912H80.4329V16.0593H87.0106V26.8437V27.685V28.5264C87.0106 29.9031 86.4752 30.5915 85.5574 30.5915C81.9626 30.5915 78.2913 27.6085 77.9089 24.4726H77.8324C77.144 24.0902 76.5321 23.7078 75.8438 23.3254C76.1497 25.7729 78.9797 29.8266 83.8747 31.8917C85.6339 32.6566 86.7047 32.6566 87.546 33.4214C88.3874 32.6566 89.4582 32.6566 91.1408 31.9682C96.0359 29.9031 98.8659 25.8494 99.1718 23.4019C98.5599 23.7843 97.8716 24.1667 97.1832 24.5491Z" fill="#1B1B1F"/>
<path d="M82.1924 22.5604C82.3453 21.9485 82.5748 21.3366 82.8043 20.5718C82.8807 20.2658 82.9572 19.9599 83.0337 19.5775C83.1102 19.9599 83.1867 20.2658 83.2632 20.5718C83.4161 21.2601 83.6456 22.025 83.7986 22.7898C83.2632 22.7898 82.7278 22.6369 82.1924 22.5604ZM86.0931 25.8493L85.6342 25.7728L83.6456 18.4302H81.657V19.4245L82.1159 19.501C81.5805 21.3366 80.5097 24.702 80.5097 24.702L80.0508 24.549V25.4668C80.2038 25.5433 80.5862 25.6963 80.8921 25.7728C81.1981 25.8493 81.8864 26.0787 81.8864 26.0787V25.1609L81.504 24.9314C81.504 24.9314 81.8099 23.8606 81.8864 23.4017C82.5748 23.5547 83.3397 23.7077 84.028 23.7842L84.5634 25.5433H84.1045V26.4611H84.181C84.7929 26.5376 85.4048 26.6141 85.9402 26.6906H86.0166V25.8493H86.0931Z" fill="#1B1B1F"/>
</svg>
