<svg width="176" height="64" viewBox="0 0 176 64" fill="none" xmlns="http://www.w3.org/2000/svg">
<path d="M27.3793 16.9057L17.7957 26.4893L18.6383 27.3319L27.3793 18.592L32.6966 23.906L33.5392 23.0634L27.3793 16.9057ZM37.5438 20.9414L31.9604 26.5247L32.803 27.3673L37.5438 22.6243L46.7726 31.8564L47.6163 31.0127L37.5438 20.9414ZM20.2049 27.0059V36.065H21.3968V27.0059H20.2049ZM23.7816 31.2966V45.602H38.0859V39.6417H36.8941V44.4091H24.9734V32.4884H36.8941V37.2569H38.0859V31.2966H24.9734H23.7816ZM44.0474 31.5349V38.4499H45.2392V31.5349H44.0474ZM15.4364 37.258V38.4499H22.5897V37.258H15.4364ZM13.0527 39.6417V40.8335H22.5897V39.6417H13.0527ZM39.2789 39.6417V40.8335H50.0088V39.6417H39.2789ZM39.2789 42.0265V43.2183H47.624V42.0265H39.2789Z" fill="#009EE0"/>
<path fill-rule="evenodd" clip-rule="evenodd" d="M140.693 25.814V29.8352H140.666C140.426 29.5147 140.111 29.2578 139.749 29.0868C139.386 28.9158 138.988 28.8359 138.588 28.854C136.455 28.854 135.673 30.5709 135.673 32.5072C135.673 34.4287 136.455 36.2013 138.588 36.2013C138.993 36.2222 139.398 36.1465 139.769 35.9806C140.14 35.8147 140.466 35.5632 140.721 35.2467H140.747L140.746 36.0372H142.501V25.814H140.693ZM109.276 26.3583C106.077 26.3583 104.106 28.185 104.106 31.4439C104.106 34.6597 106.225 36.2002 109.276 36.2002C110.31 36.1714 111.336 36.0067 112.327 35.7102V30.5858H108.521V32.0836H110.518V34.5649C110.111 34.6615 109.694 34.7073 109.276 34.7013C107.265 34.7013 106.076 33.2427 106.076 31.3075C106.076 29.3577 107.291 27.8584 109.491 27.8584C110.327 27.8586 111.154 28.0303 111.921 28.3629L112.043 26.7552C111.146 26.4829 110.213 26.349 109.276 26.3583ZM96.435 26.3595C95.1118 26.3595 93.5746 27.0823 93.5746 28.527C93.5746 29.618 94.1546 30.1222 94.8829 30.8175C93.3848 31.4578 92.8961 32.2897 92.8961 33.4341C92.8961 35.2205 94.3952 36.2014 96.2576 36.2014C96.7305 36.2105 97.2005 36.1261 97.6406 35.9529C98.0807 35.7798 98.4822 35.5213 98.8221 35.1924L99.4562 36.0373H101.778L100.093 34.1281C100.84 33.2037 101.262 32.059 101.294 30.8707H99.648C99.6821 31.6079 99.4733 32.3358 99.0538 32.9429L97.3264 31.0348C98.3522 30.4348 99.148 29.8221 99.148 28.5136C99.148 26.973 97.7582 26.3595 96.435 26.3595ZM59.582 26.5224L59.5843 36.0373H61.4713V31.8664H65.2508V36.0373H67.1401V26.5224H65.2508V30.3674H61.4713V26.5224L59.582 26.5224ZM96.3863 27.6921C96.4114 27.6923 96.4366 27.6934 96.4616 27.6955C96.5962 27.6836 96.7318 27.7005 96.8594 27.7448C96.9871 27.7892 97.1038 27.8602 97.202 27.953C97.3002 28.0459 97.3776 28.1585 97.429 28.2834C97.4805 28.4083 97.5048 28.5428 97.5005 28.6778C97.5016 29.2358 96.746 29.8079 96.2732 30.0537C95.9087 29.6853 95.3829 29.2358 95.3829 28.7044C95.3804 28.5716 95.4046 28.4396 95.4541 28.3162C95.5035 28.1929 95.5772 28.0807 95.6708 27.9864C95.7643 27.892 95.8758 27.8173 95.9987 27.7668C96.1216 27.7163 96.2534 27.6908 96.3863 27.6921ZM117.613 28.8518C117.147 28.8962 116.709 29.0924 116.365 29.4103C116.021 29.7282 115.791 30.1501 115.711 30.6113H115.684V29.017H114.078V36.0373H115.886V33.4607C115.886 32.4525 115.885 30.5991 117.356 30.5991C117.634 30.5864 117.911 30.6376 118.167 30.7488V28.9084C117.986 28.8632 117.799 28.8441 117.613 28.8518ZM131.478 28.853C131.077 28.8699 130.685 28.9799 130.334 29.1743C129.983 29.3686 129.682 29.642 129.454 29.9727H129.428V29.017H127.714V36.0373H129.522V32.6026C129.522 31.7034 129.806 30.2721 131.115 30.2721C132.275 30.2721 132.289 31.4305 132.289 32.2899V36.0362H134.097V31.6081C134.097 30.0271 133.381 28.8552 131.736 28.8552C131.65 28.8501 131.564 28.8494 131.478 28.853ZM71.781 28.8541C70.9481 28.866 70.1263 29.0467 69.3651 29.3852L69.4195 30.9528C70.0337 30.474 70.7862 30.2065 71.5648 30.1901C72.6309 30.1901 73.1303 30.5715 73.1303 31.7034H72.1313C71.3329 31.6666 70.5361 31.8059 69.7975 32.1114C69.4207 32.2871 69.1056 32.5724 68.8935 32.93C68.6815 33.2877 68.5823 33.701 68.609 34.1159C68.609 35.4516 69.8098 36.2014 71.0382 36.2014C71.4707 36.2041 71.8964 36.0936 72.2729 35.8808C72.6495 35.668 72.9638 35.3604 73.1846 34.9885H73.2112C73.2169 35.3394 73.244 35.6897 73.2922 36.0373H74.8854C74.8445 35.4924 74.818 35.0015 74.8044 34.4696C74.7908 33.9519 74.7778 33.4208 74.7778 32.7101V31.8121C74.7778 29.7402 73.9006 28.8541 71.781 28.8541ZM87.4025 28.8541C85.9834 28.8541 84.6773 29.5221 84.6773 31.0349C84.6773 33.5706 87.8227 32.6302 87.8227 34.0062C87.8227 34.6874 87.0928 34.8654 86.6342 34.8654C86.0124 34.8536 85.4023 34.6948 84.8536 34.402L84.7461 35.9021C85.414 36.09 86.1034 36.1906 86.7972 36.2014C88.2685 36.2014 89.713 35.5468 89.713 33.9108C89.713 31.3763 86.5677 32.085 86.5677 30.9673C86.5677 30.3673 87.1472 30.1901 87.6331 30.1901C88.1871 30.1867 88.7367 30.2883 89.2529 30.4894L89.3727 29.1135C88.7288 28.948 88.0673 28.8608 87.4025 28.8541ZM81.1572 29.0182V32.4529C81.1572 33.3526 80.8736 34.7834 79.5651 34.7834C78.4043 34.7834 78.3899 33.6255 78.3899 32.7667V29.0204H76.5816V33.4507C76.5816 35.0316 77.297 36.2036 78.9432 36.2036C79.3833 36.2035 79.8176 36.1027 80.2129 35.909C80.6082 35.7153 80.9539 35.4338 81.2237 35.0861H81.2514V36.0395H82.9655V29.0182H81.1572ZM124.019 29.0182V32.4529C124.019 33.3526 123.736 34.7834 122.427 34.7834C121.266 34.7834 121.253 33.6255 121.253 32.7667V29.0204H119.445V33.4507C119.445 35.0316 120.159 36.2036 121.805 36.2036C122.246 36.2035 122.68 36.1028 123.076 35.9091C123.471 35.7154 123.817 35.4339 124.087 35.0861H124.114V36.0395H125.828L125.829 29.0182H124.019ZM139.06 30.2721C140.221 30.2721 140.68 31.5258 140.68 32.5072C140.68 33.5018 140.289 34.7834 139.088 34.7834C137.9 34.7834 137.562 33.4756 137.562 32.5072C137.562 31.5666 137.886 30.2721 139.06 30.2721ZM95.8552 31.8531L97.9473 34.2113C97.4949 34.6108 96.9035 34.8162 96.3009 34.7834C96.1034 34.7997 95.9046 34.7759 95.7165 34.7135C95.5284 34.6512 95.3548 34.5515 95.2061 34.4204C95.0575 34.2893 94.9368 34.1296 94.8513 33.9508C94.7659 33.772 94.7174 33.5778 94.7088 33.3798C94.7327 33.042 94.8536 32.7183 95.057 32.4475C95.2603 32.1767 95.5375 31.9703 95.8552 31.8531ZM72.3475 32.7933H73.1336C73.1683 33.3031 73.0356 33.8104 72.7555 34.2379C72.6099 34.4363 72.4186 34.5967 72.1978 34.7056C71.977 34.8144 71.7333 34.8685 71.4872 34.8632C70.8367 34.866 70.3364 34.6068 70.3364 34.0062C70.3364 32.9276 71.5375 32.7933 72.3475 32.7933Z" fill="black"/>
<path fill-rule="evenodd" clip-rule="evenodd" d="M145.607 29.0074C145.911 29.0073 146.208 28.9171 146.46 28.7483C146.713 28.5794 146.91 28.3395 147.026 28.0588C147.142 27.7781 147.172 27.4693 147.113 27.1713C147.054 26.8734 146.907 26.5998 146.692 26.385C146.477 26.1702 146.204 26.024 145.906 25.9648C145.608 25.9056 145.299 25.936 145.018 26.0523C144.738 26.1686 144.498 26.3654 144.329 26.618C144.16 26.8706 144.07 27.1676 144.07 27.4714C144.071 27.8787 144.233 28.2691 144.521 28.5571C144.809 28.845 145.2 29.007 145.607 29.0074ZM145.607 28.7094C145.359 28.7252 145.111 28.666 144.897 28.5395C144.683 28.413 144.512 28.225 144.405 27.9999C144.299 27.7748 144.264 27.523 144.302 27.2772C144.341 27.0314 144.453 26.803 144.623 26.6216C144.794 26.4402 145.015 26.3142 145.258 26.26C145.5 26.2058 145.754 26.2258 145.985 26.3175C146.217 26.4091 146.415 26.5682 146.555 26.7741C146.694 26.98 146.769 27.2231 146.769 27.4719C146.777 27.6301 146.753 27.7883 146.698 27.937C146.643 28.0856 146.559 28.2217 146.451 28.3372C146.342 28.4526 146.212 28.5451 146.067 28.6089C145.922 28.6728 145.765 28.7068 145.607 28.7088V28.7094ZM145.015 28.3353H145.339V27.586H145.534L145.988 28.3353H146.32L145.851 27.5735C145.913 27.5767 145.975 27.5667 146.032 27.5441C146.09 27.5215 146.142 27.4869 146.185 27.4426C146.229 27.3983 146.262 27.3454 146.283 27.2872C146.305 27.229 146.313 27.167 146.309 27.1052C146.309 26.7391 146.082 26.5943 145.665 26.5943H145.018L145.015 28.3353ZM145.339 26.8413H145.629C145.794 26.8413 145.982 26.8759 145.982 27.0803C145.982 27.3136 145.815 27.3397 145.624 27.3397H145.34L145.339 26.8413Z" fill="black"/>
<path d="M158.151 40.3922C157.205 40.3922 156.987 40.9433 156.987 41.788V42.1106H156.17V42.6273H156.987V45.5797H157.627V42.6251H158.546V42.1073H157.627V41.7326C157.627 41.2631 157.694 40.9088 158.245 40.9088C158.349 40.9067 158.453 40.9205 158.552 40.9498L158.58 40.4332C158.438 40.4076 158.295 40.3939 158.151 40.3922ZM100.203 40.4764L100.199 45.5853H100.84V43.9788C100.84 43.1341 101.167 42.5486 101.896 42.5486C102.457 42.5826 102.633 42.978 102.633 43.7881V45.5831H103.274V43.5209C103.274 42.5882 102.872 42.0297 101.973 42.0297C101.753 42.0213 101.534 42.0702 101.339 42.1717C101.143 42.2731 100.977 42.4236 100.857 42.6084H100.842V40.4764H100.203ZM148.625 40.4764L148.623 45.5853H149.262V43.9788C149.262 43.1341 149.589 42.5486 150.318 42.5486C150.878 42.5826 151.056 42.978 151.056 43.7881V45.5831H151.696V43.5209C151.696 42.5882 151.294 42.0297 150.396 42.0297C150.175 42.0213 149.957 42.0702 149.761 42.1717C149.565 42.2731 149.399 42.4236 149.279 42.6084H149.265V40.4764H148.625ZM63.1702 40.6128V41.3345H63.8931V40.6128H63.1702ZM136.942 40.6128V41.3345H137.663V40.6128H136.942ZM120.543 40.7447C120.226 40.7452 119.912 40.8094 119.621 40.9333C119.329 41.0572 119.065 41.2384 118.845 41.4662C118.624 41.6939 118.452 41.9636 118.337 42.2592C118.223 42.5548 118.169 42.8704 118.179 43.1872C118.159 43.5203 118.21 43.8539 118.329 44.1656C118.448 44.4774 118.632 44.7601 118.87 44.9947C119.107 45.2294 119.392 45.4106 119.705 45.5262C120.018 45.6418 120.352 45.6892 120.685 45.6651C121.177 45.6778 121.667 45.6066 122.135 45.4545V42.9821H120.453V43.5408H121.454V44.9844C121.205 45.0468 120.948 45.074 120.691 45.0653C120.211 45.0424 119.759 44.8343 119.428 44.4847C119.098 44.1352 118.916 43.6714 118.921 43.1906C118.925 42.7098 119.116 42.2494 119.452 41.906C119.789 41.5627 120.245 41.363 120.726 41.349C121.184 41.318 121.641 41.432 122.031 41.6749L122.087 40.9875C121.643 40.8159 121.168 40.7349 120.692 40.7492C120.642 40.7461 120.592 40.7447 120.543 40.7447ZM95.074 40.7525C94.2163 40.7525 93.5495 41.2006 93.5495 42.0452C93.5495 43.5223 95.5929 43.2305 95.5929 44.2926C95.5834 44.405 95.5517 44.5145 95.4996 44.6147C95.4474 44.7148 95.3759 44.8035 95.2891 44.8758C95.2023 44.948 95.1021 45.0022 94.9942 45.0353C94.8862 45.0684 94.7728 45.0798 94.6605 45.0686C94.3205 45.0502 93.9864 44.9718 93.6737 44.8369L93.605 45.47C93.9174 45.5867 94.2463 45.6537 94.5795 45.6684C95.532 45.6684 96.3157 45.2637 96.3157 44.2493C96.3157 42.6837 94.2713 42.8943 94.2713 41.982C94.2713 41.4853 94.7214 41.349 95.1028 41.349C95.4109 41.3484 95.7152 41.4157 95.9942 41.5463L96.0885 40.9221C95.7618 40.8107 95.4191 40.7534 95.074 40.7525ZM59.4395 40.8301V45.5842H62.1014V44.9844H60.1202V43.4178H61.9251V42.8191H60.1202V41.4299H62.1014V40.8301H59.4395ZM78.0544 41.1039L77.4136 41.3079V42.1106H76.6309V42.6284H77.4136V44.6584C77.4136 45.3532 77.8228 45.6662 78.4835 45.6662C78.6685 45.6598 78.8517 45.6277 79.0279 45.5709V45.0265C78.8976 45.1089 78.7463 45.1517 78.5921 45.1496C78.5146 45.1483 78.4383 45.1307 78.3681 45.0979C78.2978 45.0651 78.2353 45.0179 78.1845 44.9593C78.1338 44.9007 78.096 44.8321 78.0736 44.7579C78.0511 44.6837 78.0446 44.6056 78.0544 44.5287V42.6284H78.9735V42.1106H78.0544V41.1039ZM109.448 41.1039L108.809 41.3079V42.1106H108.026V42.6284H108.809V44.6584C108.809 45.3532 109.217 45.6662 109.877 45.6662C110.062 45.6598 110.245 45.6277 110.422 45.5709V45.0265C110.292 45.1087 110.141 45.1515 109.987 45.1496C109.909 45.1485 109.833 45.131 109.763 45.0983C109.692 45.0655 109.63 45.0183 109.579 44.9597C109.528 44.9011 109.49 44.8324 109.467 44.7581C109.445 44.6839 109.438 44.6057 109.448 44.5287V42.6284H110.368V42.1106H109.448V41.1039ZM160.148 41.1039L159.507 41.3079V42.1106H158.724V42.6284H159.502V44.6584C159.502 45.3532 159.911 45.6662 160.571 45.6662C160.757 45.6598 160.94 45.6278 161.117 45.5709V45.0265C160.986 45.1089 160.835 45.1517 160.681 45.1496C160.604 45.1483 160.527 45.1307 160.457 45.0979C160.387 45.0651 160.324 45.0179 160.273 44.9593C160.223 44.9007 160.185 44.8321 160.162 44.7579C160.14 44.6837 160.133 44.6056 160.143 44.5287V42.6284H161.065L161.066 42.1106H160.148L160.148 41.1039ZM66.4586 42.0197C66.4208 42.0205 66.3831 42.023 66.3455 42.0275C65.2965 42.0275 64.7922 42.9732 64.7922 43.8724C64.7922 44.7715 65.2822 45.582 66.2768 45.582C66.4991 45.5878 66.7197 45.5423 66.9216 45.4491C67.1235 45.3558 67.3012 45.2173 67.4409 45.0443H67.4553V45.3846C67.4761 45.5364 67.4634 45.6908 67.4182 45.8372C67.3729 45.9835 67.2962 46.1182 67.1934 46.2317C67.0907 46.3453 66.9643 46.435 66.8232 46.4946C66.6821 46.5541 66.5296 46.5821 66.3766 46.5765C65.9395 46.5773 65.5091 46.4699 65.1237 46.2638L65.055 46.8559C65.4525 47.0102 65.8748 47.091 66.3012 47.0942C67.5472 47.0942 68.0917 46.4887 68.0917 45.4334V42.1096H67.503V42.6262H67.4886C67.3898 42.4397 67.2412 42.2843 67.0594 42.1772C66.8776 42.0702 66.6696 42.0156 66.4586 42.0197ZM85.5038 42.0243C85.3075 42.0341 85.1168 42.093 84.9492 42.1957C84.7817 42.2984 84.6426 42.4415 84.5447 42.6119H84.5303V42.1108H83.9305V45.5843H84.5702V43.8348C84.5702 43.1882 84.8293 42.5487 85.4827 42.5487C86.0004 42.5487 86.1024 43.0847 86.1024 43.5133V45.5843H86.7444V43.8348C86.7444 43.1882 87.0035 42.5487 87.6568 42.5487C88.1745 42.5487 88.2766 43.0847 88.2766 43.5133V45.5799H88.9185V43.3536C88.9185 42.5981 88.5983 42.0265 87.7134 42.0265C87.4895 42.0306 87.271 42.0954 87.081 42.2139C86.891 42.3324 86.7368 42.5002 86.6346 42.6995C86.5609 42.4984 86.4262 42.3253 86.2492 42.2047C86.0723 42.084 85.862 42.0217 85.6479 42.0265C85.5999 42.0228 85.5518 42.0221 85.5038 42.0243ZM128.628 42.0243C128.431 42.0341 128.241 42.093 128.073 42.1957C127.905 42.2984 127.766 42.4415 127.669 42.6119H127.655V42.1108H127.055V45.5843H127.695V43.8348C127.695 43.1882 127.954 42.5487 128.608 42.5487C129.125 42.5487 129.227 43.0847 129.227 43.5133V45.5843H129.867V43.8348C129.867 43.1882 130.126 42.5487 130.78 42.5487C131.297 42.5487 131.399 43.0847 131.399 43.5133V45.5799H132.039V43.3536C132.039 42.5981 131.719 42.0265 130.834 42.0265C130.611 42.0312 130.393 42.0963 130.203 42.2148C130.014 42.3332 129.86 42.5007 129.758 42.6995C129.685 42.4984 129.55 42.3253 129.373 42.2047C129.196 42.084 128.986 42.0217 128.772 42.0265C128.724 42.0228 128.676 42.0221 128.628 42.0243ZM143.864 42.0277C143.177 42.0277 142.638 42.3761 142.638 43.0976C142.638 44.0717 144.144 44.0162 144.144 44.6497C144.144 45.0244 143.782 45.1475 143.49 45.1475C143.209 45.1321 142.936 45.0475 142.696 44.9014L142.656 45.4735C142.953 45.6147 143.281 45.6802 143.609 45.6642C143.762 45.681 143.916 45.6655 144.062 45.6188C144.208 45.572 144.343 45.4951 144.457 45.3929C144.571 45.2907 144.663 45.1656 144.725 45.0257C144.788 44.8858 144.821 44.7343 144.821 44.581C144.821 43.4712 143.317 43.6763 143.317 42.9679C143.317 42.6823 143.602 42.5465 143.929 42.5465C144.162 42.5625 144.391 42.6223 144.603 42.7228L144.659 42.1641C144.403 42.0787 144.135 42.0327 143.864 42.0277ZM74.7361 42.0288C74.507 42.0199 74.2799 42.0743 74.0796 42.186C73.8793 42.2977 73.7137 42.4623 73.6008 42.6619H73.5886V42.1109H72.9688L72.9632 45.5833H73.604V43.9768C73.604 43.1321 73.9301 42.5466 74.6584 42.5466C75.2198 42.5806 75.3968 42.9761 75.3968 43.7861V45.5822H76.0365V43.52C76.0365 42.5874 75.6347 42.0288 74.7361 42.0288ZM140.563 42.0288C140.334 42.0199 140.106 42.0743 139.906 42.186C139.706 42.2977 139.54 42.4623 139.427 42.6619H139.414V42.1109H138.794V45.5833H139.43V43.9768C139.43 43.1321 139.756 42.5466 140.485 42.5466C141.046 42.5806 141.222 42.9761 141.222 43.7861V45.5822H141.862V43.52C141.862 42.5874 141.461 42.0288 140.563 42.0288ZM154.093 42.0288C153.689 42.0309 153.293 42.144 152.949 42.3559L152.983 42.9003C153.27 42.6728 153.625 42.5482 153.991 42.5466C154.631 42.5466 154.849 42.8524 154.849 43.4513C154.597 43.4376 154.42 43.438 154.167 43.438C153.507 43.438 152.554 43.7108 152.554 44.5822C152.554 45.3383 153.078 45.6642 153.827 45.6642C154.036 45.6699 154.243 45.6245 154.431 45.5319C154.619 45.4394 154.781 45.3025 154.904 45.1332H154.917V45.5833H155.516C155.493 45.3568 155.484 45.1291 155.489 44.9015V43.4657C155.489 42.5189 155.088 42.0288 154.093 42.0288ZM70.5796 42.0311C70.354 42.0282 70.1302 42.0727 69.9229 42.1616C69.7155 42.2506 69.5291 42.3821 69.3757 42.5476C69.2223 42.7131 69.1054 42.909 69.0324 43.1225C68.9594 43.336 68.932 43.5625 68.952 43.7873C68.952 44.918 69.5169 45.6676 70.7492 45.6676C71.1264 45.6705 71.4998 45.593 71.8446 45.4403L71.8458 44.8017C71.5288 45.0149 71.1587 45.1355 70.777 45.1498C70.6254 45.1509 70.4751 45.1216 70.3349 45.0636C70.1948 45.0056 70.0678 44.9202 69.9612 44.8123C69.8547 44.7044 69.7708 44.5763 69.7146 44.4355C69.6584 44.2946 69.631 44.144 69.6339 43.9924H72.1119C72.1119 42.8758 71.7371 42.0311 70.5796 42.0311ZM124.673 42.0311C124.447 42.0283 124.224 42.0728 124.016 42.1618C123.809 42.2508 123.623 42.3823 123.469 42.5478C123.316 42.7134 123.199 42.9092 123.126 43.1227C123.054 43.3362 123.026 43.5626 123.046 43.7873C123.046 44.918 123.611 45.6676 124.844 45.6676C125.221 45.6705 125.594 45.593 125.939 45.4403L125.94 44.8017C125.623 45.0149 125.253 45.1355 124.871 45.1498C124.72 45.1509 124.569 45.1216 124.429 45.0636C124.289 45.0056 124.162 44.9202 124.056 44.8123C123.949 44.7044 123.865 44.5763 123.809 44.4355C123.753 44.2946 123.725 44.144 123.728 43.9924H126.205C126.205 42.8758 125.83 42.0311 124.673 42.0311ZM134.512 42.0311C134.287 42.0282 134.063 42.0727 133.856 42.1616C133.648 42.2506 133.462 42.3821 133.309 42.5476C133.155 42.7131 133.038 42.909 132.965 43.1225C132.892 43.336 132.865 43.5625 132.885 43.7873C132.885 44.918 133.45 45.6676 134.682 45.6676C135.059 45.6704 135.433 45.593 135.778 45.4403L135.78 44.8017C135.462 45.0151 135.092 45.1356 134.71 45.1498C134.558 45.1509 134.408 45.1216 134.268 45.0636C134.128 45.0056 134.001 44.9202 133.894 44.8123C133.788 44.7044 133.704 44.5763 133.647 44.4355C133.591 44.2946 133.564 44.144 133.567 43.9924H136.045C136.045 42.8758 135.669 42.0311 134.512 42.0311ZM98.552 42.0322C98.3227 42.0393 98.0971 42.0923 97.8886 42.1881C97.6801 42.2839 97.493 42.4206 97.3384 42.59C97.1837 42.7595 97.0646 42.9583 96.9882 43.1746C96.9117 43.3909 96.8795 43.6204 96.8934 43.8494C96.8853 44.0862 96.9252 44.3222 97.0108 44.5432C97.0963 44.7642 97.2257 44.9656 97.3911 45.1352C97.5565 45.3049 97.7546 45.4393 97.9733 45.5305C98.1921 45.6216 98.427 45.6675 98.664 45.6654C98.9386 45.6748 99.2121 45.626 99.4666 45.5224L99.419 44.9503C99.212 45.0773 98.9744 45.1456 98.7316 45.1477C98.5676 45.1461 98.4058 45.1103 98.2565 45.0425C98.1072 44.9747 97.9737 44.8764 97.8647 44.7539C97.7557 44.6314 97.6735 44.4874 97.6234 44.3313C97.5734 44.1751 97.5566 44.0102 97.5741 43.8472C97.5588 43.6878 97.5758 43.5271 97.6242 43.3745C97.6725 43.2219 97.7512 43.0806 97.8554 42.9592C97.9597 42.8377 98.0874 42.7386 98.2309 42.6677C98.3744 42.5968 98.5307 42.5556 98.6906 42.5467C98.9298 42.5512 99.1658 42.602 99.3857 42.6963L99.44 42.1686C99.1907 42.0806 98.9284 42.0345 98.6639 42.0322C98.6266 42.031 98.5893 42.031 98.552 42.0322ZM146.976 42.0322C146.747 42.0393 146.522 42.0923 146.313 42.1881C146.105 42.2839 145.917 42.4206 145.763 42.59C145.608 42.7595 145.489 42.9583 145.413 43.1746C145.336 43.3909 145.304 43.6204 145.318 43.8494C145.31 44.0861 145.35 44.322 145.435 44.5429C145.521 44.7638 145.65 44.9652 145.815 45.1348C145.98 45.3045 146.178 45.4389 146.397 45.5301C146.616 45.6213 146.85 45.6673 147.087 45.6654C147.362 45.6749 147.636 45.6262 147.891 45.5224L147.843 44.9503C147.636 45.0775 147.398 45.1457 147.155 45.1477C146.991 45.1461 146.829 45.1103 146.68 45.0425C146.53 44.9747 146.397 44.8764 146.288 44.7539C146.179 44.6314 146.097 44.4874 146.047 44.3313C145.997 44.1751 145.98 44.0102 145.997 43.8472C145.982 43.6877 145.999 43.5269 146.048 43.3742C146.096 43.2216 146.175 43.0803 146.279 42.9588C146.384 42.8373 146.511 42.7382 146.655 42.6674C146.799 42.5966 146.955 42.5555 147.115 42.5467C147.354 42.5513 147.59 42.6021 147.809 42.6963L147.863 42.1686C147.614 42.0806 147.352 42.0345 147.087 42.0322C147.05 42.031 147.013 42.031 146.976 42.0322ZM63.2112 42.1109V45.5833H63.8509V42.1109H63.2112ZM79.7796 42.1109V44.1741C79.7796 45.1068 80.1815 45.6653 81.0801 45.6653C81.3092 45.6742 81.5363 45.6198 81.7366 45.5082C81.9368 45.3965 82.1025 45.2319 82.2154 45.0323H82.2286V45.5833H82.8484V42.1109H82.212V43.7174C82.212 44.5615 81.8859 45.1476 81.1576 45.1476C80.5962 45.1135 80.4193 44.7181 80.4193 43.9081V42.1109H79.7796ZM104.364 42.1109V44.1741C104.364 45.1068 104.766 45.6653 105.664 45.6653C105.893 45.6742 106.12 45.6198 106.321 45.5082C106.521 45.3965 106.687 45.2319 106.8 45.0323H106.814V45.5833H107.434L107.437 42.1109H106.797V43.7174C106.797 44.5615 106.47 45.1476 105.742 45.1476C105.181 45.1135 105.004 44.7181 105.004 43.9081V42.1109H104.364ZM111.015 42.1109V42.6286H112.921L110.919 45.0256L110.918 45.5833H113.738V45.0655H111.661L113.662 42.6696V42.1109H111.015ZM136.983 42.1109V45.5833H137.622V42.1109H136.983ZM66.4386 42.5466C67.1193 42.5466 67.452 43.1655 67.452 43.887H67.4531C67.4662 44.0315 67.4502 44.1771 67.4059 44.3152C67.3617 44.4533 67.2901 44.5812 67.1955 44.6911C67.1008 44.801 66.9851 44.8908 66.8551 44.9552C66.7251 45.0195 66.5835 45.057 66.4387 45.0655C65.8415 45.0655 65.473 44.4933 65.473 43.8393C65.473 43.2473 65.7921 42.5466 66.4386 42.5466ZM70.5652 42.5489C70.6871 42.5499 70.8075 42.5763 70.9186 42.6265C71.0297 42.6766 71.1292 42.7494 71.2106 42.8402C71.2919 42.931 71.3535 43.0377 71.3913 43.1537C71.4291 43.2696 71.4422 43.3921 71.43 43.5134H69.6328C69.6318 43.2628 69.7287 43.0217 69.9028 42.8415C70.077 42.6613 70.3147 42.5563 70.5652 42.5489ZM124.66 42.5489C124.781 42.5499 124.902 42.5763 125.013 42.6265C125.124 42.6766 125.223 42.7494 125.305 42.8402C125.386 42.931 125.448 43.0377 125.486 43.1537C125.523 43.2696 125.537 43.3921 125.524 43.5134H123.727C123.726 43.2628 123.823 43.0217 123.997 42.8415C124.171 42.6613 124.409 42.5563 124.66 42.5489ZM134.498 42.5489C134.62 42.5498 134.74 42.5761 134.852 42.6263C134.963 42.6764 135.062 42.7492 135.144 42.84C135.225 42.9308 135.287 43.0376 135.324 43.1536C135.362 43.2695 135.375 43.3921 135.363 43.5134H133.565C133.564 43.2626 133.661 43.0214 133.835 42.8411C134.009 42.6609 134.247 42.556 134.498 42.5489ZM154.44 43.9148C154.576 43.9148 154.713 43.9292 154.849 43.9292L154.847 44.2374C154.853 44.3633 154.831 44.4889 154.784 44.6057C154.737 44.7225 154.665 44.8278 154.574 44.9144C154.482 45.001 154.373 45.0669 154.254 45.1075C154.134 45.1481 154.008 45.1626 153.882 45.1499C153.721 45.1596 153.563 45.1055 153.442 44.9992C153.321 44.8929 153.246 44.743 153.235 44.5822C153.235 43.972 154.093 43.9148 154.44 43.9148ZM90.0106 44.8206V45.5834H90.7723V44.8206H90.0106ZM114.596 44.8206V45.5834H115.359V44.8206H114.596ZM161.888 44.8206V45.5834H162.651V44.8206H161.888Z" fill="#009EE0"/>
</svg>
