<svg width="176" height="64" viewBox="0 0 176 64" fill="none" xmlns="http://www.w3.org/2000/svg">
<path d="M63.7692 22H33.3846C33.1722 22 33 22.1722 33 22.3846V25.8462C33 26.0586 33.1722 26.2308 33.3846 26.2308H46.0769C46.2893 26.2308 46.4615 26.403 46.4615 26.6154V41.6154C46.4615 41.8278 46.6338 42 46.8462 42H50.6923C50.9047 42 51.0769 41.8278 51.0769 41.6154V26.6154C51.0769 26.403 51.2491 26.2308 51.4615 26.2308H63.7692C63.9816 26.2308 64.1538 26.0586 64.1538 25.8462V22.3846C64.1538 22.1722 63.9816 22 63.7692 22Z" fill="#121B4D"/>
<path d="M69.1538 41.6154V22.3846C69.1538 22.1722 69.3261 22 69.5385 22H73.7692C73.9816 22 74.1538 22.1722 74.1538 22.3846V41.6154C74.1538 41.8278 73.9816 42 73.7692 42H69.5385C69.3261 42 69.1538 41.8278 69.1538 41.6154Z" fill="#121B4D"/>
<path d="M79.1538 41.6154C79.1538 41.8278 79.3261 42 79.5385 42H106.462C106.674 42 106.846 41.8278 106.846 41.6154V38.1538C106.846 37.9414 106.674 37.7692 106.462 37.7692H84.1538C83.9414 37.7692 83.7692 37.597 83.7692 37.3846V34.3077C83.7692 34.0953 83.9414 33.9231 84.1538 33.9231H103.769C103.982 33.9231 104.154 33.7509 104.154 33.5385V30.4615C104.154 30.2491 103.982 30.0769 103.769 30.0769H84.1173C83.9198 30.0769 83.7541 29.9278 83.7364 29.731C83.6145 28.3844 83.4872 26.2308 83.7692 26.2308H106.462C106.674 26.2308 106.846 26.0586 106.846 25.8462V22.3846C106.846 22.1722 106.674 22 106.462 22H79.5385C79.3261 22 79.1538 22.1722 79.1538 22.3846V41.6154Z" fill="#121B4D"/>
<path fill-rule="evenodd" clip-rule="evenodd" d="M116.462 42C116.674 42 116.846 41.8278 116.846 41.6154V35.8462C116.846 35.6338 117.018 35.4615 117.231 35.4615H127.116C127.191 35.4615 127.264 35.4833 127.327 35.5243L137.135 41.9373C137.197 41.9782 137.271 42 137.345 42H141.846C142.059 42 142.231 41.8278 142.231 41.6154V41.052C142.231 40.9234 142.167 40.8033 142.059 40.732L134.155 35.4621L134.154 35.4606L134.156 35.4587C137.783 35.3561 140.692 32.3832 140.692 28.7308C140.692 25.0782 137.783 22.1053 134.155 22.0027L134.154 22.0024L134.154 22.0014L134.152 22H112.231C112.018 22 111.846 22.1722 111.846 22.3846V41.6154C111.846 41.8278 112.018 42 112.231 42H116.462ZM116.462 25.8462H133.385C134.872 25.8462 136.077 27.0516 136.077 28.5385C136.077 30.0254 134.872 31.2308 133.385 31.2308H116.462C116.249 31.2308 116.077 31.0586 116.077 30.8462V26.2308C116.077 26.0184 116.249 25.8462 116.462 25.8462Z" fill="#121B4D"/>
</svg>
