<svg width="176" height="64" viewBox="0 0 176 64" fill="none" xmlns="http://www.w3.org/2000/svg">
<path d="M102.921 20.6482C102.921 12.1583 96.0373 5.27466 87.5474 5.27466C79.0575 5.27466 72.1738 12.1583 72.1738 20.6482C72.1738 29.1381 79.0575 36.0218 87.5474 36.0218C96.0373 36.0218 102.921 29.1381 102.921 20.6482Z" fill="#EEECDF"/>
<path d="M87.5464 5.42766C79.133 5.42766 72.3258 12.2349 72.3258 20.6483C72.3258 29.0617 79.133 35.8689 87.5464 35.8689C95.9598 35.8689 102.767 29.0617 102.767 20.6483C102.767 12.2349 95.9598 5.42766 87.5464 5.42766ZM87.5464 36.1748C78.98 36.1748 71.9434 29.2146 71.9434 20.5718C71.9434 12.0054 78.9035 4.96875 87.5464 4.96875C96.1892 4.96875 103.149 12.0054 103.149 20.6483C103.149 29.2146 96.1128 36.1748 87.5464 36.1748Z" fill="#1D1D1B"/>
<path d="M94.7358 19.4245V18.5067H93.6651C92.8237 19.501 92.0589 20.5718 91.0645 21.9485V19.4245L91.5235 19.348V18.4302H89.6113V19.4245C89.6113 19.4245 89.9938 19.4245 90.0702 19.501V25.7728L89.6113 25.8493V26.8436H89.7643C90.4527 26.7671 91.5999 26.5376 91.5999 26.5376V25.6198C91.5999 25.6198 91.2175 25.6198 91.0645 25.6963V22.9428C91.9059 24.0136 92.9002 25.2374 93.7415 26.0022L93.818 26.0787C93.818 26.0787 94.2769 25.9257 94.4299 25.8493C94.6594 25.7728 94.8888 25.6963 94.8888 25.6963V24.702C94.8888 24.702 94.4299 24.855 94.2005 24.855C93.5886 24.3196 92.9002 23.4782 92.2118 22.7134L91.9824 22.4074C92.5943 21.5661 94.0475 19.5775 94.0475 19.5775L94.7358 19.4245Z" fill="#1D1D1B"/>
<path d="M86.3987 9.94042C86.3987 9.32854 86.9341 8.79314 87.546 8.79314C88.1579 8.79314 88.6933 9.32854 88.6933 9.94042C88.6933 10.5523 88.1579 11.0877 87.546 11.0877C86.9341 11.0877 86.3987 10.6288 86.3987 9.94042ZM97.1832 24.5491C96.7243 27.685 93.053 30.668 89.5346 30.668C88.6168 30.668 88.0814 29.9796 88.0814 28.6029V27.838V26.9202V16.1357H94.6592V14.9885H88.0814V12.0055C89.0757 11.7761 89.7641 10.9347 89.7641 9.94042C89.7641 8.79314 88.7698 7.79883 87.546 7.79883C86.3223 7.79883 85.3279 8.79314 85.3279 9.94042C85.3279 10.9347 86.0163 11.7761 87.0106 12.0055V14.912H80.4329V16.0593H87.0106V26.8437V27.685V28.5264C87.0106 29.9031 86.4752 30.5915 85.5574 30.5915C81.9626 30.5915 78.2913 27.6085 77.9089 24.4726H77.8324C77.144 24.0902 76.5321 23.7078 75.8438 23.3254C76.1497 25.7729 78.9797 29.8266 83.8747 31.8917C85.6339 32.6566 86.7047 32.6566 87.546 33.4214C88.3874 32.6566 89.4582 32.6566 91.1408 31.9682C96.0359 29.9031 98.8659 25.8494 99.1718 23.4019C98.5599 23.7843 97.8716 24.1667 97.1832 24.5491Z" fill="#1D1D1B"/>
<path d="M82.1924 22.5604C82.3453 21.9485 82.5748 21.3366 82.8043 20.5718C82.8807 20.2658 82.9572 19.9599 83.0337 19.5775C83.1102 19.9599 83.1867 20.2658 83.2632 20.5718C83.4161 21.2601 83.6456 22.025 83.7986 22.7898C83.2632 22.7898 82.7278 22.6369 82.1924 22.5604ZM86.0931 25.8493L85.6342 25.7728L83.6456 18.4302H81.657V19.4245L82.1159 19.501C81.5805 21.3366 80.5097 24.702 80.5097 24.702L80.0508 24.549V25.4668C80.2038 25.5433 80.5862 25.6963 80.8921 25.7728C81.1981 25.8493 81.8864 26.0787 81.8864 26.0787V25.1609L81.504 24.9314C81.504 24.9314 81.8099 23.8606 81.8864 23.4017C82.5748 23.5547 83.3397 23.7077 84.028 23.7842L84.5634 25.5433H84.1045V26.4611H84.181C84.7929 26.5376 85.4048 26.6141 85.9402 26.6906H86.0166V25.8493H86.0931Z" fill="#1D1D1B"/>
<path d="M37.1421 49.1774C36.9891 48.642 36.8362 48.1066 36.7597 47.4947H36.6067C36.4537 48.1066 36.3772 48.642 36.2243 49.1774L35.23 52.2368H38.1364L37.1421 49.1774ZM32.0176 56.7494V55.7551L32.7824 55.6786L35.4594 47.4947L34.6181 47.4182V46.4239H37.5245L40.5839 55.6786L41.2723 55.7551V56.7494H38.4424V55.7551L39.1307 55.6786L38.4424 53.3841H34.7711L34.0062 55.6786L34.6946 55.7551V56.7494H32.0176Z" fill="#1D1D1B"/>
<path d="M52.3636 47.4947V56.7494H50.528L46.8567 49.3303C46.6272 48.7949 46.3213 48.1831 46.0153 47.5712C46.0918 48.2595 46.0918 49.0244 46.0918 49.7128V55.6786L46.8567 55.7551V56.7494H44.1797V55.7551L44.9445 55.6786V47.4947L44.1797 47.4182V46.4239H46.7802L50.375 53.69C50.6045 54.1489 50.9104 54.8373 51.2163 55.3727C51.1399 54.5313 51.1399 53.7665 51.1399 53.0781V47.4182L50.375 47.3417V46.4239H53.1285V47.4182L52.3636 47.4947Z" fill="#1D1D1B"/>
<path d="M56.6465 47.4182V46.4239H59.4V47.4182L58.6351 47.4947V51.2425L63.0713 46.4239H64.601V47.4182L63.7596 47.4947L60.0883 51.4719L63.8361 55.6786L64.601 55.7551V56.7494H62.9948L58.6351 51.7779V55.6786L59.4 55.7551V56.7494H56.6465V55.7551L57.3349 55.6786V47.4947L56.6465 47.4182Z" fill="#1D1D1B"/>
<path d="M73.627 47.5712H69.8792V50.7836H74.4684V51.9308H69.8792V55.6021H73.627L73.78 54.6078H74.7743V56.7494H67.8906V55.7551L68.6555 55.6786V47.4947L67.8906 47.4182V46.4239H74.7743V48.489H73.78L73.627 47.5712Z" fill="#1D1D1B"/>
<path d="M84.5648 49.4833C84.5648 47.8771 83.5705 47.5712 81.5054 47.5712C81.1229 47.5712 80.7405 47.5712 80.3581 47.5712V51.6249C80.7405 51.6249 81.1229 51.6249 81.5818 51.6249C83.5705 51.6249 84.5648 51.2425 84.5648 49.5598V49.4833ZM84.9472 56.7494L82.4997 52.6957C82.1937 52.6957 81.8113 52.6957 81.5054 52.6957C81.1229 52.6957 80.7405 52.6957 80.2816 52.6957V55.6021L81.0464 55.6786V56.6729H78.293V55.6786L79.0578 55.6021V47.4947L78.293 47.4182V46.4239C79.3638 46.4239 80.4346 46.4239 81.5054 46.4239C83.8764 46.4239 85.865 46.9593 85.865 49.4833V49.5598C85.865 51.2425 85.1002 52.0073 83.9529 52.4662L85.865 55.6786L86.6299 55.7551V56.7494H84.9472Z" fill="#1D1D1B"/>
<path d="M89.7656 47.4182V46.4239H92.5191V47.4182L91.7542 47.4947V51.2425L96.2669 46.4239H97.7201V47.4182L96.8788 47.4947L93.2075 51.4719L96.9553 55.6786L97.7201 55.7551V56.7494H96.1139L91.7542 51.7779V55.6786L92.5191 55.7551V56.7494H89.7656V55.7551L90.5305 55.6786V47.4947L89.7656 47.4182Z" fill="#1D1D1B"/>
<path d="M107.203 49.4833C107.203 47.8771 106.209 47.5712 104.144 47.5712C103.761 47.5712 103.379 47.5712 102.996 47.5712V51.6249C103.379 51.6249 103.761 51.6249 104.22 51.6249C106.209 51.6249 107.203 51.2425 107.203 49.5598V49.4833ZM107.662 56.7494L105.215 52.6957C104.909 52.6957 104.526 52.6957 104.22 52.6957C103.838 52.6957 103.455 52.6957 102.996 52.6957V55.6021L103.761 55.6786V56.6729H101.008V55.6786L101.773 55.6021V47.4947L101.008 47.4182V46.4239C102.079 46.4239 103.149 46.4239 104.22 46.4239C106.591 46.4239 108.58 46.9593 108.58 49.4833V49.5598C108.58 51.2425 107.815 52.0073 106.668 52.4662L108.58 55.6786L109.345 55.7551V56.7494H107.662Z" fill="#1D1D1B"/>
<path d="M117.146 49.1774C116.993 48.642 116.84 48.1066 116.764 47.4947H116.611C116.458 48.1066 116.381 48.642 116.228 49.1774L115.234 52.2368H118.14L117.146 49.1774ZM112.021 56.7494V55.7551L112.786 55.6786L115.463 47.4947L114.622 47.4182V46.4239H117.528L120.588 55.6786L121.276 55.7551V56.7494H118.523V55.7551L119.211 55.6786L118.523 53.3841H114.851L114.087 55.6786L114.775 55.7551V56.7494H112.021Z" fill="#1D1D1B"/>
<path d="M131.833 47.4947V52.4662C131.833 55.4492 130.532 56.9789 128.085 56.9789C125.561 56.9789 124.337 55.4492 124.337 52.4662V47.4947L123.572 47.4182V46.4239H126.326V47.4182L125.561 47.4947V52.3133C125.561 54.8373 126.173 55.8316 128.008 55.8316C129.921 55.8316 130.456 54.8373 130.456 52.3133V47.4947L129.691 47.4182V46.4239H132.445V47.4182L131.833 47.4947Z" fill="#1D1D1B"/>
<path d="M138.562 47.5712H136.497L136.344 48.489H135.35V46.4239H143.075V48.489H142.08L141.927 47.5712H139.862V55.6786L140.627 55.7551V56.7494H137.797V55.7551L138.562 55.6786V47.5712Z" fill="#1D1D1B"/>
<path fill-rule="evenodd" clip-rule="evenodd" d="M88.3889 4.28039L88.0829 3.43905C88.0064 3.36257 87.8535 3.20959 87.5475 3.20959C87.5475 3.20959 87.5475 3.20959 87.471 3.20959C86.7827 3.20959 86.1708 3.28608 85.5589 3.28608C85.4824 3.28608 85.4824 3.36257 85.4824 3.36257L85.9413 4.12742C85.9413 4.12742 86.1708 4.35688 86.5532 4.35688H86.6297C86.9356 4.35688 87.2416 4.35688 87.5475 4.35688C87.777 4.35688 88.0829 4.35688 88.3124 4.35688C88.4654 4.35688 88.3889 4.28039 88.3889 4.28039Z" fill="#1D1D1B"/>
<path fill-rule="evenodd" clip-rule="evenodd" d="M85.5572 4.35695L85.0982 3.51561C85.0218 3.43913 84.8688 3.28616 84.5628 3.36264C83.951 3.43913 83.2626 3.5921 82.6507 3.82155C82.5742 3.82155 82.5742 3.89804 82.5742 3.97453L83.1096 4.66289C83.1096 4.66289 83.3391 4.89235 83.7215 4.81587H83.798C84.1039 4.73938 84.4099 4.66289 84.6393 4.66289C84.8688 4.58641 85.1747 4.58641 85.4042 4.58641C85.5572 4.43344 85.5572 4.35695 85.5572 4.35695Z" fill="#1D1D1B"/>
<path fill-rule="evenodd" clip-rule="evenodd" d="M82.7275 4.96878L82.1156 4.28041C82.0391 4.20392 81.8097 4.12744 81.5802 4.20392C80.9683 4.43338 80.3564 4.66283 79.821 4.96878C79.7446 5.04526 79.7446 5.04526 79.821 5.12175L80.5094 5.73363C80.5094 5.73363 80.8153 5.8866 81.1213 5.73363H81.1978C81.5037 5.58066 81.7332 5.50417 82.0391 5.42769C82.2686 5.3512 82.5745 5.27472 82.804 5.19823C82.804 5.04526 82.804 4.96878 82.7275 4.96878Z" fill="#1D1D1B"/>
<path fill-rule="evenodd" clip-rule="evenodd" d="M80.1276 6.03961L79.4393 5.42773C79.3628 5.35124 79.1333 5.35124 78.9039 5.42773C78.3685 5.73367 77.8331 6.11609 77.2977 6.49852C77.2212 6.57501 77.2977 6.57501 77.2977 6.65149L78.0625 7.1104C78.0625 7.1104 78.3685 7.18689 78.6744 7.03392H78.7509C78.9803 6.88095 79.2098 6.72798 79.5157 6.57501C79.7452 6.42204 79.9747 6.34555 80.2041 6.19258C80.2041 6.11609 80.1276 6.03961 80.1276 6.03961Z" fill="#1D1D1B"/>
<path fill-rule="evenodd" clip-rule="evenodd" d="M77.68 7.4927L76.8387 7.03378C76.7622 7.03378 76.5328 6.9573 76.3033 7.18675C75.7679 7.64567 75.309 8.02809 74.9266 8.48701C74.8501 8.56349 74.9266 8.56349 74.9266 8.63998L75.7679 8.94592C75.7679 8.94592 76.0739 9.0224 76.3798 8.71646C76.3798 8.71646 76.3798 8.71646 76.4563 8.63998C76.6857 8.41052 76.9152 8.25755 77.1446 8.02809C77.3741 7.87512 77.5271 7.72215 77.7565 7.56918C77.7565 7.56918 77.68 7.56918 77.68 7.4927Z" fill="#1D1D1B"/>
<path fill-rule="evenodd" clip-rule="evenodd" d="M75.5381 9.40494L74.6968 9.099C74.6203 9.099 74.3908 9.099 74.1614 9.32845C73.779 9.86385 73.3965 10.3228 73.0141 10.8582C72.9376 10.9346 73.0141 10.9346 73.0906 11.0111L74.0084 11.1641C74.0084 11.1641 74.3144 11.1641 74.5438 10.8582C74.5438 10.8582 74.5438 10.8582 74.6203 10.7817C74.7733 10.5522 75.0027 10.3228 75.1557 10.0933C75.3087 9.86385 75.5381 9.71088 75.6911 9.48143C75.6146 9.48143 75.6146 9.48143 75.5381 9.40494Z" fill="#1D1D1B"/>
<path fill-rule="evenodd" clip-rule="evenodd" d="M73.7791 11.6995L72.8612 11.5465C72.7847 11.5465 72.5553 11.623 72.4023 11.8525C72.0964 12.3878 71.7904 12.9997 71.561 13.6116C71.4845 13.6881 71.561 13.6881 71.6375 13.6881H72.5553C72.5553 13.6881 72.8612 13.6116 73.0142 13.3057C73.0142 13.3057 73.0142 13.3057 73.0142 13.2292C73.1672 12.9997 73.3201 12.6938 73.3966 12.4643C73.5496 12.2349 73.7026 12.0054 73.7791 11.776C73.932 11.6995 73.8555 11.6995 73.7791 11.6995Z" fill="#1D1D1B"/>
<path fill-rule="evenodd" clip-rule="evenodd" d="M72.4802 14.2234H71.5624C71.4859 14.2234 71.2564 14.3764 71.1799 14.6059C70.9505 15.2178 70.7975 15.8296 70.6445 16.4415C70.6445 16.518 70.721 16.518 70.721 16.518L71.6388 16.365C71.6388 16.365 71.9448 16.2886 72.0213 15.9061V15.8296C72.0978 15.5237 72.1742 15.2942 72.3272 14.9883C72.4037 14.7588 72.4802 14.5294 72.6331 14.2234C72.5567 14.2234 72.4802 14.2234 72.4802 14.2234Z" fill="#1D1D1B"/>
<path fill-rule="evenodd" clip-rule="evenodd" d="M71.5606 16.9005L70.6428 17.0535C70.5663 17.0535 70.4134 17.2065 70.3369 17.5124C70.3369 17.5124 70.3369 17.5124 70.3369 17.5889C70.2604 18.2008 70.1839 18.8891 70.1074 19.501C70.1074 19.5775 70.1839 19.5775 70.1839 19.5775L71.0252 19.2716C71.0252 19.2716 71.3312 19.1186 71.3312 18.7362V18.6597C71.3312 18.3537 71.4077 18.0478 71.4842 17.8183C71.5606 17.5889 71.5606 17.2829 71.6371 17.0535C71.6371 16.9005 71.6371 16.9005 71.5606 16.9005Z" fill="#1D1D1B"/>
<path fill-rule="evenodd" clip-rule="evenodd" d="M71.1782 19.7305L70.3369 20.0364C70.2604 20.1129 70.1074 20.2659 70.1074 20.5718C70.1074 20.5718 70.1074 20.5718 70.1074 20.6483C70.1074 21.3367 70.1839 21.9485 70.1839 22.5604C70.1839 22.6369 70.2604 22.6369 70.2604 22.6369L71.0252 22.178C71.0252 22.178 71.2547 21.9485 71.2547 21.5661V21.4896C71.2547 21.1837 71.2547 20.8777 71.2547 20.5718C71.2547 20.3424 71.2547 20.0364 71.2547 19.807C71.2547 19.7305 71.1782 19.7305 71.1782 19.7305Z" fill="#1D1D1B"/>
<path fill-rule="evenodd" clip-rule="evenodd" d="M71.256 22.6369L70.4147 23.0958C70.3382 23.1723 70.2617 23.3253 70.2617 23.6312C70.3382 24.2431 70.4912 24.9315 70.7206 25.5434C70.7206 25.6199 70.7971 25.6199 70.8736 25.6199L71.562 25.0845C71.562 25.0845 71.7914 24.855 71.7149 24.4726V24.3961C71.6385 24.0902 71.562 23.8607 71.562 23.5548C71.4855 23.3253 71.4855 23.0194 71.409 22.7899C71.3325 22.5604 71.3325 22.6369 71.256 22.6369Z" fill="#1D1D1B"/>
<path fill-rule="evenodd" clip-rule="evenodd" d="M71.8668 25.3904L71.1785 26.0023C71.102 26.0788 71.0255 26.3083 71.102 26.5377C71.3315 27.1496 71.5609 27.7615 71.8668 28.2969C71.9433 28.3734 71.9433 28.3734 72.0198 28.2969L72.6317 27.6085C72.6317 27.6085 72.7847 27.3026 72.6317 26.9966V26.9202C72.4787 26.6142 72.4022 26.3848 72.3258 26.0788C72.2493 25.8494 72.1728 25.5434 72.0963 25.314C71.9433 25.3904 71.8668 25.3904 71.8668 25.3904Z" fill="#1D1D1B"/>
<path fill-rule="evenodd" clip-rule="evenodd" d="M72.9388 28.0673L72.3269 28.7556C72.2504 28.8321 72.2504 29.0616 72.3269 29.291C72.6328 29.8264 73.0153 30.3618 73.3977 30.8972C73.4742 30.9737 73.4742 30.8972 73.5507 30.8972L74.0096 30.1324C74.0096 30.1324 74.0861 29.8264 73.9331 29.5205V29.444C73.7801 29.2145 73.6271 28.9851 73.4742 28.6792C73.3212 28.4497 73.2447 28.2202 73.0918 27.9908C73.0153 27.9908 72.9388 28.0673 72.9388 28.0673Z" fill="#1D1D1B"/>
<path fill-rule="evenodd" clip-rule="evenodd" d="M74.4692 30.5148L74.0103 31.3561C74.0103 31.4326 73.9338 31.6621 74.1633 31.8915C74.5457 32.4269 75.0046 32.8858 75.4635 33.2683C75.54 33.3447 75.54 33.2683 75.6165 33.2683L75.9224 32.4269C75.9224 32.4269 75.9989 32.121 75.693 31.815C75.693 31.815 75.693 31.815 75.6165 31.7385C75.387 31.5091 75.2341 31.2796 75.0046 31.0502C74.8516 30.8207 74.6987 30.6677 74.5457 30.4383C74.5457 30.4383 74.4692 30.4383 74.4692 30.5148Z" fill="#1D1D1B"/>
<path fill-rule="evenodd" clip-rule="evenodd" d="M76.3802 32.58L76.0742 33.4213C76.0742 33.4978 76.0742 33.7273 76.3037 33.9567C76.8391 34.3391 77.298 34.7216 77.8334 35.104C77.9099 35.1805 77.9099 35.104 77.9864 35.0275L78.1393 34.1097C78.1393 34.1097 78.1393 33.8037 77.8334 33.5743C77.8334 33.5743 77.8334 33.5743 77.7569 33.4978C77.5274 33.3448 77.298 33.1154 77.0685 32.9624C76.8391 32.8094 76.6861 32.58 76.4566 32.427C76.3802 32.5035 76.3802 32.58 76.3802 32.58Z" fill="#1D1D1B"/>
<path fill-rule="evenodd" clip-rule="evenodd" d="M78.5983 34.3392L78.4453 35.257C78.4453 35.3335 78.5218 35.5629 78.7513 35.7159C79.2867 36.0218 79.8985 36.3278 80.5104 36.5572C80.5869 36.6337 80.5869 36.5572 80.5869 36.4808V35.5629C80.5869 35.5629 80.5104 35.257 80.2045 35.104C80.2045 35.104 80.2045 35.104 80.128 35.104C79.8985 34.9511 79.5926 34.7981 79.3631 34.7216C79.1337 34.5686 78.9042 34.4157 78.6748 34.3392C78.6748 34.2627 78.5983 34.3392 78.5983 34.3392Z" fill="#1D1D1B"/>
<path fill-rule="evenodd" clip-rule="evenodd" d="M81.1211 35.716V36.6338C81.1211 36.7103 81.2741 36.9398 81.5035 37.0163C82.1154 37.2457 82.7273 37.3987 83.3392 37.5517C83.4157 37.5517 83.4157 37.4752 83.4157 37.4752L83.3392 36.7103C83.3392 36.7103 83.2627 36.4044 82.8803 36.3279H82.8038C82.4978 36.2514 82.2684 36.1749 81.9624 36.0219C81.733 35.9455 81.5035 35.869 81.1976 35.716C81.1211 35.6395 81.1211 35.716 81.1211 35.716Z" fill="#1D1D1B"/>
<path fill-rule="evenodd" clip-rule="evenodd" d="M83.875 36.5572L84.028 37.475C84.028 37.5515 84.1809 37.7045 84.4869 37.781C84.4869 37.781 84.4869 37.781 84.5634 37.781C85.1753 37.8574 85.8636 37.9339 86.4755 38.0104C86.552 38.0104 86.552 37.9339 86.552 37.9339L86.246 37.0926C86.246 37.0926 86.0931 36.7867 85.7107 36.7867H85.6342C85.3282 36.7867 85.0223 36.7102 84.7928 36.6337C84.5634 36.5572 84.2574 36.5572 84.028 36.4807C83.875 36.4807 83.875 36.5572 83.875 36.5572Z" fill="#1D1D1B"/>
<path fill-rule="evenodd" clip-rule="evenodd" d="M86.7051 37.0163L87.011 37.9341C87.0875 38.0106 87.2405 38.1636 87.5464 38.1636C87.5464 38.1636 87.5464 38.1636 87.6229 38.1636C88.3113 38.1636 88.9232 38.0871 89.535 38.0871C89.6115 38.0871 89.6115 38.0106 89.6115 38.0106L89.1526 37.2458C89.1526 37.2458 88.9232 37.0163 88.5407 37.0163H88.4642C88.1583 37.0163 87.8524 37.0163 87.5464 37.0163C87.317 37.0163 87.011 37.0163 86.7816 37.0163C86.7051 36.8633 86.7051 36.9398 86.7051 37.0163Z" fill="#1D1D1B"/>
<path fill-rule="evenodd" clip-rule="evenodd" d="M89.5352 36.8633L89.9941 37.7046C90.0706 37.7811 90.2235 37.8576 90.5295 37.8576C91.1414 37.7811 91.8297 37.6281 92.4416 37.3986C92.5181 37.3986 92.5181 37.3222 92.5181 37.2457L91.9062 36.5573C91.9062 36.5573 91.6768 36.3279 91.2943 36.4043H91.2178C90.9119 36.4808 90.6824 36.5573 90.3765 36.5573C90.147 36.6338 89.8411 36.6338 89.6116 36.7103C89.5352 36.7868 89.5352 36.8633 89.5352 36.8633Z" fill="#1D1D1B"/>
<path fill-rule="evenodd" clip-rule="evenodd" d="M92.3655 36.3278L92.9774 37.0161C93.0539 37.0926 93.2834 37.1691 93.5128 37.0926C94.1247 36.8632 94.7366 36.6337 95.272 36.3278C95.3485 36.2513 95.3485 36.2513 95.272 36.1748L94.5836 35.5629C94.5836 35.5629 94.2777 35.41 93.9717 35.5629H93.8953C93.5893 35.7159 93.3599 35.7924 93.0539 35.8689C92.8245 35.9454 92.5185 36.0218 92.2891 36.0983C92.2891 36.2513 92.2891 36.2513 92.3655 36.3278Z" fill="#1D1D1B"/>
<path fill-rule="evenodd" clip-rule="evenodd" d="M94.9652 35.257L95.6535 35.8689C95.73 35.9453 95.9595 35.9453 96.1889 35.8689C96.7243 35.5629 97.2597 35.1805 97.7951 34.7981C97.8716 34.7216 97.7951 34.7216 97.7951 34.6451L97.0303 34.1862C97.0303 34.1862 96.7243 34.1097 96.4184 34.2627C96.4184 34.2627 96.4184 34.2627 96.3419 34.2627C96.1124 34.4156 95.883 34.5686 95.577 34.7216C95.3476 34.8745 95.1181 34.951 94.8887 35.104C94.8887 35.1805 94.9652 35.1805 94.9652 35.257Z" fill="#1D1D1B"/>
<path fill-rule="evenodd" clip-rule="evenodd" d="M97.4144 33.7275L98.2557 34.1864C98.3322 34.1864 98.5617 34.2629 98.7911 34.0334C99.3265 33.651 99.7854 33.1921 100.168 32.7332C100.244 32.6567 100.168 32.6567 100.168 32.5802L99.3265 32.2742C99.3265 32.2742 99.0206 32.1978 98.7146 32.5037C98.7146 32.5037 98.7146 32.5037 98.6381 32.5802C98.4087 32.8096 98.1792 32.9626 97.9498 33.1921C97.7203 33.345 97.5673 33.498 97.3379 33.651L97.4144 33.7275Z" fill="#1D1D1B"/>
<path fill-rule="evenodd" clip-rule="evenodd" d="M99.5553 31.8152L100.397 32.1211C100.473 32.1211 100.703 32.1211 100.932 31.8917C101.314 31.3563 101.697 30.8974 102.079 30.362C102.156 30.2855 102.079 30.2855 102.003 30.209L101.085 30.056C101.085 30.056 100.779 30.056 100.55 30.362C100.55 30.362 100.55 30.362 100.473 30.4385C100.32 30.6679 100.091 30.8974 99.9377 31.1268C99.7848 31.3563 99.5553 31.5093 99.4023 31.7387C99.4788 31.7387 99.4788 31.8152 99.5553 31.8152Z" fill="#1D1D1B"/>
<path fill-rule="evenodd" clip-rule="evenodd" d="M101.315 29.5206L102.233 29.6736C102.309 29.6736 102.539 29.5971 102.692 29.3676C102.998 28.8322 103.304 28.2204 103.533 27.6085C103.61 27.532 103.533 27.532 103.457 27.532H102.539C102.539 27.532 102.233 27.6085 102.08 27.9144C102.08 27.9144 102.08 27.9144 102.08 27.9909C101.927 28.2204 101.851 28.5263 101.698 28.7557C101.545 28.9852 101.392 29.2147 101.315 29.4441C101.239 29.5206 101.239 29.5206 101.315 29.5206Z" fill="#1D1D1B"/>
<path fill-rule="evenodd" clip-rule="evenodd" d="M102.614 26.9966H103.532C103.608 26.9966 103.838 26.8436 103.914 26.6142C104.144 26.0023 104.297 25.3904 104.45 24.7785C104.45 24.702 104.373 24.702 104.373 24.702L103.455 24.855C103.455 24.855 103.149 24.9315 103.073 25.3139V25.3904C102.996 25.6963 102.92 25.9258 102.767 26.2317C102.69 26.4612 102.614 26.6906 102.461 26.9966C102.537 26.9966 102.614 26.9966 102.614 26.9966Z" fill="#1D1D1B"/>
<path fill-rule="evenodd" clip-rule="evenodd" d="M103.532 24.3197L104.449 24.1667C104.526 24.1667 104.679 24.0138 104.755 23.7078C104.755 23.7078 104.755 23.7078 104.755 23.6313C104.908 23.0194 104.908 22.3311 104.985 21.7192C104.985 21.6427 104.908 21.6427 104.908 21.6427L104.067 21.9486C104.067 21.9486 103.761 22.1016 103.761 22.484V22.5605C103.761 22.8665 103.685 23.1724 103.608 23.4019C103.532 23.6313 103.532 23.9373 103.455 24.1667C103.455 24.3197 103.455 24.3197 103.532 24.3197Z" fill="#1D1D1B"/>
<path fill-rule="evenodd" clip-rule="evenodd" d="M103.915 21.4897L104.833 21.1837C104.909 21.1073 105.062 20.9543 105.062 20.7248C105.062 20.7248 105.062 20.7248 105.062 20.6484C105.062 19.96 104.986 19.3481 104.986 18.7362C104.986 18.6597 104.909 18.6597 104.909 18.6597L104.144 19.1186C104.144 19.1186 103.915 19.3481 103.915 19.7305V19.807C103.915 20.113 103.915 20.4189 103.915 20.7248C103.915 20.9543 103.915 21.2602 103.915 21.4897Z" fill="#1D1D1B"/>
<path fill-rule="evenodd" clip-rule="evenodd" d="M103.838 18.6596L104.679 18.2007C104.756 18.1242 104.832 17.9713 104.832 17.6653C104.832 17.6653 104.832 17.6653 104.832 17.5888C104.756 16.977 104.603 16.2886 104.373 15.6767C104.373 15.6002 104.297 15.6002 104.22 15.6002L103.532 16.1356C103.532 16.1356 103.302 16.3651 103.379 16.7475V16.824C103.455 17.1299 103.532 17.3594 103.532 17.6653C103.608 17.8948 103.608 18.2007 103.608 18.4302C103.761 18.6596 103.761 18.6596 103.838 18.6596Z" fill="#1D1D1B"/>
<path fill-rule="evenodd" clip-rule="evenodd" d="M103.227 15.8297L103.915 15.2178C103.992 15.1413 104.068 14.9118 103.992 14.6824C103.762 14.0705 103.533 13.4586 103.227 12.9232C103.151 12.8467 103.151 12.8467 103.074 12.9232L102.539 13.5351C102.539 13.5351 102.386 13.841 102.539 14.147V14.2235C102.692 14.5294 102.768 14.7589 102.845 15.0648C102.921 15.2943 102.998 15.6002 103.074 15.8297C103.151 15.9061 103.227 15.8297 103.227 15.8297Z" fill="#1D1D1B"/>
<path fill-rule="evenodd" clip-rule="evenodd" d="M102.156 13.1528L102.768 12.4644C102.845 12.3879 102.845 12.1585 102.768 11.929C102.462 11.3936 102.08 10.8582 101.697 10.3228C101.621 10.2463 101.621 10.3228 101.544 10.3228L101.086 11.0877C101.086 11.0877 101.009 11.3936 101.162 11.6995V11.776C101.315 12.0055 101.468 12.2349 101.621 12.5409C101.774 12.7703 101.85 12.9998 102.003 13.2293C102.08 13.2293 102.156 13.2293 102.156 13.1528Z" fill="#1D1D1B"/>
<path fill-rule="evenodd" clip-rule="evenodd" d="M100.626 10.7818L101.085 9.94045C101.085 9.86397 101.161 9.63451 100.932 9.40505C100.549 8.86966 100.09 8.41074 99.6315 8.02832C99.555 7.95183 99.555 8.02832 99.4785 8.02832L99.1726 8.86966V8.94614C99.1726 8.94614 99.0961 9.25208 99.402 9.55803C99.402 9.55803 99.402 9.55803 99.4785 9.63451C99.708 9.86397 99.8609 10.0934 100.09 10.3229C100.243 10.5523 100.396 10.7053 100.549 10.9348C100.549 10.8583 100.626 10.7818 100.626 10.7818Z" fill="#1D1D1B"/>
<path fill-rule="evenodd" clip-rule="evenodd" d="M98.7142 8.64005L99.0202 7.79871C99.0202 7.72223 99.0202 7.49277 98.7907 7.26331C98.2553 6.88089 97.7964 6.49846 97.261 6.11603C97.1845 6.03955 97.1845 6.11603 97.1081 6.19252L96.9551 7.11034C96.9551 7.11034 96.9551 7.41628 97.261 7.64574C97.261 7.64574 97.261 7.64574 97.3375 7.72223C97.567 7.8752 97.7964 8.10465 98.0259 8.25762C98.2553 8.41059 98.4083 8.64005 98.6378 8.79302C98.7142 8.71654 98.7142 8.64005 98.7142 8.64005Z" fill="#1D1D1B"/>
<path fill-rule="evenodd" clip-rule="evenodd" d="M96.4964 6.88092L96.6494 5.9631C96.6494 5.88661 96.5729 5.65716 96.3435 5.50419C95.8081 5.19824 95.1962 4.8923 94.5843 4.66285C94.5078 4.58636 94.5078 4.66285 94.5078 4.73933V5.65716V5.73364C94.5078 5.73364 94.5843 6.03958 94.8902 6.19255C94.8902 6.19255 94.8902 6.19255 94.9667 6.19255C95.1962 6.34553 95.5021 6.4985 95.7316 6.57498C95.961 6.72795 96.1905 6.88092 96.42 6.95741L96.4964 6.88092Z" fill="#1D1D1B"/>
<path fill-rule="evenodd" clip-rule="evenodd" d="M93.9723 5.50417V4.58634C93.9723 4.50986 93.8193 4.2804 93.5899 4.20392C92.978 3.97446 92.3661 3.82149 91.7542 3.66852C91.6777 3.66852 91.6777 3.745 91.6777 3.745L91.8307 4.66283C91.8307 4.66283 91.9072 4.96877 92.2896 5.04526H92.3661C92.672 5.12174 92.9015 5.19823 93.2074 5.3512C93.4369 5.42768 93.6664 5.50417 93.9723 5.65714C93.9723 5.65714 93.9723 5.58065 93.9723 5.50417Z" fill="#1D1D1B"/>
<path fill-rule="evenodd" clip-rule="evenodd" d="M91.2177 4.66294L91.0647 3.74511C91.0647 3.66863 90.9117 3.51566 90.6058 3.43917C89.9939 3.2862 89.3056 3.2862 88.6937 3.20972C88.6172 3.20972 88.6172 3.2862 88.6172 3.2862L88.9231 4.12754C88.9231 4.12754 89.0761 4.43348 89.4585 4.43348H89.535C89.8409 4.43348 90.1469 4.50997 90.3764 4.58645C90.6058 4.66294 90.9118 4.66294 91.1412 4.73943C91.2177 4.73943 91.2177 4.66294 91.2177 4.66294Z" fill="#1D1D1B"/>
</svg>
