<svg width="176" height="64" viewBox="0 0 176 64" fill="none" xmlns="http://www.w3.org/2000/svg">
<g clip-path="url(#clip0_5602_25105)">
<path d="M17.2876 52.7279C19.627 52.7279 21.1412 51.0461 21.1412 48.6305C21.1412 46.1849 19.612 44.5337 17.2876 44.5337H15.3455V52.7279H17.2876ZM17.2876 43.2803C20.4835 43.2803 22.5174 45.4973 22.5174 48.6305C22.5174 51.7955 20.4073 53.9813 17.2876 53.9813H14V43.2803H17.2876Z" fill="#ABA9B8"/>
<path d="M25.2941 49.0827H29.9273C29.8355 47.932 29.0246 47.125 27.7403 47.125C26.5016 47.125 25.5839 47.8576 25.2941 49.0827ZM31.2116 50.0692H25.2016C25.2635 51.8474 26.471 52.893 28.0308 52.893C28.8416 52.893 29.9117 52.6244 30.7831 52.2356V53.3563C30.0803 53.7452 28.9178 53.9991 27.9389 53.9991C25.3853 53.9991 23.918 52.2655 23.918 49.9495C23.918 47.4833 25.569 46.0195 27.7097 46.0195C29.9579 46.0195 31.2266 47.5883 31.2266 49.6657C31.2266 49.8299 31.2266 49.9648 31.2116 50.0692Z" fill="#ABA9B8"/>
<path d="M38.3666 46.0186H39.6203V54.0001H38.3666V52.7452C37.7856 53.494 36.7911 53.9986 35.7211 53.9986C34.0545 53.9986 32.877 52.8826 32.877 50.8954V46.0186H34.1307V50.8954C34.1307 52.21 34.9102 52.8676 36.0115 52.8676C36.9442 52.8676 37.8462 52.2712 38.3666 51.3993V46.0186Z" fill="#ABA9B8"/>
<path d="M46.0504 52.6994V53.8154C45.6837 53.9222 45.1939 53.999 44.6742 53.999C42.6709 53.999 41.7539 52.577 41.7539 50.6972V44.1591L42.824 43.2573H43.0076V46.019H45.8667V47.0894H43.0076V50.6659C43.0076 51.7976 43.4511 52.8674 44.8579 52.8674C45.2858 52.8674 45.6987 52.7912 46.0504 52.6994Z" fill="#ABA9B8"/>
<path d="M47.1276 53.4157V52.2803C47.8004 52.6685 48.8861 52.9078 49.6051 52.9078C50.5983 52.9078 51.4397 52.4897 51.4397 51.787C51.4397 51.1894 50.9656 50.9049 50.3384 50.7407L48.9779 50.3678C47.6324 50.0088 47.0664 49.2916 47.0664 48.1562C47.0664 46.8108 48.4119 46.019 49.9874 46.019C50.8432 46.019 51.7152 46.2431 52.1581 46.5269V47.6629C51.501 47.2894 50.6139 47.1245 49.9105 47.1245C49.1303 47.1245 48.3507 47.4389 48.3507 48.1855C48.3507 48.6787 48.7174 48.9925 49.452 49.1866L50.6601 49.5309C52.2043 49.9045 52.7091 50.6816 52.7091 51.787C52.7091 53.2368 51.3479 53.9987 49.5126 53.9987C48.6412 53.9987 47.5711 53.7148 47.1276 53.4157Z" fill="#ABA9B8"/>
<path d="M53.7969 50.0101C53.7969 47.6194 55.6934 46.021 58.0634 46.021C58.8586 46.021 59.5769 46.2004 60.1735 46.5288V47.7689H60.0973C59.577 47.3509 58.7817 47.1263 58.094 47.1263C56.4424 47.1263 55.0812 48.2767 55.0812 50.0101C55.0812 51.7434 56.4424 52.8938 58.094 52.8938C58.7817 52.8938 59.5769 52.6692 60.0973 52.2512H60.1735V53.4913C59.577 53.8197 58.8586 53.9991 58.0634 53.9991C55.6934 53.9991 53.7969 52.4007 53.7969 50.0101Z" fill="#ABA9B8"/>
<path d="M68.6593 49.1049V53.9817H67.4206V49.1049C67.4206 47.7903 66.6254 47.1327 65.5397 47.1327C64.5921 47.1327 63.6894 47.7291 63.1697 48.6159V53.9817H61.916V43.2573H63.1697V47.2707C63.7507 46.5063 64.7445 46.0188 65.8152 46.0188C67.4818 46.0188 68.6593 47.1177 68.6593 49.1049Z" fill="#ABA9B8"/>
<path d="M71.757 49.0841H76.3908C76.299 47.9335 75.4888 47.1265 74.2039 47.1265C72.9651 47.1265 72.0475 47.859 71.757 49.0841ZM77.6752 49.9081H71.6652C71.727 51.8488 72.9345 52.8945 74.4943 52.8945C75.3052 52.8945 76.3752 52.6259 77.2466 52.237V53.3578C76.5439 53.7467 75.3814 54.0006 74.4031 54.0006C71.8495 54.0006 70.3809 52.2669 70.3809 49.951C70.3809 47.4848 72.0325 46.021 74.1732 46.021C76.4214 46.021 77.6581 47.59 77.6901 49.6671C77.6927 49.8371 77.6918 49.8658 77.6822 49.9081L77.6752 49.9081Z" fill="#ABA9B8"/>
<path d="M83.9396 43.2803H81.8145V53.9813H83.9396V43.2803Z" fill="#ABA9B8"/>
<path d="M93.4727 49.0855V53.9814H91.5V49.3297C91.5 48.2922 90.8884 47.7127 89.9708 47.7127C89.2674 47.7127 88.564 48.1246 88.0899 48.7652V53.9814H86.1172V46.019H88.0899V47.1638C88.6709 46.4771 89.6191 46.019 90.6129 46.019C92.2646 46.019 93.4727 47.0871 93.4727 49.0855Z" fill="#ABA9B8"/>
<path d="M100.594 46.019L98.3954 50.8017L96.2547 46.019H94.1445V46.1571L98.0281 53.9817H98.7471L102.719 46.1571V46.019H100.594Z" fill="#ABA9B8"/>
<path d="M104.754 49.0828H108.516C108.378 48.1263 107.751 47.5439 106.742 47.5439C105.748 47.5439 104.999 48.1263 104.754 49.0828ZM110.366 49.83C110.366 49.9942 110.35 50.1883 110.335 50.308H104.662C104.831 51.6833 105.778 52.4598 107.17 52.4598C107.996 52.4598 109.112 52.2058 109.892 51.8621V53.3565C109.25 53.7002 108.042 53.9993 106.941 53.9993C104.295 53.9993 102.797 52.2504 102.797 49.949C102.797 47.4835 104.494 46.019 106.742 46.019C109.082 46.019 110.381 47.6184 110.366 49.83Z" fill="#ABA9B8"/>
<path d="M111.615 53.431V51.8615C112.334 52.2803 113.419 52.5043 114.199 52.5043C114.887 52.5043 115.591 52.2205 115.591 51.6827C115.591 51.2645 115.254 51.0399 114.78 50.9209L113.404 50.5619C112.013 50.2036 111.492 49.3215 111.492 48.2758C111.492 46.8712 112.884 46.019 114.657 46.019C115.559 46.019 116.493 46.2284 116.967 46.5123V48.0518C116.309 47.6929 115.361 47.5433 114.642 47.5433C114 47.5433 113.434 47.7673 113.434 48.3204C113.434 48.7093 113.755 48.9333 114.26 49.0676L115.529 49.4265C117.12 49.8447 117.532 50.7261 117.532 51.7126C117.532 53.2661 116.065 53.9987 114.23 53.9987C113.251 53.9986 112.104 53.7301 111.615 53.431Z" fill="#ABA9B8"/>
<path d="M123.674 52.1337V53.7849C123.231 53.9223 122.604 53.9991 122.053 53.9991C119.622 53.9991 118.857 52.2255 118.857 50.4213V44.389L120.631 43.2573H120.83V46.0191H123.445V47.6091H120.83V50.4369C120.83 51.5223 121.35 52.3017 122.451 52.3017C122.864 52.3017 123.292 52.2411 123.674 52.1337Z" fill="#ABA9B8"/>
<path d="M137.142 49.0855V53.9814H135.17V49.2836C135.17 48.3383 134.65 47.7127 133.87 47.7127C133.258 47.7127 132.662 48.1246 132.234 48.7496C132.249 48.8568 132.249 48.9789 132.249 49.0855V53.9814H130.276V49.2836C130.276 48.3383 129.756 47.7127 128.977 47.7127C128.365 47.7127 127.783 48.109 127.356 48.7346V53.9814H125.383V46.019H127.356V47.1482C127.891 46.4771 128.655 46.019 129.496 46.019C130.582 46.019 131.454 46.5225 131.912 47.4529C132.463 46.5992 133.487 46.019 134.39 46.019C135.995 46.019 137.142 47.1482 137.142 49.0855Z" fill="#ABA9B8"/>
<path d="M140.564 49.0828H144.326C144.188 48.1263 143.562 47.5439 142.552 47.5439C141.558 47.5439 140.809 48.1263 140.564 49.0828ZM146.177 49.83C146.177 49.9942 146.161 50.1883 146.146 50.308H140.473C140.641 51.6833 141.589 52.4598 142.981 52.4598C143.807 52.4598 144.923 52.2058 145.702 51.8621V53.3565C145.06 53.7002 143.852 53.9993 142.751 53.9993C140.106 53.9993 138.607 52.2504 138.607 49.949C138.607 47.4835 140.305 46.019 142.552 46.019C144.892 46.019 146.192 47.6184 146.177 49.83Z" fill="#ABA9B8"/>
<path d="M155.068 49.0855V53.9814H153.096V49.3297C153.096 48.2922 152.484 47.7127 151.566 47.7127C150.863 47.7127 150.16 48.1246 149.686 48.7652V53.9814H147.713V46.019H149.686V47.1638C150.267 46.4771 151.215 46.019 152.209 46.019C153.86 46.019 155.068 47.0871 155.068 49.0855Z" fill="#ABA9B8"/>
<path d="M161.686 52.1337V53.7849C161.242 53.9223 160.616 53.9991 160.065 53.9991C157.634 53.9991 156.869 52.2255 156.869 50.4213V44.389L158.643 43.2573H158.842V46.0191H161.457V47.6091H158.842V50.4369C158.842 51.5223 159.362 52.3017 160.463 52.3017C160.876 52.3017 161.304 52.2411 161.686 52.1337Z" fill="#ABA9B8"/>
<path d="M81.6458 34.0337C81.5664 34.0356 81.4892 34.0457 81.4094 34.0457C75.834 34.0457 71.2985 29.5105 71.2985 23.936C71.2985 23.5142 71.3327 23.101 71.3831 22.6927C71.3054 22.1639 71.2517 21.6274 71.2517 21.0773C71.2517 20.4226 71.3198 19.7845 71.4293 19.1606C70.7335 20.6091 70.332 22.2246 70.332 23.936C70.332 30.0432 75.3012 35.0127 81.4094 35.0127C82.7346 35.0127 84.0005 34.7668 85.1794 34.3381C84.9033 34.3588 84.6272 34.3803 84.3459 34.3803C83.4131 34.3804 82.5119 34.2518 81.6458 34.0337Z" fill="#ABA9B8"/>
<path d="M80.5762 12.8993C80.8523 12.8786 81.1283 12.857 81.4096 12.857C82.3438 12.857 83.2463 12.9859 84.1135 13.2047C84.1916 13.2029 84.2676 13.1929 84.3462 13.1929C86.7722 13.1929 89.0005 14.053 90.7449 15.4825C90.1049 14.5235 89.3005 13.6869 88.3798 12.9961C87.128 12.5043 85.7703 12.2246 84.3462 12.2246C83.0209 12.2246 81.755 12.4706 80.5762 12.8993Z" fill="#ABA9B8"/>
<path d="M75.932 28.8999C74.8607 27.2959 74.2334 25.3715 74.2334 23.3023C74.2334 18.9862 76.9581 15.3033 80.7743 13.856C79.6197 13.9282 78.5143 14.1836 77.496 14.6127C74.9256 16.6432 73.2676 19.78 73.2676 23.3023C73.2676 24.3457 73.4225 25.3519 73.6935 26.3098C74.2919 27.2938 75.045 28.1732 75.932 28.8999Z" fill="#ABA9B8"/>
<path d="M91.4706 14.833C92.1405 15.8106 92.6504 16.9026 92.9806 18.0703C93.9108 19.5991 94.4566 21.386 94.4566 23.3023C94.4566 27.4889 91.8975 31.0884 88.2614 32.6215C87.2446 33.0502 86.1407 33.3058 84.9878 33.3788C84.7742 33.3924 84.5621 33.4114 84.3451 33.4114C82.076 33.4114 79.9864 32.6513 78.2973 31.3849C77.1638 30.9399 76.1195 30.3193 75.2031 29.547C76.7095 31.7451 78.9895 33.3643 81.645 34.0331C82.5111 34.2512 83.4123 34.3797 84.3451 34.3797C84.6265 34.3797 84.9025 34.3582 85.1786 34.3375C90.8976 33.9086 95.4225 29.1291 95.4225 23.3023C95.4225 19.9069 93.8838 16.8668 91.4706 14.833Z" fill="#ABA9B8"/>
<path d="M93.4074 21.0772C93.4074 20.0342 93.2524 19.0284 92.9816 18.0708C92.6514 16.9031 92.1416 15.8111 91.4716 14.8335C89.4741 11.9186 86.1227 10.0005 82.3293 10.0005C76.876 10.0005 72.3414 13.9652 71.4295 19.1605C71.32 19.7844 71.252 20.4224 71.252 21.0772C71.252 21.6273 71.3056 22.1637 71.3833 22.6925C71.7858 25.4285 73.1817 27.8431 75.2041 29.5475C76.1205 30.3198 77.1648 30.9404 78.2983 31.3854C79.5493 31.8765 80.9061 32.1559 82.3293 32.1559C85.4564 32.1559 88.2792 30.8483 90.2953 28.7577C90.8282 27.78 91.1928 26.7015 91.3783 25.5635C89.7211 28.8917 86.2925 31.1888 82.3293 31.1888C79.904 31.1888 77.6765 30.3292 75.9325 28.9004C75.0455 28.1737 74.2924 27.2943 73.694 26.3103C72.7641 24.7814 72.2185 22.9941 72.2185 21.0772C72.2185 20.5218 72.2753 19.9806 72.3619 19.4494C72.5474 18.311 72.9123 17.2323 73.4453 16.2545C75.1608 13.1077 78.4995 10.9675 82.3293 10.9675C84.5994 10.9675 86.6901 11.7285 88.3798 12.9963C89.3005 13.6871 90.1048 14.5237 90.7448 15.4827C91.8149 17.0861 92.4415 19.0093 92.4415 21.0772C92.4415 21.4997 92.4072 21.9136 92.3566 22.3227C92.4341 22.8508 92.4876 23.3866 92.4876 23.9359C92.4876 24.5907 92.4196 25.2289 92.31 25.8529C93.0059 24.4044 93.4074 22.7888 93.4074 21.0772Z" fill="#ABA9B8"/>
<path d="M92.356 22.3229C91.7028 17.8763 88.4065 14.2882 84.1129 13.2051C83.2457 12.9863 82.3432 12.8574 81.409 12.8574C81.1277 12.8574 80.8516 12.879 80.5756 12.8997C77.7834 13.1091 75.2793 14.3527 73.4447 16.2547C72.9117 17.2325 72.5468 18.3112 72.3613 19.4496C73.4384 17.2862 75.2587 15.556 77.496 14.6134C78.5142 14.1844 79.6196 13.9289 80.7742 13.8567C80.9852 13.8435 81.1947 13.8245 81.409 13.8245C86.9851 13.8245 91.5211 18.3604 91.5211 23.9361C91.5211 24.4914 91.4643 25.0325 91.3777 25.5638C91.1922 26.7018 90.8276 27.7802 90.2947 28.7579C89.1441 30.8688 87.2581 32.5165 84.9882 33.3795C86.1411 33.3065 87.245 33.0509 88.2618 32.6222C90.3527 30.9694 91.8301 28.5834 92.3094 25.8531C92.419 25.2291 92.487 24.5909 92.487 23.9361C92.4871 23.3868 92.4335 22.851 92.356 22.3229Z" fill="#ABA9B8"/>
</g>
<defs>
<clipPath id="clip0_5602_25105">
<rect width="147.685" height="44" fill="white" transform="translate(14 10.0005)"/>
</clipPath>
</defs>
</svg>
