<svg width="176" height="64" viewBox="0 0 176 64" fill="none" xmlns="http://www.w3.org/2000/svg">
<g clip-path="url(#clip0_5602_36427)">
<path d="M17.2876 52.7277C19.627 52.7277 21.1412 51.0458 21.1412 48.6302C21.1412 46.1846 19.612 44.5334 17.2876 44.5334H15.3455V52.7277H17.2876ZM17.2876 43.28C20.4835 43.28 22.5174 45.4971 22.5174 48.6302C22.5174 51.7953 20.4073 53.981 17.2876 53.981H14V43.28H17.2876Z" fill="#20354A"/>
<path d="M25.2941 49.0823H29.9273C29.8355 47.9317 29.0246 47.1247 27.7403 47.1247C26.5016 47.1247 25.5839 47.8572 25.2941 49.0823ZM31.2116 50.0688H25.2016C25.2635 51.847 26.471 52.8927 28.0308 52.8927C28.8416 52.8927 29.9117 52.6241 30.7831 52.2352V53.356C30.0803 53.7448 28.9178 53.9988 27.9389 53.9988C25.3853 53.9988 23.918 52.2651 23.918 49.9491C23.918 47.483 25.569 46.0192 27.7097 46.0192C29.9579 46.0192 31.2266 47.588 31.2266 49.6653C31.2266 49.8295 31.2266 49.9644 31.2116 50.0688Z" fill="#20354A"/>
<path d="M38.3666 46.0185H39.6203V54H38.3666V52.7451C37.7856 53.4939 36.7911 53.9985 35.7211 53.9985C34.0545 53.9985 32.877 52.8825 32.877 50.8953V46.0185H34.1307V50.8953C34.1307 52.2099 34.9102 52.8675 36.0115 52.8675C36.9442 52.8675 37.8462 52.2711 38.3666 51.3993V46.0185Z" fill="#20354A"/>
<path d="M46.0504 52.6991V53.8151C45.6837 53.9219 45.1939 53.9987 44.6742 53.9987C42.6709 53.9987 41.7539 52.5767 41.7539 50.697V44.1589L42.824 43.2571H43.0076V46.0187H45.8667V47.0891H43.0076V50.6657C43.0076 51.7973 43.4511 52.8671 44.8579 52.8671C45.2858 52.8671 45.6987 52.7909 46.0504 52.6991Z" fill="#20354A"/>
<path d="M47.1276 53.4155V52.2801C47.8004 52.6683 48.8861 52.9076 49.6051 52.9076C50.5983 52.9076 51.4397 52.4895 51.4397 51.7869C51.4397 51.1893 50.9656 50.9048 50.3384 50.7406L48.9779 50.3676C47.6324 50.0087 47.0664 49.2914 47.0664 48.156C47.0664 46.8106 48.4119 46.0189 49.9874 46.0189C50.8432 46.0189 51.7152 46.2429 52.1581 46.5267V47.6628C51.501 47.2892 50.6139 47.1243 49.9105 47.1243C49.1303 47.1243 48.3507 47.4387 48.3507 48.1853C48.3507 48.6785 48.7174 48.9923 49.452 49.1864L50.6601 49.5307C52.2043 49.9043 52.7091 50.6814 52.7091 51.7869C52.7091 53.2367 51.3479 53.9985 49.5126 53.9985C48.6412 53.9985 47.5711 53.7146 47.1276 53.4155Z" fill="#20354A"/>
<path d="M53.7969 50.0096C53.7969 47.6189 55.6934 46.0205 58.0634 46.0205C58.8586 46.0205 59.5769 46.1999 60.1735 46.5283V47.7685H60.0973C59.577 47.3504 58.7817 47.1258 58.094 47.1258C56.4424 47.1258 55.0812 48.2762 55.0812 50.0096C55.0812 51.7429 56.4424 52.8933 58.094 52.8933C58.7817 52.8933 59.5769 52.6687 60.0973 52.2507H60.1735V53.4908C59.577 53.8192 58.8586 53.9986 58.0634 53.9986C55.6934 53.9986 53.7969 52.4002 53.7969 50.0096Z" fill="#20354A"/>
<path d="M68.6593 49.1047V53.9815H67.4206V49.1047C67.4206 47.7901 66.6254 47.1325 65.5397 47.1325C64.5921 47.1325 63.6894 47.7289 63.1697 48.6157V53.9815H61.916V43.2571H63.1697V47.2705C63.7507 46.5061 64.7445 46.0186 65.8152 46.0186C67.4818 46.0186 68.6593 47.1175 68.6593 49.1047Z" fill="#20354A"/>
<path d="M71.757 49.0837H76.3908C76.299 47.933 75.4888 47.126 74.2039 47.126C72.9651 47.126 72.0475 47.8585 71.757 49.0837ZM77.6752 49.9076H71.6652C71.727 51.8483 72.9345 52.894 74.4943 52.894C75.3052 52.894 76.3752 52.6254 77.2466 52.2366V53.3573C76.5439 53.7462 75.3814 54.0001 74.4031 54.0001C71.8495 54.0001 70.3809 52.2665 70.3809 49.9505C70.3809 47.4843 72.0325 46.0205 74.1732 46.0205C76.4214 46.0205 77.6581 47.5896 77.6901 49.6666C77.6927 49.8366 77.6918 49.8653 77.6822 49.9076L77.6752 49.9076Z" fill="#20354A"/>
<path d="M83.9396 43.2795H81.8145V53.9805H83.9396V43.2795Z" fill="#20354A"/>
<path d="M93.4727 49.085V53.9809H91.5V49.3293C91.5 48.2917 90.8884 47.7122 89.9708 47.7122C89.2674 47.7122 88.564 48.1241 88.0899 48.7647V53.9809H86.1172V46.0186H88.0899V47.1633C88.6709 46.4766 89.6191 46.0186 90.6129 46.0186C92.2646 46.0186 93.4727 47.0866 93.4727 49.085Z" fill="#20354A"/>
<path d="M100.594 46.0186L98.3954 50.8012L96.2547 46.0186H94.1445V46.1566L98.0281 53.9812H98.7471L102.719 46.1566V46.0186H100.594Z" fill="#20354A"/>
<path d="M104.754 49.0824H108.516C108.378 48.1259 107.751 47.5435 106.742 47.5435C105.748 47.5435 104.999 48.1259 104.754 49.0824ZM110.366 49.8296C110.366 49.9938 110.35 50.1879 110.335 50.3076H104.662C104.831 51.6829 105.778 52.4593 107.17 52.4593C107.996 52.4593 109.112 52.2054 109.892 51.8617V53.3561C109.25 53.6997 108.042 53.9989 106.941 53.9989C104.295 53.9989 102.797 52.2499 102.797 49.9486C102.797 47.483 104.494 46.0186 106.742 46.0186C109.082 46.0186 110.381 47.618 110.366 49.8296Z" fill="#20354A"/>
<path d="M111.615 53.4306V51.8612C112.334 52.28 113.419 52.504 114.199 52.504C114.887 52.504 115.591 52.2201 115.591 51.6824C115.591 51.2642 115.254 51.0396 114.78 50.9206L113.404 50.5616C112.013 50.2033 111.492 49.3212 111.492 48.2755C111.492 46.8709 112.884 46.0187 114.657 46.0187C115.559 46.0187 116.493 46.2281 116.967 46.512V48.0515C116.309 47.6926 115.361 47.543 114.642 47.543C114 47.543 113.434 47.767 113.434 48.3201C113.434 48.709 113.755 48.933 114.26 49.0673L115.529 49.4262C117.12 49.8443 117.532 50.7258 117.532 51.7123C117.532 53.2658 116.065 53.9984 114.23 53.9984C113.251 53.9983 112.104 53.7298 111.615 53.4306Z" fill="#20354A"/>
<path d="M123.674 52.1334V53.7847C123.231 53.922 122.604 53.9989 122.053 53.9989C119.622 53.9989 118.857 52.2252 118.857 50.421V44.3887L120.631 43.2571H120.83V46.0189H123.445V47.6089H120.83V50.4366C120.83 51.522 121.35 52.3014 122.451 52.3014C122.864 52.3014 123.292 52.2409 123.674 52.1334Z" fill="#20354A"/>
<path d="M137.142 49.085V53.9809H135.17V49.2832C135.17 48.3379 134.65 47.7123 133.87 47.7123C133.258 47.7123 132.662 48.1242 132.234 48.7492C132.249 48.8564 132.249 48.9785 132.249 49.085V53.9809H130.276V49.2832C130.276 48.3379 129.756 47.7123 128.977 47.7123C128.365 47.7123 127.783 48.1086 127.356 48.7342V53.9809H125.383V46.0186H127.356V47.1477C127.891 46.4766 128.655 46.0186 129.496 46.0186C130.582 46.0186 131.454 46.5221 131.912 47.4524C132.463 46.5988 133.487 46.0186 134.39 46.0186C135.995 46.0186 137.142 47.1477 137.142 49.085Z" fill="#20354A"/>
<path d="M140.564 49.0824H144.326C144.188 48.1259 143.562 47.5435 142.552 47.5435C141.558 47.5435 140.809 48.1259 140.564 49.0824ZM146.177 49.8296C146.177 49.9938 146.161 50.1879 146.146 50.3076H140.473C140.641 51.6829 141.589 52.4593 142.981 52.4593C143.807 52.4593 144.923 52.2054 145.702 51.8617V53.3561C145.06 53.6997 143.852 53.9989 142.751 53.9989C140.106 53.9989 138.607 52.2499 138.607 49.9486C138.607 47.483 140.305 46.0186 142.552 46.0186C144.892 46.0186 146.192 47.618 146.177 49.8296Z" fill="#20354A"/>
<path d="M155.068 49.085V53.9809H153.096V49.3293C153.096 48.2918 152.484 47.7123 151.566 47.7123C150.863 47.7123 150.16 48.1242 149.686 48.7648V53.9809H147.713V46.0186H149.686V47.1633C150.267 46.4766 151.215 46.0186 152.209 46.0186C153.86 46.0186 155.068 47.0867 155.068 49.085Z" fill="#20354A"/>
<path d="M161.686 52.1334V53.7847C161.242 53.922 160.616 53.9989 160.065 53.9989C157.634 53.9989 156.869 52.2252 156.869 50.421V44.3887L158.643 43.2571H158.842V46.0189H161.457V47.6089H158.842V50.4366C158.842 51.522 159.362 52.3014 160.463 52.3014C160.876 52.3014 161.304 52.2409 161.686 52.1334Z" fill="#20354A"/>
<path d="M81.6458 34.0332C81.5664 34.0351 81.4892 34.0452 81.4094 34.0452C75.834 34.0452 71.2985 29.51 71.2985 23.9355C71.2985 23.5137 71.3327 23.1005 71.3831 22.6922C71.3054 22.1634 71.2517 21.6269 71.2517 21.0769C71.2517 20.4221 71.3198 19.784 71.4293 19.1602C70.7335 20.6086 70.332 22.2241 70.332 23.9355C70.332 30.0427 75.3012 35.0123 81.4094 35.0123C82.7346 35.0123 84.0005 34.7663 85.1794 34.3376C84.9033 34.3583 84.6272 34.3799 84.3459 34.3799C83.4131 34.3799 82.5119 34.2513 81.6458 34.0332Z" fill="#224A65"/>
<path d="M80.5762 12.8989C80.8523 12.8782 81.1283 12.8566 81.4096 12.8566C82.3438 12.8566 83.2463 12.9856 84.1135 13.2043C84.1916 13.2025 84.2676 13.1925 84.3462 13.1925C86.7722 13.1925 89.0005 14.0526 90.7449 15.4821C90.1049 14.5231 89.3005 13.6865 88.3798 12.9957C87.128 12.5039 85.7703 12.2242 84.3462 12.2242C83.0209 12.2242 81.755 12.4702 80.5762 12.8989Z" fill="#224A65"/>
<path d="M75.932 28.8998C74.8607 27.2958 74.2334 25.3713 74.2334 23.3022C74.2334 18.9861 76.9581 15.3032 80.7743 13.8558C79.6197 13.9281 78.5143 14.1835 77.496 14.6125C74.9256 16.6431 73.2676 19.7799 73.2676 23.3022C73.2676 24.3456 73.4225 25.3518 73.6935 26.3097C74.2919 27.2937 75.045 28.1731 75.932 28.8998Z" fill="#224A65"/>
<path d="M91.4706 14.8328C92.1405 15.8104 92.6504 16.9025 92.9806 18.0701C93.9108 19.5989 94.4566 21.3859 94.4566 23.3022C94.4566 27.4887 91.8975 31.0882 88.2614 32.6213C87.2446 33.05 86.1407 33.3057 84.9878 33.3787C84.7742 33.3922 84.5621 33.4112 84.3451 33.4112C82.076 33.4112 79.9864 32.6511 78.2973 31.3847C77.1638 30.9398 76.1195 30.3192 75.2031 29.5469C76.7095 31.7449 78.9895 33.3641 81.645 34.0329C82.5111 34.251 83.4123 34.3795 84.3451 34.3795C84.6265 34.3795 84.9025 34.358 85.1786 34.3373C90.8976 33.9084 95.4225 29.1289 95.4225 23.3022C95.4225 19.9067 93.8838 16.8666 91.4706 14.8328Z" fill="#224A65"/>
<path d="M93.4074 21.0767C93.4074 20.0337 93.2524 19.0279 92.9816 18.0703C92.6514 16.9026 92.1416 15.8106 91.4716 14.833C89.4741 11.9181 86.1227 10 82.3293 10C76.876 10 72.3414 13.9647 71.4295 19.16C71.32 19.7839 71.252 20.422 71.252 21.0767C71.252 21.6268 71.3056 22.1633 71.3833 22.692C71.7858 25.428 73.1817 27.8426 75.2041 29.547C76.1205 30.3193 77.1648 30.9399 78.2983 31.3849C79.5493 31.8761 80.9061 32.1554 82.3293 32.1554C85.4564 32.1554 88.2792 30.8479 90.2953 28.7572C90.8282 27.7795 91.1928 26.701 91.3783 25.5631C89.7211 28.8912 86.2925 31.1883 82.3293 31.1883C79.904 31.1883 77.6765 30.3287 75.9325 28.8999C75.0455 28.1732 74.2924 27.2938 73.694 26.3098C72.7641 24.7809 72.2185 22.9936 72.2185 21.0767C72.2185 20.5214 72.2753 19.9801 72.3619 19.4489C72.5474 18.3105 72.9123 17.2318 73.4453 16.254C75.1608 13.1073 78.4995 10.9671 82.3293 10.9671C84.5994 10.9671 86.6901 11.728 88.3798 12.9958C89.3005 13.6866 90.1048 14.5232 90.7448 15.4822C91.8149 17.0856 92.4415 19.0088 92.4415 21.0767C92.4415 21.4993 92.4072 21.9131 92.3566 22.3222C92.4341 22.8503 92.4876 23.3861 92.4876 23.9354C92.4876 24.5902 92.4196 25.2285 92.31 25.8524C93.0059 24.404 93.4074 22.7883 93.4074 21.0767Z" fill="#20354A"/>
<path d="M92.356 22.3222C91.7028 17.8756 88.4065 14.2875 84.1129 13.2044C83.2457 12.9857 82.3432 12.8568 81.409 12.8568C81.1277 12.8568 80.8516 12.8783 80.5756 12.899C77.7834 13.1084 75.2793 14.352 73.4447 16.254C72.9117 17.2319 72.5468 18.3105 72.3613 19.4489C73.4384 17.2855 75.2587 15.5554 77.496 14.6127C78.5142 14.1837 79.6196 13.9282 80.7742 13.856C80.9852 13.8428 81.1947 13.8238 81.409 13.8238C86.9851 13.8238 91.5211 18.3597 91.5211 23.9354C91.5211 24.4907 91.4643 25.0319 91.3777 25.5631C91.1922 26.7011 90.8276 27.7796 90.2947 28.7572C89.1441 30.8681 87.2581 32.5158 84.9882 33.3789C86.1411 33.3059 87.245 33.0502 88.2618 32.6215C90.3527 30.9688 91.8301 28.5827 92.3094 25.8525C92.419 25.2285 92.487 24.5903 92.487 23.9354C92.4871 23.3861 92.4335 22.8503 92.356 22.3222Z" fill="#7996B4"/>
</g>
<defs>
<clipPath id="clip0_5602_36427">
<rect width="147.685" height="44" fill="white" transform="translate(14 10)"/>
</clipPath>
</defs>
</svg>
