<svg width="384" height="240" viewBox="0 0 384 240" fill="none" xmlns="http://www.w3.org/2000/svg">
<g clip-path="url(#clip0_4632_9214)">
<rect x="92.5" y="-47.5" width="63" height="63" rx="7.5" fill="white"/>
<rect x="92.5" y="-47.5" width="63" height="63" rx="7.5" stroke="#F3F2F5"/>
<rect x="160.5" y="-47.5" width="63" height="63" rx="7.5" fill="white"/>
<rect x="160.5" y="-47.5" width="63" height="63" rx="7.5" stroke="#F3F2F5"/>
<rect x="228.5" y="-47.5" width="63" height="63" rx="7.5" fill="white"/>
<rect x="228.5" y="-47.5" width="63" height="63" rx="7.5" stroke="#F3F2F5"/>
<rect x="24.5" y="20.5" width="63" height="63" rx="7.5" fill="white"/>
<rect x="24.5" y="20.5" width="63" height="63" rx="7.5" stroke="#F3F2F5"/>
<rect x="92.5" y="20.5" width="63" height="63" rx="7.5" fill="white"/>
<path d="M127.75 36L136 44.25L131.875 45L127.75 44.25L127 40.125L127.75 36Z" fill="#E9E8EB"/>
<path d="M127.25 44.25V44.75H127.75H135.5V65.75C135.5 66.717 134.717 67.5 133.75 67.5H114.25C113.283 67.5 112.5 66.717 112.5 65.75V38.25C112.5 37.283 113.283 36.5 114.25 36.5H127.25V44.25Z" stroke="#E9E8EB"/>
<path d="M122.05 50.5455L123.956 53.7678H124.03L125.946 50.5455H128.203L125.318 55.2727L128.268 60H125.969L124.03 56.7731H123.956L122.017 60H119.727L122.687 55.2727L119.783 50.5455H122.05Z" fill="#1DA364"/>
<rect x="92.5" y="20.5" width="63" height="63" rx="7.5" stroke="#F3F2F5"/>
<rect x="160.5" y="20.5" width="63" height="63" rx="7.5" fill="white"/>
<path d="M195.75 44.25L200.275 45.105L204 44.25L195.75 36L194.612 39.9113L195.75 44.25Z" fill="#E9E8EB"/>
<path d="M195.25 44.25V44.75H195.75H203.5V65.75C203.5 66.717 202.717 67.5 201.75 67.5H182.25C181.283 67.5 180.5 66.717 180.5 65.75V38.25C180.5 37.283 181.283 36.5 182.25 36.5H195.25V44.25Z" stroke="#E9E8EB"/>
<path d="M188.215 60L185.51 50.5455H187.693L189.258 57.1147H189.337L191.063 50.5455H192.933L194.655 57.1286H194.738L196.303 50.5455H198.487L195.781 60H193.833L192.033 53.8185H191.959L190.163 60H188.215Z" fill="#5181E0"/>
<rect x="160.5" y="20.5" width="63" height="63" rx="7.5" stroke="#F3F2F5"/>
<rect x="228.5" y="20.5" width="63" height="63" rx="7.5" fill="white"/>
<path d="M263.75 44.25L268.275 45.105L272 44.25L263.75 36L262.612 39.9113L263.75 44.25Z" fill="#E9E8EB"/>
<path d="M263.25 44.25V44.75H263.75H271.5V65.75C271.5 66.717 270.717 67.5 269.75 67.5H250.25C249.283 67.5 248.5 66.717 248.5 65.75V38.25C248.5 37.283 249.283 36.5 250.25 36.5H263.25V44.25Z" stroke="#E9E8EB"/>
<path d="M264.167 54.0811H263.982C263.847 54.0873 262.962 54.1385 261.726 54.3516C261.237 53.8938 260.826 53.3554 260.5 52.7448C260.543 52.6083 260.586 52.4714 260.628 52.3342C260.7 52.0456 261 50.7069 261 49.6892C261 48.758 260.253 48 259.333 48C258.415 48 257.667 48.758 257.667 49.6892C257.667 49.7042 257.675 51.1415 258.355 52.8294C258.006 53.8053 257.581 54.7851 257.092 55.7492C256.023 56.2589 255.14 56.8699 254.466 57.5671C254.156 57.8902 254 58.3083 254 58.815C254 59.7441 254.747 60.5 255.664 60.5C256.202 60.5 256.707 60.2366 257.017 59.7956C257.382 59.2774 257.932 58.44 258.533 57.329C259.319 57.0088 260.218 56.7382 261.213 56.5224C261.887 57.0051 262.65 57.394 263.485 57.6791C263.712 57.7551 263.954 57.7973 264.204 57.7973C265.213 57.7973 266 56.9823 266 55.9392C266 54.913 265.179 54.0811 264.167 54.0811ZM255.932 59.0135C255.77 59.2458 255.333 59.1486 255.333 58.7432C255.333 58.6548 255.365 58.5704 255.419 58.5136C255.868 58.0491 256.411 57.6546 257.003 57.3181C256.533 58.1351 256.136 58.7221 255.932 59.0135ZM259.333 49.3514C259.517 49.3514 259.667 49.5031 259.667 49.6892C259.667 50.4561 259.462 51.4455 259.381 51.8112C259.013 50.6731 259 49.7779 259 49.6892C259 49.5034 259.15 49.3514 259.333 49.3514ZM258.521 55.8801C258.876 55.1449 259.198 54.3932 259.484 53.6275C259.802 54.1778 260.208 54.7293 260.726 55.239C260.029 55.3986 259.271 55.6056 258.521 55.8801ZM264.204 56.4459C264.103 56.4459 264.002 56.4301 263.913 56.3984C263.3 56.1899 262.764 55.9288 262.295 55.6332C263.3 55.4367 263.988 55.4324 264 55.4324H264.167C264.442 55.4324 264.667 55.6594 264.667 55.9764C264.667 56.2348 264.458 56.4459 264.204 56.4459Z" fill="#C74137"/>
<rect x="228.5" y="20.5" width="63" height="63" rx="7.5" stroke="#F3F2F5"/>
<rect x="296.5" y="20.5" width="63" height="63" rx="7.5" fill="white"/>
<rect x="296.5" y="20.5" width="63" height="63" rx="7.5" stroke="#F3F2F5"/>
<rect x="24.5" y="88.5" width="63" height="63" rx="7.5" fill="white"/>
<rect x="24.5" y="88.5" width="63" height="63" rx="7.5" stroke="#F3F2F5"/>
<rect x="92.5" y="88.5" width="63" height="63" rx="7.5" fill="white"/>
<path d="M127.75 104L136 112.25L131.875 113L127.75 112.25L127 108.125L127.75 104Z" fill="#E9E8EB"/>
<path d="M127.25 112.25V112.75H127.75H135.5V133.75C135.5 134.717 134.717 135.5 133.75 135.5H114.25C113.283 135.5 112.5 134.717 112.5 133.75V106.25C112.5 105.283 113.283 104.5 114.25 104.5H127.25V112.25Z" stroke="#E9E8EB"/>
<path d="M120 126.09V118.91C120 118.492 120.44 118.22 120.814 118.407L127.994 121.997C128.408 122.204 128.408 122.796 127.994 123.003L120.814 126.593C120.44 126.78 120 126.508 120 126.09Z" fill="#A43B8F"/>
<rect x="92.5" y="88.5" width="63" height="63" rx="7.5" stroke="#F3F2F5"/>
<rect x="160" y="88" width="64" height="64" rx="8" fill="#5181E0"/>
<path fill-rule="evenodd" clip-rule="evenodd" d="M161.624 99.921C162.126 100.744 162.919 101.156 164.003 101.156C165.086 101.156 165.875 100.744 166.369 99.921C166.871 99.0977 167.123 97.945 167.123 96.463C167.123 94.981 166.871 93.8284 166.369 93.005C165.875 92.1817 165.086 91.77 164.003 91.77C162.919 91.77 162.126 92.1817 161.624 93.005C161.13 93.8284 160.883 94.981 160.883 96.463C160.883 97.945 161.13 99.0977 161.624 99.921ZM164.913 99.986C164.661 100.133 164.358 100.207 164.003 100.207C163.647 100.207 163.344 100.133 163.093 99.986C162.841 99.8387 162.638 99.6307 162.482 99.362C162.326 99.0934 162.209 98.777 162.131 98.413C162.061 98.049 162.027 97.646 162.027 97.204V95.722C162.027 95.28 162.061 94.877 162.131 94.513C162.209 94.149 162.326 93.8327 162.482 93.564C162.638 93.2954 162.841 93.0874 163.093 92.94C163.344 92.7927 163.647 92.719 164.003 92.719C164.358 92.719 164.661 92.7927 164.913 92.94C165.164 93.0874 165.368 93.2954 165.524 93.564C165.68 93.8327 165.792 94.149 165.862 94.513C165.94 94.877 165.979 95.28 165.979 95.722V97.204C165.979 97.646 165.94 98.049 165.862 98.413C165.792 98.777 165.68 99.0934 165.524 99.362C165.368 99.6307 165.164 99.8387 164.913 99.986Z" fill="url(#paint0_linear_4632_9214)"/>
<path d="M169.247 100.038V101H175.214V100.038H172.874V91.926H171.171L168.766 94.175L169.403 94.864L171.691 92.732H171.782V100.038H169.247Z" fill="url(#paint1_linear_4632_9214)"/>
<path fill-rule="evenodd" clip-rule="evenodd" d="M180.003 101.156C178.919 101.156 178.126 100.744 177.624 99.921C177.13 99.0977 176.883 97.945 176.883 96.463C176.883 94.981 177.13 93.8284 177.624 93.005C178.126 92.1817 178.919 91.77 180.003 91.77C181.086 91.77 181.875 92.1817 182.369 93.005C182.871 93.8284 183.123 94.981 183.123 96.463C183.123 97.945 182.871 99.0977 182.369 99.921C181.875 100.744 181.086 101.156 180.003 101.156ZM180.003 100.207C180.358 100.207 180.661 100.133 180.913 99.986C181.164 99.8387 181.368 99.6307 181.524 99.362C181.68 99.0934 181.792 98.777 181.862 98.413C181.94 98.049 181.979 97.646 181.979 97.204V95.722C181.979 95.28 181.94 94.877 181.862 94.513C181.792 94.149 181.68 93.8327 181.524 93.564C181.368 93.2954 181.164 93.0874 180.913 92.94C180.661 92.7927 180.358 92.719 180.003 92.719C179.647 92.719 179.344 92.7927 179.093 92.94C178.841 93.0874 178.638 93.2954 178.482 93.564C178.326 93.8327 178.209 94.149 178.131 94.513C178.061 94.877 178.027 95.28 178.027 95.722V97.204C178.027 97.646 178.061 98.049 178.131 98.413C178.209 98.777 178.326 99.0934 178.482 99.362C178.638 99.6307 178.841 99.8387 179.093 99.986C179.344 100.133 179.647 100.207 180.003 100.207Z" fill="url(#paint2_linear_4632_9214)"/>
<path fill-rule="evenodd" clip-rule="evenodd" d="M185.624 99.921C186.126 100.744 186.919 101.156 188.003 101.156C189.086 101.156 189.875 100.744 190.369 99.921C190.871 99.0977 191.123 97.945 191.123 96.463C191.123 94.981 190.871 93.8284 190.369 93.005C189.875 92.1817 189.086 91.77 188.003 91.77C186.919 91.77 186.126 92.1817 185.624 93.005C185.13 93.8284 184.883 94.981 184.883 96.463C184.883 97.945 185.13 99.0977 185.624 99.921ZM188.913 99.986C188.661 100.133 188.358 100.207 188.003 100.207C187.647 100.207 187.344 100.133 187.093 99.986C186.841 99.8387 186.638 99.6307 186.482 99.362C186.326 99.0934 186.209 98.777 186.131 98.413C186.061 98.049 186.027 97.646 186.027 97.204V95.722C186.027 95.28 186.061 94.877 186.131 94.513C186.209 94.149 186.326 93.8327 186.482 93.564C186.638 93.2954 186.841 93.0874 187.093 92.94C187.344 92.7927 187.647 92.719 188.003 92.719C188.358 92.719 188.661 92.7927 188.913 92.94C189.164 93.0874 189.368 93.2954 189.524 93.564C189.68 93.8327 189.792 94.149 189.862 94.513C189.94 94.877 189.979 95.28 189.979 95.722V97.204C189.979 97.646 189.94 98.049 189.862 98.413C189.792 98.777 189.68 99.0934 189.524 99.362C189.368 99.6307 189.164 99.8387 188.913 99.986Z" fill="url(#paint3_linear_4632_9214)"/>
<path d="M193.247 101V100.038H195.782V92.732H195.691L193.403 94.864L192.766 94.175L195.171 91.926H196.874V100.038H199.214V101H193.247Z" fill="url(#paint4_linear_4632_9214)"/>
<path d="M201.247 100.038V101H207.214V100.038H204.874V91.926H203.171L200.766 94.175L201.403 94.864L203.691 92.732H203.782V100.038H201.247Z" fill="url(#paint5_linear_4632_9214)"/>
<path fill-rule="evenodd" clip-rule="evenodd" d="M212.003 101.156C210.919 101.156 210.126 100.744 209.624 99.921C209.13 99.0977 208.883 97.945 208.883 96.463C208.883 94.981 209.13 93.8284 209.624 93.005C210.126 92.1817 210.919 91.77 212.003 91.77C213.086 91.77 213.875 92.1817 214.369 93.005C214.871 93.8284 215.123 94.981 215.123 96.463C215.123 97.945 214.871 99.0977 214.369 99.921C213.875 100.744 213.086 101.156 212.003 101.156ZM212.003 100.207C212.358 100.207 212.661 100.133 212.913 99.986C213.164 99.8387 213.368 99.6307 213.524 99.362C213.68 99.0934 213.792 98.777 213.862 98.413C213.94 98.049 213.979 97.646 213.979 97.204V95.722C213.979 95.28 213.94 94.877 213.862 94.513C213.792 94.149 213.68 93.8327 213.524 93.564C213.368 93.2954 213.164 93.0874 212.913 92.94C212.661 92.7927 212.358 92.719 212.003 92.719C211.647 92.719 211.344 92.7927 211.093 92.94C210.841 93.0874 210.638 93.2954 210.482 93.564C210.326 93.8327 210.209 94.149 210.131 94.513C210.061 94.877 210.027 95.28 210.027 95.722V97.204C210.027 97.646 210.061 98.049 210.131 98.413C210.209 98.777 210.326 99.0934 210.482 99.362C210.638 99.6307 210.841 99.8387 211.093 99.986C211.344 100.133 211.647 100.207 212.003 100.207Z" fill="url(#paint6_linear_4632_9214)"/>
<path d="M217.247 100.038V101H223.214V100.038H220.874V91.926H219.171L216.766 94.175L217.403 94.864L219.691 92.732H219.782V100.038H217.247Z" fill="url(#paint7_linear_4632_9214)"/>
<path fill-rule="evenodd" clip-rule="evenodd" d="M164.003 117.156C162.919 117.156 162.126 116.744 161.624 115.921C161.13 115.098 160.883 113.945 160.883 112.463C160.883 110.981 161.13 109.828 161.624 109.005C162.126 108.182 162.919 107.77 164.003 107.77C165.086 107.77 165.875 108.182 166.369 109.005C166.871 109.828 167.123 110.981 167.123 112.463C167.123 113.945 166.871 115.098 166.369 115.921C165.875 116.744 165.086 117.156 164.003 117.156ZM164.003 116.207C164.358 116.207 164.661 116.133 164.913 115.986C165.164 115.839 165.368 115.631 165.524 115.362C165.68 115.093 165.792 114.777 165.862 114.413C165.94 114.049 165.979 113.646 165.979 113.204V111.722C165.979 111.28 165.94 110.877 165.862 110.513C165.792 110.149 165.68 109.833 165.524 109.564C165.368 109.295 165.164 109.087 164.913 108.94C164.661 108.793 164.358 108.719 164.003 108.719C163.647 108.719 163.344 108.793 163.093 108.94C162.841 109.087 162.638 109.295 162.482 109.564C162.326 109.833 162.209 110.149 162.131 110.513C162.061 110.877 162.027 111.28 162.027 111.722V113.204C162.027 113.646 162.061 114.049 162.131 114.413C162.209 114.777 162.326 115.093 162.482 115.362C162.638 115.631 162.841 115.839 163.093 115.986C163.344 116.133 163.647 116.207 164.003 116.207Z" fill="url(#paint8_linear_4632_9214)"/>
<path d="M169.247 116.038V117H175.214V116.038H172.874V107.926H171.171L168.766 110.175L169.403 110.864L171.691 108.732H171.782V116.038H169.247Z" fill="url(#paint9_linear_4632_9214)"/>
<path d="M177.247 117V116.038H179.782V108.732H179.691L177.403 110.864L176.766 110.175L179.171 107.926H180.874V116.038H183.214V117H177.247Z" fill="url(#paint10_linear_4632_9214)"/>
<path fill-rule="evenodd" clip-rule="evenodd" d="M185.624 115.921C186.126 116.744 186.919 117.156 188.003 117.156C189.086 117.156 189.875 116.744 190.369 115.921C190.871 115.098 191.123 113.945 191.123 112.463C191.123 110.981 190.871 109.828 190.369 109.005C189.875 108.182 189.086 107.77 188.003 107.77C186.919 107.77 186.126 108.182 185.624 109.005C185.13 109.828 184.883 110.981 184.883 112.463C184.883 113.945 185.13 115.098 185.624 115.921ZM188.913 115.986C188.661 116.133 188.358 116.207 188.003 116.207C187.647 116.207 187.344 116.133 187.093 115.986C186.841 115.839 186.638 115.631 186.482 115.362C186.326 115.093 186.209 114.777 186.131 114.413C186.061 114.049 186.027 113.646 186.027 113.204V111.722C186.027 111.28 186.061 110.877 186.131 110.513C186.209 110.149 186.326 109.833 186.482 109.564C186.638 109.295 186.841 109.087 187.093 108.94C187.344 108.793 187.647 108.719 188.003 108.719C188.358 108.719 188.661 108.793 188.913 108.94C189.164 109.087 189.368 109.295 189.524 109.564C189.68 109.833 189.792 110.149 189.862 110.513C189.94 110.877 189.979 111.28 189.979 111.722V113.204C189.979 113.646 189.94 114.049 189.862 114.413C189.792 114.777 189.68 115.093 189.524 115.362C189.368 115.631 189.164 115.839 188.913 115.986Z" fill="url(#paint11_linear_4632_9214)"/>
<path fill-rule="evenodd" clip-rule="evenodd" d="M196.003 117.156C194.919 117.156 194.126 116.744 193.624 115.921C193.13 115.098 192.883 113.945 192.883 112.463C192.883 110.981 193.13 109.828 193.624 109.005C194.126 108.182 194.919 107.77 196.003 107.77C197.086 107.77 197.875 108.182 198.369 109.005C198.871 109.828 199.123 110.981 199.123 112.463C199.123 113.945 198.871 115.098 198.369 115.921C197.875 116.744 197.086 117.156 196.003 117.156ZM196.003 116.207C196.358 116.207 196.661 116.133 196.913 115.986C197.164 115.839 197.368 115.631 197.524 115.362C197.68 115.093 197.792 114.777 197.862 114.413C197.94 114.049 197.979 113.646 197.979 113.204V111.722C197.979 111.28 197.94 110.877 197.862 110.513C197.792 110.149 197.68 109.833 197.524 109.564C197.368 109.295 197.164 109.087 196.913 108.94C196.661 108.793 196.358 108.719 196.003 108.719C195.647 108.719 195.344 108.793 195.093 108.94C194.841 109.087 194.638 109.295 194.482 109.564C194.326 109.833 194.209 110.149 194.131 110.513C194.061 110.877 194.027 111.28 194.027 111.722V113.204C194.027 113.646 194.061 114.049 194.131 114.413C194.209 114.777 194.326 115.093 194.482 115.362C194.638 115.631 194.841 115.839 195.093 115.986C195.344 116.133 195.647 116.207 196.003 116.207Z" fill="url(#paint12_linear_4632_9214)"/>
<path fill-rule="evenodd" clip-rule="evenodd" d="M201.624 115.921C202.126 116.744 202.919 117.156 204.003 117.156C205.086 117.156 205.875 116.744 206.369 115.921C206.871 115.098 207.123 113.945 207.123 112.463C207.123 110.981 206.871 109.828 206.369 109.005C205.875 108.182 205.086 107.77 204.003 107.77C202.919 107.77 202.126 108.182 201.624 109.005C201.13 109.828 200.883 110.981 200.883 112.463C200.883 113.945 201.13 115.098 201.624 115.921ZM204.913 115.986C204.661 116.133 204.358 116.207 204.003 116.207C203.647 116.207 203.344 116.133 203.093 115.986C202.841 115.839 202.638 115.631 202.482 115.362C202.326 115.093 202.209 114.777 202.131 114.413C202.061 114.049 202.027 113.646 202.027 113.204V111.722C202.027 111.28 202.061 110.877 202.131 110.513C202.209 110.149 202.326 109.833 202.482 109.564C202.638 109.295 202.841 109.087 203.093 108.94C203.344 108.793 203.647 108.719 204.003 108.719C204.358 108.719 204.661 108.793 204.913 108.94C205.164 109.087 205.368 109.295 205.524 109.564C205.68 109.833 205.792 110.149 205.862 110.513C205.94 110.877 205.979 111.28 205.979 111.722V113.204C205.979 113.646 205.94 114.049 205.862 114.413C205.792 114.777 205.68 115.093 205.524 115.362C205.368 115.631 205.164 115.839 204.913 115.986Z" fill="url(#paint13_linear_4632_9214)"/>
<path d="M209.247 117V116.038H211.782V108.732H211.691L209.403 110.864L208.766 110.175L211.171 107.926H212.874V116.038H215.214V117H209.247Z" fill="url(#paint14_linear_4632_9214)"/>
<path fill-rule="evenodd" clip-rule="evenodd" d="M217.624 115.921C218.126 116.744 218.919 117.156 220.003 117.156C221.086 117.156 221.875 116.744 222.369 115.921C222.871 115.098 223.123 113.945 223.123 112.463C223.123 110.981 222.871 109.828 222.369 109.005C221.875 108.182 221.086 107.77 220.003 107.77C218.919 107.77 218.126 108.182 217.624 109.005C217.13 109.828 216.883 110.981 216.883 112.463C216.883 113.945 217.13 115.098 217.624 115.921ZM220.913 115.986C220.661 116.133 220.358 116.207 220.003 116.207C219.647 116.207 219.344 116.133 219.093 115.986C218.841 115.839 218.638 115.631 218.482 115.362C218.326 115.093 218.209 114.777 218.131 114.413C218.061 114.049 218.027 113.646 218.027 113.204V111.722C218.027 111.28 218.061 110.877 218.131 110.513C218.209 110.149 218.326 109.833 218.482 109.564C218.638 109.295 218.841 109.087 219.093 108.94C219.344 108.793 219.647 108.719 220.003 108.719C220.358 108.719 220.661 108.793 220.913 108.94C221.164 109.087 221.368 109.295 221.524 109.564C221.68 109.833 221.792 110.149 221.862 110.513C221.94 110.877 221.979 111.28 221.979 111.722V113.204C221.979 113.646 221.94 114.049 221.862 114.413C221.792 114.777 221.68 115.093 221.524 115.362C221.368 115.631 221.164 115.839 220.913 115.986Z" fill="url(#paint15_linear_4632_9214)"/>
<path d="M161.247 133V132.038H163.782V124.732H163.691L161.403 126.864L160.766 126.175L163.171 123.926H164.874V132.038H167.214V133H161.247Z" fill="url(#paint16_linear_4632_9214)"/>
<path d="M169.247 132.038V133H175.214V132.038H172.874V123.926H171.171L168.766 126.175L169.403 126.864L171.691 124.732H171.782V132.038H169.247Z" fill="url(#paint17_linear_4632_9214)"/>
<path fill-rule="evenodd" clip-rule="evenodd" d="M180.003 133.156C178.919 133.156 178.126 132.744 177.624 131.921C177.13 131.098 176.883 129.945 176.883 128.463C176.883 126.981 177.13 125.828 177.624 125.005C178.126 124.182 178.919 123.77 180.003 123.77C181.086 123.77 181.875 124.182 182.369 125.005C182.871 125.828 183.123 126.981 183.123 128.463C183.123 129.945 182.871 131.098 182.369 131.921C181.875 132.744 181.086 133.156 180.003 133.156ZM180.003 132.207C180.358 132.207 180.661 132.133 180.913 131.986C181.164 131.839 181.368 131.631 181.524 131.362C181.68 131.093 181.792 130.777 181.862 130.413C181.94 130.049 181.979 129.646 181.979 129.204V127.722C181.979 127.28 181.94 126.877 181.862 126.513C181.792 126.149 181.68 125.833 181.524 125.564C181.368 125.295 181.164 125.087 180.913 124.94C180.661 124.793 180.358 124.719 180.003 124.719C179.647 124.719 179.344 124.793 179.093 124.94C178.841 125.087 178.638 125.295 178.482 125.564C178.326 125.833 178.209 126.149 178.131 126.513C178.061 126.877 178.027 127.28 178.027 127.722V129.204C178.027 129.646 178.061 130.049 178.131 130.413C178.209 130.777 178.326 131.093 178.482 131.362C178.638 131.631 178.841 131.839 179.093 131.986C179.344 132.133 179.647 132.207 180.003 132.207Z" fill="url(#paint18_linear_4632_9214)"/>
<path d="M185.247 132.038V133H191.214V132.038H188.874V123.926H187.171L184.766 126.175L185.403 126.864L187.691 124.732H187.782V132.038H185.247Z" fill="url(#paint19_linear_4632_9214)"/>
<path fill-rule="evenodd" clip-rule="evenodd" d="M196.003 133.156C194.919 133.156 194.126 132.744 193.624 131.921C193.13 131.098 192.883 129.945 192.883 128.463C192.883 126.981 193.13 125.828 193.624 125.005C194.126 124.182 194.919 123.77 196.003 123.77C197.086 123.77 197.875 124.182 198.369 125.005C198.871 125.828 199.123 126.981 199.123 128.463C199.123 129.945 198.871 131.098 198.369 131.921C197.875 132.744 197.086 133.156 196.003 133.156ZM196.003 132.207C196.358 132.207 196.661 132.133 196.913 131.986C197.164 131.839 197.368 131.631 197.524 131.362C197.68 131.093 197.792 130.777 197.862 130.413C197.94 130.049 197.979 129.646 197.979 129.204V127.722C197.979 127.28 197.94 126.877 197.862 126.513C197.792 126.149 197.68 125.833 197.524 125.564C197.368 125.295 197.164 125.087 196.913 124.94C196.661 124.793 196.358 124.719 196.003 124.719C195.647 124.719 195.344 124.793 195.093 124.94C194.841 125.087 194.638 125.295 194.482 125.564C194.326 125.833 194.209 126.149 194.131 126.513C194.061 126.877 194.027 127.28 194.027 127.722V129.204C194.027 129.646 194.061 130.049 194.131 130.413C194.209 130.777 194.326 131.093 194.482 131.362C194.638 131.631 194.841 131.839 195.093 131.986C195.344 132.133 195.647 132.207 196.003 132.207Z" fill="url(#paint20_linear_4632_9214)"/>
<path d="M201.247 132.038V133H207.214V132.038H204.874V123.926H203.171L200.766 126.175L201.403 126.864L203.691 124.732H203.782V132.038H201.247Z" fill="url(#paint21_linear_4632_9214)"/>
<path fill-rule="evenodd" clip-rule="evenodd" d="M212.003 133.156C210.919 133.156 210.126 132.744 209.624 131.921C209.13 131.098 208.883 129.945 208.883 128.463C208.883 126.981 209.13 125.828 209.624 125.005C210.126 124.182 210.919 123.77 212.003 123.77C213.086 123.77 213.875 124.182 214.369 125.005C214.871 125.828 215.123 126.981 215.123 128.463C215.123 129.945 214.871 131.098 214.369 131.921C213.875 132.744 213.086 133.156 212.003 133.156ZM212.003 132.207C212.358 132.207 212.661 132.133 212.913 131.986C213.164 131.839 213.368 131.631 213.524 131.362C213.68 131.093 213.792 130.777 213.862 130.413C213.94 130.049 213.979 129.646 213.979 129.204V127.722C213.979 127.28 213.94 126.877 213.862 126.513C213.792 126.149 213.68 125.833 213.524 125.564C213.368 125.295 213.164 125.087 212.913 124.94C212.661 124.793 212.358 124.719 212.003 124.719C211.647 124.719 211.344 124.793 211.093 124.94C210.841 125.087 210.638 125.295 210.482 125.564C210.326 125.833 210.209 126.149 210.131 126.513C210.061 126.877 210.027 127.28 210.027 127.722V129.204C210.027 129.646 210.061 130.049 210.131 130.413C210.209 130.777 210.326 131.093 210.482 131.362C210.638 131.631 210.841 131.839 211.093 131.986C211.344 132.133 211.647 132.207 212.003 132.207Z" fill="url(#paint22_linear_4632_9214)"/>
<path d="M217.247 132.038V133H223.214V132.038H220.874V123.926H219.171L216.766 126.175L217.403 126.864L219.691 124.732H219.782V132.038H217.247Z" fill="url(#paint23_linear_4632_9214)"/>
<path fill-rule="evenodd" clip-rule="evenodd" d="M164.003 149.156C162.919 149.156 162.126 148.744 161.624 147.921C161.13 147.098 160.883 145.945 160.883 144.463C160.883 142.981 161.13 141.828 161.624 141.005C162.126 140.182 162.919 139.77 164.003 139.77C165.086 139.77 165.875 140.182 166.369 141.005C166.871 141.828 167.123 142.981 167.123 144.463C167.123 145.945 166.871 147.098 166.369 147.921C165.875 148.744 165.086 149.156 164.003 149.156ZM164.003 148.207C164.358 148.207 164.661 148.133 164.913 147.986C165.164 147.839 165.368 147.631 165.524 147.362C165.68 147.093 165.792 146.777 165.862 146.413C165.94 146.049 165.979 145.646 165.979 145.204V143.722C165.979 143.28 165.94 142.877 165.862 142.513C165.792 142.149 165.68 141.833 165.524 141.564C165.368 141.295 165.164 141.087 164.913 140.94C164.661 140.793 164.358 140.719 164.003 140.719C163.647 140.719 163.344 140.793 163.093 140.94C162.841 141.087 162.638 141.295 162.482 141.564C162.326 141.833 162.209 142.149 162.131 142.513C162.061 142.877 162.027 143.28 162.027 143.722V145.204C162.027 145.646 162.061 146.049 162.131 146.413C162.209 146.777 162.326 147.093 162.482 147.362C162.638 147.631 162.841 147.839 163.093 147.986C163.344 148.133 163.647 148.207 164.003 148.207Z" fill="url(#paint24_linear_4632_9214)"/>
<path d="M169.247 148.038V149H175.214V148.038H172.874V139.926H171.171L168.766 142.175L169.403 142.864L171.691 140.732H171.782V148.038H169.247Z" fill="url(#paint25_linear_4632_9214)"/>
<path d="M177.247 149V148.038H179.782V140.732H179.691L177.403 142.864L176.766 142.175L179.171 139.926H180.874V148.038H183.214V149H177.247Z" fill="url(#paint26_linear_4632_9214)"/>
<path fill-rule="evenodd" clip-rule="evenodd" d="M185.624 147.921C186.126 148.744 186.919 149.156 188.003 149.156C189.086 149.156 189.875 148.744 190.369 147.921C190.871 147.098 191.123 145.945 191.123 144.463C191.123 142.981 190.871 141.828 190.369 141.005C189.875 140.182 189.086 139.77 188.003 139.77C186.919 139.77 186.126 140.182 185.624 141.005C185.13 141.828 184.883 142.981 184.883 144.463C184.883 145.945 185.13 147.098 185.624 147.921ZM188.913 147.986C188.661 148.133 188.358 148.207 188.003 148.207C187.647 148.207 187.344 148.133 187.093 147.986C186.841 147.839 186.638 147.631 186.482 147.362C186.326 147.093 186.209 146.777 186.131 146.413C186.061 146.049 186.027 145.646 186.027 145.204V143.722C186.027 143.28 186.061 142.877 186.131 142.513C186.209 142.149 186.326 141.833 186.482 141.564C186.638 141.295 186.841 141.087 187.093 140.94C187.344 140.793 187.647 140.719 188.003 140.719C188.358 140.719 188.661 140.793 188.913 140.94C189.164 141.087 189.368 141.295 189.524 141.564C189.68 141.833 189.792 142.149 189.862 142.513C189.94 142.877 189.979 143.28 189.979 143.722V145.204C189.979 145.646 189.94 146.049 189.862 146.413C189.792 146.777 189.68 147.093 189.524 147.362C189.368 147.631 189.164 147.839 188.913 147.986Z" fill="url(#paint27_linear_4632_9214)"/>
<path fill-rule="evenodd" clip-rule="evenodd" d="M196.003 149.156C194.919 149.156 194.126 148.744 193.624 147.921C193.13 147.098 192.883 145.945 192.883 144.463C192.883 142.981 193.13 141.828 193.624 141.005C194.126 140.182 194.919 139.77 196.003 139.77C197.086 139.77 197.875 140.182 198.369 141.005C198.871 141.828 199.123 142.981 199.123 144.463C199.123 145.945 198.871 147.098 198.369 147.921C197.875 148.744 197.086 149.156 196.003 149.156ZM196.003 148.207C196.358 148.207 196.661 148.133 196.913 147.986C197.164 147.839 197.368 147.631 197.524 147.362C197.68 147.093 197.792 146.777 197.862 146.413C197.94 146.049 197.979 145.646 197.979 145.204V143.722C197.979 143.28 197.94 142.877 197.862 142.513C197.792 142.149 197.68 141.833 197.524 141.564C197.368 141.295 197.164 141.087 196.913 140.94C196.661 140.793 196.358 140.719 196.003 140.719C195.647 140.719 195.344 140.793 195.093 140.94C194.841 141.087 194.638 141.295 194.482 141.564C194.326 141.833 194.209 142.149 194.131 142.513C194.061 142.877 194.027 143.28 194.027 143.722V145.204C194.027 145.646 194.061 146.049 194.131 146.413C194.209 146.777 194.326 147.093 194.482 147.362C194.638 147.631 194.841 147.839 195.093 147.986C195.344 148.133 195.647 148.207 196.003 148.207Z" fill="url(#paint28_linear_4632_9214)"/>
<path d="M201.247 148.038V149H207.214V148.038H204.874V139.926H203.171L200.766 142.175L201.403 142.864L203.691 140.732H203.782V148.038H201.247Z" fill="url(#paint29_linear_4632_9214)"/>
<path d="M209.247 149V148.038H211.782V140.732H211.691L209.403 142.864L208.766 142.175L211.171 139.926H212.874V148.038H215.214V149H209.247Z" fill="url(#paint30_linear_4632_9214)"/>
<path fill-rule="evenodd" clip-rule="evenodd" d="M217.624 147.921C218.126 148.744 218.919 149.156 220.003 149.156C221.086 149.156 221.875 148.744 222.369 147.921C222.871 147.098 223.123 145.945 223.123 144.463C223.123 142.981 222.871 141.828 222.369 141.005C221.875 140.182 221.086 139.77 220.003 139.77C218.919 139.77 218.126 140.182 217.624 141.005C217.13 141.828 216.883 142.981 216.883 144.463C216.883 145.945 217.13 147.098 217.624 147.921ZM220.913 147.986C220.661 148.133 220.358 148.207 220.003 148.207C219.647 148.207 219.344 148.133 219.093 147.986C218.841 147.839 218.638 147.631 218.482 147.362C218.326 147.093 218.209 146.777 218.131 146.413C218.061 146.049 218.027 145.646 218.027 145.204V143.722C218.027 143.28 218.061 142.877 218.131 142.513C218.209 142.149 218.326 141.833 218.482 141.564C218.638 141.295 218.841 141.087 219.093 140.94C219.344 140.793 219.647 140.719 220.003 140.719C220.358 140.719 220.661 140.793 220.913 140.94C221.164 141.087 221.368 141.295 221.524 141.564C221.68 141.833 221.792 142.149 221.862 142.513C221.94 142.877 221.979 143.28 221.979 143.722V145.204C221.979 145.646 221.94 146.049 221.862 146.413C221.792 146.777 221.68 147.093 221.524 147.362C221.368 147.631 221.164 147.839 220.913 147.986Z" fill="url(#paint31_linear_4632_9214)"/>
<path d="M177 128H207" stroke="white" stroke-width="2" stroke-linecap="round"/>
<path d="M207.001 123C206.108 123.892 203.88 124.162 203.412 120.682C203.298 119.836 202.692 118.954 201.949 119.373C200.231 120.344 199.308 124.19 196.846 124.003C196.219 123.956 196.045 123.188 196.334 122.629C197.314 120.74 197.739 118.006 194.179 118.415C189.045 118.781 177.253 126.879 182.047 132.151C182.615 132.775 183.391 133.224 184.23 133.321C188.427 133.808 190.622 127.474 191.001 122C191.428 115.84 190.109 105.805 183.453 107.209C182.902 107.325 182.365 107.547 181.916 107.887C177.208 111.45 181.358 121.35 188.001 124" stroke="white" stroke-width="2" stroke-linecap="round"/>
<rect x="228.5" y="88.5" width="63" height="63" rx="7.5" fill="white"/>
<path d="M263.75 104L272 112.25L267.875 113L263.75 112.25L263 108.125L263.75 104Z" fill="#E9E8EB"/>
<path d="M263.25 112.25V112.75H263.75H271.5V133.75C271.5 134.717 270.717 135.5 269.75 135.5H250.25C249.283 135.5 248.5 134.717 248.5 133.75V106.25C248.5 105.283 249.283 104.5 250.25 104.5H263.25V112.25Z" stroke="#E9E8EB"/>
<path d="M261.833 119.583C261.735 119.376 261.5 119.25 261.252 119.25C261.004 119.25 260.767 119.375 260.628 119.584L258.501 122.774L257.875 121.836C257.737 121.626 257.502 121.499 257.249 121.499C256.996 121.499 256.764 121.625 256.626 121.833L254.126 125.583C254.051 125.696 254.007 125.827 254.001 125.963C253.994 126.098 254.025 126.233 254.089 126.353C254.153 126.473 254.248 126.573 254.365 126.643C254.482 126.712 254.615 126.749 254.751 126.749H265.25C265.526 126.749 265.781 126.597 265.911 126.353C265.975 126.233 266.006 126.098 265.999 125.963C265.993 125.827 265.949 125.696 265.874 125.583L261.833 119.583Z" fill="#7BB82C"/>
<circle cx="255.501" cy="118.5" r="1.49982" fill="#7BB82C"/>
<rect x="228.5" y="88.5" width="63" height="63" rx="7.5" stroke="#F3F2F5"/>
<rect x="296.5" y="88.5" width="63" height="63" rx="7.5" fill="white"/>
<rect x="296.5" y="88.5" width="63" height="63" rx="7.5" stroke="#F3F2F5"/>
<rect x="24.5" y="156.5" width="63" height="63" rx="7.5" fill="white"/>
<rect x="24.5" y="156.5" width="63" height="63" rx="7.5" stroke="#F3F2F5"/>
<rect x="92.5" y="156.5" width="63" height="63" rx="7.5" fill="white"/>
<path d="M127.75 172L136 180.25L131.875 181L127.75 180.25L127 176.125L127.75 172Z" fill="#E9E8EB"/>
<path d="M127.25 180.25V180.75H127.75H135.5V201.75C135.5 202.717 134.717 203.5 133.75 203.5H114.25C113.283 203.5 112.5 202.717 112.5 201.75V174.25C112.5 173.283 113.283 172.5 114.25 172.5H127.25V180.25Z" stroke="#E9E8EB"/>
<path d="M127.051 186.034L121.183 188.198C120.871 188.294 120.665 188.578 120.665 188.899V194.162C120.426 194.103 120.179 194.066 119.931 194.066C118.716 194.066 117.73 194.726 117.73 195.533C117.73 196.34 118.716 197 119.931 197C121.146 197 122.132 196.34 122.132 195.533V190.907L126.533 189.188V192.69C126.295 192.635 126.047 192.599 125.799 192.599C124.584 192.599 123.599 193.258 123.599 194.066C123.599 194.874 124.584 195.533 125.799 195.533C127.014 195.533 128 194.874 128 194.066V186.73C128 186.496 127.891 186.278 127.702 186.14C127.513 186.002 127.266 185.965 127.051 186.034Z" fill="#2E9BD1"/>
<rect x="92.5" y="156.5" width="63" height="63" rx="7.5" stroke="#F3F2F5"/>
<rect x="160.5" y="156.5" width="63" height="63" rx="7.5" fill="white"/>
<path d="M195.75 172L204 180.25L199.875 181L195.75 180.25L195 176.125L195.75 172Z" fill="#E9E8EB"/>
<path d="M195.25 180.25V180.75H195.75H203.5V201.75C203.5 202.717 202.717 203.5 201.75 203.5H182.25C181.283 203.5 180.5 202.717 180.5 201.75V174.25C180.5 173.283 181.283 172.5 182.25 172.5H195.25V180.25Z" stroke="#E9E8EB"/>
<path d="M190.106 188.293C189.716 187.902 189.083 187.902 188.693 188.293L186.293 190.693C185.902 191.083 185.902 191.717 186.293 192.108L188.693 194.507C188.891 194.707 189.146 194.802 189.401 194.802C189.656 194.802 189.913 194.705 190.108 194.51C190.499 194.119 190.499 193.485 190.108 193.094L188.417 191.402L190.109 189.711C190.456 189.318 190.456 188.688 190.106 188.293ZM195.305 188.293C194.915 187.902 194.282 187.902 193.892 188.293C193.501 188.683 193.501 189.318 193.892 189.708L195.585 191.402L193.893 193.094C193.502 193.485 193.502 194.119 193.893 194.509C194.091 194.707 194.346 194.802 194.601 194.802C194.856 194.802 195.112 194.705 195.307 194.51L197.707 192.11C198.098 191.72 198.098 191.085 197.707 190.695L195.305 188.293Z" fill="#626D7A"/>
<rect x="160.5" y="156.5" width="63" height="63" rx="7.5" stroke="#F3F2F5"/>
<rect x="228.5" y="156.5" width="63" height="63" rx="7.5" fill="white"/>
<path d="M263.75 172L272 180.25L267.875 181L263.75 180.25L263 176.125L263.75 172Z" fill="#E9E8EB"/>
<path d="M263.25 180.25V180.75H263.75H271.5V201.75C271.5 202.717 270.717 203.5 269.75 203.5H250.25C249.283 203.5 248.5 202.717 248.5 201.75V174.25C248.5 173.283 249.283 172.5 250.25 172.5H263.25V180.25Z" stroke="#E9E8EB"/>
<path d="M261.161 184H258.827V185.167H261.161V184ZM261.161 188.667H258.827V189.834H261.161V188.667ZM261.161 186.334H258.827V187.5H261.161V186.334ZM261.161 191.001H258.827L257.713 195.249C257.424 196.671 258.525 198 260.004 198C261.472 198 262.572 196.676 262.289 195.26L261.161 191.001ZM260.577 196.252H259.411C259.09 196.252 258.827 195.989 258.827 195.668C258.827 195.347 259.089 195.085 259.411 195.085H260.577C260.898 195.085 261.161 195.347 261.161 195.668C261.161 195.989 260.898 196.252 260.577 196.252Z" fill="#EB992F"/>
<rect x="228.5" y="156.5" width="63" height="63" rx="7.5" stroke="#F3F2F5"/>
<rect x="296.5" y="156.5" width="63" height="63" rx="7.5" fill="white"/>
<rect x="296.5" y="156.5" width="63" height="63" rx="7.5" stroke="#F3F2F5"/>
<rect x="92.5" y="224.5" width="63" height="63" rx="7.5" fill="white"/>
<rect x="92.5" y="224.5" width="63" height="63" rx="7.5" stroke="#F3F2F5"/>
<rect x="160.5" y="224.5" width="63" height="63" rx="7.5" fill="white"/>
<rect x="160.5" y="224.5" width="63" height="63" rx="7.5" stroke="#F3F2F5"/>
<rect x="228.5" y="224.5" width="63" height="63" rx="7.5" fill="white"/>
<rect x="228.5" y="224.5" width="63" height="63" rx="7.5" stroke="#F3F2F5"/>
<circle cx="192" cy="120" r="120" fill="url(#paint32_radial_4632_9214)"/>
</g>
<defs>
<linearGradient id="paint0_linear_4632_9214" x1="191.99" y1="91.77" x2="191.99" y2="149.156" gradientUnits="userSpaceOnUse">
<stop stop-color="white" stop-opacity="0.16"/>
<stop offset="1" stop-color="white" stop-opacity="0"/>
</linearGradient>
<linearGradient id="paint1_linear_4632_9214" x1="191.99" y1="91.77" x2="191.99" y2="149.156" gradientUnits="userSpaceOnUse">
<stop stop-color="white" stop-opacity="0.16"/>
<stop offset="1" stop-color="white" stop-opacity="0"/>
</linearGradient>
<linearGradient id="paint2_linear_4632_9214" x1="191.99" y1="91.77" x2="191.99" y2="149.156" gradientUnits="userSpaceOnUse">
<stop stop-color="white" stop-opacity="0.16"/>
<stop offset="1" stop-color="white" stop-opacity="0"/>
</linearGradient>
<linearGradient id="paint3_linear_4632_9214" x1="191.99" y1="91.77" x2="191.99" y2="149.156" gradientUnits="userSpaceOnUse">
<stop stop-color="white" stop-opacity="0.16"/>
<stop offset="1" stop-color="white" stop-opacity="0"/>
</linearGradient>
<linearGradient id="paint4_linear_4632_9214" x1="191.99" y1="91.77" x2="191.99" y2="149.156" gradientUnits="userSpaceOnUse">
<stop stop-color="white" stop-opacity="0.16"/>
<stop offset="1" stop-color="white" stop-opacity="0"/>
</linearGradient>
<linearGradient id="paint5_linear_4632_9214" x1="191.99" y1="91.77" x2="191.99" y2="149.156" gradientUnits="userSpaceOnUse">
<stop stop-color="white" stop-opacity="0.16"/>
<stop offset="1" stop-color="white" stop-opacity="0"/>
</linearGradient>
<linearGradient id="paint6_linear_4632_9214" x1="191.99" y1="91.77" x2="191.99" y2="149.156" gradientUnits="userSpaceOnUse">
<stop stop-color="white" stop-opacity="0.16"/>
<stop offset="1" stop-color="white" stop-opacity="0"/>
</linearGradient>
<linearGradient id="paint7_linear_4632_9214" x1="191.99" y1="91.77" x2="191.99" y2="149.156" gradientUnits="userSpaceOnUse">
<stop stop-color="white" stop-opacity="0.16"/>
<stop offset="1" stop-color="white" stop-opacity="0"/>
</linearGradient>
<linearGradient id="paint8_linear_4632_9214" x1="191.99" y1="91.77" x2="191.99" y2="149.156" gradientUnits="userSpaceOnUse">
<stop stop-color="white" stop-opacity="0.16"/>
<stop offset="1" stop-color="white" stop-opacity="0"/>
</linearGradient>
<linearGradient id="paint9_linear_4632_9214" x1="191.99" y1="91.77" x2="191.99" y2="149.156" gradientUnits="userSpaceOnUse">
<stop stop-color="white" stop-opacity="0.16"/>
<stop offset="1" stop-color="white" stop-opacity="0"/>
</linearGradient>
<linearGradient id="paint10_linear_4632_9214" x1="191.99" y1="91.77" x2="191.99" y2="149.156" gradientUnits="userSpaceOnUse">
<stop stop-color="white" stop-opacity="0.16"/>
<stop offset="1" stop-color="white" stop-opacity="0"/>
</linearGradient>
<linearGradient id="paint11_linear_4632_9214" x1="191.99" y1="91.77" x2="191.99" y2="149.156" gradientUnits="userSpaceOnUse">
<stop stop-color="white" stop-opacity="0.16"/>
<stop offset="1" stop-color="white" stop-opacity="0"/>
</linearGradient>
<linearGradient id="paint12_linear_4632_9214" x1="191.99" y1="91.77" x2="191.99" y2="149.156" gradientUnits="userSpaceOnUse">
<stop stop-color="white" stop-opacity="0.16"/>
<stop offset="1" stop-color="white" stop-opacity="0"/>
</linearGradient>
<linearGradient id="paint13_linear_4632_9214" x1="191.99" y1="91.77" x2="191.99" y2="149.156" gradientUnits="userSpaceOnUse">
<stop stop-color="white" stop-opacity="0.16"/>
<stop offset="1" stop-color="white" stop-opacity="0"/>
</linearGradient>
<linearGradient id="paint14_linear_4632_9214" x1="191.99" y1="91.77" x2="191.99" y2="149.156" gradientUnits="userSpaceOnUse">
<stop stop-color="white" stop-opacity="0.16"/>
<stop offset="1" stop-color="white" stop-opacity="0"/>
</linearGradient>
<linearGradient id="paint15_linear_4632_9214" x1="191.99" y1="91.77" x2="191.99" y2="149.156" gradientUnits="userSpaceOnUse">
<stop stop-color="white" stop-opacity="0.16"/>
<stop offset="1" stop-color="white" stop-opacity="0"/>
</linearGradient>
<linearGradient id="paint16_linear_4632_9214" x1="191.99" y1="91.77" x2="191.99" y2="149.156" gradientUnits="userSpaceOnUse">
<stop stop-color="white" stop-opacity="0.16"/>
<stop offset="1" stop-color="white" stop-opacity="0"/>
</linearGradient>
<linearGradient id="paint17_linear_4632_9214" x1="191.99" y1="91.77" x2="191.99" y2="149.156" gradientUnits="userSpaceOnUse">
<stop stop-color="white" stop-opacity="0.16"/>
<stop offset="1" stop-color="white" stop-opacity="0"/>
</linearGradient>
<linearGradient id="paint18_linear_4632_9214" x1="191.99" y1="91.77" x2="191.99" y2="149.156" gradientUnits="userSpaceOnUse">
<stop stop-color="white" stop-opacity="0.16"/>
<stop offset="1" stop-color="white" stop-opacity="0"/>
</linearGradient>
<linearGradient id="paint19_linear_4632_9214" x1="191.99" y1="91.77" x2="191.99" y2="149.156" gradientUnits="userSpaceOnUse">
<stop stop-color="white" stop-opacity="0.16"/>
<stop offset="1" stop-color="white" stop-opacity="0"/>
</linearGradient>
<linearGradient id="paint20_linear_4632_9214" x1="191.99" y1="91.77" x2="191.99" y2="149.156" gradientUnits="userSpaceOnUse">
<stop stop-color="white" stop-opacity="0.16"/>
<stop offset="1" stop-color="white" stop-opacity="0"/>
</linearGradient>
<linearGradient id="paint21_linear_4632_9214" x1="191.99" y1="91.77" x2="191.99" y2="149.156" gradientUnits="userSpaceOnUse">
<stop stop-color="white" stop-opacity="0.16"/>
<stop offset="1" stop-color="white" stop-opacity="0"/>
</linearGradient>
<linearGradient id="paint22_linear_4632_9214" x1="191.99" y1="91.77" x2="191.99" y2="149.156" gradientUnits="userSpaceOnUse">
<stop stop-color="white" stop-opacity="0.16"/>
<stop offset="1" stop-color="white" stop-opacity="0"/>
</linearGradient>
<linearGradient id="paint23_linear_4632_9214" x1="191.99" y1="91.77" x2="191.99" y2="149.156" gradientUnits="userSpaceOnUse">
<stop stop-color="white" stop-opacity="0.16"/>
<stop offset="1" stop-color="white" stop-opacity="0"/>
</linearGradient>
<linearGradient id="paint24_linear_4632_9214" x1="191.99" y1="91.77" x2="191.99" y2="149.156" gradientUnits="userSpaceOnUse">
<stop stop-color="white" stop-opacity="0.16"/>
<stop offset="1" stop-color="white" stop-opacity="0"/>
</linearGradient>
<linearGradient id="paint25_linear_4632_9214" x1="191.99" y1="91.77" x2="191.99" y2="149.156" gradientUnits="userSpaceOnUse">
<stop stop-color="white" stop-opacity="0.16"/>
<stop offset="1" stop-color="white" stop-opacity="0"/>
</linearGradient>
<linearGradient id="paint26_linear_4632_9214" x1="191.99" y1="91.77" x2="191.99" y2="149.156" gradientUnits="userSpaceOnUse">
<stop stop-color="white" stop-opacity="0.16"/>
<stop offset="1" stop-color="white" stop-opacity="0"/>
</linearGradient>
<linearGradient id="paint27_linear_4632_9214" x1="191.99" y1="91.77" x2="191.99" y2="149.156" gradientUnits="userSpaceOnUse">
<stop stop-color="white" stop-opacity="0.16"/>
<stop offset="1" stop-color="white" stop-opacity="0"/>
</linearGradient>
<linearGradient id="paint28_linear_4632_9214" x1="191.99" y1="91.77" x2="191.99" y2="149.156" gradientUnits="userSpaceOnUse">
<stop stop-color="white" stop-opacity="0.16"/>
<stop offset="1" stop-color="white" stop-opacity="0"/>
</linearGradient>
<linearGradient id="paint29_linear_4632_9214" x1="191.99" y1="91.77" x2="191.99" y2="149.156" gradientUnits="userSpaceOnUse">
<stop stop-color="white" stop-opacity="0.16"/>
<stop offset="1" stop-color="white" stop-opacity="0"/>
</linearGradient>
<linearGradient id="paint30_linear_4632_9214" x1="191.99" y1="91.77" x2="191.99" y2="149.156" gradientUnits="userSpaceOnUse">
<stop stop-color="white" stop-opacity="0.16"/>
<stop offset="1" stop-color="white" stop-opacity="0"/>
</linearGradient>
<linearGradient id="paint31_linear_4632_9214" x1="191.99" y1="91.77" x2="191.99" y2="149.156" gradientUnits="userSpaceOnUse">
<stop stop-color="white" stop-opacity="0.16"/>
<stop offset="1" stop-color="white" stop-opacity="0"/>
</linearGradient>
<radialGradient id="paint32_radial_4632_9214" cx="0" cy="0" r="1" gradientUnits="userSpaceOnUse" gradientTransform="translate(192 120) rotate(90) scale(120)">
<stop offset="0.8125" stop-color="white" stop-opacity="0"/>
<stop offset="1" stop-color="white"/>
</radialGradient>
<clipPath id="clip0_4632_9214">
<rect x="72" width="240" height="240" rx="120" fill="white"/>
</clipPath>
</defs>
</svg>
