<svg width="328" height="240" viewBox="0 0 328 240" fill="none" xmlns="http://www.w3.org/2000/svg">
<g clip-path="url(#clip0_4632_20193)">
<rect x="64.5" y="-47.5" width="63" height="63" rx="7.5" fill="white"/>
<rect x="64.5" y="-47.5" width="63" height="63" rx="7.5" stroke="#F3F2F5"/>
<rect x="132.5" y="-47.5" width="63" height="63" rx="7.5" fill="white"/>
<rect x="132.5" y="-47.5" width="63" height="63" rx="7.5" stroke="#F3F2F5"/>
<rect x="200.5" y="-47.5" width="63" height="63" rx="7.5" fill="white"/>
<rect x="200.5" y="-47.5" width="63" height="63" rx="7.5" stroke="#F3F2F5"/>
<rect x="-3.5" y="20.5" width="63" height="63" rx="7.5" fill="white"/>
<rect x="-3.5" y="20.5" width="63" height="63" rx="7.5" stroke="#F3F2F5"/>
<rect x="64.5" y="20.5" width="63" height="63" rx="7.5" fill="white"/>
<path d="M99.75 36L108 44.25L103.875 45L99.75 44.25L99 40.125L99.75 36Z" fill="#E9E8EB"/>
<path d="M99.25 44.25V44.75H99.75H107.5V65.75C107.5 66.717 106.717 67.5 105.75 67.5H86.25C85.283 67.5 84.5 66.717 84.5 65.75V38.25C84.5 37.283 85.283 36.5 86.25 36.5H99.25V44.25Z" stroke="#E9E8EB"/>
<path d="M94.0495 50.5455L95.9561 53.7678H96.03L97.9458 50.5455H100.203L97.318 55.2727L100.268 60H97.9689L96.03 56.7731H95.9561L94.0172 60H91.7275L94.6866 55.2727L91.7828 50.5455H94.0495Z" fill="#1DA364"/>
<rect x="64.5" y="20.5" width="63" height="63" rx="7.5" stroke="#F3F2F5"/>
<rect x="132.5" y="20.5" width="63" height="63" rx="7.5" fill="white"/>
<path d="M167.75 44.25L172.275 45.105L176 44.25L167.75 36L166.612 39.9113L167.75 44.25Z" fill="#E9E8EB"/>
<path d="M167.25 44.25V44.75H167.75H175.5V65.75C175.5 66.717 174.717 67.5 173.75 67.5H154.25C153.283 67.5 152.5 66.717 152.5 65.75V38.25C152.5 37.283 153.283 36.5 154.25 36.5H167.25V44.25Z" stroke="#E9E8EB"/>
<path d="M160.215 60L157.51 50.5455H159.693L161.258 57.1147H161.337L163.063 50.5455H164.933L166.655 57.1286H166.738L168.303 50.5455H170.487L167.781 60H165.833L164.033 53.8185H163.959L162.163 60H160.215Z" fill="#5181E0"/>
<rect x="132.5" y="20.5" width="63" height="63" rx="7.5" stroke="#F3F2F5"/>
<rect x="200.5" y="20.5" width="63" height="63" rx="7.5" fill="white"/>
<path d="M235.75 44.25L240.275 45.105L244 44.25L235.75 36L234.612 39.9113L235.75 44.25Z" fill="#E9E8EB"/>
<path d="M235.25 44.25V44.75H235.75H243.5V65.75C243.5 66.717 242.717 67.5 241.75 67.5H222.25C221.283 67.5 220.5 66.717 220.5 65.75V38.25C220.5 37.283 221.283 36.5 222.25 36.5H235.25V44.25Z" stroke="#E9E8EB"/>
<path d="M236.167 54.0811H235.982C235.847 54.0873 234.962 54.1385 233.726 54.3516C233.237 53.8938 232.826 53.3554 232.5 52.7448C232.543 52.6083 232.586 52.4714 232.628 52.3342C232.7 52.0456 233 50.7069 233 49.6892C233 48.758 232.253 48 231.333 48C230.415 48 229.667 48.758 229.667 49.6892C229.667 49.7042 229.675 51.1415 230.355 52.8294C230.006 53.8053 229.581 54.7851 229.092 55.7492C228.023 56.2589 227.14 56.8699 226.466 57.5671C226.156 57.8902 226 58.3083 226 58.815C226 59.7441 226.747 60.5 227.664 60.5C228.202 60.5 228.707 60.2366 229.017 59.7956C229.382 59.2774 229.932 58.44 230.533 57.329C231.319 57.0088 232.218 56.7382 233.213 56.5224C233.887 57.0051 234.65 57.394 235.485 57.6791C235.712 57.7551 235.954 57.7973 236.204 57.7973C237.213 57.7973 238 56.9823 238 55.9392C238 54.913 237.179 54.0811 236.167 54.0811ZM227.932 59.0135C227.77 59.2458 227.333 59.1486 227.333 58.7432C227.333 58.6548 227.365 58.5704 227.419 58.5136C227.868 58.0491 228.411 57.6546 229.003 57.3181C228.533 58.1351 228.136 58.7221 227.932 59.0135ZM231.333 49.3514C231.517 49.3514 231.667 49.5031 231.667 49.6892C231.667 50.4561 231.462 51.4455 231.381 51.8112C231.013 50.6731 231 49.7779 231 49.6892C231 49.5034 231.15 49.3514 231.333 49.3514ZM230.521 55.8801C230.876 55.1449 231.198 54.3932 231.484 53.6275C231.802 54.1778 232.208 54.7293 232.726 55.239C232.029 55.3986 231.271 55.6056 230.521 55.8801ZM236.204 56.4459C236.103 56.4459 236.002 56.4301 235.913 56.3984C235.3 56.1899 234.764 55.9288 234.295 55.6332C235.3 55.4367 235.988 55.4324 236 55.4324H236.167C236.442 55.4324 236.667 55.6594 236.667 55.9764C236.667 56.2348 236.458 56.4459 236.204 56.4459Z" fill="#C74137"/>
<rect x="200.5" y="20.5" width="63" height="63" rx="7.5" stroke="#F3F2F5"/>
<rect x="268.5" y="20.5" width="63" height="63" rx="7.5" fill="white"/>
<rect x="268.5" y="20.5" width="63" height="63" rx="7.5" stroke="#F3F2F5"/>
<rect x="-3.5" y="88.5" width="63" height="63" rx="7.5" fill="white"/>
<rect x="-3.5" y="88.5" width="63" height="63" rx="7.5" stroke="#F3F2F5"/>
<rect x="64.5" y="88.5" width="63" height="63" rx="7.5" fill="white"/>
<path d="M99.75 104L108 112.25L103.875 113L99.75 112.25L99 108.125L99.75 104Z" fill="#E9E8EB"/>
<path d="M99.25 112.25V112.75H99.75H107.5V133.75C107.5 134.717 106.717 135.5 105.75 135.5H86.25C85.283 135.5 84.5 134.717 84.5 133.75V106.25C84.5 105.283 85.283 104.5 86.25 104.5H99.25V112.25Z" stroke="#E9E8EB"/>
<path d="M92 126.09V118.91C92 118.492 92.44 118.22 92.8141 118.407L99.9938 121.997C100.408 122.204 100.408 122.796 99.9938 123.003L92.8141 126.593C92.4401 126.78 92 126.508 92 126.09Z" fill="#A43B8F"/>
<rect x="64.5" y="88.5" width="63" height="63" rx="7.5" stroke="#F3F2F5"/>
<rect x="132" y="88" width="64" height="64" rx="8" fill="#5181E0"/>
<path fill-rule="evenodd" clip-rule="evenodd" d="M133.624 99.921C134.126 100.744 134.919 101.156 136.003 101.156C137.086 101.156 137.875 100.744 138.369 99.921C138.871 99.0977 139.123 97.945 139.123 96.463C139.123 94.981 138.871 93.8284 138.369 93.005C137.875 92.1817 137.086 91.77 136.003 91.77C134.919 91.77 134.126 92.1817 133.624 93.005C133.13 93.8284 132.883 94.981 132.883 96.463C132.883 97.945 133.13 99.0977 133.624 99.921ZM136.913 99.986C136.661 100.133 136.358 100.207 136.003 100.207C135.647 100.207 135.344 100.133 135.093 99.986C134.841 99.8387 134.638 99.6307 134.482 99.362C134.326 99.0934 134.209 98.777 134.131 98.413C134.061 98.049 134.027 97.646 134.027 97.204V95.722C134.027 95.28 134.061 94.877 134.131 94.513C134.209 94.149 134.326 93.8327 134.482 93.564C134.638 93.2954 134.841 93.0874 135.093 92.94C135.344 92.7927 135.647 92.719 136.003 92.719C136.358 92.719 136.661 92.7927 136.913 92.94C137.164 93.0874 137.368 93.2954 137.524 93.564C137.68 93.8327 137.792 94.149 137.862 94.513C137.94 94.877 137.979 95.28 137.979 95.722V97.204C137.979 97.646 137.94 98.049 137.862 98.413C137.792 98.777 137.68 99.0934 137.524 99.362C137.368 99.6307 137.164 99.8387 136.913 99.986Z" fill="url(#paint0_linear_4632_20193)"/>
<path d="M141.247 100.038V101H147.214V100.038H144.874V91.926H143.171L140.766 94.175L141.403 94.864L143.691 92.732H143.782V100.038H141.247Z" fill="url(#paint1_linear_4632_20193)"/>
<path fill-rule="evenodd" clip-rule="evenodd" d="M152.003 101.156C150.919 101.156 150.126 100.744 149.624 99.921C149.13 99.0977 148.883 97.945 148.883 96.463C148.883 94.981 149.13 93.8284 149.624 93.005C150.126 92.1817 150.919 91.77 152.003 91.77C153.086 91.77 153.875 92.1817 154.369 93.005C154.871 93.8284 155.123 94.981 155.123 96.463C155.123 97.945 154.871 99.0977 154.369 99.921C153.875 100.744 153.086 101.156 152.003 101.156ZM152.003 100.207C152.358 100.207 152.661 100.133 152.913 99.986C153.164 99.8387 153.368 99.6307 153.524 99.362C153.68 99.0934 153.792 98.777 153.862 98.413C153.94 98.049 153.979 97.646 153.979 97.204V95.722C153.979 95.28 153.94 94.877 153.862 94.513C153.792 94.149 153.68 93.8327 153.524 93.564C153.368 93.2954 153.164 93.0874 152.913 92.94C152.661 92.7927 152.358 92.719 152.003 92.719C151.647 92.719 151.344 92.7927 151.093 92.94C150.841 93.0874 150.638 93.2954 150.482 93.564C150.326 93.8327 150.209 94.149 150.131 94.513C150.061 94.877 150.027 95.28 150.027 95.722V97.204C150.027 97.646 150.061 98.049 150.131 98.413C150.209 98.777 150.326 99.0934 150.482 99.362C150.638 99.6307 150.841 99.8387 151.093 99.986C151.344 100.133 151.647 100.207 152.003 100.207Z" fill="url(#paint2_linear_4632_20193)"/>
<path fill-rule="evenodd" clip-rule="evenodd" d="M157.624 99.921C158.126 100.744 158.919 101.156 160.003 101.156C161.086 101.156 161.875 100.744 162.369 99.921C162.871 99.0977 163.123 97.945 163.123 96.463C163.123 94.981 162.871 93.8284 162.369 93.005C161.875 92.1817 161.086 91.77 160.003 91.77C158.919 91.77 158.126 92.1817 157.624 93.005C157.13 93.8284 156.883 94.981 156.883 96.463C156.883 97.945 157.13 99.0977 157.624 99.921ZM160.913 99.986C160.661 100.133 160.358 100.207 160.003 100.207C159.647 100.207 159.344 100.133 159.093 99.986C158.841 99.8387 158.638 99.6307 158.482 99.362C158.326 99.0934 158.209 98.777 158.131 98.413C158.061 98.049 158.027 97.646 158.027 97.204V95.722C158.027 95.28 158.061 94.877 158.131 94.513C158.209 94.149 158.326 93.8327 158.482 93.564C158.638 93.2954 158.841 93.0874 159.093 92.94C159.344 92.7927 159.647 92.719 160.003 92.719C160.358 92.719 160.661 92.7927 160.913 92.94C161.164 93.0874 161.368 93.2954 161.524 93.564C161.68 93.8327 161.792 94.149 161.862 94.513C161.94 94.877 161.979 95.28 161.979 95.722V97.204C161.979 97.646 161.94 98.049 161.862 98.413C161.792 98.777 161.68 99.0934 161.524 99.362C161.368 99.6307 161.164 99.8387 160.913 99.986Z" fill="url(#paint3_linear_4632_20193)"/>
<path d="M165.247 101V100.038H167.782V92.732H167.691L165.403 94.864L164.766 94.175L167.171 91.926H168.874V100.038H171.214V101H165.247Z" fill="url(#paint4_linear_4632_20193)"/>
<path d="M173.247 100.038V101H179.214V100.038H176.874V91.926H175.171L172.766 94.175L173.403 94.864L175.691 92.732H175.782V100.038H173.247Z" fill="url(#paint5_linear_4632_20193)"/>
<path fill-rule="evenodd" clip-rule="evenodd" d="M184.003 101.156C182.919 101.156 182.126 100.744 181.624 99.921C181.13 99.0977 180.883 97.945 180.883 96.463C180.883 94.981 181.13 93.8284 181.624 93.005C182.126 92.1817 182.919 91.77 184.003 91.77C185.086 91.77 185.875 92.1817 186.369 93.005C186.871 93.8284 187.123 94.981 187.123 96.463C187.123 97.945 186.871 99.0977 186.369 99.921C185.875 100.744 185.086 101.156 184.003 101.156ZM184.003 100.207C184.358 100.207 184.661 100.133 184.913 99.986C185.164 99.8387 185.368 99.6307 185.524 99.362C185.68 99.0934 185.792 98.777 185.862 98.413C185.94 98.049 185.979 97.646 185.979 97.204V95.722C185.979 95.28 185.94 94.877 185.862 94.513C185.792 94.149 185.68 93.8327 185.524 93.564C185.368 93.2954 185.164 93.0874 184.913 92.94C184.661 92.7927 184.358 92.719 184.003 92.719C183.647 92.719 183.344 92.7927 183.093 92.94C182.841 93.0874 182.638 93.2954 182.482 93.564C182.326 93.8327 182.209 94.149 182.131 94.513C182.061 94.877 182.027 95.28 182.027 95.722V97.204C182.027 97.646 182.061 98.049 182.131 98.413C182.209 98.777 182.326 99.0934 182.482 99.362C182.638 99.6307 182.841 99.8387 183.093 99.986C183.344 100.133 183.647 100.207 184.003 100.207Z" fill="url(#paint6_linear_4632_20193)"/>
<path d="M189.247 100.038V101H195.214V100.038H192.874V91.926H191.171L188.766 94.175L189.403 94.864L191.691 92.732H191.782V100.038H189.247Z" fill="url(#paint7_linear_4632_20193)"/>
<path fill-rule="evenodd" clip-rule="evenodd" d="M136.003 117.156C134.919 117.156 134.126 116.744 133.624 115.921C133.13 115.098 132.883 113.945 132.883 112.463C132.883 110.981 133.13 109.828 133.624 109.005C134.126 108.182 134.919 107.77 136.003 107.77C137.086 107.77 137.875 108.182 138.369 109.005C138.871 109.828 139.123 110.981 139.123 112.463C139.123 113.945 138.871 115.098 138.369 115.921C137.875 116.744 137.086 117.156 136.003 117.156ZM136.003 116.207C136.358 116.207 136.661 116.133 136.913 115.986C137.164 115.839 137.368 115.631 137.524 115.362C137.68 115.093 137.792 114.777 137.862 114.413C137.94 114.049 137.979 113.646 137.979 113.204V111.722C137.979 111.28 137.94 110.877 137.862 110.513C137.792 110.149 137.68 109.833 137.524 109.564C137.368 109.295 137.164 109.087 136.913 108.94C136.661 108.793 136.358 108.719 136.003 108.719C135.647 108.719 135.344 108.793 135.093 108.94C134.841 109.087 134.638 109.295 134.482 109.564C134.326 109.833 134.209 110.149 134.131 110.513C134.061 110.877 134.027 111.28 134.027 111.722V113.204C134.027 113.646 134.061 114.049 134.131 114.413C134.209 114.777 134.326 115.093 134.482 115.362C134.638 115.631 134.841 115.839 135.093 115.986C135.344 116.133 135.647 116.207 136.003 116.207Z" fill="url(#paint8_linear_4632_20193)"/>
<path d="M141.247 116.038V117H147.214V116.038H144.874V107.926H143.171L140.766 110.175L141.403 110.864L143.691 108.732H143.782V116.038H141.247Z" fill="url(#paint9_linear_4632_20193)"/>
<path d="M149.247 117V116.038H151.782V108.732H151.691L149.403 110.864L148.766 110.175L151.171 107.926H152.874V116.038H155.214V117H149.247Z" fill="url(#paint10_linear_4632_20193)"/>
<path fill-rule="evenodd" clip-rule="evenodd" d="M157.624 115.921C158.126 116.744 158.919 117.156 160.003 117.156C161.086 117.156 161.875 116.744 162.369 115.921C162.871 115.098 163.123 113.945 163.123 112.463C163.123 110.981 162.871 109.828 162.369 109.005C161.875 108.182 161.086 107.77 160.003 107.77C158.919 107.77 158.126 108.182 157.624 109.005C157.13 109.828 156.883 110.981 156.883 112.463C156.883 113.945 157.13 115.098 157.624 115.921ZM160.913 115.986C160.661 116.133 160.358 116.207 160.003 116.207C159.647 116.207 159.344 116.133 159.093 115.986C158.841 115.839 158.638 115.631 158.482 115.362C158.326 115.093 158.209 114.777 158.131 114.413C158.061 114.049 158.027 113.646 158.027 113.204V111.722C158.027 111.28 158.061 110.877 158.131 110.513C158.209 110.149 158.326 109.833 158.482 109.564C158.638 109.295 158.841 109.087 159.093 108.94C159.344 108.793 159.647 108.719 160.003 108.719C160.358 108.719 160.661 108.793 160.913 108.94C161.164 109.087 161.368 109.295 161.524 109.564C161.68 109.833 161.792 110.149 161.862 110.513C161.94 110.877 161.979 111.28 161.979 111.722V113.204C161.979 113.646 161.94 114.049 161.862 114.413C161.792 114.777 161.68 115.093 161.524 115.362C161.368 115.631 161.164 115.839 160.913 115.986Z" fill="url(#paint11_linear_4632_20193)"/>
<path fill-rule="evenodd" clip-rule="evenodd" d="M168.003 117.156C166.919 117.156 166.126 116.744 165.624 115.921C165.13 115.098 164.883 113.945 164.883 112.463C164.883 110.981 165.13 109.828 165.624 109.005C166.126 108.182 166.919 107.77 168.003 107.77C169.086 107.77 169.875 108.182 170.369 109.005C170.871 109.828 171.123 110.981 171.123 112.463C171.123 113.945 170.871 115.098 170.369 115.921C169.875 116.744 169.086 117.156 168.003 117.156ZM168.003 116.207C168.358 116.207 168.661 116.133 168.913 115.986C169.164 115.839 169.368 115.631 169.524 115.362C169.68 115.093 169.792 114.777 169.862 114.413C169.94 114.049 169.979 113.646 169.979 113.204V111.722C169.979 111.28 169.94 110.877 169.862 110.513C169.792 110.149 169.68 109.833 169.524 109.564C169.368 109.295 169.164 109.087 168.913 108.94C168.661 108.793 168.358 108.719 168.003 108.719C167.647 108.719 167.344 108.793 167.093 108.94C166.841 109.087 166.638 109.295 166.482 109.564C166.326 109.833 166.209 110.149 166.131 110.513C166.061 110.877 166.027 111.28 166.027 111.722V113.204C166.027 113.646 166.061 114.049 166.131 114.413C166.209 114.777 166.326 115.093 166.482 115.362C166.638 115.631 166.841 115.839 167.093 115.986C167.344 116.133 167.647 116.207 168.003 116.207Z" fill="url(#paint12_linear_4632_20193)"/>
<path fill-rule="evenodd" clip-rule="evenodd" d="M173.624 115.921C174.126 116.744 174.919 117.156 176.003 117.156C177.086 117.156 177.875 116.744 178.369 115.921C178.871 115.098 179.123 113.945 179.123 112.463C179.123 110.981 178.871 109.828 178.369 109.005C177.875 108.182 177.086 107.77 176.003 107.77C174.919 107.77 174.126 108.182 173.624 109.005C173.13 109.828 172.883 110.981 172.883 112.463C172.883 113.945 173.13 115.098 173.624 115.921ZM176.913 115.986C176.661 116.133 176.358 116.207 176.003 116.207C175.647 116.207 175.344 116.133 175.093 115.986C174.841 115.839 174.638 115.631 174.482 115.362C174.326 115.093 174.209 114.777 174.131 114.413C174.061 114.049 174.027 113.646 174.027 113.204V111.722C174.027 111.28 174.061 110.877 174.131 110.513C174.209 110.149 174.326 109.833 174.482 109.564C174.638 109.295 174.841 109.087 175.093 108.94C175.344 108.793 175.647 108.719 176.003 108.719C176.358 108.719 176.661 108.793 176.913 108.94C177.164 109.087 177.368 109.295 177.524 109.564C177.68 109.833 177.792 110.149 177.862 110.513C177.94 110.877 177.979 111.28 177.979 111.722V113.204C177.979 113.646 177.94 114.049 177.862 114.413C177.792 114.777 177.68 115.093 177.524 115.362C177.368 115.631 177.164 115.839 176.913 115.986Z" fill="url(#paint13_linear_4632_20193)"/>
<path d="M181.247 117V116.038H183.782V108.732H183.691L181.403 110.864L180.766 110.175L183.171 107.926H184.874V116.038H187.214V117H181.247Z" fill="url(#paint14_linear_4632_20193)"/>
<path fill-rule="evenodd" clip-rule="evenodd" d="M189.624 115.921C190.126 116.744 190.919 117.156 192.003 117.156C193.086 117.156 193.875 116.744 194.369 115.921C194.871 115.098 195.123 113.945 195.123 112.463C195.123 110.981 194.871 109.828 194.369 109.005C193.875 108.182 193.086 107.77 192.003 107.77C190.919 107.77 190.126 108.182 189.624 109.005C189.13 109.828 188.883 110.981 188.883 112.463C188.883 113.945 189.13 115.098 189.624 115.921ZM192.913 115.986C192.661 116.133 192.358 116.207 192.003 116.207C191.647 116.207 191.344 116.133 191.093 115.986C190.841 115.839 190.638 115.631 190.482 115.362C190.326 115.093 190.209 114.777 190.131 114.413C190.061 114.049 190.027 113.646 190.027 113.204V111.722C190.027 111.28 190.061 110.877 190.131 110.513C190.209 110.149 190.326 109.833 190.482 109.564C190.638 109.295 190.841 109.087 191.093 108.94C191.344 108.793 191.647 108.719 192.003 108.719C192.358 108.719 192.661 108.793 192.913 108.94C193.164 109.087 193.368 109.295 193.524 109.564C193.68 109.833 193.792 110.149 193.862 110.513C193.94 110.877 193.979 111.28 193.979 111.722V113.204C193.979 113.646 193.94 114.049 193.862 114.413C193.792 114.777 193.68 115.093 193.524 115.362C193.368 115.631 193.164 115.839 192.913 115.986Z" fill="url(#paint15_linear_4632_20193)"/>
<path d="M133.247 133V132.038H135.782V124.732H135.691L133.403 126.864L132.766 126.175L135.171 123.926H136.874V132.038H139.214V133H133.247Z" fill="url(#paint16_linear_4632_20193)"/>
<path d="M141.247 132.038V133H147.214V132.038H144.874V123.926H143.171L140.766 126.175L141.403 126.864L143.691 124.732H143.782V132.038H141.247Z" fill="url(#paint17_linear_4632_20193)"/>
<path fill-rule="evenodd" clip-rule="evenodd" d="M152.003 133.156C150.919 133.156 150.126 132.744 149.624 131.921C149.13 131.098 148.883 129.945 148.883 128.463C148.883 126.981 149.13 125.828 149.624 125.005C150.126 124.182 150.919 123.77 152.003 123.77C153.086 123.77 153.875 124.182 154.369 125.005C154.871 125.828 155.123 126.981 155.123 128.463C155.123 129.945 154.871 131.098 154.369 131.921C153.875 132.744 153.086 133.156 152.003 133.156ZM152.003 132.207C152.358 132.207 152.661 132.133 152.913 131.986C153.164 131.839 153.368 131.631 153.524 131.362C153.68 131.093 153.792 130.777 153.862 130.413C153.94 130.049 153.979 129.646 153.979 129.204V127.722C153.979 127.28 153.94 126.877 153.862 126.513C153.792 126.149 153.68 125.833 153.524 125.564C153.368 125.295 153.164 125.087 152.913 124.94C152.661 124.793 152.358 124.719 152.003 124.719C151.647 124.719 151.344 124.793 151.093 124.94C150.841 125.087 150.638 125.295 150.482 125.564C150.326 125.833 150.209 126.149 150.131 126.513C150.061 126.877 150.027 127.28 150.027 127.722V129.204C150.027 129.646 150.061 130.049 150.131 130.413C150.209 130.777 150.326 131.093 150.482 131.362C150.638 131.631 150.841 131.839 151.093 131.986C151.344 132.133 151.647 132.207 152.003 132.207Z" fill="url(#paint18_linear_4632_20193)"/>
<path d="M157.247 132.038V133H163.214V132.038H160.874V123.926H159.171L156.766 126.175L157.403 126.864L159.691 124.732H159.782V132.038H157.247Z" fill="url(#paint19_linear_4632_20193)"/>
<path fill-rule="evenodd" clip-rule="evenodd" d="M168.003 133.156C166.919 133.156 166.126 132.744 165.624 131.921C165.13 131.098 164.883 129.945 164.883 128.463C164.883 126.981 165.13 125.828 165.624 125.005C166.126 124.182 166.919 123.77 168.003 123.77C169.086 123.77 169.875 124.182 170.369 125.005C170.871 125.828 171.123 126.981 171.123 128.463C171.123 129.945 170.871 131.098 170.369 131.921C169.875 132.744 169.086 133.156 168.003 133.156ZM168.003 132.207C168.358 132.207 168.661 132.133 168.913 131.986C169.164 131.839 169.368 131.631 169.524 131.362C169.68 131.093 169.792 130.777 169.862 130.413C169.94 130.049 169.979 129.646 169.979 129.204V127.722C169.979 127.28 169.94 126.877 169.862 126.513C169.792 126.149 169.68 125.833 169.524 125.564C169.368 125.295 169.164 125.087 168.913 124.94C168.661 124.793 168.358 124.719 168.003 124.719C167.647 124.719 167.344 124.793 167.093 124.94C166.841 125.087 166.638 125.295 166.482 125.564C166.326 125.833 166.209 126.149 166.131 126.513C166.061 126.877 166.027 127.28 166.027 127.722V129.204C166.027 129.646 166.061 130.049 166.131 130.413C166.209 130.777 166.326 131.093 166.482 131.362C166.638 131.631 166.841 131.839 167.093 131.986C167.344 132.133 167.647 132.207 168.003 132.207Z" fill="url(#paint20_linear_4632_20193)"/>
<path d="M173.247 132.038V133H179.214V132.038H176.874V123.926H175.171L172.766 126.175L173.403 126.864L175.691 124.732H175.782V132.038H173.247Z" fill="url(#paint21_linear_4632_20193)"/>
<path fill-rule="evenodd" clip-rule="evenodd" d="M184.003 133.156C182.919 133.156 182.126 132.744 181.624 131.921C181.13 131.098 180.883 129.945 180.883 128.463C180.883 126.981 181.13 125.828 181.624 125.005C182.126 124.182 182.919 123.77 184.003 123.77C185.086 123.77 185.875 124.182 186.369 125.005C186.871 125.828 187.123 126.981 187.123 128.463C187.123 129.945 186.871 131.098 186.369 131.921C185.875 132.744 185.086 133.156 184.003 133.156ZM184.003 132.207C184.358 132.207 184.661 132.133 184.913 131.986C185.164 131.839 185.368 131.631 185.524 131.362C185.68 131.093 185.792 130.777 185.862 130.413C185.94 130.049 185.979 129.646 185.979 129.204V127.722C185.979 127.28 185.94 126.877 185.862 126.513C185.792 126.149 185.68 125.833 185.524 125.564C185.368 125.295 185.164 125.087 184.913 124.94C184.661 124.793 184.358 124.719 184.003 124.719C183.647 124.719 183.344 124.793 183.093 124.94C182.841 125.087 182.638 125.295 182.482 125.564C182.326 125.833 182.209 126.149 182.131 126.513C182.061 126.877 182.027 127.28 182.027 127.722V129.204C182.027 129.646 182.061 130.049 182.131 130.413C182.209 130.777 182.326 131.093 182.482 131.362C182.638 131.631 182.841 131.839 183.093 131.986C183.344 132.133 183.647 132.207 184.003 132.207Z" fill="url(#paint22_linear_4632_20193)"/>
<path d="M189.247 132.038V133H195.214V132.038H192.874V123.926H191.171L188.766 126.175L189.403 126.864L191.691 124.732H191.782V132.038H189.247Z" fill="url(#paint23_linear_4632_20193)"/>
<path fill-rule="evenodd" clip-rule="evenodd" d="M136.003 149.156C134.919 149.156 134.126 148.744 133.624 147.921C133.13 147.098 132.883 145.945 132.883 144.463C132.883 142.981 133.13 141.828 133.624 141.005C134.126 140.182 134.919 139.77 136.003 139.77C137.086 139.77 137.875 140.182 138.369 141.005C138.871 141.828 139.123 142.981 139.123 144.463C139.123 145.945 138.871 147.098 138.369 147.921C137.875 148.744 137.086 149.156 136.003 149.156ZM136.003 148.207C136.358 148.207 136.661 148.133 136.913 147.986C137.164 147.839 137.368 147.631 137.524 147.362C137.68 147.093 137.792 146.777 137.862 146.413C137.94 146.049 137.979 145.646 137.979 145.204V143.722C137.979 143.28 137.94 142.877 137.862 142.513C137.792 142.149 137.68 141.833 137.524 141.564C137.368 141.295 137.164 141.087 136.913 140.94C136.661 140.793 136.358 140.719 136.003 140.719C135.647 140.719 135.344 140.793 135.093 140.94C134.841 141.087 134.638 141.295 134.482 141.564C134.326 141.833 134.209 142.149 134.131 142.513C134.061 142.877 134.027 143.28 134.027 143.722V145.204C134.027 145.646 134.061 146.049 134.131 146.413C134.209 146.777 134.326 147.093 134.482 147.362C134.638 147.631 134.841 147.839 135.093 147.986C135.344 148.133 135.647 148.207 136.003 148.207Z" fill="url(#paint24_linear_4632_20193)"/>
<path d="M141.247 148.038V149H147.214V148.038H144.874V139.926H143.171L140.766 142.175L141.403 142.864L143.691 140.732H143.782V148.038H141.247Z" fill="url(#paint25_linear_4632_20193)"/>
<path d="M149.247 149V148.038H151.782V140.732H151.691L149.403 142.864L148.766 142.175L151.171 139.926H152.874V148.038H155.214V149H149.247Z" fill="url(#paint26_linear_4632_20193)"/>
<path fill-rule="evenodd" clip-rule="evenodd" d="M157.624 147.921C158.126 148.744 158.919 149.156 160.003 149.156C161.086 149.156 161.875 148.744 162.369 147.921C162.871 147.098 163.123 145.945 163.123 144.463C163.123 142.981 162.871 141.828 162.369 141.005C161.875 140.182 161.086 139.77 160.003 139.77C158.919 139.77 158.126 140.182 157.624 141.005C157.13 141.828 156.883 142.981 156.883 144.463C156.883 145.945 157.13 147.098 157.624 147.921ZM160.913 147.986C160.661 148.133 160.358 148.207 160.003 148.207C159.647 148.207 159.344 148.133 159.093 147.986C158.841 147.839 158.638 147.631 158.482 147.362C158.326 147.093 158.209 146.777 158.131 146.413C158.061 146.049 158.027 145.646 158.027 145.204V143.722C158.027 143.28 158.061 142.877 158.131 142.513C158.209 142.149 158.326 141.833 158.482 141.564C158.638 141.295 158.841 141.087 159.093 140.94C159.344 140.793 159.647 140.719 160.003 140.719C160.358 140.719 160.661 140.793 160.913 140.94C161.164 141.087 161.368 141.295 161.524 141.564C161.68 141.833 161.792 142.149 161.862 142.513C161.94 142.877 161.979 143.28 161.979 143.722V145.204C161.979 145.646 161.94 146.049 161.862 146.413C161.792 146.777 161.68 147.093 161.524 147.362C161.368 147.631 161.164 147.839 160.913 147.986Z" fill="url(#paint27_linear_4632_20193)"/>
<path fill-rule="evenodd" clip-rule="evenodd" d="M168.003 149.156C166.919 149.156 166.126 148.744 165.624 147.921C165.13 147.098 164.883 145.945 164.883 144.463C164.883 142.981 165.13 141.828 165.624 141.005C166.126 140.182 166.919 139.77 168.003 139.77C169.086 139.77 169.875 140.182 170.369 141.005C170.871 141.828 171.123 142.981 171.123 144.463C171.123 145.945 170.871 147.098 170.369 147.921C169.875 148.744 169.086 149.156 168.003 149.156ZM168.003 148.207C168.358 148.207 168.661 148.133 168.913 147.986C169.164 147.839 169.368 147.631 169.524 147.362C169.68 147.093 169.792 146.777 169.862 146.413C169.94 146.049 169.979 145.646 169.979 145.204V143.722C169.979 143.28 169.94 142.877 169.862 142.513C169.792 142.149 169.68 141.833 169.524 141.564C169.368 141.295 169.164 141.087 168.913 140.94C168.661 140.793 168.358 140.719 168.003 140.719C167.647 140.719 167.344 140.793 167.093 140.94C166.841 141.087 166.638 141.295 166.482 141.564C166.326 141.833 166.209 142.149 166.131 142.513C166.061 142.877 166.027 143.28 166.027 143.722V145.204C166.027 145.646 166.061 146.049 166.131 146.413C166.209 146.777 166.326 147.093 166.482 147.362C166.638 147.631 166.841 147.839 167.093 147.986C167.344 148.133 167.647 148.207 168.003 148.207Z" fill="url(#paint28_linear_4632_20193)"/>
<path d="M173.247 148.038V149H179.214V148.038H176.874V139.926H175.171L172.766 142.175L173.403 142.864L175.691 140.732H175.782V148.038H173.247Z" fill="url(#paint29_linear_4632_20193)"/>
<path d="M181.247 149V148.038H183.782V140.732H183.691L181.403 142.864L180.766 142.175L183.171 139.926H184.874V148.038H187.214V149H181.247Z" fill="url(#paint30_linear_4632_20193)"/>
<path fill-rule="evenodd" clip-rule="evenodd" d="M189.624 147.921C190.126 148.744 190.919 149.156 192.003 149.156C193.086 149.156 193.875 148.744 194.369 147.921C194.871 147.098 195.123 145.945 195.123 144.463C195.123 142.981 194.871 141.828 194.369 141.005C193.875 140.182 193.086 139.77 192.003 139.77C190.919 139.77 190.126 140.182 189.624 141.005C189.13 141.828 188.883 142.981 188.883 144.463C188.883 145.945 189.13 147.098 189.624 147.921ZM192.913 147.986C192.661 148.133 192.358 148.207 192.003 148.207C191.647 148.207 191.344 148.133 191.093 147.986C190.841 147.839 190.638 147.631 190.482 147.362C190.326 147.093 190.209 146.777 190.131 146.413C190.061 146.049 190.027 145.646 190.027 145.204V143.722C190.027 143.28 190.061 142.877 190.131 142.513C190.209 142.149 190.326 141.833 190.482 141.564C190.638 141.295 190.841 141.087 191.093 140.94C191.344 140.793 191.647 140.719 192.003 140.719C192.358 140.719 192.661 140.793 192.913 140.94C193.164 141.087 193.368 141.295 193.524 141.564C193.68 141.833 193.792 142.149 193.862 142.513C193.94 142.877 193.979 143.28 193.979 143.722V145.204C193.979 145.646 193.94 146.049 193.862 146.413C193.792 146.777 193.68 147.093 193.524 147.362C193.368 147.631 193.164 147.839 192.913 147.986Z" fill="url(#paint31_linear_4632_20193)"/>
<path d="M149 128H179" stroke="white" stroke-width="2" stroke-linecap="round"/>
<path d="M179.001 123C178.108 123.892 175.88 124.162 175.412 120.682C175.298 119.836 174.692 118.954 173.949 119.373C172.231 120.344 171.308 124.19 168.846 124.003C168.219 123.956 168.045 123.188 168.334 122.629C169.314 120.74 169.739 118.006 166.179 118.415C161.045 118.781 149.253 126.879 154.047 132.151C154.615 132.775 155.391 133.224 156.23 133.321C160.427 133.808 162.622 127.474 163.001 122C163.428 115.84 162.109 105.805 155.453 107.209C154.902 107.325 154.365 107.547 153.916 107.887C149.208 111.45 153.358 121.35 160.001 124" stroke="white" stroke-width="2" stroke-linecap="round"/>
<rect x="200.5" y="88.5" width="63" height="63" rx="7.5" fill="white"/>
<path d="M235.75 104L244 112.25L239.875 113L235.75 112.25L235 108.125L235.75 104Z" fill="#E9E8EB"/>
<path d="M235.25 112.25V112.75H235.75H243.5V133.75C243.5 134.717 242.717 135.5 241.75 135.5H222.25C221.283 135.5 220.5 134.717 220.5 133.75V106.25C220.5 105.283 221.283 104.5 222.25 104.5H235.25V112.25Z" stroke="#E9E8EB"/>
<path d="M233.833 119.583C233.735 119.376 233.5 119.25 233.252 119.25C233.004 119.25 232.767 119.375 232.628 119.584L230.501 122.774L229.875 121.836C229.737 121.626 229.502 121.499 229.249 121.499C228.996 121.499 228.764 121.625 228.626 121.833L226.126 125.583C226.051 125.696 226.007 125.827 226.001 125.963C225.994 126.098 226.025 126.233 226.089 126.353C226.153 126.473 226.248 126.573 226.365 126.643C226.482 126.712 226.615 126.749 226.751 126.749H237.25C237.526 126.749 237.781 126.597 237.911 126.353C237.975 126.233 238.006 126.098 237.999 125.963C237.993 125.827 237.949 125.696 237.874 125.583L233.833 119.583Z" fill="#7BB82C"/>
<circle cx="227.501" cy="118.5" r="1.49982" fill="#7BB82C"/>
<rect x="200.5" y="88.5" width="63" height="63" rx="7.5" stroke="#F3F2F5"/>
<rect x="268.5" y="88.5" width="63" height="63" rx="7.5" fill="white"/>
<rect x="268.5" y="88.5" width="63" height="63" rx="7.5" stroke="#F3F2F5"/>
<rect x="-3.5" y="156.5" width="63" height="63" rx="7.5" fill="white"/>
<rect x="-3.5" y="156.5" width="63" height="63" rx="7.5" stroke="#F3F2F5"/>
<rect x="64.5" y="156.5" width="63" height="63" rx="7.5" fill="white"/>
<path d="M99.75 172L108 180.25L103.875 181L99.75 180.25L99 176.125L99.75 172Z" fill="#E9E8EB"/>
<path d="M99.25 180.25V180.75H99.75H107.5V201.75C107.5 202.717 106.717 203.5 105.75 203.5H86.25C85.283 203.5 84.5 202.717 84.5 201.75V174.25C84.5 173.283 85.283 172.5 86.25 172.5H99.25V180.25Z" stroke="#E9E8EB"/>
<path d="M99.051 186.034L93.1827 188.198C92.8709 188.294 92.6646 188.578 92.6646 188.899V194.162C92.4262 194.103 92.1786 194.066 91.9311 194.066C90.7162 194.066 89.7305 194.726 89.7305 195.533C89.7305 196.34 90.7162 197 91.9311 197C93.146 197 94.1317 196.34 94.1317 195.533V190.907L98.5329 189.188V192.69C98.2945 192.635 98.0469 192.599 97.7994 192.599C96.5845 192.599 95.5988 193.258 95.5988 194.066C95.5988 194.874 96.5845 195.533 97.7994 195.533C99.0143 195.533 100 194.874 100 194.066V186.73C100 186.496 99.8911 186.278 99.702 186.14C99.5129 186.002 99.2665 185.965 99.051 186.034Z" fill="#2E9BD1"/>
<rect x="64.5" y="156.5" width="63" height="63" rx="7.5" stroke="#F3F2F5"/>
<rect x="132.5" y="156.5" width="63" height="63" rx="7.5" fill="white"/>
<path d="M167.75 172L176 180.25L171.875 181L167.75 180.25L167 176.125L167.75 172Z" fill="#E9E8EB"/>
<path d="M167.25 180.25V180.75H167.75H175.5V201.75C175.5 202.717 174.717 203.5 173.75 203.5H154.25C153.283 203.5 152.5 202.717 152.5 201.75V174.25C152.5 173.283 153.283 172.5 154.25 172.5H167.25V180.25Z" stroke="#E9E8EB"/>
<path d="M162.106 188.293C161.716 187.902 161.083 187.902 160.693 188.293L158.293 190.693C157.902 191.083 157.902 191.717 158.293 192.108L160.693 194.507C160.891 194.707 161.146 194.802 161.401 194.802C161.656 194.802 161.913 194.705 162.108 194.51C162.499 194.119 162.499 193.485 162.108 193.094L160.417 191.402L162.109 189.711C162.456 189.318 162.456 188.688 162.106 188.293ZM167.305 188.293C166.915 187.902 166.282 187.902 165.892 188.293C165.501 188.683 165.501 189.318 165.892 189.708L167.585 191.402L165.893 193.094C165.502 193.485 165.502 194.119 165.893 194.509C166.091 194.707 166.346 194.802 166.601 194.802C166.856 194.802 167.112 194.705 167.307 194.51L169.707 192.11C170.098 191.72 170.098 191.085 169.707 190.695L167.305 188.293Z" fill="#626D7A"/>
<rect x="132.5" y="156.5" width="63" height="63" rx="7.5" stroke="#F3F2F5"/>
<rect x="200.5" y="156.5" width="63" height="63" rx="7.5" fill="white"/>
<path d="M235.75 172L244 180.25L239.875 181L235.75 180.25L235 176.125L235.75 172Z" fill="#E9E8EB"/>
<path d="M235.25 180.25V180.75H235.75H243.5V201.75C243.5 202.717 242.717 203.5 241.75 203.5H222.25C221.283 203.5 220.5 202.717 220.5 201.75V174.25C220.5 173.283 221.283 172.5 222.25 172.5H235.25V180.25Z" stroke="#E9E8EB"/>
<path d="M233.161 184H230.827V185.167H233.161V184ZM233.161 188.667H230.827V189.834H233.161V188.667ZM233.161 186.334H230.827V187.5H233.161V186.334ZM233.161 191.001H230.827L229.713 195.249C229.424 196.671 230.525 198 232.004 198C233.472 198 234.572 196.676 234.289 195.26L233.161 191.001ZM232.577 196.252H231.411C231.09 196.252 230.827 195.989 230.827 195.668C230.827 195.347 231.089 195.085 231.411 195.085H232.577C232.898 195.085 233.161 195.347 233.161 195.668C233.161 195.989 232.898 196.252 232.577 196.252Z" fill="#EB992F"/>
<rect x="200.5" y="156.5" width="63" height="63" rx="7.5" stroke="#F3F2F5"/>
<rect x="268.5" y="156.5" width="63" height="63" rx="7.5" fill="white"/>
<rect x="268.5" y="156.5" width="63" height="63" rx="7.5" stroke="#F3F2F5"/>
<rect x="64.5" y="224.5" width="63" height="63" rx="7.5" fill="white"/>
<rect x="64.5" y="224.5" width="63" height="63" rx="7.5" stroke="#F3F2F5"/>
<rect x="132.5" y="224.5" width="63" height="63" rx="7.5" fill="white"/>
<rect x="132.5" y="224.5" width="63" height="63" rx="7.5" stroke="#F3F2F5"/>
<rect x="200.5" y="224.5" width="63" height="63" rx="7.5" fill="white"/>
<rect x="200.5" y="224.5" width="63" height="63" rx="7.5" stroke="#F3F2F5"/>
<circle cx="164" cy="120" r="120" fill="url(#paint32_radial_4632_20193)"/>
</g>
<defs>
<linearGradient id="paint0_linear_4632_20193" x1="163.99" y1="91.77" x2="163.99" y2="149.156" gradientUnits="userSpaceOnUse">
<stop stop-color="white" stop-opacity="0.16"/>
<stop offset="1" stop-color="white" stop-opacity="0"/>
</linearGradient>
<linearGradient id="paint1_linear_4632_20193" x1="163.99" y1="91.77" x2="163.99" y2="149.156" gradientUnits="userSpaceOnUse">
<stop stop-color="white" stop-opacity="0.16"/>
<stop offset="1" stop-color="white" stop-opacity="0"/>
</linearGradient>
<linearGradient id="paint2_linear_4632_20193" x1="163.99" y1="91.77" x2="163.99" y2="149.156" gradientUnits="userSpaceOnUse">
<stop stop-color="white" stop-opacity="0.16"/>
<stop offset="1" stop-color="white" stop-opacity="0"/>
</linearGradient>
<linearGradient id="paint3_linear_4632_20193" x1="163.99" y1="91.77" x2="163.99" y2="149.156" gradientUnits="userSpaceOnUse">
<stop stop-color="white" stop-opacity="0.16"/>
<stop offset="1" stop-color="white" stop-opacity="0"/>
</linearGradient>
<linearGradient id="paint4_linear_4632_20193" x1="163.99" y1="91.77" x2="163.99" y2="149.156" gradientUnits="userSpaceOnUse">
<stop stop-color="white" stop-opacity="0.16"/>
<stop offset="1" stop-color="white" stop-opacity="0"/>
</linearGradient>
<linearGradient id="paint5_linear_4632_20193" x1="163.99" y1="91.77" x2="163.99" y2="149.156" gradientUnits="userSpaceOnUse">
<stop stop-color="white" stop-opacity="0.16"/>
<stop offset="1" stop-color="white" stop-opacity="0"/>
</linearGradient>
<linearGradient id="paint6_linear_4632_20193" x1="163.99" y1="91.77" x2="163.99" y2="149.156" gradientUnits="userSpaceOnUse">
<stop stop-color="white" stop-opacity="0.16"/>
<stop offset="1" stop-color="white" stop-opacity="0"/>
</linearGradient>
<linearGradient id="paint7_linear_4632_20193" x1="163.99" y1="91.77" x2="163.99" y2="149.156" gradientUnits="userSpaceOnUse">
<stop stop-color="white" stop-opacity="0.16"/>
<stop offset="1" stop-color="white" stop-opacity="0"/>
</linearGradient>
<linearGradient id="paint8_linear_4632_20193" x1="163.99" y1="91.77" x2="163.99" y2="149.156" gradientUnits="userSpaceOnUse">
<stop stop-color="white" stop-opacity="0.16"/>
<stop offset="1" stop-color="white" stop-opacity="0"/>
</linearGradient>
<linearGradient id="paint9_linear_4632_20193" x1="163.99" y1="91.77" x2="163.99" y2="149.156" gradientUnits="userSpaceOnUse">
<stop stop-color="white" stop-opacity="0.16"/>
<stop offset="1" stop-color="white" stop-opacity="0"/>
</linearGradient>
<linearGradient id="paint10_linear_4632_20193" x1="163.99" y1="91.77" x2="163.99" y2="149.156" gradientUnits="userSpaceOnUse">
<stop stop-color="white" stop-opacity="0.16"/>
<stop offset="1" stop-color="white" stop-opacity="0"/>
</linearGradient>
<linearGradient id="paint11_linear_4632_20193" x1="163.99" y1="91.77" x2="163.99" y2="149.156" gradientUnits="userSpaceOnUse">
<stop stop-color="white" stop-opacity="0.16"/>
<stop offset="1" stop-color="white" stop-opacity="0"/>
</linearGradient>
<linearGradient id="paint12_linear_4632_20193" x1="163.99" y1="91.77" x2="163.99" y2="149.156" gradientUnits="userSpaceOnUse">
<stop stop-color="white" stop-opacity="0.16"/>
<stop offset="1" stop-color="white" stop-opacity="0"/>
</linearGradient>
<linearGradient id="paint13_linear_4632_20193" x1="163.99" y1="91.77" x2="163.99" y2="149.156" gradientUnits="userSpaceOnUse">
<stop stop-color="white" stop-opacity="0.16"/>
<stop offset="1" stop-color="white" stop-opacity="0"/>
</linearGradient>
<linearGradient id="paint14_linear_4632_20193" x1="163.99" y1="91.77" x2="163.99" y2="149.156" gradientUnits="userSpaceOnUse">
<stop stop-color="white" stop-opacity="0.16"/>
<stop offset="1" stop-color="white" stop-opacity="0"/>
</linearGradient>
<linearGradient id="paint15_linear_4632_20193" x1="163.99" y1="91.77" x2="163.99" y2="149.156" gradientUnits="userSpaceOnUse">
<stop stop-color="white" stop-opacity="0.16"/>
<stop offset="1" stop-color="white" stop-opacity="0"/>
</linearGradient>
<linearGradient id="paint16_linear_4632_20193" x1="163.99" y1="91.77" x2="163.99" y2="149.156" gradientUnits="userSpaceOnUse">
<stop stop-color="white" stop-opacity="0.16"/>
<stop offset="1" stop-color="white" stop-opacity="0"/>
</linearGradient>
<linearGradient id="paint17_linear_4632_20193" x1="163.99" y1="91.77" x2="163.99" y2="149.156" gradientUnits="userSpaceOnUse">
<stop stop-color="white" stop-opacity="0.16"/>
<stop offset="1" stop-color="white" stop-opacity="0"/>
</linearGradient>
<linearGradient id="paint18_linear_4632_20193" x1="163.99" y1="91.77" x2="163.99" y2="149.156" gradientUnits="userSpaceOnUse">
<stop stop-color="white" stop-opacity="0.16"/>
<stop offset="1" stop-color="white" stop-opacity="0"/>
</linearGradient>
<linearGradient id="paint19_linear_4632_20193" x1="163.99" y1="91.77" x2="163.99" y2="149.156" gradientUnits="userSpaceOnUse">
<stop stop-color="white" stop-opacity="0.16"/>
<stop offset="1" stop-color="white" stop-opacity="0"/>
</linearGradient>
<linearGradient id="paint20_linear_4632_20193" x1="163.99" y1="91.77" x2="163.99" y2="149.156" gradientUnits="userSpaceOnUse">
<stop stop-color="white" stop-opacity="0.16"/>
<stop offset="1" stop-color="white" stop-opacity="0"/>
</linearGradient>
<linearGradient id="paint21_linear_4632_20193" x1="163.99" y1="91.77" x2="163.99" y2="149.156" gradientUnits="userSpaceOnUse">
<stop stop-color="white" stop-opacity="0.16"/>
<stop offset="1" stop-color="white" stop-opacity="0"/>
</linearGradient>
<linearGradient id="paint22_linear_4632_20193" x1="163.99" y1="91.77" x2="163.99" y2="149.156" gradientUnits="userSpaceOnUse">
<stop stop-color="white" stop-opacity="0.16"/>
<stop offset="1" stop-color="white" stop-opacity="0"/>
</linearGradient>
<linearGradient id="paint23_linear_4632_20193" x1="163.99" y1="91.77" x2="163.99" y2="149.156" gradientUnits="userSpaceOnUse">
<stop stop-color="white" stop-opacity="0.16"/>
<stop offset="1" stop-color="white" stop-opacity="0"/>
</linearGradient>
<linearGradient id="paint24_linear_4632_20193" x1="163.99" y1="91.77" x2="163.99" y2="149.156" gradientUnits="userSpaceOnUse">
<stop stop-color="white" stop-opacity="0.16"/>
<stop offset="1" stop-color="white" stop-opacity="0"/>
</linearGradient>
<linearGradient id="paint25_linear_4632_20193" x1="163.99" y1="91.77" x2="163.99" y2="149.156" gradientUnits="userSpaceOnUse">
<stop stop-color="white" stop-opacity="0.16"/>
<stop offset="1" stop-color="white" stop-opacity="0"/>
</linearGradient>
<linearGradient id="paint26_linear_4632_20193" x1="163.99" y1="91.77" x2="163.99" y2="149.156" gradientUnits="userSpaceOnUse">
<stop stop-color="white" stop-opacity="0.16"/>
<stop offset="1" stop-color="white" stop-opacity="0"/>
</linearGradient>
<linearGradient id="paint27_linear_4632_20193" x1="163.99" y1="91.77" x2="163.99" y2="149.156" gradientUnits="userSpaceOnUse">
<stop stop-color="white" stop-opacity="0.16"/>
<stop offset="1" stop-color="white" stop-opacity="0"/>
</linearGradient>
<linearGradient id="paint28_linear_4632_20193" x1="163.99" y1="91.77" x2="163.99" y2="149.156" gradientUnits="userSpaceOnUse">
<stop stop-color="white" stop-opacity="0.16"/>
<stop offset="1" stop-color="white" stop-opacity="0"/>
</linearGradient>
<linearGradient id="paint29_linear_4632_20193" x1="163.99" y1="91.77" x2="163.99" y2="149.156" gradientUnits="userSpaceOnUse">
<stop stop-color="white" stop-opacity="0.16"/>
<stop offset="1" stop-color="white" stop-opacity="0"/>
</linearGradient>
<linearGradient id="paint30_linear_4632_20193" x1="163.99" y1="91.77" x2="163.99" y2="149.156" gradientUnits="userSpaceOnUse">
<stop stop-color="white" stop-opacity="0.16"/>
<stop offset="1" stop-color="white" stop-opacity="0"/>
</linearGradient>
<linearGradient id="paint31_linear_4632_20193" x1="163.99" y1="91.77" x2="163.99" y2="149.156" gradientUnits="userSpaceOnUse">
<stop stop-color="white" stop-opacity="0.16"/>
<stop offset="1" stop-color="white" stop-opacity="0"/>
</linearGradient>
<radialGradient id="paint32_radial_4632_20193" cx="0" cy="0" r="1" gradientUnits="userSpaceOnUse" gradientTransform="translate(164 120) rotate(90) scale(120)">
<stop offset="0.8125" stop-color="white" stop-opacity="0"/>
<stop offset="1" stop-color="white"/>
</radialGradient>
<clipPath id="clip0_4632_20193">
<rect x="44" width="240" height="240" rx="120" fill="white"/>
</clipPath>
</defs>
</svg>
