<svg width="384" height="240" viewBox="0 0 384 240" fill="none" xmlns="http://www.w3.org/2000/svg">
<g clip-path="url(#clip0_4654_10956)">
<rect width="384" height="240" fill="#F8F7FA"/>
<g filter="url(#filter0_d_4654_10956)">
<g clip-path="url(#clip1_4654_10956)">
<rect x="60" y="32" width="264" height="352" fill="#2E9BD1"/>
<rect width="24" height="352" transform="matrix(-1 0 0 1 84 32)" fill="url(#paint0_linear_4654_10956)"/>
<g opacity="0.5">
<g clip-path="url(#clip2_4654_10956)">
<path d="M169.619 59.2241C169.795 59.0483 169.795 58.7634 169.619 58.5877L167.71 56.6785C167.534 56.5028 167.249 56.5028 167.074 56.6785L164.316 59.4362C164.14 59.612 164.14 59.8969 164.316 60.0726L165.775 61.5318C165.86 61.6162 165.974 61.6636 166.093 61.6636L166.993 61.6636C167.113 61.6636 167.227 61.6162 167.312 61.5318L169.619 59.2241Z" fill="white"/>
<path d="M169.619 64.7759C169.795 64.9517 169.795 65.2366 169.619 65.4123L167.71 67.3215C167.534 67.4972 167.249 67.4972 167.074 67.3215L164.316 64.5638C164.14 64.388 164.14 64.1031 164.316 63.9274L165.775 62.4682C165.86 62.3838 165.974 62.3364 166.093 62.3364L166.993 62.3364C167.113 62.3364 167.227 62.3838 167.312 62.4682L169.619 64.7759Z" fill="white"/>
<path d="M158.377 64.7759C158.201 64.9517 158.201 65.2366 158.377 65.4123L160.286 67.3215C160.462 67.4972 160.747 67.4972 160.922 67.3215L163.68 64.5638C163.856 64.388 163.856 64.1031 163.68 63.9274L162.221 62.4682C162.137 62.3838 162.022 62.3364 161.903 62.3364L161.003 62.3364C160.883 62.3364 160.769 62.3838 160.685 62.4682L158.377 64.7759Z" fill="white"/>
<path d="M158.377 59.2241C158.201 59.0483 158.201 58.7634 158.377 58.5877L160.286 56.6785C160.462 56.5028 160.747 56.5028 160.922 56.6785L163.68 59.4362C163.856 59.612 163.856 59.8969 163.68 60.0726L162.221 61.5318C162.137 61.6162 162.022 61.6636 161.903 61.6636L161.003 61.6636C160.883 61.6636 160.769 61.6162 160.685 61.5318L158.377 59.2241Z" fill="white"/>
</g>
<path d="M172.398 57.8V66.0085H174.024V57.8H172.398Z" fill="white"/>
<path d="M182.914 57.8V66.0085H184.527V61.9991C184.749 61.6501 185.022 61.3904 185.346 61.2202C185.67 61.0414 186.015 60.952 186.382 60.952C187.218 60.952 187.637 61.3989 187.637 62.2928V66.0085H189.249V62.1395C189.249 61.3989 189.044 60.8073 188.635 60.3647C188.225 59.9135 187.607 59.6879 186.779 59.6879C185.858 59.6879 185.107 60.0114 184.527 60.6584V57.8H182.914Z" fill="white"/>
<path fill-rule="evenodd" clip-rule="evenodd" d="M198.079 57.8V66.0085H199.64V65.2934C199.99 65.6169 200.353 65.851 200.728 65.9957C201.104 66.1319 201.551 66.2 202.072 66.2C202.695 66.2 203.249 66.068 203.736 65.8042C204.23 65.5318 204.614 65.153 204.887 64.6677C205.169 64.174 205.31 63.6037 205.31 62.9567C205.31 62.3183 205.169 61.7522 204.887 61.2585C204.614 60.7648 204.23 60.3817 203.736 60.1093C203.249 59.8284 202.695 59.6879 202.072 59.6879C201.603 59.6879 201.159 59.756 200.741 59.8922C200.331 60.0199 199.982 60.2157 199.692 60.4796V57.8H198.079ZM201.675 64.9359C202.255 64.9359 202.733 64.7529 203.109 64.3868C203.484 64.0208 203.672 63.5441 203.672 62.9567C203.672 62.3694 203.484 61.8884 203.109 61.5139C202.733 61.1393 202.255 60.952 201.675 60.952C201.214 60.952 200.801 61.0797 200.434 61.3351C200.076 61.582 199.828 61.914 199.692 62.3311V63.5696C199.837 63.9867 200.088 64.3187 200.447 64.5656C200.805 64.8125 201.214 64.9359 201.675 64.9359Z" fill="white"/>
<path fill-rule="evenodd" clip-rule="evenodd" d="M206.361 57.8V66.0085H207.923V65.2934C208.273 65.6169 208.635 65.851 209.01 65.9957C209.386 66.1319 209.834 66.2 210.354 66.2C210.977 66.2 211.532 66.068 212.018 65.8042C212.513 65.5318 212.897 65.153 213.17 64.6677C213.451 64.174 213.592 63.6037 213.592 62.9567C213.592 62.3183 213.451 61.7522 213.17 61.2585C212.897 60.7648 212.513 60.3817 212.018 60.1093C211.532 59.8284 210.977 59.6879 210.354 59.6879C209.885 59.6879 209.441 59.756 209.023 59.8922C208.614 60.0199 208.264 60.2157 207.974 60.4796V57.8H206.361ZM211.391 64.3868C211.015 64.7529 210.538 64.9359 209.958 64.9359C209.497 64.9359 209.087 64.8125 208.729 64.5656C208.371 64.3187 208.119 63.9867 207.974 63.5696V62.3311C208.11 61.914 208.358 61.582 208.716 61.3351C209.083 61.0797 209.497 60.952 209.958 60.952C210.538 60.952 211.015 61.1393 211.391 61.5139C211.766 61.8884 211.954 62.3694 211.954 62.9567C211.954 63.5441 211.766 64.0208 211.391 64.3868Z" fill="white"/>
<path d="M176.893 59.6879H175.332V66.0085H176.944V61.9991C177.166 61.6501 177.439 61.3904 177.763 61.2202C178.088 61.0414 178.433 60.952 178.8 60.952C179.636 60.952 180.054 61.3989 180.054 62.2928V66.0085H181.667V62.1395C181.667 61.3989 181.462 60.8073 181.052 60.3647C180.643 59.9135 180.024 59.6879 179.197 59.6879C178.753 59.6879 178.331 59.7731 177.93 59.9433C177.529 60.1051 177.183 60.3604 176.893 60.7094V59.6879Z" fill="white"/>
<path d="M191.047 65.536C191.456 65.9787 192.075 66.2 192.903 66.2C193.346 66.2 193.769 66.1191 194.17 65.9574C194.571 65.7871 194.916 65.5275 195.206 65.1785V66.0085H196.767V59.8795H195.155V63.8888C194.933 64.2379 194.66 64.5017 194.336 64.6805C194.012 64.8508 193.666 64.9359 193.299 64.9359C192.463 64.9359 192.045 64.489 192.045 63.5952V59.8795H190.433V63.7484C190.433 64.489 190.637 65.0849 191.047 65.536Z" fill="white"/>
<path fill-rule="evenodd" clip-rule="evenodd" d="M218.099 66.2C216.956 66.2 216.051 65.9148 215.386 65.3445C214.721 64.7741 214.388 63.9782 214.388 62.9567C214.388 61.9523 214.682 61.1563 215.271 60.569C215.859 59.9816 216.7 59.6879 217.792 59.6879C218.509 59.6879 219.119 59.8241 219.622 60.0965C220.134 60.3689 220.518 60.7435 220.774 61.2202C221.03 61.6884 221.158 62.2247 221.158 62.829V63.5696H215.923C216.034 64.4805 216.828 64.9359 218.304 64.9359C218.696 64.9359 219.097 64.9018 219.507 64.8337C219.916 64.7656 220.275 64.672 220.582 64.5528V65.7914C220.292 65.9106 219.916 66.0085 219.456 66.0851C219.003 66.1617 218.551 66.2 218.099 66.2ZM219.635 62.4715C219.618 61.9863 219.443 61.6118 219.11 61.3479C218.786 61.084 218.338 60.952 217.766 60.952C217.203 60.952 216.76 61.0882 216.435 61.3606C216.111 61.633 215.941 62.0033 215.923 62.4715H219.635Z" fill="white"/>
<path d="M223.775 59.8795H222.214V66.0085H223.826V62.2928C224.005 61.8842 224.321 61.5862 224.773 61.3989C225.234 61.2032 225.776 61.1053 226.398 61.1053V59.8795C225.81 59.8795 225.285 59.9603 224.824 60.1221C224.372 60.2838 224.022 60.5307 223.775 60.8627V59.8795Z" fill="white"/>
</g>
<path d="M146.497 105V90.4545H149.132V96.6122H155.872V90.4545H158.514V105H155.872V98.821H149.132V105H146.497ZM165.755 105.213C164.689 105.213 163.766 104.979 162.985 104.51C162.204 104.041 161.598 103.385 161.167 102.543C160.741 101.7 160.528 100.715 160.528 99.5881C160.528 98.4612 160.741 97.474 161.167 96.6264C161.598 95.7789 162.204 95.1207 162.985 94.652C163.766 94.1832 164.689 93.9489 165.755 93.9489C166.82 93.9489 167.743 94.1832 168.525 94.652C169.306 95.1207 169.91 95.7789 170.336 96.6264C170.767 97.474 170.982 98.4612 170.982 99.5881C170.982 100.715 170.767 101.7 170.336 102.543C169.91 103.385 169.306 104.041 168.525 104.51C167.743 104.979 166.82 105.213 165.755 105.213ZM165.769 103.153C166.347 103.153 166.83 102.995 167.218 102.678C167.606 102.356 167.895 101.925 168.084 101.385C168.278 100.845 168.376 100.244 168.376 99.581C168.376 98.9134 168.278 98.3097 168.084 97.7699C167.895 97.2254 167.606 96.7921 167.218 96.4702C166.83 96.1482 166.347 95.9872 165.769 95.9872C165.177 95.9872 164.685 96.1482 164.292 96.4702C163.903 96.7921 163.612 97.2254 163.418 97.7699C163.229 98.3097 163.134 98.9134 163.134 99.581C163.134 100.244 163.229 100.845 163.418 101.385C163.612 101.925 163.903 102.356 164.292 102.678C164.685 102.995 165.177 103.153 165.769 103.153ZM174.833 105L171.751 94.0909H174.371L176.289 101.761H176.389L178.349 94.0909H180.941L182.901 101.719H183.008L184.897 94.0909H187.525L184.435 105H181.758L179.712 97.6278H179.563L177.518 105H174.833ZM197.789 105.192C196.932 105.192 196.165 104.972 195.488 104.531C194.811 104.091 194.276 103.452 193.883 102.614C193.49 101.776 193.294 100.758 193.294 99.5597C193.294 98.3475 193.492 97.3248 193.89 96.4915C194.293 95.6534 194.835 95.0213 195.517 94.5952C196.198 94.1643 196.958 93.9489 197.796 93.9489C198.436 93.9489 198.961 94.0578 199.373 94.2756C199.785 94.4886 200.112 94.7467 200.353 95.0497C200.595 95.348 200.782 95.6297 200.914 95.8949H201.021V90.4545H203.599V105H201.07V103.281H200.914C200.782 103.546 200.59 103.828 200.339 104.126C200.088 104.42 199.757 104.671 199.345 104.879C198.933 105.088 198.414 105.192 197.789 105.192ZM198.507 103.082C199.051 103.082 199.515 102.936 199.899 102.642C200.282 102.344 200.573 101.929 200.772 101.399C200.971 100.869 201.07 100.251 201.07 99.5455C201.07 98.84 200.971 98.2268 200.772 97.706C200.578 97.1851 200.289 96.7803 199.906 96.4915C199.527 96.2027 199.061 96.0582 198.507 96.0582C197.934 96.0582 197.455 96.2074 197.072 96.5057C196.688 96.804 196.4 97.2159 196.205 97.7415C196.011 98.267 195.914 98.8684 195.914 99.5455C195.914 100.227 196.011 100.836 196.205 101.371C196.404 101.901 196.695 102.32 197.079 102.628C197.467 102.931 197.943 103.082 198.507 103.082ZM210.827 105.213C209.762 105.213 208.838 104.979 208.057 104.51C207.276 104.041 206.67 103.385 206.239 102.543C205.813 101.7 205.6 100.715 205.6 99.5881C205.6 98.4612 205.813 97.474 206.239 96.6264C206.67 95.7789 207.276 95.1207 208.057 94.652C208.838 94.1832 209.762 93.9489 210.827 93.9489C211.892 93.9489 212.816 94.1832 213.597 94.652C214.378 95.1207 214.982 95.7789 215.408 96.6264C215.839 97.474 216.054 98.4612 216.054 99.5881C216.054 100.715 215.839 101.7 215.408 102.543C214.982 103.385 214.378 104.041 213.597 104.51C212.816 104.979 211.892 105.213 210.827 105.213ZM210.841 103.153C211.419 103.153 211.902 102.995 212.29 102.678C212.678 102.356 212.967 101.925 213.157 101.385C213.351 100.845 213.448 100.244 213.448 99.581C213.448 98.9134 213.351 98.3097 213.157 97.7699C212.967 97.2254 212.678 96.7921 212.29 96.4702C211.902 96.1482 211.419 95.9872 210.841 95.9872C210.249 95.9872 209.757 96.1482 209.364 96.4702C208.976 96.7921 208.685 97.2254 208.49 97.7699C208.301 98.3097 208.206 98.9134 208.206 99.581C208.206 100.244 208.301 100.845 208.49 101.385C208.685 101.925 208.976 102.356 209.364 102.678C209.757 102.995 210.249 103.153 210.841 103.153ZM222.796 105.213C221.702 105.213 220.758 104.986 219.962 104.531C219.172 104.072 218.563 103.423 218.137 102.585C217.711 101.742 217.498 100.75 217.498 99.6094C217.498 98.4872 217.711 97.5024 218.137 96.6548C218.568 95.8026 219.169 95.1397 219.941 94.6662C220.713 94.188 221.62 93.9489 222.661 93.9489C223.334 93.9489 223.968 94.0578 224.565 94.2756C225.166 94.4886 225.696 94.8201 226.155 95.2699C226.62 95.7197 226.984 96.2926 227.249 96.9886C227.514 97.6799 227.647 98.5038 227.647 99.4602V100.249H218.705V98.5156H225.182C225.178 98.0232 225.071 97.5852 224.863 97.2017C224.655 96.8134 224.363 96.508 223.989 96.2855C223.62 96.063 223.189 95.9517 222.697 95.9517C222.171 95.9517 221.709 96.0795 221.312 96.3352C220.914 96.5862 220.604 96.9176 220.381 97.3295C220.164 97.7367 220.052 98.1842 220.048 98.6719V100.185C220.048 100.819 220.164 101.364 220.396 101.818C220.628 102.268 220.952 102.614 221.369 102.855C221.785 103.092 222.273 103.21 222.832 103.21C223.206 103.21 223.544 103.158 223.847 103.054C224.15 102.945 224.413 102.786 224.636 102.578C224.858 102.37 225.026 102.112 225.14 101.804L227.54 102.074C227.389 102.708 227.1 103.262 226.674 103.736C226.253 104.205 225.713 104.569 225.055 104.83C224.396 105.085 223.644 105.213 222.796 105.213ZM238.174 96.9744L235.83 97.2301C235.764 96.9934 235.648 96.7708 235.482 96.5625C235.321 96.3542 235.104 96.1861 234.829 96.0582C234.554 95.9304 234.218 95.8665 233.821 95.8665C233.285 95.8665 232.836 95.9825 232.471 96.2145C232.111 96.4465 231.934 96.7472 231.938 97.1165C231.934 97.4337 232.05 97.6918 232.286 97.8906C232.528 98.0895 232.926 98.2528 233.48 98.3807L235.34 98.7784C236.373 99.0009 237.14 99.3537 237.642 99.8366C238.148 100.32 238.404 100.952 238.409 101.733C238.404 102.42 238.203 103.026 237.805 103.551C237.412 104.072 236.865 104.479 236.164 104.773C235.463 105.066 234.659 105.213 233.749 105.213C232.414 105.213 231.339 104.934 230.525 104.375C229.711 103.812 229.225 103.028 229.069 102.024L231.576 101.783C231.69 102.275 231.931 102.647 232.301 102.898C232.67 103.149 233.151 103.274 233.742 103.274C234.353 103.274 234.843 103.149 235.213 102.898C235.587 102.647 235.774 102.337 235.774 101.967C235.774 101.655 235.653 101.397 235.411 101.193C235.175 100.99 234.805 100.833 234.303 100.724L232.443 100.334C231.396 100.116 230.622 99.7491 230.12 99.233C229.618 98.7121 229.37 98.054 229.374 97.2585C229.37 96.5862 229.552 96.0038 229.921 95.5114C230.295 95.0142 230.814 94.6307 231.477 94.3608C232.144 94.0862 232.914 93.9489 233.785 93.9489C235.063 93.9489 236.07 94.2211 236.803 94.7656C237.542 95.3101 237.999 96.0464 238.174 96.9744ZM108.62 124.974L106.276 125.23C106.209 124.993 106.093 124.771 105.928 124.562C105.767 124.354 105.549 124.186 105.274 124.058C105 123.93 104.664 123.866 104.266 123.866C103.731 123.866 103.281 123.982 102.916 124.214C102.557 124.446 102.379 124.747 102.384 125.116C102.379 125.434 102.495 125.692 102.732 125.891C102.973 126.089 103.371 126.253 103.925 126.381L105.786 126.778C106.818 127.001 107.585 127.354 108.087 127.837C108.593 128.32 108.849 128.952 108.854 129.733C108.849 130.42 108.648 131.026 108.25 131.551C107.857 132.072 107.31 132.479 106.61 132.773C105.909 133.066 105.104 133.213 104.195 133.213C102.86 133.213 101.785 132.934 100.97 132.375C100.156 131.812 99.6706 131.028 99.5144 130.024L102.022 129.783C102.135 130.275 102.377 130.647 102.746 130.898C103.115 131.149 103.596 131.274 104.188 131.274C104.798 131.274 105.289 131.149 105.658 130.898C106.032 130.647 106.219 130.337 106.219 129.967C106.219 129.655 106.098 129.397 105.857 129.193C105.62 128.99 105.251 128.833 104.749 128.724L102.888 128.334C101.842 128.116 101.067 127.749 100.566 127.233C100.064 126.712 99.8151 126.054 99.8198 125.259C99.8151 124.586 99.9974 124.004 100.367 123.511C100.741 123.014 101.259 122.631 101.922 122.361C102.59 122.086 103.359 121.949 104.23 121.949C105.509 121.949 106.515 122.221 107.249 122.766C107.987 123.31 108.444 124.046 108.62 124.974ZM117.657 128.412V122.091H120.228V133H117.735V131.061H117.622C117.375 131.672 116.97 132.171 116.407 132.56C115.848 132.948 115.159 133.142 114.34 133.142C113.625 133.142 112.993 132.983 112.444 132.666C111.899 132.344 111.473 131.878 111.166 131.267C110.858 130.652 110.704 129.908 110.704 129.037V122.091H113.275V128.639C113.275 129.33 113.464 129.88 113.843 130.287C114.222 130.694 114.719 130.898 115.335 130.898C115.713 130.898 116.08 130.805 116.435 130.621C116.791 130.436 117.082 130.161 117.309 129.797C117.541 129.428 117.657 128.966 117.657 128.412ZM127.36 133.213C126.271 133.213 125.336 132.974 124.555 132.496C123.778 132.018 123.18 131.357 122.758 130.514C122.341 129.667 122.133 128.691 122.133 127.588C122.133 126.48 122.346 125.502 122.772 124.655C123.198 123.803 123.8 123.14 124.576 122.666C125.358 122.188 126.281 121.949 127.346 121.949C128.232 121.949 129.015 122.112 129.697 122.439C130.384 122.761 130.93 123.218 131.338 123.81C131.745 124.397 131.977 125.083 132.034 125.869H129.576C129.477 125.344 129.24 124.906 128.866 124.555C128.497 124.2 128.002 124.023 127.382 124.023C126.856 124.023 126.394 124.165 125.997 124.449C125.599 124.728 125.289 125.131 125.066 125.656C124.849 126.182 124.74 126.812 124.74 127.545C124.74 128.289 124.849 128.928 125.066 129.463C125.284 129.993 125.59 130.403 125.983 130.692C126.38 130.976 126.847 131.118 127.382 131.118C127.761 131.118 128.099 131.047 128.397 130.905C128.7 130.758 128.954 130.547 129.157 130.273C129.361 129.998 129.501 129.664 129.576 129.271H132.034C131.972 130.043 131.745 130.727 131.352 131.324C130.959 131.916 130.424 132.38 129.747 132.716C129.07 133.047 128.274 133.213 127.36 133.213ZM138.633 133.213C137.544 133.213 136.609 132.974 135.828 132.496C135.051 132.018 134.453 131.357 134.031 130.514C133.614 129.667 133.406 128.691 133.406 127.588C133.406 126.48 133.619 125.502 134.045 124.655C134.471 123.803 135.073 123.14 135.849 122.666C136.631 122.188 137.554 121.949 138.619 121.949C139.505 121.949 140.288 122.112 140.97 122.439C141.657 122.761 142.203 123.218 142.611 123.81C143.018 124.397 143.25 125.083 143.307 125.869H140.849C140.75 125.344 140.513 124.906 140.139 124.555C139.77 124.2 139.275 124.023 138.655 124.023C138.129 124.023 137.667 124.165 137.27 124.449C136.872 124.728 136.562 125.131 136.339 125.656C136.122 126.182 136.013 126.812 136.013 127.545C136.013 128.289 136.122 128.928 136.339 129.463C136.557 129.993 136.863 130.403 137.256 130.692C137.653 130.976 138.12 131.118 138.655 131.118C139.033 131.118 139.372 131.047 139.67 130.905C139.973 130.758 140.227 130.547 140.43 130.273C140.634 129.998 140.774 129.664 140.849 129.271H143.307C143.245 130.043 143.018 130.727 142.625 131.324C142.232 131.916 141.697 132.38 141.02 132.716C140.343 133.047 139.547 133.213 138.633 133.213ZM149.977 133.213C148.884 133.213 147.939 132.986 147.144 132.531C146.353 132.072 145.744 131.423 145.318 130.585C144.892 129.742 144.679 128.75 144.679 127.609C144.679 126.487 144.892 125.502 145.318 124.655C145.749 123.803 146.35 123.14 147.122 122.666C147.894 122.188 148.801 121.949 149.842 121.949C150.515 121.949 151.149 122.058 151.746 122.276C152.347 122.489 152.877 122.82 153.337 123.27C153.801 123.72 154.165 124.293 154.43 124.989C154.696 125.68 154.828 126.504 154.828 127.46V128.249H145.886V126.516H152.364C152.359 126.023 152.252 125.585 152.044 125.202C151.836 124.813 151.545 124.508 151.171 124.286C150.801 124.063 150.37 123.952 149.878 123.952C149.352 123.952 148.891 124.08 148.493 124.335C148.095 124.586 147.785 124.918 147.563 125.33C147.345 125.737 147.234 126.184 147.229 126.672V128.185C147.229 128.819 147.345 129.364 147.577 129.818C147.809 130.268 148.133 130.614 148.55 130.855C148.966 131.092 149.454 131.21 150.013 131.21C150.387 131.21 150.725 131.158 151.029 131.054C151.332 130.945 151.594 130.786 151.817 130.578C152.039 130.37 152.207 130.112 152.321 129.804L154.722 130.074C154.57 130.708 154.281 131.262 153.855 131.736C153.434 132.205 152.894 132.569 152.236 132.83C151.578 133.085 150.825 133.213 149.977 133.213ZM165.355 124.974L163.012 125.23C162.945 124.993 162.829 124.771 162.664 124.562C162.503 124.354 162.285 124.186 162.01 124.058C161.736 123.93 161.399 123.866 161.002 123.866C160.467 123.866 160.017 123.982 159.652 124.214C159.292 124.446 159.115 124.747 159.12 125.116C159.115 125.434 159.231 125.692 159.468 125.891C159.709 126.089 160.107 126.253 160.661 126.381L162.522 126.778C163.554 127.001 164.321 127.354 164.823 127.837C165.329 128.32 165.585 128.952 165.59 129.733C165.585 130.42 165.384 131.026 164.986 131.551C164.593 132.072 164.046 132.479 163.346 132.773C162.645 133.066 161.84 133.213 160.931 133.213C159.596 133.213 158.521 132.934 157.706 132.375C156.892 131.812 156.407 131.028 156.25 130.024L158.757 129.783C158.871 130.275 159.113 130.647 159.482 130.898C159.851 131.149 160.332 131.274 160.924 131.274C161.534 131.274 162.024 131.149 162.394 130.898C162.768 130.647 162.955 130.337 162.955 129.967C162.955 129.655 162.834 129.397 162.593 129.193C162.356 128.99 161.987 128.833 161.485 128.724L159.624 128.334C158.578 128.116 157.803 127.749 157.301 127.233C156.8 126.712 156.551 126.054 156.556 125.259C156.551 124.586 156.733 124.004 157.103 123.511C157.477 123.014 157.995 122.631 158.658 122.361C159.326 122.086 160.095 121.949 160.966 121.949C162.245 121.949 163.251 122.221 163.985 122.766C164.723 123.31 165.18 124.046 165.355 124.974ZM176.062 124.974L173.718 125.23C173.652 124.993 173.536 124.771 173.37 124.562C173.209 124.354 172.991 124.186 172.717 124.058C172.442 123.93 172.106 123.866 171.708 123.866C171.173 123.866 170.723 123.982 170.359 124.214C169.999 124.446 169.821 124.747 169.826 125.116C169.821 125.434 169.937 125.692 170.174 125.891C170.416 126.089 170.813 126.253 171.367 126.381L173.228 126.778C174.26 127.001 175.027 127.354 175.529 127.837C176.036 128.32 176.292 128.952 176.296 129.733C176.292 130.42 176.09 131.026 175.693 131.551C175.3 132.072 174.753 132.479 174.052 132.773C173.351 133.066 172.546 133.213 171.637 133.213C170.302 133.213 169.227 132.934 168.413 132.375C167.598 131.812 167.113 131.028 166.957 130.024L169.464 129.783C169.578 130.275 169.819 130.647 170.188 130.898C170.558 131.149 171.038 131.274 171.63 131.274C172.241 131.274 172.731 131.149 173.1 130.898C173.474 130.647 173.661 130.337 173.661 129.967C173.661 129.655 173.541 129.397 173.299 129.193C173.062 128.99 172.693 128.833 172.191 128.724L170.33 128.334C169.284 128.116 168.51 127.749 168.008 127.233C167.506 126.712 167.258 126.054 167.262 125.259C167.258 124.586 167.44 124.004 167.809 123.511C168.183 123.014 168.702 122.631 169.365 122.361C170.032 122.086 170.802 121.949 171.673 121.949C172.951 121.949 173.957 122.221 174.691 122.766C175.43 123.31 175.887 124.046 176.062 124.974ZM183.672 122.091V124.08H177.223V122.091H183.672ZM178.835 133V121.061C178.835 120.327 178.987 119.716 179.29 119.229C179.598 118.741 180.01 118.376 180.526 118.135C181.042 117.893 181.615 117.773 182.244 117.773C182.69 117.773 183.085 117.808 183.431 117.879C183.776 117.95 184.032 118.014 184.198 118.071L183.686 120.06C183.577 120.027 183.44 119.993 183.274 119.96C183.109 119.922 182.924 119.903 182.72 119.903C182.242 119.903 181.904 120.019 181.705 120.251C181.511 120.479 181.413 120.805 181.413 121.232V133H178.835ZM192.369 128.412V122.091H194.94V133H192.447V131.061H192.333C192.087 131.672 191.682 132.171 191.119 132.56C190.56 132.948 189.871 133.142 189.052 133.142C188.337 133.142 187.705 132.983 187.156 132.666C186.611 132.344 186.185 131.878 185.877 131.267C185.569 130.652 185.415 129.908 185.415 129.037V122.091H187.986V128.639C187.986 129.33 188.176 129.88 188.555 130.287C188.933 130.694 189.431 130.898 190.046 130.898C190.425 130.898 190.792 130.805 191.147 130.621C191.502 130.436 191.793 130.161 192.021 129.797C192.253 129.428 192.369 128.966 192.369 128.412ZM199.884 118.455V133H197.313V118.455H199.884ZM211.708 133.213C210.619 133.213 209.684 132.974 208.902 132.496C208.126 132.018 207.527 131.357 207.105 130.514C206.689 129.667 206.48 128.691 206.48 127.588C206.48 126.48 206.694 125.502 207.12 124.655C207.546 123.803 208.147 123.14 208.924 122.666C209.705 122.188 210.628 121.949 211.694 121.949C212.579 121.949 213.363 122.112 214.044 122.439C214.731 122.761 215.278 123.218 215.685 123.81C216.092 124.397 216.324 125.083 216.381 125.869H213.924C213.824 125.344 213.587 124.906 213.213 124.555C212.844 124.2 212.349 124.023 211.729 124.023C211.203 124.023 210.742 124.165 210.344 124.449C209.946 124.728 209.636 125.131 209.414 125.656C209.196 126.182 209.087 126.812 209.087 127.545C209.087 128.289 209.196 128.928 209.414 129.463C209.632 129.993 209.937 130.403 210.33 130.692C210.728 130.976 211.194 131.118 211.729 131.118C212.108 131.118 212.446 131.047 212.745 130.905C213.048 130.758 213.301 130.547 213.505 130.273C213.708 129.998 213.848 129.664 213.924 129.271H216.381C216.319 130.043 216.092 130.727 215.699 131.324C215.306 131.916 214.771 132.38 214.094 132.716C213.417 133.047 212.622 133.213 211.708 133.213ZM222.981 133.213C221.915 133.213 220.992 132.979 220.211 132.51C219.43 132.041 218.824 131.385 218.393 130.543C217.967 129.7 217.753 128.715 217.753 127.588C217.753 126.461 217.967 125.474 218.393 124.626C218.824 123.779 219.43 123.121 220.211 122.652C220.992 122.183 221.915 121.949 222.981 121.949C224.046 121.949 224.969 122.183 225.751 122.652C226.532 123.121 227.136 123.779 227.562 124.626C227.993 125.474 228.208 126.461 228.208 127.588C228.208 128.715 227.993 129.7 227.562 130.543C227.136 131.385 226.532 132.041 225.751 132.51C224.969 132.979 224.046 133.213 222.981 133.213ZM222.995 131.153C223.573 131.153 224.056 130.995 224.444 130.678C224.832 130.356 225.121 129.925 225.31 129.385C225.504 128.845 225.601 128.244 225.601 127.581C225.601 126.913 225.504 126.31 225.31 125.77C225.121 125.225 224.832 124.792 224.444 124.47C224.056 124.148 223.573 123.987 222.995 123.987C222.403 123.987 221.911 124.148 221.518 124.47C221.129 124.792 220.838 125.225 220.644 125.77C220.455 126.31 220.36 126.913 220.36 127.581C220.36 128.244 220.455 128.845 220.644 129.385C220.838 129.925 221.129 130.356 221.518 130.678C221.911 130.995 222.403 131.153 222.995 131.153ZM232.691 126.608V133H230.12V122.091H232.578V123.945H232.705C232.956 123.334 233.356 122.848 233.906 122.489C234.46 122.129 235.144 121.949 235.958 121.949C236.711 121.949 237.367 122.11 237.926 122.432C238.489 122.754 238.925 123.22 239.232 123.831C239.545 124.442 239.699 125.183 239.694 126.054V133H237.123V126.452C237.123 125.723 236.934 125.152 236.555 124.74C236.181 124.328 235.662 124.122 234.999 124.122C234.55 124.122 234.15 124.222 233.799 124.42C233.454 124.615 233.181 124.896 232.982 125.266C232.788 125.635 232.691 126.082 232.691 126.608ZM247.485 122.091V124.08H241.214V122.091H247.485ZM242.762 119.477H245.333V129.719C245.333 130.064 245.385 130.33 245.489 130.514C245.598 130.694 245.74 130.817 245.916 130.884C246.091 130.95 246.285 130.983 246.498 130.983C246.659 130.983 246.806 130.971 246.938 130.947C247.076 130.924 247.18 130.902 247.251 130.884L247.684 132.893C247.547 132.941 247.35 132.993 247.094 133.05C246.844 133.107 246.536 133.14 246.171 133.149C245.527 133.168 244.947 133.071 244.431 132.858C243.915 132.64 243.505 132.304 243.202 131.849C242.904 131.395 242.757 130.827 242.762 130.145V119.477ZM249.365 133V122.091H251.858V123.909H251.972C252.171 123.279 252.512 122.794 252.995 122.453C253.482 122.107 254.039 121.935 254.664 121.935C254.806 121.935 254.964 121.942 255.139 121.956C255.319 121.965 255.469 121.982 255.587 122.006V124.371C255.478 124.333 255.305 124.3 255.068 124.271C254.836 124.238 254.612 124.222 254.394 124.222C253.925 124.222 253.504 124.323 253.13 124.527C252.76 124.726 252.469 125.003 252.256 125.358C252.043 125.713 251.936 126.123 251.936 126.587V133H249.365ZM259.969 133.22C259.278 133.22 258.655 133.097 258.101 132.851C257.552 132.6 257.116 132.231 256.794 131.743C256.477 131.255 256.318 130.654 256.318 129.939C256.318 129.323 256.432 128.814 256.659 128.412C256.887 128.009 257.197 127.688 257.59 127.446C257.983 127.205 258.425 127.022 258.918 126.899C259.415 126.771 259.929 126.679 260.459 126.622C261.098 126.556 261.617 126.497 262.014 126.445C262.412 126.388 262.701 126.303 262.881 126.189C263.065 126.071 263.158 125.888 263.158 125.642V125.599C263.158 125.064 262.999 124.65 262.682 124.357C262.365 124.063 261.908 123.916 261.311 123.916C260.681 123.916 260.182 124.054 259.813 124.328C259.448 124.603 259.202 124.927 259.074 125.301L256.673 124.96C256.863 124.297 257.175 123.743 257.611 123.298C258.047 122.848 258.579 122.512 259.209 122.29C259.839 122.062 260.535 121.949 261.297 121.949C261.823 121.949 262.346 122.01 262.867 122.134C263.387 122.257 263.863 122.46 264.294 122.744C264.725 123.024 265.071 123.405 265.331 123.888C265.596 124.371 265.729 124.974 265.729 125.699V133H263.257V131.501H263.172C263.016 131.804 262.796 132.089 262.512 132.354C262.232 132.614 261.879 132.825 261.453 132.986C261.032 133.142 260.537 133.22 259.969 133.22ZM260.637 131.331C261.153 131.331 261.6 131.229 261.979 131.026C262.358 130.817 262.649 130.543 262.852 130.202C263.061 129.861 263.165 129.489 263.165 129.087V127.801C263.084 127.867 262.947 127.929 262.753 127.986C262.564 128.043 262.351 128.092 262.114 128.135C261.877 128.178 261.643 128.215 261.411 128.249C261.179 128.282 260.977 128.31 260.807 128.334C260.423 128.386 260.08 128.471 259.777 128.589C259.474 128.708 259.235 128.874 259.06 129.087C258.885 129.295 258.797 129.565 258.797 129.896C258.797 130.37 258.97 130.727 259.315 130.969C259.661 131.21 260.101 131.331 260.637 131.331ZM272.803 133.213C271.714 133.213 270.778 132.974 269.997 132.496C269.221 132.018 268.622 131.357 268.2 130.514C267.784 129.667 267.575 128.691 267.575 127.588C267.575 126.48 267.788 125.502 268.215 124.655C268.641 123.803 269.242 123.14 270.019 122.666C270.8 122.188 271.723 121.949 272.788 121.949C273.674 121.949 274.457 122.112 275.139 122.439C275.826 122.761 276.373 123.218 276.78 123.81C277.187 124.397 277.419 125.083 277.476 125.869H275.019C274.919 125.344 274.682 124.906 274.308 124.555C273.939 124.2 273.444 124.023 272.824 124.023C272.298 124.023 271.837 124.165 271.439 124.449C271.041 124.728 270.731 125.131 270.509 125.656C270.291 126.182 270.182 126.812 270.182 127.545C270.182 128.289 270.291 128.928 270.509 129.463C270.726 129.993 271.032 130.403 271.425 130.692C271.822 130.976 272.289 131.118 272.824 131.118C273.203 131.118 273.541 131.047 273.84 130.905C274.143 130.758 274.396 130.547 274.599 130.273C274.803 129.998 274.943 129.664 275.019 129.271H277.476C277.414 130.043 277.187 130.727 276.794 131.324C276.401 131.916 275.866 132.38 275.189 132.716C274.512 133.047 273.716 133.213 272.803 133.213ZM284.764 122.091V124.08H278.493V122.091H284.764ZM280.041 119.477H282.612V129.719C282.612 130.064 282.665 130.33 282.769 130.514C282.878 130.694 283.02 130.817 283.195 130.884C283.37 130.95 283.564 130.983 283.777 130.983C283.938 130.983 284.085 130.971 284.218 130.947C284.355 130.924 284.459 130.902 284.53 130.884L284.963 132.893C284.826 132.941 284.63 132.993 284.374 133.05C284.123 133.107 283.815 133.14 283.451 133.149C282.807 133.168 282.227 133.071 281.711 132.858C281.194 132.64 280.785 132.304 280.482 131.849C280.184 131.395 280.037 130.827 280.041 130.145V119.477ZM108.871 161V150.091H111.329V151.945H111.457C111.684 151.32 112.06 150.832 112.586 150.482C113.111 150.126 113.739 149.949 114.468 149.949C115.207 149.949 115.829 150.129 116.336 150.489C116.847 150.844 117.207 151.329 117.415 151.945H117.529C117.771 151.339 118.178 150.856 118.751 150.496C119.328 150.131 120.013 149.949 120.803 149.949C121.807 149.949 122.626 150.266 123.261 150.901C123.895 151.535 124.212 152.461 124.212 153.678V161H121.634V154.075C121.634 153.398 121.454 152.903 121.094 152.591C120.735 152.274 120.294 152.115 119.773 152.115C119.153 152.115 118.668 152.309 118.317 152.697C117.972 153.081 117.799 153.58 117.799 154.196V161H115.278V153.969C115.278 153.405 115.107 152.955 114.766 152.619C114.43 152.283 113.99 152.115 113.445 152.115C113.076 152.115 112.74 152.21 112.437 152.399C112.134 152.584 111.892 152.847 111.712 153.188C111.532 153.524 111.442 153.917 111.442 154.366V161H108.871ZM129.69 161.22C128.999 161.22 128.376 161.097 127.822 160.851C127.273 160.6 126.837 160.231 126.515 159.743C126.198 159.255 126.039 158.654 126.039 157.939C126.039 157.323 126.153 156.814 126.38 156.412C126.607 156.009 126.918 155.688 127.311 155.446C127.704 155.205 128.146 155.022 128.639 154.899C129.136 154.771 129.65 154.679 130.18 154.622C130.819 154.556 131.338 154.497 131.735 154.445C132.133 154.388 132.422 154.303 132.602 154.189C132.786 154.071 132.879 153.888 132.879 153.642V153.599C132.879 153.064 132.72 152.65 132.403 152.357C132.086 152.063 131.629 151.916 131.032 151.916C130.402 151.916 129.903 152.054 129.534 152.328C129.169 152.603 128.923 152.927 128.795 153.301L126.394 152.96C126.584 152.297 126.896 151.743 127.332 151.298C127.767 150.848 128.3 150.512 128.93 150.29C129.56 150.062 130.256 149.949 131.018 149.949C131.544 149.949 132.067 150.01 132.588 150.134C133.108 150.257 133.584 150.46 134.015 150.744C134.446 151.024 134.792 151.405 135.052 151.888C135.317 152.371 135.45 152.974 135.45 153.699V161H132.978V159.501H132.893C132.737 159.804 132.517 160.089 132.232 160.354C131.953 160.614 131.6 160.825 131.174 160.986C130.753 161.142 130.258 161.22 129.69 161.22ZM130.357 159.331C130.874 159.331 131.321 159.229 131.7 159.026C132.079 158.817 132.37 158.543 132.573 158.202C132.782 157.861 132.886 157.489 132.886 157.087V155.801C132.805 155.867 132.668 155.929 132.474 155.986C132.285 156.043 132.071 156.092 131.835 156.135C131.598 156.178 131.364 156.215 131.132 156.249C130.9 156.282 130.698 156.31 130.528 156.334C130.144 156.386 129.801 156.471 129.498 156.589C129.195 156.708 128.956 156.874 128.781 157.087C128.606 157.295 128.518 157.565 128.518 157.896C128.518 158.37 128.691 158.727 129.036 158.969C129.382 159.21 129.822 159.331 130.357 159.331ZM140.336 154.608V161H137.765V150.091H140.222V151.945H140.35C140.601 151.334 141.001 150.848 141.551 150.489C142.104 150.129 142.789 149.949 143.603 149.949C144.356 149.949 145.012 150.11 145.57 150.432C146.134 150.754 146.569 151.22 146.877 151.831C147.19 152.442 147.344 153.183 147.339 154.054V161H144.768V154.452C144.768 153.723 144.578 153.152 144.2 152.74C143.826 152.328 143.307 152.122 142.644 152.122C142.194 152.122 141.794 152.222 141.444 152.42C141.098 152.615 140.826 152.896 140.627 153.266C140.433 153.635 140.336 154.082 140.336 154.608ZM152.822 161.22C152.13 161.22 151.508 161.097 150.954 160.851C150.405 160.6 149.969 160.231 149.647 159.743C149.33 159.255 149.171 158.654 149.171 157.939C149.171 157.323 149.285 156.814 149.512 156.412C149.739 156.009 150.049 155.688 150.442 155.446C150.835 155.205 151.278 155.022 151.771 154.899C152.268 154.771 152.781 154.679 153.312 154.622C153.951 154.556 154.469 154.497 154.867 154.445C155.265 154.388 155.554 154.303 155.734 154.189C155.918 154.071 156.011 153.888 156.011 153.642V153.599C156.011 153.064 155.852 152.65 155.535 152.357C155.218 152.063 154.761 151.916 154.164 151.916C153.534 151.916 153.035 152.054 152.665 152.328C152.301 152.603 152.055 152.927 151.927 153.301L149.526 152.96C149.716 152.297 150.028 151.743 150.464 151.298C150.899 150.848 151.432 150.512 152.062 150.29C152.692 150.062 153.388 149.949 154.15 149.949C154.675 149.949 155.199 150.01 155.719 150.134C156.24 150.257 156.716 150.46 157.147 150.744C157.578 151.024 157.924 151.405 158.184 151.888C158.449 152.371 158.582 152.974 158.582 153.699V161H156.11V159.501H156.025C155.869 159.804 155.648 160.089 155.364 160.354C155.085 160.614 154.732 160.825 154.306 160.986C153.885 161.142 153.39 161.22 152.822 161.22ZM153.489 159.331C154.005 159.331 154.453 159.229 154.832 159.026C155.21 158.817 155.502 158.543 155.705 158.202C155.914 157.861 156.018 157.489 156.018 157.087V155.801C155.937 155.867 155.8 155.929 155.606 155.986C155.416 156.043 155.203 156.092 154.967 156.135C154.73 156.178 154.495 156.215 154.263 156.249C154.031 156.282 153.83 156.31 153.66 156.334C153.276 156.386 152.933 156.471 152.63 156.589C152.327 156.708 152.088 156.874 151.913 157.087C151.737 157.295 151.65 157.565 151.65 157.896C151.65 158.37 151.823 158.727 152.168 158.969C152.514 159.21 152.954 159.331 153.489 159.331ZM165.641 165.318C164.718 165.318 163.925 165.193 163.262 164.942C162.599 164.696 162.066 164.364 161.664 163.947C161.261 163.531 160.982 163.069 160.826 162.562L163.141 162.001C163.245 162.214 163.397 162.425 163.596 162.634C163.795 162.847 164.062 163.022 164.398 163.159C164.739 163.301 165.168 163.372 165.684 163.372C166.413 163.372 167.017 163.195 167.495 162.839C167.973 162.489 168.212 161.911 168.212 161.107V159.04H168.084C167.952 159.305 167.758 159.577 167.502 159.857C167.251 160.136 166.917 160.37 166.501 160.56C166.089 160.749 165.57 160.844 164.945 160.844C164.107 160.844 163.347 160.647 162.665 160.254C161.988 159.857 161.448 159.265 161.046 158.479C160.648 157.688 160.449 156.698 160.449 155.51C160.449 154.312 160.648 153.301 161.046 152.477C161.448 151.649 161.991 151.021 162.672 150.595C163.354 150.164 164.114 149.949 164.952 149.949C165.591 149.949 166.117 150.058 166.529 150.276C166.946 150.489 167.277 150.747 167.523 151.05C167.77 151.348 167.957 151.63 168.084 151.895H168.226V150.091H170.762V161.178C170.762 162.11 170.539 162.882 170.094 163.493C169.649 164.104 169.041 164.561 168.269 164.864C167.497 165.167 166.621 165.318 165.641 165.318ZM165.663 158.827C166.207 158.827 166.671 158.694 167.055 158.429C167.438 158.164 167.729 157.783 167.928 157.286C168.127 156.788 168.226 156.192 168.226 155.496C168.226 154.809 168.127 154.208 167.928 153.692C167.734 153.176 167.445 152.776 167.062 152.491C166.683 152.203 166.216 152.058 165.663 152.058C165.09 152.058 164.611 152.207 164.228 152.506C163.844 152.804 163.555 153.214 163.361 153.734C163.167 154.25 163.07 154.838 163.07 155.496C163.07 156.163 163.167 156.748 163.361 157.25C163.56 157.747 163.851 158.135 164.235 158.415C164.623 158.689 165.099 158.827 165.663 158.827ZM177.956 161.213C176.863 161.213 175.918 160.986 175.123 160.531C174.332 160.072 173.723 159.423 173.297 158.585C172.871 157.742 172.658 156.75 172.658 155.609C172.658 154.487 172.871 153.502 173.297 152.655C173.728 151.803 174.33 151.14 175.101 150.666C175.873 150.188 176.78 149.949 177.821 149.949C178.494 149.949 179.128 150.058 179.725 150.276C180.326 150.489 180.857 150.82 181.316 151.27C181.78 151.72 182.144 152.293 182.41 152.989C182.675 153.68 182.807 154.504 182.807 155.46V156.249H173.866V154.516H180.343C180.338 154.023 180.232 153.585 180.023 153.202C179.815 152.813 179.524 152.508 179.15 152.286C178.78 152.063 178.349 151.952 177.857 151.952C177.331 151.952 176.87 152.08 176.472 152.335C176.074 152.586 175.764 152.918 175.542 153.33C175.324 153.737 175.213 154.184 175.208 154.672V156.185C175.208 156.819 175.324 157.364 175.556 157.818C175.788 158.268 176.112 158.614 176.529 158.855C176.946 159.092 177.433 159.21 177.992 159.21C178.366 159.21 178.705 159.158 179.008 159.054C179.311 158.945 179.573 158.786 179.796 158.578C180.018 158.37 180.187 158.112 180.3 157.804L182.701 158.074C182.549 158.708 182.26 159.262 181.834 159.736C181.413 160.205 180.873 160.569 180.215 160.83C179.557 161.085 178.804 161.213 177.956 161.213ZM184.712 161V150.091H187.17V151.945H187.298C187.525 151.32 187.901 150.832 188.427 150.482C188.952 150.126 189.58 149.949 190.309 149.949C191.048 149.949 191.67 150.129 192.177 150.489C192.688 150.844 193.048 151.329 193.256 151.945H193.37C193.611 151.339 194.019 150.856 194.592 150.496C195.169 150.131 195.853 149.949 196.644 149.949C197.648 149.949 198.467 150.266 199.102 150.901C199.736 151.535 200.053 152.461 200.053 153.678V161H197.475V154.075C197.475 153.398 197.295 152.903 196.935 152.591C196.576 152.274 196.135 152.115 195.614 152.115C194.994 152.115 194.509 152.309 194.158 152.697C193.813 153.081 193.64 153.58 193.64 154.196V161H191.119V153.969C191.119 153.405 190.948 152.955 190.607 152.619C190.271 152.283 189.831 152.115 189.286 152.115C188.917 152.115 188.581 152.21 188.278 152.399C187.975 152.584 187.733 152.847 187.553 153.188C187.373 153.524 187.283 153.917 187.283 154.366V161H184.712ZM207.221 161.213C206.127 161.213 205.183 160.986 204.387 160.531C203.597 160.072 202.988 159.423 202.562 158.585C202.136 157.742 201.923 156.75 201.923 155.609C201.923 154.487 202.136 153.502 202.562 152.655C202.993 151.803 203.594 151.14 204.366 150.666C205.138 150.188 206.045 149.949 207.086 149.949C207.759 149.949 208.393 150.058 208.99 150.276C209.591 150.489 210.121 150.82 210.58 151.27C211.045 151.72 211.409 152.293 211.674 152.989C211.939 153.68 212.072 154.504 212.072 155.46V156.249H203.13V154.516H209.607C209.603 154.023 209.496 153.585 209.288 153.202C209.08 152.813 208.788 152.508 208.414 152.286C208.045 152.063 207.614 151.952 207.122 151.952C206.596 151.952 206.134 152.08 205.737 152.335C205.339 152.586 205.029 152.918 204.806 153.33C204.589 153.737 204.477 154.184 204.473 154.672V156.185C204.473 156.819 204.589 157.364 204.821 157.818C205.053 158.268 205.377 158.614 205.794 158.855C206.21 159.092 206.698 159.21 207.257 159.21C207.631 159.21 207.969 159.158 208.272 159.054C208.575 158.945 208.838 158.786 209.061 158.578C209.283 158.37 209.451 158.112 209.565 157.804L211.965 158.074C211.814 158.708 211.525 159.262 211.099 159.736C210.678 160.205 210.138 160.569 209.48 160.83C208.821 161.085 208.069 161.213 207.221 161.213ZM216.548 154.608V161H213.977V150.091H216.434V151.945H216.562C216.813 151.334 217.213 150.848 217.763 150.489C218.317 150.129 219.001 149.949 219.815 149.949C220.568 149.949 221.224 150.11 221.782 150.432C222.346 150.754 222.781 151.22 223.089 151.831C223.402 152.442 223.556 153.183 223.551 154.054V161H220.98V154.452C220.98 153.723 220.79 153.152 220.412 152.74C220.038 152.328 219.519 152.122 218.856 152.122C218.406 152.122 218.006 152.222 217.656 152.42C217.31 152.615 217.038 152.896 216.839 153.266C216.645 153.635 216.548 154.082 216.548 154.608ZM231.342 150.091V152.08H225.071V150.091H231.342ZM226.619 147.477H229.19V157.719C229.19 158.064 229.242 158.33 229.346 158.514C229.455 158.694 229.597 158.817 229.772 158.884C229.948 158.95 230.142 158.983 230.355 158.983C230.516 158.983 230.663 158.971 230.795 158.947C230.932 158.924 231.037 158.902 231.108 158.884L231.541 160.893C231.404 160.941 231.207 160.993 230.951 161.05C230.7 161.107 230.393 161.14 230.028 161.149C229.384 161.168 228.804 161.071 228.288 160.858C227.772 160.64 227.362 160.304 227.059 159.849C226.761 159.395 226.614 158.827 226.619 158.145V147.477ZM240.484 146.455V161H237.913V146.455H240.484ZM247.617 161.213C246.551 161.213 245.628 160.979 244.847 160.51C244.065 160.041 243.459 159.385 243.028 158.543C242.602 157.7 242.389 156.715 242.389 155.588C242.389 154.461 242.602 153.474 243.028 152.626C243.459 151.779 244.065 151.121 244.847 150.652C245.628 150.183 246.551 149.949 247.617 149.949C248.682 149.949 249.605 150.183 250.386 150.652C251.168 151.121 251.771 151.779 252.197 152.626C252.628 153.474 252.844 154.461 252.844 155.588C252.844 156.715 252.628 157.7 252.197 158.543C251.771 159.385 251.168 160.041 250.386 160.51C249.605 160.979 248.682 161.213 247.617 161.213ZM247.631 159.153C248.208 159.153 248.691 158.995 249.08 158.678C249.468 158.356 249.757 157.925 249.946 157.385C250.14 156.845 250.237 156.244 250.237 155.581C250.237 154.913 250.14 154.31 249.946 153.77C249.757 153.225 249.468 152.792 249.08 152.47C248.691 152.148 248.208 151.987 247.631 151.987C247.039 151.987 246.546 152.148 246.153 152.47C245.765 152.792 245.474 153.225 245.28 153.77C245.09 154.31 244.996 154.913 244.996 155.581C244.996 156.244 245.09 156.845 245.28 157.385C245.474 157.925 245.765 158.356 246.153 158.678C246.546 158.995 247.039 159.153 247.631 159.153ZM259.514 161.213C258.449 161.213 257.526 160.979 256.745 160.51C255.963 160.041 255.357 159.385 254.926 158.543C254.5 157.7 254.287 156.715 254.287 155.588C254.287 154.461 254.5 153.474 254.926 152.626C255.357 151.779 255.963 151.121 256.745 150.652C257.526 150.183 258.449 149.949 259.514 149.949C260.58 149.949 261.503 150.183 262.284 150.652C263.066 151.121 263.669 151.779 264.095 152.626C264.526 153.474 264.742 154.461 264.742 155.588C264.742 156.715 264.526 157.7 264.095 158.543C263.669 159.385 263.066 160.041 262.284 160.51C261.503 160.979 260.58 161.213 259.514 161.213ZM259.529 159.153C260.106 159.153 260.589 158.995 260.978 158.678C261.366 158.356 261.655 157.925 261.844 157.385C262.038 156.845 262.135 156.244 262.135 155.581C262.135 154.913 262.038 154.31 261.844 153.77C261.655 153.225 261.366 152.792 260.978 152.47C260.589 152.148 260.106 151.987 259.529 151.987C258.937 151.987 258.444 152.148 258.051 152.47C257.663 152.792 257.372 153.225 257.178 153.77C256.988 154.31 256.894 154.913 256.894 155.581C256.894 156.244 256.988 156.845 257.178 157.385C257.372 157.925 257.663 158.356 258.051 158.678C258.444 158.995 258.937 159.153 259.529 159.153ZM268.998 157.577L268.991 154.473H269.402L273.323 150.091H276.327L271.505 155.46H270.972L268.998 157.577ZM266.654 161V146.455H269.225V161H266.654ZM273.5 161L269.949 156.036L271.682 154.224L276.576 161H273.5ZM174.381 174.455V189H171.81V174.455H174.381ZM176.755 189V178.091H179.326V189H176.755ZM178.048 176.543C177.641 176.543 177.29 176.408 176.997 176.138C176.703 175.863 176.556 175.534 176.556 175.151C176.556 174.762 176.703 174.433 176.997 174.163C177.29 173.889 177.641 173.751 178.048 173.751C178.46 173.751 178.81 173.889 179.099 174.163C179.392 174.433 179.539 174.762 179.539 175.151C179.539 175.534 179.392 175.863 179.099 176.138C178.81 176.408 178.46 176.543 178.048 176.543ZM184.044 185.577L184.037 182.473H184.449L188.369 178.091H191.373L186.551 183.46H186.018L184.044 185.577ZM181.7 189V174.455H184.271V189H181.7ZM188.547 189L184.995 184.036L186.728 182.224L191.622 189H188.547ZM197.197 189.213C196.103 189.213 195.159 188.986 194.363 188.531C193.572 188.072 192.964 187.423 192.538 186.585C192.112 185.742 191.899 184.75 191.899 183.609C191.899 182.487 192.112 181.502 192.538 180.655C192.969 179.803 193.57 179.14 194.342 178.666C195.114 178.188 196.02 177.949 197.062 177.949C197.734 177.949 198.369 178.058 198.965 178.276C199.567 178.489 200.097 178.82 200.556 179.27C201.02 179.72 201.385 180.293 201.65 180.989C201.915 181.68 202.048 182.504 202.048 183.46V184.249H193.106V182.516H199.583C199.579 182.023 199.472 181.585 199.264 181.202C199.055 180.813 198.764 180.508 198.39 180.286C198.021 180.063 197.59 179.952 197.098 179.952C196.572 179.952 196.11 180.08 195.713 180.335C195.315 180.586 195.005 180.918 194.782 181.33C194.564 181.737 194.453 182.184 194.448 182.672V184.185C194.448 184.819 194.564 185.364 194.796 185.818C195.028 186.268 195.353 186.614 195.769 186.855C196.186 187.092 196.674 187.21 197.232 187.21C197.607 187.21 197.945 187.158 198.248 187.054C198.551 186.945 198.814 186.786 199.036 186.578C199.259 186.37 199.427 186.112 199.541 185.804L201.941 186.074C201.79 186.708 201.501 187.262 201.075 187.736C200.653 188.205 200.114 188.569 199.456 188.83C198.797 189.085 198.045 189.213 197.197 189.213ZM206.41 184.724V184.54C206.415 183.683 206.496 183.001 206.652 182.494C206.813 181.988 207.04 181.58 207.334 181.273C207.627 180.96 207.985 180.674 208.406 180.413C208.695 180.233 208.953 180.037 209.18 179.824C209.412 179.606 209.594 179.365 209.727 179.099C209.86 178.83 209.926 178.529 209.926 178.197C209.926 177.823 209.838 177.499 209.663 177.224C209.488 176.95 209.251 176.737 208.953 176.585C208.659 176.434 208.33 176.358 207.966 176.358C207.63 176.358 207.31 176.431 207.007 176.578C206.709 176.72 206.46 176.938 206.261 177.232C206.067 177.52 205.958 177.887 205.934 178.332H203.406C203.43 177.433 203.647 176.68 204.059 176.074C204.476 175.468 205.025 175.013 205.707 174.71C206.394 174.407 207.151 174.256 207.98 174.256C208.884 174.256 209.68 174.414 210.366 174.732C211.058 175.049 211.595 175.501 211.978 176.088C212.367 176.67 212.561 177.362 212.561 178.162C212.561 178.702 212.473 179.185 212.298 179.611C212.128 180.037 211.884 180.416 211.567 180.747C211.249 181.079 210.873 181.375 210.437 181.635C210.054 181.872 209.739 182.118 209.493 182.374C209.251 182.629 209.071 182.93 208.953 183.276C208.839 183.616 208.78 184.038 208.775 184.54V184.724H206.41ZM207.646 189.156C207.22 189.156 206.853 189.005 206.545 188.702C206.237 188.399 206.084 188.029 206.084 187.594C206.084 187.168 206.237 186.803 206.545 186.5C206.853 186.197 207.22 186.045 207.646 186.045C208.067 186.045 208.432 186.197 208.74 186.5C209.052 186.803 209.209 187.168 209.209 187.594C209.209 187.883 209.135 188.145 208.988 188.382C208.846 188.619 208.657 188.808 208.42 188.95C208.188 189.088 207.93 189.156 207.646 189.156Z" fill="white"/>
<g clip-path="url(#clip3_4654_10956)">
<path d="M216.992 238.69C216.992 238.69 231.064 216.029 238.566 218.602C246.067 221.174 220.277 239.162 220.277 239.162L216.992 238.69Z" fill="#A4E955"/>
<path d="M228.719 237.754C228.719 237.754 238.566 227.706 243.256 230.043C247.947 232.38 240.445 236.818 228.719 237.754Z" fill="#A4E955"/>
<path d="M203.506 247.516L200.853 247.458C201.706 248.559 201.9 249.574 201.369 250.431C200.838 251.303 199.569 252.025 197.675 252.575C199.11 248.773 199.834 244.757 199.834 240.641C199.834 236.031 198.93 231.558 197.137 227.356C195.416 223.29 192.949 219.638 189.801 216.508C186.652 213.371 182.994 210.912 178.913 209.183C174.675 207.404 170.185 206.503 165.566 206.503C160.94 206.503 156.451 207.404 152.226 209.183C151.724 209.397 151.215 209.626 150.728 209.862C150.728 209.862 150.728 209.862 150.72 209.862C149.25 209.412 147.809 209.047 146.424 208.768C139.432 207.354 134.476 208.333 132.46 211.52C130.546 214.55 131.585 219.116 135.394 224.433C134.877 225.376 134.418 226.348 133.995 227.356C133.673 228.106 133.386 228.864 133.127 229.636C125.977 230.057 122.154 231.315 120.763 233.587C119.142 236.232 121.351 239.776 128.423 243.228C129.398 243.707 130.438 244.171 131.535 244.643C131.901 247.837 132.726 250.953 133.995 253.933C135.717 257.999 138.184 261.651 141.332 264.788C144.481 267.918 148.138 270.376 152.219 272.099C156.444 273.878 160.933 274.778 165.559 274.778C170.178 274.778 174.668 273.878 178.892 272.099C182.973 270.376 186.631 267.911 189.779 264.788C192.841 261.737 195.266 258.185 196.98 254.247C200.465 253.526 202.76 252.404 203.678 250.91C204.324 249.874 204.245 248.73 203.506 247.516ZM195.316 253.104C192.992 253.518 190.095 253.761 186.717 253.797C181.467 253.861 175.435 253.447 169.088 252.611C169.626 251.453 170.149 250.26 170.658 249.038C172.631 249.695 174.546 250.217 176.367 250.581C178.454 251.003 180.362 251.21 182.069 251.21C186.064 251.21 188.918 250.06 190.331 247.83C190.561 247.465 190.754 247.072 190.898 246.658H188.861C188.825 246.722 188.789 246.779 188.753 246.837C187.706 248.495 185.361 249.352 182.069 249.352C180.491 249.352 178.705 249.159 176.733 248.759C175.019 248.409 173.219 247.923 171.361 247.308C171.849 246.086 172.33 244.843 172.789 243.578C174.029 240.169 175.091 236.796 175.951 233.552C179.867 234.123 184.07 234.416 188.531 234.416C191.314 234.416 194.19 234.302 197.166 234.081C197.611 236.217 197.833 238.404 197.833 240.619C197.833 244.957 196.987 249.152 195.316 253.104ZM152.929 270.026C151.94 269.669 151.438 268.254 151.194 267.132C150.806 265.353 150.735 262.859 150.993 259.914C151.122 258.428 151.33 256.841 151.61 255.183C155.669 256.263 159.685 257.649 163.594 259.314C162.712 260.829 161.823 262.23 160.933 263.502C159.233 265.924 157.577 267.797 156.135 268.911C155.217 269.619 153.919 270.384 152.929 270.026ZM164.483 257.735C160.388 255.977 156.178 254.526 151.932 253.404C152.083 252.632 152.248 251.853 152.427 251.06C153.611 251.324 154.808 251.589 156.02 251.839C159.571 252.561 163.114 253.175 166.585 253.676C165.896 255.083 165.193 256.441 164.483 257.735ZM156.802 250.546C155.432 250.267 154.077 249.967 152.75 249.667C153.374 247.072 154.141 244.364 155.045 241.613C159.714 244.471 164.455 246.794 168.944 248.445C168.378 249.788 167.804 251.096 167.209 252.361C163.795 251.868 160.302 251.267 156.802 250.546ZM145.406 215.522C145.7 216.129 146.116 216.879 146.668 217.73C149.028 221.36 152.14 223.997 154.342 225.562C155.604 226.463 156.953 227.299 158.38 228.063C157.075 230.893 155.834 233.909 154.694 237.046C154.478 237.632 154.27 238.211 154.07 238.797C147.256 234.374 141.483 229.307 137.696 224.397C138.643 222.789 139.733 221.26 140.945 219.831C141.447 219.245 141.97 218.673 142.516 218.116C142.594 218.037 142.666 217.966 142.745 217.887C143.591 217.051 144.481 216.265 145.406 215.522ZM174.553 210.627C175.543 210.984 176.045 212.399 176.288 213.521C176.676 215.3 176.747 217.794 176.489 220.738C176.21 223.961 175.557 227.62 174.596 231.522C173.434 231.322 172.294 231.093 171.189 230.843C167.367 229.964 163.874 228.771 160.761 227.263C162.619 223.404 164.584 219.96 166.549 217.151C168.249 214.728 169.905 212.856 171.347 211.741C172.1 211.162 173.111 210.541 174.001 210.541C174.194 210.534 174.374 210.562 174.553 210.627ZM170.658 232.573C171.792 232.837 172.954 233.066 174.144 233.273C173.305 236.41 172.279 239.676 171.074 242.978C170.608 244.25 170.135 245.5 169.64 246.729C165.129 245.079 160.345 242.72 155.64 239.805C155.884 239.097 156.135 238.383 156.393 237.675C157.512 234.609 158.717 231.658 159.987 228.899C163.192 230.443 166.757 231.672 170.658 232.573ZM188.38 217.894C191.343 220.846 193.673 224.29 195.301 228.121C195.882 229.485 196.363 230.886 196.743 232.308C189.306 232.851 182.492 232.68 176.396 231.801C177.364 227.863 178.017 224.162 178.297 220.889C178.612 217.28 178.576 212.999 177.106 210.591C177.45 210.719 177.787 210.855 178.125 210.998C181.969 212.627 185.426 214.943 188.38 217.894ZM165.566 208.475C167.804 208.475 169.999 208.697 172.15 209.147C169.619 210.248 167.029 213.306 165.064 216.115C163.056 218.988 161.048 222.504 159.147 226.434C157.871 225.741 156.659 224.99 155.518 224.19C151.746 221.525 149.487 218.73 148.26 216.858C147.608 215.865 147.163 215.014 146.883 214.407C148.21 213.471 149.601 212.627 151.057 211.899C151.653 211.598 152.255 211.32 152.865 211.062C152.908 211.041 152.951 211.027 153.001 211.005C153.008 210.998 153.023 210.998 153.03 210.991C153.159 210.934 153.295 210.884 153.424 210.827C153.46 210.812 153.496 210.798 153.532 210.784C157.347 209.254 161.399 208.475 165.566 208.475ZM134.045 212.499C135.093 210.841 137.438 209.983 140.73 209.983C142.308 209.983 144.093 210.176 146.066 210.576C146.812 210.727 147.579 210.905 148.354 211.112C145.8 212.585 143.448 214.385 141.339 216.501C140.895 216.937 140.472 217.387 140.056 217.851C139.532 218.423 139.037 219.023 138.557 219.631C137.789 220.603 137.086 221.617 136.434 222.654C133.522 218.352 132.647 214.707 134.045 212.499ZM135.824 228.121C136.111 227.463 136.405 226.813 136.728 226.177C140.715 231.143 146.589 236.217 153.453 240.619C152.477 243.571 151.653 246.472 150.979 249.252C145.987 248.051 141.354 246.687 137.302 245.229C136.448 244.929 135.623 244.614 134.834 244.3C134.368 244.121 133.902 243.928 133.45 243.735C133.378 243.042 133.328 242.342 133.314 241.641C133.307 241.305 133.3 240.977 133.3 240.634C133.3 240.241 133.307 239.848 133.314 239.455C133.429 236.532 133.924 233.68 134.791 230.929C134.942 230.465 135.093 230 135.272 229.543C135.444 229.064 135.623 228.592 135.824 228.121ZM130.008 242.192C123.84 239.19 121.021 236.296 122.283 234.245C123.302 232.58 127.003 231.458 132.676 231.036C131.98 233.373 131.557 235.796 131.392 238.247C131.342 238.976 131.313 239.705 131.306 240.441V240.634C131.306 241.37 131.334 242.106 131.377 242.835C130.904 242.627 130.452 242.413 130.008 242.192ZM134.684 245.879C135.516 246.193 136.369 246.501 137.251 246.808C141.289 248.202 145.815 249.495 150.656 250.646C150.476 251.425 150.319 252.196 150.168 252.954C149.774 252.861 149.379 252.768 148.978 252.675C142.286 251.16 137.258 250.846 134.935 250.796C134.361 249.066 133.931 247.294 133.665 245.486C134.01 245.615 134.347 245.75 134.684 245.879ZM135.824 253.147C135.752 252.975 135.681 252.797 135.609 252.625C138.442 252.739 143.147 253.204 148.648 254.455C149.049 254.547 149.444 254.64 149.838 254.733C149.537 256.491 149.315 258.171 149.171 259.75C148.913 262.744 148.891 266.196 149.731 268.661C147.177 267.232 144.839 265.46 142.745 263.373C139.783 260.422 137.452 256.977 135.824 253.147ZM178.125 270.262C174.144 271.941 169.927 272.792 165.566 272.792C162.21 272.792 158.932 272.284 155.784 271.284C158.172 270.041 160.567 267.175 162.418 264.538C163.372 263.18 164.326 261.672 165.265 260.043C170.687 262.487 175.894 265.495 180.792 268.99C179.925 269.455 179.035 269.876 178.125 270.262ZM188.38 263.373C186.595 265.152 184.63 266.703 182.514 268.011C177.371 264.266 171.878 261.065 166.154 258.464C166.943 257.027 167.718 255.512 168.471 253.926C173.707 254.619 178.748 255.033 183.346 255.141C184.543 255.176 185.712 255.176 186.838 255.169C189.772 255.133 192.375 254.962 194.613 254.647C193.049 257.878 190.955 260.808 188.38 263.373Z" fill="#C9EBFF"/>
<path d="M158.143 204.466L150.039 205.838L155.339 202.029L155.648 203.201L157.634 203.502L158.143 204.466Z" fill="#2486BF"/>
<path d="M150.039 205.839L156.716 202.187L163.343 201.679L150.039 205.839Z" fill="#C9EBFF"/>
<path d="M155.339 202.03L150.039 205.838L154.07 200L155.339 202.03Z" fill="#C9EBFF"/>
<path d="M122.555 224.169L130.222 227.113L125.782 222.332L125.251 223.418L123.243 223.325L122.555 224.169Z" fill="#2486BF"/>
<path d="M130.222 227.113L124.406 222.211L118.016 220.41L130.222 227.113Z" fill="#C9EBFF"/>
<path d="M125.781 222.332L130.221 227.113L127.438 220.596L125.781 222.332Z" fill="#C9EBFF"/>
<path d="M271.22 237.897H252.809C252.379 237.897 252.027 238.247 252.027 238.675V246.615C252.027 247.044 252.379 247.394 252.809 247.394H253.856V249.473L257.112 247.394H271.22C271.65 247.394 272.001 247.044 272.001 246.615V238.675C272.001 238.247 271.65 237.897 271.22 237.897Z" fill="#F7C78F"/>
<path d="M245.039 234.831L234.152 278.395L232.667 284.362L227.597 304.65H133.414L152.097 234.831H245.039Z" fill="#F1A34F"/>
<path d="M245.04 234.831L246.546 235.331L229.599 306.165L227.598 304.65L245.04 234.831Z" fill="#EE9849"/>
<path d="M152.099 234.831L137.059 290.943H137.023L151.97 234.831H152.099Z" fill="#9ED9F0"/>
<path d="M244.327 235.753L230.894 290.943H138.203L153.257 235.753H244.327Z" fill="#9ED9F0"/>
<path d="M245.189 234.831V235.753H244.328L244.55 234.831H245.189Z" fill="#F1A34F"/>
</g>
</g>
</g>
</g>
<defs>
<filter id="filter0_d_4654_10956" x="22.2857" y="28.2286" width="324.343" height="412.343" filterUnits="userSpaceOnUse" color-interpolation-filters="sRGB">
<feFlood flood-opacity="0" result="BackgroundImageFix"/>
<feColorMatrix in="SourceAlpha" type="matrix" values="0 0 0 0 0 0 0 0 0 0 0 0 0 0 0 0 0 0 127 0" result="hardAlpha"/>
<feOffset dx="-7.54286" dy="26.4"/>
<feGaussianBlur stdDeviation="15.0857"/>
<feComposite in2="hardAlpha" operator="out"/>
<feColorMatrix type="matrix" values="0 0 0 0 0 0 0 0 0 0 0 0 0 0 0 0 0 0 0.24 0"/>
<feBlend mode="normal" in2="BackgroundImageFix" result="effect1_dropShadow_4654_10956"/>
<feBlend mode="normal" in="SourceGraphic" in2="effect1_dropShadow_4654_10956" result="shape"/>
</filter>
<linearGradient id="paint0_linear_4654_10956" x1="24" y1="176" x2="-6.71423e-07" y2="176" gradientUnits="userSpaceOnUse">
<stop stop-opacity="0.16"/>
<stop offset="0.510417" stop-opacity="0"/>
<stop offset="1" stop-opacity="0.04"/>
</linearGradient>
<clipPath id="clip0_4654_10956">
<rect width="384" height="240" fill="white"/>
</clipPath>
<clipPath id="clip1_4654_10956">
<rect x="60" y="32" width="264" height="352" rx="16" fill="white"/>
</clipPath>
<clipPath id="clip2_4654_10956">
<rect width="12" height="12" fill="white" transform="translate(158 56)"/>
</clipPath>
<clipPath id="clip3_4654_10956">
<rect width="160" height="120" fill="white" transform="translate(112 200)"/>
</clipPath>
</defs>
</svg>
