<svg width="24" height="24" viewBox="0 0 24 24" fill="none" xmlns="http://www.w3.org/2000/svg">
<path d="M23.243 6.44792C23.5945 6.09645 23.5945 5.5266 23.243 5.17513L19.4246 1.35675C19.0732 1.00528 18.5033 1.00528 18.1518 1.35675L12.6364 6.87218C12.2849 7.22366 12.2849 7.7935 12.6364 8.14498L15.5548 11.0634C15.7236 11.2321 15.9525 11.327 16.1912 11.327L17.9912 11.327C18.2299 11.327 18.4588 11.2321 18.6276 11.0634L23.243 6.44792Z" fill="#7363E0"/>
<path d="M23.243 17.5521C23.5945 17.9036 23.5945 18.4734 23.243 18.8249L19.4246 22.6432C19.0732 22.9947 18.5033 22.9947 18.1518 22.6432L12.6364 17.1278C12.2849 16.7763 12.2849 16.2065 12.6364 15.855L15.5548 12.9366C15.7236 12.7679 15.9525 12.673 16.1912 12.673L17.9912 12.673C18.2299 12.673 18.4588 12.7679 18.6276 12.9366L23.243 17.5521Z" fill="#7363E0"/>
<path d="M0.757001 17.5521C0.40553 17.9036 0.40553 18.4734 0.757002 18.8249L4.57538 22.6432C4.92685 22.9947 5.4967 22.9947 5.84817 22.6432L11.3636 17.1278C11.7151 16.7763 11.7151 16.2065 11.3636 15.855L8.44523 12.9366C8.27644 12.7679 8.04753 12.673 7.80883 12.673L6.00883 12.673C5.77014 12.673 5.54122 12.7679 5.37243 12.9366L0.757001 17.5521Z" fill="#7363E0"/>
<path d="M0.757001 6.44792C0.40553 6.09645 0.40553 5.5266 0.757002 5.17513L4.57538 1.35675C4.92685 1.00528 5.4967 1.00528 5.84817 1.35675L11.3636 6.87218C11.7151 7.22366 11.7151 7.7935 11.3636 8.14498L8.44523 11.0634C8.27644 11.2321 8.04753 11.327 7.80883 11.327L6.00883 11.327C5.77014 11.327 5.54122 11.2321 5.37243 11.0634L0.757001 6.44792Z" fill="#7363E0"/>
</svg>
