<svg width="114" height="20" viewBox="0 0 114 20" fill="none" xmlns="http://www.w3.org/2000/svg">
<g clip-path="url(#clip0_4632_54362)">
<path d="M19.3691 5.37343C19.662 5.08054 19.662 4.60566 19.3691 4.31277L16.1871 1.13079C15.8942 0.837898 15.4193 0.837898 15.1264 1.13079L10.5302 5.72698C10.2374 6.01988 10.2374 6.49475 10.5302 6.78765L12.9622 9.21963C13.1029 9.36028 13.2936 9.4393 13.4926 9.4393L14.9926 9.4393C15.1915 9.4393 15.3822 9.36028 15.5229 9.21963L19.3691 5.37343Z" fill="#7363E0"/>
<path d="M19.3691 14.6265C19.662 14.9194 19.662 15.3943 19.3691 15.6872L16.1871 18.8691C15.8942 19.162 15.4193 19.162 15.1264 18.8691L10.5302 14.2729C10.2374 13.9801 10.2374 13.5052 10.5302 13.2123L12.9622 10.7803C13.1029 10.6397 13.2936 10.5606 13.4926 10.5606L14.9926 10.5606C15.1915 10.5606 15.3822 10.6397 15.5229 10.7803L19.3691 14.6265Z" fill="#7363E0"/>
<path d="M0.630916 14.6265C0.338023 14.9194 0.338023 15.3943 0.630916 15.6872L3.8129 18.8691C4.10579 19.162 4.58066 19.162 4.87356 18.8691L9.46975 14.2729C9.76264 13.9801 9.76264 13.5052 9.46975 13.2123L7.03777 10.7803C6.89712 10.6397 6.70635 10.5606 6.50744 10.5606L5.00744 10.5606C4.80853 10.5606 4.61776 10.6397 4.47711 10.7803L0.630916 14.6265Z" fill="#7363E0"/>
<path d="M0.630916 5.37343C0.338023 5.08054 0.338023 4.60566 0.630916 4.31277L3.8129 1.13079C4.10579 0.837898 4.58066 0.837898 4.87356 1.13079L9.46975 5.72698C9.76264 6.01988 9.76264 6.49475 9.46975 6.78765L7.03777 9.21963C6.89712 9.36028 6.70635 9.4393 6.50744 9.4393L5.00744 9.4393C4.80853 9.4393 4.61776 9.36028 4.47711 9.21963L0.630916 5.37343Z" fill="#7363E0"/>
</g>
<path d="M24 3V16.6808H26.7088V3H24Z" fill="#1B1B1F"/>
<path d="M41.5263 3V16.6808H44.2138V9.99849C44.5835 9.4168 45.0385 8.98408 45.5789 8.70033C46.1192 8.40239 46.6951 8.25343 47.3065 8.25343C48.7 8.25343 49.3968 8.99827 49.3968 10.488V16.6808H52.0842V10.2326C52.0842 8.99827 51.743 8.01224 51.0604 7.27449C50.3779 6.52256 49.347 6.14659 47.9677 6.14659C46.432 6.14659 45.1807 6.68571 44.2138 7.76396V3H41.5263Z" fill="#1B1B1F"/>
<path fill-rule="evenodd" clip-rule="evenodd" d="M66.8011 3V16.6808H69.4033V15.489C69.9863 16.0282 70.5906 16.4183 71.2163 16.6595C71.8419 16.8865 72.5884 17 73.4558 17C74.4938 17 75.4181 16.7801 76.2286 16.3403C77.0533 15.8863 77.6932 15.2549 78.1482 14.4463C78.6175 13.6234 78.8521 12.6728 78.8521 11.5946C78.8521 10.5305 78.6175 9.58705 78.1482 8.76417C77.6932 7.9413 77.0533 7.30287 76.2286 6.84887C75.4181 6.38068 74.4938 6.14659 73.4558 6.14659C72.6737 6.14659 71.9343 6.26009 71.2376 6.48709C70.5551 6.6999 69.9721 7.02621 69.4886 7.46602V3H66.8011ZM72.7946 14.8932C73.7615 14.8932 74.5578 14.5881 75.1835 13.9781C75.8091 13.368 76.122 12.5735 76.122 11.5946C76.122 10.6156 75.8091 9.81405 75.1835 9.1898C74.5578 8.56555 73.7615 8.25343 72.7946 8.25343C72.0268 8.25343 71.3371 8.46624 70.7257 8.89186C70.1285 9.3033 69.7161 9.85661 69.4886 10.5518V12.6161C69.7303 13.3113 70.1498 13.8646 70.747 14.276C71.3442 14.6874 72.0268 14.8932 72.7946 14.8932Z" fill="#1B1B1F"/>
<path fill-rule="evenodd" clip-rule="evenodd" d="M80.605 3V16.6808H83.2071V15.489C83.7901 16.0282 84.3944 16.4183 85.0201 16.6595C85.6457 16.8865 86.3923 17 87.2597 17C88.2977 17 89.2219 16.7801 90.0324 16.3403C90.8572 15.8863 91.497 15.2549 91.9521 14.4463C92.4213 13.6234 92.6559 12.6728 92.6559 11.5946C92.6559 10.5305 92.4213 9.58705 91.9521 8.76417C91.497 7.9413 90.8572 7.30287 90.0324 6.84887C89.2219 6.38068 88.2977 6.14659 87.2597 6.14659C86.4776 6.14659 85.7382 6.26009 85.0414 6.48709C84.3589 6.6999 83.7759 7.02621 83.2924 7.46602V3H80.605ZM88.9873 13.9781C88.3617 14.5881 87.5654 14.8932 86.5985 14.8932C85.8306 14.8932 85.1481 14.6874 84.5509 14.276C83.9536 13.8646 83.5342 13.3113 83.2924 12.6161V10.5518C83.5199 9.85661 83.9323 9.3033 84.5295 8.89186C85.141 8.46624 85.8306 8.25343 86.5985 8.25343C87.5654 8.25343 88.3617 8.56555 88.9873 9.1898C89.613 9.81405 89.9258 10.6156 89.9258 11.5946C89.9258 12.5735 89.613 13.368 88.9873 13.9781Z" fill="#1B1B1F"/>
<path d="M31.4911 6.14659H28.8889V16.6808H31.5764V9.99849C31.9461 9.4168 32.4011 8.98408 32.9415 8.70033C33.4818 8.40239 34.0577 8.25343 34.6691 8.25343C36.0626 8.25343 36.7594 8.99827 36.7594 10.488V16.6808H39.4468V10.2326C39.4468 8.99827 39.1056 8.01224 38.423 7.27449C37.7405 6.52256 36.7096 6.14659 35.3303 6.14659C34.5909 6.14659 33.8871 6.28846 33.2187 6.57221C32.5504 6.84177 31.9745 7.2674 31.4911 7.84908V6.14659Z" fill="#1B1B1F"/>
<path d="M55.0809 15.8934C55.7634 16.6311 56.7943 17 58.1736 17C58.913 17 59.6169 16.8652 60.2852 16.5957C60.9535 16.3119 61.5294 15.8792 62.0128 15.2975V16.6808H64.615V6.46581H61.9275V13.1481C61.5578 13.7298 61.1028 14.1696 60.5625 14.4675C60.0221 14.7513 59.4462 14.8932 58.8348 14.8932C57.4413 14.8932 56.7445 14.1483 56.7445 12.6586V6.46581H54.0571V12.914C54.0571 14.1483 54.3983 15.1414 55.0809 15.8934Z" fill="#1B1B1F"/>
<path fill-rule="evenodd" clip-rule="evenodd" d="M100.168 17C98.2623 17 96.755 16.5247 95.6459 15.5742C94.5368 14.6236 93.9822 13.2971 93.9822 11.5946C93.9822 9.92045 94.4728 8.59393 95.4539 7.61499C96.4351 6.63605 97.8357 6.14659 99.6558 6.14659C100.85 6.14659 101.867 6.37359 102.706 6.82759C103.559 7.28158 104.199 7.90583 104.625 8.70033C105.052 9.48064 105.265 10.3745 105.265 11.3818V12.6161H96.5417C96.7266 14.1341 98.049 14.8932 100.509 14.8932C101.163 14.8932 101.831 14.8364 102.514 14.7229C103.196 14.6094 103.794 14.4533 104.306 14.2547V16.319C103.822 16.5176 103.196 16.6808 102.429 16.8085C101.675 16.9362 100.921 17 100.168 17ZM102.727 10.7859C102.699 9.9772 102.407 9.35295 101.853 8.91314C101.312 8.47333 100.566 8.25343 99.6131 8.25343C98.6746 8.25343 97.9352 8.48043 97.3949 8.93442C96.8545 9.38842 96.5702 10.0056 96.5417 10.7859H102.727Z" fill="#1B1B1F"/>
<path d="M109.628 6.46581H107.025V16.6808H109.713V10.488C110.011 9.80695 110.538 9.31039 111.291 8.99827C112.059 8.67196 112.962 8.5088 114 8.5088V6.46581C113.019 6.46581 112.144 6.60059 111.377 6.87015C110.623 7.13971 110.04 7.55115 109.628 8.10446V6.46581Z" fill="#1B1B1F"/>
<defs>
<clipPath id="clip0_4632_54362">
<rect width="20" height="20" fill="white"/>
</clipPath>
</defs>
</svg>
