<svg width="104" height="24" viewBox="0 0 104 24" fill="none" xmlns="http://www.w3.org/2000/svg">
<path opacity="0.55" d="M1 9.33745L10.4044 9.33933L16.1228 9.3403V3.67505L1 9.33745Z" fill="#ABA9B8"/>
<path opacity="0.75" d="M16.1226 3.67512V23.6763L23.2648 1L16.1226 3.67512Z" fill="#ABA9B8"/>
<path d="M16.1228 9.34033L10.4043 9.33936L16.1228 23.6763V9.34033Z" fill="#ABA9B8"/>
<path opacity="0.35" d="M1 9.33752L11.8708 13.0181L10.4044 9.3394L1 9.33752Z" fill="#ABA9B8"/>
<path d="M35.6437 18.4112C35.5608 18.4942 35.4226 18.5976 35.2294 18.7219C35.0359 18.8463 34.784 18.9705 34.4733 19.0949C34.1626 19.219 33.7827 19.3259 33.3341 19.416C32.8851 19.5055 32.3709 19.5505 31.7909 19.5505C30.6722 19.5505 29.7055 19.3709 28.8909 19.012C28.0759 18.6532 27.4027 18.1522 26.8712 17.5103C26.3395 16.8681 25.9495 16.1087 25.7009 15.2316C25.4524 14.3548 25.3281 13.3917 25.3281 12.342C25.3281 11.2928 25.4627 10.3224 25.732 9.43174C26.0013 8.54099 26.4052 7.77142 26.9437 7.12207C27.4823 6.4732 28.1555 5.96563 28.9634 5.59956C29.7713 5.2339 30.7205 5.05066 31.8116 5.05066C32.3502 5.05066 32.8369 5.09915 33.272 5.19564C33.707 5.29234 34.0866 5.40636 34.4113 5.53743C34.7355 5.66885 35.0049 5.80666 35.2191 5.95171C35.433 6.09669 35.5953 6.21781 35.706 6.31416C35.8302 6.42492 35.9371 6.55599 36.027 6.70771C36.1167 6.85986 36.1616 7.02557 36.1616 7.20492C36.1616 7.48132 36.058 7.75737 35.8509 8.03348C35.6438 8.30988 35.4159 8.56534 35.1673 8.79992C35.0016 8.63421 34.8152 8.4653 34.6081 8.29249C34.4009 8.11989 34.1695 7.96816 33.9141 7.83674C33.6585 7.70568 33.3685 7.59527 33.0441 7.50532C32.7195 7.41565 32.3571 7.37063 31.9567 7.37063C31.2524 7.37063 30.6621 7.51242 30.1856 7.79528C29.7092 8.0785 29.326 8.44777 29.036 8.90351C28.746 9.35925 28.5389 9.8806 28.4145 10.4674C28.2903 11.0545 28.2282 11.6517 28.2282 12.2592C28.2282 12.9084 28.2903 13.5298 28.4145 14.1234C28.5388 14.7172 28.7527 15.2421 29.0567 15.6977C29.3603 16.1533 29.7574 16.5194 30.2477 16.7954C30.7377 17.0719 31.3488 17.2098 32.0809 17.2098C32.4673 17.2098 32.8231 17.1616 33.1477 17.0649C33.472 16.9683 33.7587 16.8508 34.0073 16.7125C34.2559 16.5748 34.4734 16.4299 34.6598 16.2778C34.8462 16.1258 35.0016 15.9949 35.1259 15.8841C35.2088 15.9809 35.3052 16.0984 35.4159 16.2363C35.5271 16.3757 35.6308 16.5209 35.7266 16.6713C35.823 16.8234 35.9059 16.9752 35.9751 17.1269C36.0441 17.2791 36.0786 17.417 36.0786 17.5411C36.0786 17.7208 36.0441 17.8726 35.9751 17.9969C35.9058 18.1212 35.7954 18.2594 35.6437 18.4112ZM46.3185 16.8226C46.3185 17.9202 46.478 18.719 46.7978 19.2191C46.5477 19.3162 46.315 19.3858 46.0997 19.4274C45.8841 19.4692 45.6585 19.4899 45.4224 19.4899C44.9223 19.4899 44.5436 19.3927 44.2868 19.1982C44.0296 19.0039 43.8664 18.726 43.7971 18.3646C43.4912 18.6845 43.0884 18.9553 42.5884 19.1776C42.0883 19.3995 41.4767 19.5109 40.7546 19.5109C40.3794 19.5109 40.0044 19.4589 39.6293 19.3554C39.2541 19.251 38.9136 19.0817 38.6081 18.8465C38.3023 18.6109 38.0524 18.2958 37.8579 17.9011C37.6632 17.5064 37.5662 17.0252 37.5662 16.4576C37.5662 15.7513 37.7362 15.1764 38.0767 14.7334C38.417 14.2901 38.8442 13.9405 39.3584 13.6842C39.8722 13.4282 40.428 13.252 41.0255 13.1548C41.6227 13.0577 42.1717 12.9956 42.6717 12.9676C42.8386 12.9539 43.0016 12.9467 43.1615 12.9467H43.6095V12.5674C43.6095 12.0334 43.4669 11.654 43.1823 11.4294C42.8973 11.2047 42.4353 11.0921 41.7965 11.0921C41.199 11.0921 40.6676 11.1894 40.2023 11.3838C39.7367 11.5785 39.2818 11.8006 38.8374 12.0507C38.6427 11.8145 38.4863 11.5541 38.3685 11.2692C38.2504 10.9847 38.1914 10.7727 38.1914 10.6336C38.1914 10.4392 38.2988 10.2517 38.5144 10.0709C38.7296 9.89062 39.0249 9.72713 39.4001 9.58125C39.7752 9.43536 40.2057 9.31751 40.6922 9.227C41.1782 9.13677 41.6923 9.09155 42.2342 9.09155C42.9844 9.09155 43.6199 9.16808 44.1409 9.32078C44.6619 9.47383 45.0855 9.70988 45.4121 10.0293C45.7384 10.3491 45.9712 10.7483 46.1102 11.2275C46.2489 11.7068 46.3186 12.2662 46.3186 12.905V16.8226H46.3185ZM43.651 14.4053H43.3594C43.2619 14.4053 43.1646 14.4126 43.0676 14.4263C42.7201 14.4543 42.3763 14.4959 42.0361 14.5512C41.6955 14.6069 41.3933 14.7041 41.1297 14.843C40.8656 14.982 40.6503 15.1627 40.4837 15.3847C40.3169 15.6071 40.2336 15.8921 40.2336 16.2392C40.2336 16.6283 40.3446 16.958 40.5669 17.229C40.789 17.5 41.1641 17.6354 41.6923 17.6354C41.956 17.6354 42.2062 17.6009 42.4425 17.5311C42.6785 17.4619 42.8869 17.3715 43.0676 17.2604C43.248 17.1492 43.3907 17.0277 43.4949 16.8956C43.599 16.7637 43.6511 16.6423 43.6511 16.531V14.4053H43.651ZM51.5071 10.3001C51.7285 10.0364 52.075 9.76874 52.5457 9.49777C53.0166 9.22687 53.6121 9.09141 54.3323 9.09141C54.8449 9.09141 55.333 9.17831 55.7971 9.35188C56.2607 9.52573 56.6729 9.80714 57.033 10.1959C57.3932 10.585 57.6805 11.0991 57.8953 11.7379C58.1099 12.3771 58.2173 13.1622 58.2173 14.0927C58.2173 15.1763 58.0925 16.0691 57.8433 16.7705C57.5939 17.4724 57.2721 18.0281 56.8776 18.4378C56.4828 18.8476 56.0429 19.1359 55.5584 19.3025C55.0736 19.4692 54.5888 19.5527 54.1042 19.5527C53.7025 19.5527 53.3527 19.5074 53.0552 19.4172C52.7572 19.3267 52.5046 19.2263 52.2968 19.115C52.0891 19.004 51.9299 18.893 51.8192 18.7816C51.7085 18.6705 51.6391 18.5939 51.6115 18.5522V23.6749H48.7774V9.38312C48.8471 9.36948 48.9311 9.3555 49.0293 9.34151C49.1134 9.32788 49.2114 9.31737 49.3234 9.31021C49.4353 9.30339 49.5683 9.29984 49.7222 9.29984C50.184 9.29984 50.576 9.37637 50.8979 9.52907C51.2198 9.68212 51.4231 9.93897 51.5071 10.3001ZM55.2582 14.1552C55.2582 13.7385 55.2236 13.3497 55.1546 12.9883C55.0856 12.6272 54.9716 12.3146 54.8127 12.0506C54.6538 11.7868 54.4395 11.5817 54.1702 11.4357C53.9006 11.2899 53.5728 11.2171 53.1862 11.2171C52.6061 11.2171 52.202 11.3284 51.974 11.5504C51.7461 11.7728 51.6322 12.0161 51.6322 12.2798V16.6977C51.7425 16.809 51.9391 16.9408 52.2224 17.0936C52.5057 17.2466 52.8336 17.3227 53.2067 17.3227C53.9113 17.3227 54.4293 17.0451 54.7609 16.4893C55.0924 15.9337 55.2582 15.1555 55.2582 14.1552ZM60.4047 17.7396C60.3073 17.4619 60.2448 17.17 60.2171 16.8643C60.1892 16.5588 60.1755 16.2533 60.1755 15.9473V6.27813C60.2725 6.26449 60.3767 6.25051 60.4881 6.23646C60.585 6.22282 60.6892 6.21246 60.8005 6.20522C60.9117 6.1984 61.0227 6.19485 61.1339 6.19485C61.3561 6.19485 61.5785 6.21573 61.8009 6.25733C62.0229 6.29907 62.2244 6.38241 62.4053 6.50736C62.5857 6.63237 62.7315 6.80275 62.8428 7.01792C62.9539 7.23345 63.0095 7.51485 63.0095 7.86186V9.34137H65.9271V11.4462H63.0095V15.8901C63.0095 16.8592 63.4054 17.3436 64.1974 17.3436C64.3918 17.3436 64.5757 17.3125 64.7496 17.2498C64.9232 17.1873 65.0794 17.118 65.2185 17.0415C65.3573 16.9651 65.479 16.8853 65.5832 16.8018C65.6874 16.7184 65.7603 16.656 65.8019 16.6144C66.0103 16.9202 66.1699 17.1849 66.2812 17.4083C66.3923 17.6319 66.4479 17.8418 66.4479 18.0379C66.4479 18.2204 66.3752 18.3994 66.2291 18.5745C66.0831 18.7497 65.8781 18.9112 65.6143 19.0584C65.3503 19.2055 65.031 19.3247 64.6558 19.4159C64.2807 19.5071 63.8707 19.5527 63.4263 19.5527C62.5647 19.5527 61.8945 19.3859 61.4153 19.0526C60.936 18.719 60.5989 18.2814 60.4047 17.7396ZM73.1049 17.4687C73.4533 17.4687 73.76 17.4306 74.0251 17.354C74.2898 17.2779 74.5268 17.1841 74.736 17.0729C74.945 16.9619 75.1264 16.8402 75.2798 16.7082C75.4331 16.5763 75.5724 16.4548 75.6982 16.3434C75.8652 16.5517 76.0394 16.8194 76.2208 17.1456C76.402 17.4723 76.4927 17.7396 76.4927 17.9479C76.4927 18.2537 76.3188 18.5315 75.9718 18.7816C75.68 19.004 75.2664 19.195 74.7319 19.3545C74.1968 19.5142 73.5681 19.5942 72.846 19.5942C72.1926 19.5942 71.5502 19.5109 70.9183 19.3442C70.2861 19.1775 69.7233 18.8857 69.2304 18.4689C68.737 18.0523 68.3376 17.4932 68.032 16.7915C67.7264 16.09 67.5736 15.2045 67.5736 14.1344C67.5736 13.2591 67.7091 12.5058 67.9798 11.8735C68.2509 11.2414 68.6119 10.717 69.0638 10.3002C69.5149 9.88338 70.0255 9.57798 70.5953 9.38319C71.1647 9.18888 71.7484 9.09148 72.3458 9.09148C73.1237 9.09148 73.7836 9.2133 74.3254 9.45616C74.8673 9.69938 75.3081 10.0259 75.6487 10.4356C75.9889 10.8454 76.2355 11.3143 76.3885 11.8422C76.5411 12.3703 76.6177 12.9258 76.6177 13.5093V13.801C76.6177 13.9125 76.6141 14.0302 76.6073 14.1552C76.6002 14.2804 76.5933 14.4021 76.5865 14.5199C76.5793 14.6383 76.5688 14.7319 76.5553 14.8013H70.4077C70.4634 15.5655 70.7004 16.201 71.1186 16.7082C71.5365 17.2154 72.1987 17.4687 73.1049 17.4687ZM74.0545 13.2383C74.0545 12.5715 73.9251 12.0297 73.6666 11.6129C73.4081 11.1962 72.9433 10.9877 72.2731 10.9877C71.6999 10.9877 71.2424 11.1858 70.9002 11.5817C70.5576 11.9777 70.3868 12.5298 70.3868 13.2383H74.0545V13.2383ZM81.5497 10.3528C81.6329 10.2288 81.744 10.091 81.8831 9.93925C82.0218 9.78759 82.1921 9.64977 82.3936 9.5258C82.5949 9.40176 82.8172 9.29817 83.0605 9.21553C83.3033 9.13281 83.5639 9.09148 83.842 9.09148C84.0087 9.09148 84.1858 9.10547 84.3733 9.13281C84.5609 9.1605 84.7344 9.21226 84.8942 9.28781C85.0539 9.36371 85.1826 9.46688 85.2798 9.5978C85.3769 9.72873 85.4257 9.89055 85.4257 10.0833C85.4257 10.3864 85.3491 10.7346 85.1965 11.1275C85.0434 11.5209 84.8909 11.8563 84.7381 12.134C84.5016 11.9396 84.2655 11.7902 84.0295 11.686C83.7931 11.5818 83.5153 11.5297 83.1959 11.5297C82.7652 11.5297 82.4041 11.6551 82.1124 11.9057C81.8204 12.1565 81.6746 12.456 81.6746 12.8044V19.5504H78.8407V9.38312C78.91 9.36948 78.9933 9.3555 79.0906 9.34151C79.174 9.32788 79.2712 9.31737 79.3824 9.31021C79.4935 9.30339 79.6253 9.29984 79.7783 9.29984C80.2228 9.29984 80.6083 9.38604 80.9349 9.55808C81.2611 9.72992 81.4663 9.99497 81.5497 10.3528ZM89.6073 10.3528C89.6907 10.2288 89.8017 10.091 89.9408 9.93925C90.0795 9.78759 90.2498 9.64977 90.4513 9.5258C90.6526 9.40176 90.8749 9.29817 91.1182 9.21553C91.3611 9.13281 91.6216 9.09148 91.8996 9.09148C92.0662 9.09148 92.2434 9.10547 92.4309 9.13281C92.6184 9.1605 92.792 9.21226 92.9519 9.28781C93.1116 9.36371 93.24 9.46688 93.3376 9.5978C93.4346 9.72873 93.4834 9.89055 93.4834 10.0833C93.4834 10.3864 93.4068 10.7346 93.2542 11.1275C93.101 11.5209 92.9484 11.8563 92.7957 12.134C92.5594 11.9396 92.3231 11.7902 92.0871 11.686C91.8509 11.5818 91.573 11.5297 91.2536 11.5297C90.8229 11.5297 90.4617 11.6551 90.17 11.9057C89.8782 12.1565 89.7324 12.456 89.7324 12.8044V19.5504H86.8983V9.38312C86.9677 9.36948 87.051 9.3555 87.1484 9.34151C87.2318 9.32788 87.329 9.31737 87.4401 9.31021C87.5512 9.30339 87.683 9.29984 87.836 9.29984C88.2806 9.29984 88.6661 9.38604 88.9925 9.55808C89.3188 9.72992 89.5238 9.99497 89.6073 10.3528ZM103.132 16.8226C103.132 17.9202 103.292 18.719 103.611 19.2191C103.361 19.3162 103.128 19.3858 102.913 19.4274C102.698 19.4692 102.472 19.4899 102.236 19.4899C101.736 19.4899 101.357 19.3927 101.1 19.1982C100.843 19.0039 100.68 18.726 100.61 18.3646C100.305 18.6845 99.9019 18.9553 99.4018 19.1776C98.9017 19.3995 98.2901 19.5109 97.568 19.5109C97.1928 19.5109 96.8178 19.4589 96.4426 19.3554C96.0675 19.251 95.7269 19.0817 95.4215 18.8465C95.1158 18.6109 94.8657 18.2958 94.6713 17.9011C94.4767 17.5064 94.3797 17.0252 94.3797 16.4576C94.3797 15.7513 94.5495 15.1764 94.8902 14.7334C95.2304 14.2901 95.6577 13.9405 96.1718 13.6842C96.6856 13.4282 97.2413 13.252 97.839 13.1548C98.436 13.0577 98.9851 12.9956 99.4852 12.9676C99.6519 12.9539 99.815 12.9467 99.975 12.9467H100.423V12.5674C100.423 12.0334 100.28 11.654 99.9957 11.4294C99.7106 11.2047 99.2488 11.0921 98.6099 11.0921C98.0125 11.0921 97.4811 11.1894 97.0158 11.3838C96.5501 11.5785 96.0953 11.8006 95.6508 12.0507C95.4562 11.8145 95.2996 11.5541 95.1819 11.2692C95.0638 10.9847 95.0048 10.7727 95.0048 10.6336C95.0048 10.4392 95.1122 10.2517 95.3278 10.0709C95.5431 9.89062 95.8384 9.72713 96.2134 9.58125C96.5886 9.43536 97.019 9.31751 97.5054 9.227C97.9916 9.13677 98.5057 9.09155 99.0475 9.09155C99.7977 9.09155 100.433 9.16808 100.954 9.32078C101.475 9.47383 101.899 9.70988 102.225 10.0293C102.552 10.3491 102.784 10.7483 102.924 11.2275C103.062 11.7068 103.132 12.2662 103.132 12.905V16.8226ZM100.464 14.4053H100.173C100.075 14.4053 99.9781 14.4126 99.8811 14.4263C99.5337 14.4543 99.1897 14.4959 98.8495 14.5512C98.5089 14.6069 98.2068 14.7041 97.943 14.843C97.679 14.982 97.4637 15.1627 97.297 15.3847C97.1303 15.6071 97.0469 15.8921 97.0469 16.2392C97.0469 16.6283 97.158 16.958 97.3804 17.229C97.6024 17.5 97.9777 17.6354 98.5057 17.6354C98.7695 17.6354 99.0196 17.6009 99.256 17.5311C99.4921 17.4619 99.7003 17.3715 99.8811 17.2604C100.061 17.1492 100.204 17.0277 100.308 16.8956C100.412 16.7637 100.465 16.6423 100.465 16.531V14.4053H100.464Z" fill="#ABA9B8"/>
</svg>
