<svg width="289" height="80" viewBox="0 0 289 80" fill="none" xmlns="http://www.w3.org/2000/svg">
<g filter="url(#filter0_d_4539_12693)">
<rect x="16" y="8" width="257" height="48" rx="4" fill="white" shape-rendering="crispEdges"/>
<rect x="24.5" y="16.5" width="31" height="31" rx="3.5" fill="white"/>
<path d="M24 20C24 17.7909 25.7909 16 28 16H52C54.2091 16 56 17.7909 56 20V32H24V20Z" fill="#6651B8"/>
<path opacity="0.75" d="M35.0188 27H33.1353V21.1818H35.0785C35.6486 21.1818 36.1381 21.2983 36.5472 21.5312C36.9563 21.7623 37.2698 22.0947 37.4876 22.5284C37.7073 22.9602 37.8171 23.4782 37.8171 24.0824C37.8171 24.6884 37.7063 25.2093 37.4847 25.6449C37.265 26.0805 36.9469 26.4157 36.5302 26.6506C36.1135 26.8835 35.6097 27 35.0188 27ZM34.0131 26.233H34.9705C35.4137 26.233 35.7821 26.1496 36.0756 25.983C36.3692 25.8144 36.5889 25.571 36.7347 25.2528C36.8806 24.9328 36.9535 24.5426 36.9535 24.0824C36.9535 23.6259 36.8806 23.2386 36.7347 22.9205C36.5908 22.6023 36.3758 22.3608 36.0898 22.196C35.8039 22.0312 35.4487 21.9489 35.0245 21.9489H34.0131V26.233ZM40.7212 27.0881C40.2913 27.0881 39.921 26.9962 39.6104 26.8125C39.3017 26.6269 39.0631 26.3665 38.8945 26.0312C38.7279 25.6941 38.6445 25.2992 38.6445 24.8466C38.6445 24.3996 38.7279 24.0057 38.8945 23.6648C39.0631 23.3239 39.2979 23.0578 39.5991 22.8665C39.9021 22.6752 40.2563 22.5795 40.6616 22.5795C40.9078 22.5795 41.1464 22.6203 41.3775 22.7017C41.6085 22.7831 41.8159 22.911 41.9996 23.0852C42.1834 23.2595 42.3282 23.4858 42.4343 23.7642C42.5404 24.0407 42.5934 24.3769 42.5934 24.7727V25.0739H39.1246V24.4375H41.761C41.761 24.214 41.7156 24.0161 41.6246 23.8438C41.5337 23.6695 41.4059 23.5322 41.2411 23.4318C41.0782 23.3314 40.887 23.2812 40.6673 23.2812C40.4286 23.2812 40.2203 23.34 40.0423 23.4574C39.8661 23.5729 39.7298 23.7244 39.6332 23.9119C39.5385 24.0975 39.4911 24.2992 39.4911 24.517V25.0142C39.4911 25.3059 39.5423 25.554 39.6445 25.7585C39.7487 25.9631 39.8936 26.1193 40.0792 26.2273C40.2648 26.3333 40.4817 26.3864 40.7298 26.3864C40.8907 26.3864 41.0375 26.3636 41.1701 26.3182C41.3027 26.2708 41.4173 26.2008 41.5138 26.108C41.6104 26.0152 41.6843 25.9006 41.7354 25.7642L42.5394 25.9091C42.475 26.1458 42.3595 26.3532 42.1928 26.5312C42.0281 26.7074 41.8207 26.8447 41.5707 26.9432C41.3226 27.0398 41.0394 27.0881 40.7212 27.0881ZM45.3739 27.0881C44.9516 27.0881 44.5879 26.9924 44.283 26.8011C43.98 26.608 43.747 26.3419 43.5842 26.0028C43.4213 25.6638 43.3398 25.2756 43.3398 24.8381C43.3398 24.3949 43.4232 24.0038 43.5898 23.6648C43.7565 23.3239 43.9914 23.0578 44.2944 22.8665C44.5974 22.6752 44.9544 22.5795 45.3654 22.5795C45.6969 22.5795 45.9923 22.6411 46.2518 22.7642C46.5112 22.8854 46.7205 23.0559 46.8796 23.2756C47.0406 23.4953 47.1362 23.7519 47.1665 24.0455H46.3398C46.2944 23.8409 46.1902 23.6648 46.0273 23.517C45.8664 23.3693 45.6504 23.2955 45.3796 23.2955C45.1429 23.2955 44.9355 23.358 44.7575 23.483C44.5813 23.6061 44.444 23.7822 44.3455 24.0114C44.247 24.2386 44.1978 24.5076 44.1978 24.8182C44.1978 25.1364 44.2461 25.411 44.3427 25.642C44.4393 25.8731 44.5756 26.0521 44.7518 26.179C44.9298 26.3059 45.1391 26.3693 45.3796 26.3693C45.5406 26.3693 45.6864 26.34 45.8171 26.2812C45.9497 26.2206 46.0605 26.1345 46.1495 26.0227C46.2404 25.911 46.3039 25.7765 46.3398 25.6193H47.1665C47.1362 25.9015 47.0444 26.1534 46.891 26.375C46.7376 26.5966 46.5321 26.7708 46.2745 26.8977C46.0188 27.0246 45.7186 27.0881 45.3739 27.0881Z" fill="white"/>
<path d="M33.3001 44V42.858L36.33 39.8878C36.6197 39.5952 36.8612 39.3352 37.0544 39.108C37.2476 38.8807 37.3925 38.6605 37.4891 38.4474C37.5856 38.2344 37.6339 38.0071 37.6339 37.7656C37.6339 37.4901 37.5714 37.2543 37.4464 37.0582C37.3214 36.8594 37.1496 36.706 36.9308 36.598C36.7121 36.4901 36.4635 36.4361 36.1851 36.4361C35.8981 36.4361 35.6467 36.4957 35.4308 36.6151C35.2149 36.7315 35.0473 36.8977 34.928 37.1136C34.8115 37.3295 34.7533 37.5866 34.7533 37.8849H33.249C33.249 37.331 33.3754 36.8494 33.6283 36.4403C33.8811 36.0312 34.2291 35.7145 34.6723 35.4901C35.1183 35.2656 35.6297 35.1534 36.2064 35.1534C36.7916 35.1534 37.3058 35.2628 37.749 35.4815C38.1922 35.7003 38.5359 36 38.7802 36.3807C39.0274 36.7614 39.151 37.196 39.151 37.6847C39.151 38.0114 39.0885 38.3324 38.9635 38.6477C38.8385 38.9631 38.6183 39.3125 38.303 39.696C37.9905 40.0795 37.5516 40.544 36.9862 41.0895L35.4819 42.6193V42.679H39.2831V44H33.3001ZM43.6913 44.1193C43.1232 44.1193 42.6146 44.0128 42.1658 43.7997C41.7169 43.5838 41.3604 43.2884 41.0962 42.9134C40.8348 42.5384 40.6956 42.1094 40.6786 41.6264H42.2127C42.2411 41.9844 42.3959 42.277 42.6771 42.5043C42.9584 42.7287 43.2965 42.8409 43.6913 42.8409C44.001 42.8409 44.2766 42.7699 44.5181 42.6278C44.7595 42.4858 44.9499 42.2884 45.0891 42.0355C45.2283 41.7827 45.2965 41.4943 45.2936 41.1705C45.2965 40.8409 45.2269 40.5483 45.0848 40.2926C44.9428 40.0369 44.7482 39.8366 44.501 39.6918C44.2538 39.544 43.9698 39.4702 43.6487 39.4702C43.3874 39.4673 43.1303 39.5156 42.8774 39.6151C42.6246 39.7145 42.4243 39.8452 42.2766 40.0071L40.849 39.7727L41.305 35.2727H46.3675V36.5938H42.6132L42.3618 38.9077H42.4129C42.5749 38.7173 42.8036 38.5597 43.099 38.4347C43.3945 38.3068 43.7183 38.2429 44.0706 38.2429C44.599 38.2429 45.0706 38.3679 45.4854 38.6179C45.9002 38.8651 46.2269 39.206 46.4655 39.6406C46.7041 40.0753 46.8234 40.5724 46.8234 41.1321C46.8234 41.7088 46.6899 42.223 46.4229 42.6747C46.1587 43.1236 45.7908 43.4773 45.3192 43.7358C44.8504 43.9915 44.3078 44.1193 43.6913 44.1193Z" fill="#1B1B1F"/>
<rect x="24.5" y="16.5" width="31" height="31" rx="3.5" stroke="#E9E8EB"/>
<path d="M65.8374 29H64.3232L67.7255 19.5455H69.3736L72.7759 29H71.2617L68.5888 21.2628H68.5149L65.8374 29ZM66.0913 25.2976H71.0032V26.4979H66.0913V25.2976ZM78.4263 26.0593V21.9091H79.8112V29H78.454V27.772H78.3801C78.217 28.1506 77.9554 28.466 77.5953 28.7184C77.2383 28.9677 76.7936 29.0923 76.2612 29.0923C75.8057 29.0923 75.4025 28.9923 75.0516 28.7923C74.7039 28.5891 74.43 28.2891 74.2299 27.892C74.0329 27.495 73.9345 27.0041 73.9345 26.4194V21.9091H75.3148V26.2532C75.3148 26.7364 75.4487 27.1211 75.7164 27.4073C75.9842 27.6935 76.3319 27.8366 76.7597 27.8366C77.0183 27.8366 77.2752 27.772 77.5307 27.6428C77.7892 27.5135 78.0031 27.3181 78.1724 27.0565C78.3447 26.7949 78.4294 26.4625 78.4263 26.0593ZM84.8799 21.9091V23.017H81.0067V21.9091H84.8799ZM82.0454 20.2102H83.4257V26.918C83.4257 27.1857 83.4657 27.3873 83.5457 27.5227C83.6258 27.6551 83.7289 27.7459 83.8551 27.7951C83.9843 27.8413 84.1243 27.8643 84.2752 27.8643C84.3859 27.8643 84.4829 27.8567 84.566 27.8413C84.6491 27.8259 84.7137 27.8136 84.7599 27.8043L85.0092 28.9446C84.9292 28.9754 84.8153 29.0062 84.6676 29.0369C84.5198 29.0708 84.3352 29.0893 84.1136 29.0923C83.7504 29.0985 83.4119 29.0339 83.098 28.8984C82.784 28.763 82.5301 28.5537 82.3362 28.2706C82.1423 27.9875 82.0454 27.632 82.0454 27.2042V20.2102ZM89.2215 29.1431C88.5567 29.1431 87.9766 28.9908 87.4811 28.6861C86.9856 28.3814 86.6009 27.9551 86.327 27.4073C86.0531 26.8595 85.9161 26.2193 85.9161 25.4869C85.9161 24.7513 86.0531 24.1081 86.327 23.5572C86.6009 23.0063 86.9856 22.5785 87.4811 22.2738C87.9766 21.9691 88.5567 21.8168 89.2215 21.8168C89.8863 21.8168 90.4664 21.9691 90.9619 22.2738C91.4574 22.5785 91.8421 23.0063 92.116 23.5572C92.3899 24.1081 92.5269 24.7513 92.5269 25.4869C92.5269 26.2193 92.3899 26.8595 92.116 27.4073C91.8421 27.9551 91.4574 28.3814 90.9619 28.6861C90.4664 28.9908 89.8863 29.1431 89.2215 29.1431ZM89.2261 27.9844C89.657 27.9844 90.014 27.8705 90.2971 27.6428C90.5803 27.415 90.7896 27.1119 90.925 26.7333C91.0635 26.3548 91.1327 25.9377 91.1327 25.4822C91.1327 25.0298 91.0635 24.6143 90.925 24.2358C90.7896 23.8542 90.5803 23.5479 90.2971 23.3171C90.014 23.0863 89.657 22.9709 89.2261 22.9709C88.7922 22.9709 88.4321 23.0863 88.1459 23.3171C87.8627 23.5479 87.6519 23.8542 87.5134 24.2358C87.378 24.6143 87.3103 25.0298 87.3103 25.4822C87.3103 25.9377 87.378 26.3548 87.5134 26.7333C87.6519 27.1119 87.8627 27.415 88.1459 27.6428C88.4321 27.8705 88.7922 27.9844 89.2261 27.9844ZM93.9716 29V21.9091H95.2966V23.0632H95.3843C95.532 22.6723 95.7736 22.3677 96.1091 22.1491C96.4445 21.9276 96.8462 21.8168 97.314 21.8168C97.7879 21.8168 98.185 21.9276 98.505 22.1491C98.8282 22.3707 99.0667 22.6754 99.2206 23.0632H99.2944C99.4637 22.6847 99.733 22.383 100.102 22.1584C100.472 21.9306 100.912 21.8168 101.423 21.8168C102.066 21.8168 102.591 22.0183 102.997 22.4215C103.406 22.8247 103.611 23.4325 103.611 24.245V29H102.231V24.3743C102.231 23.8942 102.1 23.5464 101.838 23.331C101.577 23.1155 101.264 23.0078 100.901 23.0078C100.452 23.0078 100.102 23.1463 99.853 23.4233C99.6037 23.6972 99.4791 24.0496 99.4791 24.4805V29H98.1034V24.2866C98.1034 23.9019 97.9834 23.5926 97.7433 23.3587C97.5033 23.1248 97.1909 23.0078 96.8062 23.0078C96.5446 23.0078 96.303 23.0771 96.0814 23.2156C95.8629 23.351 95.6859 23.5402 95.5505 23.7834C95.4181 24.0265 95.352 24.3081 95.352 24.6282V29H93.9716ZM107.428 29.157C106.979 29.157 106.573 29.0739 106.21 28.9077C105.847 28.7384 105.559 28.4937 105.346 28.1737C105.137 27.8536 105.033 27.4612 105.033 26.9964C105.033 26.5964 105.109 26.267 105.263 26.0085C105.417 25.75 105.625 25.5453 105.887 25.3945C106.148 25.2437 106.441 25.1299 106.764 25.0529C107.087 24.976 107.416 24.9175 107.752 24.8775C108.176 24.8282 108.521 24.7882 108.786 24.7575C109.05 24.7236 109.243 24.6697 109.363 24.5959C109.483 24.522 109.543 24.402 109.543 24.2358V24.2035C109.543 23.8003 109.429 23.4879 109.201 23.2663C108.977 23.0447 108.641 22.9339 108.195 22.9339C107.73 22.9339 107.364 23.037 107.096 23.2433C106.831 23.4464 106.648 23.6726 106.547 23.9219L105.249 23.6264C105.403 23.1955 105.628 22.8478 105.923 22.5831C106.222 22.3153 106.565 22.1214 106.953 22.0014C107.341 21.8783 107.749 21.8168 108.176 21.8168C108.459 21.8168 108.76 21.8506 109.077 21.9183C109.397 21.983 109.695 22.103 109.972 22.2784C110.252 22.4538 110.482 22.7047 110.66 23.0309C110.839 23.354 110.928 23.7741 110.928 24.2912V29H109.58V28.0305H109.524C109.435 28.209 109.301 28.3845 109.123 28.5568C108.944 28.7292 108.715 28.8723 108.435 28.9862C108.155 29.1 107.819 29.157 107.428 29.157ZM107.729 28.049C108.11 28.049 108.436 27.9736 108.707 27.8228C108.981 27.672 109.189 27.475 109.33 27.2319C109.475 26.9857 109.547 26.7225 109.547 26.4425V25.5284C109.498 25.5777 109.403 25.6238 109.261 25.6669C109.123 25.7069 108.964 25.7423 108.786 25.7731C108.607 25.8008 108.433 25.8269 108.264 25.8516C108.095 25.8731 107.953 25.8916 107.839 25.907C107.572 25.9408 107.327 25.9978 107.105 26.0778C106.887 26.1578 106.711 26.2732 106.579 26.424C106.45 26.5717 106.385 26.7687 106.385 27.0149C106.385 27.3565 106.511 27.6151 106.764 27.7905C107.016 27.9628 107.338 28.049 107.729 28.049ZM115.98 21.9091V23.017H112.107V21.9091H115.98ZM113.146 20.2102H114.526V26.918C114.526 27.1857 114.566 27.3873 114.646 27.5227C114.726 27.6551 114.829 27.7459 114.955 27.7951C115.085 27.8413 115.225 27.8643 115.376 27.8643C115.486 27.8643 115.583 27.8567 115.666 27.8413C115.749 27.8259 115.814 27.8136 115.86 27.8043L116.11 28.9446C116.03 28.9754 115.916 29.0062 115.768 29.0369C115.62 29.0708 115.436 29.0893 115.214 29.0923C114.851 29.0985 114.512 29.0339 114.198 28.8984C113.884 28.763 113.63 28.5537 113.437 28.2706C113.243 27.9875 113.146 27.632 113.146 27.2042V20.2102ZM117.411 29V21.9091H118.792V29H117.411ZM118.108 20.815C117.868 20.815 117.662 20.735 117.49 20.5749C117.32 20.4118 117.236 20.2179 117.236 19.9933C117.236 19.7655 117.32 19.5716 117.49 19.4116C117.662 19.2485 117.868 19.1669 118.108 19.1669C118.348 19.1669 118.553 19.2485 118.722 19.4116C118.895 19.5716 118.981 19.7655 118.981 19.9933C118.981 20.2179 118.895 20.4118 118.722 20.5749C118.553 20.735 118.348 20.815 118.108 20.815ZM123.539 29.1431C122.853 29.1431 122.262 28.9877 121.767 28.6768C121.274 28.3629 120.896 27.9305 120.631 27.3796C120.366 26.8287 120.234 26.1978 120.234 25.4869C120.234 24.7667 120.369 24.1312 120.64 23.5803C120.911 23.0263 121.293 22.5939 121.785 22.283C122.278 21.9722 122.858 21.8168 123.525 21.8168C124.064 21.8168 124.544 21.9168 124.966 22.1168C125.387 22.3138 125.728 22.5908 125.986 22.9478C126.248 23.3048 126.403 23.7218 126.452 24.1989H125.109C125.035 23.8665 124.866 23.5803 124.601 23.3402C124.34 23.1001 123.989 22.9801 123.549 22.9801C123.164 22.9801 122.827 23.0817 122.538 23.2848C122.251 23.4848 122.028 23.7711 121.868 24.1435C121.708 24.5128 121.628 24.9498 121.628 25.4545C121.628 25.9716 121.707 26.4179 121.864 26.7933C122.021 27.1688 122.242 27.4596 122.528 27.6658C122.818 27.872 123.158 27.9751 123.549 27.9751C123.81 27.9751 124.047 27.9274 124.26 27.832C124.475 27.7335 124.655 27.5935 124.8 27.4119C124.947 27.2304 125.05 27.0118 125.109 26.7564H126.452C126.403 27.215 126.254 27.6243 126.005 27.9844C125.755 28.3445 125.421 28.6276 125.003 28.8338C124.587 29.04 124.099 29.1431 123.539 29.1431ZM134.164 29.1431C133.477 29.1431 132.887 28.9877 132.391 28.6768C131.899 28.3629 131.52 27.9305 131.255 27.3796C130.991 26.8287 130.858 26.1978 130.858 25.4869C130.858 24.7667 130.994 24.1312 131.265 23.5803C131.535 23.0263 131.917 22.5939 132.409 22.283C132.902 21.9722 133.482 21.8168 134.15 21.8168C134.688 21.8168 135.169 21.9168 135.59 22.1168C136.012 22.3138 136.352 22.5908 136.61 22.9478C136.872 23.3048 137.028 23.7218 137.077 24.1989H135.733C135.659 23.8665 135.49 23.5803 135.226 23.3402C134.964 23.1001 134.613 22.9801 134.173 22.9801C133.788 22.9801 133.451 23.0817 133.162 23.2848C132.876 23.4848 132.653 23.7711 132.493 24.1435C132.333 24.5128 132.253 24.9498 132.253 25.4545C132.253 25.9716 132.331 26.4179 132.488 26.7933C132.645 27.1688 132.867 27.4596 133.153 27.6658C133.442 27.872 133.782 27.9751 134.173 27.9751C134.435 27.9751 134.672 27.9274 134.884 27.832C135.099 27.7335 135.279 27.5935 135.424 27.4119C135.572 27.2304 135.675 27.0118 135.733 26.7564H137.077C137.028 27.215 136.878 27.6243 136.629 27.9844C136.38 28.3445 136.046 28.6276 135.627 28.8338C135.212 29.04 134.724 29.1431 134.164 29.1431ZM141.444 29.1431C140.779 29.1431 140.199 28.9908 139.703 28.6861C139.208 28.3814 138.823 27.9551 138.549 27.4073C138.275 26.8595 138.138 26.2193 138.138 25.4869C138.138 24.7513 138.275 24.1081 138.549 23.5572C138.823 23.0063 139.208 22.5785 139.703 22.2738C140.199 21.9691 140.779 21.8168 141.444 21.8168C142.109 21.8168 142.689 21.9691 143.184 22.2738C143.68 22.5785 144.064 23.0063 144.338 23.5572C144.612 24.1081 144.749 24.7513 144.749 25.4869C144.749 26.2193 144.612 26.8595 144.338 27.4073C144.064 27.9551 143.68 28.3814 143.184 28.6861C142.689 28.9908 142.109 29.1431 141.444 29.1431ZM141.448 27.9844C141.879 27.9844 142.236 27.8705 142.519 27.6428C142.803 27.415 143.012 27.1119 143.147 26.7333C143.286 26.3548 143.355 25.9377 143.355 25.4822C143.355 25.0298 143.286 24.6143 143.147 24.2358C143.012 23.8542 142.803 23.5479 142.519 23.3171C142.236 23.0863 141.879 22.9709 141.448 22.9709C141.014 22.9709 140.654 23.0863 140.368 23.3171C140.085 23.5479 139.874 23.8542 139.736 24.2358C139.6 24.6143 139.533 25.0298 139.533 25.4822C139.533 25.9377 139.6 26.3548 139.736 26.7333C139.874 27.1119 140.085 27.415 140.368 27.6428C140.654 27.8705 141.014 27.9844 141.448 27.9844ZM147.574 24.7898V29H146.194V21.9091H147.519V23.0632H147.607C147.77 22.6877 148.025 22.3861 148.373 22.1584C148.724 21.9306 149.165 21.8168 149.698 21.8168C150.181 21.8168 150.604 21.9183 150.967 22.1214C151.33 22.3215 151.612 22.62 151.812 23.017C152.012 23.4141 152.112 23.9049 152.112 24.4897V29H150.732V24.6559C150.732 24.1419 150.598 23.7403 150.33 23.451C150.062 23.1586 149.695 23.0124 149.227 23.0124C148.907 23.0124 148.622 23.0817 148.373 23.2202C148.127 23.3587 147.931 23.5618 147.787 23.8295C147.645 24.0942 147.574 24.4143 147.574 24.7898ZM157.177 21.9091V23.017H153.304V21.9091H157.177ZM154.343 20.2102H155.723V26.918C155.723 27.1857 155.763 27.3873 155.843 27.5227C155.923 27.6551 156.026 27.7459 156.153 27.7951C156.282 27.8413 156.422 27.8643 156.573 27.8643C156.683 27.8643 156.78 27.8567 156.864 27.8413C156.947 27.8259 157.011 27.8136 157.057 27.8043L157.307 28.9446C157.227 28.9754 157.113 29.0062 156.965 29.0369C156.817 29.0708 156.633 29.0893 156.411 29.0923C156.048 29.0985 155.709 29.0339 155.395 28.8984C155.082 28.763 154.828 28.5537 154.634 28.2706C154.44 27.9875 154.343 27.632 154.343 27.2042V20.2102ZM158.608 29V21.9091H159.942V23.0355H160.016C160.146 22.6539 160.373 22.3538 160.7 22.1353C161.029 21.9137 161.401 21.8029 161.817 21.8029C161.903 21.8029 162.005 21.806 162.121 21.8121C162.241 21.8183 162.335 21.826 162.403 21.8352V23.1555C162.348 23.1402 162.249 23.1232 162.108 23.1048C161.966 23.0832 161.824 23.0724 161.683 23.0724C161.357 23.0724 161.066 23.1417 160.81 23.2802C160.558 23.4156 160.358 23.6049 160.21 23.848C160.063 24.0881 159.989 24.362 159.989 24.6697V29H158.608ZM165.502 29.157C165.052 29.157 164.646 29.0739 164.283 28.9077C163.92 28.7384 163.632 28.4937 163.42 28.1737C163.21 27.8536 163.106 27.4612 163.106 26.9964C163.106 26.5964 163.183 26.267 163.337 26.0085C163.49 25.75 163.698 25.5453 163.96 25.3945C164.221 25.2437 164.514 25.1299 164.837 25.0529C165.16 24.976 165.489 24.9175 165.825 24.8775C166.25 24.8282 166.594 24.7882 166.859 24.7575C167.124 24.7236 167.316 24.6697 167.436 24.5959C167.556 24.522 167.616 24.402 167.616 24.2358V24.2035C167.616 23.8003 167.502 23.4879 167.274 23.2663C167.05 23.0447 166.714 22.9339 166.268 22.9339C165.803 22.9339 165.437 23.037 165.169 23.2433C164.905 23.4464 164.721 23.6726 164.62 23.9219L163.323 23.6264C163.477 23.1955 163.701 22.8478 163.997 22.5831C164.295 22.3153 164.638 22.1214 165.026 22.0014C165.414 21.8783 165.822 21.8168 166.25 21.8168C166.533 21.8168 166.833 21.8506 167.15 21.9183C167.47 21.983 167.768 22.103 168.045 22.2784C168.325 22.4538 168.555 22.7047 168.733 23.0309C168.912 23.354 169.001 23.7741 169.001 24.2912V29H167.653V28.0305H167.598C167.508 28.209 167.374 28.3845 167.196 28.5568C167.017 28.7292 166.788 28.8723 166.508 28.9862C166.228 29.1 165.893 29.157 165.502 29.157ZM165.802 28.049C166.183 28.049 166.51 27.9736 166.78 27.8228C167.054 27.672 167.262 27.475 167.404 27.2319C167.548 26.9857 167.621 26.7225 167.621 26.4425V25.5284C167.571 25.5777 167.476 25.6238 167.334 25.6669C167.196 25.7069 167.037 25.7423 166.859 25.7731C166.68 25.8008 166.507 25.8269 166.337 25.8516C166.168 25.8731 166.026 25.8916 165.913 25.907C165.645 25.9408 165.4 25.9978 165.179 26.0778C164.96 26.1578 164.785 26.2732 164.652 26.424C164.523 26.5717 164.458 26.7687 164.458 27.0149C164.458 27.3565 164.585 27.6151 164.837 27.7905C165.089 27.9628 165.411 28.049 165.802 28.049ZM173.73 29.1431C173.044 29.1431 172.453 28.9877 171.958 28.6768C171.465 28.3629 171.087 27.9305 170.822 27.3796C170.557 26.8287 170.425 26.1978 170.425 25.4869C170.425 24.7667 170.56 24.1312 170.831 23.5803C171.102 23.0263 171.484 22.5939 171.976 22.283C172.468 21.9722 173.049 21.8168 173.716 21.8168C174.255 21.8168 174.735 21.9168 175.157 22.1168C175.578 22.3138 175.919 22.5908 176.177 22.9478C176.439 23.3048 176.594 23.7218 176.643 24.1989H175.3C175.226 23.8665 175.057 23.5803 174.792 23.3402C174.531 23.1001 174.18 22.9801 173.74 22.9801C173.355 22.9801 173.018 23.0817 172.729 23.2848C172.442 23.4848 172.219 23.7711 172.059 24.1435C171.899 24.5128 171.819 24.9498 171.819 25.4545C171.819 25.9716 171.898 26.4179 172.055 26.7933C172.212 27.1688 172.433 27.4596 172.719 27.6658C173.009 27.872 173.349 27.9751 173.74 27.9751C174.001 27.9751 174.238 27.9274 174.451 27.832C174.666 27.7335 174.846 27.5935 174.991 27.4119C175.138 27.2304 175.241 27.0118 175.3 26.7564H176.643C176.594 27.215 176.445 27.6243 176.196 27.9844C175.946 28.3445 175.612 28.6276 175.194 28.8338C174.778 29.04 174.29 29.1431 173.73 29.1431ZM181.333 21.9091V23.017H177.46V21.9091H181.333ZM178.499 20.2102H179.879V26.918C179.879 27.1857 179.919 27.3873 179.999 27.5227C180.079 27.6551 180.182 27.7459 180.309 27.7951C180.438 27.8413 180.578 27.8643 180.729 27.8643C180.839 27.8643 180.936 27.8567 181.02 27.8413C181.103 27.8259 181.167 27.8136 181.213 27.8043L181.463 28.9446C181.383 28.9754 181.269 29.0062 181.121 29.0369C180.973 29.0708 180.789 29.0893 180.567 29.0923C180.204 29.0985 179.865 29.0339 179.552 28.8984C179.238 28.763 178.984 28.5537 178.79 28.2706C178.596 27.9875 178.499 27.632 178.499 27.2042V20.2102ZM186.109 29V21.9091H187.443V23.0355H187.517C187.646 22.6539 187.874 22.3538 188.2 22.1353C188.529 21.9137 188.902 21.8029 189.317 21.8029C189.403 21.8029 189.505 21.806 189.622 21.8121C189.742 21.8183 189.836 21.826 189.904 21.8352V23.1555C189.848 23.1402 189.75 23.1232 189.608 23.1048C189.467 23.0832 189.325 23.0724 189.183 23.0724C188.857 23.0724 188.566 23.1417 188.311 23.2802C188.058 23.4156 187.858 23.6049 187.711 23.848C187.563 24.0881 187.489 24.362 187.489 24.6697V29H186.109ZM193.804 29.1431C193.106 29.1431 192.504 28.9938 191.999 28.6953C191.498 28.3937 191.11 27.9705 190.836 27.4258C190.565 26.878 190.43 26.2363 190.43 25.5007C190.43 24.7744 190.565 24.1342 190.836 23.5803C191.11 23.0263 191.491 22.5939 191.981 22.283C192.473 21.9722 193.049 21.8168 193.707 21.8168C194.107 21.8168 194.495 21.8829 194.871 22.0153C195.246 22.1476 195.583 22.3554 195.882 22.6385C196.18 22.9216 196.416 23.2894 196.588 23.7418C196.76 24.1912 196.847 24.7375 196.847 25.3807V25.87H191.21V24.8359H195.494C195.494 24.4728 195.42 24.1512 195.272 23.8711C195.125 23.5879 194.917 23.3648 194.649 23.2017C194.384 23.0386 194.074 22.957 193.717 22.957C193.329 22.957 192.99 23.0524 192.701 23.2433C192.415 23.431 192.193 23.6772 192.036 23.9819C191.882 24.2835 191.805 24.6113 191.805 24.9652V25.7731C191.805 26.247 191.888 26.6502 192.055 26.9826C192.224 27.315 192.459 27.5689 192.761 27.7443C193.063 27.9167 193.415 28.0028 193.818 28.0028C194.08 28.0028 194.318 27.9659 194.534 27.892C194.749 27.8151 194.935 27.7012 195.092 27.5504C195.249 27.3996 195.369 27.2134 195.452 26.9918L196.759 27.2273C196.654 27.612 196.466 27.949 196.196 28.2383C195.928 28.5245 195.591 28.7476 195.185 28.9077C194.781 29.0646 194.321 29.1431 193.804 29.1431ZM199.662 24.7898V29H198.282V21.9091H199.607V23.0632H199.695C199.858 22.6877 200.113 22.3861 200.461 22.1584C200.812 21.9306 201.253 21.8168 201.786 21.8168C202.269 21.8168 202.692 21.9183 203.055 22.1214C203.419 22.3215 203.7 22.62 203.9 23.017C204.1 23.4141 204.2 23.9049 204.2 24.4897V29H202.82V24.6559C202.82 24.1419 202.686 23.7403 202.418 23.451C202.151 23.1586 201.783 23.0124 201.315 23.0124C200.995 23.0124 200.71 23.0817 200.461 23.2202C200.215 23.3587 200.019 23.5618 199.875 23.8295C199.733 24.0942 199.662 24.4143 199.662 24.7898ZM209.012 29.1431C208.313 29.1431 207.711 28.9938 207.207 28.6953C206.705 28.3937 206.317 27.9705 206.043 27.4258C205.772 26.878 205.637 26.2363 205.637 25.5007C205.637 24.7744 205.772 24.1342 206.043 23.5803C206.317 23.0263 206.699 22.5939 207.188 22.283C207.681 21.9722 208.256 21.8168 208.915 21.8168C209.315 21.8168 209.703 21.8829 210.078 22.0153C210.454 22.1476 210.791 22.3554 211.089 22.6385C211.388 22.9216 211.623 23.2894 211.795 23.7418C211.968 24.1912 212.054 24.7375 212.054 25.3807V25.87H206.417V24.8359H210.701C210.701 24.4728 210.627 24.1512 210.48 23.8711C210.332 23.5879 210.124 23.3648 209.856 23.2017C209.592 23.0386 209.281 22.957 208.924 22.957C208.536 22.957 208.198 23.0524 207.908 23.2433C207.622 23.431 207.401 23.6772 207.244 23.9819C207.09 24.2835 207.013 24.6113 207.013 24.9652V25.7731C207.013 26.247 207.096 26.6502 207.262 26.9826C207.431 27.315 207.667 27.5689 207.968 27.7443C208.27 27.9167 208.622 28.0028 209.026 28.0028C209.287 28.0028 209.526 27.9659 209.741 27.892C209.957 27.8151 210.143 27.7012 210.3 27.5504C210.457 27.3996 210.577 27.2134 210.66 26.9918L211.966 27.2273C211.862 27.612 211.674 27.949 211.403 28.2383C211.135 28.5245 210.798 28.7476 210.392 28.9077C209.989 29.0646 209.529 29.1431 209.012 29.1431ZM215.014 29L212.927 21.9091H214.354L215.743 27.1165H215.813L217.207 21.9091H218.633L220.018 27.0934H220.088L221.468 21.9091H222.894L220.812 29H219.404L217.964 23.8803H217.858L216.417 29H215.014ZM226.172 29.157C225.723 29.157 225.316 29.0739 224.953 28.9077C224.59 28.7384 224.302 28.4937 224.09 28.1737C223.881 27.8536 223.776 27.4612 223.776 26.9964C223.776 26.5964 223.853 26.267 224.007 26.0085C224.161 25.75 224.368 25.5453 224.63 25.3945C224.892 25.2437 225.184 25.1299 225.507 25.0529C225.83 24.976 226.16 24.9175 226.495 24.8775C226.92 24.8282 227.264 24.7882 227.529 24.7575C227.794 24.7236 227.986 24.6697 228.106 24.5959C228.226 24.522 228.286 24.402 228.286 24.2358V24.2035C228.286 23.8003 228.172 23.4879 227.945 23.2663C227.72 23.0447 227.384 22.9339 226.938 22.9339C226.473 22.9339 226.107 23.037 225.839 23.2433C225.575 23.4464 225.392 23.6726 225.29 23.9219L223.993 23.6264C224.147 23.1955 224.371 22.8478 224.667 22.5831C224.965 22.3153 225.309 22.1214 225.696 22.0014C226.084 21.8783 226.492 21.8168 226.92 21.8168C227.203 21.8168 227.503 21.8506 227.82 21.9183C228.14 21.983 228.439 22.103 228.716 22.2784C228.996 22.4538 229.225 22.7047 229.403 23.0309C229.582 23.354 229.671 23.7741 229.671 24.2912V29H228.323V28.0305H228.268C228.178 28.209 228.045 28.3845 227.866 28.5568C227.688 28.7292 227.458 28.8723 227.178 28.9862C226.898 29.1 226.563 29.157 226.172 29.157ZM226.472 28.049C226.854 28.049 227.18 27.9736 227.451 27.8228C227.725 27.672 227.932 27.475 228.074 27.2319C228.218 26.9857 228.291 26.7225 228.291 26.4425V25.5284C228.242 25.5777 228.146 25.6238 228.005 25.6669C227.866 25.7069 227.708 25.7423 227.529 25.7731C227.351 25.8008 227.177 25.8269 227.007 25.8516C226.838 25.8731 226.697 25.8916 226.583 25.907C226.315 25.9408 226.07 25.9978 225.849 26.0778C225.63 26.1578 225.455 26.2732 225.322 26.424C225.193 26.5717 225.129 26.7687 225.129 27.0149C225.129 27.3565 225.255 27.6151 225.507 27.7905C225.759 27.9628 226.081 28.049 226.472 28.049ZM232.794 19.5455V29H231.414V19.5455H232.794Z" fill="#1B1B1F"/>
<path d="M69.875 36.5C69.875 36.2929 70.0429 36.125 70.25 36.125H73.75C73.9571 36.125 74.125 36.2929 74.125 36.5C74.125 36.7071 73.9571 36.875 73.75 36.875H70.25C70.0429 36.875 69.875 36.7071 69.875 36.5Z" fill="#ABA9B8"/>
<path d="M69.8751 38.5C69.8751 38.2929 70.043 38.125 70.2501 38.125H72.0001C72.2072 38.125 72.3751 38.2929 72.3751 38.5C72.3751 38.7071 72.2072 38.875 72.0001 38.875H70.2501C70.043 38.875 69.8751 38.7071 69.8751 38.5Z" fill="#ABA9B8"/>
<path d="M69.75 40C69.6119 40 69.5 40.1119 69.5 40.25V42.25C69.5 42.3881 69.6119 42.5 69.75 42.5H74.25C74.3881 42.5 74.5 42.3881 74.5 42.25V40.25C74.5 40.1119 74.3881 40 74.25 40H69.75Z" fill="#ABA9B8"/>
<path fill-rule="evenodd" clip-rule="evenodd" d="M67.5 35.4615C67.5 34.6544 68.1544 34 68.9615 34H75.0362C75.8434 34 76.4978 34.6544 76.4978 35.4615V43.5385C76.4978 44.3456 75.8434 45 75.0362 45H68.9615C68.1544 45 67.5 44.3456 67.5 43.5385V35.4615ZM68.9615 35C68.7066 35 68.5 35.2066 68.5 35.4615V43.5385C68.5 43.7934 68.7066 44 68.9615 44H75.0362C75.2911 44 75.4978 43.7934 75.4978 43.5385V35.4615C75.4978 35.2066 75.2911 35 75.0362 35H68.9615Z" fill="#ABA9B8"/>
<path d="M87.8295 37.4545C87.7784 37.0227 87.571 36.6875 87.2074 36.4489C86.8438 36.2102 86.3977 36.0909 85.8693 36.0909C85.483 36.0909 85.1449 36.1534 84.8551 36.2784C84.5682 36.4034 84.3438 36.5753 84.1818 36.794C84.0227 37.0128 83.9432 37.2614 83.9432 37.5398C83.9432 37.7727 83.9986 37.973 84.1094 38.1406C84.223 38.3054 84.3679 38.4432 84.544 38.554C84.7202 38.6619 84.9048 38.7514 85.098 38.8224C85.2912 38.8906 85.4688 38.946 85.6307 38.9886L86.517 39.2273C86.7443 39.2869 86.9972 39.3693 87.2756 39.4744C87.5568 39.5795 87.8253 39.723 88.081 39.9048C88.3395 40.0838 88.5526 40.3139 88.7202 40.5952C88.8878 40.8764 88.9716 41.2216 88.9716 41.6307C88.9716 42.1023 88.848 42.5284 88.6009 42.9091C88.3565 43.2898 87.9986 43.5923 87.527 43.8168C87.0582 44.0412 86.4886 44.1534 85.8182 44.1534C85.1932 44.1534 84.652 44.0526 84.1946 43.8509C83.7401 43.6491 83.3821 43.3679 83.1207 43.0071C82.8622 42.6463 82.7159 42.2273 82.6818 41.75H83.7727C83.8011 42.0795 83.9119 42.3523 84.1051 42.5682C84.3011 42.7812 84.5483 42.9403 84.8466 43.0455C85.1477 43.1477 85.4716 43.1989 85.8182 43.1989C86.2216 43.1989 86.5838 43.1335 86.9048 43.0028C87.2259 42.8693 87.4801 42.6847 87.6676 42.4489C87.8551 42.2102 87.9489 41.9318 87.9489 41.6136C87.9489 41.3239 87.8679 41.0881 87.706 40.9062C87.544 40.7244 87.331 40.5767 87.0668 40.4631C86.8026 40.3494 86.517 40.25 86.2102 40.1648L85.1364 39.858C84.4545 39.6619 83.9148 39.3821 83.517 39.0185C83.1193 38.6548 82.9205 38.179 82.9205 37.5909C82.9205 37.1023 83.0526 36.6761 83.3168 36.3125C83.5838 35.946 83.9418 35.6619 84.3906 35.4602C84.8423 35.2557 85.3466 35.1534 85.9034 35.1534C86.4659 35.1534 86.9659 35.2543 87.4034 35.456C87.8409 35.6548 88.1875 35.9276 88.4432 36.2741C88.7017 36.6207 88.8381 37.0142 88.8523 37.4545H87.8295ZM94.6978 41.3239V37.4545H95.7035V44H94.6978V42.892H94.6296C94.4762 43.2244 94.2376 43.5071 93.9137 43.7401C93.5898 43.9702 93.1808 44.0852 92.6864 44.0852C92.2773 44.0852 91.9137 43.9957 91.5955 43.8168C91.2773 43.6349 91.0273 43.3622 90.8455 42.9986C90.6637 42.6321 90.5728 42.1705 90.5728 41.6136V37.4545H91.5785V41.5455C91.5785 42.0227 91.712 42.4034 91.979 42.6875C92.2489 42.9716 92.5927 43.1136 93.0103 43.1136C93.2603 43.1136 93.5146 43.0497 93.7731 42.9219C94.0344 42.794 94.2532 42.598 94.4293 42.3338C94.6083 42.0696 94.6978 41.733 94.6978 41.3239ZM97.5455 46.4545V37.4545H98.517V38.4943H98.6364C98.7102 38.3807 98.8125 38.2358 98.9432 38.0597C99.0767 37.8807 99.267 37.7216 99.5142 37.5824C99.7642 37.4403 100.102 37.3693 100.528 37.3693C101.08 37.3693 101.565 37.5071 101.986 37.7827C102.406 38.0582 102.734 38.4489 102.97 38.9545C103.206 39.4602 103.324 40.0568 103.324 40.7443C103.324 41.4375 103.206 42.0384 102.97 42.5469C102.734 43.0526 102.408 43.4446 101.99 43.723C101.572 43.9986 101.091 44.1364 100.545 44.1364C100.125 44.1364 99.7884 44.0668 99.5355 43.9276C99.2827 43.7855 99.0881 43.625 98.9517 43.446C98.8153 43.2642 98.7102 43.1136 98.6364 42.9943H98.5511V46.4545H97.5455ZM98.5341 40.7273C98.5341 41.2216 98.6065 41.6577 98.7514 42.0355C98.8963 42.4105 99.108 42.7045 99.3864 42.9176C99.6648 43.1278 100.006 43.233 100.409 43.233C100.83 43.233 101.18 43.1222 101.462 42.9006C101.746 42.6761 101.959 42.375 102.101 41.9972C102.246 41.6165 102.318 41.1932 102.318 40.7273C102.318 40.267 102.247 39.8523 102.105 39.483C101.966 39.1108 101.754 38.8168 101.47 38.6009C101.189 38.3821 100.835 38.2727 100.409 38.2727C100 38.2727 99.6563 38.3764 99.3778 38.5838C99.0994 38.7884 98.8892 39.0753 98.7472 39.4446C98.6051 39.8111 98.5341 40.2386 98.5341 40.7273ZM104.858 46.4545V37.4545H105.83V38.4943H105.949C106.023 38.3807 106.125 38.2358 106.256 38.0597C106.389 37.8807 106.58 37.7216 106.827 37.5824C107.077 37.4403 107.415 37.3693 107.841 37.3693C108.392 37.3693 108.878 37.5071 109.298 37.7827C109.719 38.0582 110.047 38.4489 110.283 38.9545C110.518 39.4602 110.636 40.0568 110.636 40.7443C110.636 41.4375 110.518 42.0384 110.283 42.5469C110.047 43.0526 109.72 43.4446 109.303 43.723C108.885 43.9986 108.403 44.1364 107.858 44.1364C107.438 44.1364 107.101 44.0668 106.848 43.9276C106.595 43.7855 106.401 43.625 106.264 43.446C106.128 43.2642 106.023 43.1136 105.949 42.9943H105.864V46.4545H104.858ZM105.847 40.7273C105.847 41.2216 105.919 41.6577 106.064 42.0355C106.209 42.4105 106.42 42.7045 106.699 42.9176C106.977 43.1278 107.318 43.233 107.722 43.233C108.142 43.233 108.493 43.1222 108.774 42.9006C109.058 42.6761 109.271 42.375 109.413 41.9972C109.558 41.6165 109.631 41.1932 109.631 40.7273C109.631 40.267 109.56 39.8523 109.418 39.483C109.278 39.1108 109.067 38.8168 108.783 38.6009C108.501 38.3821 108.148 38.2727 107.722 38.2727C107.313 38.2727 106.969 38.3764 106.69 38.5838C106.412 38.7884 106.202 39.0753 106.06 39.4446C105.918 39.8111 105.847 40.2386 105.847 40.7273ZM113.176 35.2727V44H112.17V35.2727H113.176ZM115.018 44V37.4545H116.024V44H115.018ZM115.529 36.3636C115.333 36.3636 115.164 36.2969 115.022 36.1634C114.883 36.0298 114.814 35.8693 114.814 35.6818C114.814 35.4943 114.883 35.3338 115.022 35.2003C115.164 35.0668 115.333 35 115.529 35C115.725 35 115.893 35.0668 116.032 35.2003C116.174 35.3338 116.245 35.4943 116.245 35.6818C116.245 35.8693 116.174 36.0298 116.032 36.1634C115.893 36.2969 115.725 36.3636 115.529 36.3636ZM120.61 44.1364C119.979 44.1364 119.435 43.9972 118.978 43.7188C118.523 43.4375 118.173 43.0455 117.925 42.5426C117.681 42.0369 117.559 41.4489 117.559 40.7784C117.559 40.108 117.681 39.517 117.925 39.0057C118.173 38.4915 118.516 38.0909 118.957 37.804C119.4 37.5142 119.917 37.3693 120.508 37.3693C120.849 37.3693 121.185 37.4261 121.518 37.5398C121.85 37.6534 122.153 37.8381 122.425 38.0938C122.698 38.3466 122.915 38.6818 123.077 39.0994C123.239 39.517 123.32 40.0312 123.32 40.642V41.0682H118.275V40.1989H122.298C122.298 39.8295 122.224 39.5 122.076 39.2102C121.931 38.9205 121.724 38.6918 121.454 38.5241C121.187 38.3565 120.871 38.2727 120.508 38.2727C120.107 38.2727 119.761 38.3722 119.468 38.571C119.178 38.767 118.955 39.0227 118.799 39.3381C118.643 39.6534 118.565 39.9915 118.565 40.3523V40.9318C118.565 41.4261 118.65 41.8452 118.82 42.1889C118.994 42.5298 119.234 42.7898 119.54 42.9688C119.847 43.1449 120.204 43.233 120.61 43.233C120.874 43.233 121.113 43.196 121.326 43.1222C121.542 43.0455 121.728 42.9318 121.884 42.7812C122.04 42.6278 122.161 42.4375 122.246 42.2102L123.218 42.483C123.116 42.8125 122.944 43.1023 122.702 43.3523C122.461 43.5994 122.163 43.7926 121.808 43.9318C121.452 44.0682 121.053 44.1364 120.61 44.1364ZM124.85 44V37.4545H125.822V38.4432H125.89C126.009 38.1193 126.225 37.8565 126.538 37.6548C126.85 37.4531 127.202 37.3523 127.594 37.3523C127.668 37.3523 127.761 37.3537 127.871 37.3565C127.982 37.3594 128.066 37.3636 128.123 37.3693V38.392C128.089 38.3835 128.011 38.3707 127.888 38.3537C127.769 38.3338 127.643 38.3239 127.509 38.3239C127.191 38.3239 126.907 38.3906 126.657 38.5241C126.41 38.6548 126.214 38.8366 126.069 39.0696C125.927 39.2997 125.856 39.5625 125.856 39.858V44H124.85ZM135.349 44.1364C134.735 44.1364 134.207 43.9915 133.764 43.7017C133.321 43.4119 132.98 43.0128 132.741 42.5043C132.502 41.9957 132.383 41.4148 132.383 40.7614C132.383 40.0966 132.505 39.5099 132.75 39.0014C132.997 38.4901 133.341 38.0909 133.781 37.804C134.224 37.5142 134.741 37.3693 135.332 37.3693C135.792 37.3693 136.207 37.4545 136.576 37.625C136.946 37.7955 137.248 38.0341 137.484 38.3409C137.72 38.6477 137.866 39.0057 137.923 39.4148H136.917C136.841 39.1165 136.67 38.8523 136.406 38.6222C136.145 38.3892 135.792 38.2727 135.349 38.2727C134.957 38.2727 134.613 38.375 134.318 38.5795C134.025 38.7812 133.797 39.0668 133.632 39.4361C133.47 39.8026 133.389 40.233 133.389 40.7273C133.389 41.233 133.468 41.6733 133.627 42.0483C133.789 42.4233 134.017 42.7145 134.309 42.9219C134.605 43.1293 134.951 43.233 135.349 43.233C135.61 43.233 135.848 43.1875 136.061 43.0966C136.274 43.0057 136.454 42.875 136.602 42.7045C136.75 42.5341 136.855 42.3295 136.917 42.0909H137.923C137.866 42.4773 137.725 42.8253 137.501 43.1349C137.279 43.4418 136.985 43.6861 136.619 43.8679C136.255 44.0469 135.832 44.1364 135.349 44.1364ZM142.052 44.1364C141.461 44.1364 140.943 43.9957 140.497 43.7145C140.054 43.4332 139.707 43.0398 139.457 42.5341C139.21 42.0284 139.086 41.4375 139.086 40.7614C139.086 40.0795 139.21 39.4844 139.457 38.9759C139.707 38.4673 140.054 38.0724 140.497 37.7912C140.943 37.5099 141.461 37.3693 142.052 37.3693C142.643 37.3693 143.16 37.5099 143.603 37.7912C144.049 38.0724 144.396 38.4673 144.643 38.9759C144.893 39.4844 145.018 40.0795 145.018 40.7614C145.018 41.4375 144.893 42.0284 144.643 42.5341C144.396 43.0398 144.049 43.4332 143.603 43.7145C143.16 43.9957 142.643 44.1364 142.052 44.1364ZM142.052 43.233C142.501 43.233 142.87 43.1179 143.16 42.8878C143.45 42.6577 143.664 42.3551 143.804 41.9801C143.943 41.6051 144.012 41.1989 144.012 40.7614C144.012 40.3239 143.943 39.9162 143.804 39.5384C143.664 39.1605 143.45 38.8551 143.16 38.6222C142.87 38.3892 142.501 38.2727 142.052 38.2727C141.603 38.2727 141.234 38.3892 140.944 38.6222C140.654 38.8551 140.44 39.1605 140.301 39.5384C140.162 39.9162 140.092 40.3239 140.092 40.7614C140.092 41.1989 140.162 41.6051 140.301 41.9801C140.44 42.3551 140.654 42.6577 140.944 42.8878C141.234 43.1179 141.603 43.233 142.052 43.233ZM147.559 40.0625V44H146.553V37.4545H147.525V38.4773H147.61C147.763 38.1449 147.996 37.8778 148.309 37.6761C148.621 37.4716 149.025 37.3693 149.519 37.3693C149.962 37.3693 150.35 37.4602 150.683 37.642C151.015 37.821 151.273 38.0938 151.458 38.4602C151.643 38.8239 151.735 39.2841 151.735 39.8409V44H150.729V39.9091C150.729 39.3949 150.596 38.9943 150.329 38.7074C150.062 38.4176 149.695 38.2727 149.229 38.2727C148.908 38.2727 148.621 38.3423 148.369 38.4815C148.119 38.6207 147.921 38.8239 147.776 39.0909C147.631 39.358 147.559 39.6818 147.559 40.0625ZM156.419 37.4545V38.3068H153.027V37.4545H156.419ZM154.016 35.8864H155.022V42.125C155.022 42.4091 155.063 42.6222 155.145 42.7642C155.23 42.9034 155.338 42.9972 155.469 43.0455C155.603 43.0909 155.743 43.1136 155.891 43.1136C156.002 43.1136 156.093 43.108 156.164 43.0966C156.235 43.0824 156.292 43.071 156.334 43.0625L156.539 43.9659C156.471 43.9915 156.375 44.017 156.253 44.0426C156.131 44.071 155.976 44.0852 155.789 44.0852C155.505 44.0852 155.226 44.0241 154.953 43.902C154.684 43.7798 154.459 43.5938 154.28 43.3438C154.104 43.0938 154.016 42.7784 154.016 42.3977V35.8864ZM157.932 44V37.4545H158.904V38.4432H158.972C159.091 38.1193 159.307 37.8565 159.62 37.6548C159.932 37.4531 160.284 37.3523 160.676 37.3523C160.75 37.3523 160.843 37.3537 160.953 37.3565C161.064 37.3594 161.148 37.3636 161.205 37.3693V38.392C161.171 38.3835 161.093 38.3707 160.971 38.3537C160.851 38.3338 160.725 38.3239 160.591 38.3239C160.273 38.3239 159.989 38.3906 159.739 38.5241C159.492 38.6548 159.296 38.8366 159.151 39.0696C159.009 39.2997 158.938 39.5625 158.938 39.858V44H157.932ZM164.323 44.1534C163.908 44.1534 163.532 44.0753 163.194 43.919C162.856 43.7599 162.587 43.5312 162.388 43.233C162.19 42.9318 162.09 42.5682 162.09 42.142C162.09 41.767 162.164 41.4631 162.312 41.2301C162.46 40.9943 162.657 40.8097 162.904 40.6761C163.151 40.5426 163.424 40.4432 163.722 40.3778C164.023 40.3097 164.326 40.2557 164.63 40.2159C165.028 40.1648 165.35 40.1264 165.597 40.1009C165.847 40.0724 166.029 40.0256 166.143 39.9602C166.259 39.8949 166.317 39.7812 166.317 39.6193V39.5852C166.317 39.1648 166.202 38.8381 165.972 38.6051C165.745 38.3722 165.4 38.2557 164.937 38.2557C164.457 38.2557 164.08 38.3608 163.808 38.571C163.535 38.7812 163.343 39.0057 163.232 39.2443L162.278 38.9034C162.448 38.5057 162.675 38.196 162.96 37.9744C163.246 37.75 163.559 37.5937 163.897 37.5057C164.238 37.4148 164.573 37.3693 164.903 37.3693C165.113 37.3693 165.354 37.3949 165.627 37.446C165.903 37.4943 166.168 37.5952 166.424 37.7486C166.683 37.902 166.897 38.1335 167.067 38.4432C167.238 38.7528 167.323 39.1676 167.323 39.6875V44H166.317V43.1136H166.266C166.198 43.2557 166.085 43.4077 165.925 43.5696C165.766 43.7315 165.555 43.8693 165.29 43.983C165.026 44.0966 164.704 44.1534 164.323 44.1534ZM164.477 43.25C164.874 43.25 165.21 43.1719 165.482 43.0156C165.758 42.8594 165.965 42.6577 166.104 42.4105C166.246 42.1634 166.317 41.9034 166.317 41.6307V40.7102C166.275 40.7614 166.181 40.8082 166.036 40.8509C165.894 40.8906 165.729 40.9261 165.542 40.9574C165.357 40.9858 165.177 41.0114 165.001 41.0341C164.827 41.054 164.687 41.071 164.579 41.0852C164.317 41.1193 164.073 41.1747 163.846 41.2514C163.621 41.3253 163.44 41.4375 163.3 41.5881C163.164 41.7358 163.096 41.9375 163.096 42.1932C163.096 42.5426 163.225 42.8068 163.484 42.9858C163.745 43.1619 164.076 43.25 164.477 43.25ZM171.818 44.1364C171.204 44.1364 170.676 43.9915 170.233 43.7017C169.789 43.4119 169.449 43.0128 169.21 42.5043C168.971 41.9957 168.852 41.4148 168.852 40.7614C168.852 40.0966 168.974 39.5099 169.218 39.0014C169.466 38.4901 169.809 38.0909 170.25 37.804C170.693 37.5142 171.21 37.3693 171.801 37.3693C172.261 37.3693 172.676 37.4545 173.045 37.625C173.414 37.7955 173.717 38.0341 173.953 38.3409C174.189 38.6477 174.335 39.0057 174.392 39.4148H173.386C173.309 39.1165 173.139 38.8523 172.875 38.6222C172.613 38.3892 172.261 38.2727 171.818 38.2727C171.426 38.2727 171.082 38.375 170.787 38.5795C170.494 38.7812 170.265 39.0668 170.1 39.4361C169.939 39.8026 169.858 40.233 169.858 40.7273C169.858 41.233 169.937 41.6733 170.096 42.0483C170.258 42.4233 170.485 42.7145 170.778 42.9219C171.074 43.1293 171.42 43.233 171.818 43.233C172.079 43.233 172.316 43.1875 172.529 43.0966C172.743 43.0057 172.923 42.875 173.071 42.7045C173.218 42.5341 173.324 42.3295 173.386 42.0909H174.392C174.335 42.4773 174.194 42.8253 173.97 43.1349C173.748 43.4418 173.454 43.6861 173.088 43.8679C172.724 44.0469 172.301 44.1364 171.818 44.1364ZM178.708 37.4545V38.3068H175.316V37.4545H178.708ZM176.305 35.8864H177.311V42.125C177.311 42.4091 177.352 42.6222 177.434 42.7642C177.52 42.9034 177.627 42.9972 177.758 43.0455C177.892 43.0909 178.032 43.1136 178.18 43.1136C178.291 43.1136 178.382 43.108 178.453 43.0966C178.524 43.0824 178.581 43.071 178.623 43.0625L178.828 43.9659C178.76 43.9915 178.664 44.017 178.542 44.0426C178.42 44.071 178.265 44.0852 178.078 44.0852C177.794 44.0852 177.515 44.0241 177.243 43.902C176.973 43.7798 176.748 43.5938 176.569 43.3438C176.393 43.0938 176.305 42.7784 176.305 42.3977V35.8864ZM183.733 44V35.2727H186.681C187.363 35.2727 187.923 35.3892 188.36 35.6222C188.798 35.8523 189.122 36.169 189.332 36.5724C189.542 36.9759 189.647 37.4347 189.647 37.9489C189.647 38.4631 189.542 38.919 189.332 39.3168C189.122 39.7145 188.799 40.027 188.365 40.2543C187.93 40.4787 187.375 40.5909 186.699 40.5909H184.312V39.6364H186.664C187.13 39.6364 187.505 39.5682 187.789 39.4318C188.076 39.2955 188.284 39.1023 188.412 38.8523C188.542 38.5994 188.608 38.2983 188.608 37.9489C188.608 37.5994 188.542 37.294 188.412 37.0327C188.281 36.7713 188.072 36.5696 187.785 36.4276C187.498 36.2827 187.119 36.2102 186.647 36.2102H184.789V44H183.733ZM187.841 40.0795L189.988 44H188.761L186.647 40.0795H187.841ZM193.861 44.1364C193.27 44.1364 192.751 43.9957 192.305 43.7145C191.862 43.4332 191.516 43.0398 191.266 42.5341C191.018 42.0284 190.895 41.4375 190.895 40.7614C190.895 40.0795 191.018 39.4844 191.266 38.9759C191.516 38.4673 191.862 38.0724 192.305 37.7912C192.751 37.5099 193.27 37.3693 193.861 37.3693C194.452 37.3693 194.969 37.5099 195.412 37.7912C195.858 38.0724 196.205 38.4673 196.452 38.9759C196.702 39.4844 196.827 40.0795 196.827 40.7614C196.827 41.4375 196.702 42.0284 196.452 42.5341C196.205 43.0398 195.858 43.4332 195.412 43.7145C194.969 43.9957 194.452 44.1364 193.861 44.1364ZM193.861 43.233C194.31 43.233 194.679 43.1179 194.969 42.8878C195.259 42.6577 195.473 42.3551 195.612 41.9801C195.751 41.6051 195.821 41.1989 195.821 40.7614C195.821 40.3239 195.751 39.9162 195.612 39.5384C195.473 39.1605 195.259 38.8551 194.969 38.6222C194.679 38.3892 194.31 38.2727 193.861 38.2727C193.412 38.2727 193.043 38.3892 192.753 38.6222C192.463 38.8551 192.249 39.1605 192.109 39.5384C191.97 39.9162 191.901 40.3239 191.901 40.7614C191.901 41.1989 191.97 41.6051 192.109 41.9801C192.249 42.3551 192.463 42.6577 192.753 42.8878C193.043 43.1179 193.412 43.233 193.861 43.233ZM200.833 44.1364C200.288 44.1364 199.806 43.9986 199.389 43.723C198.971 43.4446 198.645 43.0526 198.409 42.5469C198.173 42.0384 198.055 41.4375 198.055 40.7443C198.055 40.0568 198.173 39.4602 198.409 38.9545C198.645 38.4489 198.973 38.0582 199.393 37.7827C199.814 37.5071 200.299 37.3693 200.85 37.3693C201.277 37.3693 201.613 37.4403 201.86 37.5824C202.11 37.7216 202.301 37.8807 202.431 38.0597C202.565 38.2358 202.669 38.3807 202.743 38.4943H202.828V35.2727H203.833V44H202.862V42.9943H202.743C202.669 43.1136 202.564 43.2642 202.427 43.446C202.291 43.625 202.096 43.7855 201.843 43.9276C201.591 44.0668 201.254 44.1364 200.833 44.1364ZM200.97 43.233C201.373 43.233 201.714 43.1278 201.993 42.9176C202.271 42.7045 202.483 42.4105 202.627 42.0355C202.772 41.6577 202.845 41.2216 202.845 40.7273C202.845 40.2386 202.774 39.8111 202.632 39.4446C202.49 39.0753 202.279 38.7884 202.001 38.5838C201.723 38.3764 201.379 38.2727 200.97 38.2727C200.544 38.2727 200.189 38.3821 199.904 38.6009C199.623 38.8168 199.412 39.1108 199.27 39.483C199.13 39.8523 199.061 40.267 199.061 40.7273C199.061 41.1932 199.132 41.6165 199.274 41.9972C199.419 42.375 199.632 42.6761 199.913 42.9006C200.197 43.1222 200.549 43.233 200.97 43.233ZM208.559 44.1364C207.929 44.1364 207.385 43.9972 206.927 43.7188C206.473 43.4375 206.122 43.0455 205.875 42.5426C205.63 42.0369 205.508 41.4489 205.508 40.7784C205.508 40.108 205.63 39.517 205.875 39.0057C206.122 38.4915 206.466 38.0909 206.906 37.804C207.349 37.5142 207.866 37.3693 208.457 37.3693C208.798 37.3693 209.135 37.4261 209.467 37.5398C209.799 37.6534 210.102 37.8381 210.375 38.0938C210.647 38.3466 210.865 38.6818 211.027 39.0994C211.189 39.517 211.27 40.0312 211.27 40.642V41.0682H206.224V40.1989H210.247C210.247 39.8295 210.173 39.5 210.025 39.2102C209.88 38.9205 209.673 38.6918 209.403 38.5241C209.136 38.3565 208.821 38.2727 208.457 38.2727C208.056 38.2727 207.71 38.3722 207.417 38.571C207.127 38.767 206.904 39.0227 206.748 39.3381C206.592 39.6534 206.514 39.9915 206.514 40.3523V40.9318C206.514 41.4261 206.599 41.8452 206.77 42.1889C206.943 42.5298 207.183 42.7898 207.49 42.9688C207.797 43.1449 208.153 43.233 208.559 43.233C208.824 43.233 209.062 43.196 209.275 43.1222C209.491 43.0455 209.677 42.9318 209.833 42.7812C209.99 42.6278 210.11 42.4375 210.196 42.2102L211.167 42.483C211.065 42.8125 210.893 43.1023 210.652 43.3523C210.41 43.5994 210.112 43.7926 209.757 43.9318C209.402 44.0682 209.002 44.1364 208.559 44.1364ZM213.805 40.0625V44H212.799V37.4545H213.771V38.4773H213.856C214.01 38.1449 214.243 37.8778 214.555 37.6761C214.868 37.4716 215.271 37.3693 215.765 37.3693C216.208 37.3693 216.596 37.4602 216.929 37.642C217.261 37.821 217.52 38.0938 217.704 38.4602C217.889 38.8239 217.981 39.2841 217.981 39.8409V44H216.975V39.9091C216.975 39.3949 216.842 38.9943 216.575 38.7074C216.308 38.4176 215.941 38.2727 215.475 38.2727C215.154 38.2727 214.868 38.3423 214.615 38.4815C214.365 38.6207 214.167 38.8239 214.022 39.0909C213.877 39.358 213.805 39.6818 213.805 40.0625ZM224.455 38.9205L223.552 39.1761C223.495 39.0256 223.411 38.8793 223.3 38.7372C223.192 38.5923 223.045 38.473 222.857 38.3793C222.67 38.2855 222.43 38.2386 222.137 38.2386C221.737 38.2386 221.403 38.331 221.136 38.5156C220.871 38.6974 220.739 38.929 220.739 39.2102C220.739 39.4602 220.83 39.6577 221.012 39.8026C221.194 39.9474 221.478 40.0682 221.864 40.1648L222.836 40.4034C223.421 40.5455 223.857 40.7628 224.144 41.0554C224.431 41.3452 224.575 41.7187 224.575 42.1761C224.575 42.5511 224.467 42.8864 224.251 43.1818C224.038 43.4773 223.739 43.7102 223.356 43.8807C222.972 44.0511 222.526 44.1364 222.018 44.1364C221.35 44.1364 220.798 43.9915 220.36 43.7017C219.923 43.4119 219.646 42.9886 219.529 42.4318L220.484 42.1932C220.575 42.5455 220.746 42.8097 220.999 42.9858C221.255 43.1619 221.589 43.25 222.001 43.25C222.469 43.25 222.842 43.1506 223.117 42.9517C223.396 42.75 223.535 42.5085 223.535 42.2273C223.535 42 223.455 41.8097 223.296 41.6562C223.137 41.5 222.893 41.3835 222.563 41.3068L221.472 41.0511C220.873 40.9091 220.433 40.6889 220.151 40.3906C219.873 40.0895 219.734 39.7131 219.734 39.2614C219.734 38.892 219.837 38.5653 220.045 38.2812C220.255 37.9972 220.54 37.7741 220.901 37.6122C221.265 37.4503 221.677 37.3693 222.137 37.3693C222.785 37.3693 223.293 37.5114 223.663 37.7955C224.035 38.0795 224.299 38.4545 224.455 38.9205ZM235.566 38C235.472 37.7131 235.348 37.456 235.195 37.2287C235.044 36.9986 234.864 36.8026 234.654 36.6406C234.446 36.4787 234.211 36.3551 233.946 36.2699C233.682 36.1847 233.392 36.142 233.077 36.142C232.56 36.142 232.09 36.2756 231.667 36.5426C231.243 36.8097 230.907 37.2031 230.657 37.723C230.407 38.2429 230.282 38.8807 230.282 39.6364C230.282 40.392 230.408 41.0298 230.661 41.5497C230.914 42.0696 231.256 42.4631 231.688 42.7301C232.12 42.9972 232.605 43.1307 233.145 43.1307C233.645 43.1307 234.086 43.0241 234.466 42.8111C234.85 42.5952 235.148 42.2912 235.361 41.8991C235.577 41.5043 235.685 41.0398 235.685 40.5057L236.009 40.5739H233.384V39.6364H236.708V40.5739C236.708 41.2926 236.554 41.9176 236.248 42.4489C235.944 42.9801 235.523 43.392 234.986 43.6847C234.452 43.9744 233.838 44.1193 233.145 44.1193C232.373 44.1193 231.694 43.9375 231.108 43.5739C230.526 43.2102 230.071 42.6932 229.745 42.0227C229.421 41.3523 229.259 40.5568 229.259 39.6364C229.259 38.946 229.351 38.3253 229.536 37.7741C229.723 37.2202 229.988 36.7486 230.328 36.3594C230.669 35.9702 231.073 35.6719 231.539 35.4645C232.005 35.2571 232.517 35.1534 233.077 35.1534C233.537 35.1534 233.966 35.223 234.364 35.3622C234.765 35.4986 235.121 35.6932 235.434 35.946C235.749 36.196 236.012 36.4957 236.222 36.8452C236.432 37.1918 236.577 37.5767 236.657 38H235.566ZM238.381 44V37.4545H239.353V38.4773H239.438C239.575 38.1278 239.795 37.8565 240.099 37.6634C240.403 37.4673 240.768 37.3693 241.194 37.3693C241.626 37.3693 241.985 37.4673 242.272 37.6634C242.562 37.8565 242.788 38.1278 242.95 38.4773H243.018C243.185 38.1392 243.437 37.8707 243.772 37.6719C244.107 37.4702 244.509 37.3693 244.978 37.3693C245.563 37.3693 246.042 37.5526 246.414 37.919C246.786 38.2827 246.972 38.8494 246.972 39.6193V44H245.967V39.6193C245.967 39.1364 245.835 38.7912 245.57 38.5838C245.306 38.3764 244.995 38.2727 244.637 38.2727C244.177 38.2727 243.82 38.4119 243.567 38.6903C243.315 38.9659 243.188 39.3153 243.188 39.7386V44H242.165V39.517C242.165 39.1449 242.045 38.8452 241.803 38.6179C241.562 38.3878 241.251 38.2727 240.87 38.2727C240.609 38.2727 240.364 38.3423 240.137 38.4815C239.913 38.6207 239.731 38.8139 239.592 39.0611C239.455 39.3054 239.387 39.5881 239.387 39.9091V44H238.381ZM248.947 44V35.2727H249.953V38.4943H250.038C250.112 38.3807 250.214 38.2358 250.345 38.0597C250.479 37.8807 250.669 37.7216 250.916 37.5824C251.166 37.4403 251.504 37.3693 251.93 37.3693C252.482 37.3693 252.967 37.5071 253.388 37.7827C253.808 38.0582 254.136 38.4489 254.372 38.9545C254.608 39.4602 254.726 40.0568 254.726 40.7443C254.726 41.4375 254.608 42.0384 254.372 42.5469C254.136 43.0526 253.81 43.4446 253.392 43.723C252.974 43.9986 252.493 44.1364 251.947 44.1364C251.527 44.1364 251.19 44.0668 250.938 43.9276C250.685 43.7855 250.49 43.625 250.354 43.446C250.217 43.2642 250.112 43.1136 250.038 42.9943H249.919V44H248.947ZM249.936 40.7273C249.936 41.2216 250.009 41.6577 250.153 42.0355C250.298 42.4105 250.51 42.7045 250.788 42.9176C251.067 43.1278 251.408 43.233 251.811 43.233C252.232 43.233 252.582 43.1222 252.864 42.9006C253.148 42.6761 253.361 42.375 253.503 41.9972C253.648 41.6165 253.72 41.1932 253.72 40.7273C253.72 40.267 253.649 39.8523 253.507 39.483C253.368 39.1108 253.156 38.8168 252.872 38.6009C252.591 38.3821 252.237 38.2727 251.811 38.2727C251.402 38.2727 251.058 38.3764 250.78 38.5838C250.501 38.7884 250.291 39.0753 250.149 39.4446C250.007 39.8111 249.936 40.2386 249.936 40.7273ZM256.401 44V35.2727H257.457V39.1591H262.111V35.2727H263.168V44H262.111V40.0966H257.457V44H256.401Z" fill="#5F5E66"/>
</g>
<defs>
<filter id="filter0_d_4539_12693" x="0" y="0" width="289" height="80" filterUnits="userSpaceOnUse" color-interpolation-filters="sRGB">
<feFlood flood-opacity="0" result="BackgroundImageFix"/>
<feColorMatrix in="SourceAlpha" type="matrix" values="0 0 0 0 0 0 0 0 0 0 0 0 0 0 0 0 0 0 127 0" result="hardAlpha"/>
<feOffset dy="8"/>
<feGaussianBlur stdDeviation="8"/>
<feComposite in2="hardAlpha" operator="out"/>
<feColorMatrix type="matrix" values="0 0 0 0 0 0 0 0 0 0 0 0 0 0 0 0 0 0 0.08 0"/>
<feBlend mode="normal" in2="BackgroundImageFix" result="effect1_dropShadow_4539_12693"/>
<feBlend mode="normal" in="SourceGraphic" in2="effect1_dropShadow_4539_12693" result="shape"/>
</filter>
</defs>
</svg>
