<svg width="117" height="48" viewBox="0 0 117 48" fill="none" xmlns="http://www.w3.org/2000/svg">
<path d="M106.91 26.383C105.117 26.5324 103.58 26.7245 102.256 26.9594C100.954 27.1942 99.8652 27.4717 99.0326 27.8133C98.1787 28.1549 97.5596 28.5818 97.1539 29.0729C96.7483 29.5639 96.5562 30.183 96.5562 30.9088C96.5562 31.2077 96.6202 31.5279 96.7483 31.8695C96.8764 32.2324 97.1326 32.5526 97.4742 32.8302C97.8371 33.129 98.3494 33.3639 98.9899 33.556C99.6517 33.7481 100.506 33.8549 101.573 33.8549C101.872 33.8549 102.235 33.8335 102.662 33.7695C103.11 33.7268 103.558 33.62 104.049 33.4493C104.54 33.2998 105.031 33.065 105.522 32.7875C106.013 32.4886 106.462 32.1043 106.889 31.592V26.383H106.91ZM107.892 34.8156C107.401 34.2391 107.124 33.7268 107.017 33.2358C106.59 33.62 106.12 33.9189 105.629 34.1751C105.138 34.4099 104.626 34.6021 104.135 34.7515C103.644 34.9009 103.174 34.9863 102.704 35.0504C102.256 35.0931 101.851 35.1358 101.53 35.1358C100.335 35.1358 99.3528 35.0077 98.5416 34.7729C97.7303 34.538 97.0899 34.2178 96.5989 33.8122C96.1079 33.4066 95.7449 32.9583 95.5315 32.4459C95.318 31.9335 95.2112 31.4212 95.2112 30.9088C95.2112 29.8841 95.4674 29.0515 96.0011 28.3684C96.5348 27.7066 97.282 27.1515 98.2854 26.7245C99.2888 26.2976 100.506 25.956 101.957 25.6998C103.409 25.4436 105.053 25.2515 106.91 25.1021V24.8245C106.91 24.2268 106.846 23.6931 106.697 23.2448C106.547 22.7965 106.291 22.4122 105.928 22.1133C105.565 21.8144 105.074 21.5796 104.476 21.4515C103.879 21.3021 103.11 21.238 102.171 21.238C101.018 21.238 99.9079 21.3875 98.8618 21.6863L98.7337 20.3627C99.0966 20.2774 99.4382 20.2133 99.7371 20.1706C100.057 20.1279 100.42 20.0852 100.826 20.0425C101.253 19.9998 101.701 19.9785 102.192 19.9785C104.327 19.9785 105.864 20.3841 106.825 21.174C107.764 21.9852 108.255 23.1594 108.255 24.7178V31.9549C108.255 32.2751 108.255 32.5099 108.276 32.7021C108.276 32.8942 108.298 33.065 108.34 33.1931C108.383 33.3212 108.426 33.4493 108.511 33.5773C108.597 33.6841 108.703 33.8335 108.831 33.983L109.6 34.8582H107.892V34.8156ZM88.2337 34.8156V24.7392C88.2337 24.2481 88.191 23.7785 88.0843 23.3515C87.9775 22.9246 87.764 22.5403 87.4438 22.1987C87.1449 21.9212 86.7607 21.6864 86.291 21.4942C85.8214 21.3021 85.1596 21.1953 84.3483 21.1953C83.3449 21.1953 82.2562 21.4088 81.1034 21.8358C80.8472 21.9425 80.5483 22.0706 80.2281 22.2201C79.9079 22.3695 79.5876 22.5616 79.2674 22.7538C78.9472 22.9459 78.627 23.1594 78.3281 23.3515C78.0292 23.565 77.773 23.7571 77.5595 23.9279V34.7942H76.2146V20.2347H77.5595C77.5595 20.2774 77.5595 20.4055 77.5382 20.6403C77.5382 20.8751 77.5169 21.174 77.5169 21.5369C77.5169 21.8998 77.4955 22.1987 77.4742 22.4335C78.5843 21.6864 79.6517 21.0886 80.6977 20.6616C81.3596 20.4055 81.9786 20.2133 82.5764 20.1066C83.1741 19.9998 83.7719 19.9358 84.391 19.9358C86.1629 19.9358 87.5079 20.4055 88.4045 21.3234C88.8101 21.729 89.0876 22.2201 89.3011 22.7538C89.4933 23.2875 89.6 23.9493 89.6 24.7178V34.8156H88.2337ZM68.8854 24.8886C68.5438 24.0987 68.0528 23.4369 67.4551 22.9032C66.836 22.3695 66.1315 21.9425 65.2989 21.665C64.4663 21.3875 63.5697 21.238 62.609 21.238C61.627 21.238 60.7303 21.3875 59.8978 21.6863C59.0652 21.9852 58.3607 22.3908 57.7416 22.9459C57.1225 23.4796 56.6528 24.1414 56.3112 24.9313C55.9697 25.7212 55.7989 26.5965 55.7989 27.5785C55.7989 28.4111 55.927 29.2009 56.2045 29.9695C56.482 30.738 56.8876 31.3998 57.4641 31.9762C58.0191 32.5526 58.7236 33.0223 59.5775 33.3639C60.4315 33.7268 61.4348 33.8976 62.609 33.8976H62.6303C63.7618 33.8976 64.7652 33.7268 65.6191 33.3639C66.473 33.0009 67.1775 32.5526 67.7326 31.9762C68.2876 31.3998 68.7146 30.738 68.9921 29.9695C69.2697 29.2009 69.3978 28.4111 69.3978 27.5785C69.3978 26.5751 69.227 25.6785 68.8854 24.8886ZM70.273 30.3751C69.9528 31.2717 69.4618 32.083 68.8 32.7875C68.1382 33.492 67.2843 34.0684 66.2596 34.4953C65.2348 34.9223 64.018 35.1358 62.609 35.1358C61.2214 35.1358 60.0258 34.9223 59.0225 34.5167C57.9978 34.1111 57.1652 33.556 56.482 32.8515C55.7989 32.147 55.2865 31.3571 54.9663 30.4392C54.6247 29.5212 54.4539 28.5605 54.4539 27.5571C54.4539 26.3616 54.6674 25.2729 55.0944 24.3335C55.5214 23.3942 56.0978 22.583 56.8449 21.9425C57.5708 21.3021 58.4461 20.8111 59.4281 20.4695C60.4101 20.1279 61.4775 19.9571 62.609 19.9571C63.7191 19.9571 64.7865 20.1279 65.7685 20.4695C66.7506 20.8111 67.6258 21.3021 68.3517 21.9425C69.0775 22.583 69.6539 23.3942 70.1022 24.3335C70.5292 25.2729 70.7427 26.3616 70.7427 27.5571V27.5785C70.7427 28.5392 70.5719 29.4571 70.273 30.3751ZM48.4258 32.8942C48.0202 33.3425 47.5292 33.7268 46.9742 34.0684C46.4191 34.4099 45.7787 34.6661 45.0528 34.8582C44.327 35.0504 43.4944 35.1358 42.5764 35.1358C41.5517 35.1358 40.5483 34.9863 39.5663 34.6875C38.5843 34.3886 37.7303 33.9403 36.9832 33.3212C36.236 32.7021 35.6382 31.9122 35.1685 30.9515C34.7202 29.9908 34.4854 28.8594 34.4854 27.5358C34.4854 26.2549 34.7202 25.1234 35.1899 24.1627C35.6596 23.2021 36.2787 22.4122 37.0258 21.7931C37.7944 21.174 38.6483 20.7043 39.6303 20.4054C40.591 20.1066 41.573 19.9571 42.5764 19.9571C43.3663 19.9571 44.0708 20.0212 44.7112 20.1706C45.3303 20.2987 45.9067 20.5122 46.4405 20.7684C46.9742 21.0459 47.4438 21.3661 47.8921 21.7717C48.3404 22.1774 48.7461 22.6257 49.1517 23.138L47.9989 23.7998C47.6786 23.3942 47.3584 23.0099 47.0169 22.6897C46.6753 22.3695 46.291 22.092 45.864 21.8785C45.4371 21.665 44.9461 21.4942 44.4337 21.3875C43.9 21.2807 43.3022 21.2167 42.6191 21.2167C41.7652 21.2167 40.9539 21.3448 40.1427 21.6009C39.3315 21.8571 38.6056 22.2414 37.9865 22.7751C37.3674 23.3088 36.8551 23.9493 36.4708 24.7605C36.0865 25.5504 35.8944 26.4897 35.8944 27.5571C35.8944 28.6672 36.0865 29.6279 36.4708 30.4178C36.8551 31.2077 37.3674 31.8695 37.9865 32.3818C38.627 32.8942 39.3528 33.2785 40.1427 33.5133C40.9539 33.7481 41.7652 33.8762 42.6405 33.8762C43.409 33.8762 44.0921 33.7908 44.6899 33.6414C45.2876 33.492 45.8 33.2785 46.2483 33.0009C46.6966 32.7448 47.1022 32.4245 47.4438 32.0403C47.7854 31.6774 48.1056 31.2717 48.3831 30.8234L49.6 31.4425C49.2157 31.9549 48.8528 32.4459 48.4258 32.8942ZM30.5449 22.6897C30.2247 22.3481 29.9472 22.092 29.7551 21.9425C29.5629 21.7931 29.3708 21.665 29.1786 21.5583C28.9438 21.4515 28.6663 21.3661 28.3674 21.3021C28.0685 21.238 27.727 21.2167 27.3427 21.2167C26.9371 21.2167 26.4888 21.2594 25.9978 21.3661C25.5067 21.4515 24.9944 21.6436 24.4393 21.8998C23.9483 22.1133 23.4573 22.3908 22.9876 22.7111C22.518 23.0099 22.0483 23.3515 21.6 23.7144V34.8369H20.2551V20.2774H21.6L21.5786 22.156C21.9629 21.8785 22.3258 21.6223 22.7101 21.3875C23.073 21.1526 23.4787 20.9391 23.8843 20.747C24.418 20.5122 24.973 20.32 25.5281 20.1706C26.0831 20.0212 26.7022 19.9571 27.3427 19.9571C27.7483 19.9571 28.1326 19.9785 28.5382 20.0425C28.9438 20.1066 29.3494 20.2133 29.7337 20.3841C30.0326 20.5122 30.2888 20.683 30.5236 20.8538C30.7584 21.0245 31.0573 21.2807 31.4416 21.6223L30.5449 22.6897ZM11.6989 26.383C9.90562 26.5324 8.36854 26.7245 7.04494 26.9594C5.7427 27.1942 4.65393 27.4717 3.82135 27.8133C2.96742 28.1549 2.34831 28.5818 1.9427 29.0729C1.53708 29.5639 1.34494 30.183 1.34494 30.9088C1.34494 31.2077 1.40899 31.5279 1.53708 31.8695C1.66517 32.2324 1.92135 32.5526 2.26292 32.8302C2.62584 33.129 3.1382 33.3639 3.77865 33.556C4.44045 33.7481 5.29438 33.8549 6.3618 33.8549C6.66067 33.8549 7.02359 33.8335 7.45056 33.7695C7.89887 33.7268 8.34719 33.62 8.8382 33.4493C9.32921 33.2998 9.82022 33.065 10.3112 32.7875C10.8022 32.4886 11.2506 32.1043 11.6775 31.592V26.383H11.6989ZM12.6809 34.8156C12.1899 34.2391 11.9124 33.7268 11.8056 33.2358C11.3786 33.62 10.909 33.9189 10.418 34.1751C9.92697 34.4099 9.41461 34.6021 8.92359 34.7515C8.43258 34.9009 7.96292 34.9863 7.49326 35.0504C7.04494 35.0931 6.63932 35.1358 6.3191 35.1358C5.12359 35.1358 4.14157 35.0077 3.33034 34.7729C2.5191 34.538 1.87865 34.2178 1.38764 33.8122C0.896629 33.4066 0.533708 32.9583 0.320225 32.4459C0.106742 31.9335 0 31.4212 0 30.9088C0 29.8841 0.256179 29.0515 0.789887 28.3684C1.32359 27.7066 2.07079 27.1515 3.07416 26.7245C4.07753 26.2976 5.29438 25.956 6.74607 25.6998C8.19775 25.4436 9.84157 25.2515 11.6989 25.1021V24.8245C11.6989 24.2268 11.6348 23.6931 11.4854 23.2448C11.336 22.7965 11.0798 22.4122 10.7169 22.1133C10.3539 21.8144 9.86292 21.5796 9.26517 21.4515C8.66741 21.3021 7.89888 21.238 6.95955 21.238C5.80674 21.238 4.69663 21.3875 3.65056 21.6863L3.52247 20.3627C3.88539 20.2774 4.22697 20.2133 4.52584 20.1706C4.84607 20.1279 5.20899 20.0852 5.6146 20.0425C6.04157 19.9998 6.48989 19.9785 6.9809 19.9785C9.11573 19.9785 10.6528 20.3841 11.6135 21.174C12.5528 21.9852 13.0438 23.1594 13.0438 24.7178V31.9549C13.0438 32.2751 13.0438 32.5099 13.0652 32.7021C13.0652 32.8942 13.0865 33.065 13.1292 33.1931C13.1719 33.3212 13.2146 33.4493 13.3 33.5773C13.3854 33.6841 13.4921 33.8335 13.6202 33.983L14.3888 34.8582H12.6809V34.8156Z" fill="#A19685"/>
<path d="M109.692 2.65537C109.875 1.51206 108.658 0 108.658 0C108.509 0.361737 108.324 0.707523 108.106 1.0321C107.737 1.5862 106.479 2.65732 105.482 3.87282C104.611 4.93808 104.701 5.57607 104.869 6.04823C105.017 6.48136 105.649 6.94961 106.215 7.13886C106.828 7.32024 107.467 7.39547 108.106 7.36128C108.106 7.36128 107.84 7.08033 107.989 6.23357C108.137 5.38682 109.501 3.79868 109.686 2.65537M115.998 6.934H114.597C114.597 6.934 114.482 6.34869 113.695 6.4716C111.899 6.74084 113.471 7.01009 111.27 7.81782C110.029 8.27436 107.954 8.45776 106.482 8.1495C104.531 7.74368 103.864 6.26869 102.832 5.16245C101.8 4.05621 100.508 1.91787 97.9642 1.76959C95.4201 1.62131 92.7998 0.517026 92.7998 0.517026C92.7998 0.517026 92.7998 0.737493 93.1315 1.62131C93.4632 2.50514 93.9451 3.14313 95.2347 4.57324C96.9302 6.30576 102.02 9.21867 102.241 9.66155C102.461 10.1044 100.604 10.5746 99.6402 11.2751C98.9534 11.7784 96.2122 14.0865 94.7391 14.9333C94.0836 15.2357 92.9832 15.7527 92.8954 15.8776C92.7608 16.0571 93.9958 16.0102 94.3119 15.9205C94.507 15.8639 94.8601 15.5595 95.2113 15.304C95.5625 15.0484 98.5846 12.9627 99.9855 12.7052C102.217 12.2798 103.852 12.0418 105.253 11.6302C106.541 11.2581 107.77 10.7028 108.9 9.98152C110.068 9.29913 111.291 8.71506 112.556 8.23534C113.773 7.75539 113.945 7.60711 114.831 7.42371C115.717 7.24031 116.251 6.934 116.002 6.934" fill="#EF404A"/>
<path d="M12.7998 47.9268V43.2457H13.4523V45.3302H16.3255V43.2457H16.978V47.9268H16.3255V45.8331H13.4523V47.9268H12.7998Z" fill="#EF404A"/>
<path d="M21.6831 48C21.3182 48 20.9981 47.9245 20.7227 47.7737C20.4491 47.6228 20.2351 47.4118 20.0807 47.1405C19.9281 46.8693 19.8518 46.5523 19.8518 46.1897C19.8518 45.824 19.9281 45.5047 20.0807 45.232C20.2351 44.9592 20.4491 44.7474 20.7227 44.5965C20.9981 44.4457 21.3182 44.3702 21.6831 44.3702C22.0479 44.3702 22.3671 44.4457 22.6408 44.5965C22.9162 44.7474 23.1302 44.9592 23.2828 45.232C23.4371 45.5047 23.5143 45.824 23.5143 46.1897C23.5143 46.5523 23.4371 46.8693 23.2828 47.1405C23.1302 47.4118 22.9162 47.6228 22.6408 47.7737C22.3671 47.9245 22.0479 48 21.6831 48ZM21.6831 47.5154C21.9602 47.5154 22.1882 47.4537 22.3671 47.3302C22.5461 47.2068 22.6785 47.0445 22.7644 46.8434C22.8504 46.6422 22.8934 46.4243 22.8934 46.1897C22.8934 45.955 22.8504 45.7363 22.7644 45.5337C22.6785 45.331 22.5461 45.1672 22.3671 45.0422C22.1882 44.9173 21.9602 44.8548 21.6831 44.8548C21.4059 44.8548 21.1779 44.9173 20.999 45.0422C20.82 45.1672 20.6876 45.331 20.6017 45.5337C20.5157 45.7363 20.4727 45.955 20.4727 46.1897C20.4727 46.4243 20.5157 46.6422 20.6017 46.8434C20.6876 47.0445 20.82 47.2068 20.999 47.3302C21.1779 47.4537 21.4059 47.5154 21.6831 47.5154Z" fill="#EF404A"/>
<path d="M28.0608 44.416V44.8731H25.9665V44.416H28.0608ZM26.5769 43.5748H27.1978V46.9211C27.1978 47.0735 27.2233 47.1878 27.2741 47.264C27.3267 47.3386 27.3934 47.3889 27.4741 47.4148C27.5565 47.4392 27.6434 47.4514 27.7346 47.4514C27.803 47.4514 27.8591 47.4483 27.903 47.4422C27.9468 47.4346 27.9819 47.4285 28.0082 47.424L28.1345 47.9085C28.0924 47.9222 28.0336 47.936 27.9582 47.9497C27.8828 47.9649 27.7872 47.9725 27.6714 47.9725C27.496 47.9725 27.3241 47.9398 27.1557 47.8742C26.9891 47.8087 26.8505 47.7089 26.74 47.5748C26.6313 47.4407 26.5769 47.2716 26.5769 47.0674V43.5748Z" fill="#EF404A"/>
<path d="M32.487 48C32.0976 48 31.7616 47.9253 31.4792 47.776C31.1986 47.6251 30.982 47.4148 30.8294 47.1451C30.6785 46.8739 30.6031 46.5584 30.6031 46.1988C30.6031 45.8392 30.6785 45.5222 30.8294 45.248C30.982 44.9721 31.1942 44.7573 31.4661 44.6034C31.7397 44.448 32.059 44.3702 32.4238 44.3702C32.6343 44.3702 32.8422 44.4007 33.0474 44.4617C33.2526 44.5226 33.4394 44.6217 33.6078 44.7588C33.7762 44.8944 33.9104 45.0742 34.0104 45.2982C34.1104 45.5222 34.1604 45.798 34.1604 46.1257V46.3542H31.0451V45.888H33.5289C33.5289 45.6899 33.4833 45.5131 33.3921 45.3577C33.3026 45.2022 33.1746 45.0796 33.0079 44.9897C32.843 44.8998 32.6483 44.8548 32.4238 44.8548C32.1765 44.8548 31.9625 44.9081 31.7818 45.0148C31.6029 45.12 31.4652 45.2571 31.3687 45.4262C31.2723 45.5954 31.224 45.7767 31.224 45.9702V46.2811C31.224 46.5462 31.2766 46.771 31.3819 46.9554C31.4889 47.1382 31.6371 47.2777 31.8266 47.3737C32.016 47.4681 32.2361 47.5154 32.487 47.5154C32.6501 47.5154 32.7974 47.4956 32.929 47.456C33.0623 47.4148 33.1772 47.3539 33.2737 47.2731C33.3701 47.1908 33.4447 47.0887 33.4973 46.9668L34.0972 47.1131C34.0341 47.2899 33.9279 47.4453 33.7788 47.5794C33.6297 47.712 33.4456 47.8156 33.2263 47.8902C33.007 47.9634 32.7606 48 32.487 48Z" fill="#EF404A"/>
<path d="M37.5669 43.2457V47.9268H36.946V43.2457H37.5669Z" fill="#EF404A"/>
<path d="M43.4079 45.2022L42.8502 45.3394C42.8151 45.2586 42.7633 45.1801 42.6949 45.104C42.6283 45.0262 42.5371 44.9622 42.4213 44.912C42.3055 44.8617 42.1573 44.8365 41.9766 44.8365C41.7293 44.8365 41.5232 44.886 41.3583 44.9851C41.1952 45.0826 41.1136 45.2068 41.1136 45.3577C41.1136 45.4918 41.1697 45.5977 41.282 45.6754C41.3943 45.7531 41.5697 45.8179 41.8082 45.8697L42.4081 45.9977C42.7695 46.0739 43.0387 46.1904 43.2159 46.3474C43.393 46.5028 43.4816 46.7032 43.4816 46.9485C43.4816 47.1497 43.415 47.3295 43.2817 47.488C43.1501 47.6464 42.9659 47.7714 42.7291 47.8628C42.4923 47.9542 42.2169 48 41.9029 48C41.4907 48 41.1496 47.9222 40.8794 47.7668C40.6093 47.6114 40.4383 47.3843 40.3664 47.0857L40.9557 46.9577C41.0119 47.1466 41.118 47.2883 41.2741 47.3828C41.432 47.4773 41.6381 47.5245 41.8924 47.5245C42.1818 47.5245 42.4116 47.4712 42.5818 47.3645C42.7537 47.2563 42.8396 47.1268 42.8396 46.976C42.8396 46.854 42.7905 46.752 42.6923 46.6697C42.5941 46.5859 42.4432 46.5234 42.2397 46.4822L41.5662 46.3451C41.1961 46.2689 40.9242 46.1508 40.7505 45.9908C40.5786 45.8293 40.4927 45.6274 40.4927 45.3851C40.4927 45.187 40.5567 45.0118 40.6847 44.8594C40.8145 44.707 40.9908 44.5874 41.2136 44.5005C41.4381 44.4137 41.6925 44.3702 41.9766 44.3702C42.3766 44.3702 42.6905 44.4464 42.9186 44.5988C43.1483 44.7512 43.3115 44.9523 43.4079 45.2022Z" fill="#EF404A"/>
<path d="M51.7083 47.9908C51.354 47.9908 51.0488 47.9344 50.7927 47.8217C50.5366 47.7089 50.3393 47.5542 50.2007 47.3577C50.0621 47.1611 49.9929 46.9363 49.9929 46.6834C49.9929 46.4883 50.0402 46.3154 50.1349 46.1645C50.2314 46.0121 50.3638 45.8712 50.5322 45.7417C50.7024 45.6106 50.898 45.4796 51.119 45.3485L51.8978 44.8457C52.0504 44.7588 52.1723 44.6659 52.2635 44.5668C52.3565 44.4678 52.403 44.3382 52.403 44.1782C52.403 44.0594 52.3424 43.9443 52.2214 43.8331C52.1021 43.7219 51.9451 43.6662 51.7504 43.6662C51.6136 43.6662 51.4926 43.6967 51.3873 43.7577C51.2839 43.8171 51.2023 43.8933 51.1427 43.9862C51.0848 44.0777 51.0558 44.1721 51.0558 44.2697C51.0558 44.3794 51.09 44.4906 51.1584 44.6034C51.2286 44.7146 51.3172 44.8289 51.4242 44.9462C51.5329 45.062 51.6452 45.1809 51.761 45.3028L54.2342 47.9268H53.487L51.4452 45.7874C51.2558 45.5893 51.0839 45.4095 50.9295 45.248C50.7752 45.0864 50.6524 44.9272 50.5612 44.7702C50.47 44.6133 50.4244 44.4434 50.4244 44.2605C50.4244 44.0502 50.4779 43.8659 50.5849 43.7074C50.6936 43.5474 50.8453 43.4232 51.04 43.3348C51.2365 43.2449 51.4663 43.2 51.7294 43.2C51.9995 43.2 52.2319 43.2457 52.4266 43.3371C52.6213 43.427 52.7713 43.5466 52.8766 43.696C52.9818 43.8438 53.0344 44.0045 53.0344 44.1782C53.0344 44.4022 52.9704 44.5965 52.8424 44.7611C52.7143 44.9257 52.5398 45.0788 52.3188 45.2205L51.2453 45.9154C51.0032 46.0708 50.8392 46.2217 50.7532 46.368C50.6673 46.5142 50.6243 46.6194 50.6243 46.6834C50.6243 46.8297 50.6682 46.966 50.7559 47.0925C50.8436 47.219 50.9672 47.3211 51.1269 47.3988C51.2865 47.4765 51.4733 47.5154 51.6873 47.5154C51.8908 47.5154 52.089 47.478 52.2819 47.4034C52.4749 47.3272 52.6494 47.2175 52.8055 47.0742C52.9634 46.931 53.0879 46.7588 53.1791 46.5577C53.2721 46.3565 53.3186 46.1302 53.3186 45.8788H53.9185C53.9185 46.1897 53.8773 46.4434 53.7948 46.64C53.7124 46.8365 53.6194 46.9904 53.5159 47.1017C53.4124 47.2129 53.3291 47.296 53.266 47.3508C53.2449 47.3737 53.2256 47.3965 53.2081 47.4194C53.1905 47.4422 53.1712 47.4651 53.1502 47.488C52.9765 47.6571 52.7573 47.7836 52.4924 47.8674C52.2276 47.9497 51.9662 47.9908 51.7083 47.9908Z" fill="#EF404A"/>
<path d="M60.7718 47.9268V43.2457H62.5925C63.0135 43.2457 63.359 43.3081 63.6292 43.4331C63.8993 43.5565 64.0993 43.7264 64.2291 43.9428C64.3589 44.1592 64.4238 44.4053 64.4238 44.6811C64.4238 44.9569 64.3589 45.2015 64.2291 45.4148C64.0993 45.6281 63.9002 45.7958 63.6318 45.9177C63.3634 46.038 63.0205 46.0982 62.603 46.0982H61.1296V45.5862H62.582C62.8696 45.5862 63.1012 45.5497 63.2766 45.4765C63.4538 45.4034 63.5818 45.2998 63.6607 45.1657C63.7414 45.03 63.7818 44.8685 63.7818 44.6811C63.7818 44.4937 63.7414 44.3299 63.6607 44.1897C63.58 44.0495 63.4511 43.9413 63.274 43.8651C63.0968 43.7874 62.8626 43.7485 62.5714 43.7485H61.4243V47.9268H60.7718ZM63.3082 45.824L64.6342 47.9268H63.8765L62.5714 45.824H63.3082Z" fill="#EF404A"/>
<path d="M68.919 48C68.5296 48 68.1936 47.9253 67.9112 47.776C67.6306 47.6251 67.414 47.4148 67.2614 47.1451C67.1105 46.8739 67.0351 46.5584 67.0351 46.1988C67.0351 45.8392 67.1105 45.5222 67.2614 45.248C67.414 44.9721 67.6262 44.7573 67.8981 44.6034C68.1717 44.448 68.491 44.3702 68.8558 44.3702C69.0663 44.3702 69.2742 44.4007 69.4794 44.4617C69.6846 44.5226 69.8714 44.6217 70.0398 44.7588C70.2082 44.8944 70.3424 45.0742 70.4424 45.2982C70.5424 45.5222 70.5924 45.798 70.5924 46.1257V46.3542H67.4771V45.888H69.9609C69.9609 45.6899 69.9153 45.5131 69.8241 45.3577C69.7346 45.2022 69.6066 45.0796 69.4399 44.9897C69.275 44.8998 69.0803 44.8548 68.8558 44.8548C68.6085 44.8548 68.3945 44.9081 68.2138 45.0148C68.0349 45.12 67.8972 45.2571 67.8007 45.4262C67.7043 45.5954 67.656 45.7767 67.656 45.9702V46.2811C67.656 46.5462 67.7086 46.771 67.8139 46.9554C67.9209 47.1382 68.0691 47.2777 68.2585 47.3737C68.448 47.4681 68.6681 47.5154 68.919 47.5154C69.0821 47.5154 69.2294 47.4956 69.361 47.456C69.4943 47.4148 69.6092 47.3539 69.7057 47.2731C69.8021 47.1908 69.8767 47.0887 69.9293 46.9668L70.5292 47.1131C70.4661 47.2899 70.3599 47.4453 70.2108 47.5794C70.0617 47.712 69.8776 47.8156 69.6583 47.8902C69.439 47.9634 69.1926 48 68.919 48Z" fill="#EF404A"/>
<path d="M76.2406 45.2022L75.6828 45.3394C75.6478 45.2586 75.596 45.1801 75.5276 45.104C75.4609 45.0262 75.3697 44.9622 75.254 44.912C75.1382 44.8617 74.99 44.8365 74.8093 44.8365C74.562 44.8365 74.3559 44.886 74.191 44.9851C74.0279 45.0826 73.9463 45.2068 73.9463 45.3577C73.9463 45.4918 74.0024 45.5977 74.1147 45.6754C74.227 45.7531 74.4024 45.8179 74.6409 45.8697L75.2408 45.9977C75.6022 46.0739 75.8714 46.1904 76.0486 46.3474C76.2257 46.5028 76.3143 46.7032 76.3143 46.9485C76.3143 47.1497 76.2477 47.3295 76.1143 47.488C75.9828 47.6464 75.7986 47.7714 75.5618 47.8628C75.325 47.9542 75.0496 48 74.7356 48C74.3234 48 73.9823 47.9222 73.7121 47.7668C73.442 47.6114 73.271 47.3843 73.1991 47.0857L73.7884 46.9577C73.8446 47.1466 73.9507 47.2883 74.1068 47.3828C74.2647 47.4773 74.4708 47.5245 74.7251 47.5245C75.0145 47.5245 75.2443 47.4712 75.4145 47.3645C75.5864 47.2563 75.6723 47.1268 75.6723 46.976C75.6723 46.854 75.6232 46.752 75.525 46.6697C75.4268 46.5859 75.2759 46.5234 75.0724 46.4822L74.3989 46.3451C74.0287 46.2689 73.7569 46.1508 73.5832 45.9908C73.4113 45.8293 73.3254 45.6274 73.3254 45.3851C73.3254 45.187 73.3894 45.0118 73.5174 44.8594C73.6472 44.707 73.8235 44.5874 74.0463 44.5005C74.2708 44.4137 74.5252 44.3702 74.8093 44.3702C75.2092 44.3702 75.5232 44.4464 75.7512 44.5988C75.981 44.7512 76.1442 44.9523 76.2406 45.2022Z" fill="#EF404A"/>
<path d="M80.7319 48C80.3671 48 80.0469 47.9245 79.7715 47.7737C79.4979 47.6228 79.2839 47.4118 79.1295 47.1405C78.9769 46.8693 78.9006 46.5523 78.9006 46.1897C78.9006 45.824 78.9769 45.5047 79.1295 45.232C79.2839 44.9592 79.4979 44.7474 79.7715 44.5965C80.0469 44.4457 80.3671 44.3702 80.7319 44.3702C81.0967 44.3702 81.416 44.4457 81.6896 44.5965C81.965 44.7474 82.179 44.9592 82.3316 45.232C82.486 45.5047 82.5632 45.824 82.5632 46.1897C82.5632 46.5523 82.486 46.8693 82.3316 47.1405C82.179 47.4118 81.965 47.6228 81.6896 47.7737C81.416 47.9245 81.0967 48 80.7319 48ZM80.7319 47.5154C81.009 47.5154 81.2371 47.4537 81.416 47.3302C81.5949 47.2068 81.7273 47.0445 81.8133 46.8434C81.8992 46.6422 81.9422 46.4243 81.9422 46.1897C81.9422 45.955 81.8992 45.7363 81.8133 45.5337C81.7273 45.331 81.5949 45.1672 81.416 45.0422C81.2371 44.9173 81.009 44.8548 80.7319 44.8548C80.4548 44.8548 80.2267 44.9173 80.0478 45.0422C79.8689 45.1672 79.7365 45.331 79.6505 45.5337C79.5646 45.7363 79.5216 45.955 79.5216 46.1897C79.5216 46.4243 79.5646 46.6422 79.6505 46.8434C79.7365 47.0445 79.8689 47.2068 80.0478 47.3302C80.2267 47.4537 80.4548 47.5154 80.7319 47.5154Z" fill="#EF404A"/>
<path d="M85.3521 47.9268V44.416H85.952V44.9462H85.9941C86.0677 44.7725 86.201 44.6316 86.394 44.5234C86.587 44.4152 86.8045 44.3611 87.0465 44.3611C87.0921 44.3611 87.1491 44.3619 87.2175 44.3634C87.2859 44.3649 87.3377 44.3672 87.3728 44.3702V44.9188C87.3517 44.9142 87.3035 44.9074 87.2281 44.8982C87.1544 44.8876 87.0763 44.8822 86.9939 44.8822C86.7974 44.8822 86.622 44.918 86.4677 44.9897C86.3151 45.0598 86.194 45.1573 86.1046 45.2822C86.0169 45.4057 85.973 45.5466 85.973 45.7051V47.9268H85.3521Z" fill="#EF404A"/>
<path d="M91.9607 44.416V44.8731H89.8664V44.416H91.9607ZM90.4768 43.5748H91.0977V46.9211C91.0977 47.0735 91.1232 47.1878 91.174 47.264C91.2266 47.3386 91.2933 47.3889 91.374 47.4148C91.4564 47.4392 91.5433 47.4514 91.6345 47.4514C91.7029 47.4514 91.759 47.4483 91.8029 47.4422C91.8467 47.4346 91.8818 47.4285 91.9081 47.424L92.0344 47.9085C91.9923 47.9222 91.9335 47.936 91.8581 47.9497C91.7827 47.9649 91.6871 47.9725 91.5713 47.9725C91.3959 47.9725 91.224 47.9398 91.0556 47.8742C90.889 47.8087 90.7504 47.7089 90.6399 47.5748C90.5312 47.4407 90.4768 47.2716 90.4768 47.0674V43.5748Z" fill="#EF404A"/>
<path d="M97.5261 45.2022L96.9683 45.3394C96.9333 45.2586 96.8815 45.1801 96.8131 45.104C96.7464 45.0262 96.6552 44.9622 96.5395 44.912C96.4237 44.8617 96.2755 44.8365 96.0948 44.8365C95.8475 44.8365 95.6414 44.886 95.4765 44.9851C95.3134 45.0826 95.2318 45.2068 95.2318 45.3577C95.2318 45.4918 95.2879 45.5977 95.4002 45.6754C95.5125 45.7531 95.6879 45.8179 95.9264 45.8697L96.5263 45.9977C96.8877 46.0739 97.1569 46.1904 97.3341 46.3474C97.5112 46.5028 97.5998 46.7032 97.5998 46.9485C97.5998 47.1497 97.5331 47.3295 97.3998 47.488C97.2683 47.6464 97.0841 47.7714 96.8473 47.8628C96.6105 47.9542 96.3351 48 96.0211 48C95.6089 48 95.2678 47.9222 94.9976 47.7668C94.7275 47.6114 94.5565 47.3843 94.4846 47.0857L95.0739 46.9577C95.1301 47.1466 95.2362 47.2883 95.3923 47.3828C95.5502 47.4773 95.7563 47.5245 96.0106 47.5245C96.3 47.5245 96.5298 47.4712 96.7 47.3645C96.8719 47.2563 96.9578 47.1268 96.9578 46.976C96.9578 46.854 96.9087 46.752 96.8105 46.6697C96.7122 46.5859 96.5614 46.5234 96.3579 46.4822L95.6844 46.3451C95.3142 46.2689 95.0424 46.1508 94.8687 45.9908C94.6968 45.8293 94.6109 45.6274 94.6109 45.3851C94.6109 45.187 94.6749 45.0118 94.8029 44.8594C94.9327 44.707 95.109 44.5874 95.3318 44.5005C95.5563 44.4137 95.8106 44.3702 96.0948 44.3702C96.4947 44.3702 96.8087 44.4464 97.0368 44.5988C97.2665 44.7512 97.4297 44.9523 97.5261 45.2022Z" fill="#EF404A"/>
</svg>
