<svg width="110" height="20" viewBox="0 0 110 20" fill="none" xmlns="http://www.w3.org/2000/svg">
<path d="M30.7692 0H0.384615C0.172213 0 0 0.172213 0 0.384615V3.84615C0 4.05856 0.172213 4.23077 0.384615 4.23077H13.0769C13.2893 4.23077 13.4615 4.40298 13.4615 4.61538V19.6154C13.4615 19.8278 13.6338 20 13.8462 20H17.6923C17.9047 20 18.0769 19.8278 18.0769 19.6154V4.61538C18.0769 4.40298 18.2491 4.23077 18.4615 4.23077H30.7692C30.9816 4.23077 31.1538 4.05856 31.1538 3.84615V0.384615C31.1538 0.172213 30.9816 0 30.7692 0Z" fill="#121B4D"/>
<path d="M36.1538 19.6154V0.384615C36.1538 0.172213 36.3261 0 36.5385 0H40.7692C40.9816 0 41.1538 0.172213 41.1538 0.384615V19.6154C41.1538 19.8278 40.9816 20 40.7692 20H36.5385C36.3261 20 36.1538 19.8278 36.1538 19.6154Z" fill="#121B4D"/>
<path d="M46.1538 19.6154C46.1538 19.8278 46.3261 20 46.5385 20H73.4615C73.6739 20 73.8461 19.8278 73.8461 19.6154V16.1538C73.8461 15.9414 73.6739 15.7692 73.4615 15.7692H51.1538C50.9414 15.7692 50.7692 15.597 50.7692 15.3846V12.3077C50.7692 12.0953 50.9414 11.9231 51.1538 11.9231H70.7692C70.9816 11.9231 71.1538 11.7509 71.1538 11.5385V8.46154C71.1538 8.24914 70.9816 8.07692 70.7692 8.07692H51.1173C50.9198 8.07692 50.7541 7.92781 50.7364 7.73099C50.6145 6.38437 50.4872 4.23077 50.7692 4.23077H73.4615C73.6739 4.23077 73.8461 4.05856 73.8461 3.84615V0.384615C73.8461 0.172213 73.6739 0 73.4615 0H46.5385C46.3261 0 46.1538 0.172213 46.1538 0.384615V19.6154Z" fill="#121B4D"/>
<path fill-rule="evenodd" clip-rule="evenodd" d="M83.4615 20C83.6739 20 83.8461 19.8278 83.8461 19.6154V13.8462C83.8461 13.6338 84.0184 13.4615 84.2308 13.4615H94.1162C94.1909 13.4615 94.2641 13.4833 94.3266 13.5243L104.135 19.9373C104.197 19.9782 104.271 20 104.345 20H108.846C109.059 20 109.231 19.8278 109.231 19.6154V19.052C109.231 18.9234 109.167 18.8033 109.059 18.732L101.155 13.4621L101.154 13.4606L101.156 13.4587C104.783 13.3561 107.692 10.3832 107.692 6.73077C107.692 3.07824 104.783 0.105262 101.155 0.00272311L101.154 0.00244141L101.154 0.0014085L101.152 0H79.2308C79.0184 0 78.8461 0.172213 78.8461 0.384615V19.6154C78.8461 19.8278 79.0184 20 79.2308 20H83.4615ZM83.4615 3.84615H100.385C101.872 3.84615 103.077 5.05155 103.077 6.53846C103.077 8.02537 101.872 9.23077 100.385 9.23077H83.4615C83.2491 9.23077 83.0769 9.05856 83.0769 8.84615V4.23077C83.0769 4.01837 83.2491 3.84615 83.4615 3.84615Z" fill="#121B4D"/>
</svg>
