<svg xmlns="http://www.w3.org/2000/svg" width="110" height="20" fill="none" viewBox="0 0 110 20"><path fill="#121b4d" d="M30.77 0H.384A.385.385 0 0 0 0 .385v3.461c0 .213.172.385.385.385h12.692c.212 0 .384.172.384.384v15c0 .213.173.385.385.385h3.846a.385.385 0 0 0 .385-.385v-15c0-.212.172-.384.384-.384H30.77a.385.385 0 0 0 .385-.385V.385A.385.385 0 0 0 30.769 0M36.154 19.615V.385c0-.213.172-.385.384-.385h4.231c.213 0 .385.172.385.385v19.23a.385.385 0 0 1-.385.385h-4.23a.385.385 0 0 1-.385-.385M46.154 19.615c0 .213.172.385.384.385h26.924a.385.385 0 0 0 .384-.385v-3.461a.385.385 0 0 0-.385-.385H51.155a.385.385 0 0 1-.385-.384v-3.077c0-.213.172-.385.385-.385h19.615a.385.385 0 0 0 .385-.384V8.462a.385.385 0 0 0-.385-.385H51.117a.38.38 0 0 1-.38-.346c-.123-1.347-.25-3.5.032-3.5h22.693a.385.385 0 0 0 .384-.385V.385A.385.385 0 0 0 73.461 0H46.54a.385.385 0 0 0-.385.385z"/><path fill="#121b4d" fill-rule="evenodd" d="M83.462 20a.385.385 0 0 0 .384-.385v-5.769c0-.212.172-.385.385-.385h9.885c.075 0 .148.022.21.063l9.809 6.413c.062.041.136.063.21.063h4.501a.385.385 0 0 0 .385-.385v-.563a.38.38 0 0 0-.172-.32l-7.904-5.27-.001-.001.002-.002a6.73 6.73 0 0 0-.001-13.456h-.001V0L101.152 0H79.231a.385.385 0 0 0-.385.385v19.23c0 .213.172.385.385.385zm0-16.154h16.923a2.692 2.692 0 0 1 0 5.385H83.461a.385.385 0 0 1-.384-.385V4.231c0-.213.172-.385.385-.385" clip-rule="evenodd"/></svg>