<svg width="40" height="48" viewBox="0 0 40 48" fill="none" xmlns="http://www.w3.org/2000/svg">
<g clip-path="url(#clip0_4572_1506)">
<path d="M0.171387 47.8222H39.3538V0.182617H0.171387V47.8222Z" fill="#FFE300"/>
<path d="M0.171387 0.177734H39.3538V47.8223H0.171387V0.177734Z" stroke="#027ABF" stroke-width="0.355346" stroke-miterlimit="3.864"/>
<path d="M4.63135 4.63428H34.9007V12.6421H13.9745V15.7676H34.9007V23.7754H13.9745V26.8962H34.9007V34.904H4.63135V4.63428Z" fill="#027ABF"/>
<path d="M11.0029 38H14.1812C15.6554 38.0048 16.8473 39.2062 16.852 40.6756C16.8569 42.1546 15.6602 43.3656 14.1812 43.3704H11.0029V38Z" fill="#027ABF"/>
<path d="M23.918 38H25.5741V40.0486L27.4456 38H29.6234L27.5126 40.2879L29.8005 43.3704H27.6944L26.3495 41.5419L25.5741 42.3461V43.3704H23.918V38Z" fill="#027ABF"/>
<path d="M31.7604 38H34.235L36.0825 43.3704H34.412L34.0674 42.2647H31.9374L31.5736 43.3704H29.9175L31.7604 38Z" fill="#027ABF"/>
<path d="M32.3608 41.0058H33.6293L32.9927 39.1869L32.3608 41.0058Z" fill="#FFE300"/>
<path d="M12.6577 39.4214H13.9596C14.6584 39.4214 15.2281 39.9862 15.2281 40.6849C15.2281 41.3838 14.6585 41.9534 13.9596 41.9534H12.6577V39.4214Z" fill="#FFE300"/>
<path d="M4.61914 37.9951H9.98953V39.3927H6.27531V39.9863H9.98953V41.3839H6.27531V41.9726H9.98953V43.3702H4.61914V37.9951Z" fill="#027ABF"/>
<path d="M17.5713 37.9951H22.9464V39.3927H19.2322V39.9863H22.9464V41.3839H19.2322V41.9726H22.9464V43.3702H17.5713V37.9951Z" fill="#027ABF"/>
</g>
<defs>
<clipPath id="clip0_4572_1506">
<rect width="39.5377" height="48" fill="white"/>
</clipPath>
</defs>
</svg>
