<svg width="148" height="44" viewBox="0 0 148 44" fill="none" xmlns="http://www.w3.org/2000/svg">
<g clip-path="url(#clip0_4572_1530)">
<path d="M3.28764 42.7277C5.62702 42.7277 7.14124 41.0458 7.14124 38.6302C7.14124 36.1846 5.61205 34.5334 3.28764 34.5334H1.34554V42.7277H3.28764ZM3.28764 33.28C6.48345 33.28 8.51739 35.4971 8.51739 38.6302C8.51739 41.7953 6.40725 43.981 3.28764 43.981H0V33.28H3.28764Z" fill="#20354A"/>
<path d="M11.2946 39.0822H15.9278C15.836 37.9315 15.0251 37.1245 13.7408 37.1245C12.5021 37.1245 11.5844 37.8571 11.2946 39.0822ZM17.2121 40.0687H11.2021C11.264 41.8469 12.4715 42.8925 14.0313 42.8925C14.8421 42.8925 15.9122 42.624 16.7836 42.2351V43.3559C16.0808 43.7447 14.9183 43.9987 13.9394 43.9987C11.3858 43.9987 9.91846 42.265 9.91846 39.949C9.91846 37.4828 11.5694 36.019 13.7102 36.019C15.9584 36.019 17.2271 37.5879 17.2271 39.6652C17.2271 39.8294 17.2271 39.9643 17.2121 40.0687Z" fill="#20354A"/>
<path d="M24.3666 36.0184H25.6203V44H24.3666V42.7451C23.7856 43.4938 22.7911 43.9985 21.7211 43.9985C20.0545 43.9985 18.877 42.8825 18.877 40.8953V36.0184H20.1307V40.8953C20.1307 42.2099 20.9102 42.8675 22.0115 42.8675C22.9442 42.8675 23.8462 42.271 24.3666 41.3992V36.0184Z" fill="#20354A"/>
<path d="M32.0509 42.699V43.815C31.6842 43.9218 31.1944 43.9986 30.6747 43.9986C28.6714 43.9986 27.7544 42.5766 27.7544 40.6968V34.1587L28.8244 33.257H29.0081V36.0186H31.8672V37.089H29.0081V40.6656C29.0081 41.7972 29.4516 42.867 30.8584 42.867C31.2863 42.867 31.6992 42.7908 32.0509 42.699Z" fill="#20354A"/>
<path d="M33.1266 43.4154V42.28C33.7994 42.6683 34.8851 42.9076 35.6041 42.9076C36.5973 42.9076 37.4387 42.4894 37.4387 41.7868C37.4387 41.1892 36.9646 40.9047 36.3374 40.7405L34.9769 40.3676C33.6314 40.0086 33.0654 39.2913 33.0654 38.1559C33.0654 36.8105 34.411 36.0188 35.9864 36.0188C36.8422 36.0188 37.7142 36.2428 38.1571 36.5267V37.6627C37.5 37.2891 36.6129 37.1243 35.9095 37.1243C35.1293 37.1243 34.3497 37.4387 34.3497 38.1852C34.3497 38.6784 34.7164 38.9922 35.451 39.1863L36.6592 39.5306C38.2033 39.9042 38.7081 40.6813 38.7081 41.7868C38.7081 43.2366 37.3469 43.9984 35.5116 43.9984C34.6402 43.9984 33.5702 43.7146 33.1266 43.4154Z" fill="#20354A"/>
<path d="M39.7969 40.0094C39.7969 37.6188 41.6934 36.0204 44.0634 36.0204C44.8586 36.0204 45.5769 36.1998 46.1735 36.5282V37.7683H46.0973C45.577 37.3503 44.7817 37.1257 44.094 37.1257C42.4424 37.1257 41.0812 38.2761 41.0812 40.0094C41.0812 41.7428 42.4424 42.8932 44.094 42.8932C44.7817 42.8932 45.5769 42.6686 46.0973 42.2505H46.1735V43.4907C45.577 43.8191 44.8586 43.9985 44.0634 43.9985C41.6934 43.9985 39.7969 42.4001 39.7969 40.0094Z" fill="#20354A"/>
<path d="M54.6598 39.1046V43.9814H53.4211V39.1046C53.4211 37.79 52.6259 37.1323 51.5402 37.1323C50.5926 37.1323 49.6899 37.7288 49.1702 38.6156V43.9814H47.9165V33.257H49.1702V37.2704C49.7512 36.506 50.745 36.0185 51.8157 36.0185C53.4823 36.0185 54.6598 37.1174 54.6598 39.1046Z" fill="#20354A"/>
<path d="M57.7575 39.0835H62.3913C62.2995 37.9329 61.4893 37.1259 60.2043 37.1259C58.9656 37.1259 58.048 37.8584 57.7575 39.0835ZM63.6756 39.9075H57.6657C57.7275 41.8482 58.935 42.8939 60.4948 42.8939C61.3056 42.8939 62.3757 42.6253 63.2471 42.2364V43.3572C62.5444 43.746 61.3818 44 60.4036 44C57.85 44 56.3813 42.2663 56.3813 39.9504C56.3813 37.4842 58.033 36.0204 60.1737 36.0204C62.4219 36.0204 63.6586 37.5894 63.6906 39.6665C63.6932 39.8365 63.6923 39.8652 63.6827 39.9075L63.6756 39.9075Z" fill="#20354A"/>
<path d="M69.9396 33.2795H67.8145V43.9805H69.9396V33.2795Z" fill="#20354A"/>
<path d="M79.4727 39.085V43.9809H77.5V39.3293C77.5 38.2917 76.8884 37.7122 75.9708 37.7122C75.2674 37.7122 74.564 38.1241 74.0899 38.7647V43.9809H72.1172V36.0186H74.0899V37.1633C74.6709 36.4766 75.6191 36.0186 76.6129 36.0186C78.2646 36.0186 79.4727 37.0866 79.4727 39.085Z" fill="#20354A"/>
<path d="M86.594 36.0186L84.3954 40.8012L82.2547 36.0186H80.1445V36.1566L84.0281 43.9812H84.7471L88.7191 36.1566V36.0186H86.594Z" fill="#20354A"/>
<path d="M90.754 39.0824H94.5157C94.3777 38.1258 93.7511 37.5435 92.7417 37.5435C91.7478 37.5435 90.9988 38.1258 90.754 39.0824ZM96.366 39.8295C96.366 39.9937 96.3504 40.1878 96.3354 40.3075H90.6621C90.8308 41.6828 91.7784 42.4593 93.1702 42.4593C93.996 42.4593 95.1123 42.2053 95.8919 41.8617V43.356C95.2497 43.6997 94.0416 43.9988 92.9409 43.9988C90.2955 43.9988 88.7969 42.2499 88.7969 39.9485C88.7969 37.483 90.4941 36.0186 92.7417 36.0186C95.0817 36.0186 96.381 37.6179 96.366 39.8295Z" fill="#20354A"/>
<path d="M97.6151 43.4306V41.8611C98.3341 42.2799 99.4191 42.5039 100.199 42.5039C100.887 42.5039 101.591 42.2201 101.591 41.6823C101.591 41.2642 101.254 41.0395 100.78 40.9205L99.4042 40.5615C98.013 40.2032 97.4927 39.3211 97.4927 38.2755C97.4927 36.8709 98.8845 36.0187 100.658 36.0187C101.56 36.0187 102.493 36.2281 102.967 36.5119V38.0515C102.31 37.6925 101.362 37.5429 100.643 37.5429C100.001 37.5429 99.4348 37.767 99.4348 38.32C99.4348 38.7089 99.7559 38.9329 100.261 39.0672L101.53 39.4261C103.12 39.8443 103.533 40.7257 103.533 41.7122C103.533 43.2658 102.065 43.9983 100.23 43.9983C99.2518 43.9983 98.1042 43.7297 97.6151 43.4306Z" fill="#20354A"/>
<path d="M109.673 42.1333V43.7845C109.23 43.9219 108.603 43.9987 108.052 43.9987C105.621 43.9987 104.856 42.2251 104.856 40.4209V34.3886L106.631 33.257H106.829V36.0187H109.444V37.6087H106.829V40.4365C106.829 41.5219 107.349 42.3013 108.45 42.3013C108.863 42.3013 109.291 42.2407 109.673 42.1333Z" fill="#20354A"/>
<path d="M123.143 39.085V43.9809H121.171V39.2831C121.171 38.3379 120.651 37.7122 119.871 37.7122C119.259 37.7122 118.663 38.1241 118.235 38.7491C118.25 38.8563 118.25 38.9784 118.25 39.085V43.9809H116.277V39.2831C116.277 38.3379 115.757 37.7122 114.978 37.7122C114.366 37.7122 113.784 38.1085 113.357 38.7342V43.9809H111.384V36.0186H113.357V37.1477C113.892 36.4766 114.656 36.0186 115.497 36.0186C116.583 36.0186 117.455 36.522 117.913 37.4524C118.464 36.5987 119.488 36.0186 120.391 36.0186C121.996 36.0186 123.143 37.1477 123.143 39.085Z" fill="#20354A"/>
<path d="M126.565 39.0824H130.327C130.189 38.1258 129.563 37.5435 128.553 37.5435C127.559 37.5435 126.81 38.1258 126.565 39.0824ZM132.178 39.8295C132.178 39.9937 132.162 40.1878 132.147 40.3075H126.474C126.642 41.6828 127.59 42.4593 128.982 42.4593C129.808 42.4593 130.924 42.2053 131.703 41.8617V43.356C131.061 43.6997 129.853 43.9988 128.752 43.9988C126.107 43.9988 124.608 42.2499 124.608 39.9485C124.608 37.483 126.306 36.0186 128.553 36.0186C130.893 36.0186 132.193 37.6179 132.178 39.8295Z" fill="#20354A"/>
<path d="M141.068 39.085V43.9809H139.095V39.3293C139.095 38.2917 138.484 37.7122 137.566 37.7122C136.863 37.7122 136.159 38.1241 135.685 38.7647V43.9809H133.712V36.0186H135.685V37.1633C136.266 36.4766 137.214 36.0186 138.208 36.0186C139.86 36.0186 141.068 37.0866 141.068 39.085Z" fill="#20354A"/>
<path d="M147.685 42.1333V43.7845C147.241 43.9219 146.615 43.9987 146.064 43.9987C143.633 43.9987 142.868 42.2251 142.868 40.4209V34.3886L144.642 33.257H144.841V36.0187H147.456V37.6087H144.841V40.4365C144.841 41.5219 145.361 42.3013 146.462 42.3013C146.875 42.3013 147.303 42.2407 147.685 42.1333Z" fill="#20354A"/>
<path d="M67.6463 24.0332C67.5669 24.0351 67.4897 24.0452 67.4099 24.0452C61.8345 24.0452 57.299 19.51 57.299 13.9355C57.299 13.5137 57.3332 13.1005 57.3836 12.6922C57.3059 12.1634 57.2522 11.6269 57.2522 11.0769C57.2522 10.4221 57.3203 9.78402 57.4298 9.16016C56.734 10.6086 56.3325 12.2241 56.3325 13.9355C56.3325 20.0427 61.3017 25.0123 67.4099 25.0123C68.7351 25.0123 70.001 24.7663 71.1799 24.3376C70.9038 24.3583 70.6277 24.3799 70.3464 24.3799C69.4136 24.3799 68.5124 24.2513 67.6463 24.0332Z" fill="#224A65"/>
<path d="M66.5757 2.89903C66.8518 2.87832 67.1278 2.85677 67.4091 2.85677C68.3433 2.85677 69.2458 2.9857 70.113 3.20446C70.1911 3.20267 70.2671 3.19265 70.3457 3.19265C72.7717 3.19265 75 4.05277 76.7444 5.48223C76.1044 4.52321 75.3 3.68663 74.3793 2.99583C73.1275 2.50403 71.7699 2.22437 70.3457 2.22437C69.0204 2.22437 67.7545 2.47037 66.5757 2.89903Z" fill="#224A65"/>
<path d="M61.9325 18.8999C60.8612 17.2959 60.2339 15.3715 60.2339 13.3023C60.2339 8.98623 62.9586 5.30327 66.7748 3.85596C65.6202 3.92819 64.5147 4.18365 63.4965 4.61267C60.926 6.64322 59.2681 9.78004 59.2681 13.3023C59.2681 14.3457 59.423 15.3519 59.6939 16.3098C60.2924 17.2938 61.0455 18.1732 61.9325 18.8999Z" fill="#224A65"/>
<path d="M77.4716 4.83289C78.1415 5.81048 78.6514 6.90251 78.9816 8.07021C79.9117 9.59894 80.4576 11.3859 80.4576 13.3022C80.4576 17.4887 77.8985 21.0883 74.2624 22.6214C73.2456 23.0501 72.1417 23.3057 70.9888 23.3787C70.7752 23.3922 70.563 23.4113 70.3461 23.4113C68.077 23.4113 65.9873 22.6512 64.2982 21.3848C63.1648 20.9398 62.1205 20.3192 61.2041 19.5469C62.7105 21.7449 64.9905 23.3642 67.646 24.033C68.5121 24.2511 69.4133 24.3796 70.3461 24.3796C70.6274 24.3796 70.9035 24.3581 71.1796 24.3374C76.8986 23.9084 81.4235 19.129 81.4235 13.3022C81.4235 9.9068 79.8847 6.8667 77.4716 4.83289Z" fill="#224A65"/>
<path d="M79.4078 11.0767C79.4078 10.0337 79.2529 9.02787 78.9821 8.07032C78.6519 6.90263 78.142 5.81059 77.4721 4.833C75.4746 1.91809 72.1231 0 68.3298 0C62.8765 0 58.3419 3.9647 57.43 9.16001C57.3205 9.78387 57.2524 10.422 57.2524 11.0767C57.2524 11.6268 57.3061 12.1633 57.3838 12.692C57.7863 15.428 59.1822 17.8426 61.2046 19.547C62.121 20.3193 63.1653 20.9399 64.2987 21.3849C65.5498 21.8761 66.9066 22.1554 68.3298 22.1554C71.4569 22.1554 74.2797 20.8479 76.2958 18.7572C76.8287 17.7795 77.1933 16.701 77.3788 15.5631C75.7216 18.8912 72.293 21.1883 68.3298 21.1883C65.9045 21.1883 63.677 20.3287 61.933 18.8999C61.046 18.1732 60.2929 17.2938 59.6945 16.3098C58.7646 14.7809 58.2189 12.9936 58.2189 11.0767C58.2189 10.5214 58.2758 9.98015 58.3624 9.44887C58.5479 8.31052 58.9128 7.23184 59.4458 6.25397C61.1613 3.10725 64.5 0.967059 68.3298 0.967059C70.5999 0.967059 72.6906 1.72802 74.3803 2.99578C75.3009 3.68659 76.1053 4.52317 76.7453 5.48219C77.8153 7.08558 78.442 9.00883 78.442 11.0767C78.442 11.4993 78.4076 11.9131 78.3571 12.3222C78.4346 12.8503 78.4881 13.3861 78.4881 13.9354C78.4881 14.5902 78.4201 15.2285 78.3105 15.8524C79.0064 14.404 79.4078 12.7883 79.4078 11.0767Z" fill="#20354A"/>
<path d="M78.357 12.3222C77.7038 7.87553 74.4075 4.28747 70.1139 3.20437C69.2467 2.98561 68.3441 2.85669 67.41 2.85669C67.1287 2.85669 66.8526 2.87824 66.5765 2.89895C63.7843 3.10837 61.2803 4.35195 59.4457 6.25394C58.9127 7.2318 58.5478 8.31048 58.3623 9.44884C59.4394 7.28547 61.2597 5.5553 63.497 4.61266C64.5152 4.18363 65.6206 3.92818 66.7752 3.85594C66.9862 3.84275 67.1957 3.82378 67.41 3.82378C72.9861 3.82378 77.5221 8.35962 77.5221 13.9353C77.5221 14.4907 77.4652 15.0318 77.3787 15.563C77.1932 16.701 76.8286 17.7795 76.2957 18.7572C75.1451 20.8681 73.2591 22.5157 70.9892 23.3788C72.1421 23.3058 73.246 23.0501 74.2628 22.6214C76.3536 20.9687 77.831 18.5826 78.3104 15.8524C78.42 15.2284 78.488 14.5902 78.488 13.9353C78.488 13.3861 78.4345 12.8503 78.357 12.3222Z" fill="#7996B4"/>
</g>
<defs>
<clipPath id="clip0_4572_1530">
<rect width="147.685" height="44" fill="white"/>
</clipPath>
</defs>
</svg>
