<svg width="110" height="24" viewBox="0 0 110 24" fill="none" xmlns="http://www.w3.org/2000/svg">
<path d="M27.384 10.541L20.0243 3.18131C19.9055 3.06967 19.7487 3.00751 19.5857 3.00751C19.4227 3.00751 19.2658 3.06967 19.1471 3.18131L17.7012 4.62717L23.615 10.5417C23.6729 10.5991 23.7188 10.6675 23.7501 10.7427C23.7814 10.818 23.7975 10.8987 23.7975 10.9803C23.7975 11.0618 23.7814 11.1425 23.7501 11.2178C23.7188 11.293 23.6729 11.3614 23.615 11.4189L17.5347 17.4992L18.9805 18.9451C19.0993 19.0567 19.2561 19.1189 19.4191 19.1189C19.5821 19.1189 19.739 19.0567 19.8577 18.9451L27.3853 11.4195C27.4969 11.3007 27.5591 11.1439 27.5591 10.9809C27.5591 10.8179 27.4969 10.6611 27.3853 10.5423L27.384 10.5417V10.541Z" fill="#ABA9B8"/>
<path opacity="0.45" d="M14.8452 3.71448L14.3101 3.18003C14.1914 3.06857 14.0347 3.00653 13.8718 3.00653C13.709 3.00653 13.5523 3.06857 13.4335 3.18003L11.9877 4.62719L12.9469 5.58765L14.8316 7.47244L16.7138 5.58701L14.8446 3.71513H14.8452V3.71448ZM14.6651 14.6501L12.7842 16.5362L11.8237 17.496L13.2696 18.9419C13.3884 19.0537 13.5454 19.116 13.7085 19.116C13.8717 19.116 14.0287 19.0537 14.1474 18.9419L14.6787 18.4074L16.5634 16.5226L14.6658 14.6508L14.6651 14.6501Z" fill="#ABA9B8"/>
<path opacity="0.75" d="M17.9019 10.5415C18.0134 10.6602 18.0754 10.8169 18.0754 10.9798C18.0754 11.1426 18.0134 11.2993 17.9019 11.4181L14.6655 14.65L16.5516 16.536L21.6715 11.4148C21.7294 11.3575 21.7753 11.2892 21.8067 11.214C21.838 11.1387 21.8542 11.0581 21.8542 10.9766C21.8542 10.8951 21.838 10.8144 21.8067 10.7391C21.7753 10.6639 21.7294 10.5957 21.6715 10.5383L16.731 5.6004L14.845 7.48519L17.9019 10.5409V10.5415Z" fill="#ABA9B8"/>
<path opacity="0.3" d="M5.89546 10.7166L11.016 5.59671L9.13122 3.71128L8.59354 3.1807C8.47483 3.06924 8.3181 3.0072 8.15526 3.0072C7.99243 3.0072 7.8357 3.06924 7.71699 3.1807L0.183011 10.7166C0.12503 10.774 0.0790011 10.8423 0.0475878 10.9176C0.0161744 10.9929 0 11.0736 0 11.1552C0 11.2368 0.0161744 11.3176 0.0475878 11.3928C0.0790011 11.4681 0.12503 11.5364 0.183011 11.5938L7.544 18.9542C7.66272 19.0656 7.81944 19.1277 7.98228 19.1277C8.14512 19.1277 8.30184 19.0656 8.42055 18.9542L8.96146 18.4197L10.8469 16.5349L5.89675 11.5938C5.83885 11.5364 5.79289 11.4681 5.76152 11.3928C5.73016 11.3175 5.71401 11.2368 5.71401 11.1552C5.71401 11.0737 5.73016 10.9929 5.76152 10.9176C5.79289 10.8424 5.83885 10.774 5.89675 10.7166H5.89546Z" fill="#ABA9B8"/>
<path opacity="0.45" d="M11.6088 10.7166L13.8712 8.4574L11.9858 6.57261L11.0259 5.61279L5.90605 10.7333C5.84824 10.7908 5.80236 10.859 5.77106 10.9343C5.73975 11.0095 5.72363 11.0901 5.72363 11.1716C5.72363 11.2531 5.73975 11.3338 5.77106 11.409C5.80236 11.4842 5.84824 11.5525 5.90605 11.6099L10.8375 16.5349L11.7973 15.5757L13.6827 13.6896L11.5959 11.6073C11.4843 11.4886 11.4221 11.3317 11.4221 11.1687C11.4221 11.0057 11.4843 10.8489 11.5959 10.7301" fill="#ABA9B8"/>
<path opacity="0.6" d="M11.6082 11.5945L13.6944 13.6774L15.9542 11.4182C16.0118 11.3607 16.0576 11.2923 16.0888 11.2171C16.12 11.1418 16.1361 11.0611 16.1361 10.9796C16.1361 10.8982 16.12 10.8175 16.0888 10.7422C16.0576 10.667 16.0118 10.5986 15.9542 10.5411L13.8699 8.45746L11.6082 10.7166C11.4964 10.8354 11.4341 10.9924 11.4341 11.1555C11.4341 11.3187 11.4964 11.4757 11.6082 11.5945Z" fill="#ABA9B8"/>
<path d="M33.287 8.97965C33.3083 8.14699 33.4742 7.32336 33.7776 6.5475C34.0612 5.83201 34.4981 5.18735 35.0576 4.65884C35.6561 4.11309 36.3611 3.69707 37.1283 3.43696C38.0572 3.13134 39.0312 2.98512 40.009 3.00449C41.0976 2.96954 42.183 3.13877 43.2093 3.50345C43.9454 3.77518 44.6241 4.1824 45.2102 4.70403C45.6585 5.10341 46.0142 5.59572 46.2527 6.14666C46.4257 6.54879 46.5399 6.97287 46.5922 7.40857C46.6014 7.48864 46.591 7.56975 46.562 7.64495C46.533 7.72016 46.4862 7.78721 46.4257 7.84039C46.3065 7.94865 46.151 8.0081 45.99 8.00692H44.1917C44.0512 8.01335 43.913 7.97016 43.8012 7.88493C43.7145 7.81533 43.6434 7.72823 43.5927 7.62932C43.5175 7.49736 43.4396 7.36695 43.359 7.23816C43.1943 6.99946 42.9913 6.78964 42.7581 6.61721C42.4299 6.37351 42.0675 6.1795 41.6827 6.04145C41.147 5.85519 40.5817 5.76856 40.0148 5.78584C39.0445 5.73759 38.0919 6.05888 37.349 6.68499C37.0142 6.99106 36.7465 7.36332 36.5629 7.77819C36.3794 8.19307 36.284 8.64153 36.2827 9.09519C36.2509 9.69839 36.236 10.3024 36.2382 10.9064C36.2382 11.5493 36.2382 12.1534 36.2833 12.7176C36.3246 13.9466 36.6835 14.8393 37.349 15.3924C38.108 15.9779 39.051 16.2731 40.0084 16.2251C40.5174 16.229 41.0249 16.1687 41.5188 16.0457C41.9509 15.9399 42.3557 15.7436 42.7065 15.4699C43.0505 15.1885 43.3177 14.8244 43.4842 14.4139C43.6827 13.9041 43.7775 13.3599 43.7631 12.8131V12.6246H41.0521C40.9731 12.6258 40.8948 12.6104 40.8221 12.5795C40.7494 12.5486 40.684 12.5028 40.63 12.4452C40.5734 12.3911 40.5285 12.3259 40.498 12.2538C40.4676 12.1816 40.4523 12.104 40.4531 12.0256V10.4475C40.4548 10.2889 40.5183 10.1372 40.6302 10.0248C40.7421 9.91244 40.8935 9.84822 41.0521 9.84588H46.1726C46.3313 9.84823 46.4828 9.91253 46.5947 10.0251C46.7067 10.1376 46.7701 10.2894 46.7716 10.4481V12.8893C46.7809 13.7266 46.6376 14.5586 46.3489 15.3447C46.0716 16.0725 45.6341 16.7286 45.0689 17.2643C44.4634 17.836 43.7433 18.2723 42.9563 18.5443C41.0398 19.1439 38.9866 19.1439 37.0708 18.5443C36.3063 18.2914 35.6053 17.8766 35.0156 17.3282C34.4626 16.7868 34.0344 16.1312 33.7608 15.4073C33.4636 14.6222 33.3015 13.7924 33.2812 12.9532C33.2812 12.6718 33.2554 12.3613 33.249 12.0218C33.2425 11.6829 33.249 11.3311 33.249 10.9761V9.93237C33.249 9.59027 33.2683 9.29206 33.2812 8.99772L33.287 8.97965ZM53.6143 9.67031C53.2381 9.6599 52.8636 9.72441 52.5125 9.86008C52.2285 9.97174 51.9697 10.1363 51.7476 10.3461C51.5469 10.5367 51.3842 10.7636 51.268 11.0148C51.1654 11.2361 51.0953 11.4712 51.0602 11.7126H56.0781C56.046 11.475 55.9902 11.2413 55.9116 11.0148C55.8285 10.7654 55.6919 10.5372 55.5114 10.3461C55.3054 10.1328 55.0554 9.96689 54.7788 9.86008C54.4066 9.72098 54.0114 9.6565 53.6143 9.67031ZM48.173 13.0022C48.1672 12.2057 48.295 11.4144 48.5506 10.6592C48.7833 9.95362 49.1531 9.30102 49.6388 8.73889C50.1167 8.19655 50.7032 7.76068 51.3603 7.45956C52.0646 7.14462 52.8287 6.98606 53.6001 6.99482C54.3708 6.98514 55.1347 7.1403 55.8406 7.44988C56.502 7.7379 57.0968 8.15937 57.5879 8.6879C58.0694 9.20948 58.4436 9.82074 58.689 10.4868C58.95 11.1793 59.0823 11.9137 59.0795 12.6537V13.6522C59.077 13.8111 59.0128 13.9627 58.9003 14.0749C58.7879 14.187 58.6361 14.251 58.4773 14.2532H51.0595C51.0519 14.5659 51.1237 14.8755 51.268 15.153C51.41 15.4047 51.6037 15.6229 51.838 15.7933C52.0833 15.9753 52.3615 16.1109 52.6564 16.1935C52.9693 16.28 53.2923 16.3239 53.6169 16.3239C54.0071 16.335 54.3967 16.2864 54.7723 16.1799C55.035 16.1005 55.2822 15.9772 55.5049 15.8152C55.6295 15.7197 55.7631 15.6371 55.9051 15.5693C56.04 15.5185 56.1838 15.4954 56.3279 15.5015H58.1029C58.2658 15.5035 58.4216 15.5677 58.5386 15.681C58.5977 15.7334 58.6436 15.7989 58.6725 15.8724C58.7015 15.9459 58.7127 16.0251 58.7052 16.1038C58.6555 16.3942 58.5374 16.6679 58.3598 16.9035C58.0999 17.2787 57.7746 17.604 57.3994 17.864C56.9073 18.2064 56.3684 18.4759 55.7992 18.6643C55.0933 18.8942 54.3533 19.002 53.6111 18.9832C52.8428 18.9921 52.0807 18.8454 51.3707 18.552C50.7086 18.2783 50.1157 17.8607 49.635 17.3295C49.1502 16.774 48.7807 16.1276 48.548 15.4279C48.2873 14.644 48.1594 13.8219 48.1697 12.9958L48.173 13.0022ZM64.3996 14.6024C64.3778 15.0017 64.5094 15.3942 64.7675 15.6997C65.0108 15.9753 65.4652 16.1128 66.1339 16.1128H67.4881C67.6465 16.1148 67.7978 16.1784 67.91 16.2901C68.0222 16.4018 68.0864 16.5528 68.0891 16.7111V18.177C68.0864 18.3357 68.0222 18.4872 67.9099 18.5995C67.7977 18.7117 67.6462 18.7759 67.4875 18.7786H65.8428C64.4493 18.7786 63.3836 18.4417 62.6426 17.7671C61.9022 17.0939 61.5285 16.0605 61.522 14.6695V9.8917H60.0439C59.9653 9.8927 59.8874 9.87726 59.8151 9.84635C59.7429 9.81545 59.6779 9.76978 59.6243 9.71226C59.5663 9.65914 59.5202 9.59423 59.4893 9.52187C59.4583 9.44952 59.4432 9.37138 59.4449 9.29271V7.8249C59.444 7.74633 59.4595 7.66845 59.4904 7.59621C59.5213 7.52397 59.5669 7.45897 59.6243 7.40534C59.6784 7.34853 59.7435 7.30337 59.8157 7.27263C59.8878 7.24188 59.9655 7.2262 60.0439 7.22654H61.5123V3.60414C61.5148 3.44605 61.5787 3.29514 61.6905 3.18334C61.8023 3.07154 61.9533 3.00763 62.1113 3.00514H63.8006C63.9585 3.00779 64.1092 3.07166 64.2209 3.18329C64.3327 3.29492 64.3967 3.44557 64.3996 3.60349V7.2259H67.2797C67.4332 7.23456 67.5778 7.30124 67.6841 7.41244C67.7904 7.52365 67.8505 7.67107 67.8522 7.8249V9.29335C67.8504 9.45153 67.7867 9.60273 67.6749 9.71465C67.5631 9.82656 67.412 9.89034 67.2538 9.89235H64.3731L64.3996 14.6024ZM78.997 12.9797L76.5519 6.64626L74.1094 12.9797H78.997ZM77.7744 3.22525C77.8717 3.21841 77.9694 3.23167 78.0613 3.26421C78.1533 3.29674 78.2375 3.34786 78.3089 3.41437C78.4522 3.58026 78.5606 3.77261 78.6284 3.9811L84.0697 18.024C84.0844 18.0737 84.0918 18.1252 84.0917 18.177C84.0898 18.3359 84.026 18.4877 83.9137 18.6001C83.8014 18.7125 83.6496 18.7766 83.4907 18.7786H81.89C81.7787 18.7903 81.6662 18.7797 81.5592 18.7473C81.4521 18.715 81.3526 18.6615 81.2664 18.5901C81.1619 18.4847 81.0792 18.3596 81.0231 18.2222L80.0626 15.7578H73.0444L72.0839 18.2216C72.0279 18.3592 71.9452 18.4845 71.8406 18.5901C71.7545 18.6618 71.6549 18.7154 71.5476 18.7478C71.4404 18.7802 71.3278 18.7906 71.2164 18.7786H69.6163C69.4582 18.7748 69.3077 18.7101 69.1963 18.598C69.0848 18.4859 69.0209 18.3351 69.0179 18.177C69.0167 18.1251 69.0243 18.0734 69.0405 18.024L74.4812 3.9811C74.549 3.77261 74.6581 3.58026 74.8014 3.41437C74.8725 3.3475 74.9567 3.29615 75.0487 3.26359C75.1407 3.23103 75.2385 3.21798 75.3358 3.22525H77.7744ZM93.5944 13.6238C93.6389 13.2109 93.6389 12.7943 93.5944 12.3813C93.5079 11.4215 93.2103 10.7237 92.7075 10.3042C92.1906 9.87536 91.536 9.64814 90.8646 9.6645C90.1952 9.64301 89.5417 9.87098 89.0309 10.3042C88.7732 10.5394 88.5649 10.8235 88.418 11.14C88.2712 11.4565 88.1888 11.799 88.1756 12.1476C88.1414 12.4279 88.1265 12.7102 88.1311 12.9926C88.1265 13.2753 88.1414 13.5574 88.1756 13.8375C88.2148 14.5323 88.5213 15.185 89.0309 15.659C89.5352 16.106 90.191 16.3438 90.8646 16.3239C91.536 16.3402 92.1906 16.1129 92.7075 15.6842C93.2103 15.2646 93.5079 14.5707 93.5944 13.6071V13.6238ZM91.5366 19C91.1221 19.0043 90.7086 18.9601 90.3044 18.8683C89.9742 18.7947 89.6524 18.6876 89.3439 18.5488C89.0986 18.4252 88.8679 18.2748 88.6558 18.1002C88.4898 17.9688 88.3346 17.8241 88.1917 17.6677V22.3984C88.1891 22.5571 88.1248 22.7086 88.0126 22.8209C87.9004 22.9331 87.7489 22.9973 87.5901 23H85.9035C85.7446 22.9982 85.5926 22.9342 85.4802 22.8218C85.3678 22.7093 85.3038 22.5574 85.3019 22.3984V7.82425C85.3057 7.6662 85.3704 7.51572 85.4825 7.40423C85.5946 7.29273 85.7455 7.22885 85.9035 7.2259H87.5901C87.7483 7.22853 87.8993 7.29231 88.0115 7.40387C88.1237 7.51543 88.1883 7.66609 88.1917 7.82425V8.33676C88.5195 7.9742 88.9154 7.67965 89.3568 7.46988C89.6652 7.33054 89.987 7.22305 90.3173 7.14908C90.7215 7.05744 91.135 7.01346 91.5495 7.01805C92.2433 7.00799 92.9304 7.15565 93.5589 7.44988C94.1431 7.72647 94.6646 8.11967 95.0912 8.60527C95.5206 9.09793 95.8599 9.66228 96.0936 10.2725C96.3372 10.9005 96.4755 11.5644 96.5029 12.2374C96.519 12.4581 96.5254 12.7176 96.5254 13.0152C96.5254 13.3127 96.5255 13.5722 96.5029 13.793C96.4755 14.4659 96.3372 15.1298 96.0936 15.7578C95.8599 16.368 95.5206 16.9324 95.0912 17.425C94.6645 17.9105 94.143 18.3037 93.5589 18.5804C92.9254 18.8721 92.2338 19.0161 91.5366 19ZM106.153 13.6232C106.197 13.2104 106.197 12.7941 106.153 12.3813C106.063 11.4215 105.769 10.7237 105.263 10.3042C104.747 9.87422 104.092 9.64686 103.42 9.6645C102.75 9.64332 102.097 9.87125 101.586 10.3042C101.329 10.5397 101.121 10.8238 100.974 11.1401C100.828 11.4564 100.745 11.7986 100.731 12.147C100.699 12.4278 100.684 12.7098 100.687 12.9926C100.684 13.2753 100.698 13.5574 100.731 13.8375C100.77 14.5322 101.077 15.1849 101.586 15.659C102.09 16.106 102.746 16.3438 103.42 16.3239C104.092 16.3414 104.747 16.114 105.263 15.6842C105.769 15.2646 106.063 14.5707 106.153 13.6071V13.6232ZM104.085 18.9839C103.671 18.9883 103.258 18.9443 102.854 18.8528C102.524 18.7785 102.202 18.671 101.893 18.532C101.645 18.4137 101.411 18.2677 101.195 18.097C101.028 17.9655 100.872 17.8209 100.728 17.6645V22.3984C100.729 22.4773 100.713 22.5556 100.682 22.6282C100.652 22.7009 100.606 22.7663 100.549 22.8206C100.495 22.8775 100.43 22.9227 100.358 22.9536C100.286 22.9845 100.208 23.0002 100.13 23H98.4399C98.2816 22.997 98.1307 22.9326 98.019 22.8203C97.9074 22.708 97.8437 22.5567 97.8416 22.3984V7.82425C97.8437 7.66623 97.9075 7.5153 98.0192 7.40355C98.131 7.2918 98.2819 7.22807 98.4399 7.2259H100.13C100.287 7.22951 100.437 7.29371 100.549 7.40515C100.66 7.51659 100.725 7.66669 100.728 7.82425V8.33676C100.872 8.18042 101.028 8.03581 101.195 7.90429C101.411 7.73354 101.645 7.5874 101.893 7.46859C102.202 7.33046 102.523 7.22331 102.854 7.14908C103.258 7.05765 103.671 7.01368 104.085 7.01805C104.78 7.00794 105.469 7.15559 106.098 7.44988C106.682 7.72794 107.203 8.12092 107.631 8.60527C108.06 9.09815 108.398 9.66251 108.63 10.2725C108.874 10.9006 109.012 11.5635 109.04 12.2374C109.055 12.4581 109.062 12.7176 109.062 13.0152C109.062 13.3127 109.062 13.5722 109.04 13.793C109.012 14.466 108.874 15.1298 108.63 15.7578C108.398 16.3678 108.06 16.9322 107.631 17.425C107.203 17.9094 106.682 18.3024 106.098 18.5804C105.469 18.8749 104.78 19.0228 104.085 19.0129" fill="#ABA9B8"/>
</svg>
