<svg width="160" height="28" viewBox="0 0 160 28" fill="none" xmlns="http://www.w3.org/2000/svg">
<g clip-path="url(#clip0_4572_1492)">
<path d="M3.12365 0L0 28H19.9105L23.0397 0H3.12365Z" fill="#214F8A"/>
<path d="M3.48291 20.417V11.2H18.4439V14.889H7.22455V20.417H3.48291Z" fill="#66B8E7"/>
<path d="M14.7022 16.728H18.4439V25.9506H3.48291V22.2616H14.7022V16.728Z" fill="#66B8E7"/>
<path d="M12.8315 16.7335H9.08984V20.4225H12.8315V16.7335Z" fill="#66B8E7"/>
<path d="M115.755 20.4337H125.16V17.714H115.755V14.4071H125.738V11.2942H112.098V26.8479H125.98V23.7349H115.755V20.4337Z" fill="black"/>
<path d="M153.885 11.2942L147.975 17.7084H147.531V11.2942H143.896V26.8479H147.531V20.4281H147.975L154.194 26.8479H159.25L151.126 18.9658L158.419 11.2942H153.885Z" fill="black"/>
<path d="M80.546 23.7405V14.4071H86.1641C88.8608 14.4071 89.4282 16.9108 89.4282 19.0932C89.4282 21.2756 88.7372 23.7349 86.0574 23.7349L80.546 23.7405ZM85.99 11.2997H76.8887V26.8479H85.99C91.3215 26.8479 93.0744 23.879 93.0744 19.0932C93.0744 14.3074 91.3215 11.2942 85.99 11.2942V11.2997Z" fill="black"/>
<path d="M56.3207 11.2886C55.1971 11.1889 54.0735 11.1113 52.9499 11.1169C51.8262 11.1224 50.7026 11.1944 49.579 11.2886C46.4273 11.5544 44.3036 13.0112 44.3036 17.0326V21.0983C44.2798 22.2005 44.5615 23.2883 45.1183 24.2445C45.9135 25.4768 47.155 26.3641 48.5902 26.726C49.376 26.8973 50.1788 26.9809 50.9835 26.9752C51.6465 26.9752 52.2925 27.0029 52.9442 27.0029C53.5959 27.0029 54.242 27.0029 54.905 26.9752C55.7097 26.9809 56.5125 26.8973 57.2983 26.726C58.7335 26.3641 59.975 25.4768 60.7702 24.2445C61.3273 23.2884 61.6089 22.2006 61.5849 21.0983V17.0326C61.6017 13.0112 59.4725 11.5544 56.3207 11.2886ZM57.8544 20.705C57.8544 22.9871 57.4106 23.6241 55.6915 23.7958C54.7926 23.89 53.669 23.9287 52.9555 23.9287C52.242 23.9287 51.124 23.89 50.2195 23.7958C48.5003 23.6241 48.0565 22.9871 48.0565 20.705V17.2154C48.0565 15.598 48.197 14.5954 50.1802 14.3849C52.0242 14.2091 53.8811 14.2091 55.7252 14.3849C57.7084 14.5954 57.8488 15.598 57.8488 17.2154L57.8544 20.705Z" fill="black"/>
<path d="M68.0295 23.7404C67.7749 23.7689 67.5183 23.7081 67.3047 23.5687C67.1801 23.4454 67.0866 23.2949 67.032 23.1294C66.9773 22.9639 66.963 22.788 66.9901 22.616V11.2886H63.3384V22.4886C63.3384 23.829 63.3889 25.2581 64.5519 26.1831C65.3946 26.8312 66.3553 26.8423 67.3609 26.8423H75.2038V23.7404H68.0295Z" fill="black"/>
<path d="M108.019 19.3093L107.457 19.1985V18.9603L108.019 18.7664C109.019 18.4119 109.845 17.9079 109.845 15.2824C109.845 12.4574 107.637 11.3053 104.227 11.3053H94.8164V26.8479H105.378C107.064 26.8479 110.328 26.3217 110.328 22.8044C110.328 20.6165 109.682 19.6305 108.019 19.3093ZM98.4682 14.4127H104.648C105.968 14.4127 106.232 15.2823 106.232 16.1077C106.232 16.933 105.873 17.714 104.648 17.714H98.4682V14.4127ZM104.98 23.7405H98.4682V20.4171H104.98C106.3 20.4171 106.564 21.2867 106.564 22.112C106.564 22.9373 106.199 23.7405 104.98 23.7405Z" fill="black"/>
<path d="M132.581 23.541C131.457 23.0203 131.334 21.8793 131.334 20.2785V17.8635C131.334 16.2904 131.44 15.0939 132.581 14.601C132.581 14.601 134.693 13.5485 141.502 14.8613L141.929 11.8536C140.089 11.4657 138.219 11.2249 136.339 11.1335C135.011 11.0613 133.679 11.1356 132.367 11.3551C131.817 11.4513 131.277 11.5997 130.755 11.7982C128.452 12.69 127.586 14.8447 127.586 17.1655V20.9709C127.586 23.2862 128.452 25.4465 130.755 26.3382C131.277 26.5367 131.817 26.6851 132.367 26.7814C133.679 27.0005 135.011 27.0748 136.339 27.0029C138.219 26.9116 140.089 26.6708 141.929 26.2829L141.497 23.2807C134.693 24.5879 132.581 23.541 132.581 23.541Z" fill="black"/>
<path d="M34.9046 17.6862V20.417H39.2473V22.544C39.2539 22.8386 39.1654 23.1276 38.9945 23.3693C38.8633 23.5036 38.7063 23.6109 38.5327 23.685C38.3592 23.7592 38.1724 23.7987 37.9833 23.8014C37.0854 23.8889 36.1829 23.9204 35.281 23.8955C34.3315 23.8955 33.3877 23.8567 32.4382 23.7626C30.1461 23.5355 29.7865 22.4886 29.7865 20.1456V18.0241C29.7865 16.2128 29.9663 14.9887 31.4719 14.54C32.5801 14.3123 33.7112 14.2119 34.8428 14.2409H35.9664C37.7947 14.2681 39.6153 14.4815 41.3991 14.8779L42.0564 12.1084C39.6975 11.4603 37.2577 11.1433 34.8091 11.1667V11.1667C33.5164 11.1725 32.2253 11.2594 30.9438 11.4271C30.0217 11.532 29.1349 11.8386 28.3483 12.3244C26.9494 13.2827 26.146 14.9942 26.146 17.3096V20.8601C26.146 23.4801 26.9719 25.2914 28.5955 26.1555C29.8764 26.8811 31.3483 26.9752 32.8203 26.9919C33.0675 26.9919 34.1012 27.0196 35.1012 27.0196C36.017 27.0196 36.899 26.9919 37.4102 26.9919C38.6799 26.9919 40.2193 26.8146 41.2474 25.9838C42.2755 25.1529 42.5508 23.8734 42.5508 22.6105V17.6862H34.9046Z" fill="black"/>
</g>
<defs>
<clipPath id="clip0_4572_1492">
<rect width="159.25" height="28" fill="white"/>
</clipPath>
</defs>
</svg>
