<svg width="94" height="64" viewBox="0 0 94 64" fill="none" xmlns="http://www.w3.org/2000/svg">
<path d="M91.9385 51.1643V53.6236H91.2963L91.1551 53.0776C90.9324 53.5049 90.4272 53.7189 89.8743 53.7189C88.6629 53.7189 87.8093 52.9277 87.8093 51.3142C87.8093 49.7561 88.6715 48.8704 90.0546 48.8704C90.9723 48.8704 91.5988 49.2821 91.8986 50.0325L90.9809 50.4762C90.8223 49.9615 90.474 49.7084 90.0156 49.7084C89.4064 49.7084 88.7972 50.1521 88.7972 51.322C88.7972 52.2319 89.1464 52.9355 90.0086 52.9355C90.6326 52.9355 91.0121 52.6435 91.0121 52.1678V51.9476H89.9774V51.1643H91.9385ZM84.3949 51.1002H85.1384C85.6211 51.1002 85.875 50.9104 85.875 50.4364C85.875 50.017 85.628 49.7718 85.1471 49.7718H84.3949V51.1002ZM86.0319 53.6237C85.9062 53.5041 85.8508 53.3472 85.8022 53.1574L85.6211 52.4217C85.518 51.978 85.3039 51.9 84.9088 51.9H84.3949V53.6237H83.4374V48.965H85.2026C86.2546 48.965 86.8542 49.3688 86.8542 50.3567C86.8542 51.0846 86.4114 51.472 85.8196 51.5196V51.5439C86.2546 51.6063 86.4834 51.7883 86.6029 52.2397L86.8386 53.1254C86.8941 53.3152 86.9582 53.4737 87.0995 53.6237H86.0319ZM82.0966 48.9652V52.0727C82.0966 53.3145 81.2101 53.7183 80.2222 53.7183C79.2248 53.7183 78.3383 53.3145 78.3383 52.0727V48.9652H79.295V51.8127C79.295 52.5319 79.542 52.9202 80.2222 52.9202C80.8947 52.9202 81.139 52.5319 81.139 51.8127V48.9652H82.0966ZM73.9288 51.3065C73.9288 52.2944 74.324 52.888 75.1065 52.888C75.8899 52.888 76.2781 52.2944 76.2781 51.3065C76.2781 50.3247 75.8829 49.7242 75.1065 49.7242C74.324 49.7242 73.9288 50.3247 73.9288 51.3065ZM72.9323 51.2979C72.9323 49.732 73.7633 48.8706 75.1065 48.8706C76.4523 48.8706 77.2816 49.732 77.2816 51.2979C77.2816 52.856 76.4523 53.7182 75.1065 53.7182C73.7633 53.7182 72.9323 52.856 72.9323 51.2979ZM69.5417 52.8164H70.3312C70.7749 52.8164 71.0374 52.6508 71.0374 52.215C71.0374 51.8605 70.8147 51.6543 70.3251 51.6543H69.5417V52.8164ZM70.1969 50.9428C70.6007 50.9428 70.8633 50.7765 70.8633 50.357C70.8633 49.9376 70.6007 49.7712 70.1657 49.7712H69.5417V50.9428H70.1969ZM70.9803 51.2505C71.6215 51.3224 72.0097 51.7331 72.0097 52.3423C72.0097 53.1171 71.4959 53.624 70.3555 53.624H68.5842V48.9653H70.371C71.313 48.9653 71.82 49.3839 71.82 50.143C71.82 50.7366 71.4785 51.1084 70.9803 51.2193V51.2505ZM67.0976 53.6239H66.14V48.9652H67.0976V53.6239ZM62.3555 51.1002H63.099C63.5817 51.1002 63.833 50.9104 63.833 50.4364C63.833 50.017 63.5886 49.7718 63.105 49.7718H62.3555V51.1002ZM63.9924 53.6237C63.8668 53.5041 63.8113 53.3472 63.7628 53.1574L63.5816 52.4217C63.4785 51.978 63.2645 51.9 62.8693 51.9H62.3555V53.6237H61.3979V48.965H63.1631C64.2151 48.965 64.8148 49.3688 64.8148 50.3567C64.8148 51.0846 64.3711 51.472 63.7784 51.5196V51.5439C64.2151 51.6063 64.4422 51.7883 64.5609 52.2397L64.7992 53.1254C64.8546 53.3152 64.9188 53.4737 65.06 53.6237H63.9924ZM57.3418 53.6236V48.9649H60.2847V49.7959H58.2994V51.0135H60.0395V51.8202H58.2994V53.6236H57.3418ZM53.9119 53.6236H50.8746V48.9649H53.9119V49.7959H51.8322V50.8705H53.6667V51.6781H51.8322V52.7934H53.9119V53.6236ZM47.2711 52.8164C48.1333 52.8164 48.6801 52.4212 48.6801 51.2973C48.6801 50.1196 48.1273 49.7712 47.3352 49.7712H46.7503V52.8164H47.2711ZM45.7936 53.624V48.9653H47.4236C48.7105 48.9653 49.6836 49.6057 49.6836 51.2427C49.6836 52.9671 48.6715 53.624 47.3681 53.624H45.7936ZM40.3782 48.4898L40.886 47.4144H42.088L41.2405 48.4898H40.3782ZM42.3791 53.6234H39.3418V48.9656H42.3791V49.7958H40.2985V50.8712H42.1339V51.678H40.2985V52.7932H42.3791V53.6234ZM36.1411 53.6236V49.7959H34.8439V48.9649H38.4107V49.7959H37.0987V53.6236H36.1411ZM33.9045 53.6239H32.9469V48.9652H33.9045V53.6239ZM29.1754 52.2075C29.2724 52.698 29.6191 52.9831 30.0861 52.9831C30.49 52.9831 30.7742 52.8089 30.7742 52.4536C30.7742 52.12 30.5914 51.9553 29.9362 51.7335C28.9787 51.4241 28.4717 51.0532 28.4717 50.2378C28.4717 49.21 29.2794 48.8625 30.0619 48.8625C30.9882 48.8625 31.6763 49.1866 31.763 50.0801L30.8141 50.3019C30.7742 49.8582 30.4501 49.6459 30.0775 49.6459C29.7378 49.6459 29.4691 49.8184 29.4691 50.1598C29.4691 50.5307 29.762 50.6737 30.347 50.8635C31.2335 51.1555 31.763 51.4718 31.763 52.3583C31.763 53.3392 30.9709 53.7188 30.016 53.7188C29.0983 53.7188 28.5047 53.3938 28.2975 52.5559L29.1754 52.2075ZM24.9471 51.1002H25.6906C26.1733 51.1002 26.4272 50.9104 26.4272 50.4364C26.4272 50.017 26.182 49.7718 25.6993 49.7718H24.9471V51.1002ZM26.5858 53.6237C26.4584 53.5041 26.403 53.3472 26.3562 53.1574L26.1733 52.4217C26.0719 51.978 25.8579 51.9 25.461 51.9H24.9471V53.6237H23.9896V48.965H25.7548C26.8068 48.965 27.409 49.3688 27.409 50.3567C27.409 51.0846 26.9654 51.472 26.3718 51.5196V51.5439C26.8068 51.6063 27.0356 51.7883 27.1551 52.2397L27.3909 53.1254C27.4463 53.3152 27.5104 53.4737 27.6534 53.6237H26.5858ZM22.7348 53.6236H19.6974V48.9649H22.7348V49.7959H20.655V50.8705H22.4895V51.6781H20.655V52.7934H22.7348V53.6236ZM16.3625 51.623C16.5765 52.2946 16.6406 52.8405 16.6406 52.8405H16.6709C16.6709 52.8405 16.7351 52.2868 16.9318 51.6308L17.7541 48.9652H18.7602L17.216 53.6239H16.0383L14.5028 48.9652H15.5331L16.3624 51.623H16.3625ZM13.5635 53.6239H12.606V48.9652H13.5635V53.6239ZM9.73208 51.354C9.99205 51.7336 10.1662 52.0655 10.1662 52.0655H10.1974C10.1974 52.0655 10.1662 51.6383 10.1662 51.0455V48.9649H11.1238V53.6236H10.2286L8.51195 51.2596C8.22078 50.8558 8.03793 50.4996 8.03793 50.4996H8.00764C8.00764 50.4996 8.05353 50.9181 8.05353 51.5672V53.6236H7.09597V48.9649H8.02234L9.73208 51.354ZM5.74855 48.9652V52.0727C5.74855 53.3145 4.86205 53.7183 3.87329 53.7183C2.87673 53.7183 1.99023 53.3145 1.99023 52.0727V48.9652H2.94693V51.8127C2.94693 52.5319 3.19217 52.9202 3.87329 52.9202C4.54401 52.9202 4.79099 52.5319 4.79099 51.8127V48.9652H5.74855Z" fill="#231F20"/>
<path d="M83.2965 59.634V62.0934H82.6569L82.5131 61.5474C82.293 61.9746 81.786 62.1887 81.2323 62.1887C80.0234 62.1887 79.1673 61.3975 79.1673 59.784C79.1673 58.2259 80.0295 57.3402 81.4151 57.3402C82.3328 57.3402 82.9568 57.7518 83.2566 58.5023L82.3389 58.946C82.1803 58.4312 81.8337 58.1782 81.3753 58.1782C80.7669 58.1782 80.1551 58.6219 80.1551 59.7918C80.1551 60.7017 80.5044 61.4053 81.3666 61.4053C81.9905 61.4053 82.3727 61.1133 82.3727 60.6375V60.4174H81.3354V59.634H83.2965ZM75.753 59.57H76.4965C76.9792 59.57 77.2331 59.3802 77.2331 58.9062C77.2331 58.4868 76.9878 58.2415 76.5051 58.2415H75.753V59.57ZM77.3916 62.0934C77.2643 61.9738 77.2088 61.817 77.162 61.6272L76.9792 60.8915C76.8778 60.4478 76.6637 60.3698 76.2668 60.3698H75.753V62.0934H74.7954V57.4348H76.5606C77.6126 57.4348 78.214 57.8386 78.214 58.8265C78.214 59.5544 77.7712 59.9417 77.1776 59.9894V60.0137C77.6126 60.0761 77.8414 60.258 77.961 60.7095L78.1967 61.5952C78.2522 61.7849 78.3163 61.9435 78.4593 62.0934H77.3916ZM73.4546 57.4349V60.5424C73.4546 61.7842 72.5681 62.1881 71.5793 62.1881C70.5827 62.1881 69.698 61.7842 69.698 60.5424V57.4349H70.6555V60.2825C70.6555 61.0017 70.9008 61.39 71.5793 61.39C72.2526 61.39 72.497 61.0017 72.497 60.2825V57.4349H73.4546ZM66.1493 61.2861H66.9387C67.3824 61.2861 67.645 61.1206 67.645 60.6847C67.645 60.3303 67.4223 60.1241 66.9318 60.1241H66.1493V61.2861ZM66.8044 59.4126C67.2082 59.4126 67.4708 59.2454 67.4708 58.8268C67.4708 58.4074 67.2082 58.241 66.7732 58.241H66.1493V59.4126H66.8044ZM67.5869 59.7202C68.2291 59.7913 68.6173 60.2029 68.6173 60.8121C68.6173 61.5868 68.1034 62.0938 66.963 62.0938H65.1917V57.4351H66.9786C67.9206 57.4351 68.4275 57.8537 68.4275 58.6128C68.4275 59.2064 68.0861 59.5781 67.5869 59.689V59.7202ZM63.705 62.0936H62.7474V57.4349H63.705V62.0936ZM61.493 62.0933H58.4557V57.4347H61.493V58.2657H59.4133V59.3403H61.2478V60.1479H59.4133V61.2632H61.493V62.0933ZM54.6707 59.57H55.4142C55.8969 59.57 56.1482 59.3802 56.1482 58.9062C56.1482 58.4868 55.9038 58.2415 55.4203 58.2415H54.6707V59.57ZM56.3077 62.0934C56.182 61.9738 56.1266 61.817 56.078 61.6272L55.8969 60.8915C55.7938 60.4478 55.5798 60.3698 55.1846 60.3698H54.6707V62.0934H53.7132V57.4348H55.4784C56.5304 57.4348 57.13 57.8386 57.13 58.8265C57.13 59.5544 56.6864 59.9417 56.0936 59.9894V60.0137C56.5304 60.0761 56.7574 60.258 56.8761 60.7095L57.1144 61.5952C57.1699 61.7849 57.234 61.9435 57.3753 62.0934H56.3077ZM49.6571 62.0933V57.4347H52.6V58.2657H50.6147V59.4832H52.3547V60.29H50.6147V62.0933H49.6571ZM44.3 62.0933V58.2657H43.0028V57.4347H46.5696V58.2657H45.2576V62.0933H44.3ZM41.5186 55.8524C41.8341 55.8524 42.0724 56.0508 42.0724 56.4061C42.0724 56.7467 41.8341 56.9521 41.5186 56.9521C41.2162 56.9521 40.9718 56.7467 40.9718 56.4061C40.9718 56.0508 41.2162 55.8524 41.5186 55.8524ZM40.0472 60.226H41.3132L41.0663 59.5301C40.7976 58.7719 40.7023 58.2337 40.7023 58.2337H40.672C40.672 58.2337 40.5524 58.7797 40.2925 59.5223L40.0472 60.226H40.0472ZM39.8487 55.8446C40.1668 55.8446 40.4111 56.0431 40.4111 56.3983C40.4111 56.7467 40.1668 56.9521 39.8487 56.9521C39.5558 56.9521 39.3045 56.7467 39.3045 56.3983C39.3045 56.0431 39.5558 55.8446 39.8487 55.8446ZM41.5888 61.018H39.7785L39.4146 62.0934H38.4085L40.1026 57.4348H41.3046L42.9961 62.0934H41.9684L41.5888 61.018ZM36.1411 62.0933V58.2657H34.8439V57.4347H38.4107V58.2657H37.0987V62.0933H36.1411ZM33.9045 62.0936H32.9469V57.4349H33.9045V62.0936ZM29.1754 60.6773C29.2724 61.1678 29.6191 61.4529 30.0861 61.4529C30.49 61.4529 30.7742 61.2787 30.7742 60.9234C30.7742 60.5898 30.5914 60.4251 29.9362 60.2033C28.9787 59.8939 28.4717 59.523 28.4717 58.7076C28.4717 57.6798 29.2794 57.3323 30.0619 57.3323C30.9882 57.3323 31.6763 57.6564 31.763 58.5499L30.8141 58.7717C30.7742 58.328 30.4501 58.1157 30.0775 58.1157C29.7378 58.1157 29.4691 58.2882 29.4691 58.6296C29.4691 59.0005 29.762 59.1435 30.347 59.3332C31.2335 59.6253 31.763 59.9416 31.763 60.8281C31.763 61.809 30.9709 62.1886 30.016 62.1886C29.0983 62.1886 28.5047 61.8636 28.2975 61.0257L29.1754 60.6773ZM24.9471 59.57H25.6906C26.1733 59.57 26.4272 59.3802 26.4272 58.9062C26.4272 58.4868 26.182 58.2415 25.6993 58.2415H24.9471V59.57ZM26.5858 62.0934C26.4584 61.9738 26.403 61.817 26.3562 61.6272L26.1733 60.8915C26.0719 60.4478 25.8579 60.3698 25.461 60.3698H24.9471V62.0934H23.9896V57.4348H25.7548C26.8068 57.4348 27.409 57.8386 27.409 58.8265C27.409 59.5544 26.9654 59.9417 26.3718 59.9894V60.0137C26.8068 60.0761 27.0356 60.258 27.1551 60.7095L27.3909 61.5952C27.4463 61.7849 27.5104 61.9435 27.6534 62.0934H26.5858ZM22.7348 62.0933H19.6974V57.4347H22.7348V58.2657H20.655V59.3403H22.4895V60.1479H20.655V61.2632H22.7348V62.0933ZM16.3625 60.0928C16.5765 60.7644 16.6406 61.3103 16.6406 61.3103H16.6709C16.6709 61.3103 16.7351 60.7566 16.9318 60.1006L17.7541 57.435H18.7602L17.216 62.0937H16.0383L14.5028 57.435H15.5331L16.3624 60.0928H16.3625ZM13.5635 62.0936H12.606V57.4349H13.5635V62.0936ZM9.73208 59.8238C9.99205 60.2034 10.1662 60.5353 10.1662 60.5353H10.1974C10.1974 60.5353 10.1662 60.108 10.1662 59.5153V57.4347H11.1238V62.0933H10.2286L8.51195 59.7293C8.22078 59.3255 8.03793 58.9694 8.03793 58.9694H8.00764C8.00764 58.9694 8.05353 59.3879 8.05353 60.037V62.0933H7.09597V57.4347H8.02234L9.73208 59.8238ZM5.74855 57.4349V60.5424C5.74855 61.7842 4.86205 62.1881 3.87329 62.1881C2.87673 62.1881 1.99023 61.7842 1.99023 60.5424V57.4349H2.94693V60.2825C2.94693 61.0017 3.19217 61.39 3.87329 61.39C4.54401 61.39 4.79099 61.0017 4.79099 60.2825V57.4349H5.74855Z" fill="#231F20"/>
<path d="M19.453 20.5857H20.4808C21.1342 20.5857 21.5709 20.3024 21.5709 19.6013C21.5709 18.999 21.1775 18.6567 20.5224 18.6567H19.453V20.5857ZM21.9739 26.2609C21.6082 25.9073 21.4938 25.5876 21.3387 24.9671L21.1472 24.1517C21.0129 23.5303 20.7234 23.3353 20.1654 23.3353H19.453V26.2609H15.5847V15.8127H21.0701C23.6706 15.8127 25.6135 16.6836 25.6135 19.1845C25.6135 20.9219 24.6871 21.6863 23.3223 21.8968V21.9688C24.3232 22.1109 24.824 22.5719 25.1126 23.513L25.5346 24.8943C25.7287 25.4992 25.883 25.8718 26.3059 26.2609H21.9739ZM1.82971 40.2258H12.2407V29.8166H1.82971V40.2258ZM2.1117 26.2611V15.8137H12.1015V18.9351H6.05805V20.3554H11.1509V23.3165H6.05805V26.2611H2.1117ZM33.9994 12.259H30.0513V1.81166H33.9994V12.259ZM21.3213 4.87992C22.0709 5.87215 22.5146 6.58273 22.5146 6.58273H22.5917C22.5917 6.58273 22.5518 5.73176 22.5518 4.73781V1.8114H26.5008V12.2596H23.2251L20.8005 9.19111C20.0682 8.25001 19.5699 7.50563 19.5699 7.50563H19.4902C19.4902 7.50563 19.5301 8.32107 19.5301 9.65126V12.2596H15.5846V1.8114H19.0491L21.3213 4.87992ZM1.81836 8.215V1.81192H5.76472V7.84238C5.76472 8.67602 5.95623 9.50879 7.03511 9.50879C8.11572 9.50879 8.3055 8.67602 8.3055 7.84238V1.81192H12.251V8.215C12.251 11.4438 10.0196 12.4699 7.03511 12.4699C4.05238 12.4699 1.81836 11.4438 1.81836 8.215Z" fill="#231F20"/>
</svg>
