<svg width="24" height="24" viewBox="0 0 24 24" fill="none" xmlns="http://www.w3.org/2000/svg">
<g clip-path="url(#clip0_4572_12045)">
<path d="M16.5006 3.59995C16.6321 3.25469 16.865 2.95733 17.1687 2.747C17.4724 2.53666 17.8327 2.42321 18.2022 2.42158C18.7943 2.42158 19.1943 2.71971 19.1943 3.16808C19.1943 3.51982 19.0394 3.82915 18.287 4.23451L17.8663 4.44249C17.0837 4.78388 16.4128 5.33838 15.9302 6.04272C15.5437 6.74493 15.3591 7.54046 15.397 8.34114V8.63986H20.89V7.04081H17.3166C17.4126 6.56592 17.7114 6.2672 18.4207 5.90485L19.0765 5.57373C20.3515 4.91266 20.9006 4.18737 20.9006 3.13096C20.9121 2.80301 20.8426 2.47729 20.6985 2.1825C20.5543 1.88771 20.3399 1.63292 20.074 1.44058C19.5079 1.03492 18.8233 0.828525 18.1273 0.85375C17.5425 0.847373 16.9683 1.01047 16.4741 1.32333C16.0003 1.60794 15.6202 2.02493 15.3805 2.52292V2.55473L16.49 3.66417L16.5006 3.59995ZM20.3833 10.2666L20.3727 10.2401H14.4101L11.4023 15.4662H17.359L20.3403 20.6345L23.3487 15.4132L20.3833 10.2666Z" fill="#ABA9B8"/>
<path d="M16.4053 17.1359C15.5764 17.8435 14.5888 18.3404 13.5266 18.5844C12.4644 18.8284 11.359 18.8122 10.3044 18.5373C9.24981 18.2624 8.2772 17.7368 7.46932 17.0053C6.66143 16.2737 6.04218 15.3579 5.66421 14.3357C5.28625 13.3135 5.16076 12.2151 5.29843 11.134C5.43609 10.0528 5.83283 9.02094 6.45491 8.12605C7.07698 7.23117 7.90598 6.49976 8.87141 5.99404C9.83683 5.48832 10.9101 5.22325 12 5.22138H12.0324L14.4268 0.245102H14.3632C13.5856 0.0847259 12.7939 0.00261567 12 0C8.81739 0 5.76514 1.26428 3.51471 3.51471C1.26428 5.76514 0 8.81739 0 12C0 15.1826 1.26428 18.2348 3.51471 20.4852C5.76514 22.7357 8.81739 24 12 24C14.5358 24.007 17.0081 23.1987 19.0502 21.6962H19.0873L16.4531 17.0935L16.4047 17.1359H16.4053Z" fill="#ABA9B8"/>
</g>
<defs>
<clipPath id="clip0_4572_12045">
<rect width="24" height="24" fill="white"/>
</clipPath>
</defs>
</svg>
