<svg width="99" height="24" viewBox="0 0 99 24" fill="none" xmlns="http://www.w3.org/2000/svg">
<path fill-rule="evenodd" clip-rule="evenodd" d="M95.9697 3.36888H37.1084V2.01501H95.9697C96.6382 2.03448 97.2718 2.31832 97.7313 2.80429C98.1909 3.29026 98.4389 3.93866 98.421 4.60725V15.6342C98.4381 16.3025 98.1898 16.9505 97.7304 17.4362C97.271 17.922 96.638 18.206 95.9697 18.2261H37.1084V16.8723H95.9697C96.2797 16.8528 96.5696 16.7119 96.7765 16.4801C96.9834 16.2484 97.0906 15.9444 97.0749 15.6342V4.60725C97.0915 4.29673 96.9846 3.99224 96.7776 3.76024C96.5705 3.52824 96.2801 3.38755 95.9697 3.36888Z" fill="#ABA9B8"/>
<path d="M43.8371 11.2429L46.1286 14.8775H43.3902L41.1586 11.1511L40.7099 14.8775H38.3467L39.4924 5.50842H42.527C43.6463 5.50842 44.4749 5.74608 45.013 6.2214C45.551 6.69671 45.8207 7.42783 45.822 8.41474C45.822 9.81888 45.1604 10.7616 43.8371 11.2429ZM41.6221 7.38421L41.3231 9.79263H41.7448C42.8415 9.79263 43.39 9.35389 43.3902 8.4764C43.408 8.32131 43.3904 8.16419 43.3385 8.01694C43.2867 7.86969 43.202 7.73617 43.0909 7.6265C42.7776 7.4338 42.4099 7.34872 42.0438 7.38421H41.6221Z" fill="#ABA9B8"/>
<path d="M53.3753 5.50842L53.127 7.56629H50.377L50.1778 9.17287H52.8386L52.5845 11.2368H49.9312L49.7381 12.8089H52.5903L52.3318 14.8775H47.125L48.2707 5.50842H53.3753Z" fill="#ABA9B8"/>
<path d="M63.4735 5.50842L58.4795 14.8775H56.4821L54.0444 5.50842H56.5678L57.6281 9.78077C57.697 10.0589 57.7537 10.3389 57.8001 10.6171C57.8464 10.8952 57.8837 11.1888 57.9124 11.491C57.988 11.2594 58.0702 11.0382 58.159 10.8275C58.2488 10.6139 58.3431 10.4092 58.4433 10.2106L60.8352 5.50842H63.4735Z" fill="#ABA9B8"/>
<path d="M66.8105 5.50842L65.6587 14.8775H63.3047L64.4504 5.50842H66.8105Z" fill="#ABA9B8"/>
<path d="M73.8735 5.50842L73.6266 7.56629H70.8745L70.6757 9.17287H73.3365L73.0823 11.2368H70.4287L70.2357 12.8089H73.0893L72.8366 14.8775H67.624L68.7698 5.50842H73.8735Z" fill="#ABA9B8"/>
<path d="M88.6009 5.50842L84.5897 14.8775H81.9407L81.3067 11.1393C81.2393 10.7482 81.1869 10.3496 81.1571 9.9449C81.1273 9.54021 81.1061 9.12945 81.1061 8.7129C80.9855 9.13012 80.8609 9.5213 80.7324 9.88642C80.6039 10.2515 80.4712 10.6062 80.3344 10.9505L78.731 14.8769H76.2094L74.5449 5.50842H76.9215L77.5196 9.02263C77.6808 10.0419 77.7897 11.0688 77.8458 12.0992C78.0195 11.4843 78.1546 11.0511 78.2511 10.7994L78.6068 9.90871L80.3749 5.50871H82.6062L83.2943 9.5324C83.4255 10.3833 83.5125 11.2404 83.5548 12.1003C83.679 11.6272 83.8288 11.1611 84.0035 10.7042L84.2877 10.0063L86.0538 5.50842H88.6009Z" fill="#ABA9B8"/>
<path d="M95.11 6.18239L94.0791 7.98755C93.6259 7.58127 93.0512 7.33594 92.4442 7.28963C92.1735 7.27378 91.9056 7.35078 91.6846 7.50789C91.5944 7.57666 91.522 7.66598 91.4733 7.76842C91.4247 7.87136 91.4012 7.98435 91.4047 8.09813C91.4021 8.20361 91.4217 8.30845 91.4622 8.40589C91.5027 8.50332 91.5632 8.59117 91.6398 8.66376C91.7495 8.76213 91.8699 8.84787 91.9987 8.91937C92.1883 9.02958 92.3835 9.12997 92.5834 9.22013C93.1982 9.47081 93.7487 9.85666 94.1941 10.3491C94.5117 10.7851 94.6735 11.3153 94.6535 11.8543C94.6659 12.2887 94.5826 12.7206 94.4094 13.1191C94.2362 13.5177 93.9774 13.8733 93.6513 14.1606C92.9492 14.7797 92.0348 15.1031 91.0996 15.0632C90.5799 15.0694 90.0624 14.9953 89.5654 14.8434C89.3091 14.7557 89.0593 14.6502 88.8177 14.5276C88.5525 14.3912 88.2614 14.2272 87.9443 14.0355L89.0061 12.2304C89.7539 12.7398 90.4115 12.9951 90.9789 12.996C91.2989 13.0135 91.6154 12.9217 91.8763 12.7355C91.9845 12.659 92.0724 12.5572 92.1324 12.4389C92.1923 12.3206 92.2224 12.1895 92.2202 12.057C92.2229 11.9582 92.2045 11.8599 92.1661 11.7688C92.1277 11.6778 92.0702 11.596 91.9975 11.529C91.735 11.3103 91.4448 11.1272 91.1343 10.9845C90.4907 10.7016 89.9104 10.2924 89.4279 9.78113C89.1062 9.34335 88.9474 8.80694 88.9792 8.26458C88.972 7.86309 89.0555 7.46515 89.2236 7.10046C89.3917 6.73577 89.6399 6.41373 89.9498 6.15837C90.6375 5.58671 91.512 5.28893 92.4057 5.32208C93.3727 5.33284 94.3145 5.63244 95.11 6.18239Z" fill="#ABA9B8"/>
<path d="M34.21 3.49695H1.53418V16.0511H34.21V3.49695Z" fill="#ABA9B8"/>
<path d="M35.6982 16.5023V3.76926C35.6982 3.76926 35.6982 2 33.9393 2H1.75884C1.75884 2 0 2 0 3.76926V16.5023C0 16.5023 0 18.2713 1.75884 18.2713H28.2237V24L32.5612 18.2713H33.9417C33.9417 18.2713 35.7005 18.2713 35.7005 16.5021" fill="#ABA9B8"/>
<path d="M10.6087 10.0019C10.6062 10.7582 10.3061 11.4832 9.77328 12.0199C9.37577 12.4183 8.86879 12.6896 8.31676 12.7993C7.76472 12.9089 7.19254 12.852 6.67294 12.6357C6.15333 12.4194 5.70974 12.0536 5.39854 11.5846C5.08734 11.1156 4.92257 10.5648 4.92517 10.0019C4.91994 9.62629 4.9911 9.25348 5.13431 8.90616C5.27752 8.55883 5.4898 8.24422 5.75828 7.98142C6.02045 7.71426 6.33324 7.50204 6.67838 7.35717C7.02352 7.2123 7.39407 7.13768 7.76838 7.13768C8.14269 7.13768 8.51325 7.2123 8.85838 7.35717C9.20352 7.50204 9.51632 7.71426 9.77849 7.98142C10.0481 8.24357 10.2614 8.55797 10.4054 8.90538C10.5494 9.25279 10.6211 9.62591 10.6159 10.0019H10.6087ZM11.1098 13.3732C11.5595 12.9358 11.9152 12.4112 12.1549 11.8315C12.3946 11.2518 12.5134 10.6292 12.5039 10.0019C12.5128 9.37542 12.3938 8.75366 12.154 8.17474C11.9143 7.59582 11.559 7.07191 11.1098 6.63507C10.6776 6.18402 10.1573 5.82666 9.5812 5.58519C9.00509 5.34372 8.38547 5.2233 7.76085 5.23142C7.13549 5.22253 6.51499 5.34258 5.93806 5.58408C5.36114 5.82558 4.84015 6.18335 4.40759 6.63507C3.95909 7.07228 3.60443 7.59633 3.36528 8.17522C3.12614 8.75411 3.00751 9.37567 3.01667 10.0019C3.00692 10.6289 3.12525 11.2513 3.36442 11.831C3.60359 12.4107 3.95856 12.9354 4.40759 13.3732C4.84053 13.8242 5.36166 14.1813 5.93855 14.4222C6.51544 14.6631 7.13574 14.7828 7.76085 14.7736C8.38517 14.782 9.00454 14.6619 9.58057 14.421C10.1566 14.1801 10.677 13.8235 11.1095 13.3732H11.1098ZM21.4298 14.6926H23.395V5.30957L18.6089 11.2415L13.8288 5.30957V14.6926H15.794V10.745L18.6132 14.5345L21.4298 10.745V14.6926ZM28.4594 9.8795L32.6052 5.31073H24.5289V7.19231H28.356L25.7343 9.88442L29.9606 14.6984H32.6816L28.4594 9.8795Z" fill="white"/>
</svg>
