<svg xmlns="http://www.w3.org/2000/svg" width="32" height="32" fill="none" viewBox="0 0 32 32"><path fill="#7363e0" d="M24.333 2.667a1.666 1.666 0 1 1 0 3.333v.572c0 2.21-.88 4.329-2.442 5.891L18.359 16l3.532 3.536a8.34 8.34 0 0 1 2.442 5.89V26c.922 0 1.667.745 1.667 1.666 0 .922-.745 1.667-1.667 1.667H7.667a1.666 1.666 0 1 1 0-3.333v-.573c0-2.208.878-4.328 2.44-5.89L13.641 16l-3.534-3.537a8.33 8.33 0 0 1-2.44-5.891V6a1.667 1.667 0 0 1 0-3.333zm-11.87 7.442L16 13.64l3.537-3.53A5 5 0 0 0 21 6.571V6H11v.572c0 1.324.526 2.6 1.463 3.537"/></svg>