<svg width="32" height="32" viewBox="0 0 32 32" fill="none" xmlns="http://www.w3.org/2000/svg">
<path d="M25.5232 2.6665H6.47554C4.37137 2.6665 2.66602 4.37246 2.66602 6.47603V25.5236C2.66602 27.6272 4.37137 29.3332 6.47554 29.3332H25.5232C27.6273 29.3332 29.3327 27.6272 29.3327 25.5236V6.47603C29.3327 4.37246 27.6244 2.6665 25.5232 2.6665ZM23.1422 19.3332C23.1422 20.3861 22.2904 21.2379 21.2374 21.2379C20.1845 21.2379 19.3327 20.3861 19.3327 19.3332V15.3629L12.1065 22.5891C11.7374 22.9582 11.2493 23.1427 10.7613 23.1427C10.2732 23.1427 9.78625 22.9567 9.41483 22.5847C8.67078 21.8406 8.67078 20.6353 9.41483 19.8912L16.6422 12.6665H12.666C11.613 12.6665 10.7613 11.8147 10.7613 10.7617C10.7613 9.70877 11.613 8.85698 12.666 8.85698H21.2374C22.2904 8.85698 23.1422 9.70877 23.1422 10.7617V19.3332Z" fill="#7363E0"/>
</svg>
