<svg width="32" height="32" viewBox="0 0 32 32" fill="none" xmlns="http://www.w3.org/2000/svg">
<path d="M26 9.33317H19.3333V2.6665L26 9.33317ZM19.3333 10.9998H26V26.8332C26 28.2139 24.8807 29.3332 23.5 29.3332H8.5C7.11927 29.3332 6 28.2134 6 26.8332V5.1665C6 3.78577 7.11927 2.6665 8.5 2.6665H17.6667L17.6669 9.33317C17.6667 10.255 18.4115 10.9998 19.3333 10.9998ZM18.8021 16.4373L14.6807 21.2467L13.1344 19.7004C12.6461 19.2121 11.8552 19.2121 11.3667 19.7004C10.8781 20.1886 10.8784 20.9795 11.3667 21.4681L13.8667 23.9681C14.101 24.2024 14.4198 24.3343 14.7505 24.3343C14.7668 24.3343 14.7831 24.3343 14.7977 24.3327C14.9698 24.3263 15.1388 24.2844 15.2939 24.2096C15.4491 24.1348 15.5871 24.0287 15.6993 23.8981L20.6993 18.0647C21.1485 17.5408 21.0883 16.7512 20.5642 16.3022C20.0417 15.854 19.25 15.9113 18.8021 16.4373Z" fill="#7363E0"/>
</svg>
