<svg width="32" height="32" viewBox="0 0 32 32" fill="none" xmlns="http://www.w3.org/2000/svg">
<path d="M10.5833 18.4998H10.1667V15.9998H10.5833C11.276 15.9998 11.8333 16.5571 11.8333 17.2498C11.8333 17.9425 11.276 18.4998 10.5833 18.4998ZM16 15.9998H16.4167C16.875 15.9998 17.25 16.3748 17.25 16.8332V20.1665C17.25 20.6248 16.875 20.9998 16.4167 20.9998H16V15.9998ZM17.6667 2.6665V9.33317C17.6667 10.255 18.4115 10.9998 19.3333 10.9998H26V25.9998C26 27.8384 24.5052 29.3332 22.6667 29.3332H9.33333C7.49219 29.3332 6 27.8384 6 25.9998V5.99984C6 4.15869 7.49219 2.6665 9.33333 2.6665H17.6667ZM9.33333 14.3332C8.87292 14.3332 8.5 14.7082 8.5 15.1665V21.8332C8.5 22.2915 8.87292 22.6665 9.33333 22.6665C9.79375 22.6665 10.1667 22.2915 10.1667 21.8332V20.1665H10.5833C12.1927 20.1665 13.5 18.8592 13.5 17.2498C13.5 15.6405 12.1927 14.3332 10.5833 14.3332H9.33333ZM14.3333 21.8332C14.3333 22.2915 14.7083 22.6665 15.1667 22.6665H16.4167C17.7969 22.6665 18.9167 21.5467 18.9167 20.1665V16.8332C18.9167 15.453 17.7969 14.3332 16.4167 14.3332H15.1667C14.7083 14.3332 14.3333 14.7082 14.3333 15.1665V21.8332ZM21 14.3332C20.5417 14.3332 20.1667 14.7082 20.1667 15.1665V21.8332C20.1667 22.2915 20.5417 22.6665 21 22.6665C21.4583 22.6665 21.8333 22.2915 21.8333 21.8332V19.3332H23.5C23.9583 19.3332 24.3333 18.9582 24.3333 18.4998C24.3333 18.0415 23.9583 17.6665 23.5 17.6665H21.8333V15.9998H23.5C23.9583 15.9998 24.3333 15.6248 24.3333 15.1665C24.3333 14.7082 23.9583 14.3332 23.5 14.3332H21ZM19.3333 2.6665L26 9.33317H19.3333V2.6665Z" fill="#7363E0"/>
</svg>
