<svg width="32" height="32" viewBox="0 0 32 32" fill="none" xmlns="http://www.w3.org/2000/svg">
<path d="M20.9994 9.33317V2.6665H11.8327C10.4525 2.6665 9.3327 3.78577 9.3327 5.1665V9.59046C9.42296 9.57031 9.53088 9.53775 9.68062 9.49708L9.87828 9.44338C10.1482 9.37015 10.4267 9.333 10.7064 9.33291C11.5517 9.33291 12.3783 9.68062 12.9746 10.2871L13.1174 10.4325C13.2305 10.5481 13.3095 10.634 13.3793 10.6983C13.4673 10.7272 13.5777 10.7538 13.7284 10.7949L13.9289 10.8498C15.0331 11.1499 15.895 12.0233 16.1758 13.1191L16.2343 13.3406C16.2755 13.4972 16.3017 13.6104 16.3309 13.7005C16.3955 13.7739 16.483 13.8569 16.6022 13.9778L16.7278 14.1051C17.5341 14.9113 17.8502 16.1098 17.5549 17.2238L17.5105 17.3892C17.464 17.5625 17.4274 17.6832 17.4072 17.7829C17.4265 17.8748 17.4577 17.9842 17.4994 18.1405L17.5558 18.3553C17.8533 19.4642 17.5359 20.6548 16.7371 21.4532L16.5873 21.605C16.4752 21.7185 16.3918 21.7979 16.3296 21.8679C16.3004 21.9588 16.2741 22.0731 16.2327 22.2312L16.1815 22.4254C15.9342 23.403 15.243 24.1993 14.3315 24.5853L14.2858 29.3332H26.8327C28.2134 29.3332 29.3327 28.2139 29.3327 26.8332V10.9998H22.7129C21.7442 10.9998 20.9994 10.255 20.9994 9.33317ZM22.666 2.6665V9.33317H29.3327L22.666 2.6665ZM14.5671 22.0155C14.6387 21.7453 14.687 21.5512 14.7321 21.3998C14.8672 20.9453 14.9691 20.8743 15.5498 20.2837C15.9405 19.8931 16.0905 19.3202 15.947 18.7863C15.667 17.7123 15.6605 17.8618 15.947 16.7873C16.0902 16.2467 15.9405 15.6738 15.5498 15.2832C14.9681 14.6925 14.8692 14.6196 14.7337 14.1665C14.6869 14.0155 14.64 13.8228 14.5671 13.5519C14.5306 13.4165 14.4837 13.2915 14.416 13.1769C14.3172 13.0024 14.1849 12.849 14.0267 12.7257C13.8685 12.6023 13.6876 12.5114 13.4942 12.4582C12.8275 12.2759 12.6296 12.2394 12.3848 12.0415C12.291 11.9634 12.1869 11.8592 11.9942 11.7134C11.9681 11.6405 11.8379 11.5519 11.7858 11.4582C11.6556 11.3228 11.5046 11.229 11.3431 11.1092C11.3015 11.1353 11.265 11.1196 11.2233 11.104C11.0619 11.0415 10.8848 10.9998 10.7077 10.9998C10.7086 10.9998 10.7068 10.9998 10.7077 10.9998C10.5775 10.9998 10.4473 11.0155 10.3171 11.0519C10.3298 11.0485 10.3421 11.0498 10.3548 11.047C10.3431 11.005 10.3275 11.0467 10.3171 11.0519C9.78583 11.1978 9.55666 11.2655 9.28583 11.2655C9.0588 11.2655 8.83286 11.1938 8.30562 11.0506C8.22333 11.0155 8.08791 10.9998 7.9577 10.9998C7.95864 10.9998 7.95677 10.9998 7.9577 10.9998C7.77958 10.9998 7.60666 11.0415 7.44104 11.104C7.39989 11.1196 7.36187 11.1353 7.32229 11.1092C7.16135 11.229 7.00823 11.3228 6.87906 11.4582C6.09781 12.2446 6.22802 12.1665 5.17333 12.4582C4.64625 12.604 4.23375 13.0207 4.09729 13.5519C3.99 13.9582 3.93583 14.1925 3.86656 14.3644C3.75145 14.6613 3.59833 14.7915 3.11427 15.2863C3.01661 15.38 2.93625 15.4894 2.86947 15.6092C2.66927 15.9582 2.61197 16.38 2.71937 16.7863C3.00583 17.8603 2.99932 17.7108 2.71937 18.7853C2.61303 19.1811 2.66696 19.6029 2.86947 19.9592C2.93619 20.0762 3.01661 20.1853 3.11427 20.2829C3.69031 20.8735 3.79604 20.948 3.93302 21.4017C3.97859 21.5528 4.02573 21.7461 4.09734 22.0147C4.23406 22.5553 4.6463 22.972 5.1739 23.1147C5.54828 23.2156 5.69786 23.2547 5.78224 23.2815C5.86661 23.3083 5.88656 23.323 6.00036 23.3751V29.3332L9.33317 27.6665L12.666 29.3332V23.3748C12.8873 23.2707 12.7442 23.3162 13.4925 23.1144C13.888 23.007 14.217 22.7458 14.4149 22.3936C14.4837 22.2759 14.5306 22.1509 14.5671 22.0155ZM9.3327 20.9998C9.10239 20.9998 8.87744 20.9767 8.66031 20.9323C8.23386 20.8451 7.82875 20.6747 7.46812 20.431C7.11339 20.1912 6.80788 19.8857 6.56812 19.531C6.20979 18.9998 6.00041 18.3592 6.00041 17.6665C6.00041 16.9738 6.20984 16.3342 6.56916 15.8019C6.80881 15.4471 7.11434 15.1416 7.46916 14.9019C7.82977 14.6581 8.23488 14.4878 8.66135 14.4006C8.87958 14.354 9.10354 14.3332 9.3327 14.3332C11.1749 14.3332 12.6655 15.8238 12.6655 17.6665C12.6655 19.5092 11.1765 20.9998 9.3327 20.9998Z" fill="#7363E0"/>
</svg>
