<svg width="32" height="32" viewBox="0 0 32 32" fill="none" xmlns="http://www.w3.org/2000/svg">
<path d="M1.33398 6.22215C1.33398 4.42192 2.79301 2.96289 4.59324 2.96289H12.7414V9.48141C12.7414 10.3828 13.4696 11.111 14.371 11.111H20.8895V13.5046L16.1636 15.399C15.0789 15.8319 14.371 16.8809 14.371 18.0472C14.371 20.9245 15.3335 25.5842 19.1682 28.6499C18.7099 28.8995 18.1854 29.037 17.6303 29.037H4.59324C2.79301 29.037 1.33398 27.5754 1.33398 25.7777V6.22215ZM14.371 9.48141V2.96289L20.8895 9.48141H14.371ZM22.8807 14.4569C23.171 14.3397 23.4969 14.3397 23.7872 14.4569L29.8983 16.9013C30.3618 17.0897 30.6673 17.5379 30.6673 18.037C30.6673 21.2606 29.3483 26.6333 23.8025 28.9453C23.502 29.0675 23.1659 29.0675 22.8655 28.9453C17.3196 26.6333 16.0007 21.2606 16.0007 18.037C16.0007 17.5379 16.2604 17.0897 16.7696 16.9013L22.8807 14.4569ZM23.334 16.9064V26.4754C26.8071 24.7948 27.9937 21.4337 28.1923 18.8059L23.334 16.9064Z" fill="#7363E0"/>
</svg>
