<svg width="32" height="32" viewBox="0 0 32 32" fill="none" xmlns="http://www.w3.org/2000/svg">
<path d="M10.5879 5.07101C11.0983 5.53298 11.14 6.32309 10.6764 6.83663L6.92852 11.0054C6.69883 11.2554 6.37487 11.4064 6.03216 11.37C5.68945 11.4273 5.3582 11.2918 5.11549 11.0054L3.03211 8.92205C2.54398 8.47934 2.54398 7.68767 3.03211 7.19965C3.52018 6.71163 4.31185 6.71163 4.79987 7.19965L5.95143 8.34913L8.82227 5.16371C9.2806 4.65069 10.0723 4.60903 10.5879 5.07101ZM10.5879 13.4064C11.0983 13.8648 11.14 14.6564 10.6764 15.172L6.92852 19.3387C6.69883 19.5887 6.37487 19.7398 6.03216 19.7033C5.68945 19.7606 5.3582 19.6252 5.11549 19.3387L3.03211 17.2554C2.54398 16.8127 2.54398 16.021 3.03211 15.5314C3.52018 15.047 4.31185 15.047 4.79987 15.5314L5.95143 16.6825L8.82227 13.495C9.2806 12.9845 10.0723 12.9429 10.5879 13.4064ZM14.3327 8.08351C14.3327 7.16319 15.0775 6.41684 15.9993 6.41684H27.666C28.5879 6.41684 29.3327 7.16319 29.3327 8.08351C29.3327 9.00538 28.5879 9.75017 27.666 9.75017H15.9993C15.0775 9.75017 14.3327 9.00538 14.3327 8.08351ZM14.3327 16.4168C14.3327 15.495 15.0775 14.7502 15.9993 14.7502H27.666C28.5879 14.7502 29.3327 15.495 29.3327 16.4168C29.3327 17.3387 28.5879 18.0835 27.666 18.0835H15.9993C15.0775 18.0835 14.3327 17.3387 14.3327 16.4168ZM10.9993 24.7502C10.9993 23.8283 11.7441 23.0835 12.666 23.0835H27.666C28.5879 23.0835 29.3327 23.8283 29.3327 24.7502C29.3327 25.672 28.5879 26.4168 27.666 26.4168H12.666C11.7441 26.4168 10.9993 25.672 10.9993 24.7502ZM2.66602 24.7502C2.66602 23.37 3.78529 22.2502 5.16602 22.2502C6.54674 22.2502 7.66602 23.37 7.66602 24.7502C7.66602 26.1304 6.54674 27.2502 5.16602 27.2502C3.78529 27.2502 2.66602 26.1304 2.66602 24.7502Z" fill="#7363E0"/>
</svg>
