<svg width="32" height="32" viewBox="0 0 32 32" fill="none" xmlns="http://www.w3.org/2000/svg">
<path d="M1.33398 6.22215C1.33398 4.42192 2.79301 2.96289 4.59324 2.96289H12.7414V9.48141C12.7414 10.3828 13.4696 11.111 14.371 11.111H20.8895V13.0768C17.1261 14.1411 14.371 17.599 14.371 21.7036C14.371 24.7134 15.853 27.3717 18.1243 29.0013C17.9664 29.0217 17.7983 29.037 17.6303 29.037H4.59324C2.79301 29.037 1.33398 27.5754 1.33398 25.7777V6.22215ZM14.371 9.48141V2.96289L20.8895 9.48141H14.371ZM16.0007 21.7036C16.0007 17.655 19.2854 14.3703 23.334 14.3703C27.3826 14.3703 30.6673 17.655 30.6673 21.7036C30.6673 25.7522 27.3826 29.037 23.334 29.037C19.2854 29.037 16.0007 25.7522 16.0007 21.7036ZM23.334 26.5925C24.0113 26.5925 24.5562 26.0476 24.5562 25.3703C24.5562 24.693 24.0113 24.1481 23.334 24.1481C22.6567 24.1481 22.1118 24.693 22.1118 25.3703C22.1118 26.0476 22.6567 26.5925 23.334 26.5925ZM22.4733 17.6296V21.7036C22.4733 22.1518 22.8858 22.5184 23.2882 22.5184C23.7821 22.5184 24.103 22.1518 24.103 21.7036V17.6296C24.103 17.1814 23.7821 16.8147 23.2882 16.8147C22.8858 16.8147 22.4733 17.1814 22.4733 17.6296Z" fill="#7363E0"/>
</svg>
