<svg width="32" height="32" viewBox="0 0 32 32" fill="none" xmlns="http://www.w3.org/2000/svg">
<path d="M15.9993 29.3334C8.63477 29.3334 2.66602 23.3647 2.66602 16.0001C2.66602 8.6355 8.63477 2.66675 15.9993 2.66675C23.3639 2.66675 29.3327 8.6355 29.3327 16.0001C29.3327 23.3647 23.3639 29.3334 15.9993 29.3334ZM14.7493 16.0001C14.7493 16.4167 14.9577 16.8074 15.3066 16.9949L20.3066 20.3282C20.8796 20.7553 21.6556 20.599 21.9941 20.0261C22.4212 19.4532 22.265 18.6772 21.6921 18.2917L17.2493 15.3334V8.91675C17.2493 8.22404 16.6921 7.66675 15.9525 7.66675C15.3066 7.66675 14.7025 8.22404 14.7025 8.91675L14.7493 16.0001Z" fill="#7363E0"/>
</svg>
