<svg width="32" height="32" viewBox="0 0 32 32" fill="none" xmlns="http://www.w3.org/2000/svg">
<path d="M11.8 15.9998C14.8931 15.9998 17.4 13.4929 17.4 10.3998C17.4 7.30712 14.8931 4.7998 11.8 4.7998C8.70687 4.7998 6.2 7.30712 6.2 10.3998C6.2 13.4929 8.70687 15.9998 11.8 15.9998Z" fill="#7363E0"/>
<path d="M9.7 18.0998L11.1481 20.5148L9.69125 25.9354L7.96312 18.8829C4.58519 19.4079 2 22.3304 2 25.8567C2 26.596 2.60156 27.1998 3.344 27.1998H20.2569C20.9962 27.1998 21.6 26.596 21.6 25.8567C21.6 22.3304 19.0144 19.4079 15.6369 18.8829L13.9087 25.9354L12.4519 20.5148L13.9 18.0998H9.7Z" fill="#7363E0"/>
<path d="M19.7297 18.7998H22.9606C26.8675 18.7998 30 21.9323 30 25.7604C30 26.5698 29.3744 27.1998 28.6 27.1998H22.5625C22.8338 26.7579 23 26.2417 23 25.6817C23 22.9167 21.74 20.4492 19.7297 18.7998Z" fill="#7363E0"/>
<path d="M25.8 11.0998C25.8 13.8079 23.6081 15.9998 20.9 15.9998C19.535 15.9998 18.3056 15.4398 17.4179 14.5434C18.2781 13.3809 18.8 11.9538 18.8 10.3998C18.8 9.23605 18.485 8.15237 17.981 7.18462C18.7983 6.57409 19.8014 6.1998 20.9 6.1998C23.6081 6.1998 25.8 8.39168 25.8 11.0998Z" fill="#7363E0"/>
</svg>
