<svg width="32" height="32" viewBox="0 0 32 32" fill="none" xmlns="http://www.w3.org/2000/svg">
<path fill-rule="evenodd" clip-rule="evenodd" d="M6.47554 2.66663C4.3716 2.66663 2.66602 4.37221 2.66602 6.47615V25.5238C2.66602 27.6277 4.3716 29.3333 6.47554 29.3333H25.5232C27.6271 29.3333 29.3327 27.6277 29.3327 25.5238V6.47615C29.3327 4.37221 27.6271 2.66663 25.5232 2.66663H6.47554ZM6.47556 13.978L6.47554 9.26003C6.47554 8.77451 6.86913 8.38091 7.35466 8.38091H8.49191C8.70342 8.38091 8.90784 8.45717 9.06767 8.59569L9.69897 9.14281H13.2154C13.701 9.14281 14.0946 9.53641 14.0946 10.0219L14.0946 13.978C14.0946 14.4635 13.701 14.8571 13.2155 14.8571H7.35468C6.86915 14.8571 6.47556 14.4635 6.47556 13.978ZM17.9041 13.978L17.9041 9.26003C17.9041 8.77451 18.2977 8.38091 18.7832 8.38091H19.9205C20.132 8.38091 20.3364 8.45717 20.4962 8.59569L21.1275 9.14281H24.644C25.1295 9.14281 25.5231 9.53641 25.5231 10.0219L25.5232 13.978C25.5232 14.4635 25.1296 14.8571 24.644 14.8571H18.7832C18.2977 14.8571 17.9041 14.4635 17.9041 13.978ZM17.9041 22.7494L17.9041 18.0314C17.9041 17.5459 18.2977 17.1523 18.7832 17.1523H19.9205C20.132 17.1523 20.3364 17.2286 20.4962 17.3671L21.1275 17.9142H24.644C25.1295 17.9142 25.5231 18.3078 25.5231 18.7933L25.5232 22.7493C25.5232 23.2349 25.1296 23.6285 24.644 23.6285H18.7832C18.2977 23.6285 17.9041 23.2349 17.9041 22.7494ZM6.47556 22.7494L6.47554 18.0314C6.47554 17.5459 6.86913 17.1523 7.35466 17.1523H8.49191C8.70342 17.1523 8.90784 17.2286 9.06767 17.3671L9.69897 17.9142H13.2154C13.701 17.9142 14.0946 18.3078 14.0946 18.7933L14.0946 22.7493C14.0946 23.2349 13.701 23.6285 13.2155 23.6285H7.35468C6.86915 23.6285 6.47556 23.2349 6.47556 22.7494Z" fill="#7363E0"/>
</svg>
