<svg width="32" height="32" viewBox="0 0 32 32" fill="none" xmlns="http://www.w3.org/2000/svg">
<path d="M11.8 15.9999C14.8931 15.9999 17.4 13.4926 17.4 10.3999C17.4 7.30724 14.8931 4.79993 11.8 4.79993C8.70687 4.79993 6.2 7.30724 6.2 10.3999C6.2 13.4926 8.70687 15.9999 11.8 15.9999ZM14.0181 18.0999H9.58187C5.39369 18.0999 2 21.4949 2 25.6818C2 26.5218 2.679 27.1999 3.51637 27.1999H20.0819C20.9219 27.1999 21.6 26.5218 21.6 25.6818C21.6 21.4949 18.205 18.0999 14.0181 18.0999ZM22.9606 18.7999H19.7297C21.74 20.4493 23 22.9168 23 25.6818C23 26.2418 22.8337 26.7581 22.5625 27.1999H28.6C29.3744 27.1999 30 26.5699 30 25.7606C30 21.9324 26.8675 18.7999 22.9606 18.7999ZM20.9 15.9999C23.6081 15.9999 25.8 13.8081 25.8 11.0999C25.8 8.3918 23.6081 6.19993 20.9 6.19993C19.8014 6.19993 18.7983 6.57421 17.981 7.18474C18.485 8.15249 18.8 9.23618 18.8 10.3999C18.8 11.9539 18.2781 13.3811 17.4179 14.5435C18.3056 15.4399 19.535 15.9999 20.9 15.9999Z" fill="#7363E0"/>
</svg>
