<svg width="32" height="32" viewBox="0 0 32 32" fill="none" xmlns="http://www.w3.org/2000/svg">
<path d="M27.4081 6.22217C29.2057 6.22217 30.6673 7.6812 30.6673 9.48143V22.5185C30.6673 24.3161 29.2057 25.7777 27.4081 25.7777H4.59324C2.79301 25.7777 1.33398 24.3161 1.33398 22.5185V9.48143C1.33398 7.6812 2.79301 6.22217 4.59324 6.22217H27.4081ZM7.8525 22.5185C7.8525 20.7208 6.39347 19.2592 4.59324 19.2592V22.5185H7.8525ZM4.59324 12.7407C6.39347 12.7407 7.8525 11.2791 7.8525 9.48143H4.59324V12.7407ZM27.4081 22.5185V19.2592C25.6104 19.2592 24.1488 20.7208 24.1488 22.5185H27.4081ZM27.4081 9.48143H24.1488C24.1488 11.2791 25.6104 12.7407 27.4081 12.7407V9.48143ZM16.0007 20.8888C18.6997 20.8888 20.8895 18.699 20.8895 15.9999C20.8895 13.255 18.6997 11.1111 16.0007 11.1111C13.2557 11.1111 11.1118 13.255 11.1118 15.9999C11.1118 18.699 13.2557 20.8888 16.0007 20.8888Z" fill="#7363E0"/>
</svg>
