<svg width="32" height="32" viewBox="0 0 32 32" fill="none" xmlns="http://www.w3.org/2000/svg">
<path d="M25.5232 2.6665H6.47554C4.37197 2.6665 2.66602 4.37246 2.66602 6.47603V25.5236C2.66602 27.6272 4.37197 29.3332 6.47554 29.3332H25.5232C27.6267 29.3332 29.3327 27.6272 29.3327 25.5236V6.47603C29.3327 4.37246 27.6244 2.6665 25.5232 2.6665ZM22.5827 12.107L15.3624 19.3332H19.3327C20.3857 19.3332 21.2374 20.185 21.2374 21.2379C21.2374 22.2909 20.3857 23.1427 19.3327 23.1427H10.7613C9.70828 23.1427 8.85649 22.2909 8.85649 21.2379V12.6665C8.85649 11.6135 9.70828 10.7617 10.7613 10.7617C11.8142 10.7617 12.666 11.6135 12.666 12.6665V16.6397L19.8922 9.41353C20.6363 8.66948 21.8416 8.66948 22.5857 9.41353C23.3297 10.1576 23.3267 11.3629 22.5827 12.107Z" fill="#7363E0"/>
</svg>
