<svg width="32" height="32" viewBox="0 0 32 32" fill="none" xmlns="http://www.w3.org/2000/svg">
<path d="M24.3333 2.6665C25.2552 2.6665 26 3.41286 26 4.33317C26 5.25348 25.2552 5.99984 24.3333 5.99984V6.57171C24.3333 8.78109 23.4531 10.9009 21.8906 12.4634L18.3594 15.9998L21.8906 19.5363C23.4531 21.0988 24.3333 23.2186 24.3333 25.4269V25.9998C25.2552 25.9998 26 26.7446 26 27.6665C26 28.5884 25.2552 29.3332 24.3333 29.3332H7.66667C6.74635 29.3332 6 28.5884 6 27.6665C6 26.7446 6.74635 25.9998 7.66667 25.9998V25.4269C7.66667 23.2186 8.54479 21.0988 10.1073 19.5363L13.6406 15.9998L10.1073 12.4634C8.54479 10.9009 7.66667 8.78109 7.66667 6.57171V5.99984C6.74635 5.99984 6 5.25348 6 4.33317C6 3.41286 6.74635 2.6665 7.66667 2.6665H24.3333ZM12.4635 10.1092L16 13.6405L19.5365 10.1092C20.474 9.17171 21 7.89567 21 6.57171V5.99984H11V6.57171C11 7.89567 11.526 9.17171 12.4635 10.1092Z" fill="#7363E0"/>
</svg>
