<svg width="32" height="32" viewBox="0 0 32 32" fill="none" xmlns="http://www.w3.org/2000/svg">
<path d="M24.3333 2.66675C25.2552 2.66675 26 3.4131 26 4.33341C26 5.25373 25.2552 6.00008 24.3333 6.00008V6.57196C24.3333 8.78133 23.4531 10.9011 21.8906 12.4636L18.3594 16.0001L21.8906 19.5365C23.4531 21.099 24.3333 23.2188 24.3333 25.4272V26.0001C25.2552 26.0001 26 26.7449 26 27.6667C26 28.5886 25.2552 29.3334 24.3333 29.3334H7.66667C6.74635 29.3334 6 28.5886 6 27.6667C6 26.7449 6.74635 26.0001 7.66667 26.0001V25.4272C7.66667 23.2188 8.54479 21.099 10.1073 19.5365L13.6406 16.0001L10.1073 12.4636C8.54479 10.9011 7.66667 8.78133 7.66667 6.57196V6.00008C6.74635 6.00008 6 5.25373 6 4.33341C6 3.4131 6.74635 2.66675 7.66667 2.66675H24.3333ZM12.4635 10.1095L16 13.6407L19.5365 10.1095C20.474 9.17196 21 7.89592 21 6.57196V6.00008H11V6.57196C11 7.89592 11.526 9.17196 12.4635 10.1095Z" fill="#7363E0"/>
</svg>
