<svg width="32" height="32" viewBox="0 0 32 32" fill="none" xmlns="http://www.w3.org/2000/svg">
<path fill-rule="evenodd" clip-rule="evenodd" d="M15.391 2.52437C15.5693 2.38214 15.785 2.31103 16.0006 2.31104C16.214 2.31103 16.4275 2.38067 16.6047 2.51997L23.8228 8.19131V7.19991C23.8228 6.6599 24.2606 6.22214 24.8006 6.22214H25.7784C26.3184 6.22214 26.7561 6.6599 26.7561 7.19991V10.4961L30.2936 13.2755C30.7182 13.6091 30.792 14.2238 30.4583 14.6484C30.1247 15.073 29.51 15.1468 29.0854 14.8132L26.7561 12.983V25.7776C26.7561 27.9377 25.0051 29.6887 22.845 29.6887H9.15618C6.99614 29.6887 5.24508 27.9377 5.24508 25.7776V12.9831L2.91589 14.8132C2.49127 15.1468 1.87659 15.073 1.54296 14.6484C1.20933 14.2238 1.28309 13.6091 1.70771 13.2755L15.391 2.52437ZM13.0673 17.9554C12.5273 17.9554 12.0895 18.3932 12.0895 18.9332V27.7332H19.9117V18.9332C19.9117 18.3932 19.4739 17.9554 18.9339 17.9554H13.0673Z" fill="#7363E0"/>
</svg>
