<svg width="32" height="32" viewBox="0 0 32 32" fill="none" xmlns="http://www.w3.org/2000/svg">
<path d="M26.9639 7.02622L16.9637 2.85949C16.7098 2.75371 16.2783 2.66663 16.0033 2.66663C15.7266 2.66663 15.2976 2.75371 15.0418 2.85949L5.04221 7.02622C4.10938 7.41112 3.5 8.32259 3.5 9.28614C3.5 22.729 13.3543 29.3333 15.995 29.3333C18.6617 29.3333 28.5003 22.6561 28.5003 9.28614C28.5003 8.32259 27.891 7.41112 26.9639 7.02622ZM21.0002 13.0831C21.0002 13.3711 20.9012 13.6607 20.6991 13.8966L15.6991 19.73C15.3491 20.1405 14.8856 20.1196 14.7502 20.1196C14.4187 20.1194 14.1008 19.9877 13.8663 19.7534L11.3663 17.2534C11.1199 17.0571 11.0001 16.7342 11.0001 16.3696C11.0001 15.7034 11.5366 15.1196 12.2501 15.1196C12.4143 15.1194 12.5769 15.1516 12.7286 15.2145C12.8803 15.2773 13.018 15.3695 13.134 15.4858L14.6804 17.0321L18.8018 12.2227C19.0496 11.9346 19.3997 11.7872 19.7518 11.7872C20.7086 11.8331 21.0002 12.6976 21.0002 13.0831Z" fill="#7363E0"/>
</svg>
