<svg width="592" height="140" viewBox="0 0 592 140" fill="none" xmlns="http://www.w3.org/2000/svg">
<g clip-path="url(#clip0_4603_1469)">
<mask id="path-1-inside-1_4603_1469" fill="white">
<path d="M0 0H592V140H0V0Z"/>
</mask>
<path d="M0 0H592V140H0V0Z" fill="#F8F7FA"/>
<g filter="url(#filter0_d_4603_1469)">
<g clip-path="url(#clip1_4603_1469)">
<rect x="200" y="48" width="120" height="160" fill="url(#paint0_linear_4603_1469)"/>
<rect width="11.1111" height="160" transform="matrix(-1 5.18986e-09 5.18986e-09 1 211.111 48)" fill="url(#paint1_linear_4603_1469)"/>
<g opacity="0.5" clip-path="url(#clip2_4603_1469)">
<path d="M265.977 103.35C264.884 102.947 263.83 102.764 262.883 102.75C261.5 102.773 260.492 103.162 260 103.402C259.503 103.162 258.495 102.773 257.112 102.75C256.163 102.75 255.099 102.953 254.025 103.347C253.55 103.523 253.25 103.997 253.25 104.503V111.6C253.25 111.943 253.411 112.258 253.693 112.463C253.877 112.596 254.1 112.669 254.328 112.669C254.436 112.668 254.544 112.653 254.648 112.621C255.368 112.401 256.042 112.309 256.652 112.309C257.734 112.309 258.616 112.6 259.203 112.99C259.443 113.149 259.723 113.229 260.003 113.229C260.281 113.229 260.56 113.15 260.799 112.991C261.389 112.602 262.275 112.311 263.357 112.311C263.966 112.311 264.637 112.403 265.353 112.622C265.456 112.653 265.564 112.669 265.672 112.669C265.898 112.669 266.118 112.598 266.308 112.462C266.591 112.256 266.75 111.942 266.75 111.6V104.503C266.75 103.997 266.45 103.523 265.977 103.35ZM259.25 111.323C258.481 110.991 257.586 110.808 256.653 110.808C256.028 110.808 255.388 110.886 254.751 111.038V104.681C255.58 104.4 256.386 104.25 257.089 104.208C258.12 104.264 258.856 104.527 259.25 104.709V111.323ZM265.25 111.037C264.613 110.886 263.979 110.809 263.357 110.809C262.408 110.809 261.501 110.993 260.75 111.333V104.71C261.142 104.53 261.868 104.271 262.883 104.25C263.647 104.264 264.463 104.414 265.25 104.681V111.037ZM260 96C253.372 96 248 101.372 248 108C248 114.628 253.372 120 260 120C266.628 120 272 114.628 272 108C272 101.372 266.628 96 260 96ZM260 118.5C254.211 118.5 249.5 113.789 249.5 108C249.5 102.211 254.211 97.5 260 97.5C265.789 97.5 270.5 102.211 270.5 108C270.5 113.789 265.789 118.5 260 118.5Z" fill="white"/>
</g>
<path opacity="0.5" d="M245.665 136.136C245.034 136.136 244.49 135.997 244.033 135.719C243.578 135.438 243.227 135.045 242.98 134.543C242.736 134.037 242.614 133.449 242.614 132.778C242.614 132.108 242.736 131.517 242.98 131.006C243.227 130.491 243.571 130.091 244.011 129.804C244.455 129.514 244.972 129.369 245.562 129.369C245.903 129.369 246.24 129.426 246.572 129.54C246.905 129.653 247.207 129.838 247.48 130.094C247.753 130.347 247.97 130.682 248.132 131.099C248.294 131.517 248.375 132.031 248.375 132.642V133.068H243.33V132.199H247.352C247.352 131.83 247.278 131.5 247.131 131.21C246.986 130.92 246.778 130.692 246.509 130.524C246.241 130.357 245.926 130.273 245.562 130.273C245.162 130.273 244.815 130.372 244.523 130.571C244.233 130.767 244.01 131.023 243.854 131.338C243.697 131.653 243.619 131.991 243.619 132.352V132.932C243.619 133.426 243.705 133.845 243.875 134.189C244.048 134.53 244.288 134.79 244.595 134.969C244.902 135.145 245.259 135.233 245.665 135.233C245.929 135.233 246.168 135.196 246.381 135.122C246.597 135.045 246.783 134.932 246.939 134.781C247.095 134.628 247.216 134.437 247.301 134.21L248.273 134.483C248.17 134.812 247.999 135.102 247.757 135.352C247.516 135.599 247.217 135.793 246.862 135.932C246.507 136.068 246.108 136.136 245.665 136.136ZM250.041 136V127.273H253.092C253.7 127.273 254.202 127.378 254.597 127.588C254.991 127.795 255.286 128.075 255.479 128.428C255.672 128.777 255.768 129.165 255.768 129.591C255.768 129.966 255.702 130.276 255.568 130.52C255.438 130.764 255.264 130.957 255.048 131.099C254.835 131.241 254.604 131.347 254.354 131.415V131.5C254.621 131.517 254.889 131.611 255.159 131.781C255.429 131.952 255.655 132.196 255.837 132.514C256.018 132.832 256.109 133.222 256.109 133.682C256.109 134.119 256.01 134.513 255.811 134.862C255.612 135.212 255.298 135.489 254.869 135.693C254.44 135.898 253.882 136 253.195 136H250.041ZM251.098 135.062H253.195C253.885 135.062 254.375 134.929 254.665 134.662C254.957 134.392 255.104 134.065 255.104 133.682C255.104 133.386 255.028 133.114 254.878 132.864C254.727 132.611 254.513 132.409 254.234 132.259C253.956 132.105 253.626 132.028 253.246 132.028H251.098V135.062ZM251.098 131.108H253.058C253.376 131.108 253.663 131.045 253.919 130.92C254.178 130.795 254.382 130.619 254.533 130.392C254.686 130.165 254.763 129.898 254.763 129.591C254.763 129.207 254.629 128.882 254.362 128.615C254.095 128.345 253.672 128.21 253.092 128.21H251.098V131.108ZM260.369 136.136C259.778 136.136 259.259 135.996 258.813 135.714C258.37 135.433 258.023 135.04 257.773 134.534C257.526 134.028 257.403 133.437 257.403 132.761C257.403 132.08 257.526 131.484 257.773 130.976C258.023 130.467 258.37 130.072 258.813 129.791C259.259 129.51 259.778 129.369 260.369 129.369C260.96 129.369 261.477 129.51 261.92 129.791C262.366 130.072 262.712 130.467 262.96 130.976C263.21 131.484 263.335 132.08 263.335 132.761C263.335 133.437 263.21 134.028 262.96 134.534C262.712 135.04 262.366 135.433 261.92 135.714C261.477 135.996 260.96 136.136 260.369 136.136ZM260.369 135.233C260.817 135.233 261.187 135.118 261.477 134.888C261.766 134.658 261.981 134.355 262.12 133.98C262.259 133.605 262.329 133.199 262.329 132.761C262.329 132.324 262.259 131.916 262.12 131.538C261.981 131.161 261.766 130.855 261.477 130.622C261.187 130.389 260.817 130.273 260.369 130.273C259.92 130.273 259.55 130.389 259.261 130.622C258.971 130.855 258.756 131.161 258.617 131.538C258.478 131.916 258.408 132.324 258.408 132.761C258.408 133.199 258.478 133.605 258.617 133.98C258.756 134.355 258.971 134.658 259.261 134.888C259.55 135.118 259.92 135.233 260.369 135.233ZM267.529 136.136C266.938 136.136 266.419 135.996 265.973 135.714C265.53 135.433 265.184 135.04 264.934 134.534C264.686 134.028 264.563 133.437 264.563 132.761C264.563 132.08 264.686 131.484 264.934 130.976C265.184 130.467 265.53 130.072 265.973 129.791C266.419 129.51 266.938 129.369 267.529 129.369C268.12 129.369 268.637 129.51 269.08 129.791C269.526 130.072 269.873 130.467 270.12 130.976C270.37 131.484 270.495 132.08 270.495 132.761C270.495 133.437 270.37 134.028 270.12 134.534C269.873 135.04 269.526 135.433 269.08 135.714C268.637 135.996 268.12 136.136 267.529 136.136ZM267.529 135.233C267.978 135.233 268.347 135.118 268.637 134.888C268.926 134.658 269.141 134.355 269.28 133.98C269.419 133.605 269.489 133.199 269.489 132.761C269.489 132.324 269.419 131.916 269.28 131.538C269.141 131.161 268.926 130.855 268.637 130.622C268.347 130.389 267.978 130.273 267.529 130.273C267.08 130.273 266.711 130.389 266.421 130.622C266.131 130.855 265.917 131.161 265.777 131.538C265.638 131.916 265.569 132.324 265.569 132.761C265.569 133.199 265.638 133.605 265.777 133.98C265.917 134.355 266.131 134.658 266.421 134.888C266.711 135.118 267.08 135.233 267.529 135.233ZM272.967 133.614L272.95 132.369H273.155L276.018 129.455H277.263L274.212 132.54H274.126L272.967 133.614ZM272.03 136V127.273H273.036V136H272.03ZM276.189 136L273.632 132.761L274.348 132.062L277.467 136H276.189Z" fill="white"/>
</g>
</g>
<g filter="url(#filter1_d_4603_1469)">
<g clip-path="url(#clip3_4603_1469)">
<rect x="272" y="24" width="120" height="160" fill="url(#paint2_linear_4603_1469)"/>
<rect width="11.1111" height="160" transform="matrix(-1 5.18986e-09 5.18986e-09 1 283.111 24)" fill="url(#paint3_linear_4603_1469)"/>
<g opacity="0.5" clip-path="url(#clip4_4603_1469)">
<path d="M337.977 79.35C336.884 78.9469 335.83 78.7641 334.883 78.75C333.5 78.7734 332.492 79.1625 332 79.4016C331.503 79.1625 330.495 78.7734 329.112 78.75C328.163 78.75 327.099 78.9525 326.025 79.3472C325.55 79.5234 325.25 79.9969 325.25 80.5031V87.6C325.25 87.9435 325.411 88.2577 325.693 88.4625C325.877 88.5965 326.1 88.6686 326.328 88.6685C326.436 88.6684 326.544 88.6525 326.648 88.6215C327.368 88.4014 328.042 88.3086 328.652 88.3086C329.734 88.3086 330.616 88.6 331.203 88.9897C331.443 89.149 331.723 89.2288 332.003 89.2288C332.281 89.2288 332.56 89.1496 332.799 88.9914C333.389 88.6021 334.275 88.3112 335.357 88.3112C335.966 88.3112 336.637 88.4032 337.353 88.6216C337.456 88.653 337.564 88.669 337.672 88.6691C337.898 88.6691 338.118 88.5983 338.308 88.4619C338.591 88.2562 338.75 87.9422 338.75 87.6V80.5031C338.75 79.9969 338.45 79.5234 337.977 79.35ZM331.25 87.3234C330.481 86.9906 329.586 86.8078 328.653 86.8078C328.028 86.8078 327.388 86.8857 326.751 87.0384V80.6812C327.58 80.4 328.386 80.25 329.089 80.2078C330.12 80.2641 330.856 80.5266 331.25 80.7094V87.3234ZM337.25 87.0375C336.613 86.8856 335.979 86.8089 335.357 86.8089C334.408 86.8089 333.501 86.9927 332.75 87.333V80.7095C333.142 80.53 333.868 80.2705 334.883 80.2505C335.647 80.2641 336.463 80.4141 337.25 80.6812V87.0375ZM332 72C325.372 72 320 77.3719 320 84C320 90.6281 325.372 96 332 96C338.628 96 344 90.6281 344 84C344 77.3719 338.628 72 332 72ZM332 94.5C326.211 94.5 321.5 89.7891 321.5 84C321.5 78.2109 326.211 73.5 332 73.5C337.789 73.5 342.5 78.2109 342.5 84C342.5 89.7891 337.789 94.5 332 94.5Z" fill="white"/>
</g>
<path opacity="0.5" d="M317.665 112.136C317.034 112.136 316.49 111.997 316.033 111.719C315.578 111.438 315.227 111.045 314.98 110.543C314.736 110.037 314.614 109.449 314.614 108.778C314.614 108.108 314.736 107.517 314.98 107.006C315.227 106.491 315.571 106.091 316.011 105.804C316.455 105.514 316.972 105.369 317.562 105.369C317.903 105.369 318.24 105.426 318.572 105.54C318.905 105.653 319.207 105.838 319.48 106.094C319.753 106.347 319.97 106.682 320.132 107.099C320.294 107.517 320.375 108.031 320.375 108.642V109.068H315.33V108.199H319.352C319.352 107.83 319.278 107.5 319.131 107.21C318.986 106.92 318.778 106.692 318.509 106.524C318.241 106.357 317.926 106.273 317.562 106.273C317.162 106.273 316.815 106.372 316.523 106.571C316.233 106.767 316.01 107.023 315.854 107.338C315.697 107.653 315.619 107.991 315.619 108.352V108.932C315.619 109.426 315.705 109.845 315.875 110.189C316.048 110.53 316.288 110.79 316.595 110.969C316.902 111.145 317.259 111.233 317.665 111.233C317.929 111.233 318.168 111.196 318.381 111.122C318.597 111.045 318.783 110.932 318.939 110.781C319.095 110.628 319.216 110.437 319.301 110.21L320.273 110.483C320.17 110.812 319.999 111.102 319.757 111.352C319.516 111.599 319.217 111.793 318.862 111.932C318.507 112.068 318.108 112.136 317.665 112.136ZM322.041 112V103.273H325.092C325.7 103.273 326.202 103.378 326.597 103.588C326.991 103.795 327.286 104.075 327.479 104.428C327.672 104.777 327.768 105.165 327.768 105.591C327.768 105.966 327.702 106.276 327.568 106.52C327.438 106.764 327.264 106.957 327.048 107.099C326.835 107.241 326.604 107.347 326.354 107.415V107.5C326.621 107.517 326.889 107.611 327.159 107.781C327.429 107.952 327.655 108.196 327.837 108.514C328.018 108.832 328.109 109.222 328.109 109.682C328.109 110.119 328.01 110.513 327.811 110.862C327.612 111.212 327.298 111.489 326.869 111.693C326.44 111.898 325.882 112 325.195 112H322.041ZM323.098 111.062H325.195C325.885 111.062 326.375 110.929 326.665 110.662C326.957 110.392 327.104 110.065 327.104 109.682C327.104 109.386 327.028 109.114 326.878 108.864C326.727 108.611 326.513 108.409 326.234 108.259C325.956 108.105 325.626 108.028 325.246 108.028H323.098V111.062ZM323.098 107.108H325.058C325.376 107.108 325.663 107.045 325.919 106.92C326.178 106.795 326.382 106.619 326.533 106.392C326.686 106.165 326.763 105.898 326.763 105.591C326.763 105.207 326.629 104.882 326.362 104.615C326.095 104.345 325.672 104.21 325.092 104.21H323.098V107.108ZM332.369 112.136C331.778 112.136 331.259 111.996 330.813 111.714C330.37 111.433 330.023 111.04 329.773 110.534C329.526 110.028 329.403 109.437 329.403 108.761C329.403 108.08 329.526 107.484 329.773 106.976C330.023 106.467 330.37 106.072 330.813 105.791C331.259 105.51 331.778 105.369 332.369 105.369C332.96 105.369 333.477 105.51 333.92 105.791C334.366 106.072 334.712 106.467 334.96 106.976C335.21 107.484 335.335 108.08 335.335 108.761C335.335 109.437 335.21 110.028 334.96 110.534C334.712 111.04 334.366 111.433 333.92 111.714C333.477 111.996 332.96 112.136 332.369 112.136ZM332.369 111.233C332.817 111.233 333.187 111.118 333.477 110.888C333.766 110.658 333.981 110.355 334.12 109.98C334.259 109.605 334.329 109.199 334.329 108.761C334.329 108.324 334.259 107.916 334.12 107.538C333.981 107.161 333.766 106.855 333.477 106.622C333.187 106.389 332.817 106.273 332.369 106.273C331.92 106.273 331.55 106.389 331.261 106.622C330.971 106.855 330.756 107.161 330.617 107.538C330.478 107.916 330.408 108.324 330.408 108.761C330.408 109.199 330.478 109.605 330.617 109.98C330.756 110.355 330.971 110.658 331.261 110.888C331.55 111.118 331.92 111.233 332.369 111.233ZM339.529 112.136C338.938 112.136 338.419 111.996 337.973 111.714C337.53 111.433 337.184 111.04 336.934 110.534C336.686 110.028 336.563 109.437 336.563 108.761C336.563 108.08 336.686 107.484 336.934 106.976C337.184 106.467 337.53 106.072 337.973 105.791C338.419 105.51 338.938 105.369 339.529 105.369C340.12 105.369 340.637 105.51 341.08 105.791C341.526 106.072 341.873 106.467 342.12 106.976C342.37 107.484 342.495 108.08 342.495 108.761C342.495 109.437 342.37 110.028 342.12 110.534C341.873 111.04 341.526 111.433 341.08 111.714C340.637 111.996 340.12 112.136 339.529 112.136ZM339.529 111.233C339.978 111.233 340.347 111.118 340.637 110.888C340.926 110.658 341.141 110.355 341.28 109.98C341.419 109.605 341.489 109.199 341.489 108.761C341.489 108.324 341.419 107.916 341.28 107.538C341.141 107.161 340.926 106.855 340.637 106.622C340.347 106.389 339.978 106.273 339.529 106.273C339.08 106.273 338.711 106.389 338.421 106.622C338.131 106.855 337.917 107.161 337.777 107.538C337.638 107.916 337.569 108.324 337.569 108.761C337.569 109.199 337.638 109.605 337.777 109.98C337.917 110.355 338.131 110.658 338.421 110.888C338.711 111.118 339.08 111.233 339.529 111.233ZM344.967 109.614L344.95 108.369H345.155L348.018 105.455H349.263L346.212 108.54H346.126L344.967 109.614ZM344.03 112V103.273H345.036V112H344.03ZM348.189 112L345.632 108.761L346.348 108.062L349.467 112H348.189Z" fill="white"/>
</g>
</g>
</g>
<path d="M592 139H0V141H592V139Z" fill="#F3F2F5" mask="url(#path-1-inside-1_4603_1469)"/>
<defs>
<filter id="filter0_d_4603_1469" x="180" y="44" width="152" height="192" filterUnits="userSpaceOnUse" color-interpolation-filters="sRGB">
<feFlood flood-opacity="0" result="BackgroundImageFix"/>
<feColorMatrix in="SourceAlpha" type="matrix" values="0 0 0 0 0 0 0 0 0 0 0 0 0 0 0 0 0 0 127 0" result="hardAlpha"/>
<feOffset dx="-4" dy="12"/>
<feGaussianBlur stdDeviation="8"/>
<feComposite in2="hardAlpha" operator="out"/>
<feColorMatrix type="matrix" values="0 0 0 0 0 0 0 0 0 0 0 0 0 0 0 0 0 0 0.24 0"/>
<feBlend mode="normal" in2="BackgroundImageFix" result="effect1_dropShadow_4603_1469"/>
<feBlend mode="normal" in="SourceGraphic" in2="effect1_dropShadow_4603_1469" result="shape"/>
</filter>
<filter id="filter1_d_4603_1469" x="252" y="20" width="152" height="192" filterUnits="userSpaceOnUse" color-interpolation-filters="sRGB">
<feFlood flood-opacity="0" result="BackgroundImageFix"/>
<feColorMatrix in="SourceAlpha" type="matrix" values="0 0 0 0 0 0 0 0 0 0 0 0 0 0 0 0 0 0 127 0" result="hardAlpha"/>
<feOffset dx="-4" dy="12"/>
<feGaussianBlur stdDeviation="8"/>
<feComposite in2="hardAlpha" operator="out"/>
<feColorMatrix type="matrix" values="0 0 0 0 0 0 0 0 0 0 0 0 0 0 0 0 0 0 0.24 0"/>
<feBlend mode="normal" in2="BackgroundImageFix" result="effect1_dropShadow_4603_1469"/>
<feBlend mode="normal" in="SourceGraphic" in2="effect1_dropShadow_4603_1469" result="shape"/>
</filter>
<linearGradient id="paint0_linear_4603_1469" x1="200" y1="127.998" x2="320" y2="127.998" gradientUnits="userSpaceOnUse">
<stop stop-color="#56E640"/>
<stop offset="1" stop-color="#A0EA4C"/>
</linearGradient>
<linearGradient id="paint1_linear_4603_1469" x1="11.1111" y1="80" x2="-3.10844e-07" y2="80" gradientUnits="userSpaceOnUse">
<stop stop-opacity="0.16"/>
<stop offset="0.510417" stop-opacity="0"/>
<stop offset="1" stop-opacity="0.04"/>
</linearGradient>
<linearGradient id="paint2_linear_4603_1469" x1="272" y1="103.998" x2="392" y2="103.998" gradientUnits="userSpaceOnUse">
<stop stop-color="#40C4E6"/>
<stop offset="1" stop-color="#4CEAD5"/>
</linearGradient>
<linearGradient id="paint3_linear_4603_1469" x1="11.1111" y1="80" x2="-3.10844e-07" y2="80" gradientUnits="userSpaceOnUse">
<stop stop-opacity="0.16"/>
<stop offset="0.510417" stop-opacity="0"/>
<stop offset="1" stop-opacity="0.04"/>
</linearGradient>
<clipPath id="clip0_4603_1469">
<path d="M0 0H592V140H0V0Z" fill="white"/>
</clipPath>
<clipPath id="clip1_4603_1469">
<rect x="200" y="48" width="120" height="160" rx="8" fill="white"/>
</clipPath>
<clipPath id="clip2_4603_1469">
<rect width="24" height="24" fill="white" transform="translate(248 96)"/>
</clipPath>
<clipPath id="clip3_4603_1469">
<rect x="272" y="24" width="120" height="160" rx="8" fill="white"/>
</clipPath>
<clipPath id="clip4_4603_1469">
<rect width="24" height="24" fill="white" transform="translate(320 72)"/>
</clipPath>
</defs>
</svg>
