<?xml version="1.0" standalone="no"?>
<!DOCTYPE svg PUBLIC "-//W3C//DTD SVG 20010904//EN"
 "http://www.w3.org/TR/2001/REC-SVG-20010904/DTD/svg10.dtd">
<svg version="1.0" xmlns="http://www.w3.org/2000/svg"
 width="96.000000pt" height="96.000000pt" viewBox="0 0 96.000000 96.000000"
 preserveAspectRatio="xMidYMid meet">
<metadata>
Created by potrace 1.14, written by Peter Selinger 2001-2017
</metadata>
<g transform="translate(0.000000,96.000000) scale(0.100000,-0.100000)"
fill="#000000" stroke="none">
<path d="M195 910 c-28 -11 -175 -165 -175 -182 0 -8 46 -61 101 -116 l102
-102 53 0 c52 0 54 1 124 70 38 39 70 75 70 80 0 8 -246 261 -252 259 -2 0
-12 -4 -23 -9z"/>
<path d="M741 912 c-20 -7 -236 -225 -244 -246 -4 -11 15 -37 64 -86 69 -69
70 -70 123 -70 l53 0 102 102 c55 56 101 108 101 116 0 15 -143 168 -170 182
-8 4 -22 5 -29 2z"/>
<path d="M121 348 c-55 -55 -101 -108 -101 -116 0 -9 40 -56 88 -104 71 -70
93 -87 108 -81 23 8 238 224 247 246 4 11 -16 39 -63 87 -68 70 -68 70 -123
70 l-54 0 -102 -102z"/>
<path d="M561 380 c-39 -39 -71 -74 -71 -79 0 -14 232 -246 254 -254 14 -6 38
12 107 80 49 47 89 94 89 103 0 9 -46 62 -101 118 l-102 102 -53 0 c-52 0 -54
-1 -123 -70z"/>
</g>
</svg>
