<svg width="32" height="32" viewBox="0 0 32 32" fill="none" xmlns="http://www.w3.org/2000/svg">
<path d="M21.0013 7.66772V7.85314C21.0013 8.67293 20.3398 9.33439 19.5221 9.33439H12.4805C11.6628 9.33439 10.9544 8.67293 10.9544 7.85314V7.66772C10.9544 4.90627 13.194 2.66772 15.9544 2.66772C18.7617 2.66772 21.0013 4.90627 21.0013 7.66772ZM4.82266 8.15731C5.4737 7.50522 6.52891 7.50522 7.17995 8.15731L10.5117 11.4906C10.5482 11.5219 10.5794 11.5583 10.6107 11.5948C11.3555 11.2146 12.194 11.0011 13.0378 11.0011H18.918C19.8086 11.0011 20.6471 11.2146 21.3919 11.5948C21.4232 11.5583 21.4544 11.5219 21.4909 11.4906L24.8242 8.15731C25.4753 7.50522 26.5273 7.50522 27.1784 8.15731C27.8294 8.80835 27.8294 9.86043 27.1784 10.5115L23.8451 13.8448C23.7669 13.8813 23.7773 13.9125 23.7409 13.9438C24.0586 14.5688 24.2617 15.2667 24.319 16.0011H27.668C28.5898 16.0011 29.3346 16.7459 29.3346 17.6677C29.3346 18.5896 28.5898 19.3344 27.668 19.3344H24.3346C24.3346 20.6156 24.0482 21.824 23.5326 22.9073C23.6419 22.975 23.7513 23.0583 23.8451 23.1573L27.1784 26.4906C27.8294 27.1417 27.8294 28.1938 27.1784 28.8448C26.5273 29.4959 25.4753 29.4959 24.8242 28.8448L21.5378 25.5636C20.2617 26.699 18.6315 27.449 16.8346 27.6261V15.1677C16.8346 14.7094 16.4596 14.3344 15.9544 14.3344C15.543 14.3344 15.1211 14.7094 15.1211 15.1677V27.6261C13.3711 27.449 11.7409 26.699 10.4648 25.5636L7.17995 28.8448C6.52891 29.4959 5.4737 29.4959 4.82266 28.8448C4.17214 28.1938 4.17214 27.1417 4.82266 26.4906L8.15755 23.1573C8.2513 23.0583 8.36068 22.975 8.47005 22.9073C7.95443 21.824 7.66797 20.6156 7.66797 19.3344H4.33464C3.41432 19.3344 2.66797 18.5896 2.66797 17.6677C2.66797 16.7459 3.41432 16.0011 4.33464 16.0011H7.68359C7.73984 15.2667 7.94401 14.5688 8.26172 13.9438C8.22526 13.9125 8.1888 13.8813 8.15755 13.8448L4.82266 10.5115C4.17214 9.86043 4.17214 8.80835 4.82266 8.15731Z" fill="#7363E0"/>
</svg>
