<svg width="64" height="64" viewBox="0 0 64 64" fill="none" xmlns="http://www.w3.org/2000/svg">
<rect width="64" height="64" rx="8" fill="#2D2D33"/>
<g clip-path="url(#clip0_5586_18942)">
<path d="M21.6404 29.4839C21.6404 30.0681 21.7036 30.5418 21.8141 30.8891C21.9404 31.2365 22.0983 31.6154 22.3193 32.026C22.3983 32.1523 22.4299 32.2786 22.4299 32.3891C22.4299 32.547 22.3351 32.7049 22.1299 32.8628L21.1351 33.526C20.993 33.6207 20.8509 33.6681 20.7246 33.6681C20.5667 33.6681 20.4088 33.5891 20.2509 33.447C20.0299 33.2102 19.8404 32.9576 19.6825 32.7049C19.5246 32.4365 19.3667 32.1365 19.193 31.7733C17.9615 33.226 16.4141 33.9523 14.5509 33.9523C13.2246 33.9523 12.1667 33.5733 11.393 32.8154C10.6193 32.0576 10.2246 31.047 10.2246 29.7839C10.2246 28.4418 10.6983 27.3523 11.6615 26.5312C12.6246 25.7102 13.9036 25.2997 15.5299 25.2997C16.0667 25.2997 16.6193 25.347 17.2036 25.426C17.7878 25.5049 18.3878 25.6312 19.0193 25.7733V24.6207C19.0193 23.4207 18.7667 22.5839 18.2772 22.0944C17.772 21.6049 16.9193 21.3681 15.7036 21.3681C15.1509 21.3681 14.5825 21.4312 13.9983 21.5733C13.4141 21.7154 12.8457 21.8891 12.293 22.1102C12.0404 22.2207 11.8509 22.2839 11.7404 22.3154C11.6299 22.347 11.5509 22.3628 11.4878 22.3628C11.2667 22.3628 11.1562 22.2049 11.1562 21.8733V21.0997C11.1562 20.847 11.1878 20.6576 11.2667 20.547C11.3457 20.4365 11.4878 20.326 11.7088 20.2154C12.2615 19.9312 12.9246 19.6944 13.6983 19.5049C14.472 19.2997 15.293 19.2049 16.1615 19.2049C18.0404 19.2049 19.4141 19.6312 20.2983 20.4839C21.1667 21.3365 21.6088 22.6312 21.6088 24.3681V29.4839H21.6404ZM15.2299 31.8839C15.7509 31.8839 16.2878 31.7891 16.8562 31.5997C17.4246 31.4102 17.9299 31.0628 18.3562 30.5891C18.6088 30.2891 18.7983 29.9576 18.893 29.5786C18.9878 29.1997 19.0509 28.7418 19.0509 28.2049V27.5418C18.593 27.4312 18.1036 27.3365 17.5983 27.2733C17.093 27.2102 16.6036 27.1786 16.1141 27.1786C15.0562 27.1786 14.2825 27.3839 13.7615 27.8102C13.2404 28.2365 12.9878 28.8365 12.9878 29.626C12.9878 30.3681 13.1772 30.9207 13.572 31.2997C13.9509 31.6944 14.5036 31.8839 15.2299 31.8839ZM27.9088 33.5891C27.6246 33.5891 27.4351 33.5418 27.3088 33.4312C27.1825 33.3365 27.072 33.1154 26.9772 32.8154L23.2667 20.6102C23.172 20.2944 23.1246 20.0891 23.1246 19.9786C23.1246 19.726 23.2509 19.5839 23.5036 19.5839H25.0509C25.3509 19.5839 25.5562 19.6312 25.6667 19.7418C25.793 19.8365 25.8878 20.0576 25.9825 20.3576L28.6351 30.8102L31.0983 20.3576C31.1772 20.0418 31.272 19.8365 31.3983 19.7418C31.5246 19.647 31.7457 19.5839 32.0299 19.5839H33.293C33.593 19.5839 33.7983 19.6312 33.9246 19.7418C34.0509 19.8365 34.1615 20.0576 34.2246 20.3576L36.7193 30.9365L39.4509 20.3576C39.5457 20.0418 39.6562 19.8365 39.7667 19.7418C39.893 19.647 40.0983 19.5839 40.3825 19.5839H41.8509C42.1036 19.5839 42.2457 19.7102 42.2457 19.9786C42.2457 20.0576 42.2299 20.1365 42.2141 20.2312C42.1983 20.326 42.1667 20.4523 42.1036 20.626L38.2983 32.8312C38.2036 33.147 38.093 33.3523 37.9667 33.447C37.8404 33.5418 37.6351 33.6049 37.3667 33.6049H36.0088C35.7088 33.6049 35.5036 33.5576 35.3772 33.447C35.2509 33.3365 35.1404 33.1312 35.0772 32.8154L32.6299 22.6312L30.1983 32.7997C30.1193 33.1154 30.0246 33.3207 29.8983 33.4312C29.772 33.5418 29.5509 33.5891 29.2667 33.5891H27.9088ZM48.1983 34.0154C47.3772 34.0154 46.5562 33.9207 45.7667 33.7312C44.9772 33.5418 44.3615 33.3365 43.9509 33.0997C43.6983 32.9576 43.5246 32.7997 43.4615 32.6576C43.3983 32.5154 43.3667 32.3576 43.3667 32.2154V31.4102C43.3667 31.0786 43.493 30.9207 43.7299 30.9207C43.8246 30.9207 43.9193 30.9365 44.0141 30.9681C44.1088 30.9997 44.2509 31.0628 44.4088 31.126C44.9457 31.3628 45.5299 31.5523 46.1457 31.6786C46.7772 31.8049 47.393 31.8681 48.0246 31.8681C49.0193 31.8681 49.793 31.6944 50.3299 31.347C50.8667 30.9997 51.1509 30.4944 51.1509 29.847C51.1509 29.4049 51.0088 29.0418 50.7246 28.7418C50.4404 28.4418 49.9036 28.1733 49.1299 27.9207L46.8404 27.2102C45.6878 26.847 44.8351 26.3102 44.3141 25.5997C43.793 24.9049 43.5246 24.1312 43.5246 23.3102C43.5246 22.647 43.6667 22.0628 43.9509 21.5576C44.2351 21.0523 44.6141 20.6102 45.0878 20.2628C45.5615 19.8997 46.0983 19.6312 46.7299 19.4418C47.3615 19.2523 48.0246 19.1733 48.7193 19.1733C49.0667 19.1733 49.4299 19.1891 49.7772 19.2365C50.1404 19.2839 50.472 19.347 50.8036 19.4102C51.1193 19.4891 51.4193 19.5681 51.7036 19.6628C51.9878 19.7576 52.2088 19.8523 52.3667 19.947C52.5878 20.0733 52.7457 20.1997 52.8404 20.3418C52.9351 20.4681 52.9825 20.6418 52.9825 20.8628V21.6049C52.9825 21.9365 52.8562 22.1102 52.6194 22.1102C52.493 22.1102 52.2878 22.047 52.0193 21.9207C51.1193 21.5102 50.1088 21.3049 48.9878 21.3049C48.0878 21.3049 47.3772 21.447 46.8878 21.747C46.3983 22.047 46.1457 22.5049 46.1457 23.1523C46.1457 23.5944 46.3036 23.9733 46.6193 24.2733C46.9351 24.5733 47.5193 24.8733 48.3562 25.1418L50.5983 25.8523C51.7351 26.2154 52.5562 26.7207 53.0457 27.3681C53.5351 28.0154 53.772 28.7576 53.772 29.5786C53.772 30.2576 53.6299 30.8733 53.3615 31.4102C53.0772 31.947 52.6983 32.4207 52.2088 32.7997C51.7193 33.1944 51.1351 33.4786 50.4562 33.6839C49.7457 33.9049 49.0036 34.0154 48.1983 34.0154Z" fill="#99C2FF"/>
<path fill-rule="evenodd" clip-rule="evenodd" d="M51.1806 41.6894C45.9859 45.5263 38.4385 47.5631 31.949 47.5631C22.8543 47.5631 14.6596 44.2 8.47008 38.6105C7.98061 38.1684 8.42272 37.5684 9.00693 37.9158C15.7017 41.8 23.9596 44.1526 32.5017 44.1526C38.2648 44.1526 44.5964 42.9526 50.4227 40.4894C51.2911 40.0947 52.0332 41.0579 51.1806 41.6894Z" fill="#FF9900"/>
<path fill-rule="evenodd" clip-rule="evenodd" d="M53.3433 39.2262C52.6802 38.3735 48.9538 38.8156 47.2644 39.0209C46.7591 39.0841 46.6802 38.642 47.138 38.3104C50.1065 36.2262 54.9854 36.8262 55.5538 37.5209C56.1223 38.2314 55.3959 43.1104 52.617 45.4472C52.1907 45.8104 51.7802 45.6209 51.9696 45.1472C52.6012 43.5841 54.0065 40.063 53.3433 39.2262Z" fill="#FF9900"/>
</g>
<defs>
<clipPath id="clip0_5586_18942">
<rect width="48" height="28.7368" fill="white" transform="translate(8 19)"/>
</clipPath>
</defs>
</svg>
