<svg width="32" height="32" viewBox="0 0 32 32" fill="none" xmlns="http://www.w3.org/2000/svg">
<path d="M25.168 5.99984H13.5013C13.043 5.99984 12.668 6.37275 12.668 6.83317V7.6665H9.33464V6.83317C9.33464 4.53213 11.1992 2.6665 13.5013 2.6665H25.168C27.4701 2.6665 29.3346 4.53213 29.3346 6.83317V18.4998C29.3346 20.8019 27.4701 22.6665 25.168 22.6665H24.3346V19.3332H25.168C25.6263 19.3332 26.0013 18.9582 26.0013 18.4998V6.83317C26.0013 6.37275 25.6263 5.99984 25.168 5.99984ZM2.66797 12.6665C2.66797 10.828 4.16016 9.33317 6.0013 9.33317H19.3346C21.1732 9.33317 22.668 10.828 22.668 12.6665V25.9998C22.668 27.8384 21.1732 29.3332 19.3346 29.3332H6.0013C4.16016 29.3332 2.66797 27.8384 2.66797 25.9998V12.6665Z" fill="#7363E0"/>
</svg>
