<svg width="32" height="32" viewBox="0 0 32 32" fill="none" xmlns="http://www.w3.org/2000/svg">
<path fill-rule="evenodd" clip-rule="evenodd" d="M22.668 2.66748H6.0013C4.15859 2.66748 2.66797 4.15811 2.66797 6.00081V22.6675C2.66797 24.5102 4.15859 26.0008 6.0013 26.0008H9.92901C9.90337 25.7821 9.89019 25.5597 9.89019 25.3342C9.89019 23.2798 10.9822 21.4835 12.6146 20.49C13.0256 17.5137 15.5784 15.223 18.668 15.223C20.3993 15.223 21.9591 15.9432 23.0694 17.0958C23.3798 17.0306 23.693 17.0008 24.0013 17.0008C24.7214 17.0008 25.402 17.1749 26.0013 17.4848V6.00081C26.0013 4.15811 24.5117 2.66748 22.668 2.66748ZM7.66797 15.1675C7.66797 15.631 7.29714 16.0008 6.83464 16.0008C6.37214 16.0008 6.0013 15.631 6.0013 15.1675V6.83415C6.0013 6.37061 6.37266 6.00081 6.83464 6.00081C7.29661 6.00081 7.66797 6.37061 7.66797 6.83415V15.1675ZM11.0013 15.1675C11.0013 15.631 10.6315 16.0008 10.168 16.0008C9.70443 16.0008 9.33464 15.631 9.33464 15.1675V6.83415C9.33464 6.37061 9.70443 6.00081 10.168 6.00081C10.6315 6.00081 11.0013 6.37061 11.0013 6.83415V15.1675ZM14.3346 15.1675C14.3346 15.631 13.9648 16.0008 13.5013 16.0008C13.0378 16.0008 12.668 15.631 12.668 15.1675V6.83415C12.668 6.37061 13.0378 6.00081 13.5013 6.00081C13.9648 6.00081 14.3346 6.37061 14.3346 6.83415V15.1675ZM14.2227 21.3339C14.2227 21.4089 14.2246 21.4839 14.2282 21.5589C12.6718 22.1062 11.556 23.5895 11.556 25.3339C11.556 27.5423 13.3468 29.3339 15.556 29.3339H25.7782C27.7421 29.3339 29.3338 27.7423 29.3338 25.7784C29.3338 24.0589 28.1115 22.6228 26.4893 22.295C26.6032 21.995 26.6671 21.6728 26.6671 21.3339C26.6671 19.8367 25.4727 18.6673 24.0004 18.6673C23.4532 18.6673 22.9421 18.8089 22.5199 19.1173C21.7504 17.7853 20.3143 16.8895 18.6671 16.8895C16.2115 16.8895 14.2227 18.8784 14.2227 21.3339Z" fill="#7363E0"/>
</svg>
