<svg width="32" height="32" viewBox="0 0 32 32" fill="none" xmlns="http://www.w3.org/2000/svg">
<path d="M29.2256 16.6607L24.19 14.6915C24.0095 14.6202 23.6379 14.5272 23.2166 14.6915L18.1787 16.6607C17.7062 16.84 17.4 17.2732 17.4 17.7107C17.4 22.5932 20.4078 25.9707 23.2144 27.0688C23.6355 27.2329 24.0019 27.1399 24.1878 27.0688C26.43 26.2332 30 23.1969 30 17.7107C30 17.2732 29.6937 16.84 29.2256 16.6607ZM23.7 25.0301V16.7526L27.8781 18.3879C27.6331 22.2038 25.2137 24.3125 23.7 25.0301ZM11.8 16C14.8931 16 17.4 13.4927 17.4 10.4C17.4 7.30736 14.8931 4.80005 11.8 4.80005C8.70687 4.80005 6.2 7.30736 6.2 10.4C6.2 13.4927 8.70687 16 11.8 16ZM16.0262 18.3757C15.3831 18.2007 14.7137 18.1 14.0181 18.1H9.58187C5.39544 18.1 2 21.4994 2 25.6863C2 26.5219 2.679 27.2001 3.51637 27.2001H20.0819C20.2194 27.2001 20.3429 27.1561 20.4695 27.1218C18.1744 25.3538 16.1794 22.3132 16.0262 18.3757Z" fill="#7363E0"/>
</svg>
