<svg width="32" height="32" viewBox="0 0 32 32" fill="none" xmlns="http://www.w3.org/2000/svg">
<path d="M10.3049 8.71744C10.3198 8.59095 10.3867 8.4719 10.4834 8.3975C10.5876 8.32309 10.7141 8.28589 10.8406 8.30821L11.7811 8.48529C11.9001 8.50017 12.0192 8.56714 12.0936 8.66386C12.168 8.71744 12.2096 8.89601 12.1918 9.02101L10.7573 19.7829H26.4775L24.9894 7.87815C24.7513 6.02696 23.1293 4.59839 21.2096 4.59839H10.793C8.87333 4.59839 7.2513 6.02696 7.01321 7.87815L5.52511 19.7829H8.82868L10.3049 8.71744ZM28.3823 21.6877H3.62035C3.09208 21.6877 2.66797 22.1103 2.66797 22.6401V26.4496C2.66797 26.9793 3.09208 27.402 3.62035 27.402H28.3823C28.9105 27.402 29.3346 26.9779 29.3346 26.4496V22.6401C29.3346 22.1103 28.912 21.6877 28.3823 21.6877Z" fill="#7363E0"/>
</svg>
