<svg width="32" height="32" viewBox="0 0 32 32" fill="none" xmlns="http://www.w3.org/2000/svg">
<path d="M16.1712 16.5171L11.6918 21.0017L13.8429 23.1581C14.494 23.8091 14.494 24.8613 13.8429 25.5123C13.1918 26.1634 12.1397 26.1634 11.4886 25.5123L9.33228 23.3612L8.35567 24.3352L10.5094 26.4916C11.1605 27.1426 11.1605 28.1948 10.5094 28.8458C9.85834 29.4969 8.80465 29.4969 8.15357 28.8458L4.82018 25.5123C4.16931 24.8613 4.16931 23.8091 4.82018 23.1581L13.8169 14.1628C13.0877 13.0065 12.6189 11.6367 12.6189 10.1678C12.6189 6.02546 16.0253 2.66748 20.1661 2.66748C24.307 2.66748 27.6665 6.02546 27.6665 10.1678C27.6665 14.3087 24.307 17.6682 20.1661 17.6682C18.6973 17.6682 17.3275 17.2463 16.1712 16.5171ZM20.1661 14.3347C22.4683 14.3347 24.333 12.47 24.333 10.1678C24.333 7.86669 22.4683 6.00098 20.1661 6.00098C17.8639 6.00098 15.9993 7.86669 15.9993 10.1678C15.9993 12.47 17.8639 14.3347 20.1661 14.3347Z" fill="#7363E0"/>
</svg>
