<svg width="64" height="64" viewBox="0 0 64 64" fill="none" xmlns="http://www.w3.org/2000/svg">
<rect width="64" height="64" rx="8" fill="#2D2D33"/>
<path d="M32.0042 38.0339V33.3966C36.9127 33.3966 40.7229 28.5288 38.8381 23.3627C38.1466 21.4644 36.6144 19.9322 34.7025 19.2407C29.5364 17.3695 24.6687 21.1661 24.6687 26.0746H20.0449C20.0449 18.2508 27.611 12.1492 35.8144 14.7119C39.3941 15.8373 42.2551 18.6847 43.367 22.2644C45.9297 30.4678 39.828 38.0339 32.0042 38.0339Z" fill="#0080FF"/>
<path fill-rule="evenodd" clip-rule="evenodd" d="M32.0163 33.4238H27.3926V28.8H32.0163V33.4238Z" fill="#0080FF"/>
<path fill-rule="evenodd" clip-rule="evenodd" d="M27.3945 36.9628H23.8555V33.4238H27.3945V36.9628Z" fill="#0080FF"/>
<path fill-rule="evenodd" clip-rule="evenodd" d="M23.8543 33.4236H20.8848V30.4541H23.8543V33.4236Z" fill="#0080FF"/>
<path d="M12.2295 42.7255C11.6328 42.3052 10.8735 42.1018 10.0057 42.1018H8.10742V48.1357H10.0193C10.8871 48.1357 11.6464 47.9188 12.243 47.4713C12.5684 47.2408 12.8261 46.9154 13.0159 46.5086C13.1922 46.1018 13.2871 45.6137 13.2871 45.0849C13.2871 44.556 13.1922 44.0815 13.0159 43.6747C12.8261 43.2679 12.5684 42.9425 12.2295 42.7255ZM9.21929 43.1188H9.8159C10.4803 43.1188 11.0227 43.2543 11.443 43.512C11.904 43.7967 12.1345 44.3255 12.1345 45.0849C12.1345 45.8713 11.904 46.4272 11.443 46.7255C11.0498 46.9832 10.5074 47.1188 9.82946 47.1188H9.21929V43.1188Z" fill="#0080FF"/>
<path d="M14.6019 42.0205C14.4121 42.0205 14.2629 42.0883 14.1273 42.2103C14.0053 42.3324 13.9375 42.4815 13.9375 42.6714C13.9375 42.8612 14.0053 43.0103 14.1273 43.1459C14.2494 43.268 14.4121 43.3358 14.6019 43.3358C14.7782 43.3358 14.9409 43.268 15.0765 43.1459C15.1985 43.0239 15.2663 42.8612 15.2663 42.6714C15.2663 42.4815 15.1985 42.3324 15.0765 42.2103C14.9409 42.0883 14.7782 42.0205 14.6019 42.0205Z" fill="#0080FF"/>
<path d="M15.1317 43.8782H14.0605V48.1358H15.1317V43.8782Z" fill="#0080FF"/>
<path d="M19.0229 44.2306C18.6975 43.9458 18.345 43.7695 17.9518 43.7695C17.3551 43.7695 16.867 43.9729 16.4873 44.3797C16.1077 44.7729 15.9043 45.2882 15.9043 45.9119C15.9043 46.5085 16.0941 47.0238 16.4738 47.4305C16.8534 47.8238 17.3551 48.0272 17.9382 48.0272C18.345 48.0272 18.7111 47.9187 18.9958 47.6882V47.7831C18.9958 48.1356 18.9009 48.4068 18.7111 48.5967C18.5212 48.7865 18.2636 48.8814 17.9382 48.8814C17.4501 48.8814 17.1382 48.6916 16.7585 48.1763L16.0263 48.8814L16.0399 48.9085C16.2026 49.1255 16.4331 49.3424 16.7585 49.5458C17.0704 49.7492 17.4772 49.8577 17.9518 49.8577C18.589 49.8577 19.1043 49.6678 19.484 49.2746C19.8636 48.8814 20.0534 48.3661 20.0534 47.7289V43.8644H18.9958V44.2306H19.0229ZM18.7382 46.7526C18.5484 46.9695 18.3043 47.0644 18.006 47.0644C17.6941 47.0644 17.4636 46.956 17.2738 46.7526C17.084 46.5356 17.0026 46.2644 17.0026 45.9255C17.0026 45.5729 17.0975 45.3017 17.2738 45.0848C17.4501 44.8678 17.7077 44.7729 18.006 44.7729C18.3179 44.7729 18.5484 44.8814 18.7382 45.0848C18.928 45.3017 19.0229 45.5865 19.0229 45.9255C19.0229 46.2644 18.928 46.5356 18.7382 46.7526Z" fill="#0080FF"/>
<path d="M22.0595 43.8782H20.9883V48.1358H22.0595V43.8782Z" fill="#0080FF"/>
<path d="M21.5316 42.0205C21.3418 42.0205 21.1926 42.0883 21.057 42.2103C20.935 42.3324 20.8672 42.4815 20.8672 42.6714C20.8672 42.8612 20.935 43.0103 21.057 43.1459C21.1791 43.268 21.3418 43.3358 21.5316 43.3358C21.7079 43.3358 21.8706 43.268 22.0062 43.1459C22.1282 43.0239 22.196 42.8612 22.196 42.6714C22.196 42.4815 22.1282 42.3324 22.0062 42.2103C21.8706 42.0883 21.7214 42.0205 21.5316 42.0205Z" fill="#0080FF"/>
<path d="M24.4061 42.7256H23.3485V43.8781H22.7383V44.8544H23.3485V46.6171C23.3485 47.173 23.4569 47.5663 23.6739 47.7968C23.8908 48.0273 24.284 48.1358 24.8264 48.1358C25.0027 48.1358 25.179 48.1358 25.3417 48.1222H25.3959V47.1459L25.0298 47.1595C24.7722 47.1595 24.6095 47.1188 24.5281 47.0239C24.4468 46.929 24.4061 46.7391 24.4061 46.4544V44.8408H25.4095V43.8646H24.4061V42.7256Z" fill="#0080FF"/>
<path d="M31.497 42.0884H30.4258V48.1358H31.497V42.0884Z" fill="#0080FF"/>
<path d="M42.3186 46.6172C42.1287 46.8342 41.9254 47.024 41.7762 47.1189C41.6271 47.2138 41.4372 47.2681 41.2203 47.2681C40.9084 47.2681 40.6508 47.1596 40.4474 46.9155C40.244 46.685 40.1355 46.3731 40.1355 46.0206C40.1355 45.6545 40.244 45.3562 40.4474 45.1257C40.6508 44.8952 40.9084 44.7731 41.2203 44.7731C41.5593 44.7731 41.9254 44.9901 42.2372 45.3562L42.9423 44.6782C42.4813 44.0816 41.8982 43.7969 41.1932 43.7969C40.6101 43.7969 40.0948 44.0138 39.6745 44.4342C39.2542 44.8545 39.0508 45.3833 39.0508 46.0206C39.0508 46.6579 39.2677 47.1867 39.6745 47.607C40.0948 48.0274 40.5965 48.2443 41.1932 48.2443C41.966 48.2443 42.5898 47.9053 43.0237 47.2952L42.3186 46.6172Z" fill="#0080FF"/>
<path d="M46.725 44.4747C46.5758 44.2578 46.3724 44.0951 46.1148 43.973C45.8572 43.851 45.5589 43.7832 45.2335 43.7832C44.6368 43.7832 44.1487 44.0002 43.7826 44.4341C43.4301 44.868 43.2402 45.3968 43.2402 46.0341C43.2402 46.6849 43.4436 47.2137 43.8233 47.6205C44.2165 48.0273 44.7318 48.2307 45.369 48.2307C46.0877 48.2307 46.6843 47.9324 47.1318 47.3629L47.1589 47.3357L46.4538 46.6578C46.386 46.7391 46.2911 46.8205 46.2097 46.9018C46.1013 46.9968 46.0063 47.0781 45.8979 47.1324C45.7352 47.2137 45.5589 47.2544 45.3555 47.2544C45.0572 47.2544 44.8131 47.173 44.6233 46.9968C44.447 46.8341 44.3385 46.6171 44.3114 46.3459H47.1453L47.1589 45.9527C47.1589 45.6815 47.1182 45.4103 47.0504 45.1663C46.9826 44.9222 46.8741 44.6917 46.725 44.4747ZM44.3792 45.4781C44.4335 45.2747 44.5284 45.0985 44.664 44.9764C44.8131 44.8273 45.0029 44.7595 45.2199 44.7595C45.4775 44.7595 45.6809 44.8273 45.8165 44.9764C45.9385 45.112 46.0199 45.2747 46.0335 45.4781H44.3792Z" fill="#0080FF"/>
<path d="M50.8315 44.2035C50.5061 43.9324 50.0587 43.7832 49.5027 43.7832C49.1502 43.7832 48.8112 43.8646 48.5129 44.0137C48.2281 44.1493 47.957 44.3934 47.7807 44.6917L47.7942 44.7052L48.4858 45.3561C48.7705 44.9086 49.0824 44.7459 49.5027 44.7459C49.7332 44.7459 49.9095 44.8002 50.0587 44.9222C50.1942 45.0442 50.2756 45.1934 50.2756 45.3832V45.5866C50.0044 45.5052 49.7468 45.4646 49.4892 45.4646C48.9603 45.4646 48.5265 45.5866 48.201 45.8307C47.8756 46.0747 47.7129 46.4408 47.7129 46.9018C47.7129 47.3086 47.8485 47.6205 48.1332 47.8646C48.418 48.0951 48.757 48.2171 49.1637 48.2171C49.5705 48.2171 49.9502 48.0544 50.3027 47.7696V48.1222H51.3603V45.3832C51.3197 44.8815 51.157 44.4747 50.8315 44.2035ZM48.9332 46.5086C49.0553 46.4273 49.2315 46.3866 49.4485 46.3866C49.7061 46.3866 49.9773 46.4408 50.262 46.5357V46.9561C50.0315 47.173 49.7197 47.2815 49.34 47.2815C49.1502 47.2815 49.0146 47.2408 48.9061 47.1595C48.8112 47.0781 48.757 46.9832 48.757 46.8476C48.757 46.6985 48.8112 46.59 48.9332 46.5086Z" fill="#0080FF"/>
<path d="M55.4431 44.2849C55.1448 43.9459 54.7245 43.7832 54.1957 43.7832C53.7753 43.7832 53.4228 43.9052 53.1652 44.1493V43.8917H52.1211V48.1357H53.1923V45.79C53.1923 45.4646 53.2736 45.2069 53.4228 45.0307C53.5719 44.8544 53.7753 44.7595 54.0601 44.7595C54.3041 44.7595 54.4804 44.8408 54.616 45.0035C54.7516 45.1663 54.8194 45.3968 54.8194 45.6679V48.1357H55.8906V45.6679C55.8906 45.0849 55.7414 44.6103 55.4431 44.2849Z" fill="#0080FF"/>
<path d="M29.0835 44.2035C28.7581 43.9324 28.3106 43.7832 27.7547 43.7832C27.4021 43.7832 27.0631 43.8646 26.7648 44.0137C26.4801 44.1493 26.2089 44.3934 26.0326 44.6917L26.0462 44.7052L26.7377 45.3561C27.0225 44.9086 27.3343 44.7459 27.7547 44.7459C27.9852 44.7459 28.1615 44.8002 28.3106 44.9222C28.4462 45.0442 28.5276 45.1934 28.5276 45.3832V45.5866C28.2564 45.5052 27.9987 45.4646 27.7411 45.4646C27.2123 45.4646 26.7784 45.5866 26.453 45.8307C26.1276 46.0747 25.9648 46.4408 25.9648 46.9018C25.9648 47.3086 26.1004 47.6205 26.3852 47.8646C26.6699 48.0951 27.0089 48.2171 27.4157 48.2171C27.8225 48.2171 28.2021 48.0544 28.5547 47.7696V48.1222H29.6123V45.3832C29.5716 44.8815 29.4089 44.4747 29.0835 44.2035ZM27.1852 46.5086C27.3072 46.4273 27.4835 46.3866 27.7004 46.3866C27.9581 46.3866 28.2293 46.4408 28.514 46.5357V46.9561C28.2835 47.173 27.9716 47.2815 27.592 47.2815C27.4021 47.2815 27.2665 47.2408 27.1581 47.1595C27.0631 47.0781 27.0089 46.9832 27.0089 46.8476C27.0089 46.6985 27.0631 46.59 27.1852 46.5086Z" fill="#0080FF"/>
<path d="M35.3882 48.2307C33.6661 48.2307 32.2695 46.8341 32.2695 45.1121C32.2695 43.39 33.6661 41.9934 35.3882 41.9934C37.1102 41.9934 38.5068 43.39 38.5068 45.1121C38.5068 46.8341 37.1102 48.2307 35.3882 48.2307ZM35.3882 43.0917C34.2763 43.0917 33.3678 44.0002 33.3678 45.1121C33.3678 46.2239 34.2763 47.1324 35.3882 47.1324C36.5 47.1324 37.4085 46.2239 37.4085 45.1121C37.4085 44.0002 36.5 43.0917 35.3882 43.0917Z" fill="#0080FF"/>
</svg>
