<svg width="32" height="32" viewBox="0 0 32 32" fill="none" xmlns="http://www.w3.org/2000/svg">
<path d="M9.7513 26.8341H5.16797V22.2508C5.16797 21.5581 4.60807 21.0008 3.91797 21.0008C3.22786 21.0008 2.66797 21.5581 2.66797 22.2508V27.6675C2.66797 28.5878 3.41432 29.3341 4.33464 29.3341H9.7513C10.444 29.3341 11.0013 28.7769 11.0013 28.0841C11.0013 27.3914 10.444 26.8341 9.7513 26.8341ZM3.91797 11.0008C4.60807 11.0008 5.16797 10.4435 5.16797 9.75081V5.16748H9.7513C10.444 5.16748 11.0013 4.60758 11.0013 3.91748C11.0013 3.22738 10.444 2.66748 9.7513 2.66748H4.33464C3.41432 2.66748 2.66797 3.41383 2.66797 4.33415V9.75081C2.66797 10.4435 3.22786 11.0008 3.91797 11.0008ZM24.3346 16.0008C24.3346 11.3982 20.6039 7.66748 16.0013 7.66748C11.3987 7.66748 7.66797 11.3966 7.66797 16.0008C7.66797 20.605 11.3987 24.3341 16.0013 24.3341C20.6039 24.3341 24.3346 20.605 24.3346 16.0008ZM18.918 12.6675C19.6081 12.6675 20.168 13.2274 20.168 13.9175C20.168 14.6076 19.6107 15.1675 18.918 15.1675C18.2253 15.1675 17.668 14.6102 17.668 13.9175C17.668 13.2248 18.2253 12.6675 18.918 12.6675ZM13.0846 12.6675C13.7773 12.6675 14.3346 13.2248 14.3346 13.9175C14.3346 14.6102 13.7773 15.1675 13.0846 15.1675C12.3919 15.1675 11.8346 14.6102 11.8346 13.9175C11.8346 13.2248 12.3919 12.6675 13.0846 12.6675ZM20.3503 19.0581C19.2409 20.2925 17.6576 21.0008 16.0013 21.0008C14.3451 21.0008 12.7607 20.293 11.6539 19.0581C11.3451 18.7144 11.3763 18.1883 11.7201 17.881C12.0618 17.5726 12.5878 17.6019 12.8966 17.9445C14.4789 19.7107 17.5289 19.7107 19.1102 17.9445C19.4178 17.6027 19.9451 17.5743 20.2867 17.881C20.6284 18.1878 20.6576 18.7144 20.3503 19.0581ZM27.668 2.66748H22.2513C21.5586 2.66748 21.0013 3.22738 21.0013 3.91748C21.0013 4.60758 21.5612 5.16748 22.2513 5.16748H26.8346V9.75081C26.8346 10.4435 27.3919 11.0008 28.0846 11.0008C28.7773 11.0008 29.3346 10.4435 29.3346 9.75081V4.33415C29.3346 3.41383 28.5898 2.66748 27.668 2.66748ZM28.0846 21.0008C27.3945 21.0008 26.8346 21.5607 26.8346 22.2508V26.8341H22.2513C21.5612 26.8341 21.0013 27.394 21.0013 28.0841C21.0013 28.7743 21.5586 29.3341 22.2513 29.3341H27.668C28.5883 29.3341 29.3346 28.5878 29.3346 27.6675V22.2508C29.3346 21.5581 28.7773 21.0008 28.0846 21.0008Z" fill="#7363E0"/>
</svg>
