<svg width="64" height="64" viewBox="0 0 64 64" fill="none" xmlns="http://www.w3.org/2000/svg">
<rect width="64" height="64" rx="10.6667" fill="#003399"/>
<path d="M31.9883 5.33594L30.8273 8.93578L32.6139 9.52061L31.9883 5.33594Z" fill="#FFCC00"/>
<path d="M31.9883 5.33594L33.1493 8.93578L31.3627 9.52061L31.9883 5.33594Z" fill="#FFCC00"/>
<path d="M35.5664 7.95056L31.8125 7.95737L31.8091 9.84298L35.5664 7.95056Z" fill="#FFCC00"/>
<path d="M35.5664 7.94666L32.5237 10.1742L31.4222 8.64663L35.5664 7.94666Z" fill="#FFCC00"/>
<path d="M34.1992 12.1803L33.0406 8.58289L31.2511 9.16948L34.1992 12.1803Z" fill="#FFCC00"/>
<path d="M34.1992 12.1829L31.1609 9.96049L32.2671 8.42764L34.1992 12.1829Z" fill="#FFCC00"/>
<path d="M28.4219 7.94861L32.1758 7.95506L32.179 9.84067L28.4219 7.94861Z" fill="#FFCC00"/>
<path d="M28.4219 7.94666L31.4646 10.1742L32.5661 8.64663L28.4219 7.94666Z" fill="#FFCC00"/>
<path d="M29.7891 12.1809L30.9478 8.58354L32.7373 9.17007L29.7891 12.1809Z" fill="#FFCC00"/>
<path d="M29.7891 12.1829L32.8273 9.96038L31.7212 8.42749L29.7891 12.1829Z" fill="#FFCC00"/>
<path d="M31.9883 50.7578L30.8273 54.3577L32.6139 54.9425L31.9883 50.7578Z" fill="#FFCC00"/>
<path d="M31.9883 50.7578L33.1493 54.3577L31.3627 54.9425L31.9883 50.7578Z" fill="#FFCC00"/>
<path d="M35.5664 53.3724L31.8125 53.3792L31.8091 55.2649L35.5664 53.3724Z" fill="#FFCC00"/>
<path d="M35.5664 53.3685L32.5237 55.5961L31.4222 54.0685L35.5664 53.3685Z" fill="#FFCC00"/>
<path d="M34.1992 57.6022L33.0406 54.0048L31.2511 54.5914L34.1992 57.6022Z" fill="#FFCC00"/>
<path d="M34.1992 57.6047L31.1609 55.3824L32.2671 53.8495L34.1992 57.6047Z" fill="#FFCC00"/>
<path d="M28.4219 53.3705L32.1758 53.3769L32.179 55.2625L28.4219 53.3705Z" fill="#FFCC00"/>
<path d="M28.4219 53.3685L31.4646 55.5961L32.5661 54.0685L28.4219 53.3685Z" fill="#FFCC00"/>
<path d="M29.7891 57.6028L30.9478 54.0054L32.7373 54.5919L29.7891 57.6028Z" fill="#FFCC00"/>
<path d="M29.7891 57.6047L32.8273 55.3823L31.7212 53.8494L29.7891 57.6047Z" fill="#FFCC00"/>
<path d="M9.45117 28.0472L8.28977 31.6469L10.0764 32.2316L9.45117 28.0472Z" fill="#FFCC00"/>
<path d="M9.45117 28.0472L10.6126 31.6469L8.82594 32.2316L9.45117 28.0472Z" fill="#FFCC00"/>
<path d="M13.0312 30.6627L9.27735 30.6695L9.27398 32.5551L13.0312 30.6627Z" fill="#FFCC00"/>
<path d="M13.0312 30.6588L9.98849 32.8863L8.88703 31.3588L13.0312 30.6588Z" fill="#FFCC00"/>
<path d="M11.6602 34.8911L10.5016 31.2937L8.71205 31.8803L11.6602 34.8911Z" fill="#FFCC00"/>
<path d="M11.6602 34.8937L8.6218 32.6713L9.72802 31.1385L11.6602 34.8937Z" fill="#FFCC00"/>
<path d="M5.87695 30.6604L9.63085 30.6672L9.63422 32.5528L5.87695 30.6604Z" fill="#FFCC00"/>
<path d="M5.87695 30.6578L8.91971 32.8854L10.0212 31.3578L5.87695 30.6578Z" fill="#FFCC00"/>
<path d="M7.24805 34.8896L8.40678 31.2919L10.1961 31.8784L7.24805 34.8896Z" fill="#FFCC00"/>
<path d="M7.24805 34.8922L10.286 32.6701L9.17971 31.1371L7.24805 34.8922Z" fill="#FFCC00"/>
<path d="M18.5117 15.2271L21.5499 13.0047L20.4436 11.4717L18.5117 15.2271Z" fill="#FFCC00"/>
<path d="M18.5078 15.2251L19.6663 11.6278L21.4559 12.2145L18.5078 15.2251Z" fill="#FFCC00"/>
<path d="M17.1426 10.9902L20.1842 13.2165L21.2869 11.6874L17.1426 10.9902Z" fill="#FFCC00"/>
<path d="M17.1426 10.9916L20.8984 10.9953L20.9002 12.8838L17.1426 10.9916Z" fill="#FFCC00"/>
<path d="M20.7168 8.37744L19.5584 11.9746L21.3481 12.5613L20.7168 8.37744Z" fill="#FFCC00"/>
<path d="M20.7168 8.37744L21.8808 11.9786L20.0967 12.5613L20.7168 8.37744Z" fill="#FFCC00"/>
<path d="M22.9414 15.2257L19.8996 12.9994L21.0023 11.4705L22.9414 15.2257Z" fill="#FFCC00"/>
<path d="M22.9414 15.2271L21.7777 11.6263L19.9932 12.2092L22.9414 15.2271Z" fill="#FFCC00"/>
<path d="M24.3008 10.9941L21.262 13.2171L20.1563 11.6848L24.3008 10.9941Z" fill="#FFCC00"/>
<path d="M24.3008 10.9954L20.5444 10.9924L20.5459 12.8815L24.3008 10.9954Z" fill="#FFCC00"/>
<path d="M14.6758 23.5345L13.5172 19.9373L11.7275 20.5239L14.6758 23.5345Z" fill="#FFCC00"/>
<path d="M14.6699 23.5372L11.6317 21.315L12.738 19.782L14.6699 23.5372Z" fill="#FFCC00"/>
<path d="M10.2559 23.5396L13.2977 21.3133L12.195 19.7845L10.2559 23.5396Z" fill="#FFCC00"/>
<path d="M10.2559 23.5415L11.4194 19.9407L13.2039 20.5237L10.2559 23.5415Z" fill="#FFCC00"/>
<path d="M8.89062 19.308L11.9295 21.5309L13.0352 19.9986L8.89062 19.308Z" fill="#FFCC00"/>
<path d="M8.89062 19.3092L12.647 19.3062L12.6455 21.1954L8.89062 19.3092Z" fill="#FFCC00"/>
<path d="M16.0352 19.3022L12.9935 21.5284L11.8908 19.9994L16.0352 19.3022Z" fill="#FFCC00"/>
<path d="M16.0352 19.3036L12.2794 19.3073L12.2775 21.1958L16.0352 19.3036Z" fill="#FFCC00"/>
<path d="M12.4629 16.6901L13.6213 20.2873L11.8316 20.874L12.4629 16.6901Z" fill="#FFCC00"/>
<path d="M12.4629 16.6901L11.2989 20.2913L13.083 20.874L12.4629 16.6901Z" fill="#FFCC00"/>
<path d="M16.041 42.0181L12.2885 42.0273L12.2839 43.9101L16.041 42.0181Z" fill="#FFCC00"/>
<path d="M16.041 42.0135L12.9972 44.2428L11.8972 42.7165L16.041 42.0135Z" fill="#FFCC00"/>
<path d="M14.666 46.2451L13.5118 42.6507L11.7179 43.2405L14.666 46.2451Z" fill="#FFCC00"/>
<path d="M14.666 46.2502L11.6307 44.0314L12.74 42.495L14.666 46.2502Z" fill="#FFCC00"/>
<path d="M10.2539 46.2491L13.297 44.0213L12.1957 42.494L10.2539 46.2491Z" fill="#FFCC00"/>
<path d="M10.2598 46.2531L11.4253 42.6509L13.2079 43.2324L10.2598 46.2531Z" fill="#FFCC00"/>
<path d="M12.4727 39.4041L13.6279 42.9992L11.8352 43.5882L12.4727 39.4041Z" fill="#FFCC00"/>
<path d="M12.4727 39.4041L11.3053 43.0079L13.086 43.5882L12.4727 39.4041Z" fill="#FFCC00"/>
<path d="M8.90039 42.0217L12.6558 42.0179L12.654 43.9065L8.90039 42.0217Z" fill="#FFCC00"/>
<path d="M8.89648 42.0192L11.9347 44.2422L13.0405 42.7094L8.89648 42.0192Z" fill="#FFCC00"/>
<path d="M24.2988 50.3301L20.5463 50.3397L20.5416 52.2225L24.2988 50.3301Z" fill="#FFCC00"/>
<path d="M24.2988 50.3262L21.2548 52.5551L20.1546 51.029L24.2988 50.3262Z" fill="#FFCC00"/>
<path d="M22.9277 54.5565L21.7736 50.9621L19.9797 51.5519L22.9277 54.5565Z" fill="#FFCC00"/>
<path d="M22.9277 54.5604L19.8924 52.3415L21.0017 50.8052L22.9277 54.5604Z" fill="#FFCC00"/>
<path d="M18.5176 54.5619L21.5607 52.3341L20.4594 50.8067L18.5176 54.5619Z" fill="#FFCC00"/>
<path d="M18.5234 54.5658L19.689 50.9636L21.4716 51.5452L18.5234 54.5658Z" fill="#FFCC00"/>
<path d="M20.7207 47.7129L21.876 51.308L20.0832 51.8971L20.7207 47.7129Z" fill="#FFCC00"/>
<path d="M20.7207 47.7129L19.5533 51.3168L21.3341 51.8971L20.7207 47.7129Z" fill="#FFCC00"/>
<path d="M17.1367 50.3319L20.8925 50.328L20.8906 52.2164L17.1367 50.3319Z" fill="#FFCC00"/>
<path d="M17.1328 50.33L20.1711 52.5523L21.2772 51.0195L17.1328 50.33Z" fill="#FFCC00"/>
<path d="M54.5371 28.0474L55.6985 31.6471L53.9119 32.2317L54.5371 28.0474Z" fill="#FFCC00"/>
<path d="M54.5371 28.0474L53.3757 31.6471L55.1623 32.2317L54.5371 28.0474Z" fill="#FFCC00"/>
<path d="M50.9609 30.6635L54.7148 30.6703L54.7182 32.5559L50.9609 30.6635Z" fill="#FFCC00"/>
<path d="M50.9609 30.6595L54.0037 32.8871L55.1052 31.3595L50.9609 30.6595Z" fill="#FFCC00"/>
<path d="M52.3242 34.8906L53.4828 31.2932L55.2723 31.8798L52.3242 34.8906Z" fill="#FFCC00"/>
<path d="M52.3242 34.8932L55.3626 32.6708L54.2564 31.138L52.3242 34.8932Z" fill="#FFCC00"/>
<path d="M58.1113 30.6638L54.3574 30.6703L54.3542 32.5559L58.1113 30.6638Z" fill="#FFCC00"/>
<path d="M58.1113 30.6599L55.0688 32.8877L53.9675 31.3601L58.1113 30.6599Z" fill="#FFCC00"/>
<path d="M56.7441 34.8944L55.5855 31.297L53.796 31.8836L56.7441 34.8944Z" fill="#FFCC00"/>
<path d="M56.7441 34.8956L53.7058 32.6733L54.812 31.1404L56.7441 34.8956Z" fill="#FFCC00"/>
<path d="M45.4766 15.224L42.4383 13.0017L43.5446 11.4688L45.4766 15.224Z" fill="#FFCC00"/>
<path d="M45.4805 15.2228L44.322 11.6255L42.5324 12.2121L45.4805 15.2228Z" fill="#FFCC00"/>
<path d="M46.8457 10.9889L43.8041 13.2151L42.7014 11.6861L46.8457 10.9889Z" fill="#FFCC00"/>
<path d="M46.8457 10.9902L43.0899 10.9939L43.0881 12.8825L46.8457 10.9902Z" fill="#FFCC00"/>
<path d="M43.2734 8.37634L44.4319 11.9735L42.6422 12.5602L43.2734 8.37634Z" fill="#FFCC00"/>
<path d="M43.2734 8.37634L42.1094 11.9775L43.8935 12.5602L43.2734 8.37634Z" fill="#FFCC00"/>
<path d="M41.0508 15.2252L44.0926 12.9989L42.9899 11.4701L41.0508 15.2252Z" fill="#FFCC00"/>
<path d="M41.0508 15.2266L42.2145 11.6258L43.9989 12.2087L41.0508 15.2266Z" fill="#FFCC00"/>
<path d="M39.6816 10.9934L42.7204 13.2163L43.8262 11.684L39.6816 10.9934Z" fill="#FFCC00"/>
<path d="M39.6816 10.9946L43.438 10.9916L43.4365 12.8808L39.6816 10.9946Z" fill="#FFCC00"/>
<path d="M49.3105 23.5352L50.469 19.9378L52.2587 20.5245L49.3105 23.5352Z" fill="#FFCC00"/>
<path d="M49.3164 23.5378L52.3547 21.3156L51.2484 19.7826L49.3164 23.5378Z" fill="#FFCC00"/>
<path d="M53.7383 23.5377L50.6964 21.3115L51.7991 19.7827L53.7383 23.5377Z" fill="#FFCC00"/>
<path d="M53.7383 23.5397L52.5747 19.9388L50.7902 20.5218L53.7383 23.5397Z" fill="#FFCC00"/>
<path d="M55.1094 19.3068L52.0705 21.5296L50.9648 19.9974L55.1094 19.3068Z" fill="#FFCC00"/>
<path d="M55.1094 19.308L51.353 19.305L51.3545 21.1942L55.1094 19.308Z" fill="#FFCC00"/>
<path d="M47.957 19.3027L50.9987 21.5289L52.1014 19.9999L47.957 19.3027Z" fill="#FFCC00"/>
<path d="M47.957 19.3041L51.7128 19.3078L51.7146 21.1963L47.957 19.3041Z" fill="#FFCC00"/>
<path d="M51.5312 16.6919L50.3728 20.2891L52.1625 20.8758L51.5312 16.6919Z" fill="#FFCC00"/>
<path d="M51.5312 16.6919L52.6953 20.2931L50.9112 20.8758L51.5312 16.6919Z" fill="#FFCC00"/>
<path d="M47.9551 42.0184L51.7076 42.0277L51.7122 43.9105L47.9551 42.0184Z" fill="#FFCC00"/>
<path d="M47.9551 42.0145L50.9989 44.2438L52.0989 42.7175L47.9551 42.0145Z" fill="#FFCC00"/>
<path d="M49.3242 46.2476L50.4784 42.6532L52.2723 43.243L49.3242 46.2476Z" fill="#FFCC00"/>
<path d="M49.3301 46.2515L52.3652 44.0323L51.256 42.4959L49.3301 46.2515Z" fill="#FFCC00"/>
<path d="M53.7402 46.2501L50.6971 44.0223L51.7984 42.495L53.7402 46.2501Z" fill="#FFCC00"/>
<path d="M53.7344 46.254L52.5688 42.6519L50.7862 43.2334L53.7344 46.254Z" fill="#FFCC00"/>
<path d="M51.5234 39.4039L50.3682 42.9991L52.1609 43.5881L51.5234 39.4039Z" fill="#FFCC00"/>
<path d="M51.5234 39.4039L52.6908 43.0078L50.9101 43.5881L51.5234 39.4039Z" fill="#FFCC00"/>
<path d="M55.0957 42.0199L51.3399 42.0161L51.3418 43.9045L55.0957 42.0199Z" fill="#FFCC00"/>
<path d="M55.0996 42.0173L52.0614 44.2398L50.9553 42.707L55.0996 42.0173Z" fill="#FFCC00"/>
<path d="M39.6895 50.3296L43.442 50.3392L43.4467 52.222L39.6895 50.3296Z" fill="#FFCC00"/>
<path d="M39.6895 50.3257L42.7335 52.5546L43.8337 51.0285L39.6895 50.3257Z" fill="#FFCC00"/>
<path d="M41.0527 54.5581L42.2069 50.9637L44.0008 51.5535L41.0527 54.5581Z" fill="#FFCC00"/>
<path d="M41.0527 54.562L44.0881 52.3431L42.9787 50.8068L41.0527 54.562Z" fill="#FFCC00"/>
<path d="M45.4668 54.5632L42.4236 52.3355L43.525 50.8082L45.4668 54.5632Z" fill="#FFCC00"/>
<path d="M45.4609 54.5671L44.2954 50.965L42.5128 51.5465L45.4609 54.5671Z" fill="#FFCC00"/>
<path d="M43.2578 47.7131L42.1025 51.3083L43.8953 51.8973L43.2578 47.7131Z" fill="#FFCC00"/>
<path d="M43.2578 47.7131L44.4252 51.317L42.6445 51.8973L43.2578 47.7131Z" fill="#FFCC00"/>
<path d="M46.8418 50.3328L43.086 50.3289L43.0879 52.2174L46.8418 50.3328Z" fill="#FFCC00"/>
<path d="M46.8457 50.3302L43.8074 52.5526L42.7013 51.0198L46.8457 50.3302Z" fill="#FFCC00"/>
<g clip-path="url(#clip0_5586_11254)">
<path d="M32.0013 21.3335C35.3138 21.3335 38.0013 24.0197 38.0013 27.3335V29.3335H38.668C40.1388 29.3335 41.3346 30.5293 41.3346 32.0002V40.0002C41.3346 41.471 40.1388 42.6668 38.668 42.6668H25.3346C23.8617 42.6668 22.668 41.471 22.668 40.0002V32.0002C22.668 30.5293 23.8617 29.3335 25.3346 29.3335H26.0013V27.3335C26.0013 24.0197 28.6888 21.3335 32.0013 21.3335ZM32.0013 24.0002C30.1596 24.0002 28.668 25.4927 28.668 27.3335V29.3335H35.3346V27.3335C35.3346 25.4927 33.843 24.0002 32.0013 24.0002ZM33.3346 34.6668C33.3346 33.9293 32.7388 33.3335 32.0013 33.3335C31.2638 33.3335 30.668 33.9293 30.668 34.6668V37.3335C30.668 38.071 31.2638 38.6668 32.0013 38.6668C32.7388 38.6668 33.3346 38.071 33.3346 37.3335V34.6668Z" fill="white"/>
</g>
<defs>
<clipPath id="clip0_5586_11254">
<rect width="21.3333" height="21.3333" fill="white" transform="translate(21.334 21.3334)"/>
</clipPath>
</defs>
</svg>
