<svg width="32" height="32" viewBox="0 0 32 32" fill="none" xmlns="http://www.w3.org/2000/svg">
<path d="M27.9 17.4H22.3V13.9C22.3 13.1292 22.9291 12.5 23.7 12.5C24.4709 12.5 25.1 13.1292 25.1 13.9V14.6H27.2V14.1057C27.2 12.2752 25.8862 10.6039 24.0649 10.4189C21.9719 10.2075 20.2 11.8482 20.2 13.9V17.4H19.5C18.345 17.4 17.4 18.345 17.4 19.5V25.1C17.4 26.2551 18.345 27.2001 19.5 27.2001H27.9C29.055 27.2001 30 26.2551 30 25.1V19.5C30 18.345 29.055 17.4 27.9 17.4ZM23.7 23.7001C22.9291 23.7001 22.3 23.0709 22.3 22.3001C22.3 21.5292 22.9291 20.9 23.7 20.9C24.4709 20.9 25.1 21.5292 25.1 22.3001C25.1 23.0709 24.47 23.7001 23.7 23.7001ZM11.8 16C14.8931 16 17.4 13.4927 17.4 10.4C17.4 7.30736 14.8931 4.80005 11.8 4.80005C8.70687 4.80005 6.2 7.30736 6.2 10.4C6.2 13.4927 8.70687 16 11.8 16ZM16 19.5C16 19.1206 16.076 18.762 16.1883 18.4194C15.5013 18.2138 14.7706 18.1 14.0181 18.1H9.58187C5.39544 18.1 2 21.4994 2 25.6863C2 26.5219 2.679 27.2001 3.51637 27.2001H16.7157C16.2756 26.6138 16 25.8919 16 25.1V19.5Z" fill="#7363E0"/>
</svg>
