<svg width="32" height="32" viewBox="0 0 32 32" fill="none" xmlns="http://www.w3.org/2000/svg">
<path d="M27.668 17.6668H4.33464C3.41693 17.6668 2.66797 18.4158 2.66797 19.3335V26.0002C2.66797 26.9179 3.41693 27.6668 4.33464 27.6668H27.668C28.5857 27.6668 29.3346 26.9179 29.3346 26.0002V19.3335C29.3346 18.4168 28.5846 17.6668 27.668 17.6668ZM21.0013 23.9168C20.3112 23.9168 19.7513 23.3569 19.7513 22.6668C19.7513 21.9767 20.3112 21.4168 21.0013 21.4168C21.6914 21.4168 22.2513 21.9767 22.2513 22.6668C22.2513 23.3569 21.694 23.9168 21.0013 23.9168ZM24.3346 23.9168C23.6445 23.9168 23.0846 23.3569 23.0846 22.6668C23.0846 21.9767 23.6445 21.4168 24.3346 21.4168C25.0247 21.4168 25.5846 21.9767 25.5846 22.6668C25.5846 23.3569 25.0273 23.9168 24.3346 23.9168ZM27.668 4.3335H4.33464C3.41693 4.3335 2.66797 5.08245 2.66797 6.00016V12.6668C2.66797 13.5845 3.41693 14.3335 4.33464 14.3335H27.668C28.5857 14.3335 29.3346 13.5845 29.3346 12.6668V6.00016C29.3346 5.08245 28.5846 4.3335 27.668 4.3335ZM21.0013 10.5835C20.3112 10.5835 19.7513 10.0236 19.7513 9.3335C19.7513 8.64339 20.3138 8.0835 21.0013 8.0835C21.6888 8.0835 22.2513 8.646 22.2513 9.3335C22.2513 10.021 21.694 10.5835 21.0013 10.5835ZM24.3346 10.5835C23.6445 10.5835 23.0846 10.0236 23.0846 9.3335C23.0846 8.64339 23.6471 8.0835 24.3346 8.0835C25.0221 8.0835 25.5846 8.646 25.5846 9.3335C25.5846 10.021 25.0273 10.5835 24.3346 10.5835Z" fill="#7363E0"/>
</svg>
