<svg width="112" height="120" viewBox="0 0 112 120" fill="none" xmlns="http://www.w3.org/2000/svg">
<g clip-path="url(#clip0_4539_107)">
<path fill-rule="evenodd" clip-rule="evenodd" d="M0 83.6371V9.08702C0 8.69449 0.28749 8.36117 0.675765 8.30352L56.5173 0.0134696C56.5945 0.00202055 56.6729 0.00202055 56.75 0.0134696L112.592 8.30352C112.98 8.36117 113.267 8.69449 113.267 9.08702V83.6371C113.267 83.9083 113.129 84.1607 112.9 84.3059L57.0579 119.727C56.7989 119.891 56.4684 119.891 56.2094 119.727L0.367807 84.3059C0.138775 84.1607 0 83.9083 0 83.6371Z" fill="url(#paint0_linear_4539_107)"/>
<path fill-rule="evenodd" clip-rule="evenodd" d="M111.109 11.1918C111.07 10.9294 110.827 10.4448 110.649 10.2754L57.399 2.28898C57.3417 2.26609 57.2987 2.28898 56.6337 2.28898C55.9688 2.28898 55.8684 2.28898 55.8684 2.28898L2.51682 10.2754C2.34021 10.4433 2.09761 10.9248 2.05762 11.1842V82.0546C2.09627 82.3164 2.34087 82.7994 2.51882 82.9673L56.6337 117.703L110.65 82.9627C110.827 82.7963 111.067 82.3179 111.106 82.0608L111.109 11.1918Z" fill="#F06A2B"/>
<path fill-rule="evenodd" clip-rule="evenodd" d="M4.71729 12.225V81.0186L56.6336 115.41L108.446 81.0171L108.449 12.2257L56.6336 4.58203L4.71729 12.225Z" fill="url(#paint1_linear_4539_107)"/>
<path fill-rule="evenodd" clip-rule="evenodd" d="M4.5918 81.0152L56.6335 115.41V4.58203L4.71726 12.2253L4.5918 81.0152Z" fill="url(#paint2_linear_4539_107)"/>
<path fill-rule="evenodd" clip-rule="evenodd" d="M4.71726 35.2627H108.449V77.6389L4.5918 77.6213L4.71726 35.2627Z" fill="url(#paint3_linear_4539_107)"/>
<path fill-rule="evenodd" clip-rule="evenodd" d="M4.65367 35.2628L108.515 35.2451L4.5918 77.6214L4.65367 35.2628Z" fill="url(#paint4_linear_4539_107)"/>
<path d="M18.1282 42.8889C17.8246 42.5193 17.4484 42.2354 16.9995 42.0374C16.5639 41.8394 16.0556 41.7404 15.4748 41.7404C14.8939 41.7404 14.3527 41.8526 13.851 42.077C13.3626 42.3014 12.9335 42.6183 12.5639 43.0275C12.2074 43.4236 11.9236 43.8988 11.7124 44.4533C11.5144 45.0077 11.4154 45.6084 11.4154 46.2552C11.4154 46.9153 11.5144 47.5226 11.7124 48.077C11.9236 48.6183 12.2074 49.0935 12.5639 49.5028C12.9203 49.8988 13.3362 50.209 13.8114 50.4335C14.2999 50.6579 14.8213 50.7701 15.3758 50.7701C16.0094 50.7701 16.5705 50.6381 17.0589 50.374C17.5474 50.11 17.95 49.7404 18.2669 49.2651L20.8411 51.1859C20.2471 52.0176 19.4946 52.6315 18.5837 53.0275C17.6728 53.4236 16.7355 53.6216 15.7718 53.6216C14.6761 53.6216 13.6662 53.45 12.7421 53.1067C11.818 52.7635 11.0193 52.275 10.3461 51.6414C9.67279 50.9945 9.14474 50.2156 8.7619 49.3047C8.39227 48.3938 8.20745 47.3773 8.20745 46.2552C8.20745 45.1331 8.39227 44.1166 8.7619 43.2057C9.14474 42.2948 9.67279 41.5226 10.3461 40.8889C11.0193 40.242 11.818 39.747 12.7421 39.4037C13.6662 39.0605 14.6761 38.8889 15.7718 38.8889C16.1678 38.8889 16.5771 38.9285 16.9995 39.0077C17.4352 39.0737 17.8576 39.1859 18.2669 39.3443C18.6893 39.5028 19.0919 39.714 19.4748 39.978C19.8576 40.242 20.2008 40.5655 20.5045 40.9483L18.1282 42.8889ZM31.4069 53.2651H28.5554V51.9582H28.5158C28.4102 52.143 28.2715 52.3278 28.0999 52.5127C27.9415 52.6975 27.7435 52.8625 27.5059 53.0077C27.2682 53.1529 26.9976 53.2717 26.694 53.3641C26.3904 53.4566 26.0603 53.5028 25.7039 53.5028C24.9514 53.5028 24.3376 53.3905 23.8623 53.1661C23.4003 52.9285 23.0372 52.6051 22.7732 52.1958C22.5224 51.7866 22.3508 51.3047 22.2583 50.7503C22.1791 50.1958 22.1395 49.5952 22.1395 48.9483V43.6414H25.1098V48.3542C25.1098 48.6315 25.1164 48.9219 25.1296 49.2255C25.156 49.516 25.2154 49.7866 25.3079 50.0374C25.4135 50.2882 25.5653 50.4929 25.7633 50.6513C25.9745 50.8097 26.2715 50.8889 26.6544 50.8889C27.0372 50.8889 27.3475 50.8229 27.5851 50.6909C27.8227 50.5457 28.0009 50.3608 28.1197 50.1364C28.2517 49.8988 28.3376 49.6348 28.3772 49.3443C28.4168 49.0539 28.4366 48.7503 28.4366 48.4335V43.6414H31.4069V53.2651ZM38.9557 46.4731C38.5201 45.9318 37.9458 45.6612 37.233 45.6612C36.9821 45.6612 36.7379 45.7206 36.5003 45.8394C36.2627 45.9582 36.1439 46.1628 36.1439 46.4533C36.1439 46.6909 36.2627 46.8691 36.5003 46.9879C36.7511 47.0935 37.0614 47.1925 37.431 47.2849C37.8138 47.3641 38.2165 47.4566 38.6389 47.5622C39.0746 47.6546 39.4772 47.8064 39.8468 48.0176C40.2297 48.2288 40.5399 48.5193 40.7775 48.8889C41.0284 49.2453 41.1538 49.7272 41.1538 50.3344C41.1538 50.9549 41.0152 51.4698 40.7379 51.879C40.4739 52.275 40.1307 52.5985 39.7082 52.8493C39.2858 53.0869 38.8105 53.2519 38.2825 53.3443C37.7544 53.45 37.233 53.5028 36.7181 53.5028C36.0449 53.5028 35.365 53.4104 34.6785 53.2255C33.9921 53.0275 33.4112 52.6843 32.9359 52.1958L34.7379 50.1958C35.0152 50.5391 35.3188 50.8031 35.6488 50.9879C35.9921 51.1595 36.3881 51.2453 36.8369 51.2453C37.1802 51.2453 37.4904 51.1991 37.7676 51.1067C38.0449 51.0011 38.1835 50.8163 38.1835 50.5523C38.1835 50.3014 38.0581 50.1166 37.8072 49.9978C37.5696 49.8658 37.2594 49.7602 36.8765 49.681C36.5069 49.5886 36.1043 49.4962 35.6686 49.4038C35.2462 49.2981 34.8435 49.1463 34.4607 48.9483C34.0911 48.7503 33.7808 48.4731 33.53 48.1166C33.2924 47.747 33.1736 47.2585 33.1736 46.6513C33.1736 46.0836 33.2858 45.5952 33.5102 45.1859C33.7478 44.7767 34.0515 44.4401 34.4211 44.176C34.8039 43.912 35.2396 43.7206 35.728 43.6018C36.2165 43.4698 36.7115 43.4037 37.2132 43.4037C37.8468 43.4037 38.4871 43.4962 39.134 43.681C39.7808 43.8658 40.3287 44.1958 40.7775 44.6711L38.9557 46.4731ZM49.2308 46.0176H46.6169V49.2255C46.6169 49.4896 46.6301 49.7338 46.6565 49.9582C46.683 50.1694 46.7424 50.3542 46.8348 50.5127C46.9272 50.6711 47.0658 50.7965 47.2506 50.8889C47.4486 50.9681 47.7061 51.0077 48.0229 51.0077C48.1813 51.0077 48.3859 50.9945 48.6367 50.9681C48.9008 50.9285 49.0988 50.8493 49.2308 50.7305V53.2057C48.9008 53.3245 48.5575 53.4038 48.2011 53.4434C47.8447 53.483 47.4948 53.5028 47.1516 53.5028C46.6499 53.5028 46.1879 53.45 45.7655 53.3443C45.343 53.2387 44.9734 53.0737 44.6565 52.8493C44.3397 52.6117 44.0889 52.308 43.9041 51.9384C43.7325 51.5688 43.6466 51.1199 43.6466 50.5919V46.0176H41.7457V43.6414H43.6466V40.7899H46.6169V43.6414H49.2308V46.0176ZM50.3838 48.4533C50.3838 47.6876 50.5224 46.9945 50.7996 46.374C51.0769 45.7536 51.4531 45.2255 51.9284 44.7899C52.4168 44.341 52.9845 43.9978 53.6313 43.7602C54.2914 43.5226 54.9911 43.4037 55.7303 43.4037C56.4696 43.4037 57.1627 43.5226 57.8096 43.7602C58.4696 43.9978 59.0373 44.341 59.5125 44.7899C60.001 45.2255 60.3838 45.7536 60.661 46.374C60.9383 46.9945 61.0769 47.6876 61.0769 48.4533C61.0769 49.2189 60.9383 49.912 60.661 50.5325C60.3838 51.1529 60.001 51.6876 59.5125 52.1364C59.0373 52.5721 58.4696 52.9087 57.8096 53.1463C57.1627 53.3839 56.4696 53.5028 55.7303 53.5028C54.9911 53.5028 54.2914 53.3839 53.6313 53.1463C52.9845 52.9087 52.4168 52.5721 51.9284 52.1364C51.4531 51.6876 51.0769 51.1529 50.7996 50.5325C50.5224 49.912 50.3838 49.2189 50.3838 48.4533ZM53.3541 48.4533C53.3541 49.1793 53.5587 49.7668 53.968 50.2156C54.3904 50.6645 54.9779 50.8889 55.7303 50.8889C56.4828 50.8889 57.0637 50.6645 57.4729 50.2156C57.8954 49.7668 58.1066 49.1793 58.1066 48.4533C58.1066 47.7272 57.8954 47.1397 57.4729 46.6909C57.0637 46.242 56.4828 46.0176 55.7303 46.0176C54.9779 46.0176 54.3904 46.242 53.968 46.6909C53.5587 47.1397 53.3541 47.7272 53.3541 48.4533ZM62.8264 43.6414H65.6779V44.9483H65.7175C65.8099 44.7635 65.9419 44.5787 66.1135 44.3938C66.2852 44.209 66.4898 44.044 66.7274 43.8988C66.965 43.7536 67.2357 43.6348 67.5393 43.5424C67.8429 43.45 68.1729 43.4037 68.5294 43.4037C69.2027 43.4037 69.7967 43.5424 70.3116 43.8196C70.8396 44.0968 71.2357 44.5325 71.4997 45.1265C71.8429 44.5061 72.2588 44.0638 72.7472 43.7998C73.2357 43.5358 73.8363 43.4037 74.5492 43.4037C75.1961 43.4037 75.7373 43.516 76.173 43.7404C76.6218 43.9516 76.9716 44.2486 77.2225 44.6315C77.4865 45.0011 77.6713 45.4434 77.7769 45.9582C77.8957 46.4599 77.9551 47.0011 77.9551 47.582V53.2651H74.9848V47.6612C74.9848 47.2123 74.8858 46.8295 74.6878 46.5127C74.503 46.1826 74.1663 46.0176 73.6779 46.0176C73.3347 46.0176 73.0442 46.077 72.8066 46.1958C72.5822 46.3014 72.3974 46.4533 72.2522 46.6513C72.1201 46.8493 72.0211 47.0803 71.9551 47.3443C71.9023 47.6084 71.8759 47.8856 71.8759 48.176V53.2651H68.9056V48.176C68.9056 48.0044 68.899 47.7932 68.8858 47.5424C68.8726 47.2915 68.8264 47.0539 68.7472 46.8295C68.668 46.6051 68.536 46.4137 68.3512 46.2552C68.1795 46.0968 67.9221 46.0176 67.5789 46.0176C67.1961 46.0176 66.8858 46.0902 66.6482 46.2354C66.4106 46.3674 66.2258 46.5523 66.0937 46.7899C65.9749 47.0143 65.8957 47.2717 65.8561 47.5622C65.8165 47.8526 65.7967 48.1562 65.7967 48.4731V53.2651H62.8264V43.6414ZM89.1654 51.6018C88.6901 52.209 88.0895 52.6777 87.3634 53.0077C86.6373 53.3377 85.8848 53.5028 85.106 53.5028C84.3667 53.5028 83.667 53.3839 83.007 53.1463C82.3601 52.9087 81.7924 52.5721 81.304 52.1364C80.8287 51.6876 80.4525 51.1529 80.1753 50.5325C79.898 49.912 79.7594 49.2189 79.7594 48.4533C79.7594 47.6876 79.898 46.9945 80.1753 46.374C80.4525 45.7536 80.8287 45.2255 81.304 44.7899C81.7924 44.341 82.3601 43.9978 83.007 43.7602C83.667 43.5226 84.3667 43.4037 85.106 43.4037C85.7924 43.4037 86.4129 43.5226 86.9673 43.7602C87.535 43.9978 88.0103 44.341 88.3931 44.7899C88.7891 45.2255 89.0928 45.7536 89.304 46.374C89.5152 46.9945 89.6208 47.6876 89.6208 48.4533V49.3839H82.7297C82.8485 49.9516 83.106 50.4071 83.502 50.7503C83.898 51.0803 84.3865 51.2453 84.9673 51.2453C85.4558 51.2453 85.865 51.1397 86.1951 50.9285C86.5383 50.7041 86.8353 50.4203 87.0862 50.077L89.1654 51.6018ZM86.6505 47.3641C86.6637 46.8625 86.4987 46.4335 86.1555 46.077C85.8122 45.7206 85.37 45.5424 84.8287 45.5424C84.4987 45.5424 84.2083 45.5952 83.9574 45.7008C83.7066 45.8064 83.4888 45.945 83.304 46.1166C83.1324 46.275 82.9937 46.4665 82.8881 46.6909C82.7957 46.9021 82.7429 47.1265 82.7297 47.3641H86.6505ZM91.4271 43.6414H94.3974V45.1859H94.437C94.7539 44.5919 95.1301 44.1496 95.5657 43.8592C96.0014 43.5556 96.5492 43.4037 97.2093 43.4037C97.3809 43.4037 97.5525 43.4104 97.7242 43.4236C97.8958 43.4368 98.0542 43.4632 98.1994 43.5028V46.2156C97.9882 46.1496 97.777 46.1034 97.5657 46.077C97.3677 46.0374 97.1565 46.0176 96.9321 46.0176C96.3644 46.0176 95.9156 46.0968 95.5855 46.2552C95.2555 46.4137 94.9981 46.6381 94.8133 46.9285C94.6417 47.2057 94.5294 47.5424 94.4766 47.9384C94.4238 48.3344 94.3974 48.7701 94.3974 49.2453V53.2651H91.4271V43.6414ZM104.937 46.4731C104.501 45.9318 103.927 45.6612 103.214 45.6612C102.963 45.6612 102.719 45.7206 102.481 45.8394C102.243 45.9582 102.125 46.1628 102.125 46.4533C102.125 46.6909 102.243 46.8691 102.481 46.9879C102.732 47.0935 103.042 47.1925 103.412 47.2849C103.795 47.3641 104.197 47.4566 104.62 47.5622C105.055 47.6546 105.458 47.8064 105.828 48.0176C106.21 48.2288 106.521 48.5193 106.758 48.8889C107.009 49.2453 107.135 49.7272 107.135 50.3344C107.135 50.9549 106.996 51.4698 106.719 51.879C106.455 52.275 106.111 52.5985 105.689 52.8493C105.267 53.0869 104.791 53.2519 104.263 53.3443C103.735 53.45 103.214 53.5028 102.699 53.5028C102.026 53.5028 101.346 53.4104 100.659 53.2255C99.9729 53.0275 99.392 52.6843 98.9168 52.1958L100.719 50.1958C100.996 50.5391 101.3 50.8031 101.63 50.9879C101.973 51.1595 102.369 51.2453 102.818 51.2453C103.161 51.2453 103.471 51.1991 103.748 51.1067C104.026 51.0011 104.164 50.8163 104.164 50.5523C104.164 50.3014 104.039 50.1166 103.788 49.9978C103.55 49.8658 103.24 49.7602 102.857 49.681C102.488 49.5886 102.085 49.4962 101.649 49.4038C101.227 49.2981 100.824 49.1463 100.442 48.9483C100.072 48.7503 99.7616 48.4731 99.5108 48.1166C99.2732 47.747 99.1544 47.2585 99.1544 46.6513C99.1544 46.0836 99.2666 45.5952 99.491 45.1859C99.7286 44.7767 100.032 44.4401 100.402 44.176C100.785 43.912 101.22 43.7206 101.709 43.6018C102.197 43.4698 102.692 43.4037 103.194 43.4037C103.828 43.4037 104.468 43.4962 105.115 43.681C105.762 43.8658 106.31 44.1958 106.758 44.6711L104.937 46.4731Z" fill="black"/>
<path d="M22.8717 58.6511H25.9608V69.8194H31.6836V72.6709H22.8717V58.6511ZM32.656 67.859C32.656 67.0933 32.7947 66.4003 33.0719 65.7798C33.3491 65.1593 33.7254 64.6313 34.2006 64.1956C34.6891 63.7468 35.2567 63.4036 35.9036 63.1659C36.5636 62.9283 37.2633 62.8095 38.0026 62.8095C38.7419 62.8095 39.4349 62.9283 40.0818 63.1659C40.7419 63.4036 41.3095 63.7468 41.7848 64.1956C42.2732 64.6313 42.656 65.1593 42.9333 65.7798C43.2105 66.4003 43.3491 67.0933 43.3491 67.859C43.3491 68.6247 43.2105 69.3178 42.9333 69.9382C42.656 70.5587 42.2732 71.0933 41.7848 71.5422C41.3095 71.9778 40.7419 72.3145 40.0818 72.5521C39.4349 72.7897 38.7419 72.9085 38.0026 72.9085C37.2633 72.9085 36.5636 72.7897 35.9036 72.5521C35.2567 72.3145 34.6891 71.9778 34.2006 71.5422C33.7254 71.0933 33.3491 70.5587 33.0719 69.9382C32.7947 69.3178 32.656 68.6247 32.656 67.859ZM35.6263 67.859C35.6263 68.5851 35.831 69.1725 36.2402 69.6214C36.6626 70.0702 37.2501 70.2947 38.0026 70.2947C38.7551 70.2947 39.3359 70.0702 39.7452 69.6214C40.1676 69.1725 40.3788 68.5851 40.3788 67.859C40.3788 67.1329 40.1676 66.5455 39.7452 66.0966C39.3359 65.6478 38.7551 65.4234 38.0026 65.4234C37.2501 65.4234 36.6626 65.6478 36.2402 66.0966C35.831 66.5455 35.6263 67.1329 35.6263 67.859ZM44.0888 63.0471H47.2967L49.7323 69.5818H49.7719L52.0293 63.0471H55.0194L51.2175 72.6709H48.069L44.0888 63.0471ZM65.2108 71.0075C64.7356 71.6148 64.1349 72.0834 63.4088 72.4135C62.6828 72.7435 61.9303 72.9085 61.1514 72.9085C60.4121 72.9085 59.7125 72.7897 59.0524 72.5521C58.4055 72.3145 57.8379 71.9778 57.3494 71.5422C56.8742 71.0933 56.4979 70.5587 56.2207 69.9382C55.9435 69.3178 55.8049 68.6247 55.8049 67.859C55.8049 67.0933 55.9435 66.4003 56.2207 65.7798C56.4979 65.1593 56.8742 64.6313 57.3494 64.1956C57.8379 63.7468 58.4055 63.4036 59.0524 63.1659C59.7125 62.9283 60.4121 62.8095 61.1514 62.8095C61.8379 62.8095 62.4583 62.9283 63.0128 63.1659C63.5805 63.4036 64.0557 63.7468 64.4385 64.1956C64.8346 64.6313 65.1382 65.1593 65.3494 65.7798C65.5607 66.4003 65.6663 67.0933 65.6663 67.859V68.7897H58.7752C58.894 69.3574 59.1514 69.8128 59.5474 70.156C59.9435 70.4861 60.4319 70.6511 61.0128 70.6511C61.5012 70.6511 61.9105 70.5455 62.2405 70.3343C62.5838 70.1098 62.8808 69.826 63.1316 69.4828L65.2108 71.0075ZM62.696 66.7699C62.7092 66.2683 62.5441 65.8392 62.2009 65.4828C61.8577 65.1263 61.4154 64.9481 60.8742 64.9481C60.5441 64.9481 60.2537 65.0009 60.0029 65.1065C59.7521 65.2122 59.5342 65.3508 59.3494 65.5224C59.1778 65.6808 59.0392 65.8722 58.9336 66.0966C58.8412 66.3079 58.7884 66.5323 58.7752 66.7699H62.696ZM85.53 67.265C85.53 68.0966 85.4046 68.8623 85.1537 69.562C84.9029 70.2617 84.5267 70.8689 84.025 71.3838C83.5366 71.8986 82.9227 72.3013 82.1834 72.5917C81.4442 72.8821 80.5927 73.0273 79.629 73.0273C78.6521 73.0273 77.794 72.8821 77.0547 72.5917C76.3154 72.3013 75.695 71.8986 75.1933 71.3838C74.7049 70.8689 74.3352 70.2617 74.0844 69.562C73.8336 68.8623 73.7082 68.0966 73.7082 67.265V58.6511H76.7973V67.1461C76.7973 67.5818 76.8633 67.9844 76.9953 68.3541C77.1405 68.7237 77.3385 69.0471 77.5894 69.3244C77.8402 69.5884 78.1372 69.7996 78.4805 69.958C78.8369 70.1032 79.2197 70.1758 79.629 70.1758C80.0382 70.1758 80.4145 70.1032 80.7577 69.958C81.1009 69.7996 81.398 69.5884 81.6488 69.3244C81.8996 69.0471 82.091 68.7237 82.223 68.3541C82.3682 67.9844 82.4409 67.5818 82.4409 67.1461V58.6511H85.53V67.265ZM93.4549 65.8788C93.0193 65.3376 92.445 65.0669 91.7322 65.0669C91.4813 65.0669 91.2371 65.1263 90.9995 65.2452C90.7619 65.364 90.6431 65.5686 90.6431 65.859C90.6431 66.0966 90.7619 66.2749 90.9995 66.3937C91.2503 66.4993 91.5605 66.5983 91.9302 66.6907C92.313 66.7699 92.7157 66.8623 93.1381 66.9679C93.5737 67.0603 93.9764 67.2122 94.346 67.4234C94.7289 67.6346 95.0391 67.925 95.2767 68.2947C95.5275 68.6511 95.653 69.1329 95.653 69.7402C95.653 70.3607 95.5143 70.8755 95.2371 71.2848C94.9731 71.6808 94.6299 72.0042 94.2074 72.2551C93.785 72.4927 93.3097 72.6577 92.7817 72.7501C92.2536 72.8557 91.7322 72.9085 91.2173 72.9085C90.544 72.9085 89.8642 72.8161 89.1777 72.6313C88.4912 72.4333 87.9104 72.09 87.4351 71.6016L89.2371 69.6016C89.5143 69.9448 89.818 70.2089 90.148 70.3937C90.4912 70.5653 90.8873 70.6511 91.3361 70.6511C91.6794 70.6511 91.9896 70.6049 92.2668 70.5125C92.544 70.4069 92.6827 70.2221 92.6827 69.958C92.6827 69.7072 92.5572 69.5224 92.3064 69.4036C92.0688 69.2716 91.7586 69.1659 91.3757 69.0867C91.0061 68.9943 90.6034 68.9019 90.1678 68.8095C89.7454 68.7039 89.3427 68.5521 88.9599 68.3541C88.5902 68.156 88.28 67.8788 88.0292 67.5224C87.7916 67.1527 87.6728 66.6643 87.6728 66.057C87.6728 65.4894 87.785 65.0009 88.0094 64.5917C88.247 64.1824 88.5506 63.8458 88.9203 63.5818C89.3031 63.3178 89.7388 63.1263 90.2272 63.0075C90.7157 62.8755 91.2107 62.8095 91.7124 62.8095C92.346 62.8095 92.9863 62.9019 93.6332 63.0867C94.28 63.2716 94.8279 63.6016 95.2767 64.0768L93.4549 65.8788Z" fill="black"/>
<path fill-rule="evenodd" clip-rule="evenodd" d="M4.71726 35.2627H108.449V77.6389L4.5918 77.6213L4.71726 35.2627Z" fill="url(#paint5_linear_4539_107)"/>
<path fill-rule="evenodd" clip-rule="evenodd" d="M4.65367 35.2628L108.515 35.2451L4.5918 77.6214L4.65367 35.2628Z" fill="url(#paint6_linear_4539_107)"/>
<path d="M16.0504 46.1578L18.7699 47.0201C18.353 48.5362 17.6581 49.6638 16.6853 50.4029C15.7188 51.1356 14.4901 51.502 12.9993 51.502C11.1547 51.502 9.63862 50.8735 8.45102 49.6164C7.26342 48.353 6.66962 46.6284 6.66962 44.4427C6.66962 42.1307 7.26658 40.3367 8.4605 39.0606C9.65442 37.7783 11.2242 37.1371 13.1698 37.1371C14.8691 37.1371 16.2494 37.6393 17.3107 38.6437C17.9424 39.2375 18.4161 40.0903 18.732 41.2021L15.9557 41.8654C15.7914 41.1452 15.4471 40.5767 14.9228 40.1598C14.4048 39.7429 13.7731 39.5344 13.0277 39.5344C11.998 39.5344 11.161 39.9039 10.5167 40.643C9.87867 41.3821 9.55966 42.5792 9.55966 44.2343C9.55966 45.9904 9.87551 47.2412 10.5072 47.9866C11.1389 48.732 11.9601 49.1047 12.9709 49.1047C13.7163 49.1047 14.3575 48.8678 14.8944 48.394C15.4313 47.9203 15.8167 47.1749 16.0504 46.1578ZM27.7906 51.2651V49.7585C27.4242 50.2955 26.941 50.7187 26.3409 51.0282C25.7471 51.3378 25.1185 51.4926 24.4552 51.4926C23.7793 51.4926 23.1729 51.3441 22.6359 51.0472C22.099 50.7503 21.7105 50.3334 21.4704 49.7964C21.2304 49.2595 21.1104 48.5172 21.1104 47.5697V41.2021H23.773V45.8262C23.773 47.2412 23.8204 48.1098 23.9151 48.4319C24.0162 48.7478 24.1962 49.0005 24.4552 49.19C24.7142 49.3732 25.0427 49.4648 25.4407 49.4648C25.8955 49.4648 26.303 49.3416 26.663 49.0952C27.0231 48.8426 27.2695 48.533 27.4021 48.1666C27.5348 47.7939 27.6011 46.8874 27.6011 45.4471V41.2021H30.2638V51.2651H27.7906ZM32.0925 48.394L34.7646 47.9866C34.8783 48.5046 35.1089 48.8994 35.4564 49.171C35.8038 49.4364 36.2902 49.569 36.9156 49.569C37.6041 49.569 38.1221 49.4427 38.4696 49.19C38.7033 49.0131 38.8202 48.7762 38.8202 48.4793C38.8202 48.2772 38.757 48.1098 38.6307 47.9771C38.498 47.8508 38.2011 47.7339 37.74 47.6265C35.5922 47.1527 34.2309 46.72 33.656 46.3284C32.8601 45.7851 32.4621 45.0302 32.4621 44.0637C32.4621 43.192 32.8064 42.4592 33.4949 41.8654C34.1835 41.2716 35.2511 40.9747 36.6977 40.9747C38.0748 40.9747 39.0981 41.1989 39.7677 41.6474C40.4373 42.096 40.8985 42.7592 41.1512 43.6373L38.6401 44.1016C38.5328 43.71 38.3274 43.4099 38.0242 43.2014C37.7273 42.993 37.3009 42.8887 36.745 42.8887C36.0438 42.8887 35.5416 42.9867 35.2384 43.1825C35.0363 43.3215 34.9352 43.5015 34.9352 43.7226C34.9352 43.9121 35.0236 44.0732 35.2005 44.2058C35.4406 44.3827 36.2681 44.6322 37.6831 44.9544C39.1044 45.2766 40.0962 45.6714 40.6584 46.1389C41.2143 46.6126 41.4923 47.2728 41.4923 48.1193C41.4923 49.0415 41.1069 49.8343 40.3363 50.4976C39.5656 51.1609 38.4254 51.4926 36.9156 51.4926C35.5448 51.4926 34.4583 51.2146 33.656 50.6587C32.8601 50.1028 32.3389 49.3479 32.0925 48.394ZM48.4473 41.2021V43.3246H46.628V47.3802C46.628 48.2014 46.6438 48.6815 46.6754 48.8204C46.7133 48.9531 46.7923 49.0636 46.9123 49.1521C47.0386 49.2405 47.1903 49.2847 47.3671 49.2847C47.6135 49.2847 47.9704 49.1995 48.4379 49.0289L48.6653 51.0946C48.0462 51.3599 47.345 51.4926 46.5617 51.4926C46.0816 51.4926 45.6489 51.4136 45.2636 51.2557C44.8782 51.0914 44.594 50.883 44.4108 50.6303C44.2339 50.3713 44.1107 50.0238 44.0412 49.588C43.9844 49.2784 43.9559 48.653 43.9559 47.7118V43.3246H42.7336V41.2021H43.9559V39.2028L46.628 37.6488V41.2021H48.4473ZM49.6792 46.0915C49.6792 45.2071 49.8971 44.3511 50.333 43.5236C50.7689 42.6961 51.3848 42.0644 52.1807 41.6285C52.983 41.1926 53.8768 40.9747 54.8623 40.9747C56.3847 40.9747 57.6323 41.4706 58.6051 42.4623C59.578 43.4478 60.0644 44.6954 60.0644 46.2052C60.0644 47.7276 59.5716 48.991 58.5862 49.9954C57.607 50.9935 56.3721 51.4926 54.8812 51.4926C53.959 51.4926 53.0777 51.2841 52.2376 50.8672C51.4037 50.4502 50.7689 49.8406 50.333 49.0384C49.8971 48.2298 49.6792 47.2475 49.6792 46.0915ZM52.4081 46.2336C52.4081 47.2317 52.645 47.9961 53.1188 48.5267C53.5926 49.0573 54.1769 49.3226 54.8718 49.3226C55.5666 49.3226 56.1478 49.0573 56.6153 48.5267C57.0891 47.9961 57.3259 47.2254 57.3259 46.2147C57.3259 45.2292 57.0891 44.4712 56.6153 43.9405C56.1478 43.4099 55.5666 43.1446 54.8718 43.1446C54.1769 43.1446 53.5926 43.4099 53.1188 43.9405C52.645 44.4712 52.4081 45.2355 52.4081 46.2336ZM61.9595 41.2021H64.4137V42.5761C65.2917 41.5085 66.3372 40.9747 67.5501 40.9747C68.1944 40.9747 68.7535 41.1073 69.2272 41.3727C69.701 41.638 70.0895 42.0391 70.3927 42.5761C70.8349 42.0391 71.3119 41.638 71.8235 41.3727C72.3352 41.1073 72.8816 40.9747 73.4628 40.9747C74.2019 40.9747 74.8273 41.1263 75.339 41.4295C75.8507 41.7264 76.2328 42.1654 76.4855 42.7466C76.6687 43.1762 76.7603 43.871 76.7603 44.8312V51.2651H74.0977V45.5135C74.0977 44.5154 74.0061 43.871 73.8229 43.5805C73.5765 43.2014 73.1975 43.0119 72.6858 43.0119C72.3131 43.0119 71.9625 43.1256 71.634 43.353C71.3055 43.5805 71.0687 43.9153 70.9234 44.3575C70.7781 44.7933 70.7054 45.485 70.7054 46.4326V51.2651H68.0428V45.7504C68.0428 44.7712 67.9954 44.1395 67.9007 43.8553C67.8059 43.571 67.6575 43.3594 67.4553 43.2204C67.2595 43.0814 66.991 43.0119 66.6499 43.0119C66.2393 43.0119 65.8697 43.1225 65.5412 43.3436C65.2128 43.5647 64.9759 43.8837 64.8306 44.3006C64.6916 44.7175 64.6221 45.4092 64.6221 46.3757V51.2651H61.9595V41.2021ZM85.2504 48.0624L87.9036 48.5077C87.5624 49.4806 87.0223 50.2228 86.2832 50.7345C85.5505 51.2399 84.6313 51.4926 83.5259 51.4926C81.776 51.4926 80.481 50.9209 79.6409 49.7775C78.9776 48.8615 78.6459 47.7055 78.6459 46.3094C78.6459 44.6417 79.0818 43.3373 79.9536 42.396C80.8253 41.4485 81.9276 40.9747 83.2605 40.9747C84.7577 40.9747 85.939 41.4706 86.8044 42.4623C87.6698 43.4478 88.0836 44.9607 88.0457 47.0011H81.3749C81.3939 47.7908 81.6086 48.4067 82.0192 48.8489C82.4298 49.2847 82.9415 49.5027 83.5543 49.5027C83.9712 49.5027 84.3218 49.389 84.6061 49.1616C84.8903 48.9341 85.1051 48.5678 85.2504 48.0624ZM85.402 45.3713C85.3831 44.6007 85.1841 44.0163 84.8051 43.6184C84.426 43.2141 83.9649 43.0119 83.4216 43.0119C82.8405 43.0119 82.3604 43.2235 81.9813 43.6468C81.6023 44.07 81.416 44.6449 81.4223 45.3713H85.402ZM92.774 51.2651H90.1114V41.2021H92.5845V42.6329C93.0077 41.957 93.3868 41.5116 93.7216 41.2969C94.0627 41.0821 94.448 40.9747 94.8776 40.9747C95.484 40.9747 96.0683 41.1421 96.6306 41.4769L95.8062 43.7984C95.3577 43.5078 94.9407 43.3625 94.5554 43.3625C94.1827 43.3625 93.8668 43.4668 93.6078 43.6752C93.3489 43.8774 93.1435 44.2469 92.9919 44.7839C92.8466 45.3208 92.774 46.4452 92.774 48.1572V51.2651ZM96.8485 48.394L99.5206 47.9866C99.6343 48.5046 99.8649 48.8994 100.212 49.171C100.56 49.4364 101.046 49.569 101.672 49.569C102.36 49.569 102.878 49.4427 103.226 49.19C103.459 49.0131 103.576 48.7762 103.576 48.4793C103.576 48.2772 103.513 48.1098 103.387 47.9771C103.254 47.8508 102.957 47.7339 102.496 47.6265C100.348 47.1527 98.9868 46.72 98.412 46.3284C97.616 45.7851 97.218 45.0302 97.218 44.0637C97.218 43.192 97.5623 42.4592 98.2509 41.8654C98.9394 41.2716 100.007 40.9747 101.454 40.9747C102.831 40.9747 103.854 41.1989 104.524 41.6474C105.193 42.096 105.654 42.7592 105.907 43.6373L103.396 44.1016C103.289 43.71 103.083 43.4099 102.78 43.2014C102.483 42.993 102.057 42.8887 101.501 42.8887C100.8 42.8887 100.298 42.9867 99.9944 43.1825C99.7922 43.3215 99.6912 43.5015 99.6912 43.7226C99.6912 43.9121 99.7796 44.0732 99.9565 44.2058C100.197 44.3827 101.024 44.6322 102.439 44.9544C103.86 45.2766 104.852 45.6714 105.414 46.1389C105.97 46.6126 106.248 47.2728 106.248 48.1193C106.248 49.0415 105.863 49.8343 105.092 50.4976C104.322 51.1609 103.181 51.4926 101.672 51.4926C100.301 51.4926 99.2142 51.2146 98.412 50.6587C97.616 50.1028 97.0949 49.3479 96.8485 48.394Z" fill="black"/>
<path d="M20.7323 70.6709V56.8934H23.5371V68.3304H30.5111V70.6709H20.7323ZM31.885 65.4972C31.885 64.6129 32.103 63.7569 32.5388 62.9294C32.9747 62.1018 33.5906 61.4701 34.3866 61.0343C35.1888 60.5984 36.0827 60.3804 37.0682 60.3804C38.5906 60.3804 39.8382 60.8763 40.811 61.8681C41.7838 62.8536 42.2702 64.1012 42.2702 65.611C42.2702 67.1334 41.7775 68.3968 40.792 69.4012C39.8129 70.3993 38.5779 70.8983 37.0871 70.8983C36.1648 70.8983 35.2836 70.6898 34.4434 70.2729C33.6096 69.856 32.9747 69.2464 32.5388 68.4441C32.103 67.6356 31.885 66.6533 31.885 65.4972ZM34.614 65.6394C34.614 66.6375 34.8509 67.4018 35.3246 67.9325C35.7984 68.4631 36.3828 68.7284 37.0776 68.7284C37.7725 68.7284 38.3537 68.4631 38.8211 67.9325C39.2949 67.4018 39.5318 66.6312 39.5318 65.6204C39.5318 64.635 39.2949 63.8769 38.8211 63.3463C38.3537 62.8157 37.7725 62.5503 37.0776 62.5503C36.3828 62.5503 35.7984 62.8157 35.3246 63.3463C34.8509 63.8769 34.614 64.6413 34.614 65.6394ZM47.1312 70.6709L43.0757 60.6079H45.8709L47.7661 65.7436L48.3156 67.4587C48.4609 67.0228 48.5525 66.7354 48.5904 66.5964C48.6789 66.3121 48.7736 66.0279 48.8747 65.7436L50.7888 60.6079H53.5272L49.5285 70.6709H47.1312ZM60.9939 67.4682L63.6471 67.9135C63.306 68.8863 62.7659 69.6286 62.0268 70.1403C61.294 70.6456 60.3749 70.8983 59.2694 70.8983C57.5196 70.8983 56.2246 70.3266 55.3844 69.1832C54.7211 68.2673 54.3895 67.1112 54.3895 65.7152C54.3895 64.0475 54.8253 62.743 55.6971 61.8018C56.5688 60.8542 57.6712 60.3804 59.0041 60.3804C60.5012 60.3804 61.6825 60.8763 62.5479 61.8681C63.4134 62.8536 63.8271 64.3665 63.7892 66.4069H57.1184C57.1374 67.1965 57.3522 67.8124 57.7628 68.2546C58.1734 68.6905 58.6851 68.9084 59.2978 68.9084C59.7147 68.9084 60.0653 68.7947 60.3496 68.5673C60.6339 68.3399 60.8486 67.9735 60.9939 67.4682ZM61.1455 64.7771C61.1266 64.0064 60.9276 63.4221 60.5486 63.0241C60.1696 62.6198 59.7084 62.4177 59.1651 62.4177C58.584 62.4177 58.1039 62.6293 57.7249 63.0526C57.3458 63.4758 57.1595 64.0506 57.1658 64.7771H61.1455ZM71.3697 56.7797H74.1744V64.3033C74.1744 65.4972 74.2092 66.2711 74.2787 66.6248C74.3987 67.1934 74.6829 67.6514 75.1315 67.9988C75.5863 68.3399 76.2054 68.5105 76.9887 68.5105C77.7846 68.5105 78.3847 68.3494 78.789 68.0272C79.1933 67.6987 79.4365 67.2976 79.5186 66.8238C79.6008 66.35 79.6418 65.5636 79.6418 64.4644V56.7797H82.4466V64.0759C82.4466 65.7436 82.3708 66.9217 82.2192 67.6103C82.0676 68.2989 81.7865 68.88 81.3759 69.3538C80.9716 69.8276 80.4283 70.2066 79.7461 70.4909C79.0638 70.7688 78.1731 70.9078 77.0739 70.9078C75.7474 70.9078 74.7398 70.7562 74.0512 70.453C73.369 70.1434 72.8289 69.7455 72.4309 69.259C72.033 68.7663 71.7708 68.2515 71.6445 67.7145C71.4613 66.9186 71.3697 65.7436 71.3697 64.1896V56.7797ZM84.4554 67.7998L87.1275 67.3924C87.2412 67.9104 87.4718 68.3052 87.8192 68.5768C88.1667 68.8421 88.6531 68.9748 89.2785 68.9748C89.967 68.9748 90.485 68.8484 90.8325 68.5958C91.0662 68.4189 91.1831 68.182 91.1831 67.8851C91.1831 67.6829 91.1199 67.5155 90.9935 67.3829C90.8609 67.2565 90.564 67.1397 90.1028 67.0323C87.955 66.5585 86.5937 66.1258 86.0189 65.7341C85.2229 65.1909 84.825 64.436 84.825 63.4695C84.825 62.5977 85.1692 61.8649 85.8578 61.2711C86.5463 60.6773 87.6139 60.3804 89.0605 60.3804C90.4376 60.3804 91.461 60.6047 92.1306 61.0532C92.8002 61.5017 93.2614 62.165 93.514 63.0431L91.003 63.5074C90.8956 63.1157 90.6903 62.8157 90.3871 62.6072C90.0902 62.3987 89.6638 62.2945 89.1079 62.2945C88.4067 62.2945 87.9045 62.3924 87.6013 62.5882C87.3991 62.7272 87.2981 62.9073 87.2981 63.1284C87.2981 63.3179 87.3865 63.479 87.5634 63.6116C87.8034 63.7885 88.631 64.038 90.046 64.3602C91.4673 64.6823 92.4591 65.0772 93.0213 65.5446C93.5772 66.0184 93.8552 66.6785 93.8552 67.525C93.8552 68.4473 93.4698 69.2401 92.6991 69.9034C91.9285 70.5667 90.7882 70.8983 89.2785 70.8983C87.9077 70.8983 86.8211 70.6204 86.0189 70.0645C85.2229 69.5086 84.7018 68.7537 84.4554 67.7998Z" fill="black"/>
<path fill-rule="evenodd" clip-rule="evenodd" d="M14.6014 19.976C14.5628 20.0544 14.5078 20.0946 14.4141 20.0946C14.359 20.0946 14.2837 20.0544 14.1901 19.9569C14.0983 19.8593 13.966 19.7636 13.8173 19.666C13.6483 19.5474 13.461 19.4518 13.2186 19.3733C12.9762 19.2757 12.6769 19.2356 12.3225 19.2356C11.9662 19.2356 11.6688 19.2968 11.3878 19.3925C11.127 19.49 10.903 19.645 10.7157 19.821C10.5284 19.997 10.398 20.2094 10.3044 20.4428C10.2107 20.6762 10.1556 20.9307 10.1556 21.1832C10.1556 21.5334 10.2309 21.807 10.3594 22.0404C10.4917 22.2527 10.679 22.4479 10.9214 22.6048C11.1454 22.7597 11.4062 22.8956 11.7055 22.9932C12.0048 23.1118 12.3041 23.2074 12.6035 23.305C12.901 23.4026 13.2003 23.5193 13.4996 23.6551C13.7989 23.7719 14.0413 23.9479 14.2837 24.122C14.5261 24.298 14.6951 24.5525 14.8438 24.8222C14.976 25.0958 15.0495 25.4459 15.0495 25.8554C15.0495 26.2839 14.976 26.6723 14.8438 27.0416C14.7134 27.4127 14.5078 27.7437 14.247 28.0154C13.9862 28.289 13.6483 28.5014 13.2756 28.6774C12.8826 28.8324 12.4529 28.9108 11.9662 28.9108C11.3327 28.9108 10.7726 28.7941 10.3227 28.5607C9.85628 28.3273 9.4633 27.9944 9.10889 27.5888L9.29619 27.275C9.35128 27.1965 9.40821 27.1793 9.48167 27.1793C9.52023 27.1793 9.57532 27.1965 9.63225 27.2578C9.68734 27.3152 9.78099 27.3936 9.85628 27.4701C9.94994 27.5486 10.062 27.6462 10.1923 27.7437C10.3227 27.8394 10.4715 27.937 10.6404 28.0154C10.8093 28.0938 10.9967 28.1704 11.2207 28.2278C11.4447 28.289 11.6871 28.3062 11.9662 28.3062C12.3592 28.3062 12.6953 28.2488 12.9946 28.1321C13.2939 28.0154 13.5547 27.8394 13.7604 27.6462C13.966 27.451 14.135 27.1793 14.247 26.9057C14.359 26.6149 14.4141 26.3031 14.4141 25.9912C14.4141 25.6411 14.3388 25.3503 14.2103 25.1169C14.0781 24.8815 13.8907 24.6864 13.6483 24.5314C13.4243 24.3764 13.1635 24.2406 12.8642 24.143C12.5649 24.0454 12.2674 23.9268 11.9662 23.8312C11.6688 23.7336 11.3694 23.615 11.0701 23.5002C10.7726 23.3816 10.5284 23.2266 10.286 23.0333C10.062 22.8382 9.87464 22.6048 9.7259 22.3121C9.59368 22.0193 9.52023 21.6711 9.52023 21.2215C9.52023 20.8924 9.57532 20.5614 9.7057 20.2496C9.83792 19.9358 10.0069 19.666 10.2474 19.4116C10.4917 19.1782 10.7726 18.983 11.127 18.8281C11.4815 18.6922 11.8744 18.6138 12.3225 18.6138C12.8275 18.6138 13.2756 18.6922 13.6851 18.8682C14.0781 19.0423 14.4508 19.2968 14.7887 19.6259L14.6014 19.976Z" fill="black"/>
<path fill-rule="evenodd" clip-rule="evenodd" d="M25.1145 23.7613C25.1145 23.0658 25.0201 22.4272 24.8313 21.8666C24.6444 21.306 24.3798 20.8423 24.0411 20.4565C23.7024 20.0688 23.2879 19.778 22.7993 19.5671C22.3088 19.3543 21.7814 19.2573 21.1984 19.2573C20.6136 19.2573 20.088 19.3543 19.5976 19.5671C19.1071 19.778 18.6944 20.0688 18.3558 20.4565C18.0171 20.8423 17.7339 21.306 17.5451 21.8666C17.3564 22.4272 17.262 23.0468 17.262 23.7613C17.262 24.4569 17.3564 25.0954 17.5451 25.6561C17.7339 26.2167 17.9967 26.6804 18.3558 27.0681C18.6944 27.4539 19.1071 27.7446 19.5976 27.9575C20.088 28.1684 20.6136 28.2672 21.1984 28.2672C21.7814 28.2672 22.3273 28.1684 22.7993 27.9575C23.2879 27.7636 23.7024 27.4539 24.0411 27.0681C24.3798 26.6804 24.6444 26.2167 24.8313 25.6561C25.0201 25.0954 25.1145 24.4778 25.1145 23.7613ZM25.7427 23.7623C25.7427 24.5367 25.6323 25.233 25.4116 25.8723C25.1909 26.5116 24.8779 27.0519 24.4745 27.499C24.0693 27.9424 23.5917 28.2924 23.0381 28.5436C22.4863 28.7966 21.8603 28.9108 21.1801 28.9108C20.5162 28.9108 19.892 28.7966 19.3384 28.5436C18.7866 28.2924 18.309 27.9633 17.902 27.499C17.4985 27.0519 17.1856 26.5116 16.9649 25.8723C16.7441 25.233 16.6338 24.5367 16.6338 23.7623C16.6338 22.9898 16.7441 22.2916 16.9649 21.6542C17.1856 21.0149 17.4985 20.4726 17.902 20.0274C18.309 19.5822 18.7866 19.2321 19.3384 18.981C19.892 18.7298 20.5162 18.6138 21.1801 18.6138C21.8603 18.6138 22.4863 18.7298 23.0381 18.981C23.5917 19.2321 24.0693 19.5632 24.4745 20.0274C24.8779 20.4726 25.1909 21.0149 25.4116 21.6542C25.6323 22.2916 25.7427 22.9898 25.7427 23.7623Z" fill="black"/>
<path fill-rule="evenodd" clip-rule="evenodd" d="M30.9102 28.2649C31.3618 28.2649 31.7601 28.1859 32.1229 28.0085C32.4839 27.8312 32.7737 27.596 33.0262 27.3029C33.2805 27.0099 33.4601 26.6359 33.5863 26.2445C33.7144 25.8319 33.7855 25.402 33.7855 24.9104V18.6138H34.4559V24.9104C34.4559 25.4791 34.3652 25.9881 34.2034 26.4797C34.0398 26.9694 33.8033 27.382 33.4974 27.754C33.1898 28.1069 32.8093 28.4018 32.3754 28.5985C31.9415 28.7932 31.4347 28.9108 30.8924 28.9108C30.35 28.9108 29.8415 28.8125 29.4076 28.5985C28.9737 28.3825 28.595 28.1069 28.2856 27.754C27.9797 27.4012 27.7432 26.9694 27.5814 26.4797C27.4178 25.9881 27.3271 25.4598 27.3271 24.9104V18.6138H28.0153V24.8911C28.0153 25.3615 28.0882 25.8126 28.2145 26.2233C28.3407 26.6359 28.5399 26.9887 28.7746 27.2836C29.0289 27.5786 29.3169 27.8138 29.6797 27.9893C30.0406 28.1859 30.4585 28.2649 30.9102 28.2649Z" fill="black"/>
<path fill-rule="evenodd" clip-rule="evenodd" d="M38.5598 23.6921H38.7598H39.2447C39.7535 23.6921 40.2187 23.6336 40.6166 23.5341C41.0145 23.4132 41.3689 23.2747 41.6342 23.0583C41.9212 22.8574 42.1212 22.6 42.2756 22.323C42.43 22.0442 42.4974 21.7068 42.4974 21.3518C42.4974 20.6166 42.2321 20.0803 41.7016 19.7234C41.1711 19.3665 40.3949 19.1871 39.3556 19.1871H37.2552V23.6921V24.2479V28.9108H36.4355V18.6138H39.3556C40.684 18.6138 41.6798 18.8517 42.3191 19.308C42.9844 19.7624 43.2931 20.4372 43.2931 21.3304C43.2931 21.7282 43.2257 22.0851 43.0735 22.403C42.917 22.7189 42.6952 23.0173 42.4082 23.2552C42.1212 23.4932 41.7885 23.7116 41.3907 23.85C40.9928 24.01 40.5275 24.1094 40.0426 24.1679C40.1753 24.2479 40.284 24.3473 40.3949 24.4644L44.3563 28.9108H43.6258C43.5366 28.9108 43.4714 28.8893 43.404 28.8698C43.3388 28.8523 43.2714 28.7899 43.2257 28.7314L39.5556 24.5638C39.4665 24.4644 39.3556 24.3863 39.2686 24.3473C39.1577 24.3064 38.5141 24.2888 38.2945 24.2888C38.2945 23.7506 38.3815 23.6921 38.5598 23.6921Z" fill="black"/>
<path fill-rule="evenodd" clip-rule="evenodd" d="M51.0986 27.1076C51.1368 27.1076 51.1912 27.1285 51.2094 27.1648L51.4852 27.4755C51.2838 27.6909 51.0805 27.9024 50.8391 28.0778C50.5995 28.2532 50.3418 28.4076 50.0641 28.5239C49.7882 28.6401 49.4724 28.7354 49.1602 28.8155C48.828 28.8936 48.4578 28.9108 48.0712 28.9108C47.4051 28.9108 46.7952 28.7945 46.2416 28.5429C45.688 28.2913 45.2071 27.9596 44.8205 27.4945C44.432 27.0504 44.118 26.5071 43.8966 25.8667C43.6752 25.2281 43.5645 24.5286 43.5645 23.7528C43.5645 22.9979 43.6752 22.2984 43.9148 21.6598C44.138 21.0193 44.4702 20.4951 44.8749 20.03C45.2815 19.584 45.7806 19.2333 46.3523 18.9817C46.9259 18.73 47.572 18.6138 48.2545 18.6138C48.6048 18.6138 48.9188 18.6328 49.2146 18.6919C49.5105 18.7491 49.77 18.8273 50.0278 18.9245C50.2855 19.0217 50.5069 19.157 50.7284 19.3114C50.9498 19.4658 51.1731 19.6412 51.3745 19.8356L51.1731 20.1463C51.1368 20.2035 51.0805 20.2245 51.0061 20.2245C50.9698 20.2245 50.9135 20.2035 50.8591 20.1463C50.8028 20.0872 50.7102 20.03 50.6177 19.9519C50.5269 19.8737 50.3962 19.7975 50.2674 19.7193C50.1385 19.6221 49.9715 19.544 49.77 19.4868C49.5849 19.4086 49.3617 19.3515 49.1039 19.2924C48.8643 19.2333 48.5685 19.2142 48.2545 19.2142C47.6628 19.2142 47.1274 19.3114 46.6482 19.5249C46.169 19.7384 45.7443 20.03 45.3922 20.4361C45.0419 20.8249 44.7642 21.3091 44.5609 21.8523C44.3594 22.3956 44.2669 23.0341 44.2669 23.7318C44.2669 24.4504 44.3594 25.0718 44.5609 25.6341C44.7642 26.1945 45.0237 26.6615 45.374 27.0504C45.7262 27.4373 46.1309 27.7271 46.5937 27.9406C47.0548 28.156 47.572 28.2532 48.1075 28.2532C48.4578 28.2532 48.7536 28.2322 49.0295 28.175C49.3072 28.135 49.5486 28.0588 49.77 27.9596C49.9915 27.8624 50.2129 27.748 50.3962 27.6127C50.5995 27.4755 50.7846 27.3211 50.9698 27.1285C50.9879 27.1076 51.0061 27.0885 51.0242 27.0885C51.0424 27.1285 51.0805 27.1076 51.0986 27.1076Z" fill="black"/>
<path fill-rule="evenodd" clip-rule="evenodd" d="M59.4065 18.6138V19.2292H53.8449V23.4047H58.4692V24.0007H53.8449V28.2953H59.4065V28.9108H53.0698V18.6138H59.4065Z" fill="black"/>
<path fill-rule="evenodd" clip-rule="evenodd" d="M68.1189 18.6138V20.1482H63.1028V23.1904H67.3301V24.723H63.1028V28.9108H60.9902V18.6347H68.1189V18.6138Z" fill="black"/>
<path fill-rule="evenodd" clip-rule="evenodd" d="M76.8815 23.7623C76.8815 23.2133 76.8045 22.7201 76.6506 22.2865C76.4986 21.851 76.2903 21.4733 76.0219 21.1681C75.7535 20.8647 75.41 20.6377 75.0103 20.4683C74.6086 20.299 74.1695 20.2227 73.674 20.2227C73.1766 20.2227 72.7374 20.299 72.3377 20.4683C71.936 20.6377 71.6113 20.8647 71.3242 21.1681C71.0389 21.4733 70.8287 21.851 70.6748 22.2865C70.5228 22.7201 70.4458 23.2133 70.4458 23.7623C70.4458 24.3113 70.5228 24.8044 70.6748 25.2399C70.8287 25.6735 71.0389 26.0532 71.3242 26.3565C71.6113 26.6598 71.936 26.8869 72.3377 27.0581C72.7374 27.2274 73.1766 27.3019 73.674 27.3019C74.1695 27.3019 74.6086 27.2274 75.0103 27.0581C75.41 26.8869 75.7347 26.6598 76.0219 26.3565C76.2903 26.0532 76.4986 25.6735 76.6506 25.2399C76.8045 24.8044 76.8815 24.3113 76.8815 23.7623ZM78.8122 23.7623C78.8122 24.5037 78.6974 25.189 78.449 25.8146C78.2007 26.4421 77.8564 26.9911 77.3955 27.4486C76.9571 27.9043 76.4021 28.2647 75.7699 28.5317C75.1377 28.7969 74.4303 28.9108 73.6646 28.9108C72.8989 28.9108 72.1896 28.7801 71.5574 28.5317C70.9271 28.2647 70.3909 27.9248 69.9318 27.4486C69.4709 26.9911 69.1266 26.4421 68.8783 25.8146C68.6299 25.189 68.5151 24.5037 68.5151 23.7623C68.5151 23.0228 68.6299 22.3374 68.8783 21.71C69.1266 21.0825 69.4709 20.5335 69.9318 20.076C70.3909 19.6203 70.9271 19.2599 71.5574 18.9929C72.1896 18.7277 72.8989 18.6138 73.6646 18.6138C74.4303 18.6138 75.1377 18.7464 75.7699 19.0134C76.4021 19.2804 76.9364 19.6409 77.3955 20.0965C77.8357 20.5522 78.2007 21.1031 78.449 21.7305C78.6786 22.3374 78.8122 23.0228 78.8122 23.7623Z" fill="black"/>
<path fill-rule="evenodd" clip-rule="evenodd" d="M81.9859 23.5092H82.3829C82.7103 23.5092 82.9868 23.4691 83.2277 23.3736C83.4703 23.2762 83.6603 23.1597 83.8164 23.003C83.9708 22.8483 84.0913 22.6554 84.1608 22.4396C84.2304 22.2276 84.2813 21.9735 84.2813 21.7214C84.2813 21.1961 84.1269 20.7893 83.8164 20.5181C83.506 20.2449 83.0394 20.0902 82.4168 20.0902H81.3141V23.5092V24.8902V28.9108H79.604V18.6138H82.3998C83.0208 18.6138 83.5569 18.6921 84.0047 18.8277C84.4543 18.9614 84.8157 19.1753 85.0939 19.4274C85.3687 19.6815 85.5927 20.0119 85.7148 20.3634C85.8522 20.7301 85.9218 21.1197 85.9218 21.5648C85.9218 21.9162 85.8692 22.2467 85.7827 22.558C85.6978 22.8674 85.5587 23.1406 85.3857 23.3927C85.2126 23.6448 85.0057 23.8607 84.7478 24.0536C84.4882 24.2484 84.2117 24.4031 83.8843 24.5024C84.0913 24.6361 84.2813 24.831 84.4373 25.0831L86.7327 28.8917H85.1974C85.0413 28.8917 84.9192 28.8535 84.8157 28.7962C84.7122 28.737 84.6274 28.6415 84.5578 28.504L82.6424 25.2015C82.5899 25.1232 82.4864 24.9475 82.3829 24.9284H81.7789V23.6849C81.7959 23.5092 81.9859 23.5092 81.9859 23.5092Z" fill="black"/>
<path fill-rule="evenodd" clip-rule="evenodd" d="M92.4777 27.4512C92.9044 27.4512 93.291 27.4121 93.6015 27.3357C93.912 27.2611 94.2225 27.1474 94.512 27.0151V24.739H93.2339C93.1177 24.739 93.0206 24.6999 92.9425 24.644C92.8663 24.5676 92.8263 24.493 92.8263 24.3979V23.3354H96.2378V27.8502C95.9864 28.0384 95.714 28.1894 95.4226 28.3236C95.133 28.456 94.8416 28.5715 94.512 28.6647C94.1844 28.7598 93.8549 28.8157 93.4853 28.8549C93.1177 28.8922 92.7291 28.9108 92.3043 28.9108C91.5481 28.9108 90.87 28.7785 90.23 28.5324C89.59 28.2845 89.0471 27.9247 88.6013 27.4699C88.1366 27.0151 87.788 26.4652 87.5175 25.8388C87.2642 25.2144 87.1289 24.5116 87.1289 23.7716C87.1289 23.0129 87.2451 22.3307 87.4984 21.6857C87.7499 21.0594 88.0985 20.5095 88.5632 20.0547C89.028 19.5999 89.59 19.2401 90.249 18.994C90.9081 18.7461 91.6453 18.6138 92.4586 18.6138C93.291 18.6138 94.0282 18.7275 94.6282 18.9735C95.2492 19.2215 95.754 19.5439 96.1788 19.9223L95.6168 20.7761C95.5006 20.9476 95.3654 21.0426 95.1902 21.0426C95.074 21.0426 94.9578 21.0035 94.8416 20.9271C94.6873 20.832 94.533 20.7556 94.3768 20.6605C94.2225 20.5673 94.0473 20.4927 93.8549 20.4331C93.6606 20.3772 93.4472 20.3212 93.2148 20.2821C92.9825 20.2448 92.691 20.2262 92.3805 20.2262C91.8777 20.2262 91.411 20.3007 91.0052 20.4722C90.5976 20.6437 90.249 20.8711 89.9595 21.1936C89.668 21.4975 89.4547 21.8759 89.3004 22.3121C89.1442 22.7482 89.0661 23.2403 89.0661 23.7716C89.0661 24.3606 89.1442 24.8714 89.3195 25.3262C89.4947 25.7811 89.7271 26.1613 90.0166 26.4652C90.3081 26.769 90.6757 27.0151 91.0833 27.1847C91.4891 27.3562 91.9938 27.4512 92.4777 27.4512Z" fill="black"/>
<path fill-rule="evenodd" clip-rule="evenodd" d="M102.996 24.7733H99.5598V27.3757H104.555V28.9108H97.4263V18.6138H104.555V20.1508H99.5389V23.3165H103.487V24.443C103.487 24.443 103.466 24.7733 102.996 24.7733Z" fill="black"/>
<path fill-rule="evenodd" clip-rule="evenodd" d="M54.9093 83.96H57.5797C57.7133 83.96 57.8216 84.0683 57.8216 84.2019V84.2896C57.8216 84.3888 57.7844 84.4843 57.7174 84.5574L49.2817 93.751C49.143 93.9021 49.1427 94.1342 49.2809 94.2857L55.9364 101.579C56.0733 101.729 56.0745 101.958 55.9393 102.11L54.7568 103.435C54.6111 103.598 54.3608 103.612 54.1976 103.467C54.1876 103.458 54.1782 103.449 54.1692 103.439L45.789 94.2852C45.6505 94.1339 45.6504 93.902 45.7887 93.7506L54.617 84.0889C54.692 84.0067 54.7981 83.96 54.9093 83.96Z" fill="#F06A2A"/>
<path fill-rule="evenodd" clip-rule="evenodd" d="M58.7467 105.346H56.0816C55.9493 105.346 55.842 105.238 55.842 105.106V105.02C55.842 104.921 55.879 104.826 55.9456 104.753L64.3711 95.5258C64.5091 95.3747 64.5092 95.1433 64.3714 94.992L57.7354 87.708C57.5984 87.5576 57.5977 87.3279 57.7336 87.1766L58.9095 85.8681C59.0557 85.7054 59.3061 85.692 59.4688 85.8382C59.4783 85.8467 59.4873 85.8556 59.4959 85.8649L67.8742 94.9921C68.0129 95.1432 68.0133 95.3752 67.8751 95.5268L59.0394 105.217C58.9643 105.299 58.8581 105.346 58.7467 105.346Z" fill="#F06A2A"/>
<path fill-rule="evenodd" clip-rule="evenodd" d="M57.1148 99.0089C58.9255 99.0089 60.3537 96.998 60.1843 94.8478C60.109 93.8911 59.5211 92.1785 59.3218 92.4832C59.2234 92.6337 59.4467 93.8087 59.3735 94.5275C59.2519 95.7224 58.7937 96.45 58.5596 96.0246C58.3255 95.5992 58.4058 94.7596 58.349 93.8759C58.2873 92.9177 58.1267 91.9634 57.927 91.3715C57.8399 91.1133 57.0204 88.9191 56.4294 88.7119C56.3911 88.7119 56.367 88.7119 56.3572 88.7119C56.3381 88.7119 56.2839 88.7302 56.2509 88.7593C56.1206 88.8738 56.3165 89.6269 55.7741 90.5442C55.418 91.1464 54.7241 91.9316 54.384 92.7025C53.9235 93.7463 53.8413 94.7691 53.865 95.3093C53.9683 97.6656 55.3042 99.0089 57.1148 99.0089Z" fill="#F06A2A"/>
</g>
<defs>
<linearGradient id="paint0_linear_4539_107" x1="4262.32" y1="10770.8" x2="27840.9" y2="25727.1" gradientUnits="userSpaceOnUse">
<stop stop-color="#C2C2BD"/>
<stop offset="1" stop-color="#F06A2A"/>
</linearGradient>
<linearGradient id="paint1_linear_4539_107" x1="7166.16" y1="1772.22" x2="4889.05" y2="149.917" gradientUnits="userSpaceOnUse">
<stop stop-color="white"/>
<stop offset="1" stop-color="#E7E7E7"/>
</linearGradient>
<linearGradient id="paint2_linear_4539_107" x1="2032.92" y1="3753.78" x2="6135.8" y2="9555.74" gradientUnits="userSpaceOnUse">
<stop stop-color="white"/>
<stop offset="1" stop-color="#F3F3F3"/>
</linearGradient>
<linearGradient id="paint3_linear_4539_107" x1="20572.6" y1="822.106" x2="11065.5" y2="6891.74" gradientUnits="userSpaceOnUse">
<stop stop-color="#FFCB00"/>
<stop offset="1" stop-color="#F06A2B"/>
</linearGradient>
<linearGradient id="paint4_linear_4539_107" x1="-8491.26" y1="1377.67" x2="4011.44" y2="5641.44" gradientUnits="userSpaceOnUse">
<stop stop-color="#FFCB00"/>
<stop offset="1" stop-color="#F06A2B"/>
</linearGradient>
<linearGradient id="paint5_linear_4539_107" x1="20572.6" y1="822.106" x2="11065.5" y2="6891.74" gradientUnits="userSpaceOnUse">
<stop stop-color="#FFCB00"/>
<stop offset="1" stop-color="#F06A2B"/>
</linearGradient>
<linearGradient id="paint6_linear_4539_107" x1="-8491.26" y1="1377.67" x2="4011.44" y2="5641.44" gradientUnits="userSpaceOnUse">
<stop stop-color="#FFCB00"/>
<stop offset="1" stop-color="#F06A2B"/>
</linearGradient>
<clipPath id="clip0_4539_107">
<rect width="111.683" height="120" fill="white"/>
</clipPath>
</defs>
</svg>
