<svg width="102" height="114" viewBox="0 0 102 114" fill="none" xmlns="http://www.w3.org/2000/svg">
<path d="M8.70996 88.5125L51.5589 110.317L92.7806 88.5125V3.24854H8.70996V88.5125Z" fill="white"/>
<path d="M93.6481 3.57422L7.8418 90.0314L52.3179 112.053L93.6481 90.8992V3.57422Z" fill="#F2F3F2"/>
<path d="M5.88916 31.67V90.3567L7.40786 91.1161L50.2568 112.92L51.5585 113.571L52.8603 112.92L94.1905 91.1161L95.7092 90.3567V0.428223H5.88916V31.67ZM8.7096 88.7296V3.24866H92.8887V88.7296L51.5585 110.534L8.7096 88.7296Z" fill="#DCDEDC"/>
<path d="M50.7993 4.65888C51.2332 4.65888 51.6672 4.65888 52.1011 4.76735L50.7993 7.26236C48.8467 7.15388 47.1111 8.67257 47.0026 10.6252C46.8941 12.5778 48.4128 14.3134 50.3654 14.4219H50.7993C51.6672 14.4219 52.535 14.0965 53.1859 13.5541L54.5961 15.9406C53.5113 16.7 52.2096 17.1339 50.7993 17.1339C47.328 17.2424 44.3991 14.6389 44.2906 11.1676C44.1822 7.69627 46.7856 4.76735 50.2569 4.65888H50.7993ZM55.2469 9.97431L56.8741 12.6863L55.2469 15.2897L53.7282 12.6863H50.5824L52.2096 9.97431H55.2469ZM52.6435 8.99801C52.6435 8.5641 52.7519 8.13018 52.9689 7.80475C53.1859 7.47931 53.6198 7.15388 53.9452 6.93692L54.1622 6.82844C54.5961 6.61149 54.7046 6.50301 54.7046 6.28605C54.7046 6.06909 54.3791 5.85214 54.1622 5.85214C53.7282 5.85214 53.4028 6.06909 53.1859 6.50301L52.6435 5.96062C52.7519 5.74366 52.9689 5.5267 53.1859 5.30975C53.5113 5.09279 53.8367 5.09279 54.1622 5.09279C54.4876 5.09279 54.9215 5.20127 55.1385 5.41822C55.3554 5.63518 55.5724 5.96062 55.5724 6.28605C55.5724 6.82844 55.2469 7.26236 54.5961 7.47931L54.2706 7.69627C53.9452 7.91322 53.7282 8.0217 53.6198 8.34714H55.5724V9.10649L52.6435 8.99801ZM50.7993 22.5578L61.1048 16.7V0.428223H40.3854V16.5915L50.7993 22.5578ZM97.7704 60.9591H3.82824L0.356934 68.5526L3.82824 76.1461H97.7704L101.133 68.5526L97.7704 60.9591Z" fill="#FF492C"/>
<path d="M18.6901 44.6758C19.4061 44.6758 20.0353 44.8204 20.5777 45.1097C21.1201 45.399 21.5395 45.8148 21.836 46.3572C22.1325 46.8924 22.2808 47.5071 22.2808 48.2014C22.2808 48.8884 22.1289 49.4922 21.8252 50.0129C21.5142 50.5264 21.0803 50.9278 20.5234 51.217C19.9666 51.5063 19.3229 51.651 18.5925 51.651H16.2819C16.2313 51.651 16.206 51.6799 16.206 51.7377V55.8816C16.206 55.9395 16.1843 55.9865 16.1409 56.0226C16.1047 56.0588 16.0577 56.0769 15.9999 56.0769H14.1015C14.0437 56.0769 13.9966 56.0588 13.9605 56.0226C13.9243 55.9865 13.9062 55.9395 13.9062 55.8816V44.8711C13.9062 44.8132 13.9243 44.7662 13.9605 44.73C13.9966 44.6939 14.0437 44.6758 14.1015 44.6758H18.6901ZM18.343 49.8177C18.8492 49.8177 19.2506 49.673 19.5471 49.3838C19.8509 49.0945 20.0027 48.7184 20.0027 48.2556C20.0027 47.7711 19.8509 47.3841 19.5471 47.0949C19.2506 46.7984 18.8492 46.6501 18.343 46.6501H16.2819C16.2313 46.6501 16.206 46.679 16.206 46.7369V49.7309C16.206 49.7887 16.2313 49.8177 16.2819 49.8177H18.343ZM30.4926 51.0326C30.5504 51.4448 30.5685 51.9041 30.5468 52.4103C30.5396 52.5477 30.4709 52.6164 30.3407 52.6164H25.3182C25.2531 52.6164 25.2278 52.6417 25.2422 52.6924C25.2784 52.9093 25.3399 53.1263 25.4266 53.3432C25.7087 53.9507 26.2836 54.2544 27.1514 54.2544C27.8457 54.2472 28.3917 53.9652 28.7895 53.4083C28.8401 53.3432 28.8907 53.3107 28.9413 53.3107C28.9703 53.3107 29.0064 53.3324 29.0498 53.3758L30.2214 54.5256C30.2792 54.5835 30.3082 54.6341 30.3082 54.6775C30.3082 54.6992 30.2865 54.7426 30.2431 54.8077C29.8815 55.2561 29.4223 55.5996 28.8654 55.8382C28.2941 56.0841 27.6721 56.207 26.9996 56.207C26.0739 56.207 25.2856 55.9973 24.6348 55.5779C23.9911 55.1512 23.5283 54.5582 23.2462 53.7988C23.0148 53.2564 22.8991 52.5477 22.8991 51.6727C22.8991 51.0724 22.9823 50.5445 23.1486 50.0889C23.4017 49.3223 23.8392 48.7112 24.4612 48.2556C25.0831 47.8 25.8208 47.5722 26.6741 47.5722C27.7589 47.5722 28.6304 47.8868 29.2885 48.5159C29.9466 49.1451 30.3479 49.984 30.4926 51.0326ZM26.6958 49.5573C26.0088 49.5573 25.5568 49.8755 25.3399 50.5119C25.2965 50.6566 25.2603 50.8301 25.2314 51.0326C25.2314 51.0833 25.2603 51.1086 25.3182 51.1086H28.1278C28.1928 51.1086 28.2145 51.0833 28.1928 51.0326C28.135 50.7217 28.1061 50.5698 28.1061 50.577C28.012 50.2516 27.8421 49.9985 27.5962 49.8177C27.3576 49.6441 27.0574 49.5573 26.6958 49.5573ZM36.1335 47.6047C36.524 47.6047 36.8349 47.6807 37.0664 47.8325C37.1459 47.8759 37.1748 47.9555 37.1531 48.0712L36.8169 49.9262C36.8096 50.0563 36.7337 50.0961 36.5891 50.0455C36.4227 49.9876 36.2347 49.9587 36.025 49.9587C35.9382 49.9587 35.8152 49.9695 35.6561 49.9912C35.2729 50.0274 34.9438 50.172 34.669 50.4252C34.4014 50.6783 34.2676 51.0182 34.2676 51.4449V55.8816C34.2676 55.9395 34.2459 55.9865 34.2025 56.0226C34.1664 56.0588 34.123 56.0769 34.0724 56.0769H32.1631C32.1125 56.0769 32.0655 56.0588 32.0221 56.0226C31.986 55.9865 31.9679 55.9395 31.9679 55.8816V47.9085C31.9679 47.8578 31.986 47.8108 32.0221 47.7674C32.0655 47.7313 32.1125 47.7132 32.1631 47.7132H34.0724C34.123 47.7132 34.1664 47.7313 34.2025 47.7674C34.2459 47.8108 34.2676 47.8578 34.2676 47.9085V48.5268C34.2676 48.5557 34.2785 48.5774 34.3002 48.5919C34.3146 48.6063 34.3291 48.5991 34.3436 48.5702C34.7919 47.9265 35.3886 47.6047 36.1335 47.6047ZM43.0652 47.7023C43.1231 47.7023 43.1701 47.7204 43.2062 47.7566C43.2424 47.7927 43.2605 47.8398 43.2605 47.8976V49.438C43.2605 49.4959 43.2424 49.5429 43.2062 49.579C43.1701 49.6152 43.1231 49.6333 43.0652 49.6333H41.4923C41.4344 49.6333 41.4055 49.6586 41.4055 49.7092V55.8816C41.4055 55.9395 41.3874 55.9865 41.3513 56.0226C41.3151 56.0588 41.2681 56.0769 41.2102 56.0769H39.3119C39.254 56.0769 39.207 56.0588 39.1708 56.0226C39.1347 55.9865 39.1166 55.9395 39.1166 55.8816V49.7092C39.1166 49.6586 39.0877 49.6333 39.0298 49.6333H38.0752C38.0174 49.6333 37.9704 49.6152 37.9342 49.579C37.898 49.5429 37.88 49.4959 37.88 49.438V47.8976C37.88 47.8398 37.898 47.7927 37.9342 47.7566C37.9704 47.7204 38.0174 47.7023 38.0752 47.7023H39.0298C39.0877 47.7023 39.1166 47.6734 39.1166 47.6156V47.2576C39.1166 46.585 39.2178 46.0607 39.4203 45.6847C39.6301 45.3158 39.9627 45.0519 40.4183 44.8928C40.8812 44.7337 41.5212 44.665 42.3384 44.6867H42.9567C43.0074 44.6867 43.0508 44.7047 43.0869 44.7409C43.1303 44.7843 43.152 44.8313 43.152 44.8819V46.1945C43.152 46.2524 43.1303 46.2994 43.0869 46.3355C43.0508 46.3789 43.0074 46.4006 42.9567 46.4006H42.4143C42.0383 46.4078 41.7743 46.4838 41.6224 46.6284C41.4778 46.7803 41.4055 47.0515 41.4055 47.442V47.6156C41.4055 47.6734 41.4344 47.7023 41.4923 47.7023H43.0652ZM47.784 56.207C46.8728 56.207 46.0918 55.9684 45.4409 55.4911C44.79 55.0138 44.3453 54.3629 44.1066 53.5385C43.9547 53.0322 43.8788 52.479 43.8788 51.8788C43.8788 51.2424 43.9547 50.6674 44.1066 50.154C44.3597 49.3512 44.8117 48.722 45.4626 48.2664C46.1135 47.8108 46.8945 47.583 47.8057 47.583C48.688 47.583 49.4474 47.8072 50.0838 48.2556C50.7057 48.7112 51.1468 49.3404 51.4072 50.1431C51.588 50.6855 51.6784 51.2532 51.6784 51.8462C51.6784 52.432 51.6025 52.9816 51.4506 53.4951C51.2119 54.3412 50.7672 55.0029 50.1163 55.4802C49.4727 55.9648 48.6952 56.207 47.784 56.207ZM47.784 54.2436C48.1384 54.2436 48.4421 54.1351 48.6952 53.9182C48.9484 53.7012 49.1291 53.4011 49.2376 53.0178C49.3172 52.6707 49.357 52.291 49.357 51.8788C49.357 51.4232 49.3172 51.0399 49.2376 50.7289C49.1147 50.3601 48.9303 50.0708 48.6844 49.8611C48.4313 49.6586 48.1239 49.5573 47.7623 49.5573C47.4007 49.5573 47.097 49.6586 46.8511 49.8611C46.6052 50.0708 46.428 50.3601 46.3196 50.7289C46.2328 50.982 46.1894 51.3653 46.1894 51.8788C46.1894 52.3705 46.2292 52.7502 46.3087 53.0178C46.4172 53.4011 46.598 53.7012 46.8511 53.9182C47.1042 54.1351 47.4152 54.2436 47.784 54.2436ZM57.3193 47.6047C57.7098 47.6047 58.0208 47.6807 58.2522 47.8325C58.339 47.8759 58.3679 47.9555 58.339 48.0712L58.0027 49.9262C57.9954 50.0563 57.9195 50.0961 57.7749 50.0455C57.6085 49.9876 57.4205 49.9587 57.2108 49.9587C57.124 49.9587 57.0047 49.9695 56.8528 49.9912C56.4623 50.0274 56.1296 50.172 55.8548 50.4252C55.5872 50.6783 55.4534 51.0182 55.4534 51.4449V55.8816C55.4534 55.9395 55.4317 55.9865 55.3883 56.0226C55.3522 56.0588 55.3052 56.0769 55.2473 56.0769H53.349C53.2983 56.0769 53.2513 56.0588 53.2079 56.0226C53.1718 55.9865 53.1537 55.9395 53.1537 55.8816V47.9085C53.1537 47.8578 53.1718 47.8108 53.2079 47.7674C53.2513 47.7313 53.2983 47.7132 53.349 47.7132H55.2473C55.3052 47.7132 55.3522 47.7313 55.3883 47.7674C55.4317 47.8108 55.4534 47.8578 55.4534 47.9085V48.5268C55.4534 48.5557 55.4607 48.5774 55.4751 48.5919C55.5041 48.6063 55.5221 48.5991 55.5294 48.5702C55.9777 47.9265 56.5744 47.6047 57.3193 47.6047ZM68.6552 47.583C69.5014 47.583 70.1631 47.8361 70.6404 48.3424C71.1177 48.8558 71.3563 49.5754 71.3563 50.5011V55.8816C71.3563 55.9395 71.3383 55.9865 71.3021 56.0226C71.266 56.0588 71.2226 56.0769 71.1719 56.0769H69.2627C69.2121 56.0769 69.1651 56.0588 69.1217 56.0226C69.0855 55.9865 69.0675 55.9395 69.0675 55.8816V51.0001C69.0675 50.5589 68.9554 50.2082 68.7312 49.9478C68.4998 49.6875 68.1924 49.5573 67.8091 49.5573C67.4331 49.5573 67.1257 49.6875 66.887 49.9478C66.6484 50.2082 66.5291 50.5553 66.5291 50.9892V55.8816C66.5291 55.9395 66.511 55.9865 66.4748 56.0226C66.4314 56.0588 66.3844 56.0769 66.3338 56.0769H64.4463C64.3884 56.0769 64.3414 56.0588 64.3053 56.0226C64.2691 55.9865 64.251 55.9395 64.251 55.8816V51.0001C64.251 50.5662 64.1317 50.2154 63.893 49.9478C63.6544 49.6875 63.3434 49.5573 62.9601 49.5573C62.6202 49.5573 62.331 49.6586 62.0923 49.8611C61.8609 50.0708 61.7235 50.3601 61.6801 50.7289V55.8816C61.6801 55.9395 61.662 55.9865 61.6259 56.0226C61.5825 56.0588 61.5354 56.0769 61.4848 56.0769H59.5865C59.5286 56.0769 59.4816 56.0588 59.4454 56.0226C59.4093 55.9865 59.3912 55.9395 59.3912 55.8816V47.9085C59.3912 47.8578 59.4093 47.8108 59.4454 47.7674C59.4816 47.7313 59.5286 47.7132 59.5865 47.7132H61.4848C61.5354 47.7132 61.5825 47.7313 61.6259 47.7674C61.662 47.8108 61.6801 47.8578 61.6801 47.9085V48.5485C61.6801 48.5774 61.6909 48.5991 61.7126 48.6136C61.7343 48.6208 61.756 48.6063 61.7777 48.5702C62.2261 47.9121 62.9167 47.583 63.8497 47.583C64.392 47.583 64.8657 47.6987 65.2707 47.9302C65.6757 48.1543 65.9867 48.4798 66.2036 48.9065C66.2326 48.9715 66.2723 48.9715 66.323 48.9065C66.5544 48.4581 66.8762 48.1254 67.2884 47.9085C67.6934 47.6915 68.149 47.583 68.6552 47.583ZM80.3275 51.0326C80.3926 51.4448 80.4143 51.9041 80.3926 52.4103C80.3781 52.5477 80.3058 52.6164 80.1756 52.6164H75.1531C75.088 52.6164 75.0663 52.6417 75.088 52.6924C75.1169 52.9093 75.1748 53.1263 75.2616 53.3432C75.5436 53.9507 76.1185 54.2544 76.9864 54.2544C77.6806 54.2472 78.2303 53.9652 78.6352 53.4083C78.6786 53.3432 78.7256 53.3107 78.7763 53.3107C78.8124 53.3107 78.8522 53.3324 78.8956 53.3758L80.0672 54.5256C80.1178 54.5835 80.1431 54.6341 80.1431 54.6775C80.1431 54.6992 80.1214 54.7426 80.078 54.8077C79.7236 55.2561 79.2644 55.5996 78.7003 55.8382C78.1362 56.0841 77.5179 56.207 76.8454 56.207C75.9124 56.207 75.1242 55.9973 74.4805 55.5779C73.8297 55.1512 73.3632 54.5582 73.0812 53.7988C72.857 53.2564 72.7449 52.5477 72.7449 51.6727C72.7449 51.0724 72.8244 50.5445 72.9835 50.0889C73.2366 49.3223 73.6742 48.7112 74.2961 48.2556C74.9181 47.8 75.6593 47.5722 76.5199 47.5722C77.6047 47.5722 78.4761 47.8868 79.1342 48.5159C79.7923 49.1451 80.1901 49.984 80.3275 51.0326ZM76.5308 49.5573C75.851 49.5573 75.4026 49.8755 75.1856 50.5119C75.1422 50.6566 75.1025 50.8301 75.0663 51.0326C75.0663 51.0833 75.0952 51.1086 75.1531 51.1086H77.9627C78.0278 51.1086 78.0495 51.0833 78.0278 51.0326C77.9771 50.7217 77.9518 50.5698 77.9518 50.577C77.8506 50.2516 77.6806 49.9985 77.442 49.8177C77.1961 49.6441 76.8924 49.5573 76.5308 49.5573ZM85.9684 47.6047C86.3589 47.6047 86.6699 47.6807 86.9013 47.8325C86.9881 47.8759 87.0206 47.9555 86.9989 48.0712L86.6626 49.9262C86.6482 50.0563 86.5686 50.0961 86.424 50.0455C86.2649 49.9876 86.0769 49.9587 85.8599 49.9587C85.7731 49.9587 85.6538 49.9695 85.5019 49.9912C85.1114 50.0274 84.7787 50.172 84.5039 50.4252C84.2363 50.6783 84.1025 51.0182 84.1025 51.4449V55.8816C84.1025 55.9395 84.0845 55.9865 84.0483 56.0226C84.0049 56.0588 83.9579 56.0769 83.9073 56.0769H81.9981C81.9474 56.0769 81.9041 56.0588 81.8679 56.0226C81.8245 55.9865 81.8028 55.9395 81.8028 55.8816V47.9085C81.8028 47.8578 81.8245 47.8108 81.8679 47.7674C81.9041 47.7313 81.9474 47.7132 81.9981 47.7132H83.9073C83.9579 47.7132 84.0049 47.7313 84.0483 47.7674C84.0845 47.8108 84.1025 47.8578 84.1025 47.9085V48.5268C84.1025 48.5557 84.1134 48.5774 84.1351 48.5919C84.1568 48.6063 84.1749 48.5991 84.1893 48.5702C84.6305 47.9265 85.2235 47.6047 85.9684 47.6047ZM41.2102 28.6102C41.2102 28.5595 41.2283 28.5125 41.2645 28.4691C41.3006 28.433 41.344 28.4149 41.3946 28.4149H43.3039C43.3545 28.4149 43.4015 28.433 43.4449 28.4691C43.481 28.5125 43.4991 28.5595 43.4991 28.6102V39.6099C43.4991 39.6677 43.481 39.7147 43.4449 39.7509C43.4015 39.7871 43.3545 39.8051 43.3039 39.8051H41.3946C41.344 39.8051 41.3006 39.7871 41.2645 39.7509C41.2283 39.7147 41.2102 39.6677 41.2102 39.6099V35.1189C41.2102 35.0682 41.1813 35.0429 41.1235 35.0429H37.522C37.4713 35.0429 37.446 35.0682 37.446 35.1189V39.6099C37.446 39.6677 37.428 39.7147 37.3918 39.7509C37.3484 39.7871 37.3014 39.8051 37.2508 39.8051H35.3416C35.2909 39.8051 35.2475 39.7871 35.2114 39.7509C35.168 39.7147 35.1463 39.6677 35.1463 39.6099V28.6102C35.1463 28.5595 35.168 28.5125 35.2114 28.4691C35.2475 28.433 35.2909 28.4149 35.3416 28.4149H37.2508C37.3014 28.4149 37.3484 28.433 37.3918 28.4691C37.428 28.5125 37.446 28.5595 37.446 28.6102V32.9818C37.446 33.0397 37.4713 33.0686 37.522 33.0686H41.1235C41.1813 33.0686 41.2102 33.0397 41.2102 32.9818V28.6102ZM46.4606 30.4977C46.0918 30.4977 45.7844 30.3748 45.5385 30.1289C45.2926 29.8902 45.1697 29.5865 45.1697 29.2177C45.1697 28.8344 45.289 28.5234 45.5277 28.2847C45.7663 28.0461 46.0773 27.9268 46.4606 27.9268C46.8439 27.9268 47.1548 28.0461 47.3935 28.2847C47.6321 28.5234 47.7515 28.8344 47.7515 29.2177C47.7515 29.5865 47.6285 29.8902 47.3826 30.1289C47.1368 30.3748 46.8294 30.4977 46.4606 30.4977ZM45.4843 39.8051C45.4337 39.8051 45.3866 39.7871 45.3433 39.7509C45.3071 39.7147 45.289 39.6677 45.289 39.6099V31.6259C45.289 31.568 45.3071 31.521 45.3433 31.4848C45.3866 31.4487 45.4337 31.4306 45.4843 31.4306H47.3935C47.4441 31.4306 47.4875 31.4487 47.5237 31.4848C47.5671 31.521 47.5888 31.568 47.5888 31.6259V39.6099C47.5888 39.6677 47.5671 39.7147 47.5237 39.7509C47.4875 39.7871 47.4441 39.8051 47.3935 39.8051H45.4843ZM54.4771 31.6367C54.4771 31.5861 54.4988 31.5391 54.5422 31.4957C54.5784 31.4595 54.6218 31.4415 54.6724 31.4415H56.5816C56.6322 31.4415 56.6792 31.4595 56.7226 31.4957C56.7588 31.5391 56.7769 31.5861 56.7769 31.6367V39.0566C56.7769 40.4741 56.3683 41.4865 55.5511 42.094C54.7339 42.7087 53.678 43.0161 52.3835 43.0161C52.0002 43.0161 51.5771 42.9872 51.1143 42.9293C51.0058 42.9148 50.9516 42.8461 50.9516 42.7232L51.0167 41.0418C51.0167 40.8971 51.0926 40.8357 51.2445 40.8574C51.635 40.9225 51.993 40.955 52.3184 40.955C53.0127 40.955 53.5478 40.8067 53.9239 40.5102C54.2927 40.1993 54.4771 39.7111 54.4771 39.0458C54.4771 39.0096 54.4663 38.9879 54.4446 38.9807C54.4229 38.9735 54.4012 38.9843 54.3795 39.0132C53.9673 39.4544 53.367 39.675 52.5788 39.675C51.87 39.675 51.2228 39.505 50.637 39.1651C50.044 38.8252 49.6209 38.2756 49.3678 37.5162C49.2087 37.0172 49.1292 36.37 49.1292 35.5745C49.1292 34.7283 49.2268 34.0413 49.422 33.5134C49.6462 32.8481 50.0295 32.3165 50.5719 31.9188C51.1143 31.5138 51.7471 31.3113 52.4703 31.3113C53.3019 31.3113 53.9384 31.5608 54.3795 32.0598C54.4012 32.0815 54.4229 32.0887 54.4446 32.0815C54.4663 32.0742 54.4771 32.0562 54.4771 32.0272V31.6367ZM54.347 36.8871C54.4337 36.5689 54.4771 36.1241 54.4771 35.5528C54.4771 35.2201 54.4663 34.9634 54.4446 34.7826C54.4229 34.5946 54.3867 34.4174 54.3361 34.251C54.2349 33.9618 54.0721 33.7267 53.848 33.5459C53.6238 33.3724 53.3417 33.2856 53.0018 33.2856C52.6764 33.2856 52.4016 33.3724 52.1774 33.5459C51.946 33.7267 51.776 33.9618 51.6675 34.251C51.5157 34.5765 51.4397 35.0176 51.4397 35.5745C51.4397 36.182 51.5048 36.6159 51.635 36.8762C51.729 37.1727 51.899 37.4078 52.1448 37.5813C52.3907 37.7621 52.68 37.8525 53.0127 37.8525C53.3598 37.8525 53.6491 37.7621 53.8805 37.5813C54.1047 37.4078 54.2602 37.1763 54.347 36.8871ZM62.7866 31.3113C63.6544 31.3113 64.3523 31.5789 64.8802 32.114C65.4081 32.6419 65.6721 33.3615 65.6721 34.2727V39.6099C65.6721 39.6677 65.654 39.7147 65.6179 39.7509C65.5817 39.7871 65.5383 39.8051 65.4877 39.8051H63.5785C63.5278 39.8051 63.4808 39.7871 63.4374 39.7509C63.4013 39.7147 63.3832 39.6677 63.3832 39.6099V34.7392C63.3832 34.3125 63.2603 33.9618 63.0144 33.687C62.7757 33.4194 62.4539 33.2856 62.0489 33.2856C61.6512 33.2856 61.3293 33.4194 61.0835 33.687C60.8376 33.9618 60.7146 34.3125 60.7146 34.7392V39.6099C60.7146 39.6677 60.6966 39.7147 60.6604 39.7509C60.6242 39.7871 60.5772 39.8051 60.5194 39.8051H58.621C58.5631 39.8051 58.5161 39.7871 58.48 39.7509C58.4438 39.7147 58.4257 39.6677 58.4257 39.6099V28.6102C58.4257 28.5595 58.4438 28.5125 58.48 28.4691C58.5161 28.433 58.5631 28.4149 58.621 28.4149H60.5194C60.5772 28.4149 60.6242 28.433 60.6604 28.4691C60.6966 28.5125 60.7146 28.5595 60.7146 28.6102V32.2117C60.7146 32.2406 60.7255 32.2623 60.7472 32.2767C60.7689 32.284 60.7833 32.2767 60.7906 32.255C61.2389 31.6259 61.9043 31.3113 62.7866 31.3113Z" fill="#252530"/>
<path d="M33.7684 72.7829C33.6888 72.7829 33.6382 72.7468 33.6165 72.6745L31.6422 65.3305L31.6313 65.2871C31.6313 65.222 31.6711 65.1895 31.7507 65.1895H32.8138C32.8933 65.1895 32.9439 65.2256 32.9656 65.2979L34.2023 70.2445C34.2095 70.2662 34.2204 70.2771 34.2348 70.2771C34.2493 70.2771 34.2601 70.2662 34.2674 70.2445L35.4498 65.2979C35.4715 65.2256 35.5185 65.1895 35.5908 65.1895H36.6322C36.7117 65.1895 36.7624 65.2256 36.7841 65.2979L38.0424 70.2554C38.0496 70.2771 38.0605 70.2879 38.075 70.2879C38.0894 70.2879 38.1003 70.2771 38.1075 70.2554L39.3225 65.2979C39.3442 65.2256 39.3948 65.1895 39.4743 65.1895H40.4832C40.5844 65.1895 40.6242 65.2365 40.6025 65.3305L38.7258 72.6745C38.7041 72.7468 38.6535 72.7829 38.574 72.7829H37.5651C37.4856 72.7829 37.4349 72.7468 37.4132 72.6745L36.144 67.5C36.1368 67.4783 36.126 67.4639 36.1115 67.4566C36.097 67.4566 36.0862 67.4711 36.079 67.5L34.864 72.6745C34.8423 72.7468 34.7953 72.7829 34.723 72.7829H33.7684ZM41.8066 72.7829C41.7705 72.7829 41.7379 72.7685 41.709 72.7395C41.6873 72.7178 41.6764 72.6889 41.6764 72.6528V65.3196C41.6764 65.2835 41.6873 65.2545 41.709 65.2328C41.7379 65.2039 41.7705 65.1895 41.8066 65.1895H42.8046C42.8408 65.1895 42.8697 65.2039 42.8914 65.2328C42.9203 65.2545 42.9348 65.2835 42.9348 65.3196V72.6528C42.9348 72.6889 42.9203 72.7178 42.8914 72.7395C42.8697 72.7685 42.8408 72.7829 42.8046 72.7829H41.8066ZM48.9336 65.3196C48.9336 65.2835 48.9445 65.2545 48.9662 65.2328C48.9951 65.2039 49.0276 65.1895 49.0638 65.1895H50.0618C50.098 65.1895 50.1269 65.2039 50.1486 65.2328C50.1775 65.2545 50.192 65.2835 50.192 65.3196V72.6528C50.192 72.6889 50.1775 72.7178 50.1486 72.7395C50.1269 72.7685 50.098 72.7829 50.0618 72.7829H49.0964C49.024 72.7829 48.9734 72.754 48.9445 72.6961L45.8203 67.576C45.8058 67.5543 45.7914 67.5434 45.7769 67.5434C45.7625 67.5507 45.7552 67.5687 45.7552 67.5977L45.7769 72.6528C45.7769 72.6889 45.7625 72.7178 45.7335 72.7395C45.7118 72.7685 45.6829 72.7829 45.6467 72.7829H44.6487C44.6126 72.7829 44.58 72.7685 44.5511 72.7395C44.5294 72.7178 44.5186 72.6889 44.5186 72.6528V65.3196C44.5186 65.2835 44.5294 65.2545 44.5511 65.2328C44.58 65.2039 44.6126 65.1895 44.6487 65.1895H45.6142C45.6865 65.1895 45.7371 65.2184 45.7661 65.2762L48.8794 70.3964C48.8939 70.4181 48.9083 70.4253 48.9228 70.4181C48.9372 70.4181 48.9445 70.4036 48.9445 70.3747L48.9336 65.3196ZM56.7658 65.1895C56.8019 65.1895 56.8309 65.2039 56.8525 65.2328C56.8815 65.2545 56.8959 65.2835 56.8959 65.3196V66.1549C56.8959 66.1911 56.8815 66.22 56.8525 66.2417C56.8309 66.2706 56.8019 66.2851 56.7658 66.2851H54.7698C54.7336 66.2851 54.7155 66.3032 54.7155 66.3393V72.6528C54.7155 72.6889 54.7047 72.7178 54.683 72.7395C54.6541 72.7685 54.6215 72.7829 54.5854 72.7829H53.5874C53.5512 72.7829 53.5223 72.7685 53.5006 72.7395C53.4716 72.7178 53.4572 72.6889 53.4572 72.6528V66.3393C53.4572 66.3032 53.4391 66.2851 53.4029 66.2851H51.4829C51.4467 66.2851 51.4142 66.2706 51.3852 66.2417C51.3635 66.22 51.3527 66.1911 51.3527 66.1549V65.3196C51.3527 65.2835 51.3635 65.2545 51.3852 65.2328C51.4142 65.2039 51.4467 65.1895 51.4829 65.1895H56.7658ZM63.1985 66.1441C63.1985 66.1802 63.1841 66.2091 63.1551 66.2308C63.1334 66.2598 63.1045 66.2742 63.0684 66.2742H59.3692C59.3331 66.2742 59.315 66.2923 59.315 66.3285V68.357C59.315 68.3932 59.3331 68.4113 59.3692 68.4113H61.8534C61.8896 68.4113 61.9221 68.4221 61.951 68.4438C61.9727 68.4727 61.9836 68.5053 61.9836 68.5414V69.3659C61.9836 69.402 61.9727 69.4346 61.951 69.4635C61.9221 69.4852 61.8896 69.496 61.8534 69.496H59.3692C59.3331 69.496 59.315 69.5141 59.315 69.5503V71.6439C59.315 71.6801 59.3331 71.6982 59.3692 71.6982H63.0684C63.1045 71.6982 63.1334 71.7126 63.1551 71.7415C63.1841 71.7632 63.1985 71.7922 63.1985 71.8283V72.6528C63.1985 72.6889 63.1841 72.7178 63.1551 72.7395C63.1334 72.7685 63.1045 72.7829 63.0684 72.7829H58.1868C58.1507 72.7829 58.1181 72.7685 58.0892 72.7395C58.0675 72.7178 58.0567 72.6889 58.0567 72.6528V65.3196C58.0567 65.2835 58.0675 65.2545 58.0892 65.2328C58.1181 65.2039 58.1507 65.1895 58.1868 65.1895H63.0684C63.1045 65.1895 63.1334 65.2039 63.1551 65.2328C63.1841 65.2545 63.1985 65.2835 63.1985 65.3196V66.1441ZM68.7418 72.7829C68.6694 72.7829 68.6188 72.7504 68.5899 72.6853L67.158 69.5611C67.1435 69.5322 67.1218 69.5177 67.0929 69.5177H65.7912C65.755 69.5177 65.7369 69.5358 65.7369 69.572V72.6528C65.7369 72.6889 65.7225 72.7178 65.6935 72.7395C65.6718 72.7685 65.6429 72.7829 65.6067 72.7829H64.6087C64.5726 72.7829 64.54 72.7685 64.5111 72.7395C64.4894 72.7178 64.4786 72.6889 64.4786 72.6528V65.3196C64.4786 65.2835 64.4894 65.2545 64.5111 65.2328C64.54 65.2039 64.5726 65.1895 64.6087 65.1895H67.5919C68.033 65.1895 68.4236 65.2799 68.7635 65.4606C69.1034 65.6487 69.3673 65.909 69.5554 66.2417C69.7434 66.5816 69.8374 66.9685 69.8374 67.4024C69.8374 67.9014 69.7072 68.3245 69.4469 68.6716C69.1938 69.026 68.8394 69.2719 68.3838 69.4093C68.3693 69.4093 68.3585 69.4165 68.3512 69.4309C68.344 69.4454 68.344 69.4599 68.3512 69.4743L69.8808 72.6311C69.8953 72.66 69.9025 72.6817 69.9025 72.6961C69.9025 72.754 69.8627 72.7829 69.7832 72.7829H68.7418ZM65.7912 66.2742C65.755 66.2742 65.7369 66.2923 65.7369 66.3285V68.4872C65.7369 68.5234 65.755 68.5414 65.7912 68.5414H67.4183C67.7655 68.5414 68.0475 68.4366 68.2645 68.2268C68.4742 68.0243 68.5791 67.7532 68.5791 67.4133C68.5791 67.0734 68.4742 66.7985 68.2645 66.5888C68.0475 66.3791 67.7655 66.2742 67.4183 66.2742H65.7912Z" fill="white"/>
<path d="M36.8381 92.3742C36.8164 92.3959 36.8091 92.4176 36.8164 92.4393C36.8308 92.461 36.8525 92.4718 36.8815 92.4718H41.1447C41.1953 92.4718 41.2387 92.4899 41.2748 92.5261C41.3182 92.5622 41.3399 92.6056 41.3399 92.6563V94.1858C41.3399 94.2364 41.3182 94.2798 41.2748 94.316C41.2387 94.3521 41.1953 94.3702 41.1447 94.3702H34.0719C34.014 94.3702 33.967 94.3521 33.9309 94.316C33.8947 94.2798 33.8766 94.2364 33.8766 94.1858V92.7322C33.8766 92.6382 33.9092 92.5586 33.9742 92.4935C34.4877 91.9945 35.012 91.4485 35.5472 90.8555C36.0823 90.2625 36.4186 89.8937 36.556 89.749C36.8453 89.4019 37.1418 89.0692 37.4455 88.751C38.4002 87.6952 38.8775 86.9105 38.8775 86.3971C38.8775 86.0282 38.7473 85.7245 38.4869 85.4858C38.2266 85.2544 37.8867 85.1387 37.4672 85.1387C37.0478 85.1387 36.7079 85.2544 36.4475 85.4858C36.18 85.7245 36.0462 86.0391 36.0462 86.4296V86.8201C36.0462 86.8707 36.0281 86.9141 35.9919 86.9503C35.9558 86.9865 35.9124 87.0045 35.8618 87.0045H34.0068C33.9562 87.0045 33.9128 86.9865 33.8766 86.9503C33.8332 86.9141 33.8115 86.8707 33.8115 86.8201V86.0825C33.8477 85.5184 34.0285 85.0158 34.3539 84.5746C34.6793 84.1407 35.1096 83.808 35.6448 83.5766C36.1872 83.3452 36.7947 83.2295 37.4672 83.2295C38.2121 83.2295 38.8594 83.3705 39.409 83.6526C39.9586 83.9274 40.3817 84.2998 40.6782 84.7699C40.9819 85.2472 41.1338 85.7715 41.1338 86.3428C41.1338 86.784 41.0217 87.236 40.7975 87.6988C40.5806 88.1616 40.2515 88.6606 39.8104 89.1958C39.4849 89.6008 39.1342 90.0058 38.7581 90.4108C38.3821 90.8085 37.8216 91.3834 37.0767 92.1356L36.8381 92.3742ZM46.4492 94.5438C45.2921 94.5438 44.3809 94.222 43.7156 93.5783C43.043 92.9347 42.7067 92.056 42.7067 90.9423V86.7876C42.7067 85.6956 43.043 84.8314 43.7156 84.1949C44.3809 83.5513 45.2921 83.2295 46.4492 83.2295C47.5991 83.2295 48.5139 83.5513 49.1937 84.1949C49.8663 84.8314 50.2026 85.6956 50.2026 86.7876V90.9423C50.2026 92.056 49.8663 92.9347 49.1937 93.5783C48.5139 94.222 47.5991 94.5438 46.4492 94.5438ZM46.4492 92.6454C46.9193 92.6454 47.2918 92.5008 47.5666 92.2115C47.8486 91.9222 47.9896 91.5353 47.9896 91.0508V86.7225C47.9896 86.2452 47.8486 85.8619 47.5666 85.5726C47.2918 85.2834 46.9193 85.1387 46.4492 85.1387C45.9864 85.1387 45.6176 85.2834 45.3428 85.5726C45.0607 85.8619 44.9197 86.2452 44.9197 86.7225V91.0508C44.9197 91.5353 45.0607 91.9222 45.3428 92.2115C45.6176 92.5008 45.9864 92.6454 46.4492 92.6454ZM54.6068 92.3742C54.5851 92.3959 54.5815 92.4176 54.596 92.4393C54.6032 92.461 54.6249 92.4718 54.661 92.4718H58.9242C58.9749 92.4718 59.0183 92.4899 59.0544 92.5261C59.0906 92.5622 59.1087 92.6056 59.1087 92.6563V94.1858C59.1087 94.2364 59.0906 94.2798 59.0544 94.316C59.0183 94.3521 58.9749 94.3702 58.9242 94.3702H51.8406C51.79 94.3702 51.7466 94.3521 51.7104 94.316C51.6743 94.2798 51.6562 94.2364 51.6562 94.1858V92.7322C51.6562 92.6382 51.6851 92.5586 51.743 92.4935C52.2637 91.9945 52.788 91.4485 53.3159 90.8555C53.8511 90.2625 54.1874 89.8937 54.3248 89.749C54.6213 89.4019 54.9214 89.0692 55.2251 88.751C56.1797 87.6952 56.657 86.9105 56.657 86.3971C56.657 86.0282 56.5269 85.7245 56.2665 85.4858C55.9989 85.2544 55.6554 85.1387 55.236 85.1387C54.8165 85.1387 54.4766 85.2544 54.2163 85.4858C53.9559 85.7245 53.8258 86.0391 53.8258 86.4296V86.8201C53.8258 86.8707 53.8077 86.9141 53.7715 86.9503C53.7354 86.9865 53.6884 87.0045 53.6305 87.0045H51.7755C51.7249 87.0045 51.6815 86.9865 51.6454 86.9503C51.6092 86.9141 51.5911 86.8707 51.5911 86.8201V86.0825C51.62 85.5184 51.7972 85.0158 52.1227 84.5746C52.4481 84.1407 52.882 83.808 53.4244 83.5766C53.9668 83.3452 54.5707 83.2295 55.236 83.2295C55.9809 83.2295 56.6281 83.3705 57.1777 83.6526C57.7346 83.9274 58.1613 84.2998 58.4578 84.7699C58.7543 85.2472 58.9025 85.7715 58.9025 86.3428C58.9025 86.784 58.7941 87.236 58.5771 87.6988C58.3529 88.1616 58.0203 88.6606 57.5791 89.1958C57.2537 89.6008 56.9029 90.0058 56.5269 90.4108C56.1508 90.8085 55.5903 91.3834 54.8455 92.1356L54.6068 92.3742ZM67.0384 89.1199C67.2481 89.5972 67.353 90.1504 67.353 90.7796C67.353 91.3509 67.259 91.8752 67.071 92.3525C66.8179 93.0251 66.3948 93.5494 65.8018 93.9255C65.2088 94.3087 64.5073 94.5004 63.6973 94.5004C62.9018 94.5004 62.2039 94.3015 61.6037 93.9038C61.0034 93.4988 60.5695 92.9564 60.3019 92.2766C60.1573 91.8716 60.0741 91.4305 60.0524 90.9531C60.0524 90.8302 60.1139 90.7687 60.2368 90.7687H62.1027C62.2256 90.7687 62.2871 90.8302 62.2871 90.9531C62.3305 91.3003 62.3883 91.557 62.4606 91.7233C62.5547 91.9982 62.7101 92.2115 62.9271 92.3634C63.1368 92.5152 63.3899 92.5912 63.6864 92.5912C64.2722 92.5912 64.6772 92.3344 64.9014 91.821C65.046 91.51 65.1184 91.1448 65.1184 90.7253C65.1184 90.2263 65.0388 89.8214 64.8797 89.5104C64.6411 89.0186 64.2397 88.7727 63.6756 88.7727C63.5599 88.7727 63.4369 88.8053 63.3068 88.8704C63.1838 88.9427 63.032 89.0403 62.8512 89.1633C62.8078 89.1922 62.768 89.2066 62.7318 89.2066C62.6667 89.2066 62.6197 89.1777 62.5908 89.1199L61.6579 87.8073C61.6362 87.7783 61.6254 87.7422 61.6254 87.6988C61.6254 87.6337 61.647 87.5831 61.6904 87.5469L64.1854 85.3557C64.2071 85.334 64.218 85.3123 64.218 85.2906C64.2108 85.2689 64.1927 85.258 64.1637 85.258H60.4646C60.414 85.258 60.367 85.24 60.3236 85.2038C60.2875 85.1676 60.2694 85.1243 60.2694 85.0736V83.5441C60.2694 83.4935 60.2875 83.4501 60.3236 83.4139C60.367 83.3777 60.414 83.3597 60.4646 83.3597H67.0167C67.0746 83.3597 67.1216 83.3777 67.1577 83.4139C67.1939 83.4501 67.212 83.4935 67.212 83.5441V85.2797C67.212 85.3593 67.1758 85.4388 67.1035 85.5184L65.0424 87.4059C65.0207 87.4276 65.0135 87.4457 65.0207 87.4601C65.0207 87.4818 65.0424 87.4927 65.0858 87.4927C65.997 87.6735 66.6479 88.2159 67.0384 89.1199Z" fill="#252530"/>
</svg>
