<svg width="113" height="119" viewBox="0 0 113 119" fill="none" xmlns="http://www.w3.org/2000/svg">
<path fill-rule="evenodd" clip-rule="evenodd" d="M0 82.8245V9.0053C0 8.61662 0.284671 8.28656 0.669139 8.22949L55.9633 0.0207096C56.0396 0.00937283 56.1172 0.00937283 56.1936 0.0207096L111.488 8.22949C111.872 8.28656 112.157 8.61662 112.157 9.0053V82.8245C112.157 83.093 112.019 83.3429 111.793 83.4868L56.4985 118.561C56.2421 118.723 55.9148 118.723 55.6583 118.561L0.364201 83.4868C0.137414 83.3429 0 83.093 0 82.8245Z" fill="url(#paint0_linear_4539_70)"/>
<path fill-rule="evenodd" clip-rule="evenodd" d="M110.02 11.0898C109.981 10.8299 109.74 10.3501 109.564 10.1824L56.836 2.27423C56.7792 2.25157 56.7366 2.27423 56.0781 2.27423C55.4197 2.27423 55.3203 2.27423 55.3203 2.27423L2.49181 10.1824C2.31693 10.3486 2.07671 10.8254 2.03711 11.0823V81.2579C2.07539 81.517 2.31759 81.9953 2.49379 82.1615L56.0781 116.557L109.565 82.157C109.74 81.9923 109.978 81.5186 110.016 81.2639L110.02 11.0898Z" fill="#F06A2B"/>
<path fill-rule="evenodd" clip-rule="evenodd" d="M4.67139 12.1129V80.2321L56.0787 114.286L107.383 80.2306L107.387 12.1137L56.0787 4.54492L4.67139 12.1129Z" fill="url(#paint1_linear_4539_70)"/>
<path fill-rule="evenodd" clip-rule="evenodd" d="M4.54688 80.2287L56.0784 114.286V4.54492L4.67111 12.1133L4.54688 80.2287Z" fill="url(#paint2_linear_4539_70)"/>
<path d="M12.74 39.9448V19.6953H17.0212V36.415H25.7024V39.9448H12.74ZM35.3798 40.2414C33.8176 40.2414 32.4729 39.925 31.3457 39.2923C30.2251 38.6529 29.3616 37.7498 28.7552 36.5831C28.1488 35.4098 27.8455 34.0222 27.8455 32.4205C27.8455 30.8582 28.1488 29.4872 28.7552 28.3073C29.3616 27.1274 30.2152 26.2078 31.3161 25.5487C32.4234 24.8895 33.722 24.5599 35.2117 24.5599C36.2136 24.5599 37.1464 24.7214 38.0099 25.0444C38.88 25.3608 39.638 25.8387 40.284 26.4781C40.9366 27.1175 41.4441 27.9217 41.8067 28.8906C42.1692 29.853 42.3505 30.9802 42.3505 32.2721V33.429H29.5264V30.8187H38.3856C38.3856 30.2122 38.2538 29.675 37.9901 29.207C37.7264 28.739 37.3606 28.3732 36.8926 28.1095C36.4312 27.8393 35.894 27.7041 35.2809 27.7041C34.6415 27.7041 34.0747 27.8524 33.5803 28.1491C33.0925 28.4391 32.7102 28.8313 32.4333 29.3257C32.1565 29.8135 32.0148 30.3573 32.0082 30.9571V33.4389C32.0082 34.1903 32.1466 34.8396 32.4234 35.3867C32.7069 35.9338 33.1057 36.3557 33.6198 36.6523C34.134 36.9489 34.7437 37.0972 35.449 37.0972C35.917 37.0972 36.3455 37.0313 36.7344 36.8995C37.1233 36.7676 37.4562 36.5699 37.733 36.3062C38.0099 36.0426 38.2208 35.7196 38.3658 35.3373L42.2615 35.5943C42.0637 36.5303 41.6584 37.3477 41.0453 38.0464C40.4389 38.7386 39.6545 39.2791 38.6921 39.668C37.7363 40.0503 36.6322 40.2414 35.3798 40.2414ZM49.4299 40.2316C48.4609 40.2316 47.5974 40.0635 46.8394 39.7273C46.0814 39.3845 45.4815 38.8803 45.0399 38.2145C44.6048 37.5422 44.3873 36.705 44.3873 35.7031C44.3873 34.8594 44.5422 34.1508 44.852 33.5773C45.1618 33.0038 45.5837 32.5424 46.1176 32.193C46.6515 31.8437 47.258 31.58 47.9369 31.402C48.6224 31.2241 49.3409 31.0988 50.0924 31.0263C50.9757 30.934 51.6876 30.8483 52.2281 30.7692C52.7686 30.6836 53.1608 30.5583 53.4047 30.3935C53.6486 30.2287 53.7705 29.9848 53.7705 29.6618V29.6025C53.7705 28.9763 53.5728 28.4918 53.1773 28.1491C52.7884 27.8063 52.2347 27.6349 51.5162 27.6349C50.7581 27.6349 50.155 27.803 49.7068 28.1392C49.2585 28.4688 48.9619 28.884 48.8169 29.385L44.9212 29.0686C45.119 28.1458 45.5079 27.3482 46.0879 26.6758C46.668 25.9969 47.4162 25.4761 48.3324 25.1136C49.2552 24.7445 50.3231 24.5599 51.5359 24.5599C52.3797 24.5599 53.1872 24.6588 53.9584 24.8565C54.7362 25.0543 55.425 25.3608 56.0249 25.7761C56.6313 26.1913 57.1092 26.7253 57.4585 27.3778C57.8079 28.0238 57.9826 28.7983 57.9826 29.7014V39.9448H53.988V37.8388H53.8694C53.6255 38.3134 53.2992 38.732 52.8905 39.0945C52.4818 39.4505 51.9908 39.7306 51.4173 39.9349C50.8438 40.1327 50.1814 40.2316 49.4299 40.2316ZM50.6362 37.3246C51.2558 37.3246 51.8029 37.2027 52.2775 36.9588C52.7521 36.7083 53.1245 36.3721 53.3948 35.9503C53.665 35.5284 53.8002 35.0505 53.8002 34.5166V32.9049C53.6683 32.9906 53.4871 33.0697 53.2564 33.1422C53.0322 33.2082 52.7785 33.2708 52.495 33.3301C52.2116 33.3828 51.9281 33.4323 51.6447 33.4784C51.3613 33.518 51.1042 33.5542 50.8735 33.5872C50.3791 33.6597 49.9474 33.775 49.5782 33.9332C49.2091 34.0914 48.9224 34.3057 48.718 34.5759C48.5137 34.8396 48.4115 35.1692 48.4115 35.5647C48.4115 36.1381 48.6191 36.5765 49.0344 36.8797C49.4563 37.1763 49.9902 37.3246 50.6362 37.3246ZM66.8467 40.192C65.6932 40.192 64.6484 39.8954 63.7124 39.3021C62.7829 38.7023 62.0447 37.8223 61.4976 36.6622C60.9571 35.4955 60.6868 34.0651 60.6868 32.371C60.6868 30.6308 60.9669 29.184 61.5272 28.0304C62.0875 26.8703 62.8324 26.0035 63.7618 25.43C64.6978 24.8499 65.7228 24.5599 66.8368 24.5599C67.6871 24.5599 68.3957 24.7049 68.9626 24.995C69.5361 25.2784 69.9975 25.6343 70.3469 26.0628C70.7028 26.4847 70.9731 26.8999 71.1576 27.3086H71.2862V19.6953H75.4884V39.9448H71.3356V37.5125H71.1576C70.9599 37.9344 70.6797 38.3529 70.3172 38.7682C69.9613 39.1769 69.4965 39.5164 68.9231 39.7866C68.3562 40.0569 67.6641 40.192 66.8467 40.192ZM68.1815 36.8402C68.8605 36.8402 69.4339 36.6556 69.9019 36.2865C70.3765 35.9107 70.7391 35.3867 70.9896 34.7143C71.2466 34.042 71.3752 33.2543 71.3752 32.3512C71.3752 31.4482 71.2499 30.6638 70.9994 29.998C70.749 29.3323 70.3864 28.8181 69.9118 28.4556C69.4372 28.093 68.8605 27.9118 68.1815 27.9118C67.4894 27.9118 66.906 28.0996 66.4314 28.4753C65.9568 28.8511 65.5976 29.3718 65.3537 30.0376C65.1098 30.7033 64.9879 31.4746 64.9879 32.3512C64.9879 33.2345 65.1098 34.0156 65.3537 34.6946C65.6042 35.3669 65.9634 35.8943 66.4314 36.2766C66.906 36.6523 67.4894 36.8402 68.1815 36.8402ZM85.8727 40.2414C84.3105 40.2414 82.9658 39.925 81.8386 39.2923C80.718 38.6529 79.8545 37.7498 79.2481 36.5831C78.6416 35.4098 78.3384 34.0222 78.3384 32.4205C78.3384 30.8582 78.6416 29.4872 79.2481 28.3073C79.8545 27.1274 80.7081 26.2078 81.8089 25.5487C82.9163 24.8895 84.2149 24.5599 85.7046 24.5599C86.7065 24.5599 87.6392 24.7214 88.5028 25.0444C89.3728 25.3608 90.1309 25.8387 90.7769 26.4781C91.4294 27.1175 91.937 27.9217 92.2995 28.8906C92.6621 29.853 92.8434 30.9802 92.8434 32.2721V33.429H80.0193V30.8187H88.8785C88.8785 30.2122 88.7466 29.675 88.483 29.207C88.2193 28.739 87.8535 28.3732 87.3855 28.1095C86.9241 27.8393 86.3868 27.7041 85.7738 27.7041C85.1344 27.7041 84.5675 27.8524 84.0732 28.1491C83.5854 28.4391 83.2031 28.8313 82.9262 29.3257C82.6494 29.8135 82.5076 30.3573 82.5011 30.9571V33.4389C82.5011 34.1903 82.6395 34.8396 82.9163 35.3867C83.1998 35.9338 83.5986 36.3557 84.1127 36.6523C84.6269 36.9489 85.2366 37.0972 85.9419 37.0972C86.4099 37.0972 86.8384 37.0313 87.2273 36.8995C87.6162 36.7676 87.9491 36.5699 88.2259 36.3062C88.5028 36.0426 88.7137 35.7196 88.8587 35.3373L92.7544 35.5943C92.5566 36.5303 92.1512 37.3477 91.5382 38.0464C90.9318 38.7386 90.1474 39.2791 89.185 39.668C88.2292 40.0503 87.1251 40.2414 85.8727 40.2414ZM95.5921 39.9448V24.7577H99.6756V27.4075H99.8338C100.111 26.4649 100.575 25.753 101.228 25.2718C101.881 24.784 102.632 24.5401 103.482 24.5401C103.693 24.5401 103.921 24.5533 104.165 24.5797C104.408 24.6061 104.623 24.6423 104.807 24.6884V28.4259C104.609 28.3666 104.336 28.3139 103.987 28.2677C103.637 28.2216 103.317 28.1985 103.027 28.1985C102.408 28.1985 101.854 28.3336 101.366 28.6039C100.885 28.8676 100.503 29.2367 100.219 29.7113C99.9426 30.1859 99.8041 30.733 99.8041 31.3526V39.9448H95.5921Z" fill="black"/>
<path fill-rule="evenodd" clip-rule="evenodd" d="M100.662 49.5073L101.833 51.9985L104.452 52.3984L102.557 54.3371L103.005 57.0757L100.662 55.783L98.3206 57.0757L98.7679 54.3371L96.8735 52.3984L99.4917 51.9985L100.662 49.5073Z" fill="#FFCB00"/>
<path fill-rule="evenodd" clip-rule="evenodd" d="M11.24 49.5073L12.4111 51.9985L15.0293 52.3984L13.1343 54.3371L13.5823 57.0757L11.24 55.783L8.89821 57.0757L9.34556 54.3371L7.45117 52.3984L10.0694 51.9985L11.24 49.5073Z" fill="#FFCB00"/>
<path fill-rule="evenodd" clip-rule="evenodd" d="M6.82031 64.333H105.336V79.0111L89.9433 88.5518H22.2135L6.82031 79.0111V64.333Z" fill="url(#paint3_linear_4539_70)"/>
<path fill-rule="evenodd" clip-rule="evenodd" d="M6.82031 64.3335H105.336L22.2135 88.5523L6.82031 79.0116V64.3335Z" fill="url(#paint4_linear_4539_70)"/>
<path d="M30.8649 66.3359L33.623 78.2346L36.9287 66.3359H39.0795L42.3852 78.2346L45.1433 66.3359H47.314L43.4705 80.9629H41.3895L38.0141 68.8351L34.6187 80.9629H32.5376L28.7141 66.3359H30.8649ZM48.9171 70.3486H50.7392V80.9629H48.9171V70.3486ZM48.9171 66.3359H50.7392V68.3671H48.9171V66.3359ZM53.4575 70.2988H55.1602V71.8123C55.6647 71.1883 56.1991 70.7403 56.7633 70.4681C57.3275 70.1959 57.9548 70.0599 58.6452 70.0599C60.1587 70.0599 61.1809 70.5876 61.712 71.643C62.004 72.2206 62.1501 73.047 62.1501 74.1224V80.9629H60.3279V74.2418C60.3279 73.5913 60.2317 73.0669 60.0392 72.6686C59.7205 72.0048 59.143 71.6729 58.3066 71.6729C57.8818 71.6729 57.5333 71.7161 57.2611 71.8024C56.7699 71.9484 56.3385 72.2405 55.9667 72.6786C55.668 73.0304 55.4722 73.3955 55.3793 73.7739C55.293 74.1456 55.2498 74.68 55.2498 75.377V80.9629H53.4575V70.2988ZM65.1671 67.3217H66.9793V70.2988H68.6819V71.7625H66.9793V78.7225C66.9793 79.0943 67.1054 79.3432 67.3577 79.4693C67.4971 79.5423 67.7294 79.5789 68.0546 79.5789C68.1409 79.5789 68.2339 79.5789 68.3334 79.5789C68.433 79.5722 68.5492 79.5623 68.6819 79.549V80.9629C68.4762 81.0226 68.2604 81.0658 68.0347 81.0923C67.8157 81.1189 67.5767 81.1322 67.3178 81.1322C66.4814 81.1322 65.9139 80.9197 65.6152 80.4949C65.3164 80.0634 65.1671 79.5058 65.1671 78.8221V71.7625H63.7233V70.2988H65.1671V67.3217ZM74.9251 70.0599C75.6818 70.0599 76.4153 70.2391 77.1256 70.5975C77.8358 70.9494 78.3769 71.4074 78.7486 71.9716C79.107 72.5093 79.346 73.1366 79.4655 73.8535C79.5717 74.3447 79.6248 75.128 79.6248 76.2034H71.8085C71.8417 77.2854 72.0972 78.155 72.5752 78.8122C73.0531 79.4627 73.7933 79.788 74.7956 79.788C75.7316 79.788 76.4784 79.4793 77.036 78.8619C77.3546 78.5035 77.5803 78.0886 77.713 77.6173H79.4755C79.429 78.0089 79.273 78.4471 79.0075 78.9316C78.7486 79.4096 78.4565 79.8012 78.1312 80.1066C77.5869 80.6376 76.9132 80.9961 76.1099 81.1819C75.6785 81.2882 75.1906 81.3413 74.6463 81.3413C73.3186 81.3413 72.1935 80.86 71.2708 79.8975C70.3481 78.9283 69.8868 77.5742 69.8868 75.835C69.8868 74.1224 70.3514 72.7317 71.2808 71.663C72.2101 70.5942 73.4248 70.0599 74.9251 70.0599ZM77.7827 74.7795C77.7097 74.0029 77.5405 73.3822 77.2749 72.9175C76.7837 72.0546 75.9639 71.6231 74.8155 71.6231C73.9924 71.6231 73.302 71.9218 72.7444 72.5193C72.1868 73.1101 71.8915 73.8635 71.8583 74.7795H77.7827ZM81.8851 70.2988H83.5877V72.1409C83.7271 71.7824 84.069 71.3476 84.6133 70.8365C85.1576 70.3187 85.7849 70.0599 86.4952 70.0599C86.5284 70.0599 86.5848 70.0632 86.6645 70.0698C86.7441 70.0765 86.8802 70.0897 87.0727 70.1096V72.0015C86.9665 71.9816 86.8669 71.9683 86.774 71.9617C86.6877 71.955 86.5915 71.9517 86.4853 71.9517C85.5825 71.9517 84.8888 72.2438 84.4042 72.8279C83.9196 73.4054 83.6773 74.0726 83.6773 74.8293V80.9629H81.8851V70.2988Z" fill="white"/>
<path d="M47.9508 93.3924C47.762 93.1666 47.4918 93.0537 47.1401 93.0537C46.6588 93.0537 46.3312 93.2332 46.1572 93.5923C46.0572 93.7997 45.998 94.1291 45.9795 94.5808H44.4413C44.4672 93.8959 44.5912 93.3425 44.8134 92.9204C45.2354 92.1171 45.985 91.7154 47.0623 91.7154C47.9138 91.7154 48.5913 91.9524 49.0947 92.4262C49.5982 92.8964 49.8499 93.5202 49.8499 94.2976C49.8499 94.8936 49.6722 95.423 49.3168 95.8857C49.0836 96.193 48.7005 96.5354 48.1674 96.913L47.5343 97.3628C47.1382 97.6442 46.8661 97.8478 46.718 97.9737C46.5737 98.0995 46.4515 98.2458 46.3515 98.4123H49.8666V99.8062H44.3525C44.3673 99.2286 44.4913 98.7011 44.7245 98.2235C44.9503 97.6868 45.4834 97.1185 46.3238 96.5188C47.0531 95.9968 47.5251 95.6229 47.7398 95.3971C48.0693 95.0454 48.234 94.6604 48.234 94.242C48.234 93.9015 48.1396 93.6183 47.9508 93.3924ZM53.4594 100.006C52.4339 100.006 51.7139 99.647 51.2993 98.9288C50.8883 98.2106 50.6829 97.187 50.6829 95.858C50.6829 94.5289 50.8883 93.5035 51.2993 92.7816C51.7139 92.0597 52.4339 91.6988 53.4594 91.6988C54.4848 91.6988 55.2049 92.0597 55.6195 92.7816C56.0304 93.5035 56.2359 94.5289 56.2359 95.858C56.2359 97.187 56.0286 98.2106 55.614 98.9288C55.203 99.647 54.4848 100.006 53.4594 100.006ZM54.3867 97.9792C54.5311 97.4906 54.6033 96.7835 54.6033 95.858C54.6033 94.888 54.5293 94.1699 54.3812 93.7034C54.2368 93.2369 53.9295 93.0037 53.4594 93.0037C52.9892 93.0037 52.6783 93.2369 52.5265 93.7034C52.3747 94.1699 52.2988 94.888 52.2988 95.858C52.2988 96.7835 52.3747 97.4924 52.5265 97.9848C52.6783 98.4734 52.9892 98.7178 53.4594 98.7178C53.9295 98.7178 54.2387 98.4716 54.3867 97.9792ZM60.6117 93.3924C60.4229 93.1666 60.1526 93.0537 59.8009 93.0537C59.3197 93.0537 58.992 93.2332 58.818 93.5923C58.7181 93.7997 58.6588 94.1291 58.6403 94.5808H57.1022C57.1281 93.8959 57.2521 93.3425 57.4742 92.9204C57.8962 92.1171 58.6459 91.7154 59.7232 91.7154C60.5746 91.7154 61.2521 91.9524 61.7556 92.4262C62.259 92.8964 62.5108 93.5202 62.5108 94.2976C62.5108 94.8936 62.3331 95.423 61.9777 95.8857C61.7445 96.193 61.3613 96.5354 60.8282 96.913L60.1952 97.3628C59.7991 97.6442 59.527 97.8478 59.3789 97.9737C59.2345 98.0995 59.1123 98.2458 59.0124 98.4123H62.5274V99.8062H57.0133C57.0281 99.2286 57.1521 98.7011 57.3854 98.2235C57.6112 97.6868 58.1443 97.1185 58.9846 96.5188C59.7139 95.9968 60.1859 95.6229 60.4006 95.3971C60.7301 95.0454 60.8949 94.6604 60.8949 94.242C60.8949 93.9015 60.8005 93.6183 60.6117 93.3924ZM65.1651 93.3591C64.9874 93.596 64.9023 93.9126 64.9097 94.3087H63.4326C63.4474 93.9089 63.5159 93.5294 63.638 93.1703C63.7676 92.8556 63.9712 92.565 64.2489 92.2985C64.4562 92.1097 64.7024 91.9653 64.9874 91.8654C65.2725 91.7654 65.6223 91.7154 66.0369 91.7154C66.807 91.7154 67.427 91.9153 67.8972 92.3152C68.3711 92.7113 68.608 93.2444 68.608 93.9144C68.608 94.3883 68.4673 94.7881 68.186 95.1139C68.0083 95.3175 67.8232 95.4563 67.6307 95.5303C67.775 95.5303 67.9823 95.6544 68.2526 95.9024C68.6561 96.2763 68.8579 96.7872 68.8579 97.435C68.8579 98.1162 68.6209 98.7159 68.1471 99.2342C67.6769 99.7488 66.9791 100.006 66.0536 100.006C64.9134 100.006 64.1212 99.634 63.6769 98.8899C63.4437 98.4938 63.3141 97.9755 63.2882 97.3351H64.843C64.843 97.6571 64.8949 97.9237 64.9985 98.1347C65.191 98.5234 65.5409 98.7178 66.048 98.7178C66.359 98.7178 66.6293 98.6123 66.8588 98.4012C67.092 98.1865 67.2086 97.8793 67.2086 97.4794C67.2086 96.9501 66.9939 96.5965 66.5645 96.4188C66.3201 96.3189 65.9351 96.2689 65.4094 96.2689V95.1361C65.924 95.1287 66.2831 95.0787 66.4867 94.9861C66.8384 94.8307 67.0143 94.516 67.0143 94.0421C67.0143 93.7349 66.9236 93.485 66.7422 93.2925C66.5645 93.1 66.3127 93.0037 65.987 93.0037C65.6131 93.0037 65.3391 93.1222 65.1651 93.3591Z" fill="black"/>
<path fill-rule="evenodd" clip-rule="evenodd" d="M22.6256 50.5026C22.5925 50.5653 22.5453 50.5974 22.4649 50.5974C22.4176 50.5974 22.353 50.5653 22.2726 50.4873C22.1938 50.4092 22.0804 50.3327 21.9527 50.2547C21.8077 50.1598 21.647 50.0833 21.439 50.0206C21.231 49.9425 20.9741 49.9104 20.6699 49.9104C20.3642 49.9104 20.1089 49.9594 19.8678 50.0359C19.644 50.1139 19.4518 50.2378 19.291 50.3786C19.1303 50.5194 19.0184 50.6892 18.938 50.8759C18.8576 51.0626 18.8104 51.2661 18.8104 51.4681C18.8104 51.7481 18.875 51.9669 18.9853 52.1536C19.0988 52.3234 19.2595 52.4795 19.4675 52.605C19.6598 52.7289 19.8836 52.8376 20.1404 52.9156C20.3973 53.0105 20.6542 53.087 20.911 53.165C21.1663 53.2431 21.4232 53.3364 21.6801 53.445C21.937 53.5384 22.145 53.6792 22.353 53.8184C22.561 53.9592 22.706 54.1627 22.8336 54.3784C22.9471 54.5973 23.0101 54.8773 23.0101 55.2047C23.0101 55.5475 22.9471 55.8581 22.8336 56.1534C22.7218 56.4503 22.5453 56.715 22.3215 56.9323C22.0977 57.1511 21.8077 57.3209 21.4878 57.4617C21.1506 57.5856 20.7818 57.6484 20.3642 57.6484C19.8205 57.6484 19.3399 57.555 18.9538 57.3684C18.5535 57.1817 18.2163 56.9154 17.9121 56.591L18.0729 56.3401C18.1201 56.2774 18.169 56.2636 18.232 56.2636C18.2651 56.2636 18.3124 56.2774 18.3612 56.3263C18.4085 56.3722 18.4889 56.435 18.5535 56.4962C18.6339 56.5589 18.73 56.6369 18.8419 56.715C18.9538 56.7915 19.0814 56.8695 19.2264 56.9323C19.3714 56.995 19.5321 57.0562 19.7244 57.1021C19.9167 57.1511 20.1247 57.1649 20.3642 57.1649C20.7015 57.1649 20.9898 57.1189 21.2467 57.0256C21.5036 56.9323 21.7274 56.7915 21.9039 56.6369C22.0804 56.4809 22.2253 56.2636 22.3215 56.0448C22.4176 55.8122 22.4649 55.5628 22.4649 55.3134C22.4649 55.0333 22.4003 54.8008 22.29 54.6141C22.1765 54.4259 22.0158 54.2698 21.8077 54.1459C21.6155 54.0219 21.3917 53.9133 21.1348 53.8352C20.878 53.7572 20.6227 53.6623 20.3642 53.5858C20.1089 53.5078 19.852 53.4129 19.5952 53.3211C19.3399 53.2262 19.1303 53.1023 18.9223 52.9477C18.73 52.7917 18.5693 52.605 18.4416 52.3709C18.3281 52.1368 18.2651 51.8583 18.2651 51.4987C18.2651 51.2355 18.3124 50.9708 18.4243 50.7214C18.5377 50.4704 18.6827 50.2547 18.8892 50.0512C19.0988 49.8645 19.3399 49.7084 19.644 49.5845C19.9482 49.4758 20.2854 49.4131 20.6699 49.4131C21.1033 49.4131 21.4878 49.4758 21.8393 49.6166C22.1765 49.7558 22.4964 49.9594 22.7864 50.2225L22.6256 50.5026Z" fill="black"/>
<path fill-rule="evenodd" clip-rule="evenodd" d="M30.732 53.53C30.732 52.9737 30.6548 52.463 30.5004 52.0146C30.3475 51.5663 30.131 51.1954 29.854 50.8869C29.577 50.5768 29.2379 50.3442 28.8382 50.1755C28.437 50.0053 28.0056 49.9278 27.5287 49.9278C27.0504 49.9278 26.6204 50.0053 26.2193 50.1755C25.8181 50.3442 25.4805 50.5768 25.2035 50.8869C24.9264 51.1954 24.6948 51.5663 24.5404 52.0146C24.386 52.463 24.3088 52.9585 24.3088 53.53C24.3088 54.0863 24.386 54.5969 24.5404 55.0453C24.6948 55.4937 24.9098 55.8646 25.2035 56.1746C25.4805 56.4832 25.8181 56.7157 26.2193 56.8859C26.6204 57.0546 27.0504 57.1337 27.5287 57.1337C28.0056 57.1337 28.4522 57.0546 28.8382 56.8859C29.2379 56.7309 29.577 56.4832 29.854 56.1746C30.131 55.8646 30.3475 55.4937 30.5004 55.0453C30.6548 54.5969 30.732 54.103 30.732 53.53ZM31.2459 53.5307C31.2459 54.1501 31.1556 54.707 30.9751 55.2183C30.7946 55.7296 30.5385 56.1617 30.2085 56.5193C29.8771 56.8738 29.4864 57.1538 29.0335 57.3547C28.5822 57.5571 28.0702 57.6484 27.5138 57.6484C26.9707 57.6484 26.4601 57.5571 26.0073 57.3547C25.5559 57.1538 25.1653 56.8906 24.8323 56.5193C24.5023 56.1617 24.2463 55.7296 24.0657 55.2183C23.8852 54.707 23.7949 54.1501 23.7949 53.5307C23.7949 52.9129 23.8852 52.3545 24.0657 51.8447C24.2463 51.3334 24.5023 50.8998 24.8323 50.5437C25.1653 50.1876 25.5559 49.9076 26.0073 49.7068C26.4601 49.5059 26.9707 49.4131 27.5138 49.4131C28.0702 49.4131 28.5822 49.5059 29.0335 49.7068C29.4864 49.9076 29.8771 50.1724 30.2085 50.5437C30.5385 50.8998 30.7946 51.3334 30.9751 51.8447C31.1556 52.3545 31.2459 52.9129 31.2459 53.5307Z" fill="black"/>
<path fill-rule="evenodd" clip-rule="evenodd" d="M35.3785 57.1318C35.7511 57.1318 36.0798 57.0686 36.3791 56.9268C36.677 56.7849 36.9162 56.5968 37.1245 56.3624C37.3344 56.1281 37.4825 55.8289 37.5867 55.5159C37.6924 55.186 37.7511 54.8421 37.7511 54.4489V49.4131H38.3042V54.4489C38.3042 54.9038 38.2294 55.3109 38.0959 55.704C37.9609 56.0957 37.7657 56.4257 37.5134 56.7232C37.2595 57.0054 36.9455 57.2413 36.5875 57.3986C36.2295 57.5543 35.8113 57.6484 35.3638 57.6484C34.9163 57.6484 34.4966 57.5697 34.1386 57.3986C33.7806 57.2259 33.4681 57.0054 33.2127 56.7232C32.9604 56.4411 32.7652 56.0957 32.6317 55.704C32.4967 55.3109 32.4219 54.8884 32.4219 54.4489V49.4131H32.9897V54.4335C32.9897 54.8097 33.0499 55.1705 33.1541 55.499C33.2582 55.8289 33.4226 56.1111 33.6162 56.347C33.8261 56.5829 34.0638 56.771 34.3631 56.9114C34.661 57.0686 35.0058 57.1318 35.3785 57.1318Z" fill="black"/>
<path fill-rule="evenodd" clip-rule="evenodd" d="M41.1637 53.2812H41.3221H41.7062C42.1093 53.2812 42.4778 53.2366 42.793 53.1609C43.1082 53.0688 43.389 52.9633 43.5991 52.7984C43.8264 52.6454 43.9849 52.4493 44.1072 52.2384C44.2295 52.026 44.2829 51.769 44.2829 51.4986C44.2829 50.9386 44.0727 50.5301 43.6525 50.2583C43.2322 49.9865 42.6174 49.8498 41.7941 49.8498H40.1303V53.2812V53.7045V57.2562H39.481V49.4131H41.7941C42.8464 49.4131 43.6353 49.5943 44.1416 49.9419C44.6687 50.288 44.9132 50.802 44.9132 51.4823C44.9132 51.7853 44.8598 52.0572 44.7393 52.2993C44.6153 52.5399 44.4396 52.7672 44.2122 52.9484C43.9849 53.1297 43.7214 53.296 43.4062 53.4015C43.091 53.5233 42.7224 53.5991 42.3383 53.6436C42.4434 53.7045 42.5295 53.7803 42.6174 53.8694L45.7555 57.2562H45.1768C45.1061 57.2562 45.0545 57.2399 45.0011 57.225C44.9494 57.2117 44.896 57.1641 44.8598 57.1196L41.9525 53.9452C41.8819 53.8694 41.7941 53.81 41.7252 53.7803C41.6373 53.7491 41.1275 53.7357 40.9536 53.7357C40.9536 53.3257 41.0225 53.2812 41.1637 53.2812Z" fill="black"/>
<path fill-rule="evenodd" clip-rule="evenodd" d="M51.3315 56.2062C51.3617 56.2062 51.4049 56.223 51.4192 56.2519L51.6378 56.5004C51.4782 56.6727 51.3172 56.8419 51.1259 56.9822C50.9362 57.1224 50.732 57.2459 50.512 57.3389C50.2935 57.4319 50.0433 57.5081 49.796 57.5722C49.5329 57.6347 49.2396 57.6484 48.9333 57.6484C48.4056 57.6484 47.9225 57.5554 47.484 57.3542C47.0455 57.1529 46.6645 56.8877 46.3582 56.5157C46.0505 56.1605 45.8018 55.726 45.6264 55.2138C45.451 54.7031 45.3633 54.1436 45.3633 53.5231C45.3633 52.9194 45.451 52.3599 45.6408 51.8492C45.8176 51.337 46.0807 50.9178 46.4014 50.5458C46.7234 50.1891 47.1188 49.9085 47.5717 49.7073C48.0261 49.5061 48.5379 49.4131 49.0785 49.4131C49.356 49.4131 49.6048 49.4283 49.8391 49.4756C50.0735 49.5213 50.2791 49.5838 50.4832 49.6616C50.6874 49.7393 50.8628 49.8476 51.0382 49.971C51.2136 50.0945 51.3905 50.2348 51.5501 50.3903L51.3905 50.6388C51.3617 50.6845 51.3172 50.7013 51.2582 50.7013C51.2295 50.7013 51.1849 50.6845 51.1418 50.6388C51.0972 50.5915 51.0239 50.5458 50.9505 50.4833C50.8786 50.4208 50.7751 50.3598 50.673 50.2973C50.571 50.2195 50.4387 50.157 50.2791 50.1113C50.1324 50.0488 49.9556 50.0031 49.7514 49.9558C49.5616 49.9085 49.3273 49.8933 49.0785 49.8933C48.6098 49.8933 48.1857 49.971 47.8061 50.1418C47.4265 50.3125 47.0901 50.5458 46.8111 50.8705C46.5336 51.1815 46.3137 51.5687 46.1526 52.0032C45.993 52.4377 45.9197 52.9484 45.9197 53.5063C45.9197 54.0811 45.993 54.5781 46.1526 55.0278C46.3137 55.476 46.5193 55.8495 46.7968 56.1605C47.0757 56.4699 47.3963 56.7017 47.763 56.8724C48.1281 57.0447 48.5379 57.1224 48.9621 57.1224C49.2396 57.1224 49.4739 57.1057 49.6925 57.0599C49.9124 57.0279 50.1037 56.9669 50.2791 56.8877C50.4545 56.8099 50.6299 56.7184 50.7751 56.6102C50.9362 56.5004 51.0828 56.377 51.2295 56.223C51.2438 56.2062 51.2582 56.191 51.2726 56.191C51.287 56.223 51.3172 56.2062 51.3315 56.2062Z" fill="black"/>
<path fill-rule="evenodd" clip-rule="evenodd" d="M58.3046 49.4131V49.8819H53.486V53.0623H57.4926V53.5162H53.486V56.7874H58.3046V57.2562H52.8145V49.4131H58.3046Z" fill="black"/>
<path fill-rule="evenodd" clip-rule="evenodd" d="M64.9707 49.4131V50.6403H60.8316V53.0734H64.3198V54.2991H60.8316V57.6484H59.0884V49.4299H64.9707V49.4131Z" fill="black"/>
<path fill-rule="evenodd" clip-rule="evenodd" d="M72.054 53.5307C72.054 53.0917 71.9924 52.6972 71.8693 52.3505C71.7478 52.0022 71.5811 51.7 71.3665 51.4559C71.1518 51.2133 70.8772 51.0318 70.5574 50.8963C70.2362 50.7609 69.885 50.6999 69.4887 50.6999C69.0909 50.6999 68.7397 50.7609 68.42 50.8963C68.0987 51.0318 67.8391 51.2133 67.6094 51.4559C67.3812 51.7 67.2131 52.0022 67.09 52.3505C66.9685 52.6972 66.9069 53.0917 66.9069 53.5307C66.9069 53.9698 66.9685 54.3642 67.09 54.7125C67.2131 55.0593 67.3812 55.3629 67.6094 55.6055C67.8391 55.8481 68.0987 56.0297 68.42 56.1666C68.7397 56.3021 69.0909 56.3616 69.4887 56.3616C69.885 56.3616 70.2362 56.3021 70.5574 56.1666C70.8772 56.0297 71.1368 55.8481 71.3665 55.6055C71.5811 55.3629 71.7478 55.0593 71.8693 54.7125C71.9924 54.3642 72.054 53.9698 72.054 53.5307ZM73.5981 53.5307C73.5981 54.1237 73.5063 54.6718 73.3077 55.1721C73.1091 55.6739 72.8337 56.113 72.465 56.479C72.1144 56.8434 71.6706 57.1316 71.165 57.3452C70.6594 57.5573 70.0936 57.6484 69.4812 57.6484C68.8688 57.6484 68.3015 57.5438 67.7959 57.3452C67.2918 57.1316 66.863 56.8598 66.4958 56.479C66.1272 56.113 65.8518 55.6739 65.6532 55.1721C65.4546 54.6718 65.3628 54.1237 65.3628 53.5307C65.3628 52.9393 65.4546 52.3912 65.6532 51.8893C65.8518 51.3875 66.1272 50.9484 66.4958 50.5825C66.863 50.2181 67.2918 49.9298 67.7959 49.7163C68.3015 49.5042 68.8688 49.4131 69.4812 49.4131C70.0936 49.4131 70.6594 49.5191 71.165 49.7327C71.6706 49.9463 72.0979 50.2345 72.465 50.5989C72.8171 50.9634 73.1091 51.404 73.3077 51.9058C73.4913 52.3912 73.5981 52.9393 73.5981 53.5307Z" fill="black"/>
<path fill-rule="evenodd" clip-rule="evenodd" d="M76.3488 53.3283H76.6763C76.9465 53.3283 77.1747 53.2962 77.3735 53.2199C77.5737 53.142 77.7304 53.0488 77.8592 52.9235C77.9866 52.7998 78.086 52.6455 78.1434 52.4729C78.2008 52.3033 78.2428 52.1001 78.2428 51.8985C78.2428 51.4784 78.1154 51.153 77.8592 50.9361C77.6031 50.7177 77.2181 50.5939 76.7043 50.5939H75.7944V53.3283V54.4328V57.6484H74.3833V49.4131H76.6903C77.2027 49.4131 77.6451 49.4757 78.0146 49.5842C78.3856 49.6911 78.6838 49.8622 78.9134 50.0638C79.1401 50.267 79.3249 50.5313 79.4257 50.8124C79.5391 51.1057 79.5965 51.4173 79.5965 51.7732C79.5965 52.0543 79.5531 52.3186 79.4817 52.5676C79.4117 52.8151 79.2969 53.0335 79.1541 53.2351C79.0113 53.4368 78.8406 53.6094 78.6278 53.7637C78.4136 53.9195 78.1854 54.0432 77.9152 54.1227C78.086 54.2296 78.2428 54.3854 78.3716 54.5871L80.2657 57.6331H78.9987C78.87 57.6331 78.7692 57.6026 78.6838 57.5567C78.5984 57.5094 78.5284 57.433 78.471 57.323L76.8905 54.6818C76.8471 54.6191 76.7617 54.4786 76.6763 54.4633H76.178V53.4689C76.192 53.3283 76.3488 53.3283 76.3488 53.3283Z" fill="black"/>
<path fill-rule="evenodd" clip-rule="evenodd" d="M84.2483 56.4811C84.5973 56.4811 84.9136 56.4498 85.1676 56.3886C85.4216 56.329 85.6755 56.2381 85.9124 56.1322V54.3119H84.8669C84.7718 54.3119 84.6923 54.2806 84.6285 54.2359C84.5661 54.1748 84.5334 54.1151 84.5334 54.0391V53.1893H87.324V56.8001C87.1184 56.9507 86.8955 57.0714 86.6571 57.1788C86.4203 57.2846 86.1819 57.3771 85.9124 57.4516C85.6444 57.5276 85.3748 57.5723 85.0725 57.6037C84.7718 57.6335 84.4539 57.6484 84.1065 57.6484C83.4879 57.6484 82.9332 57.5425 82.4097 57.3457C81.8862 57.1475 81.4421 56.8597 81.0775 56.496C80.6973 56.1322 80.4122 55.6924 80.1909 55.1915C79.9837 54.6921 79.873 54.13 79.873 53.5382C79.873 52.9314 79.9681 52.3858 80.1753 51.87C80.381 51.369 80.6661 50.9293 81.0463 50.5655C81.4265 50.2017 81.8862 49.914 82.4253 49.7172C82.9644 49.5189 83.5674 49.4131 84.2327 49.4131C84.9136 49.4131 85.5166 49.504 86.0074 49.7008C86.5154 49.8991 86.9283 50.157 87.2757 50.4596L86.8161 51.1424C86.721 51.2796 86.6104 51.3556 86.4671 51.3556C86.372 51.3556 86.277 51.3243 86.1819 51.2632C86.0557 51.1872 85.9295 51.126 85.8017 51.05C85.6755 50.9755 85.5322 50.9158 85.3748 50.8681C85.2159 50.8234 85.0414 50.7787 84.8513 50.7474C84.6612 50.7176 84.4228 50.7026 84.1688 50.7026C83.7575 50.7026 83.3757 50.7623 83.0438 50.8994C82.7104 51.0366 82.4253 51.2185 82.1884 51.4764C81.95 51.7194 81.7755 52.022 81.6493 52.3709C81.5215 52.7197 81.4577 53.1133 81.4577 53.5382C81.4577 54.0093 81.5215 54.4178 81.6649 54.7815C81.8082 55.1453 81.9983 55.4494 82.2352 55.6924C82.4736 55.9354 82.7743 56.1322 83.1077 56.2679C83.4396 56.405 83.8525 56.4811 84.2483 56.4811Z" fill="black"/>
<path fill-rule="evenodd" clip-rule="evenodd" d="M92.704 54.3393H89.8685V56.4206H93.9903V57.6484H88.1079V49.4131H93.9903V50.6423H89.8512V53.1742H93.1091V54.0751C93.1091 54.0751 93.0918 54.3393 92.704 54.3393Z" fill="black"/>
<path fill-rule="evenodd" clip-rule="evenodd" d="M54.9619 5.88428H57.0633C57.1692 5.88428 57.255 5.97007 57.255 6.07591V6.11398C57.255 6.2127 57.2177 6.30779 57.1507 6.38027L50.4854 13.5863C50.3467 13.7363 50.3463 13.9677 50.4847 14.1181L55.7004 19.7881C55.8373 19.9369 55.8386 20.1655 55.7033 20.3158L54.8624 21.2506C54.7176 21.4116 54.4696 21.4247 54.3086 21.2799C54.2996 21.2717 54.2909 21.2632 54.2827 21.2543L47.6963 14.1175C47.5577 13.9674 47.5576 13.7361 47.696 13.5859L54.6735 6.01075C54.7477 5.93014 54.8523 5.88428 54.9619 5.88428Z" fill="#F06A2A"/>
<path fill-rule="evenodd" clip-rule="evenodd" d="M57.5779 22.7466H55.4884C55.381 22.7466 55.2939 22.6595 55.2939 22.5521V22.5078C55.2939 22.411 55.3296 22.3177 55.3942 22.2457L62.0642 14.8183C62.1979 14.6694 62.198 14.4437 62.0644 14.2946L56.846 8.47028C56.7132 8.3221 56.7125 8.09797 56.8442 7.94889L57.6854 6.99711C57.8288 6.83482 58.0767 6.81954 58.2389 6.96297C58.25 6.97272 58.2605 6.98309 58.2703 6.99402L64.8613 14.2947C64.9958 14.4436 64.9961 14.67 64.8622 14.8193L57.8699 22.6162C57.7955 22.6992 57.6893 22.7466 57.5779 22.7466Z" fill="#F06A2A"/>
<path fill-rule="evenodd" clip-rule="evenodd" d="M56.3432 18.0414C57.7999 18.0414 58.9489 16.4331 58.8126 14.7135C58.752 13.9483 58.2791 12.5786 58.1187 12.8223C58.0395 12.9427 58.2192 13.8824 58.1603 14.4573C58.0625 15.4129 57.6938 15.9949 57.5055 15.6547C57.3171 15.3144 57.3818 14.6429 57.336 13.9362C57.2865 13.1698 57.1572 12.4066 56.9965 11.9332C56.9265 11.7267 56.2672 9.97183 55.7917 9.80615C55.7609 9.80615 55.7415 9.80615 55.7336 9.80615C55.7182 9.80615 55.6747 9.82081 55.6481 9.84406C55.5433 9.93561 55.7009 10.538 55.2645 11.2716C54.978 11.7532 54.4198 12.3811 54.1461 12.9977C53.7756 13.8325 53.7095 14.6506 53.7285 15.0826C53.8116 16.967 54.8864 18.0414 56.3432 18.0414Z" fill="#F06A2A"/>
<defs>
<linearGradient id="paint0_linear_4539_70" x1="4220.54" y1="10665.2" x2="27567.9" y2="25474.9" gradientUnits="userSpaceOnUse">
<stop stop-color="#C2C2BD"/>
<stop offset="1" stop-color="#F06A2A"/>
</linearGradient>
<linearGradient id="paint1_linear_4539_70" x1="7095.9" y1="1754.85" x2="4841.11" y2="148.455" gradientUnits="userSpaceOnUse">
<stop stop-color="white"/>
<stop offset="1" stop-color="#E7E7E7"/>
</linearGradient>
<linearGradient id="paint2_linear_4539_70" x1="2012.99" y1="3716.98" x2="6075.65" y2="9462.06" gradientUnits="userSpaceOnUse">
<stop stop-color="white"/>
<stop offset="1" stop-color="#F3F3F3"/>
</linearGradient>
<linearGradient id="paint3_linear_4539_70" x1="19517" y1="998.931" x2="9069.27" y2="5017.72" gradientUnits="userSpaceOnUse">
<stop stop-color="#FFCB00"/>
<stop offset="1" stop-color="#F06A2B"/>
</linearGradient>
<linearGradient id="paint4_linear_4539_70" x1="-8047.02" y1="1114" x2="4438.03" y2="3680.93" gradientUnits="userSpaceOnUse">
<stop stop-color="#FFCB00"/>
<stop offset="1" stop-color="#F06A2B"/>
</linearGradient>
</defs>
</svg>
