<svg width="25" height="24" viewBox="0 0 25 24" fill="none" xmlns="http://www.w3.org/2000/svg">
<path d="M20.625 6.00244H17.5V4.12744C17.5 3.09229 16.6602 2.25244 15.625 2.25244H9.375C8.33984 2.25244 7.5 3.09229 7.5 4.12744V6.00244H4.375C3.33984 6.00244 2.5 6.84229 2.5 7.87744V19.1274C2.5 20.1626 3.33984 21.0024 4.375 21.0024H20.625C21.6602 21.0024 22.5 20.1626 22.5 19.1274V7.87744C22.5 6.84229 21.6602 6.00244 20.625 6.00244ZM9.375 4.12744H15.625V6.00244H9.375V4.12744ZM16.875 14.5181C16.875 14.8632 16.5952 15.1431 16.25 15.1431H14.1406V17.2524C14.1406 17.5976 13.8608 17.8774 13.5508 17.8774H11.5195C11.1744 17.8774 10.8945 17.5976 10.8945 17.2524V15.1782H8.75C8.40484 15.1782 8.125 14.8984 8.125 14.5532V12.522C8.125 12.1767 8.40484 11.897 8.75 11.897H10.8242V9.75244C10.8242 9.40721 11.1041 9.12744 11.4492 9.12744H13.4805C13.8256 9.12744 14.0703 9.40721 14.0703 9.75244V11.8618H16.25C16.5952 11.8618 16.875 12.1416 16.875 12.4868V14.5181Z" fill="#ABA9B8"/>
</svg>
