<svg width="25" height="24" viewBox="0 0 25 24" fill="none" xmlns="http://www.w3.org/2000/svg">
<path d="M22.5 5.33328V18.6666C22.5 19.2812 22.0035 19.7777 21.3889 19.7777C20.7743 19.7777 20.2778 19.2812 20.2778 18.6666V5.33328C20.2778 4.71974 20.7743 4.22217 21.3889 4.22217C22.0035 4.22217 22.5 4.71974 22.5 5.33328ZM4.72083 9.7187L19.1667 5.33328V18.6666L14.6146 17.2847C14.2431 18.7187 12.941 19.7777 11.3889 19.7777C9.51736 19.7777 8.05556 18.2847 8.05556 16.4444C8.05556 16.0312 8.12153 15.6909 8.23958 15.3506L4.72083 14.2812C4.68993 14.868 4.20486 15.3333 3.61111 15.3333C2.99757 15.3333 2.5 14.8368 2.5 14.2222V9.77772C2.5 9.16314 2.99757 8.66661 3.61111 8.66661C4.20486 8.66661 4.68993 9.13189 4.72083 9.7187ZM13.0174 16.7986L9.83681 15.8333C9.76389 16.0243 9.72222 16.2291 9.72222 16.4444C9.72222 17.3645 10.4688 18.1111 11.3889 18.1111C12.1563 18.1111 12.8542 17.5486 13.0174 16.7986Z" fill="#ABA9B8"/>
</svg>
