<svg width="25" height="24" viewBox="0 0 25 24" fill="none" xmlns="http://www.w3.org/2000/svg">
<path d="M22.9191 7.90563L13.2013 4.42688C12.7297 4.2581 12.2142 4.2581 11.7427 4.42688L2.05172 7.90563C1.72131 8.02594 1.5 8.34219 1.5 8.69969C1.5 9.05719 1.72131 9.37516 2.05172 9.49341L4.11491 10.2328C3.70619 10.7759 3.41847 11.4071 3.271 12.0873C2.87672 12.2541 2.6 12.6459 2.6 13.0997C2.6 13.4418 2.76548 13.7353 3.01044 13.9371L2.15691 19.0589C2.10088 19.3938 2.35937 19.6997 2.69934 19.6997H4.70066C5.04052 19.6997 5.29913 19.3945 5.24309 19.0593L4.38956 13.9374C4.63466 13.7356 4.8 13.4125 4.8 13.0997C4.8 12.746 4.62214 12.4455 4.36275 12.2441C4.50678 11.6412 4.8018 11.0849 5.22006 10.6274L11.7719 12.9728C12.2435 13.1416 12.7589 13.1416 13.2305 12.9728L22.9483 9.4941C23.28 9.37344 23.5 9.05719 23.5 8.69969C23.5 8.34219 23.28 8.02594 22.9191 7.90563ZM13.5691 14.0072C13.2459 14.1344 12.8747 14.1997 12.5 14.1997C12.1251 14.1998 11.7529 14.1352 11.4 14.0087L6.40875 12.2231L5.9 17.1319C5.9 18.5516 8.82531 19.6997 12.5 19.6997C16.1128 19.6997 19.1 18.5516 19.1 17.1329L18.5919 12.2207L13.5691 14.0072Z" fill="#ABA9B8"/>
</svg>
