<svg width="25" height="24" viewBox="0 0 25 24" fill="none" xmlns="http://www.w3.org/2000/svg">
<path d="M5.34637 3.5C5.74724 3.5 6.09234 3.78549 6.16902 4.18008L6.22131 4.61546H20.8861C21.5937 4.61546 22.1584 5.32133 21.9597 6.03279L20.0774 12.7269C19.9414 13.208 19.5022 13.5391 19.0038 13.5391H7.95027L8.27097 15.2123H19.0107C19.4743 15.2123 19.8473 15.5853 19.8473 16.0489C19.8473 16.5125 19.4743 16.8855 19.0107 16.8855H7.54592C7.17642 16.8855 6.83133 16.5997 6.75464 16.2058L4.65409 5.17319H2.83659C2.37472 5.17319 2 4.79846 2 4.33659C2 3.87472 2.37472 3.5 2.83659 3.5H5.34637ZM6.46183 19.6741C6.46183 18.7504 7.21128 18.001 8.13502 18.001C9.05876 18.001 9.80821 18.7504 9.80821 19.6741C9.80821 20.5979 9.05876 21.3473 8.13502 21.3473C7.21128 21.3473 6.46183 20.5979 6.46183 19.6741ZM19.8473 19.6741C19.8473 20.5979 19.0979 21.3473 18.1741 21.3473C17.2504 21.3473 16.501 20.5979 16.501 19.6741C16.501 18.7504 17.2504 18.001 18.1741 18.001C19.0979 18.001 19.8473 18.7504 19.8473 19.6741Z" fill="#1B1B1F"/>
</svg>
