<svg width="25" height="24" viewBox="0 0 25 24" fill="none" xmlns="http://www.w3.org/2000/svg">
<path d="M20.8125 2.5C21.4693 2.5 22 3.03178 22 3.6875C22 4.34322 21.4693 4.875 20.8125 4.875V19.125C21.4693 19.125 22 19.6557 22 20.3125C22 20.9693 21.4693 21.5 20.8125 21.5H14.2812V19.125H10.7188V21.5H4.1875C3.53178 21.5 3 20.9693 3 20.3125C3 19.6557 3.53178 19.125 4.1875 19.125V4.875C3.53178 4.875 3 4.34322 3 3.6875C3 3.03178 3.53178 2.5 4.1875 2.5H20.8125ZM7.15625 6.0625C6.82969 6.0625 6.5625 6.32969 6.5625 6.65625V7.84375C6.5625 8.17031 6.82969 8.4375 7.15625 8.4375H8.34375C8.67031 8.4375 8.9375 8.17031 8.9375 7.84375V6.65625C8.9375 6.32969 8.67031 6.0625 8.34375 6.0625H7.15625ZM11.3125 7.84375C11.3125 8.17031 11.5797 8.4375 11.9062 8.4375H13.0938C13.4203 8.4375 13.6875 8.17031 13.6875 7.84375V6.65625C13.6875 6.32969 13.4203 6.0625 13.0938 6.0625H11.9062C11.5797 6.0625 11.3125 6.32969 11.3125 6.65625V7.84375ZM16.6562 6.0625C16.3297 6.0625 16.0625 6.32969 16.0625 6.65625V7.84375C16.0625 8.17031 16.3297 8.4375 16.6562 8.4375H17.8438C18.1703 8.4375 18.4375 8.17031 18.4375 7.84375V6.65625C18.4375 6.32969 18.1703 6.0625 17.8438 6.0625H16.6562ZM6.5625 11.4062C6.5625 11.7328 6.82969 12 7.15625 12H8.34375C8.67031 12 8.9375 11.7328 8.9375 11.4062V10.2188C8.9375 9.89219 8.67031 9.625 8.34375 9.625H7.15625C6.82969 9.625 6.5625 9.89219 6.5625 10.2188V11.4062ZM11.9062 9.625C11.5797 9.625 11.3125 9.89219 11.3125 10.2188V11.4062C11.3125 11.7328 11.5797 12 11.9062 12H13.0938C13.4203 12 13.6875 11.7328 13.6875 11.4062V10.2188C13.6875 9.89219 13.4203 9.625 13.0938 9.625H11.9062ZM16.0625 11.4062C16.0625 11.7328 16.3297 12 16.6562 12H17.8438C18.1703 12 18.4375 11.7328 18.4375 11.4062V10.2188C18.4375 9.89219 18.1703 9.625 17.8438 9.625H16.6562C16.3297 9.625 16.0625 9.89219 16.0625 10.2188V11.4062ZM12.5 13.1875C10.8375 13.1875 9.43848 14.3268 9.01543 15.8668C8.92637 16.3455 9.33457 16.75 9.82812 16.75H15.1719C15.6654 16.75 16.0736 16.3455 15.9512 15.8668C15.5615 14.3268 14.1625 13.1875 12.5 13.1875Z" fill="#ABA9B8"/>
</svg>
