<svg width="416" height="80" viewBox="0 0 416 80" fill="none" xmlns="http://www.w3.org/2000/svg">
<g filter="url(#filter0_d_5421_326899)">
<rect x="16" y="8" width="384" height="48" rx="8" fill="white"/>
<path d="M51 48H29C28.4477 48 28 47.5523 28 47V17C28 16.4477 28.4477 16 29 16H45.7143L52 22.4V47C52 47.5523 51.5523 48 51 48Z" fill="#E9E8EB"/>
<path d="M28.5 17C28.5 16.7239 28.7238 16.5 29 16.5L45.5001 16.5L51.5001 22.5V47C51.5001 47.2761 51.2762 47.5 51.0001 47.5H29C28.7239 47.5 28.5 47.2761 28.5 47L28.5 17Z" fill="#F8F7FA"/>
<rect x="31" y="23" width="12" height="1" fill="#DEDEE0"/>
<rect x="31" y="25" width="18" height="1" fill="#DEDEE0"/>
<rect x="31" y="27" width="14" height="1" fill="#DEDEE0"/>
<rect x="31" y="31" width="18" height="1" fill="#DEDEE0"/>
<rect x="31" y="33" width="14" height="1" fill="#DEDEE0"/>
<rect x="31" y="37" width="18" height="1" fill="#DEDEE0"/>
<rect x="31" y="39" width="11" height="1" fill="#DEDEE0"/>
<rect x="44" y="44" width="5" height="1" fill="#DEDEE0"/>
<mask id="mask0_5421_326899" style="mask-type:alpha" maskUnits="userSpaceOnUse" x="41" y="16" width="11" height="10">
<path d="M51.4995 22.5L45.4995 16.5H41.9961V25.9961H51.4996L51.4995 22.5Z" fill="#2E2E2E"/>
</mask>
<g mask="url(#mask0_5421_326899)">
<g filter="url(#filter1_f_5421_326899)">
<path d="M43 25L45.5 16.5L51.5 22.5L43 25Z" fill="#B9B9BD"/>
</g>
</g>
<path d="M45.5 22V16.5L51.5 22.5H46C45.7239 22.5 45.5 22.2761 45.5 22Z" fill="#F8F7FA"/>
<path d="M64.9588 19.2727H66.5568L69.3352 26.0568H69.4375L72.2159 19.2727H73.8139V28H72.5611V21.6847H72.4801L69.9062 27.9872H68.8665L66.2926 21.6804H66.2116V28H64.9588V19.2727ZM75.5301 28V21.4545H76.8042V28H75.5301ZM76.1735 20.4446C75.9519 20.4446 75.7616 20.3707 75.6025 20.223C75.4463 20.0724 75.3681 19.8935 75.3681 19.6861C75.3681 19.4759 75.4463 19.2969 75.6025 19.1491C75.7616 18.9986 75.9519 18.9233 76.1735 18.9233C76.3951 18.9233 76.584 18.9986 76.7403 19.1491C76.8994 19.2969 76.9789 19.4759 76.9789 19.6861C76.9789 19.8935 76.8994 20.0724 76.7403 20.223C76.584 20.3707 76.3951 20.4446 76.1735 20.4446ZM81.2434 28.1321C80.5985 28.1321 80.0431 27.9943 79.5772 27.7188C79.1141 27.4403 78.7562 27.0497 78.5033 26.5469C78.2533 26.0412 78.1283 25.4489 78.1283 24.7699C78.1283 24.0994 78.2533 23.5085 78.5033 22.9972C78.7562 22.4858 79.1084 22.0866 79.5601 21.7997C80.0147 21.5128 80.5459 21.3693 81.1539 21.3693C81.5232 21.3693 81.8812 21.4304 82.2277 21.5526C82.5743 21.6747 82.8854 21.8665 83.161 22.1278C83.4366 22.3892 83.6539 22.7287 83.813 23.1463C83.9721 23.5611 84.0516 24.0653 84.0516 24.6591V25.1108H78.8485V24.1562H82.803C82.803 23.821 82.7348 23.5241 82.5985 23.2656C82.4621 23.0043 82.2704 22.7983 82.0232 22.6477C81.7789 22.4972 81.4919 22.4219 81.1624 22.4219C80.8044 22.4219 80.4919 22.5099 80.2249 22.6861C79.9607 22.8594 79.7562 23.0866 79.6113 23.3679C79.4692 23.6463 79.3982 23.9489 79.3982 24.2756V25.0213C79.3982 25.4588 79.4749 25.831 79.6283 26.1378C79.7846 26.4446 80.0019 26.679 80.2803 26.8409C80.5587 27 80.884 27.0795 81.2562 27.0795C81.4976 27.0795 81.7178 27.0455 81.9167 26.9773C82.1155 26.9062 82.2874 26.8011 82.4323 26.6619C82.5772 26.5227 82.688 26.3509 82.7647 26.1463L83.9706 26.3636C83.8741 26.7187 83.7008 27.0298 83.4508 27.2969C83.2036 27.5611 82.8925 27.767 82.5175 27.9148C82.1454 28.0597 81.7206 28.1321 81.2434 28.1321ZM88.4247 21.4545V22.4773H84.8494V21.4545H88.4247ZM85.8082 19.8864H87.0824V26.0781C87.0824 26.3253 87.1193 26.5114 87.1932 26.6364C87.267 26.7585 87.3622 26.8423 87.4787 26.8878C87.598 26.9304 87.7273 26.9517 87.8665 26.9517C87.9687 26.9517 88.0582 26.9446 88.1349 26.9304C88.2116 26.9162 88.2713 26.9048 88.3139 26.8963L88.544 27.9489C88.4702 27.9773 88.3651 28.0057 88.2287 28.0341C88.0923 28.0653 87.9219 28.0824 87.7173 28.0852C87.3821 28.0909 87.0696 28.0312 86.7798 27.9062C86.4901 27.7812 86.2557 27.5881 86.0767 27.3267C85.8977 27.0653 85.8082 26.7372 85.8082 26.3423V19.8864ZM95.3376 21.4545L92.964 28H91.6004L89.2225 21.4545H90.5904L92.2481 26.4915H92.3163L93.9697 21.4545H95.3376ZM99.0374 28.1321C98.3925 28.1321 97.8371 27.9943 97.3712 27.7188C96.9081 27.4403 96.5502 27.0497 96.2973 26.5469C96.0473 26.0412 95.9223 25.4489 95.9223 24.7699C95.9223 24.0994 96.0473 23.5085 96.2973 22.9972C96.5502 22.4858 96.9025 22.0866 97.3542 21.7997C97.8087 21.5128 98.34 21.3693 98.9479 21.3693C99.3172 21.3693 99.6752 21.4304 100.022 21.5526C100.368 21.6747 100.679 21.8665 100.955 22.1278C101.231 22.3892 101.448 22.7287 101.607 23.1463C101.766 23.5611 101.846 24.0653 101.846 24.6591V25.1108H96.6425V24.1562H100.597C100.597 23.821 100.529 23.5241 100.393 23.2656C100.256 23.0043 100.064 22.7983 99.8172 22.6477C99.5729 22.4972 99.286 22.4219 98.9564 22.4219C98.5985 22.4219 98.286 22.5099 98.0189 22.6861C97.7547 22.8594 97.5502 23.0866 97.4053 23.3679C97.2633 23.6463 97.1922 23.9489 97.1922 24.2756V25.0213C97.1922 25.4588 97.2689 25.831 97.4223 26.1378C97.5786 26.4446 97.7959 26.679 98.0743 26.8409C98.3527 27 98.678 27.0795 99.0502 27.0795C99.2917 27.0795 99.5118 27.0455 99.7107 26.9773C99.9096 26.9062 100.081 26.8011 100.226 26.6619C100.371 26.5227 100.482 26.3509 100.559 26.1463L101.765 26.3636C101.668 26.7187 101.495 27.0298 101.245 27.2969C100.998 27.5611 100.687 27.767 100.312 27.9148C99.9394 28.0597 99.5147 28.1321 99.0374 28.1321ZM103.163 28V21.4545H104.395V22.4943H104.463C104.582 22.142 104.793 21.8651 105.094 21.6634C105.398 21.4588 105.741 21.3565 106.125 21.3565C106.205 21.3565 106.298 21.3594 106.406 21.3651C106.517 21.3707 106.604 21.3778 106.666 21.3864V22.6051C106.615 22.5909 106.524 22.5753 106.393 22.5582C106.263 22.5384 106.132 22.5284 106.001 22.5284C105.7 22.5284 105.432 22.5923 105.196 22.7202C104.963 22.8452 104.778 23.0199 104.642 23.2443C104.506 23.4659 104.437 23.7187 104.437 24.0028V28H103.163ZM111.115 21.4545V22.4773H107.54V21.4545H111.115ZM108.498 19.8864H109.773V26.0781C109.773 26.3253 109.81 26.5114 109.883 26.6364C109.957 26.7585 110.052 26.8423 110.169 26.8878C110.288 26.9304 110.417 26.9517 110.557 26.9517C110.659 26.9517 110.748 26.9446 110.825 26.9304C110.902 26.9162 110.962 26.9048 111.004 26.8963L111.234 27.9489C111.16 27.9773 111.055 28.0057 110.919 28.0341C110.783 28.0653 110.612 28.0824 110.408 28.0852C110.072 28.0909 109.76 28.0312 109.47 27.9062C109.18 27.7812 108.946 27.5881 108.767 27.3267C108.588 27.0653 108.498 26.7372 108.498 26.3423V19.8864ZM112.428 28V21.4545H113.66V22.4943H113.728C113.847 22.142 114.058 21.8651 114.359 21.6634C114.663 21.4588 115.007 21.3565 115.39 21.3565C115.47 21.3565 115.563 21.3594 115.671 21.3651C115.782 21.3707 115.869 21.3778 115.931 21.3864V22.6051C115.88 22.5909 115.789 22.5753 115.658 22.5582C115.528 22.5384 115.397 22.5284 115.266 22.5284C114.965 22.5284 114.697 22.5923 114.461 22.7202C114.228 22.8452 114.043 23.0199 113.907 23.2443C113.771 23.4659 113.703 23.7187 113.703 24.0028V28H112.428ZM118.784 28.1449C118.369 28.1449 117.994 28.0682 117.659 27.9148C117.324 27.7585 117.058 27.5327 116.862 27.2372C116.669 26.9418 116.572 26.5795 116.572 26.1506C116.572 25.7812 116.643 25.4773 116.786 25.2386C116.928 25 117.119 24.8111 117.361 24.6719C117.602 24.5327 117.872 24.4276 118.17 24.3565C118.469 24.2855 118.773 24.2315 119.082 24.1946C119.474 24.1491 119.793 24.1122 120.037 24.0838C120.281 24.0526 120.459 24.0028 120.57 23.9347C120.68 23.8665 120.736 23.7557 120.736 23.6023V23.5724C120.736 23.2003 120.631 22.9119 120.42 22.7074C120.213 22.5028 119.903 22.4006 119.491 22.4006C119.062 22.4006 118.724 22.4957 118.477 22.6861C118.233 22.8736 118.064 23.0824 117.97 23.3125L116.773 23.0398C116.915 22.642 117.122 22.321 117.395 22.0767C117.67 21.8295 117.987 21.6506 118.345 21.5398C118.703 21.4261 119.08 21.3693 119.474 21.3693C119.736 21.3693 120.013 21.4006 120.305 21.4631C120.601 21.5227 120.876 21.6335 121.132 21.7955C121.391 21.9574 121.602 22.1889 121.767 22.4901C121.932 22.7884 122.014 23.1761 122.014 23.6534V28H120.77V27.1051H120.719C120.636 27.2699 120.513 27.4318 120.348 27.5909C120.183 27.75 119.972 27.8821 119.713 27.9872C119.455 28.0923 119.145 28.1449 118.784 28.1449ZM119.061 27.1222C119.413 27.1222 119.714 27.0526 119.964 26.9134C120.217 26.7741 120.409 26.5923 120.54 26.3679C120.673 26.1406 120.74 25.8977 120.74 25.6392V24.7955C120.695 24.8409 120.607 24.8835 120.476 24.9233C120.348 24.9602 120.202 24.9929 120.037 25.0213C119.872 25.0469 119.712 25.071 119.555 25.0938C119.399 25.1136 119.268 25.1307 119.163 25.1449C118.916 25.1761 118.69 25.2287 118.486 25.3026C118.284 25.3764 118.122 25.483 118 25.6222C117.881 25.7585 117.821 25.9403 117.821 26.1676C117.821 26.483 117.937 26.7216 118.17 26.8835C118.403 27.0426 118.7 27.1222 119.061 27.1222ZM126.36 30.5909C125.84 30.5909 125.392 30.5227 125.017 30.3864C124.645 30.25 124.341 30.0696 124.105 29.8452C123.87 29.6207 123.693 29.375 123.577 29.108L124.672 28.6562C124.749 28.7812 124.851 28.9134 124.979 29.0526C125.11 29.1946 125.286 29.3153 125.507 29.4148C125.732 29.5142 126.02 29.5639 126.372 29.5639C126.855 29.5639 127.254 29.446 127.57 29.2102C127.885 28.9773 128.043 28.6051 128.043 28.0938V26.8068H127.962C127.885 26.946 127.774 27.1009 127.629 27.2713C127.487 27.4418 127.291 27.5895 127.041 27.7145C126.791 27.8395 126.466 27.902 126.066 27.902C125.549 27.902 125.083 27.7812 124.668 27.5398C124.256 27.2955 123.929 26.9361 123.688 26.4616C123.449 25.9844 123.33 25.3977 123.33 24.7017C123.33 24.0057 123.448 23.4091 123.683 22.9119C123.922 22.4148 124.249 22.0341 124.664 21.7699C125.078 21.5028 125.549 21.3693 126.074 21.3693C126.48 21.3693 126.808 21.4375 127.058 21.5739C127.308 21.7074 127.503 21.8636 127.642 22.0426C127.784 22.2216 127.894 22.3793 127.97 22.5156H128.064V21.4545H129.313V28.1449C129.313 28.7074 129.182 29.169 128.921 29.5298C128.659 29.8906 128.306 30.1577 127.86 30.331C127.416 30.5043 126.916 30.5909 126.36 30.5909ZM126.347 26.8452C126.713 26.8452 127.023 26.7599 127.276 26.5895C127.531 26.4162 127.725 26.169 127.855 25.848C127.989 25.5241 128.056 25.1364 128.056 24.6847C128.056 24.2443 127.99 23.8565 127.86 23.5213C127.729 23.1861 127.537 22.9247 127.284 22.7372C127.031 22.5469 126.719 22.4517 126.347 22.4517C125.963 22.4517 125.644 22.5511 125.388 22.75C125.132 22.946 124.939 23.2131 124.808 23.5511C124.681 23.8892 124.617 24.267 124.617 24.6847C124.617 25.1136 124.682 25.4901 124.813 25.8139C124.943 26.1378 125.137 26.3906 125.392 26.5724C125.651 26.7543 125.969 26.8452 126.347 26.8452ZM134.108 28V19.2727H137.218C137.897 19.2727 138.46 19.3963 138.906 19.6435C139.352 19.8906 139.686 20.2287 139.907 20.6577C140.129 21.0838 140.24 21.5639 140.24 22.098C140.24 22.6349 140.127 23.1179 139.903 23.5469C139.681 23.973 139.346 24.3111 138.897 24.5611C138.451 24.8082 137.89 24.9318 137.214 24.9318H135.075V23.8153H137.095C137.524 23.8153 137.872 23.7415 138.139 23.5938C138.406 23.4432 138.602 23.2386 138.727 22.9801C138.852 22.7216 138.914 22.4276 138.914 22.098C138.914 21.7685 138.852 21.4759 138.727 21.2202C138.602 20.9645 138.404 20.7642 138.135 20.6193C137.868 20.4744 137.515 20.402 137.078 20.402H135.424V28H134.108ZM143.431 28.1449C143.017 28.1449 142.642 28.0682 142.306 27.9148C141.971 27.7585 141.705 27.5327 141.509 27.2372C141.316 26.9418 141.22 26.5795 141.22 26.1506C141.22 25.7812 141.291 25.4773 141.433 25.2386C141.575 25 141.767 24.8111 142.008 24.6719C142.25 24.5327 142.519 24.4276 142.818 24.3565C143.116 24.2855 143.42 24.2315 143.73 24.1946C144.122 24.1491 144.44 24.1122 144.684 24.0838C144.928 24.0526 145.106 24.0028 145.217 23.9347C145.328 23.8665 145.383 23.7557 145.383 23.6023V23.5724C145.383 23.2003 145.278 22.9119 145.068 22.7074C144.86 22.5028 144.551 22.4006 144.139 22.4006C143.71 22.4006 143.372 22.4957 143.125 22.6861C142.88 22.8736 142.711 23.0824 142.617 23.3125L141.42 23.0398C141.562 22.642 141.769 22.321 142.042 22.0767C142.318 21.8295 142.634 21.6506 142.992 21.5398C143.35 21.4261 143.727 21.3693 144.122 21.3693C144.383 21.3693 144.66 21.4006 144.953 21.4631C145.248 21.5227 145.524 21.6335 145.779 21.7955C146.038 21.9574 146.25 22.1889 146.414 22.4901C146.579 22.7884 146.661 23.1761 146.661 23.6534V28H145.417V27.1051H145.366C145.284 27.2699 145.16 27.4318 144.995 27.5909C144.83 27.75 144.619 27.8821 144.36 27.9872C144.102 28.0923 143.792 28.1449 143.431 28.1449ZM143.708 27.1222C144.061 27.1222 144.362 27.0526 144.612 26.9134C144.865 26.7741 145.056 26.5923 145.187 26.3679C145.321 26.1406 145.387 25.8977 145.387 25.6392V24.7955C145.342 24.8409 145.254 24.8835 145.123 24.9233C144.995 24.9602 144.849 24.9929 144.684 25.0213C144.519 25.0469 144.359 25.071 144.203 25.0938C144.046 25.1136 143.916 25.1307 143.811 25.1449C143.563 25.1761 143.338 25.2287 143.133 25.3026C142.931 25.3764 142.769 25.483 142.647 25.6222C142.528 25.7585 142.468 25.9403 142.468 26.1676C142.468 26.483 142.585 26.7216 142.818 26.8835C143.051 27.0426 143.348 27.1222 143.708 27.1222ZM152.409 25.2855V21.4545H153.687V28H152.434V26.8665H152.366C152.216 27.2159 151.974 27.5071 151.642 27.7401C151.312 27.9702 150.902 28.0852 150.41 28.0852C149.99 28.0852 149.618 27.9929 149.294 27.8082C148.973 27.6207 148.72 27.3438 148.535 26.9773C148.353 26.6108 148.263 26.1577 148.263 25.6179V21.4545H149.537V25.4645C149.537 25.9105 149.66 26.2656 149.907 26.5298C150.155 26.794 150.476 26.9261 150.87 26.9261C151.109 26.9261 151.346 26.8665 151.582 26.7472C151.821 26.6278 152.018 26.4474 152.174 26.206C152.334 25.9645 152.412 25.6577 152.409 25.2855ZM156.577 19.2727V28H155.303V19.2727H156.577ZM166.138 21.5653C166.092 21.1619 165.905 20.8494 165.575 20.6278C165.245 20.4034 164.831 20.2912 164.331 20.2912C163.973 20.2912 163.663 20.348 163.402 20.4616C163.14 20.5724 162.937 20.7259 162.792 20.9219C162.65 21.1151 162.579 21.3352 162.579 21.5824C162.579 21.7898 162.628 21.9687 162.724 22.1193C162.824 22.2699 162.953 22.3963 163.112 22.4986C163.274 22.598 163.447 22.6818 163.632 22.75C163.817 22.8153 163.994 22.8693 164.165 22.9119L165.017 23.1335C165.295 23.2017 165.581 23.294 165.873 23.4105C166.166 23.527 166.437 23.6804 166.687 23.8707C166.937 24.0611 167.139 24.2969 167.292 24.5781C167.449 24.8594 167.527 25.196 167.527 25.5881C167.527 26.0824 167.399 26.5213 167.143 26.9048C166.89 27.2884 166.522 27.5909 166.04 27.8125C165.559 28.0341 164.978 28.1449 164.297 28.1449C163.643 28.1449 163.078 28.0412 162.601 27.8338C162.123 27.6264 161.75 27.3324 161.48 26.9517C161.21 26.5682 161.061 26.1136 161.032 25.5881H162.353C162.379 25.9034 162.481 26.1662 162.66 26.3764C162.842 26.5838 163.074 26.7386 163.355 26.8409C163.639 26.9403 163.95 26.9901 164.288 26.9901C164.66 26.9901 164.991 26.9318 165.281 26.8153C165.574 26.696 165.804 26.5312 165.971 26.321C166.139 26.108 166.223 25.8594 166.223 25.5753C166.223 25.3168 166.149 25.1051 166.001 24.9403C165.856 24.7756 165.659 24.6392 165.409 24.5312C165.162 24.4233 164.882 24.3281 164.569 24.2457L163.538 23.9645C162.839 23.7741 162.285 23.4943 161.876 23.125C161.47 22.7557 161.267 22.267 161.267 21.6591C161.267 21.1562 161.403 20.7173 161.676 20.3423C161.949 19.9673 162.318 19.6761 162.784 19.4688C163.25 19.2585 163.775 19.1534 164.361 19.1534C164.951 19.1534 165.473 19.2571 165.924 19.4645C166.379 19.6719 166.737 19.9574 166.998 20.321C167.26 20.6818 167.396 21.0966 167.407 21.5653H166.138ZM171.659 28.1321C171.026 28.1321 170.48 27.9886 170.023 27.7017C169.568 27.4119 169.219 27.0128 168.974 26.5043C168.73 25.9957 168.608 25.4134 168.608 24.7571C168.608 24.0923 168.733 23.5057 168.983 22.9972C169.233 22.4858 169.585 22.0866 170.04 21.7997C170.494 21.5128 171.03 21.3693 171.646 21.3693C172.143 21.3693 172.587 21.4616 172.976 21.6463C173.365 21.8281 173.679 22.0838 173.918 22.4134C174.159 22.7429 174.303 23.1278 174.348 23.5682H173.108C173.04 23.2614 172.884 22.9972 172.639 22.7756C172.398 22.554 172.074 22.4432 171.668 22.4432C171.312 22.4432 171.001 22.5369 170.734 22.7244C170.47 22.9091 170.264 23.1733 170.116 23.517C169.969 23.858 169.895 24.2614 169.895 24.7273C169.895 25.2045 169.967 25.6165 170.112 25.9631C170.257 26.3097 170.462 26.5781 170.726 26.7685C170.993 26.9588 171.307 27.054 171.668 27.054C171.909 27.054 172.128 27.0099 172.324 26.9219C172.523 26.831 172.689 26.7017 172.822 26.5341C172.959 26.3665 173.054 26.1648 173.108 25.929H174.348C174.303 26.3523 174.165 26.7301 173.935 27.0625C173.705 27.3949 173.396 27.6562 173.01 27.8466C172.626 28.0369 172.176 28.1321 171.659 28.1321ZM176.889 24.1136V28H175.615V19.2727H176.872V22.5199H176.953C177.106 22.1676 177.34 21.8878 177.656 21.6804C177.971 21.473 178.383 21.3693 178.892 21.3693C179.34 21.3693 179.732 21.4616 180.068 21.6463C180.406 21.831 180.667 22.1065 180.852 22.473C181.039 22.8366 181.133 23.2912 181.133 23.8366V28H179.859V23.9901C179.859 23.5099 179.735 23.1378 179.488 22.8736C179.241 22.6065 178.897 22.473 178.457 22.473C178.156 22.473 177.886 22.5369 177.647 22.6648C177.411 22.7926 177.225 22.9801 177.089 23.2273C176.955 23.4716 176.889 23.767 176.889 24.1136ZM182.737 28V21.4545H183.96V22.5199H184.041C184.178 22.1591 184.401 21.8778 184.71 21.6761C185.02 21.4716 185.391 21.3693 185.823 21.3693C186.26 21.3693 186.627 21.4716 186.922 21.6761C187.22 21.8807 187.44 22.1619 187.582 22.5199H187.651C187.807 22.1705 188.055 21.892 188.396 21.6847C188.737 21.4744 189.144 21.3693 189.615 21.3693C190.209 21.3693 190.693 21.5554 191.068 21.9276C191.446 22.2997 191.635 22.8608 191.635 23.6108V28H190.361V23.7301C190.361 23.2869 190.24 22.9659 189.999 22.767C189.757 22.5682 189.469 22.4688 189.134 22.4688C188.719 22.4688 188.396 22.5966 188.166 22.8523C187.936 23.1051 187.821 23.4304 187.821 23.8281V28H186.551V23.6491C186.551 23.294 186.44 23.0085 186.219 22.7926C185.997 22.5767 185.709 22.4688 185.354 22.4688C185.112 22.4688 184.889 22.5327 184.685 22.6605C184.483 22.7855 184.32 22.9602 184.195 23.1847C184.073 23.4091 184.011 23.669 184.011 23.9645V28H182.737ZM193.247 28V21.4545H194.521V28H193.247ZM193.89 20.4446C193.669 20.4446 193.478 20.3707 193.319 20.223C193.163 20.0724 193.085 19.8935 193.085 19.6861C193.085 19.4759 193.163 19.2969 193.319 19.1491C193.478 18.9986 193.669 18.9233 193.89 18.9233C194.112 18.9233 194.301 18.9986 194.457 19.1491C194.616 19.2969 194.696 19.4759 194.696 19.6861C194.696 19.8935 194.616 20.0724 194.457 20.223C194.301 20.3707 194.112 20.4446 193.89 20.4446ZM198.589 28.1278C198.061 28.1278 197.589 27.9929 197.175 27.723C196.763 27.4503 196.439 27.0625 196.203 26.5597C195.97 26.054 195.854 25.4474 195.854 24.7401C195.854 24.0327 195.971 23.4276 196.207 22.9247C196.446 22.4219 196.773 22.0369 197.187 21.7699C197.602 21.5028 198.072 21.3693 198.598 21.3693C199.004 21.3693 199.331 21.4375 199.578 21.5739C199.828 21.7074 200.021 21.8636 200.158 22.0426C200.297 22.2216 200.405 22.3793 200.481 22.5156H200.558V19.2727H201.832V28H200.588V26.9815H200.481C200.405 27.1207 200.294 27.2798 200.149 27.4588C200.007 27.6378 199.811 27.794 199.561 27.9276C199.311 28.0611 198.987 28.1278 198.589 28.1278ZM198.871 27.0412C199.237 27.0412 199.547 26.9446 199.8 26.7514C200.055 26.5554 200.248 26.2841 200.379 25.9375C200.513 25.5909 200.579 25.1875 200.579 24.7273C200.579 24.2727 200.514 23.875 200.383 23.5341C200.253 23.1932 200.061 22.9276 199.808 22.7372C199.555 22.5469 199.243 22.4517 198.871 22.4517C198.487 22.4517 198.167 22.5511 197.912 22.75C197.656 22.9489 197.463 23.2202 197.332 23.5639C197.204 23.9077 197.14 24.2955 197.14 24.7273C197.14 25.1648 197.206 25.5582 197.337 25.9077C197.467 26.2571 197.66 26.5341 197.916 26.7386C198.175 26.9403 198.493 27.0412 198.871 27.0412Z" fill="#1B1B1F"/>
<path fill-rule="evenodd" clip-rule="evenodd" d="M66.5 36.5C66.5 35.6716 67.1716 35 68 35H69.7039C70.0648 35 70.4136 35.1301 70.6863 35.3665L71.2763 35.8778C71.3672 35.9566 71.4835 36 71.6038 36H76C76.8284 36 77.5 36.6716 77.5 37.5V42.5C77.5 43.3284 76.8284 44 76 44H68C67.1716 44 66.5 43.3284 66.5 42.5V36.5ZM67.5 36.5C67.5 36.2239 67.7239 36 68 36H69.7039C69.8242 36 69.9404 36.0434 70.0314 36.1222L70.6214 36.6335C70.8941 36.8699 71.2429 37 71.6038 37H76C76.2761 37 76.5 37.2239 76.5 37.5V38H67.5V36.5ZM76.5 39V42.5C76.5 42.7761 76.2761 43 76 43H68C67.7239 43 67.5 42.7761 67.5 42.5V39H76.5Z" fill="#ABA9B8"/>
<path d="M82.9688 44V36H85.7656C86.3229 36 86.7826 36.0964 87.1445 36.2891C87.5065 36.4792 87.776 36.7357 87.9531 37.0586C88.1302 37.3789 88.2188 37.7344 88.2188 38.125C88.2188 38.4687 88.1576 38.7526 88.0352 38.9766C87.9154 39.2005 87.7565 39.3776 87.5586 39.5078C87.3633 39.638 87.151 39.7344 86.9219 39.7969V39.875C87.1667 39.8906 87.4128 39.9766 87.6602 40.1328C87.9076 40.2891 88.1146 40.513 88.2813 40.8047C88.4479 41.0964 88.5312 41.4531 88.5312 41.875C88.5312 42.276 88.4401 42.6367 88.2578 42.957C88.0755 43.2773 87.7878 43.5312 87.3945 43.7187C87.0013 43.9062 86.4896 44 85.8594 44H82.9688ZM83.9375 43.1406H85.8594C86.4922 43.1406 86.9414 43.0182 87.207 42.7734C87.4753 42.526 87.6094 42.2266 87.6094 41.875C87.6094 41.6042 87.5404 41.3542 87.4023 41.125C87.2643 40.8932 87.0677 40.7083 86.8125 40.5703C86.5573 40.4297 86.2552 40.3594 85.9063 40.3594H83.9375V43.1406ZM83.9375 39.5156H85.7344C86.026 39.5156 86.2891 39.4583 86.5234 39.3437C86.7604 39.2292 86.9479 39.0677 87.0859 38.8594C87.2266 38.651 87.2969 38.4062 87.2969 38.125C87.2969 37.7734 87.1745 37.4753 86.9297 37.2305C86.6849 36.9831 86.2969 36.8594 85.7656 36.8594H83.9375V39.5156ZM92.5137 44.125C91.9355 44.125 91.4368 43.9974 91.0176 43.7422C90.6009 43.4844 90.2793 43.125 90.0527 42.6641C89.8288 42.2005 89.7168 41.6615 89.7168 41.0469C89.7168 40.4323 89.8288 39.8906 90.0527 39.4219C90.2793 38.9505 90.5944 38.5833 90.998 38.3203C91.4043 38.0547 91.8783 37.9219 92.4199 37.9219C92.7324 37.9219 93.041 37.974 93.3457 38.0781C93.6504 38.1823 93.9277 38.3516 94.1777 38.5859C94.4277 38.8177 94.627 39.125 94.7754 39.5078C94.9238 39.8906 94.998 40.362 94.998 40.9219V41.3125H90.373V40.5156H94.0605C94.0605 40.1771 93.9928 39.875 93.8574 39.6094C93.7246 39.3437 93.5345 39.1341 93.2871 38.9805C93.0423 38.8268 92.7533 38.75 92.4199 38.75C92.0527 38.75 91.735 38.8411 91.4668 39.0234C91.2012 39.2031 90.9967 39.4375 90.8535 39.7266C90.7103 40.0156 90.6387 40.3255 90.6387 40.6562V41.1875C90.6387 41.6406 90.7168 42.0247 90.873 42.3398C91.0319 42.6523 91.252 42.8906 91.5332 43.0547C91.8145 43.2161 92.1413 43.2969 92.5137 43.2969C92.7559 43.2969 92.9746 43.263 93.1699 43.1953C93.3678 43.125 93.5384 43.0208 93.6816 42.8828C93.8249 42.7422 93.9355 42.5677 94.0137 42.3594L94.9043 42.6094C94.8105 42.9115 94.653 43.1771 94.4316 43.4062C94.2103 43.6328 93.9368 43.8099 93.6113 43.9375C93.2858 44.0625 92.9199 44.125 92.5137 44.125ZM96.4004 44V38H97.291V38.9062H97.3535C97.4629 38.6094 97.6608 38.3685 97.9473 38.1836C98.2337 37.9987 98.5566 37.9062 98.916 37.9062C98.9837 37.9062 99.0684 37.9076 99.1699 37.9102C99.2715 37.9128 99.3483 37.9167 99.4004 37.9219V38.8594C99.3691 38.8516 99.2975 38.8398 99.1855 38.8242C99.0762 38.806 98.9603 38.7969 98.8379 38.7969C98.5462 38.7969 98.2858 38.8581 98.0566 38.9805C97.8301 39.1003 97.6504 39.2669 97.5176 39.4805C97.3874 39.6914 97.3223 39.9323 97.3223 40.2031V44H96.4004ZM101.415 36V44H100.493V36H101.415ZM103.104 44V38H104.025V44H103.104ZM103.572 37C103.393 37 103.238 36.9388 103.107 36.8164C102.98 36.694 102.916 36.5469 102.916 36.375C102.916 36.2031 102.98 36.056 103.107 35.9336C103.238 35.8112 103.393 35.75 103.572 35.75C103.752 35.75 103.906 35.8112 104.033 35.9336C104.163 36.056 104.229 36.2031 104.229 36.375C104.229 36.5469 104.163 36.694 104.033 36.8164C103.906 36.9388 103.752 37 103.572 37ZM106.636 40.3906V44H105.714V38H106.604V38.9375H106.683C106.823 38.6328 107.037 38.388 107.323 38.2031C107.61 38.0156 107.979 37.9219 108.433 37.9219C108.839 37.9219 109.194 38.0052 109.499 38.1719C109.804 38.3359 110.041 38.5859 110.21 38.9219C110.379 39.2552 110.464 39.6771 110.464 40.1875V44H109.542V40.25C109.542 39.7786 109.42 39.4115 109.175 39.1484C108.93 38.8828 108.594 38.75 108.167 38.75C107.873 38.75 107.61 38.8138 107.378 38.9414C107.149 39.069 106.968 39.2552 106.835 39.5C106.702 39.7448 106.636 40.0417 106.636 40.3906ZM116.805 38.654C117.443 38.654 117.971 39.182 117.971 39.82C117.971 40.469 117.443 40.997 116.805 40.997C116.156 40.997 115.628 40.469 115.628 39.82C115.628 39.182 116.156 38.654 116.805 38.654ZM123.273 36H124.43L127.148 42.6406H127.242L129.961 36H131.117V44H130.211V37.9219H130.133L127.633 44H126.758L124.258 37.9219H124.18V44H123.273V36ZM135.372 44.125C134.83 44.125 134.355 43.9961 133.946 43.7383C133.54 43.4805 133.222 43.1198 132.993 42.6562C132.767 42.1927 132.653 41.651 132.653 41.0312C132.653 40.4062 132.767 39.8607 132.993 39.3945C133.222 38.9284 133.54 38.5664 133.946 38.3086C134.355 38.0508 134.83 37.9219 135.372 37.9219C135.914 37.9219 136.388 38.0508 136.794 38.3086C137.203 38.5664 137.521 38.9284 137.747 39.3945C137.976 39.8607 138.091 40.4062 138.091 41.0312C138.091 41.651 137.976 42.1927 137.747 42.6562C137.521 43.1198 137.203 43.4805 136.794 43.7383C136.388 43.9961 135.914 44.125 135.372 44.125ZM135.372 43.2969C135.784 43.2969 136.122 43.1914 136.388 42.9805C136.653 42.7695 136.85 42.4922 136.978 42.1484C137.105 41.8047 137.169 41.4323 137.169 41.0312C137.169 40.6302 137.105 40.2565 136.978 39.9102C136.85 39.5638 136.653 39.2839 136.388 39.0703C136.122 38.8568 135.784 38.75 135.372 38.75C134.961 38.75 134.622 38.8568 134.356 39.0703C134.091 39.2839 133.894 39.5638 133.767 39.9102C133.639 40.2565 133.575 40.6302 133.575 41.0312C133.575 41.4323 133.639 41.8047 133.767 42.1484C133.894 42.4922 134.091 42.7695 134.356 42.9805C134.622 43.1914 134.961 43.2969 135.372 43.2969ZM141.764 44.125C141.264 44.125 140.822 43.9987 140.439 43.7461C140.057 43.4909 139.757 43.1315 139.541 42.668C139.325 42.2018 139.217 41.651 139.217 41.0156C139.217 40.3854 139.325 39.8385 139.541 39.375C139.757 38.9115 140.058 38.5534 140.443 38.3008C140.829 38.0482 141.274 37.9219 141.779 37.9219C142.17 37.9219 142.479 37.987 142.705 38.1172C142.934 38.2448 143.109 38.3906 143.229 38.5547C143.351 38.7161 143.446 38.849 143.514 38.9531H143.592V36H144.514V44H143.623V43.0781H143.514C143.446 43.1875 143.35 43.3255 143.225 43.4922C143.1 43.6562 142.921 43.8034 142.689 43.9336C142.458 44.0612 142.149 44.125 141.764 44.125ZM141.889 43.2969C142.258 43.2969 142.571 43.2005 142.826 43.0078C143.081 42.8125 143.275 42.543 143.408 42.1992C143.541 41.8529 143.607 41.4531 143.607 41C143.607 40.5521 143.542 40.1602 143.412 39.8242C143.282 39.4857 143.089 39.2227 142.834 39.0352C142.579 38.8451 142.264 38.75 141.889 38.75C141.498 38.75 141.173 38.8503 140.912 39.0508C140.654 39.2487 140.46 39.5182 140.33 39.8594C140.202 40.1979 140.139 40.5781 140.139 41C140.139 41.4271 140.204 41.8151 140.334 42.1641C140.467 42.5104 140.662 42.7865 140.92 42.9922C141.18 43.1953 141.503 43.2969 141.889 43.2969ZM146.33 44V38H147.252V44H146.33ZM146.799 37C146.619 37 146.464 36.9388 146.334 36.8164C146.206 36.694 146.143 36.5469 146.143 36.375C146.143 36.2031 146.206 36.056 146.334 35.9336C146.464 35.8112 146.619 35.75 146.799 35.75C146.979 35.75 147.132 35.8112 147.26 35.9336C147.39 36.056 147.455 36.2031 147.455 36.375C147.455 36.5469 147.39 36.694 147.26 36.8164C147.132 36.9388 146.979 37 146.799 37ZM151.612 38V38.7812H148.378V38H151.612ZM149.347 44V37.1719C149.347 36.8281 149.427 36.5417 149.589 36.3125C149.75 36.0833 149.96 35.9115 150.218 35.7969C150.476 35.6823 150.748 35.625 151.034 35.625C151.261 35.625 151.446 35.6432 151.589 35.6797C151.732 35.7161 151.839 35.75 151.909 35.7812L151.644 36.5781C151.597 36.5625 151.532 36.543 151.448 36.5195C151.368 36.4961 151.261 36.4844 151.128 36.4844C150.823 36.4844 150.603 36.5612 150.468 36.7148C150.335 36.8685 150.269 37.0937 150.269 37.3906V44H149.347ZM152.904 44V38H153.826V44H152.904ZM153.373 37C153.193 37 153.038 36.9388 152.908 36.8164C152.781 36.694 152.717 36.5469 152.717 36.375C152.717 36.2031 152.781 36.056 152.908 35.9336C153.038 35.8112 153.193 35.75 153.373 35.75C153.553 35.75 153.706 35.8112 153.834 35.9336C153.964 36.056 154.029 36.2031 154.029 36.375C154.029 36.5469 153.964 36.694 153.834 36.8164C153.706 36.9388 153.553 37 153.373 37ZM158.03 44.125C157.452 44.125 156.953 43.9974 156.534 43.7422C156.118 43.4844 155.796 43.125 155.569 42.6641C155.345 42.2005 155.233 41.6615 155.233 41.0469C155.233 40.4323 155.345 39.8906 155.569 39.4219C155.796 38.9505 156.111 38.5833 156.515 38.3203C156.921 38.0547 157.395 37.9219 157.937 37.9219C158.249 37.9219 158.558 37.974 158.862 38.0781C159.167 38.1823 159.444 38.3516 159.694 38.5859C159.944 38.8177 160.144 39.125 160.292 39.5078C160.44 39.8906 160.515 40.362 160.515 40.9219V41.3125H155.89V40.5156H159.577C159.577 40.1771 159.509 39.875 159.374 39.6094C159.241 39.3437 159.051 39.1341 158.804 38.9805C158.559 38.8268 158.27 38.75 157.937 38.75C157.569 38.75 157.252 38.8411 156.983 39.0234C156.718 39.2031 156.513 39.4375 156.37 39.7266C156.227 40.0156 156.155 40.3255 156.155 40.6562V41.1875C156.155 41.6406 156.233 42.0247 156.39 42.3398C156.549 42.6523 156.769 42.8906 157.05 43.0547C157.331 43.2161 157.658 43.2969 158.03 43.2969C158.272 43.2969 158.491 43.263 158.687 43.1953C158.884 43.125 159.055 43.0208 159.198 42.8828C159.341 42.7422 159.452 42.5677 159.53 42.3594L160.421 42.6094C160.327 42.9115 160.17 43.1771 159.948 43.4062C159.727 43.6328 159.453 43.8099 159.128 43.9375C158.802 44.0625 158.437 44.125 158.03 44.125ZM164.183 44.125C163.683 44.125 163.241 43.9987 162.858 43.7461C162.476 43.4909 162.176 43.1315 161.96 42.668C161.744 42.2018 161.636 41.651 161.636 41.0156C161.636 40.3854 161.744 39.8385 161.96 39.375C162.176 38.9115 162.477 38.5534 162.862 38.3008C163.248 38.0482 163.693 37.9219 164.198 37.9219C164.589 37.9219 164.897 37.987 165.124 38.1172C165.353 38.2448 165.528 38.3906 165.647 38.5547C165.77 38.7161 165.865 38.849 165.933 38.9531H166.011V36H166.933V44H166.042V43.0781H165.933C165.865 43.1875 165.769 43.3255 165.644 43.4922C165.519 43.6562 165.34 43.8034 165.108 43.9336C164.877 44.0612 164.568 44.125 164.183 44.125ZM164.308 43.2969C164.677 43.2969 164.99 43.2005 165.245 43.0078C165.5 42.8125 165.694 42.543 165.827 42.1992C165.96 41.8529 166.026 41.4531 166.026 41C166.026 40.5521 165.961 40.1602 165.831 39.8242C165.701 39.4857 165.508 39.2227 165.253 39.0352C164.998 38.8451 164.683 38.75 164.308 38.75C163.917 38.75 163.591 38.8503 163.331 39.0508C163.073 39.2487 162.879 39.5182 162.749 39.8594C162.621 40.1979 162.558 40.5781 162.558 41C162.558 41.4271 162.623 41.8151 162.753 42.1641C162.886 42.5104 163.081 42.7865 163.339 42.9922C163.599 43.1953 163.922 43.2969 164.308 43.2969ZM174.64 36V44H173.671V37.0156H173.624L171.671 38.3125V37.3281L173.671 36H174.64ZM180.972 40.3906V44H180.05V36H180.972V38.9375H181.05C181.19 38.6276 181.401 38.3815 181.683 38.1992C181.966 38.0143 182.344 37.9219 182.815 37.9219C183.224 37.9219 183.582 38.0039 183.89 38.168C184.197 38.3294 184.435 38.5781 184.604 38.9141C184.776 39.2474 184.862 39.6719 184.862 40.1875V44H183.94V40.25C183.94 39.7734 183.817 39.4049 183.569 39.1445C183.325 38.8815 182.985 38.75 182.55 38.75C182.248 38.75 181.977 38.8138 181.737 38.9414C181.5 39.069 181.313 39.2552 181.175 39.5C181.039 39.7448 180.972 40.0417 180.972 40.3906ZM188.986 44.125C188.445 44.125 187.969 43.9961 187.561 43.7383C187.154 43.4805 186.837 43.1198 186.607 42.6562C186.381 42.1927 186.268 41.651 186.268 41.0312C186.268 40.4062 186.381 39.8607 186.607 39.3945C186.837 38.9284 187.154 38.5664 187.561 38.3086C187.969 38.0508 188.445 37.9219 188.986 37.9219C189.528 37.9219 190.002 38.0508 190.408 38.3086C190.817 38.5664 191.135 38.9284 191.361 39.3945C191.59 39.8607 191.705 40.4062 191.705 41.0312C191.705 41.651 191.59 42.1927 191.361 42.6562C191.135 43.1198 190.817 43.4805 190.408 43.7383C190.002 43.9961 189.528 44.125 188.986 44.125ZM188.986 43.2969C189.398 43.2969 189.736 43.1914 190.002 42.9805C190.268 42.7695 190.464 42.4922 190.592 42.1484C190.719 41.8047 190.783 41.4323 190.783 41.0312C190.783 40.6302 190.719 40.2565 190.592 39.9102C190.464 39.5638 190.268 39.2839 190.002 39.0703C189.736 38.8568 189.398 38.75 188.986 38.75C188.575 38.75 188.236 38.8568 187.971 39.0703C187.705 39.2839 187.508 39.5638 187.381 39.9102C187.253 40.2565 187.189 40.6302 187.189 41.0312C187.189 41.4323 187.253 41.8047 187.381 42.1484C187.508 42.4922 187.705 42.7695 187.971 42.9805C188.236 43.1914 188.575 43.2969 188.986 43.2969ZM196.894 41.5469V38H197.815V44H196.894V42.9844H196.831C196.69 43.2891 196.472 43.5482 196.175 43.7617C195.878 43.9727 195.503 44.0781 195.05 44.0781C194.675 44.0781 194.341 43.9961 194.05 43.832C193.758 43.6654 193.529 43.4154 193.362 43.082C193.196 42.7461 193.112 42.3229 193.112 41.8125V38H194.034V41.75C194.034 42.1875 194.157 42.5365 194.401 42.7969C194.649 43.0573 194.964 43.1875 195.347 43.1875C195.576 43.1875 195.809 43.1289 196.046 43.0117C196.285 42.8945 196.486 42.7148 196.647 42.4727C196.812 42.2305 196.894 41.9219 196.894 41.5469ZM199.504 44V38H200.395V38.9062H200.457C200.566 38.6094 200.764 38.3685 201.051 38.1836C201.337 37.9987 201.66 37.9062 202.02 37.9062C202.087 37.9062 202.172 37.9076 202.273 37.9102C202.375 37.9128 202.452 37.9167 202.504 37.9219V38.8594C202.473 38.8516 202.401 38.8398 202.289 38.8242C202.18 38.806 202.064 38.7969 201.941 38.7969C201.65 38.7969 201.389 38.8581 201.16 38.9805C200.934 39.1003 200.754 39.2669 200.621 39.4805C200.491 39.6914 200.426 39.9323 200.426 40.2031V44H199.504ZM208.456 44.1406C208.076 44.1406 207.731 44.069 207.421 43.9258C207.111 43.7799 206.865 43.5703 206.683 43.2969C206.5 43.0208 206.409 42.6875 206.409 42.2969C206.409 41.9531 206.477 41.6745 206.612 41.4609C206.748 41.2448 206.929 41.0755 207.155 40.9531C207.382 40.8307 207.632 40.7396 207.905 40.6797C208.181 40.6172 208.459 40.5677 208.737 40.5313C209.102 40.4844 209.397 40.4492 209.624 40.4258C209.853 40.3997 210.02 40.3568 210.124 40.2969C210.231 40.237 210.284 40.1328 210.284 39.9844V39.9531C210.284 39.5677 210.179 39.2682 209.968 39.0547C209.759 38.8411 209.443 38.7344 209.019 38.7344C208.578 38.7344 208.233 38.8307 207.983 39.0234C207.733 39.2161 207.558 39.4219 207.456 39.6406L206.581 39.3281C206.737 38.9635 206.946 38.6797 207.206 38.4766C207.469 38.2708 207.756 38.1276 208.065 38.0469C208.378 37.9635 208.685 37.9219 208.987 37.9219C209.18 37.9219 209.401 37.9453 209.651 37.9922C209.904 38.0365 210.147 38.1289 210.382 38.2695C210.619 38.4102 210.815 38.6224 210.972 38.9062C211.128 39.1901 211.206 39.5703 211.206 40.0469V44H210.284V43.1875H210.237C210.175 43.3177 210.071 43.457 209.925 43.6055C209.779 43.7539 209.585 43.8802 209.343 43.9844C209.101 44.0885 208.805 44.1406 208.456 44.1406ZM208.597 43.3125C208.961 43.3125 209.269 43.2409 209.519 43.0977C209.771 42.9544 209.961 42.7695 210.089 42.543C210.219 42.3164 210.284 42.0781 210.284 41.8281V40.9844C210.245 41.0312 210.159 41.0742 210.026 41.1133C209.896 41.1497 209.745 41.1823 209.573 41.2109C209.404 41.237 209.239 41.2604 209.077 41.2812C208.918 41.2995 208.789 41.3151 208.69 41.3281C208.451 41.3594 208.227 41.4102 208.019 41.4805C207.813 41.5482 207.646 41.651 207.519 41.7891C207.394 41.9245 207.331 42.1094 207.331 42.3437C207.331 42.6641 207.45 42.9062 207.687 43.0703C207.926 43.2318 208.229 43.3125 208.597 43.3125ZM215.311 46.375C214.865 46.375 214.482 46.3177 214.162 46.2031C213.842 46.0911 213.575 45.9427 213.361 45.7578C213.15 45.5755 212.982 45.3802 212.857 45.1719L213.592 44.6563C213.675 44.7656 213.781 44.8906 213.908 45.0312C214.036 45.1745 214.21 45.2982 214.432 45.4023C214.656 45.5091 214.949 45.5625 215.311 45.5625C215.795 45.5625 216.195 45.4453 216.51 45.2109C216.825 44.9766 216.982 44.6094 216.982 44.1094V42.8906H216.904C216.837 43 216.74 43.1354 216.615 43.2969C216.493 43.4557 216.316 43.5977 216.084 43.7227C215.855 43.8451 215.545 43.9062 215.154 43.9062C214.67 43.9062 214.235 43.7917 213.85 43.5625C213.467 43.3333 213.163 43 212.939 42.5625C212.718 42.125 212.607 41.5937 212.607 40.9687C212.607 40.3542 212.715 39.819 212.932 39.3633C213.148 38.9049 213.449 38.5508 213.834 38.3008C214.219 38.0482 214.665 37.9219 215.17 37.9219C215.561 37.9219 215.87 37.987 216.1 38.1172C216.331 38.2448 216.508 38.3906 216.631 38.5547C216.756 38.7161 216.852 38.849 216.92 38.9531H217.014V38H217.904V44.1719C217.904 44.6875 217.787 45.1068 217.553 45.4297C217.321 45.7552 217.008 45.9935 216.615 46.1445C216.225 46.2982 215.79 46.375 215.311 46.375ZM215.279 43.0781C215.649 43.0781 215.962 42.9935 216.217 42.8242C216.472 42.6549 216.666 42.4115 216.799 42.0938C216.932 41.776 216.998 41.3958 216.998 40.9531C216.998 40.5208 216.933 40.1393 216.803 39.8086C216.673 39.4779 216.48 39.2187 216.225 39.0312C215.969 38.8437 215.654 38.75 215.279 38.75C214.889 38.75 214.563 38.849 214.303 39.0469C214.045 39.2448 213.851 39.5104 213.721 39.8438C213.593 40.1771 213.529 40.5469 213.529 40.9531C213.529 41.3698 213.594 41.7383 213.725 42.0586C213.857 42.3763 214.053 42.6263 214.311 42.8086C214.571 42.9883 214.894 43.0781 215.279 43.0781ZM222.029 44.125C221.488 44.125 221.012 43.9961 220.604 43.7383C220.197 43.4805 219.88 43.1198 219.65 42.6562C219.424 42.1927 219.311 41.651 219.311 41.0312C219.311 40.4062 219.424 39.8607 219.65 39.3945C219.88 38.9284 220.197 38.5664 220.604 38.3086C221.012 38.0508 221.488 37.9219 222.029 37.9219C222.571 37.9219 223.045 38.0508 223.451 38.3086C223.86 38.5664 224.178 38.9284 224.404 39.3945C224.633 39.8607 224.748 40.4062 224.748 41.0312C224.748 41.651 224.633 42.1927 224.404 42.6562C224.178 43.1198 223.86 43.4805 223.451 43.7383C223.045 43.9961 222.571 44.125 222.029 44.125ZM222.029 43.2969C222.441 43.2969 222.779 43.1914 223.045 42.9805C223.311 42.7695 223.507 42.4922 223.635 42.1484C223.762 41.8047 223.826 41.4323 223.826 41.0312C223.826 40.6302 223.762 40.2565 223.635 39.9102C223.507 39.5638 223.311 39.2839 223.045 39.0703C222.779 38.8568 222.441 38.75 222.029 38.75C221.618 38.75 221.279 38.8568 221.014 39.0703C220.748 39.2839 220.551 39.5638 220.424 39.9102C220.296 40.2565 220.232 40.6302 220.232 41.0312C220.232 41.4323 220.296 41.8047 220.424 42.1484C220.551 42.4922 220.748 42.7695 221.014 42.9805C221.279 43.1914 221.618 43.2969 222.029 43.2969Z" fill="#5F5E66"/>
<rect x="295" y="24" width="53" height="16" rx="4" fill="#1DA364"/>
<path d="M308.242 30.1016C308.201 29.7318 308.029 29.4453 307.727 29.2422C307.424 29.0365 307.044 28.9336 306.586 28.9336C306.258 28.9336 305.974 28.9857 305.734 29.0898C305.495 29.1914 305.309 29.332 305.176 29.5117C305.046 29.6888 304.98 29.8906 304.98 30.1172C304.98 30.3073 305.025 30.4714 305.113 30.6094C305.204 30.7474 305.323 30.8633 305.469 30.957C305.617 31.0482 305.776 31.125 305.945 31.1875C306.115 31.2474 306.277 31.2969 306.434 31.3359L307.215 31.5391C307.47 31.6016 307.732 31.6862 308 31.793C308.268 31.8997 308.517 32.0404 308.746 32.2148C308.975 32.3893 309.16 32.6055 309.301 32.8633C309.444 33.1211 309.516 33.4297 309.516 33.7891C309.516 34.2422 309.398 34.6445 309.164 34.9961C308.932 35.3477 308.595 35.625 308.152 35.8281C307.712 36.0313 307.18 36.1328 306.555 36.1328C305.956 36.1328 305.438 36.0378 305 35.8477C304.563 35.6576 304.22 35.388 303.973 35.0391C303.725 34.6875 303.589 34.2708 303.563 33.7891H304.773C304.797 34.0781 304.891 34.319 305.055 34.5117C305.221 34.7018 305.434 34.8437 305.691 34.9375C305.952 35.0286 306.237 35.0742 306.547 35.0742C306.888 35.0742 307.191 35.0208 307.457 34.9141C307.725 34.8047 307.936 34.6536 308.09 34.4609C308.243 34.2656 308.32 34.0378 308.32 33.7773C308.32 33.5404 308.253 33.3464 308.117 33.1953C307.984 33.0443 307.803 32.9193 307.574 32.8203C307.348 32.7214 307.091 32.6341 306.805 32.5586L305.859 32.3008C305.219 32.1263 304.711 31.8698 304.336 31.5312C303.964 31.1927 303.777 30.7448 303.777 30.1875C303.777 29.7266 303.902 29.3242 304.152 28.9805C304.402 28.6367 304.741 28.3698 305.168 28.1797C305.595 27.987 306.077 27.8906 306.613 27.8906C307.155 27.8906 307.633 27.9857 308.047 28.1758C308.464 28.3659 308.792 28.6276 309.031 28.9609C309.271 29.2917 309.396 29.6719 309.406 30.1016H308.242ZM310.768 36V30H311.936V36H310.768ZM311.358 29.0742C311.155 29.0742 310.98 29.0065 310.835 28.8711C310.691 28.7331 310.62 28.569 310.62 28.3789C310.62 28.1862 310.691 28.0221 310.835 27.8867C310.98 27.7487 311.155 27.6797 311.358 27.6797C311.561 27.6797 311.734 27.7487 311.878 27.8867C312.023 28.0221 312.096 28.1862 312.096 28.3789C312.096 28.569 312.023 28.7331 311.878 28.8711C311.734 29.0065 311.561 29.0742 311.358 29.0742ZM315.927 38.375C315.451 38.375 315.04 38.3125 314.697 38.1875C314.356 38.0625 314.077 37.8971 313.861 37.6914C313.645 37.4857 313.483 37.2604 313.376 37.0156L314.38 36.6016C314.451 36.7161 314.544 36.8372 314.662 36.9648C314.781 37.0951 314.943 37.2057 315.146 37.2969C315.352 37.388 315.616 37.4336 315.939 37.4336C316.382 37.4336 316.747 37.3255 317.037 37.1094C317.326 36.8958 317.47 36.5547 317.47 36.0859V34.9062H317.396C317.326 35.0339 317.224 35.1758 317.091 35.332C316.961 35.4883 316.781 35.6237 316.552 35.7383C316.323 35.8529 316.025 35.9102 315.658 35.9102C315.184 35.9102 314.757 35.7995 314.376 35.5781C313.999 35.3542 313.699 35.0247 313.478 34.5898C313.259 34.1523 313.15 33.6146 313.15 32.9766C313.15 32.3385 313.258 31.7917 313.474 31.3359C313.693 30.8802 313.992 30.5312 314.372 30.2891C314.753 30.0443 315.184 29.9219 315.665 29.9219C316.038 29.9219 316.339 29.9844 316.568 30.1094C316.797 30.2318 316.975 30.375 317.103 30.5391C317.233 30.7031 317.333 30.8477 317.404 30.9727H317.49V30H318.634V36.1328C318.634 36.6484 318.514 37.0716 318.275 37.4023C318.035 37.7331 317.711 37.9779 317.302 38.1367C316.896 38.2956 316.438 38.375 315.927 38.375ZM315.915 34.9414C316.251 34.9414 316.535 34.8633 316.767 34.707C317.001 34.5482 317.178 34.3216 317.298 34.0273C317.421 33.7305 317.482 33.375 317.482 32.9609C317.482 32.5573 317.422 32.2018 317.302 31.8945C317.182 31.5872 317.007 31.3477 316.775 31.1758C316.543 31.0013 316.257 30.9141 315.915 30.9141C315.564 30.9141 315.271 31.0052 315.037 31.1875C314.802 31.3672 314.625 31.612 314.505 31.9219C314.388 32.2318 314.329 32.5781 314.329 32.9609C314.329 33.3542 314.389 33.6992 314.509 33.9961C314.629 34.293 314.806 34.5247 315.04 34.6914C315.277 34.8581 315.569 34.9414 315.915 34.9414ZM321.273 32.4375V36H320.105V30H321.226V30.9766H321.3C321.438 30.6589 321.654 30.4036 321.948 30.2109C322.245 30.0182 322.619 29.9219 323.069 29.9219C323.478 29.9219 323.836 30.0078 324.144 30.1797C324.451 30.349 324.689 30.6016 324.858 30.9375C325.028 31.2734 325.112 31.6888 325.112 32.1836V36H323.944V32.3242C323.944 31.8893 323.831 31.5495 323.605 31.3047C323.378 31.0573 323.067 30.9336 322.671 30.9336C322.4 30.9336 322.159 30.9922 321.948 31.1094C321.74 31.2266 321.575 31.3984 321.452 31.625C321.332 31.849 321.273 32.1198 321.273 32.4375ZM329.169 36.1211C328.578 36.1211 328.068 35.9948 327.641 35.7422C327.217 35.487 326.889 35.1289 326.657 34.668C326.428 34.2044 326.313 33.6615 326.313 33.0391C326.313 32.4245 326.428 31.8828 326.657 31.4141C326.889 30.9453 327.212 30.5794 327.626 30.3164C328.042 30.0534 328.529 29.9219 329.087 29.9219C329.425 29.9219 329.753 29.9779 330.071 30.0898C330.389 30.2018 330.674 30.3776 330.927 30.6172C331.179 30.8568 331.378 31.168 331.524 31.5508C331.67 31.931 331.743 32.3932 331.743 32.9375V33.3516H326.973V32.4766H330.598C330.598 32.1693 330.536 31.8971 330.411 31.6602C330.286 31.4206 330.11 31.2318 329.884 31.0937C329.66 30.9557 329.397 30.8867 329.095 30.8867C328.766 30.8867 328.48 30.9674 328.235 31.1289C327.993 31.2878 327.805 31.4961 327.673 31.7539C327.542 32.0091 327.477 32.2865 327.477 32.5859V33.2695C327.477 33.6706 327.548 34.0117 327.688 34.293C327.831 34.5742 328.031 34.7891 328.286 34.9375C328.541 35.0833 328.839 35.1562 329.18 35.1562C329.402 35.1562 329.604 35.125 329.786 35.0625C329.968 34.9974 330.126 34.901 330.259 34.7734C330.391 34.6458 330.493 34.4883 330.563 34.3008L331.669 34.5C331.58 34.8255 331.421 35.1107 331.192 35.3555C330.966 35.5977 330.68 35.7865 330.337 35.9219C329.996 36.0547 329.606 36.1211 329.169 36.1211ZM335.189 36.1172C334.705 36.1172 334.272 35.9935 333.892 35.7461C333.514 35.4961 333.218 35.1406 333.001 34.6797C332.788 34.2161 332.681 33.6602 332.681 33.0117C332.681 32.3633 332.789 31.8086 333.005 31.3477C333.224 30.8867 333.524 30.5339 333.904 30.2891C334.284 30.0443 334.715 29.9219 335.197 29.9219C335.569 29.9219 335.869 29.9844 336.095 30.1094C336.324 30.2318 336.501 30.375 336.626 30.5391C336.754 30.7031 336.853 30.8477 336.923 30.9727H336.994V28H338.162V36H337.021V35.0664H336.923C336.853 35.194 336.751 35.3398 336.619 35.5039C336.488 35.668 336.309 35.8112 336.08 35.9336C335.85 36.056 335.554 36.1172 335.189 36.1172ZM335.447 35.1211C335.783 35.1211 336.067 35.0326 336.298 34.8555C336.533 34.6758 336.71 34.4271 336.83 34.1094C336.952 33.7917 337.013 33.4219 337.013 33C337.013 32.5833 336.953 32.2187 336.833 31.9062C336.714 31.5937 336.538 31.3503 336.306 31.1758C336.074 31.0013 335.788 30.9141 335.447 30.9141C335.095 30.9141 334.802 31.0052 334.568 31.1875C334.333 31.3698 334.156 31.6185 334.037 31.9336C333.919 32.2487 333.861 32.6042 333.861 33C333.861 33.401 333.921 33.7617 334.041 34.082C334.16 34.4023 334.337 34.6562 334.572 34.8437C334.809 35.0286 335.1 35.1211 335.447 35.1211Z" fill="white"/>
<rect x="371" y="21" width="22" height="22" rx="11" fill="#5181E0"/>
<path d="M375.692 28.4545H376.891L378.975 33.5426H379.051L381.135 28.4545H382.334V35H381.394V30.2635H381.333L379.403 34.9904H378.623L376.693 30.2603H376.632V35H375.692V28.4545ZM383.769 35V28.4545H384.757V31.5803H384.837L387.582 28.4545H388.826L386.186 31.4013L388.835 35H387.646L385.53 32.0756L384.757 32.9641V35H383.769Z" fill="white"/>
<rect x="371" y="21" width="22" height="22" rx="11" stroke="white" stroke-width="2"/>
<rect x="16.5" y="8.5" width="383" height="47" rx="7.5" stroke="#E9E8EB"/>
</g>
<defs>
<filter id="filter0_d_5421_326899" x="0" y="0" width="416" height="80" filterUnits="userSpaceOnUse" color-interpolation-filters="sRGB">
<feFlood flood-opacity="0" result="BackgroundImageFix"/>
<feColorMatrix in="SourceAlpha" type="matrix" values="0 0 0 0 0 0 0 0 0 0 0 0 0 0 0 0 0 0 127 0" result="hardAlpha"/>
<feOffset dy="8"/>
<feGaussianBlur stdDeviation="8"/>
<feComposite in2="hardAlpha" operator="out"/>
<feColorMatrix type="matrix" values="0 0 0 0 0 0 0 0 0 0 0 0 0 0 0 0 0 0 0.08 0"/>
<feBlend mode="normal" in2="BackgroundImageFix" result="effect1_dropShadow_5421_326899"/>
<feBlend mode="normal" in="SourceGraphic" in2="effect1_dropShadow_5421_326899" result="shape"/>
</filter>
<filter id="filter1_f_5421_326899" x="40" y="13.5" width="14.5" height="14.5" filterUnits="userSpaceOnUse" color-interpolation-filters="sRGB">
<feFlood flood-opacity="0" result="BackgroundImageFix"/>
<feBlend mode="normal" in="SourceGraphic" in2="BackgroundImageFix" result="shape"/>
<feGaussianBlur stdDeviation="1.5" result="effect1_foregroundBlur_5421_326899"/>
</filter>
</defs>
</svg>
