<svg width="25" height="24" viewBox="0 0 25 24" fill="none" xmlns="http://www.w3.org/2000/svg">
<path d="M21.425 3.6001C22.2945 3.6001 23 4.30524 23 5.1751V18.8251C23 19.6946 22.2945 20.4001 21.425 20.4001H15.125C15.4531 19.9604 15.65 19.4157 15.65 18.8251V15.1501H16.175C16.4637 15.1501 16.7 14.9138 16.7 14.6251V13.5751C16.7 13.2863 16.4637 13.0501 16.175 13.0501H15.65V12.6924C15.65 12.4562 15.6172 12.2232 15.5581 12.0001H16.175C16.4637 12.0001 16.7 11.7638 16.7 11.4751V10.4251C16.7 10.1363 16.4637 9.9001 16.175 9.9001H15.125C14.8362 9.9001 14.6 10.1363 14.6 10.4251V10.576L12.5 8.64994V5.1751C12.5 4.30524 13.2055 3.6001 14.075 3.6001H21.425ZM18.8 11.4751C18.8 11.7638 19.0362 12.0001 19.325 12.0001H20.375C20.6637 12.0001 20.9 11.7638 20.9 11.4751V10.4251C20.9 10.1363 20.6637 9.9001 20.375 9.9001H19.325C19.0362 9.9001 18.8 10.1363 18.8 10.4251V11.4751ZM19.325 13.0501C19.0362 13.0501 18.8 13.2863 18.8 13.5751V14.6251C18.8 14.9138 19.0362 15.1501 19.325 15.1501H20.375C20.6637 15.1501 20.9 14.9138 20.9 14.6251V13.5751C20.9 13.2863 20.6637 13.0501 20.375 13.0501H19.325ZM15.125 6.7501C14.8362 6.7501 14.6 6.98635 14.6 7.2751V8.3251C14.6 8.61385 14.8362 8.8501 15.125 8.8501H16.175C16.4637 8.8501 16.7 8.61385 16.7 8.3251V7.2751C16.7 6.98635 16.4637 6.7501 16.175 6.7501H15.125ZM18.8 8.3251C18.8 8.61385 19.0362 8.8501 19.325 8.8501H20.375C20.6637 8.8501 20.9 8.61385 20.9 8.3251V7.2751C20.9 6.98635 20.6637 6.7501 20.375 6.7501H19.325C19.0362 6.7501 18.8 6.98635 18.8 7.2751V8.3251ZM2.51089 11.5309L7.23687 7.19963C7.83734 6.64871 8.76266 6.64871 9.36312 7.19963L14.0881 11.5309C14.4162 11.8295 14.6 12.2528 14.6 12.6924V18.8251C14.6 19.6946 13.8945 20.4001 13.025 20.4001H3.575C2.70514 20.4001 2 19.6946 2 18.8251V12.6924C2 12.2528 2.18529 11.8295 2.51089 11.5309V11.5309ZM6.725 14.8876C6.725 15.324 7.07609 15.6751 7.5125 15.6751H9.0875C9.52391 15.6751 9.875 15.324 9.875 14.8876V13.3126C9.875 12.8762 9.52391 12.5251 9.0875 12.5251H7.5125C7.07609 12.5251 6.725 12.8762 6.725 13.3126V14.8876Z" fill="#ABA9B8"/>
</svg>
