<svg width="25" height="24" viewBox="0 0 25 24" fill="none" xmlns="http://www.w3.org/2000/svg">
<path d="M16.2504 1C16.5941 1 16.8754 1.27985 16.8754 1.62501V4.12505C16.8754 4.47037 16.5941 4.75007 16.2504 4.75007H13.1253V6.00009H20.6255C21.3169 6.00009 21.8755 6.55869 21.8755 7.25011C21.8755 7.94153 21.3169 8.50013 20.6255 8.50013H4.34003C3.68494 8.50013 3.09 7.94153 3.09 7.25011C3.09 6.55869 3.68494 6.00009 4.34003 6.00009H11.8402V1.62501C11.8402 1.27985 12.1566 1 12.4652 1H16.2504ZM4.96504 9.75015H7.46508V17.2503H9.02761V9.75015H11.5277V17.2503H13.4378V9.75015H15.9379V17.2503H17.5004V9.75015H20.0005V17.4183C20.0239 17.43 20.0473 17.4104 20.0708 17.4612L21.9458 18.7112C22.4028 19.0159 22.606 19.5863 22.4458 20.1136C22.2857 20.641 21.8013 21.0003 21.2505 21.0003H3.71502C3.19938 21.0003 2.71336 20.641 2.55375 20.1136C2.39409 19.5863 2.59839 19.0159 3.0568 18.7112L4.93183 17.4612C4.9541 17.4104 4.97676 17.43 4.96504 17.4183V9.75015Z" fill="#ABA9B8"/>
</svg>
