<svg width="164" height="30" viewBox="0 0 164 30" fill="none" xmlns="http://www.w3.org/2000/svg">
<g clip-path="url(#clip0_5611_12659)">
<path d="M3.41212 0.599976L0.199219 29.4H20.6786L23.8972 0.599976H3.41212Z" fill="#214F8A"/>
<path d="M3.78125 21.6001V12.1198H19.1696V15.9142H7.62979V21.6001H3.78125Z" fill="#66B8E7"/>
<path d="M15.3211 17.8059H19.1696V27.292H3.78125V23.4975H15.3211V17.8059Z" fill="#66B8E7"/>
<path d="M13.3974 17.8115H9.54883V21.6059H13.3974V17.8115Z" fill="#66B8E7"/>
<path d="M119.262 21.617H128.935V18.8196H119.262V15.4183H129.53V12.2164H115.5V28.2145H129.779V25.0126H119.262V21.617Z" fill="black"/>
<path d="M158.481 12.2164L152.402 18.8139H151.946V12.2164H148.207V28.2145H151.946V21.6113H152.402L158.799 28.2145H164L155.644 20.1072L163.145 12.2164H158.481Z" fill="black"/>
<path d="M83.047 25.0183V15.4183H88.8256C91.5993 15.4183 92.183 17.9935 92.183 20.2383C92.183 22.483 91.4722 25.0126 88.7158 25.0126L83.047 25.0183ZM88.6465 12.2221H79.2852V28.2145H88.6465C94.1304 28.2145 95.9333 25.1608 95.9333 20.2383C95.9333 15.3158 94.1304 12.2164 88.6465 12.2164V12.2221Z" fill="black"/>
<path d="M58.1294 12.2111C56.9737 12.1085 55.818 12.0288 54.6623 12.0345C53.5066 12.0402 52.3508 12.1142 51.1951 12.2111C47.9533 12.4846 45.769 13.983 45.769 18.1192V22.3011C45.7445 23.4348 46.0342 24.5537 46.6069 25.5371C47.4249 26.8046 48.7018 27.7173 50.1781 28.0895C50.9863 28.2657 51.812 28.3517 52.6398 28.3459C53.3216 28.3459 53.9862 28.3744 54.6565 28.3744C55.3268 28.3744 55.9913 28.3744 56.6732 28.3459C57.5009 28.3517 58.3267 28.2657 59.1349 28.0895C60.6111 27.7173 61.8881 26.8046 62.7061 25.5371C63.279 24.5538 63.5688 23.4348 63.544 22.3011V18.1192C63.5613 13.983 61.3712 12.4846 58.1294 12.2111ZM59.707 21.8965C59.707 24.2438 59.2505 24.899 57.4822 25.0757C56.5576 25.1725 55.4019 25.2124 54.668 25.2124C53.9342 25.2124 52.7842 25.1725 51.8539 25.0757C50.0856 24.899 49.6291 24.2438 49.6291 21.8965V18.3072C49.6291 16.6436 49.7736 15.6124 51.8134 15.3959C53.7102 15.2151 55.6202 15.2151 57.5169 15.3959C59.5567 15.6124 59.7012 16.6436 59.7012 18.3072L59.707 21.8965Z" fill="black"/>
<path d="M70.1728 25.0187C69.911 25.048 69.6471 24.9855 69.4273 24.842C69.2991 24.7153 69.203 24.5605 69.1468 24.3902C69.0905 24.2199 69.0758 24.039 69.1037 23.8621V12.2111H65.3477V23.7311C65.3477 25.1098 65.3997 26.5797 66.5958 27.5312C67.4626 28.1978 68.4508 28.2092 69.4851 28.2092H77.5521V25.0187H70.1728Z" fill="black"/>
<path d="M111.304 20.4608L110.726 20.3468V20.1019L111.304 19.9025C112.333 19.5378 113.182 19.0194 113.182 16.3188C113.182 13.4132 110.911 12.2281 107.404 12.2281H97.7246V28.2149H108.588C110.322 28.2149 113.679 27.6736 113.679 24.0558C113.679 21.8054 113.015 20.7912 111.304 20.4608ZM101.481 15.4244H107.837C109.195 15.4244 109.467 16.3188 109.467 17.1677C109.467 18.0166 109.097 18.82 107.837 18.82H101.481V15.4244ZM108.178 25.0187H101.481V21.6003H108.178C109.536 21.6003 109.808 22.4947 109.808 23.3436C109.808 24.1925 109.432 25.0187 108.178 25.0187Z" fill="black"/>
<path d="M136.569 24.8136C135.413 24.2781 135.286 23.1044 135.286 21.4579V18.9739C135.286 17.3558 135.396 16.1252 136.569 15.6182C136.569 15.6182 138.742 14.5357 145.745 15.8859L146.184 12.7923C144.291 12.3933 142.368 12.1457 140.435 12.0516C139.068 11.9774 137.698 12.0538 136.349 12.2795C135.783 12.3786 135.227 12.5312 134.691 12.7353C132.322 13.6526 131.432 15.8688 131.432 18.256V22.1701C131.432 24.5516 132.322 26.7735 134.691 27.6908C135.227 27.8949 135.783 28.0475 136.349 28.1466C137.698 28.3719 139.068 28.4484 140.435 28.3745C142.368 28.2805 144.291 28.0328 146.184 27.6338L145.739 24.5459C138.742 25.8904 136.569 24.8136 136.569 24.8136Z" fill="black"/>
<path d="M36.1006 18.7916V21.6004H40.5675V23.7882C40.5742 24.0911 40.4832 24.3884 40.3074 24.6371C40.1724 24.7752 40.011 24.8855 39.8324 24.9618C39.6539 25.0381 39.4618 25.0788 39.2673 25.0815C38.3438 25.1715 37.4154 25.2039 36.4878 25.1783C35.5112 25.1783 34.5404 25.1384 33.5638 25.0416C31.2062 24.808 30.8363 23.7312 30.8363 21.3212V19.1391C30.8363 17.2761 31.0212 16.017 32.5699 15.5555C33.7097 15.3213 34.8732 15.218 36.0371 15.2479H37.1928C39.0733 15.2758 40.9459 15.4953 42.7807 15.9031L43.4568 13.0544C41.0305 12.3878 38.521 12.0617 36.0024 12.0858C34.6727 12.0918 33.3448 12.1812 32.0267 12.3536C31.0782 12.4615 30.1661 12.7769 29.357 13.2766C27.9181 14.2622 27.0918 16.0227 27.0918 18.4042V22.0562C27.0918 24.751 27.9413 26.614 29.6113 27.5028C30.9288 28.2492 32.4428 28.346 33.9568 28.3631C34.211 28.3631 35.2743 28.3916 36.3029 28.3916C37.2448 28.3916 38.152 28.3631 38.6779 28.3631C39.9838 28.3631 41.5672 28.1808 42.6247 27.3262C43.6821 26.4716 43.9653 25.1555 43.9653 23.8565V18.7916H36.1006Z" fill="black"/>
</g>
<defs>
<clipPath id="clip0_5611_12659">
<rect width="163.8" height="28.8" fill="white" transform="translate(0.199219 0.599976)"/>
</clipPath>
</defs>
</svg>
