<svg width="24" height="24" viewBox="0 0 24 24" fill="none" xmlns="http://www.w3.org/2000/svg">
<rect width="24" height="24" rx="4" fill="#003399"/>
<path d="M11.9956 2.00098L11.5602 3.35092L12.2302 3.57023L11.9956 2.00098Z" fill="#FFCC00"/>
<path d="M11.9956 2.00098L12.431 3.35092L11.761 3.57023L11.9956 2.00098Z" fill="#FFCC00"/>
<path d="M13.3364 2.98145L11.9287 2.984L11.9274 3.6911L13.3364 2.98145Z" fill="#FFCC00"/>
<path d="M13.3364 2.98047L12.1954 3.81579L11.7823 3.24296L13.3364 2.98047Z" fill="#FFCC00"/>
<path d="M12.8223 4.56738L12.3878 3.21836L11.7167 3.43833L12.8223 4.56738Z" fill="#FFCC00"/>
<path d="M12.8223 4.56836L11.6829 3.73497L12.0977 3.16015L12.8223 4.56836Z" fill="#FFCC00"/>
<path d="M10.6577 2.98145L12.0654 2.98386L12.0666 3.69097L10.6577 2.98145Z" fill="#FFCC00"/>
<path d="M10.6572 2.98047L11.7983 3.81579L12.2113 3.24296L10.6572 2.98047Z" fill="#FFCC00"/>
<path d="M11.1714 4.56836L11.6059 3.21935L12.277 3.43929L11.1714 4.56836Z" fill="#FFCC00"/>
<path d="M11.1714 4.56836L12.3107 3.73493L11.8959 3.16009L11.1714 4.56836Z" fill="#FFCC00"/>
<path d="M11.9956 19.0342L11.5602 20.3841L12.2302 20.6034L11.9956 19.0342Z" fill="#FFCC00"/>
<path d="M11.9956 19.0342L12.431 20.3841L11.761 20.6034L11.9956 19.0342Z" fill="#FFCC00"/>
<path d="M13.3364 20.0146L11.9287 20.0172L11.9274 20.7243L13.3364 20.0146Z" fill="#FFCC00"/>
<path d="M13.3364 20.0137L12.1954 20.849L11.7823 20.2762L13.3364 20.0137Z" fill="#FFCC00"/>
<path d="M12.8223 21.6006L12.3878 20.2516L11.7167 20.4715L12.8223 21.6006Z" fill="#FFCC00"/>
<path d="M12.8223 21.6016L11.6829 20.7682L12.0977 20.1934L12.8223 21.6016Z" fill="#FFCC00"/>
<path d="M10.6577 20.0146L12.0654 20.0171L12.0666 20.7242L10.6577 20.0146Z" fill="#FFCC00"/>
<path d="M10.6572 20.0137L11.7983 20.849L12.2113 20.2762L10.6572 20.0137Z" fill="#FFCC00"/>
<path d="M11.1714 21.6016L11.6059 20.2526L12.277 20.4725L11.1714 21.6016Z" fill="#FFCC00"/>
<path d="M11.1714 21.6016L12.3107 20.7681L11.8959 20.1933L11.1714 21.6016Z" fill="#FFCC00"/>
<path d="M3.54395 10.5176L3.10842 11.8675L3.77841 12.0867L3.54395 10.5176Z" fill="#FFCC00"/>
<path d="M3.54395 10.5176L3.97947 11.8675L3.30948 12.0867L3.54395 10.5176Z" fill="#FFCC00"/>
<path d="M4.8877 11.498L3.47998 11.5006L3.47872 12.2077L4.8877 11.498Z" fill="#FFCC00"/>
<path d="M4.8877 11.4971L3.74666 12.3324L3.33361 11.7596L4.8877 11.4971Z" fill="#FFCC00"/>
<path d="M4.37158 13.084L3.93711 11.735L3.26604 11.9549L4.37158 13.084Z" fill="#FFCC00"/>
<path d="M4.37158 13.085L3.2322 12.2516L3.64703 11.6768L4.37158 13.085Z" fill="#FFCC00"/>
<path d="M2.2041 11.498L3.61181 11.5006L3.61308 12.2077L2.2041 11.498Z" fill="#FFCC00"/>
<path d="M2.2041 11.4971L3.34514 12.3324L3.75818 11.7596L2.2041 11.4971Z" fill="#FFCC00"/>
<path d="M2.71826 13.083L3.15279 11.7338L3.82377 11.9538L2.71826 13.083Z" fill="#FFCC00"/>
<path d="M2.71826 13.084L3.85751 12.2507L3.44263 11.6758L2.71826 13.084Z" fill="#FFCC00"/>
<path d="M6.94482 5.70898L8.08414 4.87559L7.66929 4.30072L6.94482 5.70898Z" fill="#FFCC00"/>
<path d="M6.94238 5.70801L7.37681 4.35901L8.04792 4.57902L6.94238 5.70801Z" fill="#FFCC00"/>
<path d="M6.43066 4.12109L7.57125 4.95594L7.98477 4.38255L6.43066 4.12109Z" fill="#FFCC00"/>
<path d="M6.43018 4.12109L7.83859 4.12248L7.83928 4.83069L6.43018 4.12109Z" fill="#FFCC00"/>
<path d="M7.76904 3.1416L7.33463 4.49055L8.00576 4.71056L7.76904 3.1416Z" fill="#FFCC00"/>
<path d="M7.76904 3.1416L8.20555 4.49205L7.53651 4.71056L7.76904 3.1416Z" fill="#FFCC00"/>
<path d="M8.60352 5.70898L7.46285 4.87412L7.87634 4.3008L8.60352 5.70898Z" fill="#FFCC00"/>
<path d="M8.60352 5.70898L8.16713 4.35869L7.49795 4.57729L8.60352 5.70898Z" fill="#FFCC00"/>
<path d="M9.11426 4.12207L7.97471 4.95566L7.56007 4.38105L9.11426 4.12207Z" fill="#FFCC00"/>
<path d="M9.11426 4.12305L7.70563 4.12193L7.70618 4.83036L9.11426 4.12305Z" fill="#FFCC00"/>
<path d="M5.50342 8.8252L5.06894 7.47622L4.39782 7.6962L5.50342 8.8252Z" fill="#FFCC00"/>
<path d="M5.50146 8.82617L4.36212 7.99282L4.77698 7.41796L5.50146 8.82617Z" fill="#FFCC00"/>
<path d="M3.84668 8.82715L4.98737 7.99232L4.57387 7.41901L3.84668 8.82715Z" fill="#FFCC00"/>
<path d="M3.84668 8.82812L4.28302 7.47781L4.9522 7.69643L3.84668 8.82812Z" fill="#FFCC00"/>
<path d="M3.33496 7.24023L4.47452 8.07381L4.88917 7.49921L3.33496 7.24023Z" fill="#FFCC00"/>
<path d="M3.33447 7.24121L4.7431 7.24009L4.74255 7.94852L3.33447 7.24121Z" fill="#FFCC00"/>
<path d="M6.01221 7.23828L4.87159 8.07309L4.45806 7.49971L6.01221 7.23828Z" fill="#FFCC00"/>
<path d="M6.01221 7.23828L4.60379 7.23966L4.6031 7.94788L6.01221 7.23828Z" fill="#FFCC00"/>
<path d="M4.67334 6.25879L5.10775 7.60773L4.43662 7.82775L4.67334 6.25879Z" fill="#FFCC00"/>
<path d="M4.67334 6.25879L4.23683 7.60923L4.90587 7.82775L4.67334 6.25879Z" fill="#FFCC00"/>
<path d="M6.01416 15.7568L4.60697 15.7603L4.60525 16.4664L6.01416 15.7568Z" fill="#FFCC00"/>
<path d="M6.01416 15.7549L4.87274 16.5908L4.46021 16.0185L6.01416 15.7549Z" fill="#FFCC00"/>
<path d="M5.5 17.3428L5.06719 15.9949L4.39447 16.2161L5.5 17.3428Z" fill="#FFCC00"/>
<path d="M5.5 17.3447L4.36175 16.5126L4.77775 15.9365L5.5 17.3447Z" fill="#FFCC00"/>
<path d="M3.84375 17.3428L4.98492 16.5073L4.57193 15.9346L3.84375 17.3428Z" fill="#FFCC00"/>
<path d="M3.8457 17.3447L4.28279 15.9939L4.95126 16.212L3.8457 17.3447Z" fill="#FFCC00"/>
<path d="M4.67529 14.7764L5.10853 16.1245L4.43623 16.3454L4.67529 14.7764Z" fill="#FFCC00"/>
<path d="M4.67529 14.7764L4.23753 16.1278L4.9053 16.3454L4.67529 14.7764Z" fill="#FFCC00"/>
<path d="M3.33643 15.7568L4.74471 15.7554L4.74402 16.4636L3.33643 15.7568Z" fill="#FFCC00"/>
<path d="M3.33447 15.7568L4.47381 16.5905L4.88847 16.0157L3.33447 15.7568Z" fill="#FFCC00"/>
<path d="M9.11182 18.874L7.70462 18.8776L7.70284 19.5837L9.11182 18.874Z" fill="#FFCC00"/>
<path d="M9.11182 18.8721L7.97031 19.7079L7.55774 19.1356L9.11182 18.8721Z" fill="#FFCC00"/>
<path d="M8.60059 20.459L8.16777 19.1111L7.49506 19.3323L8.60059 20.459Z" fill="#FFCC00"/>
<path d="M8.60059 20.4609L7.46234 19.6289L7.87834 19.0527L8.60059 20.4609Z" fill="#FFCC00"/>
<path d="M6.94482 20.46L8.08599 19.6245L7.67301 19.0518L6.94482 20.46Z" fill="#FFCC00"/>
<path d="M6.94678 20.4619L7.38386 19.1111L8.05234 19.3292L6.94678 20.4619Z" fill="#FFCC00"/>
<path d="M7.77246 17.8936L8.20569 19.2417L7.5334 19.4626L7.77246 17.8936Z" fill="#FFCC00"/>
<path d="M7.77246 17.8936L7.3347 19.245L8.00247 19.4626L7.77246 17.8936Z" fill="#FFCC00"/>
<path d="M6.4292 18.875L7.83762 18.8735L7.83691 19.5817L6.4292 18.875Z" fill="#FFCC00"/>
<path d="M6.42725 18.875L7.56661 19.7084L7.9814 19.1336L6.42725 18.875Z" fill="#FFCC00"/>
<path d="M20.4531 10.5186L20.8886 11.8684L20.2187 12.0877L20.4531 10.5186Z" fill="#FFCC00"/>
<path d="M20.4531 10.5186L20.0176 11.8684L20.6876 12.0877L20.4531 10.5186Z" fill="#FFCC00"/>
<path d="M19.1113 11.499L20.519 11.5016L20.5203 12.2087L19.1113 11.499Z" fill="#FFCC00"/>
<path d="M19.1113 11.498L20.2524 12.3334L20.6654 11.7605L19.1113 11.498Z" fill="#FFCC00"/>
<path d="M19.6235 13.084L20.058 11.735L20.7291 11.9549L19.6235 13.084Z" fill="#FFCC00"/>
<path d="M19.6235 13.085L20.7629 12.2516L20.3481 11.6768L19.6235 13.085Z" fill="#FFCC00"/>
<path d="M21.793 11.5L20.3853 11.5024L20.3841 12.2095L21.793 11.5Z" fill="#FFCC00"/>
<path d="M21.793 11.499L20.652 12.3345L20.239 11.7616L21.793 11.499Z" fill="#FFCC00"/>
<path d="M21.2788 13.0869L20.8443 11.7379L20.1733 11.9579L21.2788 13.0869Z" fill="#FFCC00"/>
<path d="M21.2788 13.0869L20.1394 12.2535L20.5543 11.6787L21.2788 13.0869Z" fill="#FFCC00"/>
<path d="M17.0532 5.70898L15.9139 4.87563L16.3287 4.30078L17.0532 5.70898Z" fill="#FFCC00"/>
<path d="M17.0552 5.70801L16.6207 4.35901L15.9496 4.57902L17.0552 5.70801Z" fill="#FFCC00"/>
<path d="M17.5674 4.12109L16.4268 4.95594L16.0133 4.38255L17.5674 4.12109Z" fill="#FFCC00"/>
<path d="M17.5674 4.12109L16.159 4.12248L16.1583 4.83069L17.5674 4.12109Z" fill="#FFCC00"/>
<path d="M16.2285 3.1416L16.6629 4.49055L15.9918 4.71056L16.2285 3.1416Z" fill="#FFCC00"/>
<path d="M16.2285 3.1416L15.792 4.49205L16.461 4.71056L16.2285 3.1416Z" fill="#FFCC00"/>
<path d="M15.3945 5.70996L16.5352 4.8751L16.1217 4.30178L15.3945 5.70996Z" fill="#FFCC00"/>
<path d="M15.3945 5.70996L15.8309 4.35966L16.5001 4.57826L15.3945 5.70996Z" fill="#FFCC00"/>
<path d="M14.8818 4.12305L16.0214 4.95664L16.436 4.38203L14.8818 4.12305Z" fill="#FFCC00"/>
<path d="M14.8818 4.12402L16.2905 4.1229L16.2899 4.83134L14.8818 4.12402Z" fill="#FFCC00"/>
<path d="M18.4922 8.82617L18.9266 7.47718L19.5977 7.69719L18.4922 8.82617Z" fill="#FFCC00"/>
<path d="M18.4941 8.82715L19.6335 7.9938L19.2186 7.41894L18.4941 8.82715Z" fill="#FFCC00"/>
<path d="M20.1504 8.82617L19.0097 7.99134L19.4232 7.41803L20.1504 8.82617Z" fill="#FFCC00"/>
<path d="M20.1504 8.82715L19.714 7.47684L19.0449 7.69546L20.1504 8.82715Z" fill="#FFCC00"/>
<path d="M20.6641 7.24023L19.5245 8.07381L19.1099 7.49921L20.6641 7.24023Z" fill="#FFCC00"/>
<path d="M20.6646 7.24121L19.2559 7.24009L19.2565 7.94852L20.6646 7.24121Z" fill="#FFCC00"/>
<path d="M17.9829 7.23926L19.1235 8.07407L19.5371 7.50069L17.9829 7.23926Z" fill="#FFCC00"/>
<path d="M17.9829 7.23926L19.3913 7.24064L19.392 7.94885L17.9829 7.23926Z" fill="#FFCC00"/>
<path d="M19.3237 6.26074L18.8893 7.60969L19.5605 7.8297L19.3237 6.26074Z" fill="#FFCC00"/>
<path d="M19.3237 6.26074L19.7602 7.61119L19.0912 7.8297L19.3237 6.26074Z" fill="#FFCC00"/>
<path d="M17.9849 15.7578L19.3921 15.7613L19.3938 16.4673L17.9849 15.7578Z" fill="#FFCC00"/>
<path d="M17.9849 15.7559L19.1263 16.5918L19.5388 16.0195L17.9849 15.7559Z" fill="#FFCC00"/>
<path d="M18.4995 17.3438L18.9323 15.9959L19.605 16.217L18.4995 17.3438Z" fill="#FFCC00"/>
<path d="M18.4995 17.3457L19.6377 16.5135L19.2217 15.9374L18.4995 17.3457Z" fill="#FFCC00"/>
<path d="M20.1553 17.3438L19.0141 16.5083L19.4271 15.9356L20.1553 17.3438Z" fill="#FFCC00"/>
<path d="M20.1533 17.3457L19.7162 15.9949L19.0478 16.213L20.1533 17.3457Z" fill="#FFCC00"/>
<path d="M19.3223 14.7773L18.889 16.1255L19.5613 16.3464L19.3223 14.7773Z" fill="#FFCC00"/>
<path d="M19.3223 14.7773L19.76 16.1288L19.0923 16.3464L19.3223 14.7773Z" fill="#FFCC00"/>
<path d="M20.6611 15.7568L19.2527 15.7554L19.2534 16.4636L20.6611 15.7568Z" fill="#FFCC00"/>
<path d="M20.6636 15.7568L19.5242 16.5903L19.1095 16.0154L20.6636 15.7568Z" fill="#FFCC00"/>
<path d="M14.8853 18.874L16.2924 18.8776L16.2942 19.5837L14.8853 18.874Z" fill="#FFCC00"/>
<path d="M14.8853 18.8721L16.0268 19.7079L16.4393 19.1356L14.8853 18.8721Z" fill="#FFCC00"/>
<path d="M15.397 20.459L15.8298 19.1111L16.5025 19.3323L15.397 20.459Z" fill="#FFCC00"/>
<path d="M15.397 20.4609L16.5352 19.6289L16.1192 19.0527L15.397 20.4609Z" fill="#FFCC00"/>
<path d="M17.0527 20.4609L15.9115 19.6255L16.3245 19.0528L17.0527 20.4609Z" fill="#FFCC00"/>
<path d="M17.0503 20.4629L16.6132 19.1121L15.9447 19.3302L17.0503 20.4629Z" fill="#FFCC00"/>
<path d="M16.2236 17.8916L15.7904 19.2398L16.4627 19.4607L16.2236 17.8916Z" fill="#FFCC00"/>
<path d="M16.2236 17.8916L16.6614 19.2431L15.9936 19.4607L16.2236 17.8916Z" fill="#FFCC00"/>
<path d="M17.5664 18.875L16.158 18.8736L16.1587 19.5817L17.5664 18.875Z" fill="#FFCC00"/>
<path d="M17.5684 18.874L16.429 19.7074L16.0142 19.1326L17.5684 18.874Z" fill="#FFCC00"/>
<g clip-path="url(#clip0_4572_16123)">
<path d="M12 8C13.2422 8 14.25 9.00734 14.25 10.25V11H14.5C15.0516 11 15.5 11.4484 15.5 12V15C15.5 15.5516 15.0516 16 14.5 16H9.5C8.94766 16 8.5 15.5516 8.5 15V12C8.5 11.4484 8.94766 11 9.5 11H9.75V10.25C9.75 9.00734 10.7578 8 12 8ZM12 9C11.3094 9 10.75 9.55969 10.75 10.25V11H13.25V10.25C13.25 9.55969 12.6906 9 12 9ZM12.5 13C12.5 12.7234 12.2766 12.5 12 12.5C11.7234 12.5 11.5 12.7234 11.5 13V14C11.5 14.2766 11.7234 14.5 12 14.5C12.2766 14.5 12.5 14.2766 12.5 14V13Z" fill="white"/>
</g>
<defs>
<clipPath id="clip0_4572_16123">
<rect width="8" height="8" fill="white" transform="translate(8 8)"/>
</clipPath>
</defs>
</svg>
