<svg width="16" height="16" viewBox="0 0 16 16" fill="none" xmlns="http://www.w3.org/2000/svg">
<path d="M15.4889 3.84166C15.1686 3.63594 14.77 3.60858 14.4256 3.76699L11.5556 5.08333V4.55555C11.5556 3.5736 10.7597 2.77777 9.77778 2.77777H1.77778C0.795833 2.77777 0 3.5736 0 4.55555V11.6667C0 12.6486 0.795833 13.4444 1.77778 13.4444H9.77778C10.7597 13.4444 11.5556 12.6486 11.5556 11.6667V11.1383L14.425 12.4539C14.5704 12.5209 14.7285 12.5557 14.8886 12.5559C15.0978 12.5559 15.3058 12.4964 15.4883 12.3792C15.8083 12.175 16 11.825 16 11.4194V4.77777C16 4.39722 15.8083 4.04999 15.4889 3.84166ZM10.2222 11.6667C10.2222 11.9117 10.0228 12.1111 9.77778 12.1111H1.77778C1.53272 12.1111 1.33333 11.9117 1.33333 11.6667V4.55555C1.33333 4.31049 1.53272 4.1111 1.77778 4.1111H9.77778C10.0228 4.1111 10.2222 4.31049 10.2222 4.55555V11.6667ZM14.6667 11.0972L11.5556 9.67222V6.54999L14.6667 5.12416V11.0972Z" fill="white"/>
</svg>
